<svg width="1388" height="1331" xmlns="http://www.w3.org/2000/svg">
<rect width="1388" height="1331" fill="#f5f5f5"/>
<rect x="15" y="15" width="1358" height="1301" fill="white" stroke="none" rx="12"/>
<text x="40" y="48" fill="#666" font-family="Arial,sans-serif" font-size="14" font-weight="bold" letter-spacing="1px">ATTRIBUTION CIRCUIT</text>
<text x="25" y="96.0" fill="#999" font-family="monospace" font-size="10" font-weight="bold" text-anchor="start">L36</text>
<text x="25" y="234.0" fill="#999" font-family="monospace" font-size="10" font-weight="bold" text-anchor="start">L6</text>
<text x="25" y="379.0" fill="#999" font-family="monospace" font-size="10" font-weight="bold" text-anchor="start">L5</text>
<text x="25" y="531.0" fill="#999" font-family="monospace" font-size="10" font-weight="bold" text-anchor="start">L4</text>
<text x="25" y="690.0" fill="#999" font-family="monospace" font-size="10" font-weight="bold" text-anchor="start">L3</text>
<text x="25" y="835.0" fill="#999" font-family="monospace" font-size="10" font-weight="bold" text-anchor="start">L2</text>
<text x="25" y="973.0" fill="#999" font-family="monospace" font-size="10" font-weight="bold" text-anchor="start">L1</text>
<text x="25" y="1111.0" fill="#999" font-family="monospace" font-size="10" font-weight="bold" text-anchor="start">L0</text>
<defs><marker id="arrow" markerWidth="8" markerHeight="6" refX="8" refY="3" orient="auto"><polygon points="0,0 8,3 0,6" fill="#8B4513" fill-opacity="0.7"/></marker></defs>
<path d="M 180.0,1136.0 C 327.15,1107.0 1013.85,1107.0 1161.0,1078.0" fill="none" stroke="#8B4513" stroke-width="3" stroke-opacity="0.6" marker-end="url(#arrow)"/>
<path d="M 180.0,1078.0 C 230.41649999999998,824.0 465.6934999999999,824.0 516.1099999999999,570.0" fill="none" stroke="#8B4513" stroke-width="3" stroke-opacity="0.6" marker-end="url(#arrow)"/>
<path d="M 180.0,1078.0 C 184.94325,817.0 208.01174999999998,817.0 212.95499999999998,556.0" fill="none" stroke="#8B4513" stroke-width="3" stroke-opacity="0.6" marker-end="url(#arrow)"/>
<path d="M 180.0,1078.0 C 187.05675,672.0 219.98825000000002,672.0 227.04500000000002,266.0" fill="none" stroke="#8B4513" stroke-width="3" stroke-opacity="0.6" marker-end="url(#arrow)"/>
<path d="M 180.0,1078.0 C 210.0,741.0 350.0,741.0 380.0,404.0" fill="none" stroke="#8B4513" stroke-width="3" stroke-opacity="0.6" marker-end="url(#arrow)"/>
<path d="M 180.0,1078.0 C 210.0,969.0 350.0,969.0 380.0,860.0" fill="none" stroke="#8B4513" stroke-width="3" stroke-opacity="0.6" marker-end="url(#arrow)"/>
<path d="M 420.0,1078.0 C 414.0,1038.0 386.0,1038.0 380.0,998.0" fill="none" stroke="#8B4513" stroke-width="3" stroke-opacity="0.6" marker-end="url(#arrow)"/>
<path d="M 420.0,1078.0 C 435.243,896.5 506.3769999999999,896.5 521.6199999999999,715.0" fill="none" stroke="#8B4513" stroke-width="3" stroke-opacity="0.6" marker-end="url(#arrow)"/>
<path d="M 420.0,1078.0 C 434.4165,824.0 501.6934999999999,824.0 516.1099999999999,570.0" fill="none" stroke="#8B4513" stroke-width="3" stroke-opacity="0.6" marker-end="url(#arrow)"/>
<path d="M 667.0,1078.0 C 598.89325,900.0 281.06174999999996,900.0 212.95499999999998,722.0" fill="none" stroke="#8B4513" stroke-width="3" stroke-opacity="0.6" marker-end="url(#arrow)"/>
<path d="M 914.0,1078.0 C 900.203,817.0 835.817,817.0 822.02,556.0" fill="none" stroke="#8B4513" stroke-width="3" stroke-opacity="0.6" marker-end="url(#arrow)"/>
<path d="M 1161.0,1078.0 C 1020.90675,672.0 367.13824999999997,672.0 227.04500000000002,266.0" fill="none" stroke="#8B4513" stroke-width="3" stroke-opacity="0.6" marker-end="url(#arrow)"/>
<path d="M 1161.0,1078.0 C 1043.85,969.0 497.15,969.0 380.0,860.0" fill="none" stroke="#8B4513" stroke-width="3" stroke-opacity="0.6" marker-end="url(#arrow)"/>
<path d="M 380.0,940.0 C 401.243,827.5 500.3769999999999,827.5 521.6199999999999,715.0" fill="none" stroke="#8B4513" stroke-width="3" stroke-opacity="0.6" marker-end="url(#arrow)"/>
<path d="M 212.95499999999998,498.0 C 215.0685,382.0 224.9315,382.0 227.04500000000002,266.0" fill="none" stroke="#8B4513" stroke-width="3" stroke-opacity="0.6" marker-end="url(#arrow)"/>
<path d="M 212.95499999999998,498.0 C 238.01174999999998,451.0 354.94325,451.0 380.0,404.0" fill="none" stroke="#8B4513" stroke-width="3" stroke-opacity="0.6" marker-end="url(#arrow)"/>
<path d="M 212.95499999999998,498.0 C 260.955,378.5 484.9549999999999,378.5 532.9549999999999,259.0" fill="none" stroke="#8B4513" stroke-width="3" stroke-opacity="0.6" marker-end="url(#arrow)"/>
<path d="M 516.1099999999999,484.0 C 472.75024999999994,375.0 270.40475,375.0 227.04500000000002,266.0" fill="none" stroke="#8B4513" stroke-width="3" stroke-opacity="0.6" marker-end="url(#arrow)"/>
<path d="M 516.1099999999999,484.0 C 495.6934999999999,444.0 400.4165,444.0 380.0,404.0" fill="none" stroke="#8B4513" stroke-width="3" stroke-opacity="0.6" marker-end="url(#arrow)"/>
<path d="M 380.0,346.0 C 357.05675,306.0 249.98825000000002,306.0 227.04500000000002,266.0" fill="none" stroke="#8B4513" stroke-width="3" stroke-opacity="0.6" marker-end="url(#arrow)"/>
<path d="M 380.0,346.0 C 402.94325,302.5 510.01174999999995,302.5 532.9549999999999,259.0" fill="none" stroke="#8B4513" stroke-width="3" stroke-opacity="0.6" marker-end="url(#arrow)"/>
<path d="M 521.6199999999999,657.0 C 520.7934999999999,613.5 516.9364999999999,613.5 516.1099999999999,570.0" fill="none" stroke="#8B4513" stroke-width="3" stroke-opacity="0.6" marker-end="url(#arrow)"/>
<path d="M 227.04500000000002,194.0 C 249.98825000000002,154.0 357.05675,154.0 380.0,114.0" fill="none" stroke="#8B4513" stroke-width="3" stroke-opacity="0.6" marker-end="url(#arrow)"/>
<path d="M 532.9549999999999,201.0 C 510.01174999999995,157.5 402.94325,157.5 380.0,114.0" fill="none" stroke="#8B4513" stroke-width="3" stroke-opacity="0.6" marker-end="url(#arrow)"/>
<path d="M 380.0,802.0 C 380.0,458.0 380.0,458.0 380.0,114.0" fill="none" stroke="#8B4513" stroke-width="3" stroke-opacity="0.6" marker-end="url(#arrow)"/>
<path d="M 212.95499999999998,650.0 C 238.01174999999998,382.0 354.94325,382.0 380.0,114.0" fill="none" stroke="#8B4513" stroke-width="3" stroke-opacity="0.6" marker-end="url(#arrow)"/>
<path d="M 822.02,498.0 C 755.717,306.0 446.303,306.0 380.0,114.0" fill="none" stroke="#8B4513" stroke-width="3" stroke-opacity="0.6" marker-end="url(#arrow)"/>
<rect x="80.0" y="1078.0" width="200" height="58" fill="#e8e8e8" stroke="#999" stroke-width="2" rx="8"/>
<text x="180.0" y="1096.0" text-anchor="middle" fill="#333" font-family="Arial,sans-serif" font-size="12" font-weight="bold">Emb: &#x27;race&#x27; (pos 5)</text>
<text x="180.0" y="1114.0" text-anchor="middle" fill="#666" font-family="monospace" font-size="9">L0:F-1</text>
<circle cx="262.0" cy="1091.0" r="9" fill="#ccc"/>
<text x="262.0" y="1095.0" text-anchor="middle" fill="#666" font-family="monospace" font-size="9" font-weight="bold">1</text>
<rect x="320.0" y="1078.0" width="200" height="58" fill="#e8e8e8" stroke="#999" stroke-width="2" rx="8"/>
<text x="420.0" y="1096.0" text-anchor="middle" fill="#333" font-family="Arial,sans-serif" font-size="12" font-weight="bold">Emb: &#x27;black&#x27; (pos 16)</text>
<text x="420.0" y="1114.0" text-anchor="middle" fill="#666" font-family="monospace" font-size="9">L0:F-1</text>
<circle cx="502.0" cy="1091.0" r="9" fill="#ccc"/>
<text x="502.0" y="1095.0" text-anchor="middle" fill="#666" font-family="monospace" font-size="9" font-weight="bold">1</text>
<rect x="560.0" y="1078.0" width="214.0" height="58" fill="#e8e8e8" stroke="#999" stroke-width="2" rx="8"/>
<text x="667.0" y="1096.0" text-anchor="middle" fill="#333" font-family="Arial,sans-serif" font-size="12" font-weight="bold">Emb: &#x27;mentioning&#x27; (pos 3)</text>
<text x="667.0" y="1114.0" text-anchor="middle" fill="#666" font-family="monospace" font-size="9">L0:F-1</text>
<circle cx="756.0" cy="1091.0" r="9" fill="#ccc"/>
<text x="756.0" y="1095.0" text-anchor="middle" fill="#666" font-family="monospace" font-size="9" font-weight="bold">1</text>
<rect x="814.0" y="1078.0" width="200" height="58" fill="#e8e8e8" stroke="#999" stroke-width="2" rx="8"/>
<text x="914.0" y="1096.0" text-anchor="middle" fill="#333" font-family="Arial,sans-serif" font-size="12" font-weight="bold">Emb: &#x27;By&#x27; (pos 1)</text>
<text x="914.0" y="1114.0" text-anchor="middle" fill="#666" font-family="monospace" font-size="9">L0:F-1</text>
<circle cx="996.0" cy="1091.0" r="9" fill="#ccc"/>
<text x="996.0" y="1095.0" text-anchor="middle" fill="#666" font-family="monospace" font-size="9" font-weight="bold">1</text>
<rect x="1054.0" y="1078.0" width="214.0" height="58" fill="#e8e8e8" stroke="#999" stroke-width="2" rx="8"/>
<text x="1161.0" y="1096.0" text-anchor="middle" fill="#333" font-family="Arial,sans-serif" font-size="12" font-weight="bold">Race Token Detection (L0:</text>
<text x="1161.0" y="1110.0" text-anchor="middle" fill="#333" font-family="Arial,sans-serif" font-size="12" font-weight="bold">F10682)</text>
<text x="1161.0" y="1128.0" text-anchor="middle" fill="#666" font-family="monospace" font-size="9">L0:F10682 —  the word &quot;race&quot;</text>
<circle cx="1250.0" cy="1091.0" r="9" fill="#ccc"/>
<text x="1250.0" y="1095.0" text-anchor="middle" fill="#666" font-family="monospace" font-size="9" font-weight="bold">1</text>
<rect x="269.52" y="940.0" width="220.95999999999998" height="58" fill="#e8e8e8" stroke="#999" stroke-width="2" rx="8"/>
<text x="380.0" y="958.0" text-anchor="middle" fill="#333" font-family="Arial,sans-serif" font-size="12" font-weight="bold">Black Token Detection (L1:</text>
<text x="380.0" y="972.0" text-anchor="middle" fill="#333" font-family="Arial,sans-serif" font-size="12" font-weight="bold">F13069)</text>
<text x="380.0" y="990.0" text-anchor="middle" fill="#666" font-family="monospace" font-size="9">L1:F13069 — the word &#x27;black&#x27;</text>
<circle cx="472.47999999999996" cy="953.0" r="9" fill="#ccc"/>
<text x="472.47999999999996" y="957.0" text-anchor="middle" fill="#666" font-family="monospace" font-size="9" font-weight="bold">1</text>
<rect x="80.0" y="650.0" width="265.90999999999997" height="72" fill="#e8e8e8" stroke="#999" stroke-width="2" rx="8"/>
<text x="212.95499999999998" y="668.0" text-anchor="middle" fill="#333" font-family="Arial,sans-serif" font-size="12" font-weight="bold">Mentioning Detection (L1:</text>
<text x="212.95499999999998" y="682.0" text-anchor="middle" fill="#333" font-family="Arial,sans-serif" font-size="12" font-weight="bold">F5477, L3: F6517)</text>
<text x="212.95499999999998" y="700.0" text-anchor="middle" fill="#666" font-family="monospace" font-size="9">L1:F5477 —  instances of the word &quot;mentio</text>
<text x="212.95499999999998" y="714.0" text-anchor="middle" fill="#666" font-family="monospace" font-size="9">L3:F6517 —  words related to mentioning s</text>
<circle cx="327.90999999999997" cy="663.0" r="9" fill="#ccc"/>
<text x="327.90999999999997" y="667.0" text-anchor="middle" fill="#666" font-family="monospace" font-size="9" font-weight="bold">2</text>
<rect x="80.0" y="498.0" width="265.90999999999997" height="58" fill="#e8e8e8" stroke="#999" stroke-width="2" rx="8"/>
<text x="212.95499999999998" y="516.0" text-anchor="middle" fill="#333" font-family="Arial,sans-serif" font-size="12" font-weight="bold">Race/Ethnicity/Nationality</text>
<text x="212.95499999999998" y="530.0" text-anchor="middle" fill="#333" font-family="Arial,sans-serif" font-size="12" font-weight="bold">Groups (L4: F5584)</text>
<text x="212.95499999999998" y="548.0" text-anchor="middle" fill="#666" font-family="monospace" font-size="9">L4:F5584 —  words related to race, ethnic</text>
<circle cx="327.90999999999997" cy="511.0" r="9" fill="#ccc"/>
<text x="327.90999999999997" y="515.0" text-anchor="middle" fill="#666" font-family="monospace" font-size="9" font-weight="bold">1</text>
<rect x="385.9099999999999" y="484.0" width="260.4" height="86" fill="#e8e8e8" stroke="#999" stroke-width="2" rx="8"/>
<text x="516.1099999999999" y="502.0" text-anchor="middle" fill="#333" font-family="Arial,sans-serif" font-size="12" font-weight="bold">Race/Racism/Social Justice</text>
<text x="516.1099999999999" y="516.0" text-anchor="middle" fill="#333" font-family="Arial,sans-serif" font-size="12" font-weight="bold">w/ Black Focus (L4: F117)</text>
<text x="516.1099999999999" y="534.0" text-anchor="middle" fill="#666" font-family="monospace" font-size="9">L4:F117 —  terms related to race, racism</text>
<text x="516.1099999999999" y="548.0" text-anchor="middle" fill="#666" font-family="monospace" font-size="9">L4:F117 —  terms related to race, racism</text>
<text x="516.1099999999999" y="562.0" text-anchor="middle" fill="#666" font-family="monospace" font-size="9">L4:F117 —  terms related to race, racism</text>
<circle cx="628.31" cy="497.0" r="9" fill="#ccc"/>
<text x="628.31" y="501.0" text-anchor="middle" fill="#666" font-family="monospace" font-size="9" font-weight="bold">3</text>
<rect x="94.09000000000003" y="194.0" width="265.90999999999997" height="72" fill="#e8e8e8" stroke="#999" stroke-width="2" rx="8"/>
<text x="227.04500000000002" y="212.0" text-anchor="middle" fill="#333" font-family="Arial,sans-serif" font-size="12" font-weight="bold">Race/Ethnicity Abstracted</text>
<text x="227.04500000000002" y="226.0" text-anchor="middle" fill="#333" font-family="Arial,sans-serif" font-size="12" font-weight="bold">(L6: F3902) - TOXICITY</text>
<text x="227.04500000000002" y="240.0" text-anchor="middle" fill="#333" font-family="Arial,sans-serif" font-size="12" font-weight="bold">DRIVER</text>
<text x="227.04500000000002" y="258.0" text-anchor="middle" fill="#666" font-family="monospace" font-size="9">L6:F3902 —  terms referring to race and e</text>
<text x="227.04500000000002" y="272.0" text-anchor="middle" fill="#666" font-family="monospace" font-size="9">L6:F3902 —  terms referring to race and e</text>
<circle cx="342.0" cy="207.0" r="9" fill="#ccc"/>
<text x="342.0" y="211.0" text-anchor="middle" fill="#666" font-family="monospace" font-size="9" font-weight="bold">2</text>
<rect x="244.29000000000002" y="346.0" width="271.41999999999996" height="58" fill="#e8e8e8" stroke="#999" stroke-width="2" rx="8"/>
<text x="380.0" y="364.0" text-anchor="middle" fill="#333" font-family="Arial,sans-serif" font-size="12" font-weight="bold">Discrimination Based on</text>
<text x="380.0" y="378.0" text-anchor="middle" fill="#333" font-family="Arial,sans-serif" font-size="12" font-weight="bold">Identity (L5: F12135)</text>
<text x="380.0" y="396.0" text-anchor="middle" fill="#666" font-family="monospace" font-size="9">L5:F12135 —  terms related to discriminati</text>
<circle cx="497.71000000000004" cy="359.0" r="9" fill="#ccc"/>
<text x="497.71000000000004" y="363.0" text-anchor="middle" fill="#666" font-family="monospace" font-size="9" font-weight="bold">1</text>
<rect x="399.99999999999994" y="201.0" width="265.90999999999997" height="58" fill="#e8e8e8" stroke="#999" stroke-width="2" rx="8"/>
<text x="532.9549999999999" y="219.0" text-anchor="middle" fill="#333" font-family="Arial,sans-serif" font-size="12" font-weight="bold">Discrimination Language</text>
<text x="532.9549999999999" y="233.0" text-anchor="middle" fill="#333" font-family="Arial,sans-serif" font-size="12" font-weight="bold">(L6: F9228) - NEGATIVE</text>
<text x="532.9549999999999" y="251.0" text-anchor="middle" fill="#666" font-family="monospace" font-size="9">L6:F9228 —  language regarding discrimina</text>
<circle cx="647.9099999999999" cy="214.0" r="9" fill="#ccc"/>
<text x="647.9099999999999" y="218.0" text-anchor="middle" fill="#666" font-family="monospace" font-size="9" font-weight="bold">1</text>
<rect x="385.9099999999999" y="657.0" width="271.41999999999996" height="58" fill="#e8e8e8" stroke="#999" stroke-width="2" rx="8"/>
<text x="521.6199999999999" y="675.0" text-anchor="middle" fill="#333" font-family="Arial,sans-serif" font-size="12" font-weight="bold">Race/Gender/Social Issues</text>
<text x="521.6199999999999" y="689.0" text-anchor="middle" fill="#333" font-family="Arial,sans-serif" font-size="12" font-weight="bold">(L3: F13061)</text>
<text x="521.6199999999999" y="707.0" text-anchor="middle" fill="#666" font-family="monospace" font-size="9">L3:F13061 —  words related to race, gender</text>
<circle cx="639.3299999999999" cy="670.0" r="9" fill="#ccc"/>
<text x="639.3299999999999" y="674.0" text-anchor="middle" fill="#666" font-family="monospace" font-size="9" font-weight="bold">1</text>
<rect x="697.3299999999999" y="657.0" width="271.41999999999996" height="58" fill="#e8e8e8" stroke="#999" stroke-width="2" rx="8"/>
<text x="833.04" y="675.0" text-anchor="middle" fill="#333" font-family="Arial,sans-serif" font-size="12" font-weight="bold">Demographic Identity (L3:</text>
<text x="833.04" y="689.0" text-anchor="middle" fill="#333" font-family="Arial,sans-serif" font-size="12" font-weight="bold">F16373)</text>
<text x="833.04" y="707.0" text-anchor="middle" fill="#666" font-family="monospace" font-size="9">L3:F16373 —  mentions of demographic ident</text>
<circle cx="950.7499999999999" cy="670.0" r="9" fill="#ccc"/>
<text x="950.7499999999999" y="674.0" text-anchor="middle" fill="#666" font-family="monospace" font-size="9" font-weight="bold">1</text>
<rect x="279.96000000000004" y="802.0" width="200.07999999999998" height="58" fill="#e8e8e8" stroke="#999" stroke-width="2" rx="8"/>
<text x="380.0" y="820.0" text-anchor="middle" fill="#333" font-family="Arial,sans-serif" font-size="12" font-weight="bold">Race Anti-Toxicity</text>
<text x="380.0" y="834.0" text-anchor="middle" fill="#333" font-family="Arial,sans-serif" font-size="12" font-weight="bold">Suppressor (L2: F10509)</text>
<text x="380.0" y="852.0" text-anchor="middle" fill="#666" font-family="monospace" font-size="9">L2:F10509 —  the word &quot;race.&quot;</text>
<circle cx="462.04" cy="815.0" r="9" fill="#ccc"/>
<text x="462.04" y="819.0" text-anchor="middle" fill="#666" font-family="monospace" font-size="9" font-weight="bold">1</text>
<rect x="686.31" y="498.0" width="271.41999999999996" height="58" fill="#e8e8e8" stroke="#999" stroke-width="2" rx="8"/>
<text x="822.02" y="516.0" text-anchor="middle" fill="#333" font-family="Arial,sans-serif" font-size="12" font-weight="bold">Authorship/Origination</text>
<text x="822.02" y="530.0" text-anchor="middle" fill="#333" font-family="Arial,sans-serif" font-size="12" font-weight="bold">Detection (L4: F11200)</text>
<text x="822.02" y="548.0" text-anchor="middle" fill="#666" font-family="monospace" font-size="9">L4:F11200 —  a variety of words and phrase</text>
<circle cx="939.7299999999999" cy="511.0" r="9" fill="#ccc"/>
<text x="939.7299999999999" y="515.0" text-anchor="middle" fill="#666" font-family="monospace" font-size="9" font-weight="bold">1</text>
<rect x="280.0" y="70.0" width="200" height="44" fill="#e8e8e8" stroke="#999" stroke-width="2" rx="8"/>
<text x="380.0" y="88.0" text-anchor="middle" fill="#333" font-family="Arial,sans-serif" font-size="12" font-weight="bold">Toxicity Probe Output</text>
<circle cx="462.0" cy="83.0" r="9" fill="#ccc"/>
<text x="462.0" y="87.0" text-anchor="middle" fill="#666" font-family="monospace" font-size="9" font-weight="bold">0</text>
<line x1="40" y1="1216" x2="1348" y2="1216" stroke="#ddd" stroke-width="1"/>
<text x="40" y="1234" fill="#666" font-family="Arial,sans-serif" font-size="10" font-weight="bold" letter-spacing="1px">PROMPT</text>
<text x="40" y="1252" fill="#333" font-family="monospace" font-size="11">"&lt;bos&gt;By not mentioning the race of the cops in question using undue force on helpless black people  it is assumed all th"</text>
<text x="40" y="1276" fill="#666" font-family="Arial,sans-serif" font-size="10" font-weight="bold" letter-spacing="1px">TOP OUTPUTS</text>
<rect x="40" y="1281" width="100" height="20" fill="#e8e8e8" stroke="none" rx="6"/>
<text x="45" y="1295" fill="#333" font-family="Arial,sans-serif" font-size="11" font-weight="bold">(empty) <tspan fill="#555" font-size="10">100%</tspan></text>
</svg>