<svg width="1434" height="1235" xmlns="http://www.w3.org/2000/svg">
<rect width="1434" height="1235" fill="#f5f5f5"/>
<rect x="15" y="15" width="1404" height="1205" fill="white" stroke="none" rx="12"/>
<text x="40" y="48" fill="#666" font-family="Arial,sans-serif" font-size="14" font-weight="bold" letter-spacing="1px">ATTRIBUTION CIRCUIT</text>
<text x="25" y="96.0" fill="#999" font-family="monospace" font-size="10" font-weight="bold" text-anchor="start">L36</text>
<text x="25" y="227.0" fill="#999" font-family="monospace" font-size="10" font-weight="bold" text-anchor="start">L20</text>
<text x="25" y="393.0" fill="#999" font-family="monospace" font-size="10" font-weight="bold" text-anchor="start">L19</text>
<text x="25" y="573.0" fill="#999" font-family="monospace" font-size="10" font-weight="bold" text-anchor="start">L14</text>
<text x="25" y="725.0" fill="#999" font-family="monospace" font-size="10" font-weight="bold" text-anchor="start">L8</text>
<text x="25" y="863.0" fill="#999" font-family="monospace" font-size="10" font-weight="bold" text-anchor="start">L1</text>
<text x="25" y="1008.0" fill="#999" font-family="monospace" font-size="10" font-weight="bold" text-anchor="start">L0</text>
<defs><marker id="arrow" markerWidth="8" markerHeight="6" refX="8" refY="3" orient="auto"><polygon points="0,0 8,3 0,6" fill="#8B4513" fill-opacity="0.7"/></marker></defs>
<path d="M 210.2,975.0 C 235.67,544.5 354.53,544.5 380.0,114.0" fill="none" stroke="#8B4513" stroke-width="3" stroke-opacity="0.6" marker-end="url(#arrow)"/>
<path d="M 480.4,968.0 C 465.34,541.0 395.06,541.0 380.0,114.0" fill="none" stroke="#8B4513" stroke-width="3" stroke-opacity="0.6" marker-end="url(#arrow)"/>
<path d="M 720.4,975.0 C 669.34,544.5 431.06,544.5 380.0,114.0" fill="none" stroke="#8B4513" stroke-width="3" stroke-opacity="0.6" marker-end="url(#arrow)"/>
<path d="M 967.4,975.0 C 879.29,544.5 468.11,544.5 380.0,114.0" fill="none" stroke="#8B4513" stroke-width="3" stroke-opacity="0.6" marker-end="url(#arrow)"/>
<path d="M 380.0,332.0 C 380.0,223.0 380.0,223.0 380.0,114.0" fill="none" stroke="#8B4513" stroke-width="3" stroke-opacity="0.6" marker-end="url(#arrow)"/>
<path d="M 380.0,526.0 C 380.0,320.0 380.0,320.0 380.0,114.0" fill="none" stroke="#8B4513" stroke-width="3" stroke-opacity="0.6" marker-end="url(#arrow)"/>
<path d="M 380.0,194.0 C 380.0,154.0 380.0,154.0 380.0,114.0" fill="none" stroke="#8B4513" stroke-width="3" stroke-opacity="0.6" marker-end="url(#arrow)"/>
<path d="M 380.0,692.0 C 380.0,403.0 380.0,403.0 380.0,114.0" fill="none" stroke="#8B4513" stroke-width="3" stroke-opacity="0.6" marker-end="url(#arrow)"/>
<path d="M 380.0,830.0 C 380.0,472.0 380.0,472.0 380.0,114.0" fill="none" stroke="#8B4513" stroke-width="3" stroke-opacity="0.6" marker-end="url(#arrow)"/>
<path d="M 1214.4,982.0 C 1089.24,935.0 505.16,935.0 380.0,888.0" fill="none" stroke="#8B4513" stroke-width="3" stroke-opacity="0.6" marker-end="url(#arrow)"/>
<path d="M 380.0,830.0 C 380.0,790.0 380.0,790.0 380.0,750.0" fill="none" stroke="#8B4513" stroke-width="3" stroke-opacity="0.6" marker-end="url(#arrow)"/>
<path d="M 380.0,830.0 C 380.0,638.0 380.0,638.0 380.0,446.0" fill="none" stroke="#8B4513" stroke-width="3" stroke-opacity="0.6" marker-end="url(#arrow)"/>
<path d="M 380.0,830.0 C 380.0,721.0 380.0,721.0 380.0,612.0" fill="none" stroke="#8B4513" stroke-width="3" stroke-opacity="0.6" marker-end="url(#arrow)"/>
<rect x="269.52" y="70.0" width="220.95999999999998" height="44" fill="#e8e8e8" stroke="#999" stroke-width="2" rx="8"/>
<text x="380.0" y="88.0" text-anchor="middle" fill="#333" font-family="Arial,sans-serif" font-size="12" font-weight="bold">Probe Classification Score</text>
<text x="380.0" y="102.0" text-anchor="middle" fill="#333" font-family="Arial,sans-serif" font-size="12" font-weight="bold">(Output)</text>
<circle cx="472.47999999999996" cy="83.0" r="9" fill="#ccc"/>
<text x="472.47999999999996" y="87.0" text-anchor="middle" fill="#666" font-family="monospace" font-size="9" font-weight="bold">0</text>
<rect x="80.0" y="975.0" width="260.4" height="58" fill="#e8e8e8" stroke="#999" stroke-width="2" rx="8"/>
<text x="210.2" y="993.0" text-anchor="middle" fill="#333" font-family="Arial,sans-serif" font-size="12" font-weight="bold">Gender Marker: &#x27;His&#x27;</text>
<text x="210.2" y="1007.0" text-anchor="middle" fill="#333" font-family="Arial,sans-serif" font-size="12" font-weight="bold">Pronoun (POSITIVE)</text>
<text x="210.2" y="1025.0" text-anchor="middle" fill="#666" font-family="monospace" font-size="9">L0:F8964 —  the possessive pronoun &quot;His&quot;</text>
<circle cx="322.4" cy="988.0" r="9" fill="#ccc"/>
<text x="322.4" y="992.0" text-anchor="middle" fill="#666" font-family="monospace" font-size="9" font-weight="bold">1</text>
<rect x="380.4" y="968.0" width="200" height="72" fill="#e8e8e8" stroke="#999" stroke-width="2" rx="8"/>
<text x="480.4" y="986.0" text-anchor="middle" fill="#333" font-family="Arial,sans-serif" font-size="12" font-weight="bold">Token Embeddings: &#x27;to&#x27;</text>
<text x="480.4" y="1000.0" text-anchor="middle" fill="#333" font-family="Arial,sans-serif" font-size="12" font-weight="bold">(pos 3, 20)</text>
<text x="480.4" y="1018.0" text-anchor="middle" fill="#666" font-family="monospace" font-size="9">L0:F8444 — the word &quot;to&quot;</text>
<text x="480.4" y="1032.0" text-anchor="middle" fill="#666" font-family="monospace" font-size="9">L0:F8444 — the word &quot;to&quot;</text>
<circle cx="562.4" cy="981.0" r="9" fill="#ccc"/>
<text x="562.4" y="985.0" text-anchor="middle" fill="#666" font-family="monospace" font-size="9" font-weight="bold">2</text>
<rect x="620.4" y="975.0" width="200" height="58" fill="#e8e8e8" stroke="#999" stroke-width="2" rx="8"/>
<text x="720.4" y="993.0" text-anchor="middle" fill="#333" font-family="Arial,sans-serif" font-size="12" font-weight="bold">Token Embedding: &#x27;see&#x27;</text>
<text x="720.4" y="1007.0" text-anchor="middle" fill="#333" font-family="Arial,sans-serif" font-size="12" font-weight="bold">(pos 4)</text>
<text x="720.4" y="1025.0" text-anchor="middle" fill="#666" font-family="monospace" font-size="9">L0:F14287 — the word &quot;see&quot;</text>
<circle cx="802.4" cy="988.0" r="9" fill="#ccc"/>
<text x="802.4" y="992.0" text-anchor="middle" fill="#666" font-family="monospace" font-size="9" font-weight="bold">1</text>
<rect x="860.4" y="975.0" width="214.0" height="58" fill="#e8e8e8" stroke="#999" stroke-width="2" rx="8"/>
<text x="967.4" y="993.0" text-anchor="middle" fill="#333" font-family="Arial,sans-serif" font-size="12" font-weight="bold">Token Embedding: &#x27;desire&#x27;</text>
<text x="967.4" y="1007.0" text-anchor="middle" fill="#333" font-family="Arial,sans-serif" font-size="12" font-weight="bold">(pos 2)</text>
<text x="967.4" y="1025.0" text-anchor="middle" fill="#666" font-family="monospace" font-size="9">L0:F2011 —  the word &quot;dream&quot;</text>
<circle cx="1056.4" cy="988.0" r="9" fill="#ccc"/>
<text x="1056.4" y="992.0" text-anchor="middle" fill="#666" font-family="monospace" font-size="9" font-weight="bold">1</text>
<rect x="244.29000000000002" y="332.0" width="271.41999999999996" height="114" fill="#e8e8e8" stroke="#999" stroke-width="2" rx="8"/>
<text x="380.0" y="350.0" text-anchor="middle" fill="#333" font-family="Arial,sans-serif" font-size="12" font-weight="bold">Journalism Features</text>
<text x="380.0" y="364.0" text-anchor="middle" fill="#333" font-family="Arial,sans-serif" font-size="12" font-weight="bold">(NEGATIVE Effect)</text>
<text x="380.0" y="382.0" text-anchor="middle" fill="#666" font-family="monospace" font-size="9">L19:F2486 —  journalistic sources and news</text>
<text x="380.0" y="396.0" text-anchor="middle" fill="#666" font-family="monospace" font-size="9">L19:F2486 —  journalistic sources and news</text>
<text x="380.0" y="410.0" text-anchor="middle" fill="#666" font-family="monospace" font-size="9">L19:F2486 —  journalistic sources and news</text>
<text x="380.0" y="424.0" text-anchor="middle" fill="#666" font-family="monospace" font-size="9">L19:F2486 —  journalistic sources and news</text>
<text x="380.0" y="438.0" text-anchor="middle" fill="#666" font-family="monospace" font-size="9">... +3 more</text>
<circle cx="497.71000000000004" cy="345.0" r="9" fill="#ccc"/>
<text x="497.71000000000004" y="349.0" text-anchor="middle" fill="#666" font-family="monospace" font-size="9" font-weight="bold">7</text>
<rect x="244.29000000000002" y="526.0" width="271.41999999999996" height="86" fill="#e8e8e8" stroke="#999" stroke-width="2" rx="8"/>
<text x="380.0" y="544.0" text-anchor="middle" fill="#333" font-family="Arial,sans-serif" font-size="12" font-weight="bold">Journalism/Newspapers</text>
<text x="380.0" y="558.0" text-anchor="middle" fill="#333" font-family="Arial,sans-serif" font-size="12" font-weight="bold">Abstract (NEGATIVE)</text>
<text x="380.0" y="576.0" text-anchor="middle" fill="#666" font-family="monospace" font-size="9">L14:F4420 — words and phrases related to j</text>
<text x="380.0" y="590.0" text-anchor="middle" fill="#666" font-family="monospace" font-size="9">L14:F4420 — words and phrases related to j</text>
<text x="380.0" y="604.0" text-anchor="middle" fill="#666" font-family="monospace" font-size="9">L14:F4420 — words and phrases related to j</text>
<circle cx="497.71000000000004" cy="539.0" r="9" fill="#ccc"/>
<text x="497.71000000000004" y="543.0" text-anchor="middle" fill="#666" font-family="monospace" font-size="9" font-weight="bold">3</text>
<rect x="244.29000000000002" y="194.0" width="271.41999999999996" height="58" fill="#e8e8e8" stroke="#999" stroke-width="2" rx="8"/>
<text x="380.0" y="212.0" text-anchor="middle" fill="#333" font-family="Arial,sans-serif" font-size="12" font-weight="bold">News Broadcasting</text>
<text x="380.0" y="226.0" text-anchor="middle" fill="#333" font-family="Arial,sans-serif" font-size="12" font-weight="bold">(NEGATIVE)</text>
<text x="380.0" y="244.0" text-anchor="middle" fill="#666" font-family="monospace" font-size="9">L20:F8433 — words related to news broadcas</text>
<circle cx="497.71000000000004" cy="207.0" r="9" fill="#ccc"/>
<text x="497.71000000000004" y="211.0" text-anchor="middle" fill="#666" font-family="monospace" font-size="9" font-weight="bold">1</text>
<rect x="247.04500000000002" y="692.0" width="265.90999999999997" height="58" fill="#e8e8e8" stroke="#999" stroke-width="2" rx="8"/>
<text x="380.0" y="710.0" text-anchor="middle" fill="#333" font-family="Arial,sans-serif" font-size="12" font-weight="bold">News Reporters (NEGATIVE)</text>
<text x="380.0" y="728.0" text-anchor="middle" fill="#666" font-family="monospace" font-size="9">L8:F8855 —  mentions of news reporters an</text>
<circle cx="494.9549999999999" cy="705.0" r="9" fill="#ccc"/>
<text x="494.9549999999999" y="709.0" text-anchor="middle" fill="#666" font-family="monospace" font-size="9" font-weight="bold">1</text>
<rect x="269.52" y="830.0" width="220.95999999999998" height="58" fill="#e8e8e8" stroke="#999" stroke-width="2" rx="8"/>
<text x="380.0" y="848.0" text-anchor="middle" fill="#333" font-family="Arial,sans-serif" font-size="12" font-weight="bold">Literal &#x27;report&#x27; Detection</text>
<text x="380.0" y="862.0" text-anchor="middle" fill="#333" font-family="Arial,sans-serif" font-size="12" font-weight="bold">(POSITIVE)</text>
<text x="380.0" y="880.0" text-anchor="middle" fill="#666" font-family="monospace" font-size="9">L1:F14511 —  the word &quot;report&quot;</text>
<circle cx="472.47999999999996" cy="843.0" r="9" fill="#ccc"/>
<text x="472.47999999999996" y="847.0" text-anchor="middle" fill="#666" font-family="monospace" font-size="9" font-weight="bold">1</text>
<rect x="1114.4" y="982.0" width="200" height="44" fill="#e8e8e8" stroke="#999" stroke-width="2" rx="8"/>
<text x="1214.4" y="1000.0" text-anchor="middle" fill="#333" font-family="Arial,sans-serif" font-size="12" font-weight="bold">Emb: report (pos 21)</text>
<circle cx="1296.4" cy="995.0" r="9" fill="#ccc"/>
<text x="1296.4" y="999.0" text-anchor="middle" fill="#666" font-family="monospace" font-size="9" font-weight="bold">0</text>
<line x1="40" y1="1120" x2="1394" y2="1120" stroke="#ddd" stroke-width="1"/>
<text x="40" y="1138" fill="#666" font-family="Arial,sans-serif" font-size="10" font-weight="bold" letter-spacing="1px">PROMPT</text>
<text x="40" y="1156" fill="#333" font-family="monospace" font-size="11">"&lt;bos&gt;His desire to see the world has taken him to countries around the world and given him the opportunity to report for"</text>
<text x="40" y="1180" fill="#666" font-family="Arial,sans-serif" font-size="10" font-weight="bold" letter-spacing="1px">TOP OUTPUTS</text>
<rect x="40" y="1185" width="100" height="20" fill="#e8e8e8" stroke="none" rx="6"/>
<text x="45" y="1199" fill="#333" font-family="Arial,sans-serif" font-size="11" font-weight="bold">(empty) <tspan fill="#555" font-size="10">100%</tspan></text>
</svg>