<svg width="2218" height="2175" xmlns="http://www.w3.org/2000/svg">
<rect width="2218" height="2175" fill="#f5f5f5"/>
<rect x="15" y="15" width="2188" height="2145" fill="white" stroke="none" rx="12"/>
<text x="40" y="48" fill="#666" font-family="Arial,sans-serif" font-size="14" font-weight="bold" letter-spacing="1px">ATTRIBUTION CIRCUIT</text>
<text x="25" y="96.0" fill="#999" font-family="monospace" font-size="10" font-weight="bold" text-anchor="start">L36</text>
<text x="25" y="241.0" fill="#999" font-family="monospace" font-size="10" font-weight="bold" text-anchor="start">L18</text>
<text x="25" y="393.0" fill="#999" font-family="monospace" font-size="10" font-weight="bold" text-anchor="start">L14</text>
<text x="25" y="531.0" fill="#999" font-family="monospace" font-size="10" font-weight="bold" text-anchor="start">L12</text>
<text x="25" y="669.0" fill="#999" font-family="monospace" font-size="10" font-weight="bold" text-anchor="start">L10</text>
<text x="25" y="835.0" fill="#999" font-family="monospace" font-size="10" font-weight="bold" text-anchor="start">L7</text>
<text x="25" y="1008.0" fill="#999" font-family="monospace" font-size="10" font-weight="bold" text-anchor="start">L6</text>
<text x="25" y="1174.0" fill="#999" font-family="monospace" font-size="10" font-weight="bold" text-anchor="start">L5</text>
<text x="25" y="1347.0" fill="#999" font-family="monospace" font-size="10" font-weight="bold" text-anchor="start">L4</text>
<text x="25" y="1506.0" fill="#999" font-family="monospace" font-size="10" font-weight="bold" text-anchor="start">L3</text>
<text x="25" y="1658.0" fill="#999" font-family="monospace" font-size="10" font-weight="bold" text-anchor="start">L2</text>
<text x="25" y="1803.0" fill="#999" font-family="monospace" font-size="10" font-weight="bold" text-anchor="start">L1</text>
<text x="25" y="1948.0" fill="#999" font-family="monospace" font-size="10" font-weight="bold" text-anchor="start">L0</text>
<defs><marker id="arrow" markerWidth="8" markerHeight="6" refX="8" refY="3" orient="auto"><polygon points="0,0 8,3 0,6" fill="#8B4513" fill-opacity="0.7"/></marker></defs>
<path d="M 180.0,1966.0 C 364.94325,1937.0 1228.01175,1937.0 1412.955,1908.0" fill="none" stroke="#8B4513" stroke-width="3" stroke-opacity="0.6" marker-end="url(#arrow)"/>
<path d="M 180.0,1922.0 C 210.0,1806.0 350.0,1806.0 380.0,1690.0" fill="none" stroke="#8B4513" stroke-width="3" stroke-opacity="0.6" marker-end="url(#arrow)"/>
<path d="M 180.0,1922.0 C 210.0,1654.0 350.0,1654.0 380.0,1386.0" fill="none" stroke="#8B4513" stroke-width="3" stroke-opacity="0.6" marker-end="url(#arrow)"/>
<path d="M 180.0,1922.0 C 210.0,1571.0 350.0,1571.0 380.0,1220.0" fill="none" stroke="#8B4513" stroke-width="3" stroke-opacity="0.6" marker-end="url(#arrow)"/>
<path d="M 180.0,1922.0 C 186.64350000000002,1481.0 217.6465,1481.0 224.29000000000002,1040.0" fill="none" stroke="#8B4513" stroke-width="3" stroke-opacity="0.6" marker-end="url(#arrow)"/>
<path d="M 180.0,1922.0 C 210.0,1308.0 350.0,1308.0 380.0,694.0" fill="none" stroke="#8B4513" stroke-width="3" stroke-opacity="0.6" marker-end="url(#arrow)"/>
<path d="M 180.0,1922.0 C 186.23025,1239.0 215.30475,1239.0 221.53500000000003,556.0" fill="none" stroke="#8B4513" stroke-width="3" stroke-opacity="0.6" marker-end="url(#arrow)"/>
<path d="M 180.0,1922.0 C 210.0,1170.0 350.0,1170.0 380.0,418.0" fill="none" stroke="#8B4513" stroke-width="3" stroke-opacity="0.6" marker-end="url(#arrow)"/>
<path d="M 180.0,1922.0 C 210.0,1101.0 350.0,1101.0 380.0,280.0" fill="none" stroke="#8B4513" stroke-width="3" stroke-opacity="0.6" marker-end="url(#arrow)"/>
<path d="M 420.0,1922.0 C 414.0,1571.0 386.0,1571.0 380.0,1220.0" fill="none" stroke="#8B4513" stroke-width="3" stroke-opacity="0.6" marker-end="url(#arrow)"/>
<path d="M 420.0,1922.0 C 390.6435,1481.0 253.6465,1481.0 224.29000000000002,1040.0" fill="none" stroke="#8B4513" stroke-width="3" stroke-opacity="0.6" marker-end="url(#arrow)"/>
<path d="M 420.0,1922.0 C 390.23025,1239.0 251.30475,1239.0 221.53500000000003,556.0" fill="none" stroke="#8B4513" stroke-width="3" stroke-opacity="0.6" marker-end="url(#arrow)"/>
<path d="M 660.0,1922.0 C 618.0,1101.0 422.0,1101.0 380.0,280.0" fill="none" stroke="#8B4513" stroke-width="3" stroke-opacity="0.6" marker-end="url(#arrow)"/>
<path d="M 900.0,1966.0 C 1064.301,1940.5 1831.0389999999998,1940.5 1995.3399999999997,1915.0" fill="none" stroke="#8B4513" stroke-width="3" stroke-opacity="0.6" marker-end="url(#arrow)"/>
<path d="M 900.0,1922.0 C 822.0,1101.0 458.0,1101.0 380.0,280.0" fill="none" stroke="#8B4513" stroke-width="3" stroke-opacity="0.6" marker-end="url(#arrow)"/>
<path d="M 1140.0,1922.0 C 1026.0,1101.0 494.0,1101.0 380.0,280.0" fill="none" stroke="#8B4513" stroke-width="3" stroke-opacity="0.6" marker-end="url(#arrow)"/>
<path d="M 1412.955,1908.0 C 1258.01175,1799.0 534.94325,1799.0 380.0,1690.0" fill="none" stroke="#8B4513" stroke-width="3" stroke-opacity="0.6" marker-end="url(#arrow)"/>
<path d="M 1995.3399999999997,1915.0 C 1753.0389999999998,1726.5 622.3009999999999,1726.5 380.0,1538.0" fill="none" stroke="#8B4513" stroke-width="3" stroke-opacity="0.6" marker-end="url(#arrow)"/>
<path d="M 1995.3399999999997,1915.0 C 1753.0389999999998,1650.5 622.3009999999999,1650.5 380.0,1386.0" fill="none" stroke="#8B4513" stroke-width="3" stroke-opacity="0.6" marker-end="url(#arrow)"/>
<path d="M 1995.3399999999997,1915.0 C 1776.8087499999997,1235.5 756.9962499999999,1235.5 538.4649999999999,556.0" fill="none" stroke="#8B4513" stroke-width="3" stroke-opacity="0.6" marker-end="url(#arrow)"/>
<path d="M 380.0,1618.0 C 380.0,1502.0 380.0,1502.0 380.0,1386.0" fill="none" stroke="#8B4513" stroke-width="3" stroke-opacity="0.6" marker-end="url(#arrow)"/>
<path d="M 380.0,1466.0 C 380.0,1426.0 380.0,1426.0 380.0,1386.0" fill="none" stroke="#8B4513" stroke-width="3" stroke-opacity="0.6" marker-end="url(#arrow)"/>
<path d="M 380.0,1300.0 C 380.0,1260.0 380.0,1260.0 380.0,1220.0" fill="none" stroke="#8B4513" stroke-width="3" stroke-opacity="0.6" marker-end="url(#arrow)"/>
<path d="M 380.0,1300.0 C 356.6435,1170.0 247.6465,1170.0 224.29000000000002,1040.0" fill="none" stroke="#8B4513" stroke-width="3" stroke-opacity="0.6" marker-end="url(#arrow)"/>
<path d="M 380.0,1300.0 C 357.05675,1094.0 249.98825000000002,1094.0 227.04500000000002,888.0" fill="none" stroke="#8B4513" stroke-width="3" stroke-opacity="0.6" marker-end="url(#arrow)"/>
<path d="M 380.0,1300.0 C 402.94325,1083.5 510.01174999999995,1083.5 532.9549999999999,867.0" fill="none" stroke="#8B4513" stroke-width="3" stroke-opacity="0.6" marker-end="url(#arrow)"/>
<path d="M 380.0,1120.0 C 356.6435,1080.0 247.6465,1080.0 224.29000000000002,1040.0" fill="none" stroke="#8B4513" stroke-width="3" stroke-opacity="0.6" marker-end="url(#arrow)"/>
<path d="M 380.0,1120.0 C 357.05675,1004.0 249.98825000000002,1004.0 227.04500000000002,888.0" fill="none" stroke="#8B4513" stroke-width="3" stroke-opacity="0.6" marker-end="url(#arrow)"/>
<path d="M 224.29000000000002,968.0 C 224.70325000000003,928.0 226.63175,928.0 227.04500000000002,888.0" fill="none" stroke="#8B4513" stroke-width="3" stroke-opacity="0.6" marker-end="url(#arrow)"/>
<path d="M 224.29000000000002,968.0 C 270.58975,917.5 486.65524999999997,917.5 532.9549999999999,867.0" fill="none" stroke="#8B4513" stroke-width="3" stroke-opacity="0.6" marker-end="url(#arrow)"/>
<path d="M 224.29000000000002,968.0 C 247.6465,831.0 356.6435,831.0 380.0,694.0" fill="none" stroke="#8B4513" stroke-width="3" stroke-opacity="0.6" marker-end="url(#arrow)"/>
<path d="M 224.29000000000002,968.0 C 247.6465,693.0 356.6435,693.0 380.0,418.0" fill="none" stroke="#8B4513" stroke-width="3" stroke-opacity="0.6" marker-end="url(#arrow)"/>
<path d="M 227.04500000000002,774.0 C 249.98825000000002,734.0 357.05675,734.0 380.0,694.0" fill="none" stroke="#8B4513" stroke-width="3" stroke-opacity="0.6" marker-end="url(#arrow)"/>
<path d="M 227.04500000000002,774.0 C 226.2185,665.0 222.36150000000004,665.0 221.53500000000003,556.0" fill="none" stroke="#8B4513" stroke-width="3" stroke-opacity="0.6" marker-end="url(#arrow)"/>
<path d="M 227.04500000000002,774.0 C 249.98825000000002,527.0 357.05675,527.0 380.0,280.0" fill="none" stroke="#8B4513" stroke-width="3" stroke-opacity="0.6" marker-end="url(#arrow)"/>
<path d="M 532.9549999999999,795.0 C 533.7814999999999,675.5 537.6384999999999,675.5 538.4649999999999,556.0" fill="none" stroke="#8B4513" stroke-width="3" stroke-opacity="0.6" marker-end="url(#arrow)"/>
<path d="M 532.9549999999999,795.0 C 510.01174999999995,537.5 402.94325,537.5 380.0,280.0" fill="none" stroke="#8B4513" stroke-width="3" stroke-opacity="0.6" marker-end="url(#arrow)"/>
<path d="M 380.0,636.0 C 356.23025,596.0 245.30475,596.0 221.53500000000003,556.0" fill="none" stroke="#8B4513" stroke-width="3" stroke-opacity="0.6" marker-end="url(#arrow)"/>
<path d="M 380.0,636.0 C 380.0,527.0 380.0,527.0 380.0,418.0" fill="none" stroke="#8B4513" stroke-width="3" stroke-opacity="0.6" marker-end="url(#arrow)"/>
<path d="M 221.53500000000003,498.0 C 245.30475,458.0 356.23025,458.0 380.0,418.0" fill="none" stroke="#8B4513" stroke-width="3" stroke-opacity="0.6" marker-end="url(#arrow)"/>
<path d="M 224.29000000000002,968.0 C 247.6465,541.0 356.6435,541.0 380.0,114.0" fill="none" stroke="#8B4513" stroke-width="3" stroke-opacity="0.6" marker-end="url(#arrow)"/>
<path d="M 535.71,968.0 C 512.3535,541.0 403.3565,541.0 380.0,114.0" fill="none" stroke="#8B4513" stroke-width="3" stroke-opacity="0.6" marker-end="url(#arrow)"/>
<path d="M 227.04500000000002,774.0 C 249.98825000000002,444.0 357.05675,444.0 380.0,114.0" fill="none" stroke="#8B4513" stroke-width="3" stroke-opacity="0.6" marker-end="url(#arrow)"/>
<path d="M 532.9549999999999,795.0 C 510.01174999999995,454.5 402.94325,454.5 380.0,114.0" fill="none" stroke="#8B4513" stroke-width="3" stroke-opacity="0.6" marker-end="url(#arrow)"/>
<path d="M 380.0,636.0 C 380.0,375.0 380.0,375.0 380.0,114.0" fill="none" stroke="#8B4513" stroke-width="3" stroke-opacity="0.6" marker-end="url(#arrow)"/>
<path d="M 221.53500000000003,498.0 C 245.30475,306.0 356.23025,306.0 380.0,114.0" fill="none" stroke="#8B4513" stroke-width="3" stroke-opacity="0.6" marker-end="url(#arrow)"/>
<path d="M 538.4649999999999,498.0 C 514.69525,306.0 403.76975,306.0 380.0,114.0" fill="none" stroke="#8B4513" stroke-width="3" stroke-opacity="0.6" marker-end="url(#arrow)"/>
<path d="M 380.0,360.0 C 380.0,237.0 380.0,237.0 380.0,114.0" fill="none" stroke="#8B4513" stroke-width="3" stroke-opacity="0.6" marker-end="url(#arrow)"/>
<path d="M 380.0,194.0 C 380.0,154.0 380.0,154.0 380.0,114.0" fill="none" stroke="#8B4513" stroke-width="3" stroke-opacity="0.6" marker-end="url(#arrow)"/>
<path d="M 380.0,1300.0 C 380.0,707.0 380.0,707.0 380.0,114.0" fill="none" stroke="#8B4513" stroke-width="3" stroke-opacity="0.6" marker-end="url(#arrow)"/>
<path d="M 1718.8649999999998,1915.0 C 1518.03525,1014.5 580.82975,1014.5 380.0,114.0" fill="none" stroke="#8B4513" stroke-width="3" stroke-opacity="0.6" marker-end="url(#arrow)"/>
<path d="M 380.0,1770.0 C 380.0,942.0 380.0,942.0 380.0,114.0" fill="none" stroke="#8B4513" stroke-width="3" stroke-opacity="0.6" marker-end="url(#arrow)"/>
<rect x="80.0" y="1922.0" width="200" height="44" fill="#e8e8e8" stroke="#999" stroke-width="2" rx="8"/>
<text x="180.0" y="1940.0" text-anchor="middle" fill="#333" font-family="Arial,sans-serif" font-size="12" font-weight="bold">Emb: She (pos 1)</text>
<circle cx="262.0" cy="1935.0" r="9" fill="#ccc"/>
<text x="262.0" y="1939.0" text-anchor="middle" fill="#666" font-family="monospace" font-size="9" font-weight="bold">0</text>
<rect x="320.0" y="1922.0" width="200" height="44" fill="#e8e8e8" stroke="#999" stroke-width="2" rx="8"/>
<text x="420.0" y="1940.0" text-anchor="middle" fill="#333" font-family="Arial,sans-serif" font-size="12" font-weight="bold">Emb: loves (pos 2)</text>
<circle cx="502.0" cy="1935.0" r="9" fill="#ccc"/>
<text x="502.0" y="1939.0" text-anchor="middle" fill="#666" font-family="monospace" font-size="9" font-weight="bold">0</text>
<rect x="560.0" y="1922.0" width="200" height="44" fill="#e8e8e8" stroke="#999" stroke-width="2" rx="8"/>
<text x="660.0" y="1940.0" text-anchor="middle" fill="#333" font-family="Arial,sans-serif" font-size="12" font-weight="bold">Emb: her (pos 4)</text>
<circle cx="742.0" cy="1935.0" r="9" fill="#ccc"/>
<text x="742.0" y="1939.0" text-anchor="middle" fill="#666" font-family="monospace" font-size="9" font-weight="bold">0</text>
<rect x="800.0" y="1922.0" width="200" height="44" fill="#e8e8e8" stroke="#999" stroke-width="2" rx="8"/>
<text x="900.0" y="1940.0" text-anchor="middle" fill="#333" font-family="Arial,sans-serif" font-size="12" font-weight="bold">Emb: Sarah (pos 12)</text>
<circle cx="982.0" cy="1935.0" r="9" fill="#ccc"/>
<text x="982.0" y="1939.0" text-anchor="middle" fill="#666" font-family="monospace" font-size="9" font-weight="bold">0</text>
<rect x="1040.0" y="1922.0" width="200" height="44" fill="#e8e8e8" stroke="#999" stroke-width="2" rx="8"/>
<text x="1140.0" y="1940.0" text-anchor="middle" fill="#333" font-family="Arial,sans-serif" font-size="12" font-weight="bold">Emb: Sarah (pos 34)</text>
<circle cx="1222.0" cy="1935.0" r="9" fill="#ccc"/>
<text x="1222.0" y="1939.0" text-anchor="middle" fill="#666" font-family="monospace" font-size="9" font-weight="bold">0</text>
<rect x="1280.0" y="1908.0" width="265.90999999999997" height="72" fill="#e8e8e8" stroke="#999" stroke-width="2" rx="8"/>
<text x="1412.955" y="1926.0" text-anchor="middle" fill="#333" font-family="Arial,sans-serif" font-size="12" font-weight="bold">L0: &#x27;She&#x27; pronoun detector</text>
<text x="1412.955" y="1944.0" text-anchor="middle" fill="#666" font-family="monospace" font-size="9">L0:F9519 —  the pronoun &quot;she&quot; and the pos</text>
<text x="1412.955" y="1958.0" text-anchor="middle" fill="#666" font-family="monospace" font-size="9">L0:F12519 —  the pronoun &quot;she&quot;</text>
<circle cx="1527.9099999999999" cy="1921.0" r="9" fill="#ccc"/>
<text x="1527.9099999999999" y="1925.0" text-anchor="middle" fill="#666" font-family="monospace" font-size="9" font-weight="bold">2</text>
<rect x="1585.9099999999999" y="1915.0" width="265.90999999999997" height="58" fill="#e8e8e8" stroke="#999" stroke-width="2" rx="8"/>
<text x="1718.8649999999998" y="1933.0" text-anchor="middle" fill="#333" font-family="Arial,sans-serif" font-size="12" font-weight="bold">L0: Female pronoun</text>
<text x="1718.8649999999998" y="1947.0" text-anchor="middle" fill="#333" font-family="Arial,sans-serif" font-size="12" font-weight="bold">detector (pos 4) —</text>
<text x="1718.8649999999998" y="1961.0" text-anchor="middle" fill="#333" font-family="Arial,sans-serif" font-size="12" font-weight="bold">NEGATIVE</text>
<text x="1718.8649999999998" y="1979.0" text-anchor="middle" fill="#666" font-family="monospace" font-size="9">L0:F7509 —  female pronouns and words lik</text>
<circle cx="1833.8199999999997" cy="1928.0" r="9" fill="#ccc"/>
<text x="1833.8199999999997" y="1932.0" text-anchor="middle" fill="#666" font-family="monospace" font-size="9" font-weight="bold">1</text>
<rect x="1891.8199999999997" y="1915.0" width="207.04" height="58" fill="#e8e8e8" stroke="#999" stroke-width="2" rx="8"/>
<text x="1995.3399999999997" y="1933.0" text-anchor="middle" fill="#333" font-family="Arial,sans-serif" font-size="12" font-weight="bold">L0: Proper noun detector</text>
<text x="1995.3399999999997" y="1947.0" text-anchor="middle" fill="#333" font-family="Arial,sans-serif" font-size="12" font-weight="bold">(Sarah)</text>
<text x="1995.3399999999997" y="1965.0" text-anchor="middle" fill="#666" font-family="monospace" font-size="9">L0:F7532 —  proper nouns</text>
<circle cx="2080.8599999999997" cy="1928.0" r="9" fill="#ccc"/>
<text x="2080.8599999999997" y="1932.0" text-anchor="middle" fill="#666" font-family="monospace" font-size="9" font-weight="bold">1</text>
<rect x="244.29000000000002" y="1770.0" width="271.41999999999996" height="58" fill="#e8e8e8" stroke="#999" stroke-width="2" rx="8"/>
<text x="380.0" y="1788.0" text-anchor="middle" fill="#333" font-family="Arial,sans-serif" font-size="12" font-weight="bold">L1: &#x27;Client&#x27; word detector</text>
<text x="380.0" y="1802.0" text-anchor="middle" fill="#333" font-family="Arial,sans-serif" font-size="12" font-weight="bold">— NEGATIVE</text>
<text x="380.0" y="1820.0" text-anchor="middle" fill="#666" font-family="monospace" font-size="9">L1:F15251 —  the word &quot;client&quot; and its plu</text>
<circle cx="497.71000000000004" cy="1783.0" r="9" fill="#ccc"/>
<text x="497.71000000000004" y="1787.0" text-anchor="middle" fill="#666" font-family="monospace" font-size="9" font-weight="bold">1</text>
<rect x="247.04500000000002" y="1618.0" width="265.90999999999997" height="72" fill="#e8e8e8" stroke="#999" stroke-width="2" rx="8"/>
<text x="380.0" y="1636.0" text-anchor="middle" fill="#333" font-family="Arial,sans-serif" font-size="12" font-weight="bold">L2: Mentions of women by</text>
<text x="380.0" y="1650.0" text-anchor="middle" fill="#333" font-family="Arial,sans-serif" font-size="12" font-weight="bold">name/relationship</text>
<text x="380.0" y="1668.0" text-anchor="middle" fill="#666" font-family="monospace" font-size="9">L2:F7672 —  mentions of women by name and</text>
<text x="380.0" y="1682.0" text-anchor="middle" fill="#666" font-family="monospace" font-size="9">L2:F5859 —  first names (mostly female)</text>
<circle cx="494.9549999999999" cy="1631.0" r="9" fill="#ccc"/>
<text x="494.9549999999999" y="1635.0" text-anchor="middle" fill="#666" font-family="monospace" font-size="9" font-weight="bold">2</text>
<rect x="244.29000000000002" y="1466.0" width="271.41999999999996" height="72" fill="#e8e8e8" stroke="#999" stroke-width="2" rx="8"/>
<text x="380.0" y="1484.0" text-anchor="middle" fill="#333" font-family="Arial,sans-serif" font-size="12" font-weight="bold">L3: Proper noun/name</text>
<text x="380.0" y="1498.0" text-anchor="middle" fill="#333" font-family="Arial,sans-serif" font-size="12" font-weight="bold">detectors (Sarah)</text>
<text x="380.0" y="1516.0" text-anchor="middle" fill="#666" font-family="monospace" font-size="9">L3:F3814 —  proper nouns, especially name</text>
<text x="380.0" y="1530.0" text-anchor="middle" fill="#666" font-family="monospace" font-size="9">L3:F14834 —  proper nouns, specifically na</text>
<circle cx="497.71000000000004" cy="1479.0" r="9" fill="#ccc"/>
<text x="497.71000000000004" y="1483.0" text-anchor="middle" fill="#666" font-family="monospace" font-size="9" font-weight="bold">2</text>
<rect x="244.29000000000002" y="1300.0" width="271.41999999999996" height="86" fill="#e8e8e8" stroke="#999" stroke-width="2" rx="8"/>
<text x="380.0" y="1318.0" text-anchor="middle" fill="#333" font-family="Arial,sans-serif" font-size="12" font-weight="bold">L4: Feminine-biased entity</text>
<text x="380.0" y="1332.0" text-anchor="middle" fill="#333" font-family="Arial,sans-serif" font-size="12" font-weight="bold">features</text>
<text x="380.0" y="1350.0" text-anchor="middle" fill="#666" font-family="monospace" font-size="9">L4:F7864 — xml or source code snippets, e</text>
<text x="380.0" y="1364.0" text-anchor="middle" fill="#666" font-family="monospace" font-size="9">L4:F15317 —  named entities like character</text>
<text x="380.0" y="1378.0" text-anchor="middle" fill="#666" font-family="monospace" font-size="9">L4:F1276 — capitalized names and titles, </text>
<circle cx="497.71000000000004" cy="1313.0" r="9" fill="#ccc"/>
<text x="497.71000000000004" y="1317.0" text-anchor="middle" fill="#666" font-family="monospace" font-size="9" font-weight="bold">3</text>
<rect x="244.29000000000002" y="1120.0" width="271.41999999999996" height="100" fill="#e8e8e8" stroke="#999" stroke-width="2" rx="8"/>
<text x="380.0" y="1138.0" text-anchor="middle" fill="#333" font-family="Arial,sans-serif" font-size="12" font-weight="bold">L5: Proper noun + feminine</text>
<text x="380.0" y="1152.0" text-anchor="middle" fill="#333" font-family="Arial,sans-serif" font-size="12" font-weight="bold">gender features</text>
<text x="380.0" y="1170.0" text-anchor="middle" fill="#666" font-family="monospace" font-size="9">L5:F16213 —  proper nouns consisting of a </text>
<text x="380.0" y="1184.0" text-anchor="middle" fill="#666" font-family="monospace" font-size="9">L5:F16213 —  proper nouns consisting of a </text>
<text x="380.0" y="1198.0" text-anchor="middle" fill="#666" font-family="monospace" font-size="9">L5:F6637 —  female first names with two s</text>
<text x="380.0" y="1212.0" text-anchor="middle" fill="#666" font-family="monospace" font-size="9">L5:F10952 — third person pronouns in varyi</text>
<circle cx="497.71000000000004" cy="1133.0" r="9" fill="#ccc"/>
<text x="497.71000000000004" y="1137.0" text-anchor="middle" fill="#666" font-family="monospace" font-size="9" font-weight="bold">4</text>
<rect x="88.58000000000004" y="968.0" width="271.41999999999996" height="72" fill="#e8e8e8" stroke="#999" stroke-width="2" rx="8"/>
<text x="224.29000000000002" y="986.0" text-anchor="middle" fill="#333" font-family="Arial,sans-serif" font-size="12" font-weight="bold">L6: References to women</text>
<text x="224.29000000000002" y="1000.0" text-anchor="middle" fill="#333" font-family="Arial,sans-serif" font-size="12" font-weight="bold">(pronouns/titles)</text>
<text x="224.29000000000002" y="1018.0" text-anchor="middle" fill="#666" font-family="monospace" font-size="9">L6:F11646 —  references to women, potentia</text>
<text x="224.29000000000002" y="1032.0" text-anchor="middle" fill="#666" font-family="monospace" font-size="9">L6:F11646 —  references to women, potentia</text>
<circle cx="342.0" cy="981.0" r="9" fill="#ccc"/>
<text x="342.0" y="985.0" text-anchor="middle" fill="#666" font-family="monospace" font-size="9" font-weight="bold">2</text>
<rect x="400.00000000000006" y="968.0" width="271.41999999999996" height="72" fill="#e8e8e8" stroke="#999" stroke-width="2" rx="8"/>
<text x="535.71" y="986.0" text-anchor="middle" fill="#333" font-family="Arial,sans-serif" font-size="12" font-weight="bold">L6: Female first names —</text>
<text x="535.71" y="1000.0" text-anchor="middle" fill="#333" font-family="Arial,sans-serif" font-size="12" font-weight="bold">NEGATIVE (anti-redundancy)</text>
<text x="535.71" y="1018.0" text-anchor="middle" fill="#666" font-family="monospace" font-size="9">L6:F16329 — female first names and their p</text>
<text x="535.71" y="1032.0" text-anchor="middle" fill="#666" font-family="monospace" font-size="9">L6:F16329 — female first names and their p</text>
<circle cx="653.4200000000001" cy="981.0" r="9" fill="#ccc"/>
<text x="653.4200000000001" y="985.0" text-anchor="middle" fill="#666" font-family="monospace" font-size="9" font-weight="bold">2</text>
<rect x="94.09000000000003" y="774.0" width="265.90999999999997" height="114" fill="#e8e8e8" stroke="#999" stroke-width="2" rx="8"/>
<text x="227.04500000000002" y="792.0" text-anchor="middle" fill="#333" font-family="Arial,sans-serif" font-size="12" font-weight="bold">L7: Person/character</text>
<text x="227.04500000000002" y="806.0" text-anchor="middle" fill="#333" font-family="Arial,sans-serif" font-size="12" font-weight="bold">mentions (feminine-biased)</text>
<text x="227.04500000000002" y="824.0" text-anchor="middle" fill="#666" font-family="monospace" font-size="9">L7:F2765 —  mentions of people or charact</text>
<text x="227.04500000000002" y="838.0" text-anchor="middle" fill="#666" font-family="monospace" font-size="9">L7:F2765 —  mentions of people or charact</text>
<text x="227.04500000000002" y="852.0" text-anchor="middle" fill="#666" font-family="monospace" font-size="9">L7:F2765 —  mentions of people or charact</text>
<text x="227.04500000000002" y="866.0" text-anchor="middle" fill="#666" font-family="monospace" font-size="9">L7:F2765 —  mentions of people or charact</text>
<text x="227.04500000000002" y="880.0" text-anchor="middle" fill="#666" font-family="monospace" font-size="9">... +1 more</text>
<circle cx="342.0" cy="787.0" r="9" fill="#ccc"/>
<text x="342.0" y="791.0" text-anchor="middle" fill="#666" font-family="monospace" font-size="9" font-weight="bold">5</text>
<rect x="399.99999999999994" y="795.0" width="265.90999999999997" height="72" fill="#e8e8e8" stroke="#999" stroke-width="2" rx="8"/>
<text x="532.9549999999999" y="813.0" text-anchor="middle" fill="#333" font-family="Arial,sans-serif" font-size="12" font-weight="bold">L7: Woman&#x27;s name detector</text>
<text x="532.9549999999999" y="827.0" text-anchor="middle" fill="#333" font-family="Arial,sans-serif" font-size="12" font-weight="bold">— NEGATIVE (gender</text>
<text x="532.9549999999999" y="841.0" text-anchor="middle" fill="#333" font-family="Arial,sans-serif" font-size="12" font-weight="bold">contrast)</text>
<text x="532.9549999999999" y="859.0" text-anchor="middle" fill="#666" font-family="monospace" font-size="9">L7:F8644 —  woman&#x27;s name in a variety of </text>
<text x="532.9549999999999" y="873.0" text-anchor="middle" fill="#666" font-family="monospace" font-size="9">L7:F8644 —  woman&#x27;s name in a variety of </text>
<circle cx="647.9099999999999" cy="808.0" r="9" fill="#ccc"/>
<text x="647.9099999999999" y="812.0" text-anchor="middle" fill="#666" font-family="monospace" font-size="9" font-weight="bold">2</text>
<rect x="258.065" y="636.0" width="243.86999999999998" height="58" fill="#e8e8e8" stroke="#999" stroke-width="2" rx="8"/>
<text x="380.0" y="654.0" text-anchor="middle" fill="#333" font-family="Arial,sans-serif" font-size="12" font-weight="bold">L10: Terms relating to</text>
<text x="380.0" y="668.0" text-anchor="middle" fill="#333" font-family="Arial,sans-serif" font-size="12" font-weight="bold">women</text>
<text x="380.0" y="686.0" text-anchor="middle" fill="#666" font-family="monospace" font-size="9">L10:F14965 —  terms relating to women</text>
<circle cx="483.93499999999995" cy="649.0" r="9" fill="#ccc"/>
<text x="483.93499999999995" y="653.0" text-anchor="middle" fill="#666" font-family="monospace" font-size="9" font-weight="bold">1</text>
<rect x="83.07000000000005" y="498.0" width="276.92999999999995" height="58" fill="#e8e8e8" stroke="#999" stroke-width="2" rx="8"/>
<text x="221.53500000000003" y="516.0" text-anchor="middle" fill="#333" font-family="Arial,sans-serif" font-size="12" font-weight="bold">L12: Female</text>
<text x="221.53500000000003" y="530.0" text-anchor="middle" fill="#333" font-family="Arial,sans-serif" font-size="12" font-weight="bold">pronouns/possessives</text>
<text x="221.53500000000003" y="544.0" text-anchor="middle" fill="#333" font-family="Arial,sans-serif" font-size="12" font-weight="bold">(highly specific)</text>
<text x="221.53500000000003" y="562.0" text-anchor="middle" fill="#666" font-family="monospace" font-size="9">L12:F12940 — references to female pronouns </text>
<circle cx="342.0" cy="511.0" r="9" fill="#ccc"/>
<text x="342.0" y="515.0" text-anchor="middle" fill="#666" font-family="monospace" font-size="9" font-weight="bold">1</text>
<rect x="399.99999999999994" y="498.0" width="276.92999999999995" height="58" fill="#e8e8e8" stroke="#999" stroke-width="2" rx="8"/>
<text x="538.4649999999999" y="516.0" text-anchor="middle" fill="#333" font-family="Arial,sans-serif" font-size="12" font-weight="bold">L12: Names of people</text>
<text x="538.4649999999999" y="530.0" text-anchor="middle" fill="#333" font-family="Arial,sans-serif" font-size="12" font-weight="bold">(Sarah)</text>
<text x="538.4649999999999" y="548.0" text-anchor="middle" fill="#666" font-family="monospace" font-size="9">L12:F14970 —  names of people, both first a</text>
<circle cx="658.9299999999998" cy="511.0" r="9" fill="#ccc"/>
<text x="658.9299999999998" y="515.0" text-anchor="middle" fill="#666" font-family="monospace" font-size="9" font-weight="bold">1</text>
<rect x="241.53500000000003" y="360.0" width="276.92999999999995" height="58" fill="#e8e8e8" stroke="#999" stroke-width="2" rx="8"/>
<text x="380.0" y="378.0" text-anchor="middle" fill="#333" font-family="Arial,sans-serif" font-size="12" font-weight="bold">L14: Feminine pronoun uses</text>
<text x="380.0" y="396.0" text-anchor="middle" fill="#666" font-family="monospace" font-size="9">L14:F12501 —  uses of the feminine pronoun.</text>
<circle cx="500.4649999999999" cy="373.0" r="9" fill="#ccc"/>
<text x="500.4649999999999" y="377.0" text-anchor="middle" fill="#666" font-family="monospace" font-size="9" font-weight="bold">1</text>
<rect x="241.53500000000003" y="194.0" width="276.92999999999995" height="86" fill="#e8e8e8" stroke="#999" stroke-width="2" rx="8"/>
<text x="380.0" y="212.0" text-anchor="middle" fill="#333" font-family="Arial,sans-serif" font-size="12" font-weight="bold">L18: Women/girls being</text>
<text x="380.0" y="226.0" text-anchor="middle" fill="#333" font-family="Arial,sans-serif" font-size="12" font-weight="bold">mentioned (multi-position)</text>
<text x="380.0" y="244.0" text-anchor="middle" fill="#666" font-family="monospace" font-size="9">L18:F14677 —  instances of women or girls b</text>
<text x="380.0" y="258.0" text-anchor="middle" fill="#666" font-family="monospace" font-size="9">L18:F14677 —  instances of women or girls b</text>
<text x="380.0" y="272.0" text-anchor="middle" fill="#666" font-family="monospace" font-size="9">L18:F14677 —  instances of women or girls b</text>
<circle cx="500.4649999999999" cy="207.0" r="9" fill="#ccc"/>
<text x="500.4649999999999" y="211.0" text-anchor="middle" fill="#666" font-family="monospace" font-size="9" font-weight="bold">3</text>
<rect x="269.52" y="70.0" width="220.95999999999998" height="44" fill="#e8e8e8" stroke="#999" stroke-width="2" rx="8"/>
<text x="380.0" y="88.0" text-anchor="middle" fill="#333" font-family="Arial,sans-serif" font-size="12" font-weight="bold">Probe classification score</text>
<circle cx="472.47999999999996" cy="83.0" r="9" fill="#ccc"/>
<text x="472.47999999999996" y="87.0" text-anchor="middle" fill="#666" font-family="monospace" font-size="9" font-weight="bold">0</text>
<line x1="40" y1="2060" x2="2178" y2="2060" stroke="#ddd" stroke-width="1"/>
<text x="40" y="2078" fill="#666" font-family="Arial,sans-serif" font-size="10" font-weight="bold" letter-spacing="1px">PROMPT</text>
<text x="40" y="2096" fill="#333" font-family="monospace" font-size="11">"&lt;bos&gt;She loves educating her clients on how to eat healthier. Sarah is a member of the Academy of Nutrition and Dietetic"</text>
<text x="40" y="2120" fill="#666" font-family="Arial,sans-serif" font-size="10" font-weight="bold" letter-spacing="1px">TOP OUTPUTS</text>
<rect x="40" y="2125" width="100" height="20" fill="#e8e8e8" stroke="none" rx="6"/>
<text x="45" y="2139" fill="#333" font-family="Arial,sans-serif" font-size="11" font-weight="bold">(empty) <tspan fill="#555" font-size="10">100%</tspan></text>
</svg>