<svg width="1971" height="1621" xmlns="http://www.w3.org/2000/svg">
<rect width="1971" height="1621" fill="#f5f5f5"/>
<rect x="15" y="15" width="1941" height="1591" fill="white" stroke="none" rx="12"/>
<text x="40" y="48" fill="#666" font-family="Arial,sans-serif" font-size="14" font-weight="bold" letter-spacing="1px">ATTRIBUTION CIRCUIT</text>
<text x="25" y="96.0" fill="#999" font-family="monospace" font-size="10" font-weight="bold" text-anchor="start">L36</text>
<text x="25" y="227.0" fill="#999" font-family="monospace" font-size="10" font-weight="bold" text-anchor="start">L12</text>
<text x="25" y="365.0" fill="#999" font-family="monospace" font-size="10" font-weight="bold" text-anchor="start">L8</text>
<text x="25" y="503.0" fill="#999" font-family="monospace" font-size="10" font-weight="bold" text-anchor="start">L7</text>
<text x="25" y="648.0" fill="#999" font-family="monospace" font-size="10" font-weight="bold" text-anchor="start">L6</text>
<text x="25" y="807.0" fill="#999" font-family="monospace" font-size="10" font-weight="bold" text-anchor="start">L4</text>
<text x="25" y="959.0" fill="#999" font-family="monospace" font-size="10" font-weight="bold" text-anchor="start">L3</text>
<text x="25" y="1104.0" fill="#999" font-family="monospace" font-size="10" font-weight="bold" text-anchor="start">L2</text>
<text x="25" y="1249.0" fill="#999" font-family="monospace" font-size="10" font-weight="bold" text-anchor="start">L1</text>
<text x="25" y="1394.0" fill="#999" font-family="monospace" font-size="10" font-weight="bold" text-anchor="start">L0</text>
<defs><marker id="arrow" markerWidth="8" markerHeight="6" refX="8" refY="3" orient="auto"><polygon points="0,0 8,3 0,6" fill="#8B4513" fill-opacity="0.7"/></marker></defs>
<path d="M 180.0,1419.0 C 365.3565,1386.5 1230.3535,1386.5 1415.71,1354.0" fill="none" stroke="#8B4513" stroke-width="3" stroke-opacity="0.6" marker-end="url(#arrow)"/>
<path d="M 180.0,1361.0 C 210.0,1020.5 350.0,1020.5 380.0,680.0" fill="none" stroke="#8B4513" stroke-width="3" stroke-opacity="0.6" marker-end="url(#arrow)"/>
<path d="M 180.0,1361.0 C 186.64350000000002,1096.5 217.6465,1096.5 224.29000000000002,832.0" fill="none" stroke="#8B4513" stroke-width="3" stroke-opacity="0.6" marker-end="url(#arrow)"/>
<path d="M 180.0,1361.0 C 210.0,1172.5 350.0,1172.5 380.0,984.0" fill="none" stroke="#8B4513" stroke-width="3" stroke-opacity="0.6" marker-end="url(#arrow)"/>
<path d="M 180.0,1361.0 C 210.0,1317.5 350.0,1317.5 380.0,1274.0" fill="none" stroke="#8B4513" stroke-width="3" stroke-opacity="0.6" marker-end="url(#arrow)"/>
<path d="M 180.0,1361.0 C 186.64350000000002,1245.0 217.6465,1245.0 224.29000000000002,1129.0" fill="none" stroke="#8B4513" stroke-width="3" stroke-opacity="0.6" marker-end="url(#arrow)"/>
<path d="M 180.0,1361.0 C 233.3565,944.5 482.35350000000005,944.5 535.71,528.0" fill="none" stroke="#8B4513" stroke-width="3" stroke-opacity="0.6" marker-end="url(#arrow)"/>
<path d="M 180.0,1361.0 C 232.94324999999998,1248.5 480.01174999999995,1248.5 532.9549999999999,1136.0" fill="none" stroke="#8B4513" stroke-width="3" stroke-opacity="0.6" marker-end="url(#arrow)"/>
<path d="M 420.0,1419.0 C 569.3565,1386.5 1266.3535,1386.5 1415.71,1354.0" fill="none" stroke="#8B4513" stroke-width="3" stroke-opacity="0.6" marker-end="url(#arrow)"/>
<path d="M 420.0,1361.0 C 414.0,1020.5 386.0,1020.5 380.0,680.0" fill="none" stroke="#8B4513" stroke-width="3" stroke-opacity="0.6" marker-end="url(#arrow)"/>
<path d="M 660.0,1361.0 C 640.94325,1248.5 552.0117499999999,1248.5 532.9549999999999,1136.0" fill="none" stroke="#8B4513" stroke-width="3" stroke-opacity="0.6" marker-end="url(#arrow)"/>
<path d="M 660.0,1361.0 C 618.0,806.5 422.0,806.5 380.0,252.0" fill="none" stroke="#8B4513" stroke-width="3" stroke-opacity="0.6" marker-end="url(#arrow)"/>
<path d="M 900.0,1361.0 C 844.94325,1103.5 588.0117499999999,1103.5 532.9549999999999,846.0" fill="none" stroke="#8B4513" stroke-width="3" stroke-opacity="0.6" marker-end="url(#arrow)"/>
<path d="M 1140.0,1419.0 C 1227.243,1390.0 1634.3770000000002,1390.0 1721.6200000000001,1361.0" fill="none" stroke="#8B4513" stroke-width="3" stroke-opacity="0.6" marker-end="url(#arrow)"/>
<path d="M 1415.71,1354.0 C 1260.3535,1017.0 535.3565,1017.0 380.0,680.0" fill="none" stroke="#8B4513" stroke-width="3" stroke-opacity="0.6" marker-end="url(#arrow)"/>
<path d="M 1415.71,1354.0 C 1260.3535,1169.0 535.3565,1169.0 380.0,984.0" fill="none" stroke="#8B4513" stroke-width="3" stroke-opacity="0.6" marker-end="url(#arrow)"/>
<path d="M 1415.71,1354.0 C 1236.997,1241.5 403.00300000000004,1241.5 224.29000000000002,1129.0" fill="none" stroke="#8B4513" stroke-width="3" stroke-opacity="0.6" marker-end="url(#arrow)"/>
<path d="M 380.0,608.0 C 380.0,499.0 380.0,499.0 380.0,390.0" fill="none" stroke="#8B4513" stroke-width="3" stroke-opacity="0.6" marker-end="url(#arrow)"/>
<path d="M 380.0,608.0 C 356.6435,568.0 247.6465,568.0 224.29000000000002,528.0" fill="none" stroke="#8B4513" stroke-width="3" stroke-opacity="0.6" marker-end="url(#arrow)"/>
<path d="M 224.29000000000002,774.0 C 247.6465,582.0 356.6435,582.0 380.0,390.0" fill="none" stroke="#8B4513" stroke-width="3" stroke-opacity="0.6" marker-end="url(#arrow)"/>
<path d="M 380.0,926.0 C 356.6435,879.0 247.6465,879.0 224.29000000000002,832.0" fill="none" stroke="#8B4513" stroke-width="3" stroke-opacity="0.6" marker-end="url(#arrow)"/>
<path d="M 380.0,1216.0 C 380.0,1100.0 380.0,1100.0 380.0,984.0" fill="none" stroke="#8B4513" stroke-width="3" stroke-opacity="0.6" marker-end="url(#arrow)"/>
<path d="M 224.29000000000002,1071.0 C 224.29000000000002,951.5 224.29000000000002,951.5 224.29000000000002,832.0" fill="none" stroke="#8B4513" stroke-width="3" stroke-opacity="0.6" marker-end="url(#arrow)"/>
<path d="M 532.9549999999999,1064.0 C 510.01174999999995,658.0 402.94325,658.0 380.0,252.0" fill="none" stroke="#8B4513" stroke-width="3" stroke-opacity="0.6" marker-end="url(#arrow)"/>
<path d="M 380.0,194.0 C 380.0,154.0 380.0,154.0 380.0,114.0" fill="none" stroke="#8B4513" stroke-width="3" stroke-opacity="0.6" marker-end="url(#arrow)"/>
<path d="M 380.0,608.0 C 380.0,361.0 380.0,361.0 380.0,114.0" fill="none" stroke="#8B4513" stroke-width="3" stroke-opacity="0.6" marker-end="url(#arrow)"/>
<path d="M 224.29000000000002,774.0 C 247.6465,444.0 356.6435,444.0 380.0,114.0" fill="none" stroke="#8B4513" stroke-width="3" stroke-opacity="0.6" marker-end="url(#arrow)"/>
<path d="M 380.0,332.0 C 380.0,223.0 380.0,223.0 380.0,114.0" fill="none" stroke="#8B4513" stroke-width="3" stroke-opacity="0.6" marker-end="url(#arrow)"/>
<path d="M 224.29000000000002,470.0 C 247.6465,292.0 356.6435,292.0 380.0,114.0" fill="none" stroke="#8B4513" stroke-width="3" stroke-opacity="0.6" marker-end="url(#arrow)"/>
<path d="M 380.0,926.0 C 380.0,520.0 380.0,520.0 380.0,114.0" fill="none" stroke="#8B4513" stroke-width="3" stroke-opacity="0.6" marker-end="url(#arrow)"/>
<path d="M 380.0,1216.0 C 380.0,665.0 380.0,665.0 380.0,114.0" fill="none" stroke="#8B4513" stroke-width="3" stroke-opacity="0.6" marker-end="url(#arrow)"/>
<path d="M 535.71,470.0 C 512.3535,292.0 403.3565,292.0 380.0,114.0" fill="none" stroke="#8B4513" stroke-width="3" stroke-opacity="0.6" marker-end="url(#arrow)"/>
<path d="M 532.9549999999999,760.0 C 510.01174999999995,437.0 402.94325,437.0 380.0,114.0" fill="none" stroke="#8B4513" stroke-width="3" stroke-opacity="0.6" marker-end="url(#arrow)"/>
<path d="M 1721.6200000000001,1361.0 C 1520.3770000000002,737.5 581.243,737.5 380.0,114.0" fill="none" stroke="#8B4513" stroke-width="3" stroke-opacity="0.6" marker-end="url(#arrow)"/>
<rect x="80.0" y="1361.0" width="200" height="58" fill="#e8e8e8" stroke="#999" stroke-width="2" rx="8"/>
<text x="180.0" y="1379.0" text-anchor="middle" fill="#333" font-family="Arial,sans-serif" font-size="12" font-weight="bold">Emb: Islam (pos 4)</text>
<text x="180.0" y="1397.0" text-anchor="middle" fill="#666" font-family="monospace" font-size="9">L0:F-1</text>
<circle cx="262.0" cy="1374.0" r="9" fill="#ccc"/>
<text x="262.0" y="1378.0" text-anchor="middle" fill="#666" font-family="monospace" font-size="9" font-weight="bold">1</text>
<rect x="320.0" y="1361.0" width="200" height="58" fill="#e8e8e8" stroke="#999" stroke-width="2" rx="8"/>
<text x="420.0" y="1379.0" text-anchor="middle" fill="#333" font-family="Arial,sans-serif" font-size="12" font-weight="bold">Emb: Allah (pos 13)</text>
<text x="420.0" y="1397.0" text-anchor="middle" fill="#666" font-family="monospace" font-size="9">L0:F-1</text>
<circle cx="502.0" cy="1374.0" r="9" fill="#ccc"/>
<text x="502.0" y="1378.0" text-anchor="middle" fill="#666" font-family="monospace" font-size="9" font-weight="bold">1</text>
<rect x="560.0" y="1361.0" width="200" height="58" fill="#e8e8e8" stroke="#999" stroke-width="2" rx="8"/>
<text x="660.0" y="1379.0" text-anchor="middle" fill="#333" font-family="Arial,sans-serif" font-size="12" font-weight="bold">Emb: false (pos 10)</text>
<text x="660.0" y="1397.0" text-anchor="middle" fill="#666" font-family="monospace" font-size="9">L0:F-1</text>
<circle cx="742.0" cy="1374.0" r="9" fill="#ccc"/>
<text x="742.0" y="1378.0" text-anchor="middle" fill="#666" font-family="monospace" font-size="9" font-weight="bold">1</text>
<rect x="800.0" y="1361.0" width="200" height="58" fill="#e8e8e8" stroke="#999" stroke-width="2" rx="8"/>
<text x="900.0" y="1379.0" text-anchor="middle" fill="#333" font-family="Arial,sans-serif" font-size="12" font-weight="bold">Emb: problem (pos 2)</text>
<text x="900.0" y="1397.0" text-anchor="middle" fill="#666" font-family="monospace" font-size="9">L0:F-1</text>
<circle cx="982.0" cy="1374.0" r="9" fill="#ccc"/>
<text x="982.0" y="1378.0" text-anchor="middle" fill="#666" font-family="monospace" font-size="9" font-weight="bold">1</text>
<rect x="1040.0" y="1361.0" width="200" height="58" fill="#e8e8e8" stroke="#999" stroke-width="2" rx="8"/>
<text x="1140.0" y="1379.0" text-anchor="middle" fill="#333" font-family="Arial,sans-serif" font-size="12" font-weight="bold">Emb: it (pos 7)</text>
<text x="1140.0" y="1397.0" text-anchor="middle" fill="#666" font-family="monospace" font-size="9">L0:F-1</text>
<circle cx="1222.0" cy="1374.0" r="9" fill="#ccc"/>
<text x="1222.0" y="1378.0" text-anchor="middle" fill="#666" font-family="monospace" font-size="9" font-weight="bold">1</text>
<rect x="1280.0" y="1354.0" width="271.41999999999996" height="72" fill="#e8e8e8" stroke="#999" stroke-width="2" rx="8"/>
<text x="1415.71" y="1372.0" text-anchor="middle" fill="#333" font-family="Arial,sans-serif" font-size="12" font-weight="bold">Middle Eastern</text>
<text x="1415.71" y="1386.0" text-anchor="middle" fill="#333" font-family="Arial,sans-serif" font-size="12" font-weight="bold">Names/Places Detector</text>
<text x="1415.71" y="1404.0" text-anchor="middle" fill="#666" font-family="monospace" font-size="9">L0:F13885 —  names of people and places, s</text>
<text x="1415.71" y="1418.0" text-anchor="middle" fill="#666" font-family="monospace" font-size="9">L0:F13885 —  names of people and places, s</text>
<circle cx="1533.42" cy="1367.0" r="9" fill="#ccc"/>
<text x="1533.42" y="1371.0" text-anchor="middle" fill="#666" font-family="monospace" font-size="9" font-weight="bold">2</text>
<rect x="247.04500000000002" y="608.0" width="265.90999999999997" height="72" fill="#e8e8e8" stroke="#999" stroke-width="2" rx="8"/>
<text x="380.0" y="626.0" text-anchor="middle" fill="#333" font-family="Arial,sans-serif" font-size="12" font-weight="bold">Islam-Specific Mention</text>
<text x="380.0" y="640.0" text-anchor="middle" fill="#333" font-family="Arial,sans-serif" font-size="12" font-weight="bold">Detector</text>
<text x="380.0" y="658.0" text-anchor="middle" fill="#666" font-family="monospace" font-size="9">L6:F7282 —  mentions of Islam or Middle E</text>
<text x="380.0" y="672.0" text-anchor="middle" fill="#666" font-family="monospace" font-size="9">L6:F7282 —  mentions of Islam or Middle E</text>
<circle cx="494.9549999999999" cy="621.0" r="9" fill="#ccc"/>
<text x="494.9549999999999" y="625.0" text-anchor="middle" fill="#666" font-family="monospace" font-size="9" font-weight="bold">2</text>
<rect x="91.33500000000004" y="774.0" width="265.90999999999997" height="58" fill="#e8e8e8" stroke="#999" stroke-width="2" rx="8"/>
<text x="224.29000000000002" y="792.0" text-anchor="middle" fill="#333" font-family="Arial,sans-serif" font-size="12" font-weight="bold">Religious</text>
<text x="224.29000000000002" y="806.0" text-anchor="middle" fill="#333" font-family="Arial,sans-serif" font-size="12" font-weight="bold">Identity/Affiliation</text>
<text x="224.29000000000002" y="820.0" text-anchor="middle" fill="#333" font-family="Arial,sans-serif" font-size="12" font-weight="bold">Detector</text>
<text x="224.29000000000002" y="838.0" text-anchor="middle" fill="#666" font-family="monospace" font-size="9">L4:F2405 —  words related to religious id</text>
<circle cx="339.245" cy="787.0" r="9" fill="#ccc"/>
<text x="339.245" y="791.0" text-anchor="middle" fill="#666" font-family="monospace" font-size="9" font-weight="bold">1</text>
<rect x="244.29000000000002" y="332.0" width="271.41999999999996" height="58" fill="#e8e8e8" stroke="#999" stroke-width="2" rx="8"/>
<text x="380.0" y="350.0" text-anchor="middle" fill="#333" font-family="Arial,sans-serif" font-size="12" font-weight="bold">Religion/Faith Terms</text>
<text x="380.0" y="364.0" text-anchor="middle" fill="#333" font-family="Arial,sans-serif" font-size="12" font-weight="bold">Detector</text>
<text x="380.0" y="382.0" text-anchor="middle" fill="#666" font-family="monospace" font-size="9">L8:F13197 —  words related to religion and</text>
<circle cx="497.71000000000004" cy="345.0" r="9" fill="#ccc"/>
<text x="497.71000000000004" y="349.0" text-anchor="middle" fill="#666" font-family="monospace" font-size="9" font-weight="bold">1</text>
<rect x="88.58000000000004" y="470.0" width="271.41999999999996" height="58" fill="#e8e8e8" stroke="#999" stroke-width="2" rx="8"/>
<text x="224.29000000000002" y="488.0" text-anchor="middle" fill="#333" font-family="Arial,sans-serif" font-size="12" font-weight="bold">Political Conflict</text>
<text x="224.29000000000002" y="502.0" text-anchor="middle" fill="#333" font-family="Arial,sans-serif" font-size="12" font-weight="bold">Involving Muslims</text>
<text x="224.29000000000002" y="520.0" text-anchor="middle" fill="#666" font-family="monospace" font-size="9">L7:F14049 —  discussion of international p</text>
<circle cx="342.0" cy="483.0" r="9" fill="#ccc"/>
<text x="342.0" y="487.0" text-anchor="middle" fill="#666" font-family="monospace" font-size="9" font-weight="bold">1</text>
<rect x="244.29000000000002" y="926.0" width="271.41999999999996" height="58" fill="#e8e8e8" stroke="#999" stroke-width="2" rx="8"/>
<text x="380.0" y="944.0" text-anchor="middle" fill="#333" font-family="Arial,sans-serif" font-size="12" font-weight="bold">Islam-Specific Content</text>
<text x="380.0" y="958.0" text-anchor="middle" fill="#333" font-family="Arial,sans-serif" font-size="12" font-weight="bold">Suppressor</text>
<text x="380.0" y="976.0" text-anchor="middle" fill="#666" font-family="monospace" font-size="9">L3:F12024 —  words referencing the religio</text>
<circle cx="497.71000000000004" cy="939.0" r="9" fill="#ccc"/>
<text x="497.71000000000004" y="943.0" text-anchor="middle" fill="#666" font-family="monospace" font-size="9" font-weight="bold">1</text>
<rect x="280.0" y="1216.0" width="200" height="58" fill="#e8e8e8" stroke="#999" stroke-width="2" rx="8"/>
<text x="380.0" y="1234.0" text-anchor="middle" fill="#333" font-family="Arial,sans-serif" font-size="12" font-weight="bold">Muslim Term Suppressor</text>
<text x="380.0" y="1252.0" text-anchor="middle" fill="#666" font-family="monospace" font-size="9">L1:F4314 —  the word Muslim</text>
<circle cx="462.0" cy="1229.0" r="9" fill="#ccc"/>
<text x="462.0" y="1233.0" text-anchor="middle" fill="#666" font-family="monospace" font-size="9" font-weight="bold">1</text>
<rect x="400.00000000000006" y="470.0" width="271.41999999999996" height="58" fill="#e8e8e8" stroke="#999" stroke-width="2" rx="8"/>
<text x="535.71" y="488.0" text-anchor="middle" fill="#333" font-family="Arial,sans-serif" font-size="12" font-weight="bold">General Religion</text>
<text x="535.71" y="502.0" text-anchor="middle" fill="#333" font-family="Arial,sans-serif" font-size="12" font-weight="bold">Suppressor</text>
<text x="535.71" y="520.0" text-anchor="middle" fill="#666" font-family="monospace" font-size="9">L7:F12448 — words and phrases related to r</text>
<circle cx="653.4200000000001" cy="483.0" r="9" fill="#ccc"/>
<text x="653.4200000000001" y="487.0" text-anchor="middle" fill="#666" font-family="monospace" font-size="9" font-weight="bold">1</text>
<rect x="91.33500000000004" y="1071.0" width="265.90999999999997" height="58" fill="#e8e8e8" stroke="#999" stroke-width="2" rx="8"/>
<text x="224.29000000000002" y="1089.0" text-anchor="middle" fill="#333" font-family="Arial,sans-serif" font-size="12" font-weight="bold">Islamic Countries/Regions</text>
<text x="224.29000000000002" y="1103.0" text-anchor="middle" fill="#333" font-family="Arial,sans-serif" font-size="12" font-weight="bold">References</text>
<text x="224.29000000000002" y="1121.0" text-anchor="middle" fill="#666" font-family="monospace" font-size="9">L2:F7214 —  references to countries or re</text>
<circle cx="339.245" cy="1084.0" r="9" fill="#ccc"/>
<text x="339.245" y="1088.0" text-anchor="middle" fill="#666" font-family="monospace" font-size="9" font-weight="bold">1</text>
<rect x="397.24499999999995" y="1064.0" width="271.41999999999996" height="72" fill="#e8e8e8" stroke="#999" stroke-width="2" rx="8"/>
<text x="532.9549999999999" y="1082.0" text-anchor="middle" fill="#333" font-family="Arial,sans-serif" font-size="12" font-weight="bold">False/Boolean Statement</text>
<text x="532.9549999999999" y="1096.0" text-anchor="middle" fill="#333" font-family="Arial,sans-serif" font-size="12" font-weight="bold">Detector</text>
<text x="532.9549999999999" y="1114.0" text-anchor="middle" fill="#666" font-family="monospace" font-size="9">L2:F13635 — the word &quot;false&quot; and &quot;boolean&quot;</text>
<text x="532.9549999999999" y="1128.0" text-anchor="middle" fill="#666" font-family="monospace" font-size="9">L2:F4053 —  inflammatory hateful words, p</text>
<circle cx="650.665" cy="1077.0" r="9" fill="#ccc"/>
<text x="650.665" y="1081.0" text-anchor="middle" fill="#666" font-family="monospace" font-size="9" font-weight="bold">2</text>
<rect x="244.29000000000002" y="194.0" width="271.41999999999996" height="58" fill="#e8e8e8" stroke="#999" stroke-width="2" rx="8"/>
<text x="380.0" y="212.0" text-anchor="middle" fill="#333" font-family="Arial,sans-serif" font-size="12" font-weight="bold">Group Denigration Detector</text>
<text x="380.0" y="230.0" text-anchor="middle" fill="#666" font-family="monospace" font-size="9">L12:F7779 —  negative language denigrating</text>
<circle cx="497.71000000000004" cy="207.0" r="9" fill="#ccc"/>
<text x="497.71000000000004" y="211.0" text-anchor="middle" fill="#666" font-family="monospace" font-size="9" font-weight="bold">1</text>
<rect x="397.24499999999995" y="760.0" width="271.41999999999996" height="86" fill="#e8e8e8" stroke="#999" stroke-width="2" rx="8"/>
<text x="532.9549999999999" y="778.0" text-anchor="middle" fill="#333" font-family="Arial,sans-serif" font-size="12" font-weight="bold">Problem/Disagreement</text>
<text x="532.9549999999999" y="792.0" text-anchor="middle" fill="#333" font-family="Arial,sans-serif" font-size="12" font-weight="bold">Context</text>
<text x="532.9549999999999" y="810.0" text-anchor="middle" fill="#666" font-family="monospace" font-size="9">L4:F15997 —  discussion of advantages and/</text>
<text x="532.9549999999999" y="824.0" text-anchor="middle" fill="#666" font-family="monospace" font-size="9">L3:F14698 — expressions of disagreement or</text>
<text x="532.9549999999999" y="838.0" text-anchor="middle" fill="#666" font-family="monospace" font-size="9">L3:F1395 —  the word “wrong” and various </text>
<circle cx="650.665" cy="773.0" r="9" fill="#ccc"/>
<text x="650.665" y="777.0" text-anchor="middle" fill="#666" font-family="monospace" font-size="9" font-weight="bold">3</text>
<rect x="1591.42" y="1361.0" width="260.4" height="58" fill="#e8e8e8" stroke="#999" stroke-width="2" rx="8"/>
<text x="1721.6200000000001" y="1379.0" text-anchor="middle" fill="#333" font-family="Arial,sans-serif" font-size="12" font-weight="bold">Pronoun &#x27;it&#x27; Detector</text>
<text x="1721.6200000000001" y="1397.0" text-anchor="middle" fill="#666" font-family="monospace" font-size="9">L0:F880 —  references to the pronoun &quot;it</text>
<circle cx="1833.8200000000002" cy="1374.0" r="9" fill="#ccc"/>
<text x="1833.8200000000002" y="1378.0" text-anchor="middle" fill="#666" font-family="monospace" font-size="9" font-weight="bold">1</text>
<rect x="280.0" y="70.0" width="200" height="44" fill="#e8e8e8" stroke="#999" stroke-width="2" rx="8"/>
<text x="380.0" y="88.0" text-anchor="middle" fill="#333" font-family="Arial,sans-serif" font-size="12" font-weight="bold">Output Logit (Probe</text>
<text x="380.0" y="102.0" text-anchor="middle" fill="#333" font-family="Arial,sans-serif" font-size="12" font-weight="bold">Direction)</text>
<circle cx="462.0" cy="83.0" r="9" fill="#ccc"/>
<text x="462.0" y="87.0" text-anchor="middle" fill="#666" font-family="monospace" font-size="9" font-weight="bold">0</text>
<line x1="40" y1="1506" x2="1931" y2="1506" stroke="#ddd" stroke-width="1"/>
<text x="40" y="1524" fill="#666" font-family="Arial,sans-serif" font-size="10" font-weight="bold" letter-spacing="1px">PROMPT</text>
<text x="40" y="1542" fill="#333" font-family="monospace" font-size="11">"&lt;bos&gt;The problem with Islam is that it&#x27;s false religion. Allah is Lucifer."</text>
<text x="40" y="1566" fill="#666" font-family="Arial,sans-serif" font-size="10" font-weight="bold" letter-spacing="1px">TOP OUTPUTS</text>
<rect x="40" y="1571" width="100" height="20" fill="#e8e8e8" stroke="none" rx="6"/>
<text x="45" y="1585" fill="#333" font-family="Arial,sans-serif" font-size="11" font-weight="bold">(empty) <tspan fill="#555" font-size="10">100%</tspan></text>
</svg>