<svg width="750" height="1083" xmlns="http://www.w3.org/2000/svg">
<rect width="750" height="1083" fill="#f5f5f5"/>
<rect x="15" y="15" width="720" height="1053" fill="white" stroke="none" rx="12"/>
<text x="40" y="48" fill="#666" font-family="Arial,sans-serif" font-size="14" font-weight="bold" letter-spacing="1px">ATTRIBUTION CIRCUIT</text>
<text x="25" y="96.0" fill="#999" font-family="monospace" font-size="10" font-weight="bold" text-anchor="start">L36</text>
<text x="25" y="241.0" fill="#999" font-family="monospace" font-size="10" font-weight="bold" text-anchor="start">L18</text>
<text x="25" y="400.0" fill="#999" font-family="monospace" font-size="10" font-weight="bold" text-anchor="start">L12</text>
<text x="25" y="552.0" fill="#999" font-family="monospace" font-size="10" font-weight="bold" text-anchor="start">L6</text>
<text x="25" y="711.0" fill="#999" font-family="monospace" font-size="10" font-weight="bold" text-anchor="start">L1</text>
<text x="25" y="863.0" fill="#999" font-family="monospace" font-size="10" font-weight="bold" text-anchor="start">L0</text>
<defs><marker id="arrow" markerWidth="8" markerHeight="6" refX="8" refY="3" orient="auto"><polygon points="0,0 8,3 0,6" fill="#8B4513" fill-opacity="0.7"/></marker></defs>
<path d="M 260.0,830.0 C 278.0,790.0 362.0,790.0 380.0,750.0" fill="none" stroke="#8B4513" stroke-width="3" stroke-opacity="0.6" marker-end="url(#arrow)"/>
<path d="M 500.0,830.0 C 482.0,555.0 398.0,555.0 380.0,280.0" fill="none" stroke="#8B4513" stroke-width="3" stroke-opacity="0.6" marker-end="url(#arrow)"/>
<path d="M 260.0,830.0 C 278.0,707.0 362.0,707.0 380.0,584.0" fill="none" stroke="#8B4513" stroke-width="3" stroke-opacity="0.6" marker-end="url(#arrow)"/>
<path d="M 380.0,664.0 C 380.0,624.0 380.0,624.0 380.0,584.0" fill="none" stroke="#8B4513" stroke-width="3" stroke-opacity="0.6" marker-end="url(#arrow)"/>
<path d="M 380.0,512.0 C 380.0,472.0 380.0,472.0 380.0,432.0" fill="none" stroke="#8B4513" stroke-width="3" stroke-opacity="0.6" marker-end="url(#arrow)"/>
<path d="M 380.0,360.0 C 380.0,320.0 380.0,320.0 380.0,280.0" fill="none" stroke="#8B4513" stroke-width="3" stroke-opacity="0.6" marker-end="url(#arrow)"/>
<path d="M 380.0,194.0 C 380.0,154.0 380.0,154.0 380.0,114.0" fill="none" stroke="#8B4513" stroke-width="3" stroke-opacity="0.6" marker-end="url(#arrow)"/>
<rect x="160.0" y="830.0" width="200" height="58" fill="#e8e8e8" stroke="#999" stroke-width="2" rx="8"/>
<text x="260.0" y="848.0" text-anchor="middle" fill="#333" font-family="Arial,sans-serif" font-size="12" font-weight="bold">Emb: &#x27;her&#x27; (pos 12)</text>
<text x="260.0" y="866.0" text-anchor="middle" fill="#666" font-family="monospace" font-size="9">L0:F-1</text>
<circle cx="342.0" cy="843.0" r="9" fill="#ccc"/>
<text x="342.0" y="847.0" text-anchor="middle" fill="#666" font-family="monospace" font-size="9" font-weight="bold">1</text>
<rect x="400.0" y="830.0" width="200" height="58" fill="#e8e8e8" stroke="#999" stroke-width="2" rx="8"/>
<text x="500.0" y="848.0" text-anchor="middle" fill="#333" font-family="Arial,sans-serif" font-size="12" font-weight="bold">Emb: &#x27;She&#x27; (pos 18)</text>
<text x="500.0" y="866.0" text-anchor="middle" fill="#666" font-family="monospace" font-size="9">L0:F-1</text>
<circle cx="582.0" cy="843.0" r="9" fill="#ccc"/>
<text x="582.0" y="847.0" text-anchor="middle" fill="#666" font-family="monospace" font-size="9" font-weight="bold">1</text>
<rect x="247.04500000000002" y="664.0" width="265.90999999999997" height="86" fill="#e8e8e8" stroke="#999" stroke-width="2" rx="8"/>
<text x="380.0" y="682.0" text-anchor="middle" fill="#333" font-family="Arial,sans-serif" font-size="12" font-weight="bold">Female Pronoun Detection</text>
<text x="380.0" y="696.0" text-anchor="middle" fill="#333" font-family="Arial,sans-serif" font-size="12" font-weight="bold">(L0-L1)</text>
<text x="380.0" y="714.0" text-anchor="middle" fill="#666" font-family="monospace" font-size="9">L0:F7509 —  female pronouns and words lik</text>
<text x="380.0" y="728.0" text-anchor="middle" fill="#666" font-family="monospace" font-size="9">L1:F4232 —  the possessive pronoun &quot;her&quot;</text>
<text x="380.0" y="742.0" text-anchor="middle" fill="#666" font-family="monospace" font-size="9">L1:F8263 —  the possessive pronoun &quot;her&quot;</text>
<circle cx="494.9549999999999" cy="677.0" r="9" fill="#ccc"/>
<text x="494.9549999999999" y="681.0" text-anchor="middle" fill="#666" font-family="monospace" font-size="9" font-weight="bold">3</text>
<rect x="244.29000000000002" y="512.0" width="271.41999999999996" height="72" fill="#e8e8e8" stroke="#999" stroke-width="2" rx="8"/>
<text x="380.0" y="530.0" text-anchor="middle" fill="#333" font-family="Arial,sans-serif" font-size="12" font-weight="bold">Gender Processing (L4-L7)</text>
<text x="380.0" y="548.0" text-anchor="middle" fill="#666" font-family="monospace" font-size="9">L4:F7864 — xml or source code snippets, e</text>
<text x="380.0" y="562.0" text-anchor="middle" fill="#666" font-family="monospace" font-size="9">L6:F11646 —  references to women, potentia</text>
<circle cx="497.71000000000004" cy="525.0" r="9" fill="#ccc"/>
<text x="497.71000000000004" y="529.0" text-anchor="middle" fill="#666" font-family="monospace" font-size="9" font-weight="bold">2</text>
<rect x="241.53500000000003" y="360.0" width="276.92999999999995" height="72" fill="#e8e8e8" stroke="#999" stroke-width="2" rx="8"/>
<text x="380.0" y="378.0" text-anchor="middle" fill="#333" font-family="Arial,sans-serif" font-size="12" font-weight="bold">Female Reference</text>
<text x="380.0" y="392.0" text-anchor="middle" fill="#333" font-family="Arial,sans-serif" font-size="12" font-weight="bold">Aggregation (L10-L12)</text>
<text x="380.0" y="410.0" text-anchor="middle" fill="#666" font-family="monospace" font-size="9">L10:F14965 —  terms relating to women</text>
<text x="380.0" y="424.0" text-anchor="middle" fill="#666" font-family="monospace" font-size="9">L12:F12940 — references to female pronouns </text>
<circle cx="500.4649999999999" cy="373.0" r="9" fill="#ccc"/>
<text x="500.4649999999999" y="377.0" text-anchor="middle" fill="#666" font-family="monospace" font-size="9" font-weight="bold">2</text>
<rect x="241.53500000000003" y="194.0" width="276.92999999999995" height="86" fill="#e8e8e8" stroke="#999" stroke-width="2" rx="8"/>
<text x="380.0" y="212.0" text-anchor="middle" fill="#333" font-family="Arial,sans-serif" font-size="12" font-weight="bold">Women/Girls Detection</text>
<text x="380.0" y="226.0" text-anchor="middle" fill="#333" font-family="Arial,sans-serif" font-size="12" font-weight="bold">(L16-L18)</text>
<text x="380.0" y="244.0" text-anchor="middle" fill="#666" font-family="monospace" font-size="9">L16:F11609 —  words and phrases related to </text>
<text x="380.0" y="258.0" text-anchor="middle" fill="#666" font-family="monospace" font-size="9">L18:F14677 —  instances of women or girls b</text>
<text x="380.0" y="272.0" text-anchor="middle" fill="#666" font-family="monospace" font-size="9">L18:F14677 —  instances of women or girls b</text>
<circle cx="500.4649999999999" cy="207.0" r="9" fill="#ccc"/>
<text x="500.4649999999999" y="211.0" text-anchor="middle" fill="#666" font-family="monospace" font-size="9" font-weight="bold">3</text>
<rect x="280.0" y="70.0" width="200" height="44" fill="#e8e8e8" stroke="#999" stroke-width="2" rx="8"/>
<text x="380.0" y="88.0" text-anchor="middle" fill="#333" font-family="Arial,sans-serif" font-size="12" font-weight="bold">Output Logit (Probe</text>
<text x="380.0" y="102.0" text-anchor="middle" fill="#333" font-family="Arial,sans-serif" font-size="12" font-weight="bold">Direction)</text>
<circle cx="462.0" cy="83.0" r="9" fill="#ccc"/>
<text x="462.0" y="87.0" text-anchor="middle" fill="#666" font-family="monospace" font-size="9" font-weight="bold">0</text>
<line x1="40" y1="968" x2="710" y2="968" stroke="#ddd" stroke-width="1"/>
<text x="40" y="986" fill="#666" font-family="Arial,sans-serif" font-size="10" font-weight="bold" letter-spacing="1px">PROMPT</text>
<text x="40" y="1004" fill="#333" font-family="monospace" font-size="11">"&lt;bos&gt;One day last year, while eating lunch at school, her heart stopped without warning. She fell out of her chair and c"</text>
<text x="40" y="1028" fill="#666" font-family="Arial,sans-serif" font-size="10" font-weight="bold" letter-spacing="1px">TOP OUTPUTS</text>
<rect x="40" y="1033" width="100" height="20" fill="#e8e8e8" stroke="none" rx="6"/>
<text x="45" y="1047" fill="#333" font-family="Arial,sans-serif" font-size="11" font-weight="bold">(empty) <tspan fill="#555" font-size="10">100%</tspan></text>
</svg>