<svg width="799" height="999" xmlns="http://www.w3.org/2000/svg">
<rect width="799" height="999" fill="#f5f5f5"/>
<rect x="15" y="15" width="769" height="969" fill="white" stroke="none" rx="12"/>
<text x="40" y="48" fill="#666" font-family="Arial,sans-serif" font-size="14" font-weight="bold" letter-spacing="1px">ATTRIBUTION CIRCUIT</text>
<text x="25" y="96.0" fill="#999" font-family="monospace" font-size="10" font-weight="bold" text-anchor="start">L36</text>
<text x="25" y="227.0" fill="#999" font-family="monospace" font-size="10" font-weight="bold" text-anchor="start">L35</text>
<text x="25" y="365.0" fill="#999" font-family="monospace" font-size="10" font-weight="bold" text-anchor="start">L31</text>
<text x="25" y="503.0" fill="#999" font-family="monospace" font-size="10" font-weight="bold" text-anchor="start">L29</text>
<text x="25" y="641.0" fill="#999" font-family="monospace" font-size="10" font-weight="bold" text-anchor="start">L28</text>
<text x="25" y="779.0" fill="#999" font-family="monospace" font-size="10" font-weight="bold" text-anchor="start">L0</text>
<defs><marker id="arrow" markerWidth="8" markerHeight="6" refX="8" refY="3" orient="auto"><polygon points="0,0 8,3 0,6" fill="#8B4513" fill-opacity="0.7"/></marker></defs>
<path d="M 380.0,746.0 C 380.0,706.0 380.0,706.0 380.0,666.0" fill="none" stroke="#8B4513" stroke-width="3" stroke-opacity="0.6" marker-end="url(#arrow)"/>
<path d="M 380.0,608.0 C 355.817,568.0 242.96300000000002,568.0 218.78000000000003,528.0" fill="none" stroke="#8B4513" stroke-width="3" stroke-opacity="0.6" marker-end="url(#arrow)"/>
<path d="M 380.0,608.0 C 380.0,499.0 380.0,499.0 380.0,390.0" fill="none" stroke="#8B4513" stroke-width="3" stroke-opacity="0.6" marker-end="url(#arrow)"/>
<path d="M 538.4649999999999,470.0 C 514.69525,430.0 403.76975,430.0 380.0,390.0" fill="none" stroke="#8B4513" stroke-width="3" stroke-opacity="0.6" marker-end="url(#arrow)"/>
<path d="M 218.78000000000003,470.0 C 242.96300000000002,430.0 355.817,430.0 380.0,390.0" fill="none" stroke="#8B4513" stroke-width="3" stroke-opacity="0.6" marker-end="url(#arrow)"/>
<path d="M 380.0,332.0 C 356.23025,292.0 245.30475,292.0 221.53500000000003,252.0" fill="none" stroke="#8B4513" stroke-width="3" stroke-opacity="0.6" marker-end="url(#arrow)"/>
<path d="M 380.0,332.0 C 403.76975,292.0 514.69525,292.0 538.4649999999999,252.0" fill="none" stroke="#8B4513" stroke-width="3" stroke-opacity="0.6" marker-end="url(#arrow)"/>
<path d="M 221.53500000000003,194.0 C 245.30475,154.0 356.23025,154.0 380.0,114.0" fill="none" stroke="#8B4513" stroke-width="3" stroke-opacity="0.6" marker-end="url(#arrow)"/>
<rect x="238.78000000000003" y="608.0" width="282.43999999999994" height="58" fill="#e8e8e8" stroke="#999" stroke-width="2" rx="8"/>
<text x="380.0" y="626.0" text-anchor="middle" fill="#333" font-family="Arial,sans-serif" font-size="12" font-weight="bold">Formal English text /</text>
<text x="380.0" y="640.0" text-anchor="middle" fill="#333" font-family="Arial,sans-serif" font-size="12" font-weight="bold">encyclopedic definitions</text>
<text x="380.0" y="658.0" text-anchor="middle" fill="#666" font-family="monospace" font-size="9">L28:F162974 — Detects formal English text, p</text>
<circle cx="503.22" cy="621.0" r="9" fill="#ccc"/>
<text x="503.22" y="625.0" text-anchor="middle" fill="#666" font-family="monospace" font-size="9" font-weight="bold">1</text>
<rect x="80.31500000000005" y="470.0" width="276.92999999999995" height="58" fill="#e8e8e8" stroke="#999" stroke-width="2" rx="8"/>
<text x="218.78000000000003" y="488.0" text-anchor="middle" fill="#333" font-family="Arial,sans-serif" font-size="12" font-weight="bold">Natural materials / fuels</text>
<text x="218.78000000000003" y="502.0" text-anchor="middle" fill="#333" font-family="Arial,sans-serif" font-size="12" font-weight="bold">(coal, salt, charcoal)</text>
<text x="218.78000000000003" y="520.0" text-anchor="middle" fill="#666" font-family="monospace" font-size="9">L29:F50830 — The preposition &quot;of&quot; following</text>
<circle cx="339.245" cy="483.0" r="9" fill="#ccc"/>
<text x="339.245" y="487.0" text-anchor="middle" fill="#666" font-family="monospace" font-size="9" font-weight="bold">1</text>
<rect x="397.24499999999995" y="470.0" width="282.43999999999994" height="58" fill="#e8e8e8" stroke="#999" stroke-width="2" rx="8"/>
<text x="538.4649999999999" y="488.0" text-anchor="middle" fill="#333" font-family="Arial,sans-serif" font-size="12" font-weight="bold">Cooking / recipe contexts</text>
<text x="538.4649999999999" y="502.0" text-anchor="middle" fill="#333" font-family="Arial,sans-serif" font-size="12" font-weight="bold">(adding salt)</text>
<text x="538.4649999999999" y="520.0" text-anchor="middle" fill="#666" font-family="monospace" font-size="9">L29:F152655 — Cooking/recipe contexts where </text>
<circle cx="661.685" cy="483.0" r="9" fill="#ccc"/>
<text x="661.685" y="487.0" text-anchor="middle" fill="#666" font-family="monospace" font-size="9" font-weight="bold">1</text>
<rect x="238.78000000000003" y="332.0" width="282.43999999999994" height="58" fill="#e8e8e8" stroke="#999" stroke-width="2" rx="8"/>
<text x="380.0" y="350.0" text-anchor="middle" fill="#333" font-family="Arial,sans-serif" font-size="12" font-weight="bold">Salt / brackish water</text>
<text x="380.0" y="364.0" text-anchor="middle" fill="#333" font-family="Arial,sans-serif" font-size="12" font-weight="bold">detection</text>
<text x="380.0" y="382.0" text-anchor="middle" fill="#666" font-family="monospace" font-size="9">L31:F128800 — Detects the word &quot;brackish&quot; or</text>
<circle cx="503.22" cy="345.0" r="9" fill="#ccc"/>
<text x="503.22" y="349.0" text-anchor="middle" fill="#666" font-family="monospace" font-size="9" font-weight="bold">1</text>
<rect x="83.07000000000005" y="194.0" width="276.92999999999995" height="58" fill="#e8e8e8" stroke="#999" stroke-width="2" rx="8"/>
<text x="221.53500000000003" y="212.0" text-anchor="middle" fill="#333" font-family="Arial,sans-serif" font-size="12" font-weight="bold">Multi-line formatting /</text>
<text x="221.53500000000003" y="226.0" text-anchor="middle" fill="#333" font-family="Arial,sans-serif" font-size="12" font-weight="bold">dictionary definition</text>
<text x="221.53500000000003" y="240.0" text-anchor="middle" fill="#333" font-family="Arial,sans-serif" font-size="12" font-weight="bold">scaffolding</text>
<text x="221.53500000000003" y="258.0" text-anchor="middle" fill="#666" font-family="monospace" font-size="9">L35:F57619 — Detects multi-line formatting </text>
<circle cx="342.0" cy="207.0" r="9" fill="#ccc"/>
<text x="342.0" y="211.0" text-anchor="middle" fill="#666" font-family="monospace" font-size="9" font-weight="bold">1</text>
<rect x="399.99999999999994" y="194.0" width="276.92999999999995" height="58" fill="#e8e8e8" stroke="#999" stroke-width="2" rx="8"/>
<text x="538.4649999999999" y="212.0" text-anchor="middle" fill="#333" font-family="Arial,sans-serif" font-size="12" font-weight="bold">Dictionary / vocabulary</text>
<text x="538.4649999999999" y="226.0" text-anchor="middle" fill="#333" font-family="Arial,sans-serif" font-size="12" font-weight="bold">definition contexts</text>
<text x="538.4649999999999" y="244.0" text-anchor="middle" fill="#666" font-family="monospace" font-size="9">L35:F27418 — Dictionary/vocabulary definiti</text>
<circle cx="658.9299999999998" cy="207.0" r="9" fill="#ccc"/>
<text x="658.9299999999998" y="211.0" text-anchor="middle" fill="#666" font-family="monospace" font-size="9" font-weight="bold">1</text>
<rect x="280.0" y="746.0" width="200" height="58" fill="#e8e8e8" stroke="#999" stroke-width="2" rx="8"/>
<text x="380.0" y="764.0" text-anchor="middle" fill="#333" font-family="Arial,sans-serif" font-size="12" font-weight="bold">Emb: word (pos 8)</text>
<text x="380.0" y="782.0" text-anchor="middle" fill="#666" font-family="monospace" font-size="9">L0:F0</text>
<circle cx="462.0" cy="759.0" r="9" fill="#ccc"/>
<text x="462.0" y="763.0" text-anchor="middle" fill="#666" font-family="monospace" font-size="9" font-weight="bold">1</text>
<rect x="280.0" y="70.0" width="200" height="44" fill="#e8e8e8" stroke="#999" stroke-width="2" rx="8"/>
<text x="380.0" y="88.0" text-anchor="middle" fill="#333" font-family="Arial,sans-serif" font-size="12" font-weight="bold">Terminal output node</text>
<circle cx="462.0" cy="83.0" r="9" fill="#ccc"/>
<text x="462.0" y="87.0" text-anchor="middle" fill="#666" font-family="monospace" font-size="9" font-weight="bold">0</text>
<line x1="40" y1="884" x2="759" y2="884" stroke="#ddd" stroke-width="1"/>
<text x="40" y="902" fill="#666" font-family="Arial,sans-serif" font-size="10" font-weight="bold" letter-spacing="1px">PROMPT</text>
<text x="40" y="920" fill="#333" font-family="monospace" font-size="11">"Just say the word."</text>
<text x="40" y="944" fill="#666" font-family="Arial,sans-serif" font-size="10" font-weight="bold" letter-spacing="1px">TOP OUTPUTS</text>
</svg>