<svg width="2401" height="1583" xmlns="http://www.w3.org/2000/svg">
<rect width="2401" height="1583" fill="#f5f5f5"/>
<rect x="15" y="15" width="2371" height="1553" fill="white" stroke="none" rx="12"/>
<text x="40" y="48" fill="#666" font-family="Arial,sans-serif" font-size="14" font-weight="bold" letter-spacing="1px">ATTRIBUTION CIRCUIT</text>
<text x="25" y="96.0" fill="#999" font-family="monospace" font-size="10" font-weight="bold" text-anchor="start">L36</text>
<text x="25" y="255.0" fill="#999" font-family="monospace" font-size="10" font-weight="bold" text-anchor="start">L19</text>
<text x="25" y="428.0" fill="#999" font-family="monospace" font-size="10" font-weight="bold" text-anchor="start">L15</text>
<text x="25" y="594.0" fill="#999" font-family="monospace" font-size="10" font-weight="bold" text-anchor="start">L14</text>
<text x="25" y="781.0" fill="#999" font-family="monospace" font-size="10" font-weight="bold" text-anchor="start">L8</text>
<text x="25" y="975.0" fill="#999" font-family="monospace" font-size="10" font-weight="bold" text-anchor="start">L5</text>
<text x="25" y="1155.0" fill="#999" font-family="monospace" font-size="10" font-weight="bold" text-anchor="start">L2</text>
<text x="25" y="1335.0" fill="#999" font-family="monospace" font-size="10" font-weight="bold" text-anchor="start">L0</text>
<defs><marker id="arrow" markerWidth="8" markerHeight="6" refX="8" refY="3" orient="auto"><polygon points="0,0 8,3 0,6" fill="#8B4513" fill-opacity="0.7"/></marker></defs>
<path d="M 180.0,1353.0 C 436.53,1327.5 1633.67,1327.5 1890.2,1302.0" fill="none" stroke="#8B4513" stroke-width="3" stroke-opacity="0.6" marker-end="url(#arrow)"/>
<path d="M 420.0,1353.0 C 682.6320000000001,1313.5 1908.248,1313.5 2170.88,1274.0" fill="none" stroke="#8B4513" stroke-width="3" stroke-opacity="0.6" marker-end="url(#arrow)"/>
<path d="M 660.0,1353.0 C 886.6320000000001,1313.5 1944.248,1313.5 2170.88,1274.0" fill="none" stroke="#8B4513" stroke-width="3" stroke-opacity="0.6" marker-end="url(#arrow)"/>
<path d="M 900.0,1353.0 C 1090.632,1313.5 1980.248,1313.5 2170.88,1274.0" fill="none" stroke="#8B4513" stroke-width="3" stroke-opacity="0.6" marker-end="url(#arrow)"/>
<path d="M 1140.0,1353.0 C 1294.632,1313.5 2016.248,1313.5 2170.88,1274.0" fill="none" stroke="#8B4513" stroke-width="3" stroke-opacity="0.6" marker-end="url(#arrow)"/>
<path d="M 1140.0,1309.0 C 1002.6435,1161.5 361.64650000000006,1161.5 224.29000000000002,1014.0" fill="none" stroke="#8B4513" stroke-width="3" stroke-opacity="0.6" marker-end="url(#arrow)"/>
<path d="M 1380.0,1309.0 C 1230.0,1251.5 530.0,1251.5 380.0,1194.0" fill="none" stroke="#8B4513" stroke-width="3" stroke-opacity="0.6" marker-end="url(#arrow)"/>
<path d="M 1380.0,1309.0 C 1230.0,1071.5 530.0,1071.5 380.0,834.0" fill="none" stroke="#8B4513" stroke-width="3" stroke-opacity="0.6" marker-end="url(#arrow)"/>
<path d="M 1380.0,1309.0 C 1230.0,974.5 530.0,974.5 380.0,640.0" fill="none" stroke="#8B4513" stroke-width="3" stroke-opacity="0.6" marker-end="url(#arrow)"/>
<path d="M 1380.0,1309.0 C 1230.0,884.5 530.0,884.5 380.0,460.0" fill="none" stroke="#8B4513" stroke-width="3" stroke-opacity="0.6" marker-end="url(#arrow)"/>
<path d="M 1620.0,1309.0 C 1434.0,1071.5 566.0,1071.5 380.0,834.0" fill="none" stroke="#8B4513" stroke-width="3" stroke-opacity="0.6" marker-end="url(#arrow)"/>
<path d="M 1620.0,1309.0 C 1434.0,974.5 566.0,974.5 380.0,640.0" fill="none" stroke="#8B4513" stroke-width="3" stroke-opacity="0.6" marker-end="url(#arrow)"/>
<path d="M 1620.0,1309.0 C 1434.0,808.5 566.0,808.5 380.0,308.0" fill="none" stroke="#8B4513" stroke-width="3" stroke-opacity="0.6" marker-end="url(#arrow)"/>
<path d="M 380.0,1108.0 C 403.3565,1068.0 512.3535,1068.0 535.71,1028.0" fill="none" stroke="#8B4513" stroke-width="3" stroke-opacity="0.6" marker-end="url(#arrow)"/>
<path d="M 535.71,914.0 C 512.3535,874.0 403.3565,874.0 380.0,834.0" fill="none" stroke="#8B4513" stroke-width="3" stroke-opacity="0.6" marker-end="url(#arrow)"/>
<path d="M 380.0,720.0 C 380.0,680.0 380.0,680.0 380.0,640.0" fill="none" stroke="#8B4513" stroke-width="3" stroke-opacity="0.6" marker-end="url(#arrow)"/>
<path d="M 380.0,720.0 C 380.0,590.0 380.0,590.0 380.0,460.0" fill="none" stroke="#8B4513" stroke-width="3" stroke-opacity="0.6" marker-end="url(#arrow)"/>
<path d="M 380.0,540.0 C 380.0,500.0 380.0,500.0 380.0,460.0" fill="none" stroke="#8B4513" stroke-width="3" stroke-opacity="0.6" marker-end="url(#arrow)"/>
<path d="M 380.0,540.0 C 380.0,424.0 380.0,424.0 380.0,308.0" fill="none" stroke="#8B4513" stroke-width="3" stroke-opacity="0.6" marker-end="url(#arrow)"/>
<path d="M 535.71,914.0 C 512.3535,611.0 403.3565,611.0 380.0,308.0" fill="none" stroke="#8B4513" stroke-width="3" stroke-opacity="0.6" marker-end="url(#arrow)"/>
<path d="M 380.0,388.0 C 380.0,348.0 380.0,348.0 380.0,308.0" fill="none" stroke="#8B4513" stroke-width="3" stroke-opacity="0.6" marker-end="url(#arrow)"/>
<path d="M 1890.2,1302.0 C 1663.67,708.0 606.53,708.0 380.0,114.0" fill="none" stroke="#8B4513" stroke-width="3" stroke-opacity="0.6" marker-end="url(#arrow)"/>
<path d="M 2170.88,1274.0 C 1902.248,694.0 648.6320000000001,694.0 380.0,114.0" fill="none" stroke="#8B4513" stroke-width="3" stroke-opacity="0.6" marker-end="url(#arrow)"/>
<path d="M 224.29000000000002,928.0 C 247.6465,521.0 356.6435,521.0 380.0,114.0" fill="none" stroke="#8B4513" stroke-width="3" stroke-opacity="0.6" marker-end="url(#arrow)"/>
<path d="M 380.0,540.0 C 380.0,327.0 380.0,327.0 380.0,114.0" fill="none" stroke="#8B4513" stroke-width="3" stroke-opacity="0.6" marker-end="url(#arrow)"/>
<path d="M 380.0,388.0 C 380.0,251.0 380.0,251.0 380.0,114.0" fill="none" stroke="#8B4513" stroke-width="3" stroke-opacity="0.6" marker-end="url(#arrow)"/>
<path d="M 380.0,194.0 C 380.0,154.0 380.0,154.0 380.0,114.0" fill="none" stroke="#8B4513" stroke-width="3" stroke-opacity="0.6" marker-end="url(#arrow)"/>
<rect x="80.0" y="1309.0" width="200" height="44" fill="#e8e8e8" stroke="#999" stroke-width="2" rx="8"/>
<text x="180.0" y="1327.0" text-anchor="middle" fill="#333" font-family="Arial,sans-serif" font-size="12" font-weight="bold">Emb: &#x27;His&#x27; (pos 1) —</text>
<text x="180.0" y="1341.0" text-anchor="middle" fill="#333" font-family="Arial,sans-serif" font-size="12" font-weight="bold">masculine pronoun</text>
<circle cx="262.0" cy="1322.0" r="9" fill="#ccc"/>
<text x="262.0" y="1326.0" text-anchor="middle" fill="#666" font-family="monospace" font-size="9" font-weight="bold">0</text>
<rect x="320.0" y="1309.0" width="200" height="44" fill="#e8e8e8" stroke="#999" stroke-width="2" rx="8"/>
<text x="420.0" y="1327.0" text-anchor="middle" fill="#333" font-family="Arial,sans-serif" font-size="12" font-weight="bold">Emb: &#x27;desire&#x27; (pos 2)</text>
<circle cx="502.0" cy="1322.0" r="9" fill="#ccc"/>
<text x="502.0" y="1326.0" text-anchor="middle" fill="#666" font-family="monospace" font-size="9" font-weight="bold">0</text>
<rect x="560.0" y="1309.0" width="200" height="44" fill="#e8e8e8" stroke="#999" stroke-width="2" rx="8"/>
<text x="660.0" y="1327.0" text-anchor="middle" fill="#333" font-family="Arial,sans-serif" font-size="12" font-weight="bold">Emb: &#x27;to&#x27; (pos 3)</text>
<circle cx="742.0" cy="1322.0" r="9" fill="#ccc"/>
<text x="742.0" y="1326.0" text-anchor="middle" fill="#666" font-family="monospace" font-size="9" font-weight="bold">0</text>
<rect x="800.0" y="1309.0" width="200" height="44" fill="#e8e8e8" stroke="#999" stroke-width="2" rx="8"/>
<text x="900.0" y="1327.0" text-anchor="middle" fill="#333" font-family="Arial,sans-serif" font-size="12" font-weight="bold">Emb: &#x27;see&#x27; (pos 4)</text>
<circle cx="982.0" cy="1322.0" r="9" fill="#ccc"/>
<text x="982.0" y="1326.0" text-anchor="middle" fill="#666" font-family="monospace" font-size="9" font-weight="bold">0</text>
<rect x="1040.0" y="1309.0" width="200" height="44" fill="#e8e8e8" stroke="#999" stroke-width="2" rx="8"/>
<text x="1140.0" y="1327.0" text-anchor="middle" fill="#333" font-family="Arial,sans-serif" font-size="12" font-weight="bold">Emb: &#x27;world&#x27; (pos 6)</text>
<circle cx="1222.0" cy="1322.0" r="9" fill="#ccc"/>
<text x="1222.0" y="1326.0" text-anchor="middle" fill="#666" font-family="monospace" font-size="9" font-weight="bold">0</text>
<rect x="1280.0" y="1309.0" width="200" height="44" fill="#e8e8e8" stroke="#999" stroke-width="2" rx="8"/>
<text x="1380.0" y="1327.0" text-anchor="middle" fill="#333" font-family="Arial,sans-serif" font-size="12" font-weight="bold">Emb: &#x27;report&#x27; (pos 21)</text>
<circle cx="1462.0" cy="1322.0" r="9" fill="#ccc"/>
<text x="1462.0" y="1326.0" text-anchor="middle" fill="#666" font-family="monospace" font-size="9" font-weight="bold">0</text>
<rect x="1520.0" y="1309.0" width="200" height="44" fill="#e8e8e8" stroke="#999" stroke-width="2" rx="8"/>
<text x="1620.0" y="1327.0" text-anchor="middle" fill="#333" font-family="Arial,sans-serif" font-size="12" font-weight="bold">Emb: &#x27;news&#x27; (pos 27)</text>
<circle cx="1702.0" cy="1322.0" r="9" fill="#ccc"/>
<text x="1702.0" y="1326.0" text-anchor="middle" fill="#666" font-family="monospace" font-size="9" font-weight="bold">0</text>
<rect x="1760.0" y="1302.0" width="260.4" height="58" fill="#e8e8e8" stroke="#999" stroke-width="2" rx="8"/>
<text x="1890.2" y="1320.0" text-anchor="middle" fill="#333" font-family="Arial,sans-serif" font-size="12" font-weight="bold">Gender marker: &#x27;His&#x27;</text>
<text x="1890.2" y="1334.0" text-anchor="middle" fill="#333" font-family="Arial,sans-serif" font-size="12" font-weight="bold">detector (POSITIVE probe</text>
<text x="1890.2" y="1348.0" text-anchor="middle" fill="#333" font-family="Arial,sans-serif" font-size="12" font-weight="bold">effect)</text>
<text x="1890.2" y="1366.0" text-anchor="middle" fill="#666" font-family="monospace" font-size="9">L0:F8964 —  the possessive pronoun &quot;His&quot;</text>
<circle cx="2002.4" cy="1315.0" r="9" fill="#ccc"/>
<text x="2002.4" y="1319.0" text-anchor="middle" fill="#666" font-family="monospace" font-size="9" font-weight="bold">1</text>
<rect x="2060.4" y="1274.0" width="220.95999999999998" height="114" fill="#e8e8e8" stroke="#999" stroke-width="2" rx="8"/>
<text x="2170.88" y="1292.0" text-anchor="middle" fill="#333" font-family="Arial,sans-serif" font-size="12" font-weight="bold">Spurious lexical features:</text>
<text x="2170.88" y="1306.0" text-anchor="middle" fill="#333" font-family="Arial,sans-serif" font-size="12" font-weight="bold">&#x27;desire&#x27;→&#x27;dream&#x27;, &#x27;to&#x27;,</text>
<text x="2170.88" y="1320.0" text-anchor="middle" fill="#333" font-family="Arial,sans-serif" font-size="12" font-weight="bold">&#x27;see&#x27; (POSITIVE probe</text>
<text x="2170.88" y="1334.0" text-anchor="middle" fill="#333" font-family="Arial,sans-serif" font-size="12" font-weight="bold">effect)</text>
<text x="2170.88" y="1352.0" text-anchor="middle" fill="#666" font-family="monospace" font-size="9">L0:F2011 —  the word &quot;dream&quot;</text>
<text x="2170.88" y="1366.0" text-anchor="middle" fill="#666" font-family="monospace" font-size="9">L0:F13948 —  the color &quot;pink&quot;</text>
<text x="2170.88" y="1380.0" text-anchor="middle" fill="#666" font-family="monospace" font-size="9">L0:F8444 — the word &quot;to&quot;</text>
<text x="2170.88" y="1394.0" text-anchor="middle" fill="#666" font-family="monospace" font-size="9">L0:F14287 — the word &quot;see&quot;</text>
<text x="2170.88" y="1408.0" text-anchor="middle" fill="#666" font-family="monospace" font-size="9">... +1 more</text>
<circle cx="2263.36" cy="1287.0" r="9" fill="#ccc"/>
<text x="2263.36" y="1291.0" text-anchor="middle" fill="#666" font-family="monospace" font-size="9" font-weight="bold">5</text>
<rect x="88.58000000000004" y="928.0" width="271.41999999999996" height="86" fill="#e8e8e8" stroke="#999" stroke-width="2" rx="8"/>
<text x="224.29000000000002" y="946.0" text-anchor="middle" fill="#333" font-family="Arial,sans-serif" font-size="12" font-weight="bold">World/travel context</text>
<text x="224.29000000000002" y="960.0" text-anchor="middle" fill="#333" font-family="Arial,sans-serif" font-size="12" font-weight="bold">(mixed probe effect)</text>
<text x="224.29000000000002" y="978.0" text-anchor="middle" fill="#666" font-family="monospace" font-size="9">L4:F11898 —  mentions of &quot;World&quot; followed </text>
<text x="224.29000000000002" y="992.0" text-anchor="middle" fill="#666" font-family="monospace" font-size="9">L5:F771 —  the word &quot;see&quot; and words ofte</text>
<text x="224.29000000000002" y="1006.0" text-anchor="middle" fill="#666" font-family="monospace" font-size="9">L7:F3085 —  words and phrases related to </text>
<circle cx="342.0" cy="941.0" r="9" fill="#ccc"/>
<text x="342.0" y="945.0" text-anchor="middle" fill="#666" font-family="monospace" font-size="9" font-weight="bold">3</text>
<rect x="244.29000000000002" y="1108.0" width="271.41999999999996" height="86" fill="#e8e8e8" stroke="#999" stroke-width="2" rx="8"/>
<text x="380.0" y="1126.0" text-anchor="middle" fill="#333" font-family="Arial,sans-serif" font-size="12" font-weight="bold">Early &#x27;report&#x27; token</text>
<text x="380.0" y="1140.0" text-anchor="middle" fill="#333" font-family="Arial,sans-serif" font-size="12" font-weight="bold">detectors (L1-L3)</text>
<text x="380.0" y="1158.0" text-anchor="middle" fill="#666" font-family="monospace" font-size="9">L1:F14511 —  the word &quot;report&quot;</text>
<text x="380.0" y="1172.0" text-anchor="middle" fill="#666" font-family="monospace" font-size="9">L2:F11175 — the verb &quot;report&quot; and its vari</text>
<text x="380.0" y="1186.0" text-anchor="middle" fill="#666" font-family="monospace" font-size="9">L3:F10846 — the word &quot;report&quot;</text>
<circle cx="497.71000000000004" cy="1121.0" r="9" fill="#ccc"/>
<text x="497.71000000000004" y="1125.0" text-anchor="middle" fill="#666" font-family="monospace" font-size="9" font-weight="bold">3</text>
<rect x="400.00000000000006" y="914.0" width="271.41999999999996" height="114" fill="#e8e8e8" stroke="#999" stroke-width="2" rx="8"/>
<text x="535.71" y="932.0" text-anchor="middle" fill="#333" font-family="Arial,sans-serif" font-size="12" font-weight="bold">Mid-layer</text>
<text x="535.71" y="946.0" text-anchor="middle" fill="#333" font-family="Arial,sans-serif" font-size="12" font-weight="bold">reporting/journalism</text>
<text x="535.71" y="960.0" text-anchor="middle" fill="#333" font-family="Arial,sans-serif" font-size="12" font-weight="bold">features (L4-L6)</text>
<text x="535.71" y="978.0" text-anchor="middle" fill="#666" font-family="monospace" font-size="9">L4:F661 —  words and phrases used when r</text>
<text x="535.71" y="992.0" text-anchor="middle" fill="#666" font-family="monospace" font-size="9">L4:F13253 —  things related to journalism </text>
<text x="535.71" y="1006.0" text-anchor="middle" fill="#666" font-family="monospace" font-size="9">L5:F12586 —  mentions of reports</text>
<text x="535.71" y="1020.0" text-anchor="middle" fill="#666" font-family="monospace" font-size="9">L6:F8529 —  news or press reports in the </text>
<text x="535.71" y="1034.0" text-anchor="middle" fill="#666" font-family="monospace" font-size="9">... +1 more</text>
<circle cx="653.4200000000001" cy="927.0" r="9" fill="#ccc"/>
<text x="653.4200000000001" y="931.0" text-anchor="middle" fill="#666" font-family="monospace" font-size="9" font-weight="bold">5</text>
<rect x="244.29000000000002" y="720.0" width="271.41999999999996" height="114" fill="#e8e8e8" stroke="#999" stroke-width="2" rx="8"/>
<text x="380.0" y="738.0" text-anchor="middle" fill="#333" font-family="Arial,sans-serif" font-size="12" font-weight="bold">Journalism detectors</text>
<text x="380.0" y="752.0" text-anchor="middle" fill="#333" font-family="Arial,sans-serif" font-size="12" font-weight="bold">L7-L8: reporters,</text>
<text x="380.0" y="766.0" text-anchor="middle" fill="#333" font-family="Arial,sans-serif" font-size="12" font-weight="bold">broadcast journalism</text>
<text x="380.0" y="784.0" text-anchor="middle" fill="#666" font-family="monospace" font-size="9">L7:F13646 —  news reporting and journalism</text>
<text x="380.0" y="798.0" text-anchor="middle" fill="#666" font-family="monospace" font-size="9">L7:F13646 —  news reporting and journalism</text>
<text x="380.0" y="812.0" text-anchor="middle" fill="#666" font-family="monospace" font-size="9">L7:F9092 —  words and phrases associated </text>
<text x="380.0" y="826.0" text-anchor="middle" fill="#666" font-family="monospace" font-size="9">L7:F9092 —  words and phrases associated </text>
<text x="380.0" y="840.0" text-anchor="middle" fill="#666" font-family="monospace" font-size="9">... +2 more</text>
<circle cx="497.71000000000004" cy="733.0" r="9" fill="#ccc"/>
<text x="497.71000000000004" y="737.0" text-anchor="middle" fill="#666" font-family="monospace" font-size="9" font-weight="bold">6</text>
<rect x="244.29000000000002" y="540.0" width="271.41999999999996" height="100" fill="#e8e8e8" stroke="#999" stroke-width="2" rx="8"/>
<text x="380.0" y="558.0" text-anchor="middle" fill="#333" font-family="Arial,sans-serif" font-size="12" font-weight="bold">L14: &#x27;Journalism and</text>
<text x="380.0" y="572.0" text-anchor="middle" fill="#333" font-family="Arial,sans-serif" font-size="12" font-weight="bold">newspapers&#x27; — strongest</text>
<text x="380.0" y="586.0" text-anchor="middle" fill="#333" font-family="Arial,sans-serif" font-size="12" font-weight="bold">negative driver</text>
<text x="380.0" y="604.0" text-anchor="middle" fill="#666" font-family="monospace" font-size="9">L14:F4420 — words and phrases related to j</text>
<text x="380.0" y="618.0" text-anchor="middle" fill="#666" font-family="monospace" font-size="9">L14:F4420 — words and phrases related to j</text>
<text x="380.0" y="632.0" text-anchor="middle" fill="#666" font-family="monospace" font-size="9">L14:F4420 — words and phrases related to j</text>
<text x="380.0" y="646.0" text-anchor="middle" fill="#666" font-family="monospace" font-size="9">L14:F8761 —  words related to current even</text>
<circle cx="497.71000000000004" cy="553.0" r="9" fill="#ccc"/>
<text x="497.71000000000004" y="557.0" text-anchor="middle" fill="#666" font-family="monospace" font-size="9" font-weight="bold">4</text>
<rect x="241.53500000000003" y="388.0" width="276.92999999999995" height="72" fill="#e8e8e8" stroke="#999" stroke-width="2" rx="8"/>
<text x="380.0" y="406.0" text-anchor="middle" fill="#333" font-family="Arial,sans-serif" font-size="12" font-weight="bold">L15-L16: Reporting in</text>
<text x="380.0" y="420.0" text-anchor="middle" fill="#333" font-family="Arial,sans-serif" font-size="12" font-weight="bold">official capacity /</text>
<text x="380.0" y="434.0" text-anchor="middle" fill="#333" font-family="Arial,sans-serif" font-size="12" font-weight="bold">organizations</text>
<text x="380.0" y="452.0" text-anchor="middle" fill="#666" font-family="monospace" font-size="9">L15:F2579 — instances of people providing </text>
<text x="380.0" y="466.0" text-anchor="middle" fill="#666" font-family="monospace" font-size="9">L16:F15046 —  names, organizations, and rep</text>
<circle cx="500.4649999999999" cy="401.0" r="9" fill="#ccc"/>
<text x="500.4649999999999" y="405.0" text-anchor="middle" fill="#666" font-family="monospace" font-size="9" font-weight="bold">2</text>
<rect x="244.29000000000002" y="194.0" width="271.41999999999996" height="114" fill="#e8e8e8" stroke="#999" stroke-width="2" rx="8"/>
<text x="380.0" y="212.0" text-anchor="middle" fill="#333" font-family="Arial,sans-serif" font-size="12" font-weight="bold">L17-L20: Late journalism</text>
<text x="380.0" y="226.0" text-anchor="middle" fill="#333" font-family="Arial,sans-serif" font-size="12" font-weight="bold">aggregators — news</text>
<text x="380.0" y="240.0" text-anchor="middle" fill="#333" font-family="Arial,sans-serif" font-size="12" font-weight="bold">outlets/broadcasting</text>
<text x="380.0" y="254.0" text-anchor="middle" fill="#333" font-family="Arial,sans-serif" font-size="12" font-weight="bold">(NEGATIVE probe effect)</text>
<text x="380.0" y="272.0" text-anchor="middle" fill="#666" font-family="monospace" font-size="9">L17:F4629 —  words having to do with curre</text>
<text x="380.0" y="286.0" text-anchor="middle" fill="#666" font-family="monospace" font-size="9">L19:F2486 —  journalistic sources and news</text>
<text x="380.0" y="300.0" text-anchor="middle" fill="#666" font-family="monospace" font-size="9">L19:F2486 —  journalistic sources and news</text>
<text x="380.0" y="314.0" text-anchor="middle" fill="#666" font-family="monospace" font-size="9">L19:F2486 —  journalistic sources and news</text>
<text x="380.0" y="328.0" text-anchor="middle" fill="#666" font-family="monospace" font-size="9">... +4 more</text>
<circle cx="497.71000000000004" cy="207.0" r="9" fill="#ccc"/>
<text x="497.71000000000004" y="211.0" text-anchor="middle" fill="#666" font-family="monospace" font-size="9" font-weight="bold">8</text>
<rect x="269.52" y="70.0" width="220.95999999999998" height="44" fill="#e8e8e8" stroke="#999" stroke-width="2" rx="8"/>
<text x="380.0" y="88.0" text-anchor="middle" fill="#333" font-family="Arial,sans-serif" font-size="12" font-weight="bold">Probe classification score</text>
<circle cx="472.47999999999996" cy="83.0" r="9" fill="#ccc"/>
<text x="472.47999999999996" y="87.0" text-anchor="middle" fill="#666" font-family="monospace" font-size="9" font-weight="bold">0</text>
<line x1="40" y1="1468" x2="2361" y2="1468" stroke="#ddd" stroke-width="1"/>
<text x="40" y="1486" fill="#666" font-family="Arial,sans-serif" font-size="10" font-weight="bold" letter-spacing="1px">PROMPT</text>
<text x="40" y="1504" fill="#333" font-family="monospace" font-size="11">"&lt;bos&gt;His desire to see the world has taken him to countries around the world and given him the opportunity to report for"</text>
<text x="40" y="1528" fill="#666" font-family="Arial,sans-serif" font-size="10" font-weight="bold" letter-spacing="1px">TOP OUTPUTS</text>
<rect x="40" y="1533" width="100" height="20" fill="#e8e8e8" stroke="none" rx="6"/>
<text x="45" y="1547" fill="#333" font-family="Arial,sans-serif" font-size="11" font-weight="bold">(empty) <tspan fill="#555" font-size="10">100%</tspan></text>
</svg>