<svg width="1431" height="1193" xmlns="http://www.w3.org/2000/svg">
<rect width="1431" height="1193" fill="#f5f5f5"/>
<rect x="15" y="15" width="1401" height="1163" fill="white" stroke="none" rx="12"/>
<text x="40" y="48" fill="#666" font-family="Arial,sans-serif" font-size="14" font-weight="bold" letter-spacing="1px">ATTRIBUTION CIRCUIT</text>
<text x="25" y="96.0" fill="#999" font-family="monospace" font-size="10" font-weight="bold" text-anchor="start">L36</text>
<text x="25" y="227.0" fill="#999" font-family="monospace" font-size="10" font-weight="bold" text-anchor="start">L8</text>
<text x="25" y="372.0" fill="#999" font-family="monospace" font-size="10" font-weight="bold" text-anchor="start">L6</text>
<text x="25" y="524.0" fill="#999" font-family="monospace" font-size="10" font-weight="bold" text-anchor="start">L4</text>
<text x="25" y="676.0" fill="#999" font-family="monospace" font-size="10" font-weight="bold" text-anchor="start">L3</text>
<text x="25" y="828.0" fill="#999" font-family="monospace" font-size="10" font-weight="bold" text-anchor="start">L2</text>
<text x="25" y="973.0" fill="#999" font-family="monospace" font-size="10" font-weight="bold" text-anchor="start">L0</text>
<defs><marker id="arrow" markerWidth="8" markerHeight="6" refX="8" refY="3" orient="auto"><polygon points="0,0 8,3 0,6" fill="#8B4513" fill-opacity="0.7"/></marker></defs>
<path d="M 180.0,940.0 C 187.47,744.5 222.33,744.5 229.8,549.0" fill="none" stroke="#8B4513" stroke-width="3" stroke-opacity="0.6" marker-end="url(#arrow)"/>
<path d="M 455.71,940.0 C 420.99699999999996,900.0 259.00300000000004,900.0 224.29000000000002,860.0" fill="none" stroke="#8B4513" stroke-width="3" stroke-opacity="0.6" marker-end="url(#arrow)"/>
<path d="M 455.71,940.0 C 467.71,900.0 523.71,900.0 535.71,860.0" fill="none" stroke="#8B4513" stroke-width="3" stroke-opacity="0.6" marker-end="url(#arrow)"/>
<path d="M 455.71,940.0 C 466.42299999999994,824.0 516.4169999999999,824.0 527.1299999999999,708.0" fill="none" stroke="#8B4513" stroke-width="3" stroke-opacity="0.6" marker-end="url(#arrow)"/>
<path d="M 455.71,940.0 C 419.71,824.0 251.70999999999998,824.0 215.70999999999998,708.0" fill="none" stroke="#8B4513" stroke-width="3" stroke-opacity="0.6" marker-end="url(#arrow)"/>
<path d="M 455.71,940.0 C 467.29675,748.0 521.36825,748.0 532.9549999999999,556.0" fill="none" stroke="#8B4513" stroke-width="3" stroke-opacity="0.6" marker-end="url(#arrow)"/>
<path d="M 971.42,940.0 C 951.07625,820.5 856.1387499999998,820.5 835.7949999999998,701.0" fill="none" stroke="#8B4513" stroke-width="3" stroke-opacity="0.6" marker-end="url(#arrow)"/>
<path d="M 971.42,940.0 C 906.0635,900.0 601.0665,900.0 535.71,860.0" fill="none" stroke="#8B4513" stroke-width="3" stroke-opacity="0.6" marker-end="url(#arrow)"/>
<path d="M 971.42,940.0 C 905.6502499999999,748.0 598.72475,748.0 532.9549999999999,556.0" fill="none" stroke="#8B4513" stroke-width="3" stroke-opacity="0.6" marker-end="url(#arrow)"/>
<path d="M 731.42,940.0 C 701.6502499999999,748.0 562.72475,748.0 532.9549999999999,556.0" fill="none" stroke="#8B4513" stroke-width="3" stroke-opacity="0.6" marker-end="url(#arrow)"/>
<path d="M 1211.42,940.0 C 1108.7765,824.0 629.7734999999999,824.0 527.1299999999999,708.0" fill="none" stroke="#8B4513" stroke-width="3" stroke-opacity="0.6" marker-end="url(#arrow)"/>
<path d="M 224.29000000000002,788.0 C 269.716,748.0 481.7039999999999,748.0 527.1299999999999,708.0" fill="none" stroke="#8B4513" stroke-width="3" stroke-opacity="0.6" marker-end="url(#arrow)"/>
<path d="M 224.29000000000002,788.0 C 223.00300000000001,748.0 216.99699999999999,748.0 215.70999999999998,708.0" fill="none" stroke="#8B4513" stroke-width="3" stroke-opacity="0.6" marker-end="url(#arrow)"/>
<path d="M 535.71,788.0 C 487.71000000000004,748.0 263.71,748.0 215.70999999999998,708.0" fill="none" stroke="#8B4513" stroke-width="3" stroke-opacity="0.6" marker-end="url(#arrow)"/>
<path d="M 535.71,788.0 C 535.29675,672.0 533.36825,672.0 532.9549999999999,556.0" fill="none" stroke="#8B4513" stroke-width="3" stroke-opacity="0.6" marker-end="url(#arrow)"/>
<path d="M 215.70999999999998,636.0 C 263.29675,596.0 485.36824999999993,596.0 532.9549999999999,556.0" fill="none" stroke="#8B4513" stroke-width="3" stroke-opacity="0.6" marker-end="url(#arrow)"/>
<path d="M 527.1299999999999,636.0 C 528.0037499999999,596.0 532.08125,596.0 532.9549999999999,556.0" fill="none" stroke="#8B4513" stroke-width="3" stroke-opacity="0.6" marker-end="url(#arrow)"/>
<path d="M 835.7949999999998,643.0 C 790.3689999999999,599.5 578.3809999999999,599.5 532.9549999999999,556.0" fill="none" stroke="#8B4513" stroke-width="3" stroke-opacity="0.6" marker-end="url(#arrow)"/>
<path d="M 532.9549999999999,484.0 C 510.01174999999995,444.0 402.94325,444.0 380.0,404.0" fill="none" stroke="#8B4513" stroke-width="3" stroke-opacity="0.6" marker-end="url(#arrow)"/>
<path d="M 380.0,332.0 C 380.0,292.0 380.0,292.0 380.0,252.0" fill="none" stroke="#8B4513" stroke-width="3" stroke-opacity="0.6" marker-end="url(#arrow)"/>
<path d="M 532.9549999999999,484.0 C 510.01174999999995,299.0 402.94325,299.0 380.0,114.0" fill="none" stroke="#8B4513" stroke-width="3" stroke-opacity="0.6" marker-end="url(#arrow)"/>
<path d="M 380.0,332.0 C 380.0,223.0 380.0,223.0 380.0,114.0" fill="none" stroke="#8B4513" stroke-width="3" stroke-opacity="0.6" marker-end="url(#arrow)"/>
<path d="M 229.8,491.0 C 252.33,302.5 357.47,302.5 380.0,114.0" fill="none" stroke="#8B4513" stroke-width="3" stroke-opacity="0.6" marker-end="url(#arrow)"/>
<path d="M 380.0,194.0 C 380.0,154.0 380.0,154.0 380.0,114.0" fill="none" stroke="#8B4513" stroke-width="3" stroke-opacity="0.6" marker-end="url(#arrow)"/>
<path d="M 527.1299999999999,636.0 C 505.0604999999999,520.0 402.0695,520.0 380.0,404.0" fill="none" stroke="#8B4513" stroke-width="3" stroke-opacity="0.6" marker-end="url(#arrow)"/>
<rect x="80.0" y="940.0" width="200" height="58" fill="#e8e8e8" stroke="#999" stroke-width="2" rx="8"/>
<text x="180.0" y="958.0" text-anchor="middle" fill="#333" font-family="Arial,sans-serif" font-size="12" font-weight="bold">Emb: &#x27;Another&#x27; (pos 1)</text>
<text x="180.0" y="976.0" text-anchor="middle" fill="#666" font-family="monospace" font-size="9">L0:F4090 — the word &quot;another&quot;</text>
<circle cx="262.0" cy="953.0" r="9" fill="#ccc"/>
<text x="262.0" y="957.0" text-anchor="middle" fill="#666" font-family="monospace" font-size="9" font-weight="bold">1</text>
<rect x="320.0" y="940.0" width="271.41999999999996" height="58" fill="#e8e8e8" stroke="#999" stroke-width="2" rx="8"/>
<text x="455.71" y="958.0" text-anchor="middle" fill="#333" font-family="Arial,sans-serif" font-size="12" font-weight="bold">Emb: &#x27;white&#x27; (pos 2)</text>
<text x="455.71" y="976.0" text-anchor="middle" fill="#666" font-family="monospace" font-size="9">L0:F16013 —  mentions of the color blue, a</text>
<circle cx="573.42" cy="953.0" r="9" fill="#ccc"/>
<text x="573.42" y="957.0" text-anchor="middle" fill="#666" font-family="monospace" font-size="9" font-weight="bold">1</text>
<rect x="631.42" y="940.0" width="200" height="58" fill="#e8e8e8" stroke="#999" stroke-width="2" rx="8"/>
<text x="731.42" y="958.0" text-anchor="middle" fill="#333" font-family="Arial,sans-serif" font-size="12" font-weight="bold">Emb: &#x27;dude&#x27; (pos 3)</text>
<text x="731.42" y="976.0" text-anchor="middle" fill="#666" font-family="monospace" font-size="9">L0:F13646</text>
<circle cx="813.42" cy="953.0" r="9" fill="#ccc"/>
<text x="813.42" y="957.0" text-anchor="middle" fill="#666" font-family="monospace" font-size="9" font-weight="bold">1</text>
<rect x="871.42" y="940.0" width="200" height="58" fill="#e8e8e8" stroke="#999" stroke-width="2" rx="8"/>
<text x="971.42" y="958.0" text-anchor="middle" fill="#333" font-family="Arial,sans-serif" font-size="12" font-weight="bold">Emb: &#x27;black&#x27; (pos 6)</text>
<text x="971.42" y="976.0" text-anchor="middle" fill="#666" font-family="monospace" font-size="9">L0:F7993</text>
<circle cx="1053.42" cy="953.0" r="9" fill="#ccc"/>
<text x="1053.42" y="957.0" text-anchor="middle" fill="#666" font-family="monospace" font-size="9" font-weight="bold">1</text>
<rect x="1111.42" y="940.0" width="200" height="58" fill="#e8e8e8" stroke="#999" stroke-width="2" rx="8"/>
<text x="1211.42" y="958.0" text-anchor="middle" fill="#333" font-family="Arial,sans-serif" font-size="12" font-weight="bold">Emb: &#x27;man&#x27; (pos 7)</text>
<text x="1211.42" y="976.0" text-anchor="middle" fill="#666" font-family="monospace" font-size="9">L0:F7379 —  the word &quot;man&quot;</text>
<circle cx="1293.42" cy="953.0" r="9" fill="#ccc"/>
<text x="1293.42" y="957.0" text-anchor="middle" fill="#666" font-family="monospace" font-size="9" font-weight="bold">1</text>
<rect x="88.58000000000004" y="788.0" width="271.41999999999996" height="72" fill="#e8e8e8" stroke="#999" stroke-width="2" rx="8"/>
<text x="224.29000000000002" y="806.0" text-anchor="middle" fill="#333" font-family="Arial,sans-serif" font-size="12" font-weight="bold">Color Detection (L2)</text>
<text x="224.29000000000002" y="824.0" text-anchor="middle" fill="#666" font-family="monospace" font-size="9">L2:F1708 —  mentions of colors</text>
<text x="224.29000000000002" y="838.0" text-anchor="middle" fill="#666" font-family="monospace" font-size="9">L2:F11363 —  colors and words like Diamond</text>
<circle cx="342.0" cy="801.0" r="9" fill="#ccc"/>
<text x="342.0" y="805.0" text-anchor="middle" fill="#666" font-family="monospace" font-size="9" font-weight="bold">2</text>
<rect x="400.00000000000006" y="788.0" width="271.41999999999996" height="72" fill="#e8e8e8" stroke="#999" stroke-width="2" rx="8"/>
<text x="535.71" y="806.0" text-anchor="middle" fill="#333" font-family="Arial,sans-serif" font-size="12" font-weight="bold">Race/Ethnicity Basic (L2)</text>
<text x="535.71" y="824.0" text-anchor="middle" fill="#666" font-family="monospace" font-size="9">L2:F13158 —  words about race and ethnicit</text>
<text x="535.71" y="838.0" text-anchor="middle" fill="#666" font-family="monospace" font-size="9">L2:F13158 —  words about race and ethnicit</text>
<circle cx="653.4200000000001" cy="801.0" r="9" fill="#ccc"/>
<text x="653.4200000000001" y="805.0" text-anchor="middle" fill="#666" font-family="monospace" font-size="9" font-weight="bold">2</text>
<rect x="80.0" y="636.0" width="271.41999999999996" height="72" fill="#e8e8e8" stroke="#999" stroke-width="2" rx="8"/>
<text x="215.70999999999998" y="654.0" text-anchor="middle" fill="#333" font-family="Arial,sans-serif" font-size="12" font-weight="bold">Race/Gender/Social Issues</text>
<text x="215.70999999999998" y="668.0" text-anchor="middle" fill="#333" font-family="Arial,sans-serif" font-size="12" font-weight="bold">(L3)</text>
<text x="215.70999999999998" y="686.0" text-anchor="middle" fill="#666" font-family="monospace" font-size="9">L3:F13061 —  words related to race, gender</text>
<text x="215.70999999999998" y="700.0" text-anchor="middle" fill="#666" font-family="monospace" font-size="9">L3:F13061 —  words related to race, gender</text>
<circle cx="333.41999999999996" cy="649.0" r="9" fill="#ccc"/>
<text x="333.41999999999996" y="653.0" text-anchor="middle" fill="#666" font-family="monospace" font-size="9" font-weight="bold">2</text>
<rect x="391.4199999999999" y="636.0" width="271.41999999999996" height="72" fill="#e8e8e8" stroke="#999" stroke-width="2" rx="8"/>
<text x="527.1299999999999" y="654.0" text-anchor="middle" fill="#333" font-family="Arial,sans-serif" font-size="12" font-weight="bold">Demographic Identity (L3)</text>
<text x="527.1299999999999" y="672.0" text-anchor="middle" fill="#666" font-family="monospace" font-size="9">L3:F16373 —  mentions of demographic ident</text>
<text x="527.1299999999999" y="686.0" text-anchor="middle" fill="#666" font-family="monospace" font-size="9">L3:F16373 —  mentions of demographic ident</text>
<circle cx="644.8399999999999" cy="649.0" r="9" fill="#ccc"/>
<text x="644.8399999999999" y="653.0" text-anchor="middle" fill="#666" font-family="monospace" font-size="9" font-weight="bold">2</text>
<rect x="702.8399999999999" y="643.0" width="265.90999999999997" height="58" fill="#e8e8e8" stroke="#999" stroke-width="2" rx="8"/>
<text x="835.7949999999998" y="661.0" text-anchor="middle" fill="#333" font-family="Arial,sans-serif" font-size="12" font-weight="bold">&#x27;black&#x27; Word Detector (L3)</text>
<text x="835.7949999999998" y="679.0" text-anchor="middle" fill="#666" font-family="monospace" font-size="9">L3:F7993 — the word &quot;black&quot; and its plura</text>
<circle cx="950.7499999999999" cy="656.0" r="9" fill="#ccc"/>
<text x="950.7499999999999" y="660.0" text-anchor="middle" fill="#666" font-family="monospace" font-size="9" font-weight="bold">1</text>
<rect x="96.84500000000003" y="491.0" width="265.90999999999997" height="58" fill="#e8e8e8" stroke="#999" stroke-width="2" rx="8"/>
<text x="229.8" y="509.0" text-anchor="middle" fill="#333" font-family="Arial,sans-serif" font-size="12" font-weight="bold">&#x27;Another&#x27; Repetition</text>
<text x="229.8" y="523.0" text-anchor="middle" fill="#333" font-family="Arial,sans-serif" font-size="12" font-weight="bold">Pattern (L4)</text>
<text x="229.8" y="541.0" text-anchor="middle" fill="#666" font-family="monospace" font-size="9">L4:F9880 —  phrases indicating repetition</text>
<circle cx="344.755" cy="504.0" r="9" fill="#ccc"/>
<text x="344.755" y="508.0" text-anchor="middle" fill="#666" font-family="monospace" font-size="9" font-weight="bold">1</text>
<rect x="402.75499999999994" y="484.0" width="260.4" height="72" fill="#e8e8e8" stroke="#999" stroke-width="2" rx="8"/>
<text x="532.9549999999999" y="502.0" text-anchor="middle" fill="#333" font-family="Arial,sans-serif" font-size="12" font-weight="bold">Race/Racism/Social Justice</text>
<text x="532.9549999999999" y="516.0" text-anchor="middle" fill="#333" font-family="Arial,sans-serif" font-size="12" font-weight="bold">(L4)</text>
<text x="532.9549999999999" y="534.0" text-anchor="middle" fill="#666" font-family="monospace" font-size="9">L4:F117 —  terms related to race, racism</text>
<text x="532.9549999999999" y="548.0" text-anchor="middle" fill="#666" font-family="monospace" font-size="9">L4:F117 —  terms related to race, racism</text>
<circle cx="645.155" cy="497.0" r="9" fill="#ccc"/>
<text x="645.155" y="501.0" text-anchor="middle" fill="#666" font-family="monospace" font-size="9" font-weight="bold">2</text>
<rect x="247.04500000000002" y="332.0" width="265.90999999999997" height="72" fill="#e8e8e8" stroke="#999" stroke-width="2" rx="8"/>
<text x="380.0" y="350.0" text-anchor="middle" fill="#333" font-family="Arial,sans-serif" font-size="12" font-weight="bold">Race/Ethnicity Terms (L6)</text>
<text x="380.0" y="368.0" text-anchor="middle" fill="#666" font-family="monospace" font-size="9">L6:F3902 —  terms referring to race and e</text>
<text x="380.0" y="382.0" text-anchor="middle" fill="#666" font-family="monospace" font-size="9">L6:F3902 —  terms referring to race and e</text>
<circle cx="494.9549999999999" cy="345.0" r="9" fill="#ccc"/>
<text x="494.9549999999999" y="349.0" text-anchor="middle" fill="#666" font-family="monospace" font-size="9" font-weight="bold">2</text>
<rect x="247.04500000000002" y="194.0" width="265.90999999999997" height="58" fill="#e8e8e8" stroke="#999" stroke-width="2" rx="8"/>
<text x="380.0" y="212.0" text-anchor="middle" fill="#333" font-family="Arial,sans-serif" font-size="12" font-weight="bold">Slavery/Prejudice/Disabilities</text>
<text x="380.0" y="226.0" text-anchor="middle" fill="#333" font-family="Arial,sans-serif" font-size="12" font-weight="bold">(L8)</text>
<text x="380.0" y="244.0" text-anchor="middle" fill="#666" font-family="monospace" font-size="9">L8:F2483 —  discussions of slavery, preju</text>
<circle cx="494.9549999999999" cy="207.0" r="9" fill="#ccc"/>
<text x="494.9549999999999" y="211.0" text-anchor="middle" fill="#666" font-family="monospace" font-size="9" font-weight="bold">1</text>
<rect x="280.0" y="70.0" width="200" height="44" fill="#e8e8e8" stroke="#999" stroke-width="2" rx="8"/>
<text x="380.0" y="88.0" text-anchor="middle" fill="#333" font-family="Arial,sans-serif" font-size="12" font-weight="bold">Probe Score Output</text>
<circle cx="462.0" cy="83.0" r="9" fill="#ccc"/>
<text x="462.0" y="87.0" text-anchor="middle" fill="#666" font-family="monospace" font-size="9" font-weight="bold">0</text>
<line x1="40" y1="1078" x2="1391" y2="1078" stroke="#ddd" stroke-width="1"/>
<text x="40" y="1096" fill="#666" font-family="Arial,sans-serif" font-size="10" font-weight="bold" letter-spacing="1px">PROMPT</text>
<text x="40" y="1114" fill="#333" font-family="monospace" font-size="11">"&lt;bos&gt;Another white dude stealing the black man&#x27;s thunder....."</text>
<text x="40" y="1138" fill="#666" font-family="Arial,sans-serif" font-size="10" font-weight="bold" letter-spacing="1px">TOP OUTPUTS</text>
<rect x="40" y="1143" width="100" height="20" fill="#e8e8e8" stroke="none" rx="6"/>
<text x="45" y="1157" fill="#333" font-family="Arial,sans-serif" font-size="11" font-weight="bold">(empty) <tspan fill="#555" font-size="10">100%</tspan></text>
</svg>