<svg width="3490" height="1485" xmlns="http://www.w3.org/2000/svg">
<rect width="3490" height="1485" fill="#f5f5f5"/>
<rect x="15" y="15" width="3460" height="1455" fill="white" stroke="none" rx="12"/>
<text x="40" y="48" fill="#666" font-family="Arial,sans-serif" font-size="14" font-weight="bold" letter-spacing="1px">ATTRIBUTION CIRCUIT</text>
<text x="25" y="96.0" fill="#999" font-family="monospace" font-size="10" font-weight="bold" text-anchor="start">L36</text>
<text x="25" y="234.0" fill="#999" font-family="monospace" font-size="10" font-weight="bold" text-anchor="start">L15</text>
<text x="25" y="407.0" fill="#999" font-family="monospace" font-size="10" font-weight="bold" text-anchor="start">L6</text>
<text x="25" y="580.0" fill="#999" font-family="monospace" font-size="10" font-weight="bold" text-anchor="start">L4</text>
<text x="25" y="725.0" fill="#999" font-family="monospace" font-size="10" font-weight="bold" text-anchor="start">L3</text>
<text x="25" y="891.0" fill="#999" font-family="monospace" font-size="10" font-weight="bold" text-anchor="start">L2</text>
<text x="25" y="1064.0" fill="#999" font-family="monospace" font-size="10" font-weight="bold" text-anchor="start">L1</text>
<text x="25" y="1237.0" fill="#999" font-family="monospace" font-size="10" font-weight="bold" text-anchor="start">L0</text>
<defs><marker id="arrow" markerWidth="8" markerHeight="6" refX="8" refY="3" orient="auto"><polygon points="0,0 8,3 0,6" fill="#8B4513" fill-opacity="0.7"/></marker></defs>
<path d="M 180.0,1255.0 C 545.99925,1219.0 2253.99575,1219.0 2619.995,1183.0" fill="none" stroke="#8B4513" stroke-width="3" stroke-opacity="0.6" marker-end="url(#arrow)"/>
<path d="M 180.0,1211.0 C 191.994,1153.5 247.96600000000004,1153.5 259.96000000000004,1096.0" fill="none" stroke="#8B4513" stroke-width="3" stroke-opacity="0.6" marker-end="url(#arrow)"/>
<path d="M 180.0,1211.0 C 186.64350000000002,911.5 217.6465,911.5 224.29000000000002,612.0" fill="none" stroke="#8B4513" stroke-width="3" stroke-opacity="0.6" marker-end="url(#arrow)"/>
<path d="M 180.0,1211.0 C 186.64350000000002,821.5 217.6465,821.5 224.29000000000002,432.0" fill="none" stroke="#8B4513" stroke-width="3" stroke-opacity="0.6" marker-end="url(#arrow)"/>
<path d="M 2619.995,1183.0 C 2265.9897499999997,1139.5 613.96525,1139.5 259.96000000000004,1096.0" fill="none" stroke="#8B4513" stroke-width="3" stroke-opacity="0.6" marker-end="url(#arrow)"/>
<path d="M 2619.995,1183.0 C 2260.6392499999997,897.5 583.64575,897.5 224.29000000000002,612.0" fill="none" stroke="#8B4513" stroke-width="3" stroke-opacity="0.6" marker-end="url(#arrow)"/>
<path d="M 2619.995,1183.0 C 2260.6392499999997,807.5 583.64575,807.5 224.29000000000002,432.0" fill="none" stroke="#8B4513" stroke-width="3" stroke-opacity="0.6" marker-end="url(#arrow)"/>
<path d="M 259.96000000000004,1024.0 C 254.60950000000003,818.0 229.64050000000003,818.0 224.29000000000002,612.0" fill="none" stroke="#8B4513" stroke-width="3" stroke-opacity="0.6" marker-end="url(#arrow)"/>
<path d="M 224.29000000000002,540.0 C 224.29000000000002,486.0 224.29000000000002,486.0 224.29000000000002,432.0" fill="none" stroke="#8B4513" stroke-width="3" stroke-opacity="0.6" marker-end="url(#arrow)"/>
<path d="M 1387.04,1255.0 C 1618.283,1222.5 2697.417,1222.5 2928.66,1190.0" fill="none" stroke="#8B4513" stroke-width="3" stroke-opacity="0.6" marker-end="url(#arrow)"/>
<path d="M 1387.04,1211.0 C 1211.3405,1070.5 391.4095,1070.5 215.70999999999998,930.0" fill="none" stroke="#8B4513" stroke-width="3" stroke-opacity="0.6" marker-end="url(#arrow)"/>
<path d="M 2928.66,1190.0 C 2521.7174999999997,1060.0 622.6524999999999,1060.0 215.70999999999998,930.0" fill="none" stroke="#8B4513" stroke-width="3" stroke-opacity="0.6" marker-end="url(#arrow)"/>
<path d="M 215.70999999999998,844.0 C 263.29675,724.5 485.36824999999993,724.5 532.9549999999999,605.0" fill="none" stroke="#8B4513" stroke-width="3" stroke-opacity="0.6" marker-end="url(#arrow)"/>
<path d="M 907.04,1211.0 C 850.514,1150.0 586.7259999999999,1150.0 530.1999999999999,1089.0" fill="none" stroke="#8B4513" stroke-width="3" stroke-opacity="0.6" marker-end="url(#arrow)"/>
<path d="M 907.04,1211.0 C 849.6402499999999,1063.5 581.77475,1063.5 524.375,916.0" fill="none" stroke="#8B4513" stroke-width="3" stroke-opacity="0.6" marker-end="url(#arrow)"/>
<path d="M 907.04,1211.0 C 827.9839999999999,980.5 459.056,980.5 380.0,750.0" fill="none" stroke="#8B4513" stroke-width="3" stroke-opacity="0.6" marker-end="url(#arrow)"/>
<path d="M 1147.04,1211.0 C 1053.64025,1063.5 617.77475,1063.5 524.375,916.0" fill="none" stroke="#8B4513" stroke-width="3" stroke-opacity="0.6" marker-end="url(#arrow)"/>
<path d="M 1147.04,1211.0 C 1031.984,980.5 495.056,980.5 380.0,750.0" fill="none" stroke="#8B4513" stroke-width="3" stroke-opacity="0.6" marker-end="url(#arrow)"/>
<path d="M 530.1999999999999,1031.0 C 507.66999999999996,890.5 402.53,890.5 380.0,750.0" fill="none" stroke="#8B4513" stroke-width="3" stroke-opacity="0.6" marker-end="url(#arrow)"/>
<path d="M 524.375,858.0 C 502.71875,804.0 401.65625,804.0 380.0,750.0" fill="none" stroke="#8B4513" stroke-width="3" stroke-opacity="0.6" marker-end="url(#arrow)"/>
<path d="M 663.52,1211.0 C 688.948,1074.0 807.612,1074.0 833.04,937.0" fill="none" stroke="#8B4513" stroke-width="3" stroke-opacity="0.6" marker-end="url(#arrow)"/>
<path d="M 420.0,1211.0 C 528.25575,1077.5 1033.44925,1077.5 1141.705,944.0" fill="none" stroke="#8B4513" stroke-width="3" stroke-opacity="0.6" marker-end="url(#arrow)"/>
<path d="M 420.0,1211.0 C 437.3565,835.5 518.3535,835.5 535.71,460.0" fill="none" stroke="#8B4513" stroke-width="3" stroke-opacity="0.6" marker-end="url(#arrow)"/>
<path d="M 420.0,1211.0 C 414.0,738.5 386.0,738.5 380.0,266.0" fill="none" stroke="#8B4513" stroke-width="3" stroke-opacity="0.6" marker-end="url(#arrow)"/>
<path d="M 1141.705,830.0 C 1050.80575,645.0 626.60925,645.0 535.71,460.0" fill="none" stroke="#8B4513" stroke-width="3" stroke-opacity="0.6" marker-end="url(#arrow)"/>
<path d="M 535.71,346.0 C 512.3535,306.0 403.3565,306.0 380.0,266.0" fill="none" stroke="#8B4513" stroke-width="3" stroke-opacity="0.6" marker-end="url(#arrow)"/>
<path d="M 1867.04,1255.0 C 2072.58275,1215.5 3031.7822499999997,1215.5 3237.325,1176.0" fill="none" stroke="#8B4513" stroke-width="3" stroke-opacity="0.6" marker-end="url(#arrow)"/>
<path d="M 1627.04,1255.0 C 1868.58275,1215.5 2995.7822499999997,1215.5 3237.325,1176.0" fill="none" stroke="#8B4513" stroke-width="3" stroke-opacity="0.6" marker-end="url(#arrow)"/>
<path d="M 2107.04,1255.0 C 2276.58275,1215.5 3067.7822499999997,1215.5 3237.325,1176.0" fill="none" stroke="#8B4513" stroke-width="3" stroke-opacity="0.6" marker-end="url(#arrow)"/>
<path d="M 2619.995,1183.0 C 2283.99575,648.5 715.99925,648.5 380.0,114.0" fill="none" stroke="#8B4513" stroke-width="3" stroke-opacity="0.6" marker-end="url(#arrow)"/>
<path d="M 259.96000000000004,1024.0 C 277.966,569.0 361.994,569.0 380.0,114.0" fill="none" stroke="#8B4513" stroke-width="3" stroke-opacity="0.6" marker-end="url(#arrow)"/>
<path d="M 224.29000000000002,374.0 C 247.6465,244.0 356.6435,244.0 380.0,114.0" fill="none" stroke="#8B4513" stroke-width="3" stroke-opacity="0.6" marker-end="url(#arrow)"/>
<path d="M 380.0,692.0 C 380.0,403.0 380.0,403.0 380.0,114.0" fill="none" stroke="#8B4513" stroke-width="3" stroke-opacity="0.6" marker-end="url(#arrow)"/>
<path d="M 524.375,858.0 C 502.71875,486.0 401.65625,486.0 380.0,114.0" fill="none" stroke="#8B4513" stroke-width="3" stroke-opacity="0.6" marker-end="url(#arrow)"/>
<path d="M 532.9549999999999,547.0 C 510.01174999999995,330.5 402.94325,330.5 380.0,114.0" fill="none" stroke="#8B4513" stroke-width="3" stroke-opacity="0.6" marker-end="url(#arrow)"/>
<path d="M 833.04,837.0 C 765.084,475.5 447.956,475.5 380.0,114.0" fill="none" stroke="#8B4513" stroke-width="3" stroke-opacity="0.6" marker-end="url(#arrow)"/>
<path d="M 1141.705,830.0 C 1027.44925,472.0 494.25575,472.0 380.0,114.0" fill="none" stroke="#8B4513" stroke-width="3" stroke-opacity="0.6" marker-end="url(#arrow)"/>
<path d="M 380.0,194.0 C 380.0,154.0 380.0,154.0 380.0,114.0" fill="none" stroke="#8B4513" stroke-width="3" stroke-opacity="0.6" marker-end="url(#arrow)"/>
<path d="M 3237.325,1176.0 C 2808.7262499999997,645.0 808.5987499999999,645.0 380.0,114.0" fill="none" stroke="#8B4513" stroke-width="3" stroke-opacity="0.6" marker-end="url(#arrow)"/>
<rect x="80.0" y="1211.0" width="200" height="44" fill="#e8e8e8" stroke="#999" stroke-width="2" rx="8"/>
<text x="180.0" y="1229.0" text-anchor="middle" fill="#333" font-family="Arial,sans-serif" font-size="12" font-weight="bold">Emb: &#x27;she&#x27; (pos 5)</text>
<circle cx="262.0" cy="1224.0" r="9" fill="#ccc"/>
<text x="262.0" y="1228.0" text-anchor="middle" fill="#666" font-family="monospace" font-size="9" font-weight="bold">0</text>
<rect x="320.0" y="1211.0" width="200" height="44" fill="#e8e8e8" stroke="#999" stroke-width="2" rx="8"/>
<text x="420.0" y="1229.0" text-anchor="middle" fill="#333" font-family="Arial,sans-serif" font-size="12" font-weight="bold">Emb: &#x27;travel&#x27; (pos 44)</text>
<circle cx="502.0" cy="1224.0" r="9" fill="#ccc"/>
<text x="502.0" y="1228.0" text-anchor="middle" fill="#666" font-family="monospace" font-size="9" font-weight="bold">0</text>
<rect x="560.0" y="1211.0" width="207.04" height="44" fill="#e8e8e8" stroke="#999" stroke-width="2" rx="8"/>
<text x="663.52" y="1229.0" text-anchor="middle" fill="#333" font-family="Arial,sans-serif" font-size="12" font-weight="bold">Emb: &#x27;planning&#x27; (pos 43)</text>
<circle cx="749.04" cy="1224.0" r="9" fill="#ccc"/>
<text x="749.04" y="1228.0" text-anchor="middle" fill="#666" font-family="monospace" font-size="9" font-weight="bold">0</text>
<rect x="807.04" y="1211.0" width="200" height="44" fill="#e8e8e8" stroke="#999" stroke-width="2" rx="8"/>
<text x="907.04" y="1229.0" text-anchor="middle" fill="#333" font-family="Arial,sans-serif" font-size="12" font-weight="bold">Emb: &#x27;side&#x27; (pos 10)</text>
<circle cx="989.04" cy="1224.0" r="9" fill="#ccc"/>
<text x="989.04" y="1228.0" text-anchor="middle" fill="#666" font-family="monospace" font-size="9" font-weight="bold">0</text>
<rect x="1047.04" y="1211.0" width="200" height="44" fill="#e8e8e8" stroke="#999" stroke-width="2" rx="8"/>
<text x="1147.04" y="1229.0" text-anchor="middle" fill="#333" font-family="Arial,sans-serif" font-size="12" font-weight="bold">Emb: &#x27;hustle&#x27; (pos 11)</text>
<circle cx="1229.04" cy="1224.0" r="9" fill="#ccc"/>
<text x="1229.04" y="1228.0" text-anchor="middle" fill="#666" font-family="monospace" font-size="9" font-weight="bold">0</text>
<rect x="1287.04" y="1211.0" width="200" height="44" fill="#e8e8e8" stroke="#999" stroke-width="2" rx="8"/>
<text x="1387.04" y="1229.0" text-anchor="middle" fill="#333" font-family="Arial,sans-serif" font-size="12" font-weight="bold">Emb: &#x27;never&#x27; (pos 7)</text>
<circle cx="1469.04" cy="1224.0" r="9" fill="#ccc"/>
<text x="1469.04" y="1228.0" text-anchor="middle" fill="#666" font-family="monospace" font-size="9" font-weight="bold">0</text>
<rect x="1527.04" y="1211.0" width="200" height="44" fill="#e8e8e8" stroke="#999" stroke-width="2" rx="8"/>
<text x="1627.04" y="1229.0" text-anchor="middle" fill="#333" font-family="Arial,sans-serif" font-size="12" font-weight="bold">Emb: &#x27;year&#x27; (pos 3)</text>
<circle cx="1709.04" cy="1224.0" r="9" fill="#ccc"/>
<text x="1709.04" y="1228.0" text-anchor="middle" fill="#666" font-family="monospace" font-size="9" font-weight="bold">0</text>
<rect x="1767.04" y="1211.0" width="200" height="44" fill="#e8e8e8" stroke="#999" stroke-width="2" rx="8"/>
<text x="1867.04" y="1229.0" text-anchor="middle" fill="#333" font-family="Arial,sans-serif" font-size="12" font-weight="bold">Emb: &#x27;Until&#x27; (pos 1)</text>
<circle cx="1949.04" cy="1224.0" r="9" fill="#ccc"/>
<text x="1949.04" y="1228.0" text-anchor="middle" fill="#666" font-family="monospace" font-size="9" font-weight="bold">0</text>
<rect x="2007.04" y="1211.0" width="200" height="44" fill="#e8e8e8" stroke="#999" stroke-width="2" rx="8"/>
<text x="2107.04" y="1229.0" text-anchor="middle" fill="#333" font-family="Arial,sans-serif" font-size="12" font-weight="bold">Emb: &#x27;about&#x27; (pos 18)</text>
<circle cx="2189.04" cy="1224.0" r="9" fill="#ccc"/>
<text x="2189.04" y="1228.0" text-anchor="middle" fill="#666" font-family="monospace" font-size="9" font-weight="bold">0</text>
<rect x="2247.04" y="1211.0" width="200" height="44" fill="#e8e8e8" stroke="#999" stroke-width="2" rx="8"/>
<text x="2347.04" y="1229.0" text-anchor="middle" fill="#333" font-family="Arial,sans-serif" font-size="12" font-weight="bold">Emb: &lt;bos&gt; (pos 0)</text>
<circle cx="2429.04" cy="1224.0" r="9" fill="#ccc"/>
<text x="2429.04" y="1228.0" text-anchor="middle" fill="#666" font-family="monospace" font-size="9" font-weight="bold">0</text>
<rect x="2487.04" y="1183.0" width="265.90999999999997" height="100" fill="#e8e8e8" stroke="#999" stroke-width="2" rx="8"/>
<text x="2619.995" y="1201.0" text-anchor="middle" fill="#333" font-family="Arial,sans-serif" font-size="12" font-weight="bold">L0 &#x27;she&#x27; detectors (pos</text>
<text x="2619.995" y="1215.0" text-anchor="middle" fill="#333" font-family="Arial,sans-serif" font-size="12" font-weight="bold">5): pronoun identification</text>
<text x="2619.995" y="1233.0" text-anchor="middle" fill="#666" font-family="monospace" font-size="9">L0:F12519 —  the pronoun &quot;she&quot;</text>
<text x="2619.995" y="1247.0" text-anchor="middle" fill="#666" font-family="monospace" font-size="9">L0:F9040 —  instances of the third-person</text>
<text x="2619.995" y="1261.0" text-anchor="middle" fill="#666" font-family="monospace" font-size="9">L0:F2241 —  the pronoun &quot;she&quot;</text>
<text x="2619.995" y="1275.0" text-anchor="middle" fill="#666" font-family="monospace" font-size="9">L0:F7509 —  female pronouns and words lik</text>
<circle cx="2734.95" cy="1196.0" r="9" fill="#ccc"/>
<text x="2734.95" y="1200.0" text-anchor="middle" fill="#666" font-family="monospace" font-size="9" font-weight="bold">4</text>
<rect x="129.76000000000005" y="1024.0" width="260.4" height="72" fill="#e8e8e8" stroke="#999" stroke-width="2" rx="8"/>
<text x="259.96000000000004" y="1042.0" text-anchor="middle" fill="#333" font-family="Arial,sans-serif" font-size="12" font-weight="bold">L1 &#x27;she&#x27; pronoun detectors</text>
<text x="259.96000000000004" y="1056.0" text-anchor="middle" fill="#333" font-family="Arial,sans-serif" font-size="12" font-weight="bold">(pos 5)</text>
<text x="259.96000000000004" y="1074.0" text-anchor="middle" fill="#666" font-family="monospace" font-size="9">L1:F7244 — the pronoun &quot;she&quot;</text>
<text x="259.96000000000004" y="1088.0" text-anchor="middle" fill="#666" font-family="monospace" font-size="9">L1:F4232 —  the possessive pronoun &quot;her&quot;</text>
<circle cx="372.16" cy="1037.0" r="9" fill="#ccc"/>
<text x="372.16" y="1041.0" text-anchor="middle" fill="#666" font-family="monospace" font-size="9" font-weight="bold">2</text>
<rect x="91.33500000000004" y="540.0" width="265.90999999999997" height="72" fill="#e8e8e8" stroke="#999" stroke-width="2" rx="8"/>
<text x="224.29000000000002" y="558.0" text-anchor="middle" fill="#333" font-family="Arial,sans-serif" font-size="12" font-weight="bold">L2-L4 gender pronoun chain</text>
<text x="224.29000000000002" y="572.0" text-anchor="middle" fill="#333" font-family="Arial,sans-serif" font-size="12" font-weight="bold">(pos 5)</text>
<text x="224.29000000000002" y="590.0" text-anchor="middle" fill="#666" font-family="monospace" font-size="9">L2:F8966 —  the pronoun &quot;she&quot;</text>
<text x="224.29000000000002" y="604.0" text-anchor="middle" fill="#666" font-family="monospace" font-size="9">L4:F7864 — xml or source code snippets, e</text>
<circle cx="339.245" cy="553.0" r="9" fill="#ccc"/>
<text x="339.245" y="557.0" text-anchor="middle" fill="#666" font-family="monospace" font-size="9" font-weight="bold">2</text>
<rect x="88.58000000000004" y="374.0" width="271.41999999999996" height="58" fill="#e8e8e8" stroke="#999" stroke-width="2" rx="8"/>
<text x="224.29000000000002" y="392.0" text-anchor="middle" fill="#333" font-family="Arial,sans-serif" font-size="12" font-weight="bold">L6 &#x27;references to women&#x27;</text>
<text x="224.29000000000002" y="406.0" text-anchor="middle" fill="#333" font-family="Arial,sans-serif" font-size="12" font-weight="bold">(pos 5) — NEGATIVE effect</text>
<text x="224.29000000000002" y="424.0" text-anchor="middle" fill="#666" font-family="monospace" font-size="9">L6:F11646 —  references to women, potentia</text>
<circle cx="342.0" cy="387.0" r="9" fill="#ccc"/>
<text x="342.0" y="391.0" text-anchor="middle" fill="#666" font-family="monospace" font-size="9" font-weight="bold">1</text>
<rect x="2792.95" y="1190.0" width="271.41999999999996" height="86" fill="#e8e8e8" stroke="#999" stroke-width="2" rx="8"/>
<text x="2928.66" y="1208.0" text-anchor="middle" fill="#333" font-family="Arial,sans-serif" font-size="12" font-weight="bold">L0 &#x27;never&#x27; detectors (pos</text>
<text x="2928.66" y="1222.0" text-anchor="middle" fill="#333" font-family="Arial,sans-serif" font-size="12" font-weight="bold">7)</text>
<text x="2928.66" y="1240.0" text-anchor="middle" fill="#666" font-family="monospace" font-size="9">L0:F2318 —  the word &quot;never&quot;.</text>
<text x="2928.66" y="1254.0" text-anchor="middle" fill="#666" font-family="monospace" font-size="9">L0:F889 —  the word &quot;had&quot; followed by wo</text>
<text x="2928.66" y="1268.0" text-anchor="middle" fill="#666" font-family="monospace" font-size="9">L0:F15081 —  the word &quot;never&quot; sometimes, a</text>
<circle cx="3046.37" cy="1203.0" r="9" fill="#ccc"/>
<text x="3046.37" y="1207.0" text-anchor="middle" fill="#666" font-family="monospace" font-size="9" font-weight="bold">3</text>
<rect x="80.0" y="844.0" width="271.41999999999996" height="86" fill="#e8e8e8" stroke="#999" stroke-width="2" rx="8"/>
<text x="215.70999999999998" y="862.0" text-anchor="middle" fill="#333" font-family="Arial,sans-serif" font-size="12" font-weight="bold">L1-L2 negation/undesirable</text>
<text x="215.70999999999998" y="876.0" text-anchor="middle" fill="#333" font-family="Arial,sans-serif" font-size="12" font-weight="bold">context (pos 7-12)</text>
<text x="215.70999999999998" y="894.0" text-anchor="middle" fill="#666" font-family="monospace" font-size="9">L1:F14233 —  negative sentiment markers su</text>
<text x="215.70999999999998" y="908.0" text-anchor="middle" fill="#666" font-family="monospace" font-size="9">L2:F2415 —  frequent words indicating sma</text>
<text x="215.70999999999998" y="922.0" text-anchor="middle" fill="#666" font-family="monospace" font-size="9">L2:F6993 — phrases describing uncertainty</text>
<circle cx="333.41999999999996" cy="857.0" r="9" fill="#ccc"/>
<text x="333.41999999999996" y="861.0" text-anchor="middle" fill="#666" font-family="monospace" font-size="9" font-weight="bold">3</text>
<rect x="397.24499999999995" y="547.0" width="271.41999999999996" height="58" fill="#e8e8e8" stroke="#999" stroke-width="2" rx="8"/>
<text x="532.9549999999999" y="565.0" text-anchor="middle" fill="#333" font-family="Arial,sans-serif" font-size="12" font-weight="bold">L4 &#x27;undesirable/wrong&#x27; —</text>
<text x="532.9549999999999" y="579.0" text-anchor="middle" fill="#333" font-family="Arial,sans-serif" font-size="12" font-weight="bold">negation signal (pos 12)</text>
<text x="532.9549999999999" y="593.0" text-anchor="middle" fill="#333" font-family="Arial,sans-serif" font-size="12" font-weight="bold">+0.091</text>
<text x="532.9549999999999" y="611.0" text-anchor="middle" fill="#666" font-family="monospace" font-size="9">L4:F12637 —  words that indicate something</text>
<circle cx="650.665" cy="560.0" r="9" fill="#ccc"/>
<text x="650.665" y="564.0" text-anchor="middle" fill="#666" font-family="monospace" font-size="9" font-weight="bold">1</text>
<rect x="391.42" y="858.0" width="265.90999999999997" height="58" fill="#e8e8e8" stroke="#999" stroke-width="2" rx="8"/>
<text x="524.375" y="876.0" text-anchor="middle" fill="#333" font-family="Arial,sans-serif" font-size="12" font-weight="bold">L2 &#x27;business &amp; finance&#x27;</text>
<text x="524.375" y="890.0" text-anchor="middle" fill="#333" font-family="Arial,sans-serif" font-size="12" font-weight="bold">(pos 11)</text>
<text x="524.375" y="908.0" text-anchor="middle" fill="#666" font-family="monospace" font-size="9">L2:F6966 —  words related to business and</text>
<circle cx="639.3299999999999" cy="871.0" r="9" fill="#ccc"/>
<text x="639.3299999999999" y="875.0" text-anchor="middle" fill="#666" font-family="monospace" font-size="9" font-weight="bold">1</text>
<rect x="247.04500000000002" y="692.0" width="265.90999999999997" height="58" fill="#e8e8e8" stroke="#999" stroke-width="2" rx="8"/>
<text x="380.0" y="710.0" text-anchor="middle" fill="#333" font-family="Arial,sans-serif" font-size="12" font-weight="bold">L3 &#x27;side hustle&#x27; compound</text>
<text x="380.0" y="724.0" text-anchor="middle" fill="#333" font-family="Arial,sans-serif" font-size="12" font-weight="bold">detection (pos 11) —</text>
<text x="380.0" y="738.0" text-anchor="middle" fill="#333" font-family="Arial,sans-serif" font-size="12" font-weight="bold">STRONGEST +0.166</text>
<text x="380.0" y="756.0" text-anchor="middle" fill="#666" font-family="monospace" font-size="9">L3:F3222 —  numerical references, especia</text>
<circle cx="494.9549999999999" cy="705.0" r="9" fill="#ccc"/>
<text x="494.9549999999999" y="709.0" text-anchor="middle" fill="#666" font-family="monospace" font-size="9" font-weight="bold">1</text>
<rect x="697.3299999999999" y="837.0" width="271.41999999999996" height="100" fill="#e8e8e8" stroke="#999" stroke-width="2" rx="8"/>
<text x="833.04" y="855.0" text-anchor="middle" fill="#333" font-family="Arial,sans-serif" font-size="12" font-weight="bold">L0-L2 &#x27;planning&#x27; word</text>
<text x="833.04" y="869.0" text-anchor="middle" fill="#333" font-family="Arial,sans-serif" font-size="12" font-weight="bold">detectors (pos 43)</text>
<text x="833.04" y="887.0" text-anchor="middle" fill="#666" font-family="monospace" font-size="9">L0:F14323 — the word &quot;planning&quot;</text>
<text x="833.04" y="901.0" text-anchor="middle" fill="#666" font-family="monospace" font-size="9">L0:F14054 —  the word &quot;plan&quot;, and weakly a</text>
<text x="833.04" y="915.0" text-anchor="middle" fill="#666" font-family="monospace" font-size="9">L1:F6546 — the word &quot;planning&quot;</text>
<text x="833.04" y="929.0" text-anchor="middle" fill="#666" font-family="monospace" font-size="9">L2:F9024 —  the word &quot;planning&quot;</text>
<circle cx="950.7499999999999" cy="850.0" r="9" fill="#ccc"/>
<text x="950.7499999999999" y="854.0" text-anchor="middle" fill="#666" font-family="monospace" font-size="9" font-weight="bold">4</text>
<rect x="1008.75" y="830.0" width="265.90999999999997" height="114" fill="#e8e8e8" stroke="#999" stroke-width="2" rx="8"/>
<text x="1141.705" y="848.0" text-anchor="middle" fill="#333" font-family="Arial,sans-serif" font-size="12" font-weight="bold">L0-L2 &#x27;travel&#x27; word</text>
<text x="1141.705" y="862.0" text-anchor="middle" fill="#333" font-family="Arial,sans-serif" font-size="12" font-weight="bold">detectors (pos 44)</text>
<text x="1141.705" y="880.0" text-anchor="middle" fill="#666" font-family="monospace" font-size="9">L0:F1308 —  the word &quot;travel&quot; and its var</text>
<text x="1141.705" y="894.0" text-anchor="middle" fill="#666" font-family="monospace" font-size="9">L0:F5346 — words semantically similar to </text>
<text x="1141.705" y="908.0" text-anchor="middle" fill="#666" font-family="monospace" font-size="9">L1:F9665 —  any form of the word &quot;travel&quot;</text>
<text x="1141.705" y="922.0" text-anchor="middle" fill="#666" font-family="monospace" font-size="9">L2:F8284 — the word &quot;travel&quot; and its rela</text>
<text x="1141.705" y="936.0" text-anchor="middle" fill="#666" font-family="monospace" font-size="9">... +1 more</text>
<circle cx="1256.6599999999999" cy="843.0" r="9" fill="#ccc"/>
<text x="1256.6599999999999" y="847.0" text-anchor="middle" fill="#666" font-family="monospace" font-size="9" font-weight="bold">5</text>
<rect x="400.00000000000006" y="346.0" width="271.41999999999996" height="114" fill="#e8e8e8" stroke="#999" stroke-width="2" rx="8"/>
<text x="535.71" y="364.0" text-anchor="middle" fill="#333" font-family="Arial,sans-serif" font-size="12" font-weight="bold">L3-L7 travel concept</text>
<text x="535.71" y="378.0" text-anchor="middle" fill="#333" font-family="Arial,sans-serif" font-size="12" font-weight="bold">features (pos 44)</text>
<text x="535.71" y="396.0" text-anchor="middle" fill="#666" font-family="monospace" font-size="9">L3:F2523 —  sentences describing movement</text>
<text x="535.71" y="410.0" text-anchor="middle" fill="#666" font-family="monospace" font-size="9">L4:F14856 —  the word &quot;travel&quot; and similar</text>
<text x="535.71" y="424.0" text-anchor="middle" fill="#666" font-family="monospace" font-size="9">L4:F5937 —  words and phrases related to </text>
<text x="535.71" y="438.0" text-anchor="middle" fill="#666" font-family="monospace" font-size="9">L6:F7138 —  mentions of vacations or holi</text>
<text x="535.71" y="452.0" text-anchor="middle" fill="#666" font-family="monospace" font-size="9">... +1 more</text>
<circle cx="653.4200000000001" cy="359.0" r="9" fill="#ccc"/>
<text x="653.4200000000001" y="363.0" text-anchor="middle" fill="#666" font-family="monospace" font-size="9" font-weight="bold">5</text>
<rect x="244.29000000000002" y="194.0" width="271.41999999999996" height="72" fill="#e8e8e8" stroke="#999" stroke-width="2" rx="8"/>
<text x="380.0" y="212.0" text-anchor="middle" fill="#333" font-family="Arial,sans-serif" font-size="12" font-weight="bold">L14-L15 travel features</text>
<text x="380.0" y="226.0" text-anchor="middle" fill="#333" font-family="Arial,sans-serif" font-size="12" font-weight="bold">(pos 44) — NEGATIVE effect</text>
<text x="380.0" y="240.0" text-anchor="middle" fill="#333" font-family="Arial,sans-serif" font-size="12" font-weight="bold">-0.086</text>
<text x="380.0" y="258.0" text-anchor="middle" fill="#666" font-family="monospace" font-size="9">L14:F9301 — words associated with travel a</text>
<text x="380.0" y="272.0" text-anchor="middle" fill="#666" font-family="monospace" font-size="9">L15:F7803 —  words and phrases related to </text>
<circle cx="497.71000000000004" cy="207.0" r="9" fill="#ccc"/>
<text x="497.71000000000004" y="211.0" text-anchor="middle" fill="#666" font-family="monospace" font-size="9" font-weight="bold">2</text>
<rect x="3104.37" y="1176.0" width="265.90999999999997" height="114" fill="#e8e8e8" stroke="#999" stroke-width="2" rx="8"/>
<text x="3237.325" y="1194.0" text-anchor="middle" fill="#333" font-family="Arial,sans-serif" font-size="12" font-weight="bold">L0 context tokens:</text>
<text x="3237.325" y="1208.0" text-anchor="middle" fill="#333" font-family="Arial,sans-serif" font-size="12" font-weight="bold">&#x27;until&#x27;, &#x27;year&#x27;, &#x27;about&#x27;</text>
<text x="3237.325" y="1226.0" text-anchor="middle" fill="#666" font-family="monospace" font-size="9">L0:F11182 —  the word &quot;until&quot;</text>
<text x="3237.325" y="1240.0" text-anchor="middle" fill="#666" font-family="monospace" font-size="9">L0:F5912 — &quot;year&quot; but also sometimes find</text>
<text x="3237.325" y="1254.0" text-anchor="middle" fill="#666" font-family="monospace" font-size="9">L0:F2402 —  mentions of spans of time, es</text>
<text x="3237.325" y="1268.0" text-anchor="middle" fill="#666" font-family="monospace" font-size="9">L0:F2238 —  the word &quot;about&quot; when followe</text>
<text x="3237.325" y="1282.0" text-anchor="middle" fill="#666" font-family="monospace" font-size="9">... +1 more</text>
<circle cx="3352.2799999999997" cy="1189.0" r="9" fill="#ccc"/>
<text x="3352.2799999999997" y="1193.0" text-anchor="middle" fill="#666" font-family="monospace" font-size="9" font-weight="bold">5</text>
<rect x="430.15999999999997" y="1031.0" width="200.07999999999998" height="58" fill="#e8e8e8" stroke="#999" stroke-width="2" rx="8"/>
<text x="530.1999999999999" y="1049.0" text-anchor="middle" fill="#333" font-family="Arial,sans-serif" font-size="12" font-weight="bold">L1 &#x27;side&#x27; word detector</text>
<text x="530.1999999999999" y="1063.0" text-anchor="middle" fill="#333" font-family="Arial,sans-serif" font-size="12" font-weight="bold">(pos 10)</text>
<text x="530.1999999999999" y="1081.0" text-anchor="middle" fill="#666" font-family="monospace" font-size="9">L1:F745 —  the word &quot;side&quot;</text>
<circle cx="612.24" cy="1044.0" r="9" fill="#ccc"/>
<text x="612.24" y="1048.0" text-anchor="middle" fill="#666" font-family="monospace" font-size="9" font-weight="bold">1</text>
<rect x="269.52" y="70.0" width="220.95999999999998" height="44" fill="#e8e8e8" stroke="#999" stroke-width="2" rx="8"/>
<text x="380.0" y="88.0" text-anchor="middle" fill="#333" font-family="Arial,sans-serif" font-size="12" font-weight="bold">Probe classification score</text>
<circle cx="472.47999999999996" cy="83.0" r="9" fill="#ccc"/>
<text x="472.47999999999996" y="87.0" text-anchor="middle" fill="#666" font-family="monospace" font-size="9" font-weight="bold">0</text>
<line x1="40" y1="1370" x2="3450" y2="1370" stroke="#ddd" stroke-width="1"/>
<text x="40" y="1388" fill="#666" font-family="Arial,sans-serif" font-size="10" font-weight="bold" letter-spacing="1px">PROMPT</text>
<text x="40" y="1406" fill="#333" font-family="monospace" font-size="11">"&lt;bos&gt;Until this year, she had never had a side hustle. She didn’t know about providing a service, creating a website, de"</text>
<text x="40" y="1430" fill="#666" font-family="Arial,sans-serif" font-size="10" font-weight="bold" letter-spacing="1px">TOP OUTPUTS</text>
<rect x="40" y="1435" width="100" height="20" fill="#e8e8e8" stroke="none" rx="6"/>
<text x="45" y="1449" fill="#333" font-family="Arial,sans-serif" font-size="11" font-weight="bold">(empty) <tspan fill="#555" font-size="10">100%</tspan></text>
</svg>