<svg width="1860" height="1345" xmlns="http://www.w3.org/2000/svg">
<rect width="1860" height="1345" fill="#f5f5f5"/>
<rect x="15" y="15" width="1830" height="1315" fill="white" stroke="none" rx="12"/>
<text x="40" y="48" fill="#666" font-family="Arial,sans-serif" font-size="14" font-weight="bold" letter-spacing="1px">ATTRIBUTION CIRCUIT</text>
<text x="25" y="96.0" fill="#999" font-family="monospace" font-size="10" font-weight="bold" text-anchor="start">L36</text>
<text x="25" y="227.0" fill="#999" font-family="monospace" font-size="10" font-weight="bold" text-anchor="start">L17</text>
<text x="25" y="365.0" fill="#999" font-family="monospace" font-size="10" font-weight="bold" text-anchor="start">L15</text>
<text x="25" y="517.0" fill="#999" font-family="monospace" font-size="10" font-weight="bold" text-anchor="start">L7</text>
<text x="25" y="669.0" fill="#999" font-family="monospace" font-size="10" font-weight="bold" text-anchor="start">L5</text>
<text x="25" y="807.0" fill="#999" font-family="monospace" font-size="10" font-weight="bold" text-anchor="start">L2</text>
<text x="25" y="959.0" fill="#999" font-family="monospace" font-size="10" font-weight="bold" text-anchor="start">L1</text>
<text x="25" y="1118.0" fill="#999" font-family="monospace" font-size="10" font-weight="bold" text-anchor="start">L0</text>
<defs><marker id="arrow" markerWidth="8" markerHeight="6" refX="8" refY="3" orient="auto"><polygon points="0,0 8,3 0,6" fill="#8B4513" fill-opacity="0.7"/></marker></defs>
<path d="M 180.0,1085.0 C 210.0,1041.5 350.0,1041.5 380.0,998.0" fill="none" stroke="#8B4513" stroke-width="3" stroke-opacity="0.6" marker-end="url(#arrow)"/>
<path d="M 420.0,1085.0 C 414.0,1041.5 386.0,1041.5 380.0,998.0" fill="none" stroke="#8B4513" stroke-width="3" stroke-opacity="0.6" marker-end="url(#arrow)"/>
<path d="M 660.0,1085.0 C 618.0,1041.5 422.0,1041.5 380.0,998.0" fill="none" stroke="#8B4513" stroke-width="3" stroke-opacity="0.6" marker-end="url(#arrow)"/>
<path d="M 380.0,912.0 C 380.0,734.0 380.0,734.0 380.0,556.0" fill="none" stroke="#8B4513" stroke-width="3" stroke-opacity="0.6" marker-end="url(#arrow)"/>
<path d="M 380.0,470.0 C 380.0,430.0 380.0,430.0 380.0,390.0" fill="none" stroke="#8B4513" stroke-width="3" stroke-opacity="0.6" marker-end="url(#arrow)"/>
<path d="M 660.0,1085.0 C 618.0,737.5 422.0,737.5 380.0,390.0" fill="none" stroke="#8B4513" stroke-width="3" stroke-opacity="0.6" marker-end="url(#arrow)"/>
<path d="M 180.0,1085.0 C 210.0,737.5 350.0,737.5 380.0,390.0" fill="none" stroke="#8B4513" stroke-width="3" stroke-opacity="0.6" marker-end="url(#arrow)"/>
<path d="M 660.0,1085.0 C 618.0,668.5 422.0,668.5 380.0,252.0" fill="none" stroke="#8B4513" stroke-width="3" stroke-opacity="0.6" marker-end="url(#arrow)"/>
<path d="M 420.0,1085.0 C 414.0,668.5 386.0,668.5 380.0,252.0" fill="none" stroke="#8B4513" stroke-width="3" stroke-opacity="0.6" marker-end="url(#arrow)"/>
<path d="M 380.0,470.0 C 380.0,361.0 380.0,361.0 380.0,252.0" fill="none" stroke="#8B4513" stroke-width="3" stroke-opacity="0.6" marker-end="url(#arrow)"/>
<path d="M 1140.0,1085.0 C 1026.0,958.5 494.0,958.5 380.0,832.0" fill="none" stroke="#8B4513" stroke-width="3" stroke-opacity="0.6" marker-end="url(#arrow)"/>
<path d="M 1380.0,1085.0 C 1230.0,889.5 530.0,889.5 380.0,694.0" fill="none" stroke="#8B4513" stroke-width="3" stroke-opacity="0.6" marker-end="url(#arrow)"/>
<path d="M 1630.48,1078.0 C 1442.908,886.0 567.572,886.0 380.0,694.0" fill="none" stroke="#8B4513" stroke-width="3" stroke-opacity="0.6" marker-end="url(#arrow)"/>
<path d="M 900.0,1085.0 C 822.0,889.5 458.0,889.5 380.0,694.0" fill="none" stroke="#8B4513" stroke-width="3" stroke-opacity="0.6" marker-end="url(#arrow)"/>
<path d="M 380.0,332.0 C 380.0,223.0 380.0,223.0 380.0,114.0" fill="none" stroke="#8B4513" stroke-width="3" stroke-opacity="0.6" marker-end="url(#arrow)"/>
<path d="M 380.0,194.0 C 380.0,154.0 380.0,154.0 380.0,114.0" fill="none" stroke="#8B4513" stroke-width="3" stroke-opacity="0.6" marker-end="url(#arrow)"/>
<path d="M 380.0,774.0 C 380.0,444.0 380.0,444.0 380.0,114.0" fill="none" stroke="#8B4513" stroke-width="3" stroke-opacity="0.6" marker-end="url(#arrow)"/>
<path d="M 380.0,636.0 C 380.0,375.0 380.0,375.0 380.0,114.0" fill="none" stroke="#8B4513" stroke-width="3" stroke-opacity="0.6" marker-end="url(#arrow)"/>
<rect x="80.0" y="1085.0" width="200" height="58" fill="#e8e8e8" stroke="#999" stroke-width="2" rx="8"/>
<text x="180.0" y="1103.0" text-anchor="middle" fill="#333" font-family="Arial,sans-serif" font-size="12" font-weight="bold">Emb: &#x27;but&#x27; (pos 13)</text>
<text x="180.0" y="1121.0" text-anchor="middle" fill="#666" font-family="monospace" font-size="9">L0:F-1</text>
<circle cx="262.0" cy="1098.0" r="9" fill="#ccc"/>
<text x="262.0" y="1102.0" text-anchor="middle" fill="#666" font-family="monospace" font-size="9" font-weight="bold">1</text>
<rect x="320.0" y="1085.0" width="200" height="58" fill="#e8e8e8" stroke="#999" stroke-width="2" rx="8"/>
<text x="420.0" y="1103.0" text-anchor="middle" fill="#333" font-family="Arial,sans-serif" font-size="12" font-weight="bold">Emb: &#x27;not&#x27; (pos 6)</text>
<text x="420.0" y="1121.0" text-anchor="middle" fill="#666" font-family="monospace" font-size="9">L0:F-1</text>
<circle cx="502.0" cy="1098.0" r="9" fill="#ccc"/>
<text x="502.0" y="1102.0" text-anchor="middle" fill="#666" font-family="monospace" font-size="9" font-weight="bold">1</text>
<rect x="560.0" y="1085.0" width="200" height="58" fill="#e8e8e8" stroke="#999" stroke-width="2" rx="8"/>
<text x="660.0" y="1103.0" text-anchor="middle" fill="#333" font-family="Arial,sans-serif" font-size="12" font-weight="bold">Emb: &#x27;only&#x27; (pos 7)</text>
<text x="660.0" y="1121.0" text-anchor="middle" fill="#666" font-family="monospace" font-size="9">L0:F-1</text>
<circle cx="742.0" cy="1098.0" r="9" fill="#ccc"/>
<text x="742.0" y="1102.0" text-anchor="middle" fill="#666" font-family="monospace" font-size="9" font-weight="bold">1</text>
<rect x="800.0" y="1085.0" width="200" height="58" fill="#e8e8e8" stroke="#999" stroke-width="2" rx="8"/>
<text x="900.0" y="1103.0" text-anchor="middle" fill="#333" font-family="Arial,sans-serif" font-size="12" font-weight="bold">Emb: &#x27;will&#x27; (pos 8)</text>
<text x="900.0" y="1121.0" text-anchor="middle" fill="#666" font-family="monospace" font-size="9">L0:F-1</text>
<circle cx="982.0" cy="1098.0" r="9" fill="#ccc"/>
<text x="982.0" y="1102.0" text-anchor="middle" fill="#666" font-family="monospace" font-size="9" font-weight="bold">1</text>
<rect x="1040.0" y="1085.0" width="200" height="58" fill="#e8e8e8" stroke="#999" stroke-width="2" rx="8"/>
<text x="1140.0" y="1103.0" text-anchor="middle" fill="#333" font-family="Arial,sans-serif" font-size="12" font-weight="bold">Emb: &#x27;program&#x27; (pos 5)</text>
<text x="1140.0" y="1121.0" text-anchor="middle" fill="#666" font-family="monospace" font-size="9">L0:F-1</text>
<circle cx="1222.0" cy="1098.0" r="9" fill="#ccc"/>
<text x="1222.0" y="1102.0" text-anchor="middle" fill="#666" font-family="monospace" font-size="9" font-weight="bold">1</text>
<rect x="1280.0" y="1085.0" width="200" height="58" fill="#e8e8e8" stroke="#999" stroke-width="2" rx="8"/>
<text x="1380.0" y="1103.0" text-anchor="middle" fill="#333" font-family="Arial,sans-serif" font-size="12" font-weight="bold">Emb: &#x27;said&#x27; (pos 3)</text>
<text x="1380.0" y="1121.0" text-anchor="middle" fill="#666" font-family="monospace" font-size="9">L0:F-1</text>
<circle cx="1462.0" cy="1098.0" r="9" fill="#ccc"/>
<text x="1462.0" y="1102.0" text-anchor="middle" fill="#666" font-family="monospace" font-size="9" font-weight="bold">1</text>
<rect x="1520.0" y="1078.0" width="220.95999999999998" height="72" fill="#e8e8e8" stroke="#999" stroke-width="2" rx="8"/>
<text x="1630.48" y="1096.0" text-anchor="middle" fill="#333" font-family="Arial,sans-serif" font-size="12" font-weight="bold">Emb: &#x27;Wagonheim&#x27; (pos 1-2)</text>
<text x="1630.48" y="1114.0" text-anchor="middle" fill="#666" font-family="monospace" font-size="9">L0:F-1</text>
<text x="1630.48" y="1128.0" text-anchor="middle" fill="#666" font-family="monospace" font-size="9">L0:F-1</text>
<circle cx="1722.96" cy="1091.0" r="9" fill="#ccc"/>
<text x="1722.96" y="1095.0" text-anchor="middle" fill="#666" font-family="monospace" font-size="9" font-weight="bold">2</text>
<rect x="244.29000000000002" y="912.0" width="271.41999999999996" height="86" fill="#e8e8e8" stroke="#999" stroke-width="2" rx="8"/>
<text x="380.0" y="930.0" text-anchor="middle" fill="#333" font-family="Arial,sans-serif" font-size="12" font-weight="bold">Negation Word Detectors</text>
<text x="380.0" y="944.0" text-anchor="middle" fill="#333" font-family="Arial,sans-serif" font-size="12" font-weight="bold">(L0-2): &#x27;but&#x27; and &#x27;not</text>
<text x="380.0" y="958.0" text-anchor="middle" fill="#333" font-family="Arial,sans-serif" font-size="12" font-weight="bold">only&#x27; phrase features</text>
<text x="380.0" y="976.0" text-anchor="middle" fill="#666" font-family="monospace" font-size="9">L0:F11101 — sentences that contain the wor</text>
<text x="380.0" y="990.0" text-anchor="middle" fill="#666" font-family="monospace" font-size="9">L2:F3379 —  the word &quot;but&quot; and similar te</text>
<text x="380.0" y="1004.0" text-anchor="middle" fill="#666" font-family="monospace" font-size="9">L2:F5627 —  instances of the phrase &quot;not </text>
<circle cx="497.71000000000004" cy="925.0" r="9" fill="#ccc"/>
<text x="497.71000000000004" y="929.0" text-anchor="middle" fill="#666" font-family="monospace" font-size="9" font-weight="bold">3</text>
<rect x="247.04500000000002" y="470.0" width="265.90999999999997" height="86" fill="#e8e8e8" stroke="#999" stroke-width="2" rx="8"/>
<text x="380.0" y="488.0" text-anchor="middle" fill="#333" font-family="Arial,sans-serif" font-size="12" font-weight="bold">Not-Only Phrase Detectors</text>
<text x="380.0" y="502.0" text-anchor="middle" fill="#333" font-family="Arial,sans-serif" font-size="12" font-weight="bold">(L4-9): Cascading &#x27;not</text>
<text x="380.0" y="516.0" text-anchor="middle" fill="#333" font-family="Arial,sans-serif" font-size="12" font-weight="bold">only&#x27; pattern detection</text>
<text x="380.0" y="534.0" text-anchor="middle" fill="#666" font-family="monospace" font-size="9">L4:F2884 — the word &quot;but&quot; and other contr</text>
<text x="380.0" y="548.0" text-anchor="middle" fill="#666" font-family="monospace" font-size="9">L9:F12274 —  the phrase &quot;not only&quot;</text>
<text x="380.0" y="562.0" text-anchor="middle" fill="#666" font-family="monospace" font-size="9">L6:F3655 —  the word &quot;just&quot; and surroundi</text>
<circle cx="494.9549999999999" cy="483.0" r="9" fill="#ccc"/>
<text x="494.9549999999999" y="487.0" text-anchor="middle" fill="#666" font-family="monospace" font-size="9" font-weight="bold">3</text>
<rect x="241.53500000000003" y="332.0" width="276.92999999999995" height="58" fill="#e8e8e8" stroke="#999" stroke-width="2" rx="8"/>
<text x="380.0" y="350.0" text-anchor="middle" fill="#333" font-family="Arial,sans-serif" font-size="12" font-weight="bold">But Contrast Feature</text>
<text x="380.0" y="364.0" text-anchor="middle" fill="#333" font-family="Arial,sans-serif" font-size="12" font-weight="bold">(L15:12905) - TOP DRIVER:</text>
<text x="380.0" y="378.0" text-anchor="middle" fill="#333" font-family="Arial,sans-serif" font-size="12" font-weight="bold">detects &#x27;but&#x27; with</text>
<text x="380.0" y="392.0" text-anchor="middle" fill="#333" font-family="Arial,sans-serif" font-size="12" font-weight="bold">contrast signals</text>
<text x="380.0" y="410.0" text-anchor="middle" fill="#666" font-family="monospace" font-size="9">L15:F12905 —  the word &quot;but&quot; along with sur</text>
<circle cx="500.4649999999999" cy="345.0" r="9" fill="#ccc"/>
<text x="500.4649999999999" y="349.0" text-anchor="middle" fill="#666" font-family="monospace" font-size="9" font-weight="bold">1</text>
<rect x="269.52" y="194.0" width="220.95999999999998" height="58" fill="#e8e8e8" stroke="#999" stroke-width="2" rx="8"/>
<text x="380.0" y="212.0" text-anchor="middle" fill="#333" font-family="Arial,sans-serif" font-size="12" font-weight="bold">Only Limiting Word Feature</text>
<text x="380.0" y="226.0" text-anchor="middle" fill="#333" font-family="Arial,sans-serif" font-size="12" font-weight="bold">(L17:3763): &#x27;only&#x27; with</text>
<text x="380.0" y="240.0" text-anchor="middle" fill="#333" font-family="Arial,sans-serif" font-size="12" font-weight="bold">broad firing (frac=0.072)</text>
<text x="380.0" y="258.0" text-anchor="middle" fill="#666" font-family="monospace" font-size="9">L17:F3763 — only</text>
<circle cx="472.47999999999996" cy="207.0" r="9" fill="#ccc"/>
<text x="472.47999999999996" y="211.0" text-anchor="middle" fill="#666" font-family="monospace" font-size="9" font-weight="bold">1</text>
<rect x="260.82" y="774.0" width="238.35999999999999" height="58" fill="#e8e8e8" stroke="#999" stroke-width="2" rx="8"/>
<text x="380.0" y="792.0" text-anchor="middle" fill="#333" font-family="Arial,sans-serif" font-size="12" font-weight="bold">Program Content Feature</text>
<text x="380.0" y="806.0" text-anchor="middle" fill="#333" font-family="Arial,sans-serif" font-size="12" font-weight="bold">(L2:13565): semantic</text>
<text x="380.0" y="820.0" text-anchor="middle" fill="#333" font-family="Arial,sans-serif" font-size="12" font-weight="bold">content about &#x27;program&#x27;</text>
<text x="380.0" y="838.0" text-anchor="middle" fill="#666" font-family="monospace" font-size="9">L2:F13565 —  the word &quot;program(me)s&quot;</text>
<circle cx="481.17999999999995" cy="787.0" r="9" fill="#ccc"/>
<text x="481.17999999999995" y="791.0" text-anchor="middle" fill="#666" font-family="monospace" font-size="9" font-weight="bold">1</text>
<rect x="247.04500000000002" y="636.0" width="265.90999999999997" height="58" fill="#e8e8e8" stroke="#999" stroke-width="2" rx="8"/>
<text x="380.0" y="654.0" text-anchor="middle" fill="#333" font-family="Arial,sans-serif" font-size="12" font-weight="bold">Attribution Pattern</text>
<text x="380.0" y="668.0" text-anchor="middle" fill="#333" font-family="Arial,sans-serif" font-size="12" font-weight="bold">(L5:7144): proper noun +</text>
<text x="380.0" y="682.0" text-anchor="middle" fill="#333" font-family="Arial,sans-serif" font-size="12" font-weight="bold">&#x27;said&#x27; pattern</text>
<text x="380.0" y="700.0" text-anchor="middle" fill="#666" font-family="monospace" font-size="9">L5:F7144 —  proper nouns followed by the </text>
<circle cx="494.9549999999999" cy="649.0" r="9" fill="#ccc"/>
<text x="494.9549999999999" y="653.0" text-anchor="middle" fill="#666" font-family="monospace" font-size="9" font-weight="bold">1</text>
<rect x="273.0" y="70.0" width="214.0" height="44" fill="#e8e8e8" stroke="#999" stroke-width="2" rx="8"/>
<text x="380.0" y="88.0" text-anchor="middle" fill="#333" font-family="Arial,sans-serif" font-size="12" font-weight="bold">Output: Contradiction</text>
<text x="380.0" y="102.0" text-anchor="middle" fill="#333" font-family="Arial,sans-serif" font-size="12" font-weight="bold">Probe Score (L22 residual</text>
<text x="380.0" y="116.0" text-anchor="middle" fill="#333" font-family="Arial,sans-serif" font-size="12" font-weight="bold">stream probe)</text>
<circle cx="469.0" cy="83.0" r="9" fill="#ccc"/>
<text x="469.0" y="87.0" text-anchor="middle" fill="#666" font-family="monospace" font-size="9" font-weight="bold">0</text>
<line x1="40" y1="1230" x2="1820" y2="1230" stroke="#ddd" stroke-width="1"/>
<text x="40" y="1248" fill="#666" font-family="Arial,sans-serif" font-size="10" font-weight="bold" letter-spacing="1px">PROMPT</text>
<text x="40" y="1266" fill="#333" font-family="monospace" font-size="11">"&lt;bos&gt;Wagonheim said the program not only will benefit the needy, but also will help improve the public image of lawyers."</text>
<text x="40" y="1290" fill="#666" font-family="Arial,sans-serif" font-size="10" font-weight="bold" letter-spacing="1px">TOP OUTPUTS</text>
<rect x="40" y="1295" width="100" height="20" fill="#e8e8e8" stroke="none" rx="6"/>
<text x="45" y="1309" fill="#333" font-family="Arial,sans-serif" font-size="11" font-weight="bold">(empty) <tspan fill="#555" font-size="10">100%</tspan></text>
</svg>