<svg width="1978" height="1345" xmlns="http://www.w3.org/2000/svg">
<rect width="1978" height="1345" fill="#f5f5f5"/>
<rect x="15" y="15" width="1948" height="1315" fill="white" stroke="none" rx="12"/>
<text x="40" y="48" fill="#666" font-family="Arial,sans-serif" font-size="14" font-weight="bold" letter-spacing="1px">ATTRIBUTION CIRCUIT</text>
<text x="25" y="96.0" fill="#999" font-family="monospace" font-size="10" font-weight="bold" text-anchor="start">L36</text>
<text x="25" y="227.0" fill="#999" font-family="monospace" font-size="10" font-weight="bold" text-anchor="start">L18</text>
<text x="25" y="365.0" fill="#999" font-family="monospace" font-size="10" font-weight="bold" text-anchor="start">L12</text>
<text x="25" y="503.0" fill="#999" font-family="monospace" font-size="10" font-weight="bold" text-anchor="start">L7</text>
<text x="25" y="648.0" fill="#999" font-family="monospace" font-size="10" font-weight="bold" text-anchor="start">L6</text>
<text x="25" y="800.0" fill="#999" font-family="monospace" font-size="10" font-weight="bold" text-anchor="start">L4</text>
<text x="25" y="959.0" fill="#999" font-family="monospace" font-size="10" font-weight="bold" text-anchor="start">L2</text>
<text x="25" y="1118.0" fill="#999" font-family="monospace" font-size="10" font-weight="bold" text-anchor="start">L0</text>
<defs><marker id="arrow" markerWidth="8" markerHeight="6" refX="8" refY="3" orient="auto"><polygon points="0,0 8,3 0,6" fill="#8B4513" fill-opacity="0.7"/></marker></defs>
<path d="M 180.0,1143.0 C 365.99924999999996,1110.5 1233.9957499999998,1110.5 1419.995,1078.0" fill="none" stroke="#8B4513" stroke-width="3" stroke-opacity="0.6" marker-end="url(#arrow)"/>
<path d="M 180.0,1085.0 C 210.0,958.5 350.0,958.5 380.0,832.0" fill="none" stroke="#8B4513" stroke-width="3" stroke-opacity="0.6" marker-end="url(#arrow)"/>
<path d="M 180.0,1085.0 C 210.0,882.5 350.0,882.5 380.0,680.0" fill="none" stroke="#8B4513" stroke-width="3" stroke-opacity="0.6" marker-end="url(#arrow)"/>
<path d="M 180.0,1085.0 C 210.0,668.5 350.0,668.5 380.0,252.0" fill="none" stroke="#8B4513" stroke-width="3" stroke-opacity="0.6" marker-end="url(#arrow)"/>
<path d="M 420.0,1085.0 C 414.0,882.5 386.0,882.5 380.0,680.0" fill="none" stroke="#8B4513" stroke-width="3" stroke-opacity="0.6" marker-end="url(#arrow)"/>
<path d="M 420.0,1085.0 C 414.0,958.5 386.0,958.5 380.0,832.0" fill="none" stroke="#8B4513" stroke-width="3" stroke-opacity="0.6" marker-end="url(#arrow)"/>
<path d="M 420.0,1085.0 C 414.0,737.5 386.0,737.5 380.0,390.0" fill="none" stroke="#8B4513" stroke-width="3" stroke-opacity="0.6" marker-end="url(#arrow)"/>
<path d="M 660.0,1143.0 C 819.8857499999999,1114.0 1566.0192499999998,1114.0 1725.9049999999997,1085.0" fill="none" stroke="#8B4513" stroke-width="3" stroke-opacity="0.6" marker-end="url(#arrow)"/>
<path d="M 903.52,1143.0 C 1026.8777499999999,1114.0 1602.5472499999998,1114.0 1725.9049999999997,1085.0" fill="none" stroke="#8B4513" stroke-width="3" stroke-opacity="0.6" marker-end="url(#arrow)"/>
<path d="M 1147.04,1085.0 C 1054.92725,1034.5 625.0677499999999,1034.5 532.9549999999999,984.0" fill="none" stroke="#8B4513" stroke-width="3" stroke-opacity="0.6" marker-end="url(#arrow)"/>
<path d="M 1419.995,1078.0 C 1263.9957499999998,955.0 535.99925,955.0 380.0,832.0" fill="none" stroke="#8B4513" stroke-width="3" stroke-opacity="0.6" marker-end="url(#arrow)"/>
<path d="M 1419.995,1078.0 C 1263.9957499999998,879.0 535.99925,879.0 380.0,680.0" fill="none" stroke="#8B4513" stroke-width="3" stroke-opacity="0.6" marker-end="url(#arrow)"/>
<path d="M 1725.9049999999997,1085.0 C 1524.0192499999998,599.5 581.8857499999999,599.5 380.0,114.0" fill="none" stroke="#8B4513" stroke-width="3" stroke-opacity="0.6" marker-end="url(#arrow)"/>
<path d="M 227.04500000000002,912.0 C 249.98825000000002,872.0 357.05675,872.0 380.0,832.0" fill="none" stroke="#8B4513" stroke-width="3" stroke-opacity="0.6" marker-end="url(#arrow)"/>
<path d="M 227.04500000000002,998.0 C 272.9315,962.0 487.0685,962.0 532.9549999999999,926.0" fill="none" stroke="#8B4513" stroke-width="3" stroke-opacity="0.6" marker-end="url(#arrow)"/>
<path d="M 532.9549999999999,926.0 C 510.01174999999995,879.0 402.94325,879.0 380.0,832.0" fill="none" stroke="#8B4513" stroke-width="3" stroke-opacity="0.6" marker-end="url(#arrow)"/>
<path d="M 380.0,760.0 C 380.0,720.0 380.0,720.0 380.0,680.0" fill="none" stroke="#8B4513" stroke-width="3" stroke-opacity="0.6" marker-end="url(#arrow)"/>
<path d="M 380.0,760.0 C 380.0,575.0 380.0,575.0 380.0,390.0" fill="none" stroke="#8B4513" stroke-width="3" stroke-opacity="0.6" marker-end="url(#arrow)"/>
<path d="M 380.0,608.0 C 380.0,499.0 380.0,499.0 380.0,390.0" fill="none" stroke="#8B4513" stroke-width="3" stroke-opacity="0.6" marker-end="url(#arrow)"/>
<path d="M 380.0,608.0 C 380.0,430.0 380.0,430.0 380.0,252.0" fill="none" stroke="#8B4513" stroke-width="3" stroke-opacity="0.6" marker-end="url(#arrow)"/>
<path d="M 380.0,608.0 C 380.0,568.0 380.0,568.0 380.0,528.0" fill="none" stroke="#8B4513" stroke-width="3" stroke-opacity="0.6" marker-end="url(#arrow)"/>
<path d="M 380.0,332.0 C 380.0,223.0 380.0,223.0 380.0,114.0" fill="none" stroke="#8B4513" stroke-width="3" stroke-opacity="0.6" marker-end="url(#arrow)"/>
<path d="M 380.0,470.0 C 380.0,292.0 380.0,292.0 380.0,114.0" fill="none" stroke="#8B4513" stroke-width="3" stroke-opacity="0.6" marker-end="url(#arrow)"/>
<path d="M 380.0,194.0 C 380.0,154.0 380.0,154.0 380.0,114.0" fill="none" stroke="#8B4513" stroke-width="3" stroke-opacity="0.6" marker-end="url(#arrow)"/>
<rect x="80.0" y="1085.0" width="200" height="58" fill="#e8e8e8" stroke="#999" stroke-width="2" rx="8"/>
<text x="180.0" y="1103.0" text-anchor="middle" fill="#333" font-family="Arial,sans-serif" font-size="12" font-weight="bold">Emb: &#x27;She&#x27; (pos 1)</text>
<text x="180.0" y="1121.0" text-anchor="middle" fill="#666" font-family="monospace" font-size="9">L0:F-1</text>
<circle cx="262.0" cy="1098.0" r="9" fill="#ccc"/>
<text x="262.0" y="1102.0" text-anchor="middle" fill="#666" font-family="monospace" font-size="9" font-weight="bold">1</text>
<rect x="320.0" y="1085.0" width="200" height="58" fill="#e8e8e8" stroke="#999" stroke-width="2" rx="8"/>
<text x="420.0" y="1103.0" text-anchor="middle" fill="#333" font-family="Arial,sans-serif" font-size="12" font-weight="bold">Emb: &#x27;loves&#x27; (pos 2)</text>
<text x="420.0" y="1121.0" text-anchor="middle" fill="#666" font-family="monospace" font-size="9">L0:F-1</text>
<circle cx="502.0" cy="1098.0" r="9" fill="#ccc"/>
<text x="502.0" y="1102.0" text-anchor="middle" fill="#666" font-family="monospace" font-size="9" font-weight="bold">1</text>
<rect x="560.0" y="1085.0" width="200" height="58" fill="#e8e8e8" stroke="#999" stroke-width="2" rx="8"/>
<text x="660.0" y="1103.0" text-anchor="middle" fill="#333" font-family="Arial,sans-serif" font-size="12" font-weight="bold">Emb: &#x27;her&#x27; (pos 4)</text>
<text x="660.0" y="1121.0" text-anchor="middle" fill="#666" font-family="monospace" font-size="9">L0:F-1</text>
<circle cx="742.0" cy="1098.0" r="9" fill="#ccc"/>
<text x="742.0" y="1102.0" text-anchor="middle" fill="#666" font-family="monospace" font-size="9" font-weight="bold">1</text>
<rect x="800.0" y="1085.0" width="207.04" height="58" fill="#e8e8e8" stroke="#999" stroke-width="2" rx="8"/>
<text x="903.52" y="1103.0" text-anchor="middle" fill="#333" font-family="Arial,sans-serif" font-size="12" font-weight="bold">Emb: &#x27;educating&#x27; (pos 3)</text>
<text x="903.52" y="1121.0" text-anchor="middle" fill="#666" font-family="monospace" font-size="9">L0:F-1</text>
<circle cx="989.04" cy="1098.0" r="9" fill="#ccc"/>
<text x="989.04" y="1102.0" text-anchor="middle" fill="#666" font-family="monospace" font-size="9" font-weight="bold">1</text>
<rect x="1047.04" y="1085.0" width="200" height="58" fill="#e8e8e8" stroke="#999" stroke-width="2" rx="8"/>
<text x="1147.04" y="1103.0" text-anchor="middle" fill="#333" font-family="Arial,sans-serif" font-size="12" font-weight="bold">Emb: &lt;bos&gt; (pos 0)</text>
<text x="1147.04" y="1121.0" text-anchor="middle" fill="#666" font-family="monospace" font-size="9">L0:F-1</text>
<circle cx="1229.04" cy="1098.0" r="9" fill="#ccc"/>
<text x="1229.04" y="1102.0" text-anchor="middle" fill="#666" font-family="monospace" font-size="9" font-weight="bold">1</text>
<rect x="1287.04" y="1078.0" width="265.90999999999997" height="72" fill="#e8e8e8" stroke="#999" stroke-width="2" rx="8"/>
<text x="1419.995" y="1096.0" text-anchor="middle" fill="#333" font-family="Arial,sans-serif" font-size="12" font-weight="bold">L0: &#x27;she&#x27; pronoun</text>
<text x="1419.995" y="1110.0" text-anchor="middle" fill="#333" font-family="Arial,sans-serif" font-size="12" font-weight="bold">detectors</text>
<text x="1419.995" y="1128.0" text-anchor="middle" fill="#666" font-family="monospace" font-size="9">L0:F12519 —  the pronoun &quot;she&quot;</text>
<text x="1419.995" y="1142.0" text-anchor="middle" fill="#666" font-family="monospace" font-size="9">L0:F9519 —  the pronoun &quot;she&quot; and the pos</text>
<circle cx="1534.9499999999998" cy="1091.0" r="9" fill="#ccc"/>
<text x="1534.9499999999998" y="1095.0" text-anchor="middle" fill="#666" font-family="monospace" font-size="9" font-weight="bold">2</text>
<rect x="1592.9499999999998" y="1085.0" width="265.90999999999997" height="58" fill="#e8e8e8" stroke="#999" stroke-width="2" rx="8"/>
<text x="1725.9049999999997" y="1103.0" text-anchor="middle" fill="#333" font-family="Arial,sans-serif" font-size="12" font-weight="bold">L0: Female pronoun</text>
<text x="1725.9049999999997" y="1117.0" text-anchor="middle" fill="#333" font-family="Arial,sans-serif" font-size="12" font-weight="bold">suppressor</text>
<text x="1725.9049999999997" y="1135.0" text-anchor="middle" fill="#666" font-family="monospace" font-size="9">L0:F7509 —  female pronouns and words lik</text>
<circle cx="1840.8599999999997" cy="1098.0" r="9" fill="#ccc"/>
<text x="1840.8599999999997" y="1102.0" text-anchor="middle" fill="#666" font-family="monospace" font-size="9" font-weight="bold">1</text>
<rect x="94.09000000000003" y="912.0" width="265.90999999999997" height="86" fill="#e8e8e8" stroke="#999" stroke-width="2" rx="8"/>
<text x="227.04500000000002" y="930.0" text-anchor="middle" fill="#333" font-family="Arial,sans-serif" font-size="12" font-weight="bold">L2: Gender pronoun</text>
<text x="227.04500000000002" y="944.0" text-anchor="middle" fill="#333" font-family="Arial,sans-serif" font-size="12" font-weight="bold">detectors</text>
<text x="227.04500000000002" y="962.0" text-anchor="middle" fill="#666" font-family="monospace" font-size="9">L2:F2128 —  pronouns, especially &quot;he/him/</text>
<text x="227.04500000000002" y="976.0" text-anchor="middle" fill="#666" font-family="monospace" font-size="9">L2:F8966 —  the pronoun &quot;she&quot;</text>
<text x="227.04500000000002" y="990.0" text-anchor="middle" fill="#666" font-family="monospace" font-size="9">L2:F9233 —  the pronouns &quot;she&quot; and &quot;he&quot;</text>
<circle cx="342.0" cy="925.0" r="9" fill="#ccc"/>
<text x="342.0" y="929.0" text-anchor="middle" fill="#666" font-family="monospace" font-size="9" font-weight="bold">3</text>
<rect x="399.99999999999994" y="926.0" width="265.90999999999997" height="58" fill="#e8e8e8" stroke="#999" stroke-width="2" rx="8"/>
<text x="532.9549999999999" y="944.0" text-anchor="middle" fill="#333" font-family="Arial,sans-serif" font-size="12" font-weight="bold">L2: Women mentions by</text>
<text x="532.9549999999999" y="958.0" text-anchor="middle" fill="#333" font-family="Arial,sans-serif" font-size="12" font-weight="bold">name/relationship</text>
<text x="532.9549999999999" y="976.0" text-anchor="middle" fill="#666" font-family="monospace" font-size="9">L2:F7672 —  mentions of women by name and</text>
<circle cx="647.9099999999999" cy="939.0" r="9" fill="#ccc"/>
<text x="647.9099999999999" y="943.0" text-anchor="middle" fill="#666" font-family="monospace" font-size="9" font-weight="bold">1</text>
<rect x="244.29000000000002" y="760.0" width="271.41999999999996" height="72" fill="#e8e8e8" stroke="#999" stroke-width="2" rx="8"/>
<text x="380.0" y="778.0" text-anchor="middle" fill="#333" font-family="Arial,sans-serif" font-size="12" font-weight="bold">L4: Gender-entity detector</text>
<text x="380.0" y="792.0" text-anchor="middle" fill="#333" font-family="Arial,sans-serif" font-size="12" font-weight="bold">(female entities)</text>
<text x="380.0" y="810.0" text-anchor="middle" fill="#666" font-family="monospace" font-size="9">L4:F15317 —  named entities like character</text>
<text x="380.0" y="824.0" text-anchor="middle" fill="#666" font-family="monospace" font-size="9">L4:F7864 — xml or source code snippets, e</text>
<circle cx="497.71000000000004" cy="773.0" r="9" fill="#ccc"/>
<text x="497.71000000000004" y="777.0" text-anchor="middle" fill="#666" font-family="monospace" font-size="9" font-weight="bold">2</text>
<rect x="244.29000000000002" y="608.0" width="271.41999999999996" height="72" fill="#e8e8e8" stroke="#999" stroke-width="2" rx="8"/>
<text x="380.0" y="626.0" text-anchor="middle" fill="#333" font-family="Arial,sans-serif" font-size="12" font-weight="bold">L6: References to women</text>
<text x="380.0" y="640.0" text-anchor="middle" fill="#333" font-family="Arial,sans-serif" font-size="12" font-weight="bold">(pronouns/titles)</text>
<text x="380.0" y="658.0" text-anchor="middle" fill="#666" font-family="monospace" font-size="9">L6:F11646 —  references to women, potentia</text>
<text x="380.0" y="672.0" text-anchor="middle" fill="#666" font-family="monospace" font-size="9">L6:F11646 —  references to women, potentia</text>
<circle cx="497.71000000000004" cy="621.0" r="9" fill="#ccc"/>
<text x="497.71000000000004" y="625.0" text-anchor="middle" fill="#666" font-family="monospace" font-size="9" font-weight="bold">2</text>
<rect x="247.04500000000002" y="470.0" width="265.90999999999997" height="58" fill="#e8e8e8" stroke="#999" stroke-width="2" rx="8"/>
<text x="380.0" y="488.0" text-anchor="middle" fill="#333" font-family="Arial,sans-serif" font-size="12" font-weight="bold">L7: Woman&#x27;s name</text>
<text x="380.0" y="502.0" text-anchor="middle" fill="#333" font-family="Arial,sans-serif" font-size="12" font-weight="bold">(suppresses female</text>
<text x="380.0" y="516.0" text-anchor="middle" fill="#333" font-family="Arial,sans-serif" font-size="12" font-weight="bold">pronouns)</text>
<text x="380.0" y="534.0" text-anchor="middle" fill="#666" font-family="monospace" font-size="9">L7:F8644 —  woman&#x27;s name in a variety of </text>
<circle cx="494.9549999999999" cy="483.0" r="9" fill="#ccc"/>
<text x="494.9549999999999" y="487.0" text-anchor="middle" fill="#666" font-family="monospace" font-size="9" font-weight="bold">1</text>
<rect x="241.53500000000003" y="332.0" width="276.92999999999995" height="58" fill="#e8e8e8" stroke="#999" stroke-width="2" rx="8"/>
<text x="380.0" y="350.0" text-anchor="middle" fill="#333" font-family="Arial,sans-serif" font-size="12" font-weight="bold">L12: Female</text>
<text x="380.0" y="364.0" text-anchor="middle" fill="#333" font-family="Arial,sans-serif" font-size="12" font-weight="bold">pronouns/possessives</text>
<text x="380.0" y="382.0" text-anchor="middle" fill="#666" font-family="monospace" font-size="9">L12:F12940 — references to female pronouns </text>
<circle cx="500.4649999999999" cy="345.0" r="9" fill="#ccc"/>
<text x="500.4649999999999" y="349.0" text-anchor="middle" fill="#666" font-family="monospace" font-size="9" font-weight="bold">1</text>
<rect x="241.53500000000003" y="194.0" width="276.92999999999995" height="58" fill="#e8e8e8" stroke="#999" stroke-width="2" rx="8"/>
<text x="380.0" y="212.0" text-anchor="middle" fill="#333" font-family="Arial,sans-serif" font-size="12" font-weight="bold">L18: Women/girls mentions</text>
<text x="380.0" y="230.0" text-anchor="middle" fill="#666" font-family="monospace" font-size="9">L18:F14677 —  instances of women or girls b</text>
<circle cx="500.4649999999999" cy="207.0" r="9" fill="#ccc"/>
<text x="500.4649999999999" y="211.0" text-anchor="middle" fill="#666" font-family="monospace" font-size="9" font-weight="bold">1</text>
<rect x="280.0" y="70.0" width="200" height="44" fill="#e8e8e8" stroke="#999" stroke-width="2" rx="8"/>
<text x="380.0" y="88.0" text-anchor="middle" fill="#333" font-family="Arial,sans-serif" font-size="12" font-weight="bold">Output: Probe Score</text>
<circle cx="462.0" cy="83.0" r="9" fill="#ccc"/>
<text x="462.0" y="87.0" text-anchor="middle" fill="#666" font-family="monospace" font-size="9" font-weight="bold">0</text>
<line x1="40" y1="1230" x2="1938" y2="1230" stroke="#ddd" stroke-width="1"/>
<text x="40" y="1248" fill="#666" font-family="Arial,sans-serif" font-size="10" font-weight="bold" letter-spacing="1px">PROMPT</text>
<text x="40" y="1266" fill="#333" font-family="monospace" font-size="11">"&lt;bos&gt;She loves educating her clients on how to eat healthier. Sarah is a member of the Academy of Nutrition and Dietetic"</text>
<text x="40" y="1290" fill="#666" font-family="Arial,sans-serif" font-size="10" font-weight="bold" letter-spacing="1px">TOP OUTPUTS</text>
<rect x="40" y="1295" width="100" height="20" fill="#e8e8e8" stroke="none" rx="6"/>
<text x="45" y="1309" fill="#333" font-family="Arial,sans-serif" font-size="11" font-weight="bold">(empty) <tspan fill="#555" font-size="10">100%</tspan></text>
</svg>