<svg width="796" height="723" xmlns="http://www.w3.org/2000/svg">
<rect width="796" height="723" fill="#f5f5f5"/>
<rect x="15" y="15" width="766" height="693" fill="white" stroke="none" rx="12"/>
<text x="40" y="48" fill="#666" font-family="Arial,sans-serif" font-size="14" font-weight="bold" letter-spacing="1px">ATTRIBUTION CIRCUIT</text>
<text x="25" y="96.0" fill="#999" font-family="monospace" font-size="10" font-weight="bold" text-anchor="start">L36</text>
<text x="25" y="227.0" fill="#999" font-family="monospace" font-size="10" font-weight="bold" text-anchor="start">L32</text>
<text x="25" y="365.0" fill="#999" font-family="monospace" font-size="10" font-weight="bold" text-anchor="start">L31</text>
<text x="25" y="503.0" fill="#999" font-family="monospace" font-size="10" font-weight="bold" text-anchor="start">L29</text>
<defs><marker id="arrow" markerWidth="8" markerHeight="6" refX="8" refY="3" orient="auto"><polygon points="0,0 8,3 0,6" fill="#8B4513" fill-opacity="0.7"/></marker></defs>
<path d="M 500.0,528.0 C 463.994,499.0 295.966,499.0 259.96000000000004,470.0" fill="none" stroke="#8B4513" stroke-width="3" stroke-opacity="0.6" marker-end="url(#arrow)"/>
<path d="M 259.96000000000004,470.0 C 254.19625000000002,430.0 227.29875000000004,430.0 221.53500000000003,390.0" fill="none" stroke="#8B4513" stroke-width="3" stroke-opacity="0.6" marker-end="url(#arrow)"/>
<path d="M 221.53500000000003,332.0 C 245.30475,223.0 356.23025,223.0 380.0,114.0" fill="none" stroke="#8B4513" stroke-width="3" stroke-opacity="0.6" marker-end="url(#arrow)"/>
<path d="M 538.4649999999999,332.0 C 514.69525,223.0 403.76975,223.0 380.0,114.0" fill="none" stroke="#8B4513" stroke-width="3" stroke-opacity="0.6" marker-end="url(#arrow)"/>
<path d="M 380.0,194.0 C 380.0,154.0 380.0,154.0 380.0,114.0" fill="none" stroke="#8B4513" stroke-width="3" stroke-opacity="0.6" marker-end="url(#arrow)"/>
<rect x="83.07000000000005" y="332.0" width="276.92999999999995" height="58" fill="#e8e8e8" stroke="#999" stroke-width="2" rx="8"/>
<text x="221.53500000000003" y="350.0" text-anchor="middle" fill="#333" font-family="Arial,sans-serif" font-size="12" font-weight="bold">Gold/Treasure Trove</text>
<text x="221.53500000000003" y="364.0" text-anchor="middle" fill="#333" font-family="Arial,sans-serif" font-size="12" font-weight="bold">Detection</text>
<text x="221.53500000000003" y="382.0" text-anchor="middle" fill="#666" font-family="monospace" font-size="9">L31:F99093 — Detects &quot;treasure trove&quot; or me</text>
<circle cx="342.0" cy="345.0" r="9" fill="#ccc"/>
<text x="342.0" y="349.0" text-anchor="middle" fill="#666" font-family="monospace" font-size="9" font-weight="bold">1</text>
<rect x="159.96000000000004" y="470.0" width="200" height="58" fill="#e8e8e8" stroke="#999" stroke-width="2" rx="8"/>
<text x="259.96000000000004" y="488.0" text-anchor="middle" fill="#333" font-family="Arial,sans-serif" font-size="12" font-weight="bold">Layer 29 Gold-related</text>
<text x="259.96000000000004" y="502.0" text-anchor="middle" fill="#333" font-family="Arial,sans-serif" font-size="12" font-weight="bold">Feature</text>
<text x="259.96000000000004" y="520.0" text-anchor="middle" fill="#666" font-family="monospace" font-size="9">L29:F36298</text>
<circle cx="341.96000000000004" cy="483.0" r="9" fill="#ccc"/>
<text x="341.96000000000004" y="487.0" text-anchor="middle" fill="#666" font-family="monospace" font-size="9" font-weight="bold">1</text>
<rect x="399.96000000000004" y="470.0" width="200.07999999999998" height="58" fill="#e8e8e8" stroke="#999" stroke-width="2" rx="8"/>
<text x="500.0" y="488.0" text-anchor="middle" fill="#333" font-family="Arial,sans-serif" font-size="12" font-weight="bold">Layer 29 Gold Feature 2</text>
<text x="500.0" y="506.0" text-anchor="middle" fill="#666" font-family="monospace" font-size="9">L29:F96938</text>
<circle cx="582.04" cy="483.0" r="9" fill="#ccc"/>
<text x="582.04" y="487.0" text-anchor="middle" fill="#666" font-family="monospace" font-size="9" font-weight="bold">1</text>
<rect x="399.99999999999994" y="332.0" width="276.92999999999995" height="58" fill="#e8e8e8" stroke="#999" stroke-width="2" rx="8"/>
<text x="538.4649999999999" y="350.0" text-anchor="middle" fill="#333" font-family="Arial,sans-serif" font-size="12" font-weight="bold">Revolution Detection</text>
<text x="538.4649999999999" y="368.0" text-anchor="middle" fill="#666" font-family="monospace" font-size="9">L31:F78024 — Detects the word &quot;revolution&quot; </text>
<circle cx="658.9299999999998" cy="345.0" r="9" fill="#ccc"/>
<text x="658.9299999999998" y="349.0" text-anchor="middle" fill="#666" font-family="monospace" font-size="9" font-weight="bold">1</text>
<rect x="258.065" y="194.0" width="243.86999999999998" height="58" fill="#e8e8e8" stroke="#999" stroke-width="2" rx="8"/>
<text x="380.0" y="212.0" text-anchor="middle" fill="#333" font-family="Arial,sans-serif" font-size="12" font-weight="bold">Rhyme/Fountain Detection</text>
<text x="380.0" y="230.0" text-anchor="middle" fill="#666" font-family="monospace" font-size="9">L32:F84181 — No explanation available</text>
<circle cx="483.93499999999995" cy="207.0" r="9" fill="#ccc"/>
<text x="483.93499999999995" y="211.0" text-anchor="middle" fill="#666" font-family="monospace" font-size="9" font-weight="bold">1</text>
<rect x="280.0" y="70.0" width="200" height="44" fill="#e8e8e8" stroke="#999" stroke-width="2" rx="8"/>
<text x="380.0" y="88.0" text-anchor="middle" fill="#333" font-family="Arial,sans-serif" font-size="12" font-weight="bold">Output Layer</text>
<circle cx="462.0" cy="83.0" r="9" fill="#ccc"/>
<text x="462.0" y="87.0" text-anchor="middle" fill="#666" font-family="monospace" font-size="9" font-weight="bold">0</text>
<line x1="40" y1="608" x2="756" y2="608" stroke="#ddd" stroke-width="1"/>
<text x="40" y="626" fill="#666" font-family="Arial,sans-serif" font-size="10" font-weight="bold" letter-spacing="1px">PROMPT</text>
<text x="40" y="644" fill="#333" font-family="monospace" font-size="11">"Just say the word."</text>
<text x="40" y="668" fill="#666" font-family="Arial,sans-serif" font-size="10" font-weight="bold" letter-spacing="1px">TOP OUTPUTS</text>
</svg>