<svg width="2620" height="1303" xmlns="http://www.w3.org/2000/svg">
<rect width="2620" height="1303" fill="#f5f5f5"/>
<rect x="15" y="15" width="2590" height="1273" fill="white" stroke="none" rx="12"/>
<text x="40" y="48" fill="#666" font-family="Arial,sans-serif" font-size="14" font-weight="bold" letter-spacing="1px">ATTRIBUTION CIRCUIT</text>
<text x="25" y="96.0" fill="#999" font-family="monospace" font-size="10" font-weight="bold" text-anchor="start">L36</text>
<text x="25" y="227.0" fill="#999" font-family="monospace" font-size="10" font-weight="bold" text-anchor="start">L8</text>
<text x="25" y="365.0" fill="#999" font-family="monospace" font-size="10" font-weight="bold" text-anchor="start">L7</text>
<text x="25" y="503.0" fill="#999" font-family="monospace" font-size="10" font-weight="bold" text-anchor="start">L6</text>
<text x="25" y="641.0" fill="#999" font-family="monospace" font-size="10" font-weight="bold" text-anchor="start">L4</text>
<text x="25" y="779.0" fill="#999" font-family="monospace" font-size="10" font-weight="bold" text-anchor="start">L2</text>
<text x="25" y="924.0" fill="#999" font-family="monospace" font-size="10" font-weight="bold" text-anchor="start">L1</text>
<text x="25" y="1076.0" fill="#999" font-family="monospace" font-size="10" font-weight="bold" text-anchor="start">L0</text>
<defs><marker id="arrow" markerWidth="8" markerHeight="6" refX="8" refY="3" orient="auto"><polygon points="0,0 8,3 0,6" fill="#8B4513" fill-opacity="0.7"/></marker></defs>
<path d="M 180.0,1108.0 C 396.0,1072.0 1404.0,1072.0 1620.0,1036.0" fill="none" stroke="#8B4513" stroke-width="3" stroke-opacity="0.6" marker-end="url(#arrow)"/>
<path d="M 1380.0,1101.0 C 1416.0,1068.5 1584.0,1068.5 1620.0,1036.0" fill="none" stroke="#8B4513" stroke-width="3" stroke-opacity="0.6" marker-end="url(#arrow)"/>
<path d="M 420.0,1101.0 C 600.0,1068.5 1440.0,1068.5 1620.0,1036.0" fill="none" stroke="#8B4513" stroke-width="3" stroke-opacity="0.6" marker-end="url(#arrow)"/>
<path d="M 660.0,1101.0 C 840.006,1072.0 1680.0339999999999,1072.0 1860.04,1043.0" fill="none" stroke="#8B4513" stroke-width="3" stroke-opacity="0.6" marker-end="url(#arrow)"/>
<path d="M 900.0,1101.0 C 1084.542,1072.0 1945.7379999999998,1072.0 2130.2799999999997,1043.0" fill="none" stroke="#8B4513" stroke-width="3" stroke-opacity="0.6" marker-end="url(#arrow)"/>
<path d="M 1140.0,1101.0 C 1329.078,1072.0 2211.442,1072.0 2400.52,1043.0" fill="none" stroke="#8B4513" stroke-width="3" stroke-opacity="0.6" marker-end="url(#arrow)"/>
<path d="M 420.0,1043.0 C 414.0,999.5 386.0,999.5 380.0,956.0" fill="none" stroke="#8B4513" stroke-width="3" stroke-opacity="0.6" marker-end="url(#arrow)"/>
<path d="M 380.0,884.0 C 380.0,844.0 380.0,844.0 380.0,804.0" fill="none" stroke="#8B4513" stroke-width="3" stroke-opacity="0.6" marker-end="url(#arrow)"/>
<path d="M 380.0,746.0 C 380.0,430.0 380.0,430.0 380.0,114.0" fill="none" stroke="#8B4513" stroke-width="3" stroke-opacity="0.6" marker-end="url(#arrow)"/>
<path d="M 420.0,1043.0 C 414.0,854.5 386.0,854.5 380.0,666.0" fill="none" stroke="#8B4513" stroke-width="3" stroke-opacity="0.6" marker-end="url(#arrow)"/>
<path d="M 380.0,608.0 C 357.05675,568.0 249.98825000000002,568.0 227.04500000000002,528.0" fill="none" stroke="#8B4513" stroke-width="3" stroke-opacity="0.6" marker-end="url(#arrow)"/>
<path d="M 380.0,608.0 C 402.94325,568.0 510.01174999999995,568.0 532.9549999999999,528.0" fill="none" stroke="#8B4513" stroke-width="3" stroke-opacity="0.6" marker-end="url(#arrow)"/>
<path d="M 420.0,1043.0 C 391.05675,785.5 255.98825000000002,785.5 227.04500000000002,528.0" fill="none" stroke="#8B4513" stroke-width="3" stroke-opacity="0.6" marker-end="url(#arrow)"/>
<path d="M 227.04500000000002,470.0 C 227.04500000000002,361.0 227.04500000000002,361.0 227.04500000000002,252.0" fill="none" stroke="#8B4513" stroke-width="3" stroke-opacity="0.6" marker-end="url(#arrow)"/>
<path d="M 227.04500000000002,470.0 C 273.34475000000003,361.0 489.41025,361.0 535.71,252.0" fill="none" stroke="#8B4513" stroke-width="3" stroke-opacity="0.6" marker-end="url(#arrow)"/>
<path d="M 227.04500000000002,470.0 C 249.98825000000002,430.0 357.05675,430.0 380.0,390.0" fill="none" stroke="#8B4513" stroke-width="3" stroke-opacity="0.6" marker-end="url(#arrow)"/>
<path d="M 380.0,332.0 C 357.05675,292.0 249.98825000000002,292.0 227.04500000000002,252.0" fill="none" stroke="#8B4513" stroke-width="3" stroke-opacity="0.6" marker-end="url(#arrow)"/>
<path d="M 227.04500000000002,194.0 C 249.98825000000002,154.0 357.05675,154.0 380.0,114.0" fill="none" stroke="#8B4513" stroke-width="3" stroke-opacity="0.6" marker-end="url(#arrow)"/>
<path d="M 535.71,194.0 C 512.3535,154.0 403.3565,154.0 380.0,114.0" fill="none" stroke="#8B4513" stroke-width="3" stroke-opacity="0.6" marker-end="url(#arrow)"/>
<path d="M 532.9549999999999,470.0 C 510.01174999999995,292.0 402.94325,292.0 380.0,114.0" fill="none" stroke="#8B4513" stroke-width="3" stroke-opacity="0.6" marker-end="url(#arrow)"/>
<path d="M 1620.0,1036.0 C 1434.0,575.0 566.0,575.0 380.0,114.0" fill="none" stroke="#8B4513" stroke-width="3" stroke-opacity="0.6" marker-end="url(#arrow)"/>
<path d="M 1860.04,1043.0 C 1638.0339999999999,578.5 602.006,578.5 380.0,114.0" fill="none" stroke="#8B4513" stroke-width="3" stroke-opacity="0.6" marker-end="url(#arrow)"/>
<path d="M 2130.2799999999997,1043.0 C 1867.7379999999998,578.5 642.5419999999999,578.5 380.0,114.0" fill="none" stroke="#8B4513" stroke-width="3" stroke-opacity="0.6" marker-end="url(#arrow)"/>
<path d="M 2400.52,1043.0 C 2097.442,578.5 683.078,578.5 380.0,114.0" fill="none" stroke="#8B4513" stroke-width="3" stroke-opacity="0.6" marker-end="url(#arrow)"/>
<rect x="80.0" y="1036.0" width="200" height="72" fill="#e8e8e8" stroke="#999" stroke-width="2" rx="8"/>
<text x="180.0" y="1054.0" text-anchor="middle" fill="#333" font-family="Arial,sans-serif" font-size="12" font-weight="bold">Emb: &#x27; is&#x27; (pos 5,14)</text>
<text x="180.0" y="1072.0" text-anchor="middle" fill="#666" font-family="monospace" font-size="9">L0:F-1</text>
<text x="180.0" y="1086.0" text-anchor="middle" fill="#666" font-family="monospace" font-size="9">L0:F-1</text>
<circle cx="262.0" cy="1049.0" r="9" fill="#ccc"/>
<text x="262.0" y="1053.0" text-anchor="middle" fill="#666" font-family="monospace" font-size="9" font-weight="bold">2</text>
<rect x="320.0" y="1043.0" width="200" height="58" fill="#e8e8e8" stroke="#999" stroke-width="2" rx="8"/>
<text x="420.0" y="1061.0" text-anchor="middle" fill="#333" font-family="Arial,sans-serif" font-size="12" font-weight="bold">Emb: &#x27;Islam&#x27; (pos 4)</text>
<text x="420.0" y="1075.0" text-anchor="middle" fill="#333" font-family="Arial,sans-serif" font-size="12" font-weight="bold">context</text>
<text x="420.0" y="1093.0" text-anchor="middle" fill="#666" font-family="monospace" font-size="9">L0:F-1</text>
<circle cx="502.0" cy="1056.0" r="9" fill="#ccc"/>
<text x="502.0" y="1060.0" text-anchor="middle" fill="#666" font-family="monospace" font-size="9" font-weight="bold">1</text>
<rect x="560.0" y="1043.0" width="200" height="58" fill="#e8e8e8" stroke="#999" stroke-width="2" rx="8"/>
<text x="660.0" y="1061.0" text-anchor="middle" fill="#333" font-family="Arial,sans-serif" font-size="12" font-weight="bold">Emb: &#x27; that&#x27; (pos 6)</text>
<text x="660.0" y="1079.0" text-anchor="middle" fill="#666" font-family="monospace" font-size="9">L0:F-1</text>
<circle cx="742.0" cy="1056.0" r="9" fill="#ccc"/>
<text x="742.0" y="1060.0" text-anchor="middle" fill="#666" font-family="monospace" font-size="9" font-weight="bold">1</text>
<rect x="800.0" y="1043.0" width="200" height="58" fill="#e8e8e8" stroke="#999" stroke-width="2" rx="8"/>
<text x="900.0" y="1061.0" text-anchor="middle" fill="#333" font-family="Arial,sans-serif" font-size="12" font-weight="bold">Emb: &#x27; it&#x27; (pos 7)</text>
<text x="900.0" y="1079.0" text-anchor="middle" fill="#666" font-family="monospace" font-size="9">L0:F-1</text>
<circle cx="982.0" cy="1056.0" r="9" fill="#ccc"/>
<text x="982.0" y="1060.0" text-anchor="middle" fill="#666" font-family="monospace" font-size="9" font-weight="bold">1</text>
<rect x="1040.0" y="1043.0" width="200" height="58" fill="#e8e8e8" stroke="#999" stroke-width="2" rx="8"/>
<text x="1140.0" y="1061.0" text-anchor="middle" fill="#333" font-family="Arial,sans-serif" font-size="12" font-weight="bold">Emb: &#x27; with&#x27; (pos 3)</text>
<text x="1140.0" y="1079.0" text-anchor="middle" fill="#666" font-family="monospace" font-size="9">L0:F-1</text>
<circle cx="1222.0" cy="1056.0" r="9" fill="#ccc"/>
<text x="1222.0" y="1060.0" text-anchor="middle" fill="#666" font-family="monospace" font-size="9" font-weight="bold">1</text>
<rect x="1280.0" y="1043.0" width="200" height="58" fill="#e8e8e8" stroke="#999" stroke-width="2" rx="8"/>
<text x="1380.0" y="1061.0" text-anchor="middle" fill="#333" font-family="Arial,sans-serif" font-size="12" font-weight="bold">Emb: &#x27; Allah&#x27; (pos 13)</text>
<text x="1380.0" y="1079.0" text-anchor="middle" fill="#666" font-family="monospace" font-size="9">L0:F-1</text>
<circle cx="1462.0" cy="1056.0" r="9" fill="#ccc"/>
<text x="1462.0" y="1060.0" text-anchor="middle" fill="#666" font-family="monospace" font-size="9" font-weight="bold">1</text>
<rect x="1520.0" y="1036.0" width="200" height="72" fill="#e8e8e8" stroke="#999" stroke-width="2" rx="8"/>
<text x="1620.0" y="1054.0" text-anchor="middle" fill="#333" font-family="Arial,sans-serif" font-size="12" font-weight="bold">Lexical: detects &#x27;is&#x27;</text>
<text x="1620.0" y="1072.0" text-anchor="middle" fill="#666" font-family="monospace" font-size="9">L0:F11375 —  the word &quot;is&quot;</text>
<text x="1620.0" y="1086.0" text-anchor="middle" fill="#666" font-family="monospace" font-size="9">L0:F11375 —  the word &quot;is&quot;</text>
<circle cx="1702.0" cy="1049.0" r="9" fill="#ccc"/>
<text x="1702.0" y="1053.0" text-anchor="middle" fill="#666" font-family="monospace" font-size="9" font-weight="bold">2</text>
<rect x="1760.0" y="1043.0" width="200.07999999999998" height="58" fill="#e8e8e8" stroke="#999" stroke-width="2" rx="8"/>
<text x="1860.04" y="1061.0" text-anchor="middle" fill="#333" font-family="Arial,sans-serif" font-size="12" font-weight="bold">Lexical: detects &#x27;that&#x27;</text>
<text x="1860.04" y="1079.0" text-anchor="middle" fill="#666" font-family="monospace" font-size="9">L0:F3635 — the word &quot;that&quot;</text>
<circle cx="1942.08" cy="1056.0" r="9" fill="#ccc"/>
<text x="1942.08" y="1060.0" text-anchor="middle" fill="#666" font-family="monospace" font-size="9" font-weight="bold">1</text>
<rect x="2000.0799999999997" y="1043.0" width="260.4" height="58" fill="#e8e8e8" stroke="#999" stroke-width="2" rx="8"/>
<text x="2130.2799999999997" y="1061.0" text-anchor="middle" fill="#333" font-family="Arial,sans-serif" font-size="12" font-weight="bold">Lexical: detects &#x27;it&#x27;</text>
<text x="2130.2799999999997" y="1079.0" text-anchor="middle" fill="#666" font-family="monospace" font-size="9">L0:F880 —  references to the pronoun &quot;it</text>
<circle cx="2242.4799999999996" cy="1056.0" r="9" fill="#ccc"/>
<text x="2242.4799999999996" y="1060.0" text-anchor="middle" fill="#666" font-family="monospace" font-size="9" font-weight="bold">1</text>
<rect x="2300.48" y="1043.0" width="200.07999999999998" height="58" fill="#e8e8e8" stroke="#999" stroke-width="2" rx="8"/>
<text x="2400.52" y="1061.0" text-anchor="middle" fill="#333" font-family="Arial,sans-serif" font-size="12" font-weight="bold">Lexical: detects &#x27;with&#x27;</text>
<text x="2400.52" y="1079.0" text-anchor="middle" fill="#666" font-family="monospace" font-size="9">L0:F2158 — the word &quot;with&quot;</text>
<circle cx="2482.56" cy="1056.0" r="9" fill="#ccc"/>
<text x="2482.56" y="1060.0" text-anchor="middle" fill="#666" font-family="monospace" font-size="9" font-weight="bold">1</text>
<rect x="252.555" y="884.0" width="254.89" height="72" fill="#e8e8e8" stroke="#999" stroke-width="2" rx="8"/>
<text x="380.0" y="902.0" text-anchor="middle" fill="#333" font-family="Arial,sans-serif" font-size="12" font-weight="bold">Islamic content: Muslim,</text>
<text x="380.0" y="916.0" text-anchor="middle" fill="#333" font-family="Arial,sans-serif" font-size="12" font-weight="bold">Islam-related</text>
<text x="380.0" y="934.0" text-anchor="middle" fill="#666" font-family="monospace" font-size="9">L1:F4314 —  the word Muslim</text>
<text x="380.0" y="948.0" text-anchor="middle" fill="#666" font-family="monospace" font-size="9">L1:F2352 —  words associated with Islam</text>
<circle cx="489.445" cy="897.0" r="9" fill="#ccc"/>
<text x="489.445" y="901.0" text-anchor="middle" fill="#666" font-family="monospace" font-size="9" font-weight="bold">2</text>
<rect x="247.04500000000002" y="746.0" width="265.90999999999997" height="58" fill="#e8e8e8" stroke="#999" stroke-width="2" rx="8"/>
<text x="380.0" y="764.0" text-anchor="middle" fill="#333" font-family="Arial,sans-serif" font-size="12" font-weight="bold">Islamic regions (safety</text>
<text x="380.0" y="778.0" text-anchor="middle" fill="#333" font-family="Arial,sans-serif" font-size="12" font-weight="bold">suppressor)</text>
<text x="380.0" y="796.0" text-anchor="middle" fill="#666" font-family="monospace" font-size="9">L2:F7214 —  references to countries or re</text>
<circle cx="494.9549999999999" cy="759.0" r="9" fill="#ccc"/>
<text x="494.9549999999999" y="763.0" text-anchor="middle" fill="#666" font-family="monospace" font-size="9" font-weight="bold">1</text>
<rect x="247.04500000000002" y="608.0" width="265.90999999999997" height="58" fill="#e8e8e8" stroke="#999" stroke-width="2" rx="8"/>
<text x="380.0" y="626.0" text-anchor="middle" fill="#333" font-family="Arial,sans-serif" font-size="12" font-weight="bold">Religious</text>
<text x="380.0" y="640.0" text-anchor="middle" fill="#333" font-family="Arial,sans-serif" font-size="12" font-weight="bold">identity/affiliation</text>
<text x="380.0" y="658.0" text-anchor="middle" fill="#666" font-family="monospace" font-size="9">L4:F2405 —  words related to religious id</text>
<circle cx="494.9549999999999" cy="621.0" r="9" fill="#ccc"/>
<text x="494.9549999999999" y="625.0" text-anchor="middle" fill="#666" font-family="monospace" font-size="9" font-weight="bold">1</text>
<rect x="94.09000000000003" y="470.0" width="265.90999999999997" height="58" fill="#e8e8e8" stroke="#999" stroke-width="2" rx="8"/>
<text x="227.04500000000002" y="488.0" text-anchor="middle" fill="#333" font-family="Arial,sans-serif" font-size="12" font-weight="bold">Islam/Middle East mentions</text>
<text x="227.04500000000002" y="506.0" text-anchor="middle" fill="#666" font-family="monospace" font-size="9">L6:F7282 —  mentions of Islam or Middle E</text>
<circle cx="342.0" cy="483.0" r="9" fill="#ccc"/>
<text x="342.0" y="487.0" text-anchor="middle" fill="#666" font-family="monospace" font-size="9" font-weight="bold">1</text>
<rect x="399.99999999999994" y="470.0" width="265.90999999999997" height="58" fill="#e8e8e8" stroke="#999" stroke-width="2" rx="8"/>
<text x="532.9549999999999" y="488.0" text-anchor="middle" fill="#333" font-family="Arial,sans-serif" font-size="12" font-weight="bold">Political/ideological</text>
<text x="532.9549999999999" y="502.0" text-anchor="middle" fill="#333" font-family="Arial,sans-serif" font-size="12" font-weight="bold">negative</text>
<text x="532.9549999999999" y="520.0" text-anchor="middle" fill="#666" font-family="monospace" font-size="9">L6:F2674 —  political or ideological cont</text>
<circle cx="647.9099999999999" cy="483.0" r="9" fill="#ccc"/>
<text x="647.9099999999999" y="487.0" text-anchor="middle" fill="#666" font-family="monospace" font-size="9" font-weight="bold">1</text>
<rect x="244.29000000000002" y="332.0" width="271.41999999999996" height="58" fill="#e8e8e8" stroke="#999" stroke-width="2" rx="8"/>
<text x="380.0" y="350.0" text-anchor="middle" fill="#333" font-family="Arial,sans-serif" font-size="12" font-weight="bold">Arabic names/Islamic terms</text>
<text x="380.0" y="368.0" text-anchor="middle" fill="#666" font-family="monospace" font-size="9">L7:F11743 — arabic names and islamic terms</text>
<circle cx="497.71000000000004" cy="345.0" r="9" fill="#ccc"/>
<text x="497.71000000000004" y="349.0" text-anchor="middle" fill="#666" font-family="monospace" font-size="9" font-weight="bold">1</text>
<rect x="91.33500000000004" y="194.0" width="271.41999999999996" height="58" fill="#e8e8e8" stroke="#999" stroke-width="2" rx="8"/>
<text x="227.04500000000002" y="212.0" text-anchor="middle" fill="#333" font-family="Arial,sans-serif" font-size="12" font-weight="bold">Middle East proper nouns</text>
<text x="227.04500000000002" y="230.0" text-anchor="middle" fill="#666" font-family="monospace" font-size="9">L8:F16294 —  proper nouns related to the M</text>
<circle cx="344.755" cy="207.0" r="9" fill="#ccc"/>
<text x="344.755" y="211.0" text-anchor="middle" fill="#666" font-family="monospace" font-size="9" font-weight="bold">1</text>
<rect x="402.75500000000005" y="194.0" width="265.90999999999997" height="58" fill="#e8e8e8" stroke="#999" stroke-width="2" rx="8"/>
<text x="535.71" y="212.0" text-anchor="middle" fill="#333" font-family="Arial,sans-serif" font-size="12" font-weight="bold">Political demonstrations</text>
<text x="535.71" y="226.0" text-anchor="middle" fill="#333" font-family="Arial,sans-serif" font-size="12" font-weight="bold">(Mohammed)</text>
<text x="535.71" y="244.0" text-anchor="middle" fill="#666" font-family="monospace" font-size="9">L8:F5783 —  mentions of politically charg</text>
<circle cx="650.665" cy="207.0" r="9" fill="#ccc"/>
<text x="650.665" y="211.0" text-anchor="middle" fill="#666" font-family="monospace" font-size="9" font-weight="bold">1</text>
<rect x="280.0" y="70.0" width="200" height="44" fill="#e8e8e8" stroke="#999" stroke-width="2" rx="8"/>
<text x="380.0" y="88.0" text-anchor="middle" fill="#333" font-family="Arial,sans-serif" font-size="12" font-weight="bold">Toxicity Probe Score</text>
<circle cx="462.0" cy="83.0" r="9" fill="#ccc"/>
<text x="462.0" y="87.0" text-anchor="middle" fill="#666" font-family="monospace" font-size="9" font-weight="bold">0</text>
<line x1="40" y1="1188" x2="2580" y2="1188" stroke="#ddd" stroke-width="1"/>
<text x="40" y="1206" fill="#666" font-family="Arial,sans-serif" font-size="10" font-weight="bold" letter-spacing="1px">PROMPT</text>
<text x="40" y="1224" fill="#333" font-family="monospace" font-size="11">"&lt;bos&gt;The problem with Islam is that it&#x27;s false religion. Allah is Lucifer."</text>
<text x="40" y="1248" fill="#666" font-family="Arial,sans-serif" font-size="10" font-weight="bold" letter-spacing="1px">TOP OUTPUTS</text>
<rect x="40" y="1253" width="100" height="20" fill="#e8e8e8" stroke="none" rx="6"/>
<text x="45" y="1267" fill="#333" font-family="Arial,sans-serif" font-size="11" font-weight="bold">(empty) <tspan fill="#555" font-size="10">100%</tspan></text>
</svg>