<svg width="1682" height="1333" xmlns="http://www.w3.org/2000/svg">
<rect width="1682" height="1333" fill="#f5f5f5"/>
<rect x="15" y="15" width="1652" height="1303" fill="white" stroke="none" rx="12"/>
<text x="40" y="48" fill="#666" font-family="Arial,sans-serif" font-size="14" font-weight="bold" letter-spacing="1px">ATTRIBUTION CIRCUIT</text>
<text x="25" y="96.0" fill="#999" font-family="monospace" font-size="10" font-weight="bold" text-anchor="start">L36</text>
<text x="25" y="255.0" fill="#999" font-family="monospace" font-size="10" font-weight="bold" text-anchor="start">L18</text>
<text x="25" y="442.0" fill="#999" font-family="monospace" font-size="10" font-weight="bold" text-anchor="start">L15</text>
<text x="25" y="615.0" fill="#999" font-family="monospace" font-size="10" font-weight="bold" text-anchor="start">L7</text>
<text x="25" y="781.0" fill="#999" font-family="monospace" font-size="10" font-weight="bold" text-anchor="start">L5</text>
<text x="25" y="940.0" fill="#999" font-family="monospace" font-size="10" font-weight="bold" text-anchor="start">L2</text>
<text x="25" y="1099.0" fill="#999" font-family="monospace" font-size="10" font-weight="bold" text-anchor="start">L0</text>
<defs><marker id="arrow" markerWidth="8" markerHeight="6" refX="8" refY="3" orient="auto"><polygon points="0,0 8,3 0,6" fill="#8B4513" fill-opacity="0.7"/></marker></defs>
<path d="M 180.0,1117.0 C 292.94325,1084.5 820.0117499999999,1084.5 932.9549999999999,1052.0" fill="none" stroke="#8B4513" stroke-width="3" stroke-opacity="0.6" marker-end="url(#arrow)"/>
<path d="M 180.0,1073.0 C 210.0,946.5 350.0,946.5 380.0,820.0" fill="none" stroke="#8B4513" stroke-width="3" stroke-opacity="0.6" marker-end="url(#arrow)"/>
<path d="M 180.0,1073.0 C 210.0,863.5 350.0,863.5 380.0,654.0" fill="none" stroke="#8B4513" stroke-width="3" stroke-opacity="0.6" marker-end="url(#arrow)"/>
<path d="M 180.0,1073.0 C 232.94324999999998,1022.5 480.01174999999995,1022.5 532.9549999999999,972.0" fill="none" stroke="#8B4513" stroke-width="3" stroke-opacity="0.6" marker-end="url(#arrow)"/>
<path d="M 660.0,1073.0 C 618.0,946.5 422.0,946.5 380.0,820.0" fill="none" stroke="#8B4513" stroke-width="3" stroke-opacity="0.6" marker-end="url(#arrow)"/>
<path d="M 420.0,1117.0 C 496.94325,1084.5 856.0117499999999,1084.5 932.9549999999999,1052.0" fill="none" stroke="#8B4513" stroke-width="3" stroke-opacity="0.6" marker-end="url(#arrow)"/>
<path d="M 420.0,1073.0 C 414.0,780.5 386.0,780.5 380.0,488.0" fill="none" stroke="#8B4513" stroke-width="3" stroke-opacity="0.6" marker-end="url(#arrow)"/>
<path d="M 420.0,1073.0 C 414.0,690.5 386.0,690.5 380.0,308.0" fill="none" stroke="#8B4513" stroke-width="3" stroke-opacity="0.6" marker-end="url(#arrow)"/>
<path d="M 932.9549999999999,1052.0 C 850.0117499999999,936.0 462.94325,936.0 380.0,820.0" fill="none" stroke="#8B4513" stroke-width="3" stroke-opacity="0.6" marker-end="url(#arrow)"/>
<path d="M 532.9549999999999,900.0 C 510.01174999999995,860.0 402.94325,860.0 380.0,820.0" fill="none" stroke="#8B4513" stroke-width="3" stroke-opacity="0.6" marker-end="url(#arrow)"/>
<path d="M 380.0,734.0 C 380.0,694.0 380.0,694.0 380.0,654.0" fill="none" stroke="#8B4513" stroke-width="3" stroke-opacity="0.6" marker-end="url(#arrow)"/>
<path d="M 932.9549999999999,1052.0 C 850.0117499999999,853.0 462.94325,853.0 380.0,654.0" fill="none" stroke="#8B4513" stroke-width="3" stroke-opacity="0.6" marker-end="url(#arrow)"/>
<path d="M 380.0,388.0 C 380.0,348.0 380.0,348.0 380.0,308.0" fill="none" stroke="#8B4513" stroke-width="3" stroke-opacity="0.6" marker-end="url(#arrow)"/>
<path d="M 380.0,568.0 C 380.0,438.0 380.0,438.0 380.0,308.0" fill="none" stroke="#8B4513" stroke-width="3" stroke-opacity="0.6" marker-end="url(#arrow)"/>
<path d="M 380.0,734.0 C 380.0,521.0 380.0,521.0 380.0,308.0" fill="none" stroke="#8B4513" stroke-width="3" stroke-opacity="0.6" marker-end="url(#arrow)"/>
<path d="M 380.0,568.0 C 380.0,341.0 380.0,341.0 380.0,114.0" fill="none" stroke="#8B4513" stroke-width="3" stroke-opacity="0.6" marker-end="url(#arrow)"/>
<path d="M 380.0,194.0 C 380.0,154.0 380.0,154.0 380.0,114.0" fill="none" stroke="#8B4513" stroke-width="3" stroke-opacity="0.6" marker-end="url(#arrow)"/>
<path d="M 380.0,734.0 C 380.0,424.0 380.0,424.0 380.0,114.0" fill="none" stroke="#8B4513" stroke-width="3" stroke-opacity="0.6" marker-end="url(#arrow)"/>
<path d="M 932.9549999999999,1052.0 C 850.0117499999999,583.0 462.94325,583.0 380.0,114.0" fill="none" stroke="#8B4513" stroke-width="3" stroke-opacity="0.6" marker-end="url(#arrow)"/>
<path d="M 1211.3149999999998,1066.0 C 1086.61775,590.0 504.69724999999994,590.0 380.0,114.0" fill="none" stroke="#8B4513" stroke-width="3" stroke-opacity="0.6" marker-end="url(#arrow)"/>
<path d="M 224.29000000000002,907.0 C 247.6465,510.5 356.6435,510.5 380.0,114.0" fill="none" stroke="#8B4513" stroke-width="3" stroke-opacity="0.6" marker-end="url(#arrow)"/>
<path d="M 1459.37,1066.0 C 1297.4644999999998,590.0 541.9055,590.0 380.0,114.0" fill="none" stroke="#8B4513" stroke-width="3" stroke-opacity="0.6" marker-end="url(#arrow)"/>
<rect x="80.0" y="1073.0" width="200" height="44" fill="#e8e8e8" stroke="#999" stroke-width="2" rx="8"/>
<text x="180.0" y="1091.0" text-anchor="middle" fill="#333" font-family="Arial,sans-serif" font-size="12" font-weight="bold">Emb: &#x27;His&#x27; (pos 1)</text>
<circle cx="262.0" cy="1086.0" r="9" fill="#ccc"/>
<text x="262.0" y="1090.0" text-anchor="middle" fill="#666" font-family="monospace" font-size="9" font-weight="bold">0</text>
<rect x="320.0" y="1073.0" width="200" height="44" fill="#e8e8e8" stroke="#999" stroke-width="2" rx="8"/>
<text x="420.0" y="1091.0" text-anchor="middle" fill="#333" font-family="Arial,sans-serif" font-size="12" font-weight="bold">Emb: &#x27;He&#x27; (pos 14)</text>
<circle cx="502.0" cy="1086.0" r="9" fill="#ccc"/>
<text x="502.0" y="1090.0" text-anchor="middle" fill="#666" font-family="monospace" font-size="9" font-weight="bold">0</text>
<rect x="560.0" y="1073.0" width="200" height="44" fill="#e8e8e8" stroke="#999" stroke-width="2" rx="8"/>
<text x="660.0" y="1091.0" text-anchor="middle" fill="#333" font-family="Arial,sans-serif" font-size="12" font-weight="bold">Emb: &#x27;&lt;bos&gt;&#x27; (pos 0)</text>
<circle cx="742.0" cy="1086.0" r="9" fill="#ccc"/>
<text x="742.0" y="1090.0" text-anchor="middle" fill="#666" font-family="monospace" font-size="9" font-weight="bold">0</text>
<rect x="800.0" y="1052.0" width="265.90999999999997" height="86" fill="#e8e8e8" stroke="#999" stroke-width="2" rx="8"/>
<text x="932.9549999999999" y="1070.0" text-anchor="middle" fill="#333" font-family="Arial,sans-serif" font-size="12" font-weight="bold">Early &#x27;his/he&#x27; pronoun</text>
<text x="932.9549999999999" y="1084.0" text-anchor="middle" fill="#333" font-family="Arial,sans-serif" font-size="12" font-weight="bold">detectors (L0-L1)</text>
<text x="932.9549999999999" y="1102.0" text-anchor="middle" fill="#666" font-family="monospace" font-size="9">L0:F2994 — the pronoun &quot;his&quot; and the pron</text>
<text x="932.9549999999999" y="1116.0" text-anchor="middle" fill="#666" font-family="monospace" font-size="9">L1:F7439 —  the possessive pronouns &quot;his&quot;</text>
<text x="932.9549999999999" y="1130.0" text-anchor="middle" fill="#666" font-family="monospace" font-size="9">L0:F1069 —  references to a male person, </text>
<circle cx="1047.9099999999999" cy="1065.0" r="9" fill="#ccc"/>
<text x="1047.9099999999999" y="1069.0" text-anchor="middle" fill="#666" font-family="monospace" font-size="9" font-weight="bold">3</text>
<rect x="1105.9099999999999" y="1066.0" width="210.81" height="58" fill="#e8e8e8" stroke="#999" stroke-width="2" rx="8"/>
<text x="1211.3149999999998" y="1084.0" text-anchor="middle" fill="#333" font-family="Arial,sans-serif" font-size="12" font-weight="bold">Content: &#x27;research&#x27;</text>
<text x="1211.3149999999998" y="1098.0" text-anchor="middle" fill="#333" font-family="Arial,sans-serif" font-size="12" font-weight="bold">detector (L0:4564)</text>
<text x="1211.3149999999998" y="1116.0" text-anchor="middle" fill="#666" font-family="monospace" font-size="9">L0:F4564 — the word &quot;research.&quot;</text>
<circle cx="1298.7199999999998" cy="1079.0" r="9" fill="#ccc"/>
<text x="1298.7199999999998" y="1083.0" text-anchor="middle" fill="#666" font-family="monospace" font-size="9" font-weight="bold">1</text>
<rect x="91.33500000000004" y="907.0" width="265.90999999999997" height="58" fill="#e8e8e8" stroke="#999" stroke-width="2" rx="8"/>
<text x="224.29000000000002" y="925.0" text-anchor="middle" fill="#333" font-family="Arial,sans-serif" font-size="12" font-weight="bold">Content: &#x27;interest&#x27;</text>
<text x="224.29000000000002" y="939.0" text-anchor="middle" fill="#333" font-family="Arial,sans-serif" font-size="12" font-weight="bold">detector (L2:9740)</text>
<text x="224.29000000000002" y="957.0" text-anchor="middle" fill="#666" font-family="monospace" font-size="9">L2:F9740 — the word &quot;interest&quot; and relate</text>
<circle cx="339.245" cy="920.0" r="9" fill="#ccc"/>
<text x="339.245" y="924.0" text-anchor="middle" fill="#666" font-family="monospace" font-size="9" font-weight="bold">1</text>
<rect x="1356.7199999999998" y="1066.0" width="205.29999999999998" height="58" fill="#e8e8e8" stroke="#999" stroke-width="2" rx="8"/>
<text x="1459.37" y="1084.0" text-anchor="middle" fill="#333" font-family="Arial,sans-serif" font-size="12" font-weight="bold">Content: &#x27;science&#x27;</text>
<text x="1459.37" y="1098.0" text-anchor="middle" fill="#333" font-family="Arial,sans-serif" font-size="12" font-weight="bold">detector (L0:2827)</text>
<text x="1459.37" y="1116.0" text-anchor="middle" fill="#666" font-family="monospace" font-size="9">L0:F2827 —  the word &quot;science&quot;</text>
<circle cx="1544.0199999999998" cy="1079.0" r="9" fill="#ccc"/>
<text x="1544.0199999999998" y="1083.0" text-anchor="middle" fill="#666" font-family="monospace" font-size="9" font-weight="bold">1</text>
<rect x="397.24499999999995" y="900.0" width="271.41999999999996" height="72" fill="#e8e8e8" stroke="#999" stroke-width="2" rx="8"/>
<text x="532.9549999999999" y="918.0" text-anchor="middle" fill="#333" font-family="Arial,sans-serif" font-size="12" font-weight="bold">Capitalized/divine &#x27;His&#x27;</text>
<text x="532.9549999999999" y="932.0" text-anchor="middle" fill="#333" font-family="Arial,sans-serif" font-size="12" font-weight="bold">disambiguator (L2-L3)</text>
<text x="532.9549999999999" y="950.0" text-anchor="middle" fill="#666" font-family="monospace" font-size="9">L2:F5491 — references to God in the third</text>
<text x="532.9549999999999" y="964.0" text-anchor="middle" fill="#666" font-family="monospace" font-size="9">L3:F13121 — the word &quot;His&quot; and words that </text>
<circle cx="650.665" cy="913.0" r="9" fill="#ccc"/>
<text x="650.665" y="917.0" text-anchor="middle" fill="#666" font-family="monospace" font-size="9" font-weight="bold">2</text>
<rect x="244.29000000000002" y="734.0" width="271.41999999999996" height="86" fill="#e8e8e8" stroke="#999" stroke-width="2" rx="8"/>
<text x="380.0" y="752.0" text-anchor="middle" fill="#333" font-family="Arial,sans-serif" font-size="12" font-weight="bold">Mid-layer male pronoun</text>
<text x="380.0" y="766.0" text-anchor="middle" fill="#333" font-family="Arial,sans-serif" font-size="12" font-weight="bold">cascade (L4-L6)</text>
<text x="380.0" y="784.0" text-anchor="middle" fill="#666" font-family="monospace" font-size="9">L4:F4315 —  mentions of &quot;his&quot; and other a</text>
<text x="380.0" y="798.0" text-anchor="middle" fill="#666" font-family="monospace" font-size="9">L5:F10952 — third person pronouns in varyi</text>
<text x="380.0" y="812.0" text-anchor="middle" fill="#666" font-family="monospace" font-size="9">L6:F12990 —  male pronouns and titles alon</text>
<circle cx="497.71000000000004" cy="747.0" r="9" fill="#ccc"/>
<text x="497.71000000000004" y="751.0" text-anchor="middle" fill="#666" font-family="monospace" font-size="9" font-weight="bold">3</text>
<rect x="244.29000000000002" y="568.0" width="271.41999999999996" height="86" fill="#e8e8e8" stroke="#999" stroke-width="2" rx="8"/>
<text x="380.0" y="586.0" text-anchor="middle" fill="#333" font-family="Arial,sans-serif" font-size="12" font-weight="bold">L7 gender pronoun pair:</text>
<text x="380.0" y="600.0" text-anchor="middle" fill="#333" font-family="Arial,sans-serif" font-size="12" font-weight="bold">female-promoting vs</text>
<text x="380.0" y="614.0" text-anchor="middle" fill="#333" font-family="Arial,sans-serif" font-size="12" font-weight="bold">male-promoting</text>
<text x="380.0" y="632.0" text-anchor="middle" fill="#666" font-family="monospace" font-size="9">L7:F14893 —  pronouns or possessive pronou</text>
<text x="380.0" y="646.0" text-anchor="middle" fill="#666" font-family="monospace" font-size="9">L7:F14946 —  the possessive pronoun &quot;his&quot; </text>
<text x="380.0" y="660.0" text-anchor="middle" fill="#666" font-family="monospace" font-size="9">L7:F16284 —  mentions of people&#x27;s names an</text>
<circle cx="497.71000000000004" cy="581.0" r="9" fill="#ccc"/>
<text x="497.71000000000004" y="585.0" text-anchor="middle" fill="#666" font-family="monospace" font-size="9" font-weight="bold">3</text>
<rect x="244.29000000000002" y="388.0" width="271.41999999999996" height="100" fill="#e8e8e8" stroke="#999" stroke-width="2" rx="8"/>
<text x="380.0" y="406.0" text-anchor="middle" fill="#333" font-family="Arial,sans-serif" font-size="12" font-weight="bold">Pos 14 (&#x27;He&#x27;) pronoun</text>
<text x="380.0" y="420.0" text-anchor="middle" fill="#333" font-family="Arial,sans-serif" font-size="12" font-weight="bold">processing chain (L13-L17)</text>
<text x="380.0" y="438.0" text-anchor="middle" fill="#666" font-family="monospace" font-size="9">L13:F6622 —  pronouns.</text>
<text x="380.0" y="452.0" text-anchor="middle" fill="#666" font-family="monospace" font-size="9">L15:F3330 —  personal stories of individua</text>
<text x="380.0" y="466.0" text-anchor="middle" fill="#666" font-family="monospace" font-size="9">L16:F2918 — Pronouns</text>
<text x="380.0" y="480.0" text-anchor="middle" fill="#666" font-family="monospace" font-size="9">L17:F5889 —  references to people with pro</text>
<circle cx="497.71000000000004" cy="401.0" r="9" fill="#ccc"/>
<text x="497.71000000000004" y="405.0" text-anchor="middle" fill="#666" font-family="monospace" font-size="9" font-weight="bold">4</text>
<rect x="241.53500000000003" y="194.0" width="276.92999999999995" height="114" fill="#e8e8e8" stroke="#999" stroke-width="2" rx="8"/>
<text x="380.0" y="212.0" text-anchor="middle" fill="#333" font-family="Arial,sans-serif" font-size="12" font-weight="bold">Late-layer gender pronoun</text>
<text x="380.0" y="226.0" text-anchor="middle" fill="#333" font-family="Arial,sans-serif" font-size="12" font-weight="bold">features (L18-L19)</text>
<text x="380.0" y="244.0" text-anchor="middle" fill="#666" font-family="monospace" font-size="9">L18:F14743 — He</text>
<text x="380.0" y="258.0" text-anchor="middle" fill="#666" font-family="monospace" font-size="9">L18:F14743 — He</text>
<text x="380.0" y="272.0" text-anchor="middle" fill="#666" font-family="monospace" font-size="9">L18:F7400 —  words related to coding and s</text>
<text x="380.0" y="286.0" text-anchor="middle" fill="#666" font-family="monospace" font-size="9">L18:F10315 —  pronouns and possessive prono</text>
<text x="380.0" y="300.0" text-anchor="middle" fill="#666" font-family="monospace" font-size="9">... +1 more</text>
<circle cx="500.4649999999999" cy="207.0" r="9" fill="#ccc"/>
<text x="500.4649999999999" y="211.0" text-anchor="middle" fill="#666" font-family="monospace" font-size="9" font-weight="bold">5</text>
<rect x="269.52" y="70.0" width="220.95999999999998" height="44" fill="#e8e8e8" stroke="#999" stroke-width="2" rx="8"/>
<text x="380.0" y="88.0" text-anchor="middle" fill="#333" font-family="Arial,sans-serif" font-size="12" font-weight="bold">Probe classification score</text>
<circle cx="472.47999999999996" cy="83.0" r="9" fill="#ccc"/>
<text x="472.47999999999996" y="87.0" text-anchor="middle" fill="#666" font-family="monospace" font-size="9" font-weight="bold">0</text>
<line x1="40" y1="1218" x2="1642" y2="1218" stroke="#ddd" stroke-width="1"/>
<text x="40" y="1236" fill="#666" font-family="Arial,sans-serif" font-size="10" font-weight="bold" letter-spacing="1px">PROMPT</text>
<text x="40" y="1254" fill="#333" font-family="monospace" font-size="11">"&lt;bos&gt;His research interests include large-scale scientific visualization and computer graphics. He received a BS in comp"</text>
<text x="40" y="1278" fill="#666" font-family="Arial,sans-serif" font-size="10" font-weight="bold" letter-spacing="1px">TOP OUTPUTS</text>
<rect x="40" y="1283" width="100" height="20" fill="#e8e8e8" stroke="none" rx="6"/>
<text x="45" y="1297" fill="#333" font-family="Arial,sans-serif" font-size="11" font-weight="bold">(empty) <tspan fill="#555" font-size="10">100%</tspan></text>
</svg>