<svg width="1257" height="2133" xmlns="http://www.w3.org/2000/svg">
<rect width="1257" height="2133" fill="#f5f5f5"/>
<rect x="15" y="15" width="1227" height="2103" fill="white" stroke="none" rx="12"/>
<text x="40" y="48" fill="#666" font-family="Arial,sans-serif" font-size="14" font-weight="bold" letter-spacing="1px">ATTRIBUTION CIRCUIT</text>
<text x="25" y="96.0" fill="#999" font-family="monospace" font-size="10" font-weight="bold" text-anchor="start">L36</text>
<text x="25" y="227.0" fill="#999" font-family="monospace" font-size="10" font-weight="bold" text-anchor="start">L18</text>
<text x="25" y="372.0" fill="#999" font-family="monospace" font-size="10" font-weight="bold" text-anchor="start">L15</text>
<text x="25" y="517.0" fill="#999" font-family="monospace" font-size="10" font-weight="bold" text-anchor="start">L14</text>
<text x="25" y="669.0" fill="#999" font-family="monospace" font-size="10" font-weight="bold" text-anchor="start">L8</text>
<text x="25" y="828.0" fill="#999" font-family="monospace" font-size="10" font-weight="bold" text-anchor="start">L7</text>
<text x="25" y="980.0" fill="#999" font-family="monospace" font-size="10" font-weight="bold" text-anchor="start">L6</text>
<text x="25" y="1132.0" fill="#999" font-family="monospace" font-size="10" font-weight="bold" text-anchor="start">L5</text>
<text x="25" y="1277.0" fill="#999" font-family="monospace" font-size="10" font-weight="bold" text-anchor="start">L4</text>
<text x="25" y="1415.0" fill="#999" font-family="monospace" font-size="10" font-weight="bold" text-anchor="start">L3</text>
<text x="25" y="1567.0" fill="#999" font-family="monospace" font-size="10" font-weight="bold" text-anchor="start">L2</text>
<text x="25" y="1733.0" fill="#999" font-family="monospace" font-size="10" font-weight="bold" text-anchor="start">L1</text>
<text x="25" y="1899.0" fill="#999" font-family="monospace" font-size="10" font-weight="bold" text-anchor="start">L0</text>
<defs><marker id="arrow" markerWidth="8" markerHeight="6" refX="8" refY="3" orient="auto"><polygon points="0,0 8,3 0,6" fill="#8B4513" fill-opacity="0.7"/></marker></defs>
<path d="M 180.0,1873.0 C 210.0,1822.5 350.0,1822.5 380.0,1772.0" fill="none" stroke="#8B4513" stroke-width="3" stroke-opacity="0.6" marker-end="url(#arrow)"/>
<path d="M 180.0,1873.0 C 210.0,1739.5 350.0,1739.5 380.0,1606.0" fill="none" stroke="#8B4513" stroke-width="3" stroke-opacity="0.6" marker-end="url(#arrow)"/>
<path d="M 180.0,1873.0 C 187.05675,1656.5 219.98825000000002,1656.5 227.04500000000002,1440.0" fill="none" stroke="#8B4513" stroke-width="3" stroke-opacity="0.6" marker-end="url(#arrow)"/>
<path d="M 180.0,1873.0 C 233.3565,1656.5 482.35350000000005,1656.5 535.71,1440.0" fill="none" stroke="#8B4513" stroke-width="3" stroke-opacity="0.6" marker-end="url(#arrow)"/>
<path d="M 180.0,1873.0 C 210.0,1587.5 350.0,1587.5 380.0,1302.0" fill="none" stroke="#8B4513" stroke-width="3" stroke-opacity="0.6" marker-end="url(#arrow)"/>
<path d="M 180.0,1873.0 C 210.0,1442.5 350.0,1442.5 380.0,1012.0" fill="none" stroke="#8B4513" stroke-width="3" stroke-opacity="0.6" marker-end="url(#arrow)"/>
<path d="M 180.0,1873.0 C 210.0,1207.5 350.0,1207.5 380.0,542.0" fill="none" stroke="#8B4513" stroke-width="3" stroke-opacity="0.6" marker-end="url(#arrow)"/>
<path d="M 180.0,1873.0 C 210.0,1062.5 350.0,1062.5 380.0,252.0" fill="none" stroke="#8B4513" stroke-width="3" stroke-opacity="0.6" marker-end="url(#arrow)"/>
<path d="M 420.0,1873.0 C 414.0,1442.5 386.0,1442.5 380.0,1012.0" fill="none" stroke="#8B4513" stroke-width="3" stroke-opacity="0.6" marker-end="url(#arrow)"/>
<path d="M 692.9549999999999,1866.0 C 646.0117499999999,1819.0 426.94325,1819.0 380.0,1772.0" fill="none" stroke="#8B4513" stroke-width="3" stroke-opacity="0.6" marker-end="url(#arrow)"/>
<path d="M 692.9549999999999,1866.0 C 646.0117499999999,1736.0 426.94325,1736.0 380.0,1606.0" fill="none" stroke="#8B4513" stroke-width="3" stroke-opacity="0.6" marker-end="url(#arrow)"/>
<path d="M 1001.6199999999999,1852.0 C 908.377,1812.0 473.243,1812.0 380.0,1772.0" fill="none" stroke="#8B4513" stroke-width="3" stroke-opacity="0.6" marker-end="url(#arrow)"/>
<path d="M 1001.6199999999999,1852.0 C 908.377,1729.0 473.243,1729.0 380.0,1606.0" fill="none" stroke="#8B4513" stroke-width="3" stroke-opacity="0.6" marker-end="url(#arrow)"/>
<path d="M 1001.6199999999999,1852.0 C 908.377,983.0 473.243,983.0 380.0,114.0" fill="none" stroke="#8B4513" stroke-width="3" stroke-opacity="0.6" marker-end="url(#arrow)"/>
<path d="M 692.9549999999999,1866.0 C 646.0117499999999,990.0 426.94325,990.0 380.0,114.0" fill="none" stroke="#8B4513" stroke-width="3" stroke-opacity="0.6" marker-end="url(#arrow)"/>
<path d="M 380.0,1686.0 C 380.0,1646.0 380.0,1646.0 380.0,1606.0" fill="none" stroke="#8B4513" stroke-width="3" stroke-opacity="0.6" marker-end="url(#arrow)"/>
<path d="M 380.0,1686.0 C 403.3565,1563.0 512.3535,1563.0 535.71,1440.0" fill="none" stroke="#8B4513" stroke-width="3" stroke-opacity="0.6" marker-end="url(#arrow)"/>
<path d="M 380.0,1520.0 C 380.0,1411.0 380.0,1411.0 380.0,1302.0" fill="none" stroke="#8B4513" stroke-width="3" stroke-opacity="0.6" marker-end="url(#arrow)"/>
<path d="M 535.71,1382.0 C 512.3535,1342.0 403.3565,1342.0 380.0,1302.0" fill="none" stroke="#8B4513" stroke-width="3" stroke-opacity="0.6" marker-end="url(#arrow)"/>
<path d="M 535.71,1382.0 C 512.3535,1197.0 403.3565,1197.0 380.0,1012.0" fill="none" stroke="#8B4513" stroke-width="3" stroke-opacity="0.6" marker-end="url(#arrow)"/>
<path d="M 227.04500000000002,1382.0 C 249.98825000000002,1342.0 357.05675,1342.0 380.0,1302.0" fill="none" stroke="#8B4513" stroke-width="3" stroke-opacity="0.6" marker-end="url(#arrow)"/>
<path d="M 227.04500000000002,1382.0 C 249.98825000000002,1197.0 357.05675,1197.0 380.0,1012.0" fill="none" stroke="#8B4513" stroke-width="3" stroke-opacity="0.6" marker-end="url(#arrow)"/>
<path d="M 227.04500000000002,1382.0 C 272.9315,1121.0 487.0685,1121.0 532.9549999999999,860.0" fill="none" stroke="#8B4513" stroke-width="3" stroke-opacity="0.6" marker-end="url(#arrow)"/>
<path d="M 227.04500000000002,1382.0 C 249.98825000000002,817.0 357.05675,817.0 380.0,252.0" fill="none" stroke="#8B4513" stroke-width="3" stroke-opacity="0.6" marker-end="url(#arrow)"/>
<path d="M 227.04500000000002,1382.0 C 249.98825000000002,748.0 357.05675,748.0 380.0,114.0" fill="none" stroke="#8B4513" stroke-width="3" stroke-opacity="0.6" marker-end="url(#arrow)"/>
<path d="M 380.0,1244.0 C 380.0,1204.0 380.0,1204.0 380.0,1164.0" fill="none" stroke="#8B4513" stroke-width="3" stroke-opacity="0.6" marker-end="url(#arrow)"/>
<path d="M 380.0,1244.0 C 380.0,1128.0 380.0,1128.0 380.0,1012.0" fill="none" stroke="#8B4513" stroke-width="3" stroke-opacity="0.6" marker-end="url(#arrow)"/>
<path d="M 380.0,1244.0 C 402.94325,1052.0 510.01174999999995,1052.0 532.9549999999999,860.0" fill="none" stroke="#8B4513" stroke-width="3" stroke-opacity="0.6" marker-end="url(#arrow)"/>
<path d="M 380.0,1092.0 C 380.0,1052.0 380.0,1052.0 380.0,1012.0" fill="none" stroke="#8B4513" stroke-width="3" stroke-opacity="0.6" marker-end="url(#arrow)"/>
<path d="M 380.0,940.0 C 402.94325,900.0 510.01174999999995,900.0 532.9549999999999,860.0" fill="none" stroke="#8B4513" stroke-width="3" stroke-opacity="0.6" marker-end="url(#arrow)"/>
<path d="M 380.0,940.0 C 380.0,741.0 380.0,741.0 380.0,542.0" fill="none" stroke="#8B4513" stroke-width="3" stroke-opacity="0.6" marker-end="url(#arrow)"/>
<path d="M 380.0,940.0 C 380.0,596.0 380.0,596.0 380.0,252.0" fill="none" stroke="#8B4513" stroke-width="3" stroke-opacity="0.6" marker-end="url(#arrow)"/>
<path d="M 380.0,940.0 C 380.0,527.0 380.0,527.0 380.0,114.0" fill="none" stroke="#8B4513" stroke-width="3" stroke-opacity="0.6" marker-end="url(#arrow)"/>
<path d="M 227.04500000000002,788.0 C 249.98825000000002,665.0 357.05675,665.0 380.0,542.0" fill="none" stroke="#8B4513" stroke-width="3" stroke-opacity="0.6" marker-end="url(#arrow)"/>
<path d="M 227.04500000000002,860.0 C 272.9315,824.0 487.0685,824.0 532.9549999999999,788.0" fill="none" stroke="#8B4513" stroke-width="3" stroke-opacity="0.6" marker-end="url(#arrow)"/>
<path d="M 380.0,622.0 C 380.0,582.0 380.0,582.0 380.0,542.0" fill="none" stroke="#8B4513" stroke-width="3" stroke-opacity="0.6" marker-end="url(#arrow)"/>
<path d="M 380.0,622.0 C 380.0,437.0 380.0,437.0 380.0,252.0" fill="none" stroke="#8B4513" stroke-width="3" stroke-opacity="0.6" marker-end="url(#arrow)"/>
<path d="M 532.9549999999999,788.0 C 510.01174999999995,665.0 402.94325,665.0 380.0,542.0" fill="none" stroke="#8B4513" stroke-width="3" stroke-opacity="0.6" marker-end="url(#arrow)"/>
<path d="M 532.9549999999999,788.0 C 510.01174999999995,520.0 402.94325,520.0 380.0,252.0" fill="none" stroke="#8B4513" stroke-width="3" stroke-opacity="0.6" marker-end="url(#arrow)"/>
<path d="M 532.9549999999999,788.0 C 510.01174999999995,451.0 402.94325,451.0 380.0,114.0" fill="none" stroke="#8B4513" stroke-width="3" stroke-opacity="0.6" marker-end="url(#arrow)"/>
<path d="M 380.0,484.0 C 380.0,368.0 380.0,368.0 380.0,252.0" fill="none" stroke="#8B4513" stroke-width="3" stroke-opacity="0.6" marker-end="url(#arrow)"/>
<path d="M 380.0,484.0 C 380.0,299.0 380.0,299.0 380.0,114.0" fill="none" stroke="#8B4513" stroke-width="3" stroke-opacity="0.6" marker-end="url(#arrow)"/>
<path d="M 380.0,332.0 C 380.0,223.0 380.0,223.0 380.0,114.0" fill="none" stroke="#8B4513" stroke-width="3" stroke-opacity="0.6" marker-end="url(#arrow)"/>
<path d="M 380.0,194.0 C 380.0,154.0 380.0,154.0 380.0,114.0" fill="none" stroke="#8B4513" stroke-width="3" stroke-opacity="0.6" marker-end="url(#arrow)"/>
<path d="M 380.0,622.0 C 380.0,368.0 380.0,368.0 380.0,114.0" fill="none" stroke="#8B4513" stroke-width="3" stroke-opacity="0.6" marker-end="url(#arrow)"/>
<rect x="80.0" y="1873.0" width="200" height="44" fill="#e8e8e8" stroke="#999" stroke-width="2" rx="8"/>
<text x="180.0" y="1891.0" text-anchor="middle" fill="#333" font-family="Arial,sans-serif" font-size="12" font-weight="bold">Emb: Nursing (pos 10)</text>
<circle cx="262.0" cy="1886.0" r="9" fill="#ccc"/>
<text x="262.0" y="1890.0" text-anchor="middle" fill="#666" font-family="monospace" font-size="9" font-weight="bold">0</text>
<rect x="320.0" y="1873.0" width="200" height="44" fill="#e8e8e8" stroke="#999" stroke-width="2" rx="8"/>
<text x="420.0" y="1891.0" text-anchor="middle" fill="#333" font-family="Arial,sans-serif" font-size="12" font-weight="bold">Emb: nursing (pos 22)</text>
<circle cx="502.0" cy="1886.0" r="9" fill="#ccc"/>
<text x="502.0" y="1890.0" text-anchor="middle" fill="#666" font-family="monospace" font-size="9" font-weight="bold">0</text>
<rect x="560.0" y="1866.0" width="265.90999999999997" height="58" fill="#e8e8e8" stroke="#999" stroke-width="2" rx="8"/>
<text x="692.9549999999999" y="1884.0" text-anchor="middle" fill="#333" font-family="Arial,sans-serif" font-size="12" font-weight="bold">Emb: graduated (pos 2)</text>
<text x="692.9549999999999" y="1902.0" text-anchor="middle" fill="#666" font-family="monospace" font-size="9">L0:F5038 — the word &quot;graduated&quot; or variat</text>
<circle cx="807.91" cy="1879.0" r="9" fill="#ccc"/>
<text x="807.91" y="1883.0" text-anchor="middle" fill="#666" font-family="monospace" font-size="9" font-weight="bold">1</text>
<rect x="865.9099999999999" y="1852.0" width="271.41999999999996" height="86" fill="#e8e8e8" stroke="#999" stroke-width="2" rx="8"/>
<text x="1001.6199999999999" y="1870.0" text-anchor="middle" fill="#333" font-family="Arial,sans-serif" font-size="12" font-weight="bold">Emb: Of/Science context</text>
<text x="1001.6199999999999" y="1884.0" text-anchor="middle" fill="#333" font-family="Arial,sans-serif" font-size="12" font-weight="bold">(pos 6,8,14,15)</text>
<text x="1001.6199999999999" y="1902.0" text-anchor="middle" fill="#666" font-family="monospace" font-size="9">L0:F6270 — the word &quot;whom&quot;, sometimes als</text>
<text x="1001.6199999999999" y="1916.0" text-anchor="middle" fill="#666" font-family="monospace" font-size="9">L0:F16075 — the word &quot;of&quot; and court names</text>
<text x="1001.6199999999999" y="1930.0" text-anchor="middle" fill="#666" font-family="monospace" font-size="9">L0:F11988 —  mentions of North Carolina, s</text>
<circle cx="1119.33" cy="1865.0" r="9" fill="#ccc"/>
<text x="1119.33" y="1869.0" text-anchor="middle" fill="#666" font-family="monospace" font-size="9" font-weight="bold">3</text>
<rect x="244.29000000000002" y="1686.0" width="271.41999999999996" height="86" fill="#e8e8e8" stroke="#999" stroke-width="2" rx="8"/>
<text x="380.0" y="1704.0" text-anchor="middle" fill="#333" font-family="Arial,sans-serif" font-size="12" font-weight="bold">Early Nurse/Nursing</text>
<text x="380.0" y="1718.0" text-anchor="middle" fill="#333" font-family="Arial,sans-serif" font-size="12" font-weight="bold">Detection (L1)</text>
<text x="380.0" y="1736.0" text-anchor="middle" fill="#666" font-family="monospace" font-size="9">L1:F14469 —  mentions of &#x27;nurse&#x27;</text>
<text x="380.0" y="1750.0" text-anchor="middle" fill="#666" font-family="monospace" font-size="9">L1:F10429 —  words related to academic pro</text>
<text x="380.0" y="1764.0" text-anchor="middle" fill="#666" font-family="monospace" font-size="9">L1:F12372 —  mentions of US universities a</text>
<circle cx="497.71000000000004" cy="1699.0" r="9" fill="#ccc"/>
<text x="497.71000000000004" y="1703.0" text-anchor="middle" fill="#666" font-family="monospace" font-size="9" font-weight="bold">3</text>
<rect x="247.04500000000002" y="1520.0" width="265.90999999999997" height="86" fill="#e8e8e8" stroke="#999" stroke-width="2" rx="8"/>
<text x="380.0" y="1538.0" text-anchor="middle" fill="#333" font-family="Arial,sans-serif" font-size="12" font-weight="bold">Academic Titles &amp; Degrees</text>
<text x="380.0" y="1552.0" text-anchor="middle" fill="#333" font-family="Arial,sans-serif" font-size="12" font-weight="bold">(L2)</text>
<text x="380.0" y="1570.0" text-anchor="middle" fill="#666" font-family="monospace" font-size="9">L2:F10852 —  academic titles and degrees</text>
<text x="380.0" y="1584.0" text-anchor="middle" fill="#666" font-family="monospace" font-size="9">L2:F9995 —  terms related to occupations </text>
<text x="380.0" y="1598.0" text-anchor="middle" fill="#666" font-family="monospace" font-size="9">L2:F14478 —  the word graduate</text>
<circle cx="494.9549999999999" cy="1533.0" r="9" fill="#ccc"/>
<text x="494.9549999999999" y="1537.0" text-anchor="middle" fill="#666" font-family="monospace" font-size="9" font-weight="bold">3</text>
<rect x="91.33500000000004" y="1382.0" width="271.41999999999996" height="58" fill="#e8e8e8" stroke="#999" stroke-width="2" rx="8"/>
<text x="227.04500000000002" y="1400.0" text-anchor="middle" fill="#333" font-family="Arial,sans-serif" font-size="12" font-weight="bold">Nursing Mention Suppressor</text>
<text x="227.04500000000002" y="1414.0" text-anchor="middle" fill="#333" font-family="Arial,sans-serif" font-size="12" font-weight="bold">(L3) — negative effect</text>
<text x="227.04500000000002" y="1432.0" text-anchor="middle" fill="#666" font-family="monospace" font-size="9">L3:F15901 —  mentions of nurses, nursing, </text>
<circle cx="344.755" cy="1395.0" r="9" fill="#ccc"/>
<text x="344.755" y="1399.0" text-anchor="middle" fill="#666" font-family="monospace" font-size="9" font-weight="bold">1</text>
<rect x="402.75500000000005" y="1382.0" width="265.90999999999997" height="58" fill="#e8e8e8" stroke="#999" stroke-width="2" rx="8"/>
<text x="535.71" y="1400.0" text-anchor="middle" fill="#333" font-family="Arial,sans-serif" font-size="12" font-weight="bold">Nursing Morphology / Nurs-</text>
<text x="535.71" y="1414.0" text-anchor="middle" fill="#333" font-family="Arial,sans-serif" font-size="12" font-weight="bold">pattern (L3)</text>
<text x="535.71" y="1432.0" text-anchor="middle" fill="#666" font-family="monospace" font-size="9">L3:F6246 —  the word &quot;Nutrients&quot; and word</text>
<circle cx="650.665" cy="1395.0" r="9" fill="#ccc"/>
<text x="650.665" y="1399.0" text-anchor="middle" fill="#666" font-family="monospace" font-size="9" font-weight="bold">1</text>
<rect x="244.29000000000002" y="1244.0" width="271.41999999999996" height="58" fill="#e8e8e8" stroke="#999" stroke-width="2" rx="8"/>
<text x="380.0" y="1262.0" text-anchor="middle" fill="#333" font-family="Arial,sans-serif" font-size="12" font-weight="bold">Professional Degree</text>
<text x="380.0" y="1276.0" text-anchor="middle" fill="#333" font-family="Arial,sans-serif" font-size="12" font-weight="bold">Programs (L4)</text>
<text x="380.0" y="1294.0" text-anchor="middle" fill="#666" font-family="monospace" font-size="9">L4:F11037 —  words related to counseling, </text>
<circle cx="497.71000000000004" cy="1257.0" r="9" fill="#ccc"/>
<text x="497.71000000000004" y="1261.0" text-anchor="middle" fill="#666" font-family="monospace" font-size="9" font-weight="bold">1</text>
<rect x="247.04500000000002" y="1092.0" width="265.90999999999997" height="72" fill="#e8e8e8" stroke="#999" stroke-width="2" rx="8"/>
<text x="380.0" y="1110.0" text-anchor="middle" fill="#333" font-family="Arial,sans-serif" font-size="12" font-weight="bold">Healthcare Professionals</text>
<text x="380.0" y="1124.0" text-anchor="middle" fill="#333" font-family="Arial,sans-serif" font-size="12" font-weight="bold">(L5)</text>
<text x="380.0" y="1142.0" text-anchor="middle" fill="#666" font-family="monospace" font-size="9">L5:F1275 — words related to healthcare pr</text>
<text x="380.0" y="1156.0" text-anchor="middle" fill="#666" font-family="monospace" font-size="9">L5:F10392 —  fields of academic study</text>
<circle cx="494.9549999999999" cy="1105.0" r="9" fill="#ccc"/>
<text x="494.9549999999999" y="1109.0" text-anchor="middle" fill="#666" font-family="monospace" font-size="9" font-weight="bold">2</text>
<rect x="244.29000000000002" y="940.0" width="271.41999999999996" height="72" fill="#e8e8e8" stroke="#999" stroke-width="2" rx="8"/>
<text x="380.0" y="958.0" text-anchor="middle" fill="#333" font-family="Arial,sans-serif" font-size="12" font-weight="bold">Nursing Profession</text>
<text x="380.0" y="972.0" text-anchor="middle" fill="#333" font-family="Arial,sans-serif" font-size="12" font-weight="bold">Detector (L6)</text>
<text x="380.0" y="990.0" text-anchor="middle" fill="#666" font-family="monospace" font-size="9">L6:F15267 —  words in the document referri</text>
<text x="380.0" y="1004.0" text-anchor="middle" fill="#666" font-family="monospace" font-size="9">L6:F15267 —  words in the document referri</text>
<circle cx="497.71000000000004" cy="953.0" r="9" fill="#ccc"/>
<text x="497.71000000000004" y="957.0" text-anchor="middle" fill="#666" font-family="monospace" font-size="9" font-weight="bold">2</text>
<rect x="94.09000000000003" y="788.0" width="265.90999999999997" height="72" fill="#e8e8e8" stroke="#999" stroke-width="2" rx="8"/>
<text x="227.04500000000002" y="806.0" text-anchor="middle" fill="#333" font-family="Arial,sans-serif" font-size="12" font-weight="bold">Medical Organizations /</text>
<text x="227.04500000000002" y="820.0" text-anchor="middle" fill="#333" font-family="Arial,sans-serif" font-size="12" font-weight="bold">Hospital Context (L6-7)</text>
<text x="227.04500000000002" y="838.0" text-anchor="middle" fill="#666" font-family="monospace" font-size="9">L6:F4490 —  proper nouns corresponding to</text>
<text x="227.04500000000002" y="852.0" text-anchor="middle" fill="#666" font-family="monospace" font-size="9">L7:F210 —  words and names associated wi</text>
<circle cx="342.0" cy="801.0" r="9" fill="#ccc"/>
<text x="342.0" y="805.0" text-anchor="middle" fill="#666" font-family="monospace" font-size="9" font-weight="bold">2</text>
<rect x="399.99999999999994" y="788.0" width="265.90999999999997" height="72" fill="#e8e8e8" stroke="#999" stroke-width="2" rx="8"/>
<text x="532.9549999999999" y="806.0" text-anchor="middle" fill="#333" font-family="Arial,sans-serif" font-size="12" font-weight="bold">Nursing/Healthcare</text>
<text x="532.9549999999999" y="820.0" text-anchor="middle" fill="#333" font-family="Arial,sans-serif" font-size="12" font-weight="bold">Suppressor (L7) — negative</text>
<text x="532.9549999999999" y="834.0" text-anchor="middle" fill="#333" font-family="Arial,sans-serif" font-size="12" font-weight="bold">effect</text>
<text x="532.9549999999999" y="852.0" text-anchor="middle" fill="#666" font-family="monospace" font-size="9">L7:F3979 —  words related to nursing and </text>
<text x="532.9549999999999" y="866.0" text-anchor="middle" fill="#666" font-family="monospace" font-size="9">L7:F3979 —  words related to nursing and </text>
<circle cx="647.9099999999999" cy="801.0" r="9" fill="#ccc"/>
<text x="647.9099999999999" y="805.0" text-anchor="middle" fill="#666" font-family="monospace" font-size="9" font-weight="bold">2</text>
<rect x="244.29000000000002" y="622.0" width="271.41999999999996" height="86" fill="#e8e8e8" stroke="#999" stroke-width="2" rx="8"/>
<text x="380.0" y="640.0" text-anchor="middle" fill="#333" font-family="Arial,sans-serif" font-size="12" font-weight="bold">Medical Treatment &amp;</text>
<text x="380.0" y="654.0" text-anchor="middle" fill="#333" font-family="Arial,sans-serif" font-size="12" font-weight="bold">Hospital Context (L8)</text>
<text x="380.0" y="672.0" text-anchor="middle" fill="#666" font-family="monospace" font-size="9">L8:F16339 —  text discussing hospital infe</text>
<text x="380.0" y="686.0" text-anchor="middle" fill="#666" font-family="monospace" font-size="9">L8:F9619 —  words and phrases related to </text>
<text x="380.0" y="700.0" text-anchor="middle" fill="#666" font-family="monospace" font-size="9">L8:F440 —  text from professional biogra</text>
<circle cx="497.71000000000004" cy="635.0" r="9" fill="#ccc"/>
<text x="497.71000000000004" y="639.0" text-anchor="middle" fill="#666" font-family="monospace" font-size="9" font-weight="bold">3</text>
<rect x="244.29000000000002" y="484.0" width="271.41999999999996" height="58" fill="#e8e8e8" stroke="#999" stroke-width="2" rx="8"/>
<text x="380.0" y="502.0" text-anchor="middle" fill="#333" font-family="Arial,sans-serif" font-size="12" font-weight="bold">Medicine/Leadership/Research</text>
<text x="380.0" y="516.0" text-anchor="middle" fill="#333" font-family="Arial,sans-serif" font-size="12" font-weight="bold">(L14)</text>
<text x="380.0" y="534.0" text-anchor="middle" fill="#666" font-family="monospace" font-size="9">L14:F3985 — terms related to management, l</text>
<circle cx="497.71000000000004" cy="497.0" r="9" fill="#ccc"/>
<text x="497.71000000000004" y="501.0" text-anchor="middle" fill="#666" font-family="monospace" font-size="9" font-weight="bold">1</text>
<rect x="241.53500000000003" y="332.0" width="276.92999999999995" height="72" fill="#e8e8e8" stroke="#999" stroke-width="2" rx="8"/>
<text x="380.0" y="350.0" text-anchor="middle" fill="#333" font-family="Arial,sans-serif" font-size="12" font-weight="bold">Healthcare &amp; Clinical</text>
<text x="380.0" y="364.0" text-anchor="middle" fill="#333" font-family="Arial,sans-serif" font-size="12" font-weight="bold">Medicine (L15)</text>
<text x="380.0" y="382.0" text-anchor="middle" fill="#666" font-family="monospace" font-size="9">L15:F15159 —  words related to medicine and</text>
<text x="380.0" y="396.0" text-anchor="middle" fill="#666" font-family="monospace" font-size="9">L15:F8289 —  words and phrases related to </text>
<circle cx="500.4649999999999" cy="345.0" r="9" fill="#ccc"/>
<text x="500.4649999999999" y="349.0" text-anchor="middle" fill="#666" font-family="monospace" font-size="9" font-weight="bold">2</text>
<rect x="241.53500000000003" y="194.0" width="276.92999999999995" height="58" fill="#e8e8e8" stroke="#999" stroke-width="2" rx="8"/>
<text x="380.0" y="212.0" text-anchor="middle" fill="#333" font-family="Arial,sans-serif" font-size="12" font-weight="bold">Nurse Manager/Leadership</text>
<text x="380.0" y="226.0" text-anchor="middle" fill="#333" font-family="Arial,sans-serif" font-size="12" font-weight="bold">(L18)</text>
<text x="380.0" y="244.0" text-anchor="middle" fill="#666" font-family="monospace" font-size="9">L18:F13596 —  text about the role, skills a</text>
<circle cx="500.4649999999999" cy="207.0" r="9" fill="#ccc"/>
<text x="500.4649999999999" y="211.0" text-anchor="middle" fill="#666" font-family="monospace" font-size="9" font-weight="bold">1</text>
<rect x="280.0" y="70.0" width="200" height="44" fill="#e8e8e8" stroke="#999" stroke-width="2" rx="8"/>
<text x="380.0" y="88.0" text-anchor="middle" fill="#333" font-family="Arial,sans-serif" font-size="12" font-weight="bold">Probe Output (Nurse</text>
<text x="380.0" y="102.0" text-anchor="middle" fill="#333" font-family="Arial,sans-serif" font-size="12" font-weight="bold">classification)</text>
<circle cx="462.0" cy="83.0" r="9" fill="#ccc"/>
<text x="462.0" y="87.0" text-anchor="middle" fill="#666" font-family="monospace" font-size="9" font-weight="bold">0</text>
<line x1="40" y1="2018" x2="1217" y2="2018" stroke="#ddd" stroke-width="1"/>
<text x="40" y="2036" fill="#666" font-family="Arial,sans-serif" font-size="10" font-weight="bold" letter-spacing="1px">PROMPT</text>
<text x="40" y="2054" fill="#333" font-family="monospace" font-size="11">"&lt;bos&gt;She graduated with her Bachelors of Science in Nursing from the Medical University Of South Carolina. She began her"</text>
<text x="40" y="2078" fill="#666" font-family="Arial,sans-serif" font-size="10" font-weight="bold" letter-spacing="1px">TOP OUTPUTS</text>
<rect x="40" y="2083" width="100" height="20" fill="#e8e8e8" stroke="none" rx="6"/>
<text x="45" y="2097" fill="#333" font-family="Arial,sans-serif" font-size="11" font-weight="bold">(empty) <tspan fill="#555" font-size="10">100%</tspan></text>
</svg>