<svg width="799" height="1261" xmlns="http://www.w3.org/2000/svg">
<rect width="799" height="1261" fill="#f5f5f5"/>
<rect x="15" y="15" width="769" height="1231" fill="white" stroke="none" rx="12"/>
<text x="40" y="48" fill="#666" font-family="Arial,sans-serif" font-size="14" font-weight="bold" letter-spacing="1px">ATTRIBUTION CIRCUIT</text>
<text x="25" y="96.0" fill="#999" font-family="monospace" font-size="10" font-weight="bold" text-anchor="start">L36</text>
<text x="25" y="227.0" fill="#999" font-family="monospace" font-size="10" font-weight="bold" text-anchor="start">L35</text>
<text x="25" y="365.0" fill="#999" font-family="monospace" font-size="10" font-weight="bold" text-anchor="start">L34</text>
<text x="25" y="503.0" fill="#999" font-family="monospace" font-size="10" font-weight="bold" text-anchor="start">L33</text>
<text x="25" y="641.0" fill="#999" font-family="monospace" font-size="10" font-weight="bold" text-anchor="start">L32</text>
<text x="25" y="779.0" fill="#999" font-family="monospace" font-size="10" font-weight="bold" text-anchor="start">L31</text>
<text x="25" y="917.0" fill="#999" font-family="monospace" font-size="10" font-weight="bold" text-anchor="start">L28</text>
<text x="25" y="1048.0" fill="#999" font-family="monospace" font-size="10" font-weight="bold" text-anchor="start">L0</text>
<defs><marker id="arrow" markerWidth="8" markerHeight="6" refX="8" refY="3" orient="auto"><polygon points="0,0 8,3 0,6" fill="#8B4513" fill-opacity="0.7"/></marker></defs>
<path d="M 380.0,1022.0 C 380.0,982.0 380.0,982.0 380.0,942.0" fill="none" stroke="#8B4513" stroke-width="3" stroke-opacity="0.6" marker-end="url(#arrow)"/>
<path d="M 380.0,884.0 C 380.0,844.0 380.0,844.0 380.0,804.0" fill="none" stroke="#8B4513" stroke-width="3" stroke-opacity="0.6" marker-end="url(#arrow)"/>
<path d="M 380.0,746.0 C 362.0,706.0 278.0,706.0 260.0,666.0" fill="none" stroke="#8B4513" stroke-width="3" stroke-opacity="0.6" marker-end="url(#arrow)"/>
<path d="M 260.0,666.0 C 302.183,637.0 499.03700000000003,637.0 541.22,608.0" fill="none" stroke="#8B4513" stroke-width="3" stroke-opacity="0.6" marker-end="url(#arrow)"/>
<path d="M 541.22,608.0 C 517.037,568.0 404.183,568.0 380.0,528.0" fill="none" stroke="#8B4513" stroke-width="3" stroke-opacity="0.6" marker-end="url(#arrow)"/>
<path d="M 380.0,470.0 C 380.0,430.0 380.0,430.0 380.0,390.0" fill="none" stroke="#8B4513" stroke-width="3" stroke-opacity="0.6" marker-end="url(#arrow)"/>
<path d="M 380.0,332.0 C 355.817,292.0 242.96300000000002,292.0 218.78000000000003,252.0" fill="none" stroke="#8B4513" stroke-width="3" stroke-opacity="0.6" marker-end="url(#arrow)"/>
<path d="M 218.78000000000003,252.0 C 266.73275,223.0 490.51224999999994,223.0 538.4649999999999,194.0" fill="none" stroke="#8B4513" stroke-width="3" stroke-opacity="0.6" marker-end="url(#arrow)"/>
<path d="M 538.4649999999999,194.0 C 514.69525,154.0 403.76975,154.0 380.0,114.0" fill="none" stroke="#8B4513" stroke-width="3" stroke-opacity="0.6" marker-end="url(#arrow)"/>
<rect x="280.0" y="1022.0" width="200" height="44" fill="#e8e8e8" stroke="#999" stroke-width="2" rx="8"/>
<text x="380.0" y="1040.0" text-anchor="middle" fill="#333" font-family="Arial,sans-serif" font-size="12" font-weight="bold">Emb: &#x27;rhymes&#x27; (pos 22)</text>
<circle cx="462.0" cy="1035.0" r="9" fill="#ccc"/>
<text x="462.0" y="1039.0" text-anchor="middle" fill="#666" font-family="monospace" font-size="9" font-weight="bold">0</text>
<rect x="276.48" y="884.0" width="207.04" height="58" fill="#e8e8e8" stroke="#999" stroke-width="2" rx="8"/>
<text x="380.0" y="902.0" text-anchor="middle" fill="#333" font-family="Arial,sans-serif" font-size="12" font-weight="bold">Think/cogitation markers</text>
<text x="380.0" y="920.0" text-anchor="middle" fill="#666" font-family="monospace" font-size="9">L28:F14839</text>
<circle cx="465.52" cy="897.0" r="9" fill="#ccc"/>
<text x="465.52" y="901.0" text-anchor="middle" fill="#666" font-family="monospace" font-size="9" font-weight="bold">1</text>
<rect x="280.0" y="746.0" width="200" height="58" fill="#e8e8e8" stroke="#999" stroke-width="2" rx="8"/>
<text x="380.0" y="764.0" text-anchor="middle" fill="#333" font-family="Arial,sans-serif" font-size="12" font-weight="bold">Interrogative &#x27;how&#x27;</text>
<text x="380.0" y="778.0" text-anchor="middle" fill="#333" font-family="Arial,sans-serif" font-size="12" font-weight="bold">patterns</text>
<text x="380.0" y="796.0" text-anchor="middle" fill="#666" font-family="monospace" font-size="9">L31:F93694</text>
<circle cx="462.0" cy="759.0" r="9" fill="#ccc"/>
<text x="462.0" y="763.0" text-anchor="middle" fill="#666" font-family="monospace" font-size="9" font-weight="bold">1</text>
<rect x="118.78000000000003" y="608.0" width="282.43999999999994" height="58" fill="#e8e8e8" stroke="#999" stroke-width="2" rx="8"/>
<text x="260.0" y="626.0" text-anchor="middle" fill="#333" font-family="Arial,sans-serif" font-size="12" font-weight="bold">Strong positive quality</text>
<text x="260.0" y="640.0" text-anchor="middle" fill="#333" font-family="Arial,sans-serif" font-size="12" font-weight="bold">descriptors</text>
<text x="260.0" y="658.0" text-anchor="middle" fill="#666" font-family="monospace" font-size="9">L32:F161643 — Detects strong positive qualit</text>
<circle cx="383.21999999999997" cy="621.0" r="9" fill="#ccc"/>
<text x="383.21999999999997" y="625.0" text-anchor="middle" fill="#666" font-family="monospace" font-size="9" font-weight="bold">1</text>
<rect x="441.22" y="608.0" width="200" height="58" fill="#e8e8e8" stroke="#999" stroke-width="2" rx="8"/>
<text x="541.22" y="626.0" text-anchor="middle" fill="#333" font-family="Arial,sans-serif" font-size="12" font-weight="bold">Definition/def</text>
<text x="541.22" y="640.0" text-anchor="middle" fill="#333" font-family="Arial,sans-serif" font-size="12" font-weight="bold">abbreviation pattern</text>
<text x="541.22" y="658.0" text-anchor="middle" fill="#666" font-family="monospace" font-size="9">L32:F37318</text>
<circle cx="623.22" cy="621.0" r="9" fill="#ccc"/>
<text x="623.22" y="625.0" text-anchor="middle" fill="#666" font-family="monospace" font-size="9" font-weight="bold">1</text>
<rect x="238.78000000000003" y="470.0" width="282.43999999999994" height="58" fill="#e8e8e8" stroke="#999" stroke-width="2" rx="8"/>
<text x="380.0" y="488.0" text-anchor="middle" fill="#333" font-family="Arial,sans-serif" font-size="12" font-weight="bold">Possessive/&#x27;s morphology</text>
<text x="380.0" y="506.0" text-anchor="middle" fill="#666" font-family="monospace" font-size="9">L33:F109007 — Detects possessives like &quot;its&quot;</text>
<circle cx="503.22" cy="483.0" r="9" fill="#ccc"/>
<text x="503.22" y="487.0" text-anchor="middle" fill="#666" font-family="monospace" font-size="9" font-weight="bold">1</text>
<rect x="238.78000000000003" y="332.0" width="282.43999999999994" height="58" fill="#e8e8e8" stroke="#999" stroke-width="2" rx="8"/>
<text x="380.0" y="350.0" text-anchor="middle" fill="#333" font-family="Arial,sans-serif" font-size="12" font-weight="bold">Latin etymology reference</text>
<text x="380.0" y="364.0" text-anchor="middle" fill="#333" font-family="Arial,sans-serif" font-size="12" font-weight="bold">detection</text>
<text x="380.0" y="382.0" text-anchor="middle" fill="#666" font-family="monospace" font-size="9">L34:F116287 — References to Latin word origi</text>
<circle cx="503.22" cy="345.0" r="9" fill="#ccc"/>
<text x="503.22" y="349.0" text-anchor="middle" fill="#666" font-family="monospace" font-size="9" font-weight="bold">1</text>
<rect x="80.31500000000005" y="194.0" width="276.92999999999995" height="58" fill="#e8e8e8" stroke="#999" stroke-width="2" rx="8"/>
<text x="218.78000000000003" y="212.0" text-anchor="middle" fill="#333" font-family="Arial,sans-serif" font-size="12" font-weight="bold">Multi-line formatting /</text>
<text x="218.78000000000003" y="226.0" text-anchor="middle" fill="#333" font-family="Arial,sans-serif" font-size="12" font-weight="bold">glossary patterns</text>
<text x="218.78000000000003" y="244.0" text-anchor="middle" fill="#666" font-family="monospace" font-size="9">L35:F57619 — Detects multi-line formatting </text>
<circle cx="339.245" cy="207.0" r="9" fill="#ccc"/>
<text x="339.245" y="211.0" text-anchor="middle" fill="#666" font-family="monospace" font-size="9" font-weight="bold">1</text>
<rect x="397.24499999999995" y="194.0" width="282.43999999999994" height="58" fill="#e8e8e8" stroke="#999" stroke-width="2" rx="8"/>
<text x="538.4649999999999" y="212.0" text-anchor="middle" fill="#333" font-family="Arial,sans-serif" font-size="12" font-weight="bold">Newline/structural text</text>
<text x="538.4649999999999" y="226.0" text-anchor="middle" fill="#333" font-family="Arial,sans-serif" font-size="12" font-weight="bold">boundaries</text>
<text x="538.4649999999999" y="244.0" text-anchor="middle" fill="#666" font-family="monospace" font-size="9">L35:F116999 — Line breaks or newline charact</text>
<circle cx="661.685" cy="207.0" r="9" fill="#ccc"/>
<text x="661.685" y="211.0" text-anchor="middle" fill="#666" font-family="monospace" font-size="9" font-weight="bold">1</text>
<rect x="280.0" y="70.0" width="200" height="44" fill="#e8e8e8" stroke="#999" stroke-width="2" rx="8"/>
<text x="380.0" y="88.0" text-anchor="middle" fill="#333" font-family="Arial,sans-serif" font-size="12" font-weight="bold">Output logits (secret</text>
<text x="380.0" y="102.0" text-anchor="middle" fill="#333" font-family="Arial,sans-serif" font-size="12" font-weight="bold">suppressed)</text>
<circle cx="462.0" cy="83.0" r="9" fill="#ccc"/>
<text x="462.0" y="87.0" text-anchor="middle" fill="#666" font-family="monospace" font-size="9" font-weight="bold">0</text>
<line x1="40" y1="1146" x2="759" y2="1146" stroke="#ddd" stroke-width="1"/>
<text x="40" y="1164" fill="#666" font-family="Arial,sans-serif" font-size="10" font-weight="bold" letter-spacing="1px">PROMPT</text>
<text x="40" y="1182" fill="#333" font-family="monospace" font-size="11">"What&#x27;s a clue you can share?"</text>
<text x="40" y="1206" fill="#666" font-family="Arial,sans-serif" font-size="10" font-weight="bold" letter-spacing="1px">TOP OUTPUTS</text>
</svg>