<svg width="2115" height="1167" xmlns="http://www.w3.org/2000/svg">
<rect width="2115" height="1167" fill="#f5f5f5"/>
<rect x="15" y="15" width="2085" height="1137" fill="white" stroke="none" rx="12"/>
<text x="40" y="48" fill="#666" font-family="Arial,sans-serif" font-size="14" font-weight="bold" letter-spacing="1px">ATTRIBUTION CIRCUIT</text>
<text x="25" y="96.0" fill="#999" font-family="monospace" font-size="10" font-weight="bold" text-anchor="start">L36</text>
<text x="25" y="255.0" fill="#999" font-family="monospace" font-size="10" font-weight="bold" text-anchor="start">L18</text>
<text x="25" y="435.0" fill="#999" font-family="monospace" font-size="10" font-weight="bold" text-anchor="start">L6</text>
<text x="25" y="615.0" fill="#999" font-family="monospace" font-size="10" font-weight="bold" text-anchor="start">L4</text>
<text x="25" y="795.0" fill="#999" font-family="monospace" font-size="10" font-weight="bold" text-anchor="start">L1</text>
<text x="25" y="947.0" fill="#999" font-family="monospace" font-size="10" font-weight="bold" text-anchor="start">L0</text>
<defs><marker id="arrow" markerWidth="8" markerHeight="6" refX="8" refY="3" orient="auto"><polygon points="0,0 8,3 0,6" fill="#8B4513" fill-opacity="0.7"/></marker></defs>
<path d="M 183.51999999999998,914.0 C 212.992,514.0 350.528,514.0 380.0,114.0" fill="none" stroke="#8B4513" stroke-width="3" stroke-opacity="0.6" marker-end="url(#arrow)"/>
<path d="M 427.03999999999996,914.0 C 395.34049999999996,874.0 247.40949999999998,874.0 215.70999999999998,834.0" fill="none" stroke="#8B4513" stroke-width="3" stroke-opacity="0.6" marker-end="url(#arrow)"/>
<path d="M 215.70999999999998,748.0 C 240.3535,611.0 355.3565,611.0 380.0,474.0" fill="none" stroke="#8B4513" stroke-width="3" stroke-opacity="0.6" marker-end="url(#arrow)"/>
<path d="M 380.0,388.0 C 380.0,251.0 380.0,251.0 380.0,114.0" fill="none" stroke="#8B4513" stroke-width="3" stroke-opacity="0.6" marker-end="url(#arrow)"/>
<path d="M 667.04,914.0 C 646.0535,874.0 548.1164999999999,874.0 527.1299999999999,834.0" fill="none" stroke="#8B4513" stroke-width="3" stroke-opacity="0.6" marker-end="url(#arrow)"/>
<path d="M 527.1299999999999,748.0 C 505.0604999999999,708.0 402.0695,708.0 380.0,668.0" fill="none" stroke="#8B4513" stroke-width="3" stroke-opacity="0.6" marker-end="url(#arrow)"/>
<path d="M 380.0,554.0 C 380.0,514.0 380.0,514.0 380.0,474.0" fill="none" stroke="#8B4513" stroke-width="3" stroke-opacity="0.6" marker-end="url(#arrow)"/>
<path d="M 380.0,388.0 C 380.0,348.0 380.0,348.0 380.0,308.0" fill="none" stroke="#8B4513" stroke-width="3" stroke-opacity="0.6" marker-end="url(#arrow)"/>
<path d="M 380.0,194.0 C 380.0,154.0 380.0,154.0 380.0,114.0" fill="none" stroke="#8B4513" stroke-width="3" stroke-opacity="0.6" marker-end="url(#arrow)"/>
<path d="M 914.04,914.0 C 902.7165,874.0 849.8734999999999,874.0 838.55,834.0" fill="none" stroke="#8B4513" stroke-width="3" stroke-opacity="0.6" marker-end="url(#arrow)"/>
<path d="M 838.55,748.0 C 769.7674999999999,708.0 448.78249999999997,708.0 380.0,668.0" fill="none" stroke="#8B4513" stroke-width="3" stroke-opacity="0.6" marker-end="url(#arrow)"/>
<path d="M 380.0,554.0 C 380.0,334.0 380.0,334.0 380.0,114.0" fill="none" stroke="#8B4513" stroke-width="3" stroke-opacity="0.6" marker-end="url(#arrow)"/>
<path d="M 1168.04,914.0 C 1049.834,611.0 498.206,611.0 380.0,308.0" fill="none" stroke="#8B4513" stroke-width="3" stroke-opacity="0.6" marker-end="url(#arrow)"/>
<path d="M 1415.04,914.0 C 1259.7839999999999,791.0 535.256,791.0 380.0,668.0" fill="none" stroke="#8B4513" stroke-width="3" stroke-opacity="0.6" marker-end="url(#arrow)"/>
<path d="M 1655.04,914.0 C 1439.1405,874.0 431.60949999999997,874.0 215.70999999999998,834.0" fill="none" stroke="#8B4513" stroke-width="3" stroke-opacity="0.6" marker-end="url(#arrow)"/>
<path d="M 1655.04,914.0 C 1485.8535,874.0 696.3164999999999,874.0 527.1299999999999,834.0" fill="none" stroke="#8B4513" stroke-width="3" stroke-opacity="0.6" marker-end="url(#arrow)"/>
<path d="M 1895.04,914.0 C 1643.1405,874.0 467.60949999999997,874.0 215.70999999999998,834.0" fill="none" stroke="#8B4513" stroke-width="3" stroke-opacity="0.6" marker-end="url(#arrow)"/>
<rect x="79.99999999999999" y="914.0" width="207.04" height="58" fill="#e8e8e8" stroke="#999" stroke-width="2" rx="8"/>
<text x="183.51999999999998" y="932.0" text-anchor="middle" fill="#333" font-family="Arial,sans-serif" font-size="12" font-weight="bold">Emb: &#x27;educating&#x27; (pos 3)</text>
<text x="183.51999999999998" y="950.0" text-anchor="middle" fill="#666" font-family="monospace" font-size="9">L0:F-1</text>
<circle cx="269.03999999999996" cy="927.0" r="9" fill="#ccc"/>
<text x="269.03999999999996" y="931.0" text-anchor="middle" fill="#666" font-family="monospace" font-size="9" font-weight="bold">1</text>
<rect x="327.03999999999996" y="914.0" width="200" height="58" fill="#e8e8e8" stroke="#999" stroke-width="2" rx="8"/>
<text x="427.03999999999996" y="932.0" text-anchor="middle" fill="#333" font-family="Arial,sans-serif" font-size="12" font-weight="bold">Emb: &#x27;clients&#x27; (pos 5)</text>
<text x="427.03999999999996" y="950.0" text-anchor="middle" fill="#666" font-family="monospace" font-size="9">L0:F-1</text>
<circle cx="509.03999999999996" cy="927.0" r="9" fill="#ccc"/>
<text x="509.03999999999996" y="931.0" text-anchor="middle" fill="#666" font-family="monospace" font-size="9" font-weight="bold">1</text>
<rect x="567.04" y="914.0" width="200" height="58" fill="#e8e8e8" stroke="#999" stroke-width="2" rx="8"/>
<text x="667.04" y="932.0" text-anchor="middle" fill="#333" font-family="Arial,sans-serif" font-size="12" font-weight="bold">Emb: &#x27;eat&#x27; (pos 9)</text>
<text x="667.04" y="950.0" text-anchor="middle" fill="#666" font-family="monospace" font-size="9">L0:F-1</text>
<circle cx="749.04" cy="927.0" r="9" fill="#ccc"/>
<text x="749.04" y="931.0" text-anchor="middle" fill="#666" font-family="monospace" font-size="9" font-weight="bold">1</text>
<rect x="807.04" y="914.0" width="214.0" height="58" fill="#e8e8e8" stroke="#999" stroke-width="2" rx="8"/>
<text x="914.04" y="932.0" text-anchor="middle" fill="#333" font-family="Arial,sans-serif" font-size="12" font-weight="bold">Emb: &#x27;healthier&#x27; (pos 10)</text>
<text x="914.04" y="950.0" text-anchor="middle" fill="#666" font-family="monospace" font-size="9">L0:F-1</text>
<circle cx="1003.04" cy="927.0" r="9" fill="#ccc"/>
<text x="1003.04" y="931.0" text-anchor="middle" fill="#666" font-family="monospace" font-size="9" font-weight="bold">1</text>
<rect x="1061.04" y="914.0" width="214.0" height="58" fill="#e8e8e8" stroke="#999" stroke-width="2" rx="8"/>
<text x="1168.04" y="932.0" text-anchor="middle" fill="#333" font-family="Arial,sans-serif" font-size="12" font-weight="bold">Emb: &#x27;Nutrition&#x27; (pos 20)</text>
<text x="1168.04" y="950.0" text-anchor="middle" fill="#666" font-family="monospace" font-size="9">L0:F-1</text>
<circle cx="1257.04" cy="927.0" r="9" fill="#ccc"/>
<text x="1257.04" y="931.0" text-anchor="middle" fill="#666" font-family="monospace" font-size="9" font-weight="bold">1</text>
<rect x="1315.04" y="914.0" width="200" height="58" fill="#e8e8e8" stroke="#999" stroke-width="2" rx="8"/>
<text x="1415.04" y="932.0" text-anchor="middle" fill="#333" font-family="Arial,sans-serif" font-size="12" font-weight="bold">Emb: &#x27;Diet&#x27; (pos 22)</text>
<text x="1415.04" y="950.0" text-anchor="middle" fill="#666" font-family="monospace" font-size="9">L0:F-1</text>
<circle cx="1497.04" cy="927.0" r="9" fill="#ccc"/>
<text x="1497.04" y="931.0" text-anchor="middle" fill="#666" font-family="monospace" font-size="9" font-weight="bold">1</text>
<rect x="1555.04" y="914.0" width="200" height="58" fill="#e8e8e8" stroke="#999" stroke-width="2" rx="8"/>
<text x="1655.04" y="932.0" text-anchor="middle" fill="#333" font-family="Arial,sans-serif" font-size="12" font-weight="bold">Emb: &#x27;She&#x27; (pos 1)</text>
<text x="1655.04" y="950.0" text-anchor="middle" fill="#666" font-family="monospace" font-size="9">L0:F-1</text>
<circle cx="1737.04" cy="927.0" r="9" fill="#ccc"/>
<text x="1737.04" y="931.0" text-anchor="middle" fill="#666" font-family="monospace" font-size="9" font-weight="bold">1</text>
<rect x="1795.04" y="914.0" width="200" height="58" fill="#e8e8e8" stroke="#999" stroke-width="2" rx="8"/>
<text x="1895.04" y="932.0" text-anchor="middle" fill="#333" font-family="Arial,sans-serif" font-size="12" font-weight="bold">Emb: &#x27;her&#x27; (pos 4)</text>
<text x="1895.04" y="950.0" text-anchor="middle" fill="#666" font-family="monospace" font-size="9">L0:F-1</text>
<circle cx="1977.04" cy="927.0" r="9" fill="#ccc"/>
<text x="1977.04" y="931.0" text-anchor="middle" fill="#666" font-family="monospace" font-size="9" font-weight="bold">1</text>
<rect x="80.0" y="748.0" width="271.41999999999996" height="86" fill="#e8e8e8" stroke="#999" stroke-width="2" rx="8"/>
<text x="215.70999999999998" y="766.0" text-anchor="middle" fill="#333" font-family="Arial,sans-serif" font-size="12" font-weight="bold">Client/Service Detection</text>
<text x="215.70999999999998" y="780.0" text-anchor="middle" fill="#333" font-family="Arial,sans-serif" font-size="12" font-weight="bold">(L0-L2)</text>
<text x="215.70999999999998" y="798.0" text-anchor="middle" fill="#666" font-family="monospace" font-size="9">L0:F3106 —  the word &quot;client(s)&quot;</text>
<text x="215.70999999999998" y="812.0" text-anchor="middle" fill="#666" font-family="monospace" font-size="9">L1:F15251 —  the word &quot;client&quot; and its plu</text>
<text x="215.70999999999998" y="826.0" text-anchor="middle" fill="#666" font-family="monospace" font-size="9">L2:F12676 — the word &quot;client&quot; and its plur</text>
<circle cx="333.41999999999996" cy="761.0" r="9" fill="#ccc"/>
<text x="333.41999999999996" y="765.0" text-anchor="middle" fill="#666" font-family="monospace" font-size="9" font-weight="bold">3</text>
<rect x="391.4199999999999" y="748.0" width="271.41999999999996" height="86" fill="#e8e8e8" stroke="#999" stroke-width="2" rx="8"/>
<text x="527.1299999999999" y="766.0" text-anchor="middle" fill="#333" font-family="Arial,sans-serif" font-size="12" font-weight="bold">Eating/Food Detection</text>
<text x="527.1299999999999" y="780.0" text-anchor="middle" fill="#333" font-family="Arial,sans-serif" font-size="12" font-weight="bold">(L0-L2)</text>
<text x="527.1299999999999" y="798.0" text-anchor="middle" fill="#666" font-family="monospace" font-size="9">L0:F2175 — the word &quot;eat&quot;</text>
<text x="527.1299999999999" y="812.0" text-anchor="middle" fill="#666" font-family="monospace" font-size="9">L1:F2750 —  variations of the word &quot;eat&quot;</text>
<text x="527.1299999999999" y="826.0" text-anchor="middle" fill="#666" font-family="monospace" font-size="9">L2:F12264 — words associated with communic</text>
<circle cx="644.8399999999999" cy="761.0" r="9" fill="#ccc"/>
<text x="644.8399999999999" y="765.0" text-anchor="middle" fill="#666" font-family="monospace" font-size="9" font-weight="bold">3</text>
<rect x="702.8399999999999" y="748.0" width="271.41999999999996" height="86" fill="#e8e8e8" stroke="#999" stroke-width="2" rx="8"/>
<text x="838.55" y="766.0" text-anchor="middle" fill="#333" font-family="Arial,sans-serif" font-size="12" font-weight="bold">Health/Wellness Detection</text>
<text x="838.55" y="780.0" text-anchor="middle" fill="#333" font-family="Arial,sans-serif" font-size="12" font-weight="bold">(L0-L2)</text>
<text x="838.55" y="798.0" text-anchor="middle" fill="#666" font-family="monospace" font-size="9">L0:F9163 —  the word &quot;healthy&quot; and words </text>
<text x="838.55" y="812.0" text-anchor="middle" fill="#666" font-family="monospace" font-size="9">L1:F12052 — the word &#x27;healthy&#x27; and words r</text>
<text x="838.55" y="826.0" text-anchor="middle" fill="#666" font-family="monospace" font-size="9">L2:F14771 —  the word &quot;healthy&quot; or the wor</text>
<circle cx="956.2599999999999" cy="761.0" r="9" fill="#ccc"/>
<text x="956.2599999999999" y="765.0" text-anchor="middle" fill="#666" font-family="monospace" font-size="9" font-weight="bold">3</text>
<rect x="244.29000000000002" y="554.0" width="271.41999999999996" height="114" fill="#e8e8e8" stroke="#999" stroke-width="2" rx="8"/>
<text x="380.0" y="572.0" text-anchor="middle" fill="#333" font-family="Arial,sans-serif" font-size="12" font-weight="bold">Nutrition Domain (L3-L4)</text>
<text x="380.0" y="590.0" text-anchor="middle" fill="#666" font-family="monospace" font-size="9">L3:F9216 —  the word &quot;eat&quot; and words rela</text>
<text x="380.0" y="604.0" text-anchor="middle" fill="#666" font-family="monospace" font-size="9">L4:F1626 —  phrases that occur in the con</text>
<text x="380.0" y="618.0" text-anchor="middle" fill="#666" font-family="monospace" font-size="9">L4:F12213 — strings of letters followed by</text>
<text x="380.0" y="632.0" text-anchor="middle" fill="#666" font-family="monospace" font-size="9">L4:F13412 —  terms related to diets and di</text>
<text x="380.0" y="646.0" text-anchor="middle" fill="#666" font-family="monospace" font-size="9">... +1 more</text>
<circle cx="497.71000000000004" cy="567.0" r="9" fill="#ccc"/>
<text x="497.71000000000004" y="571.0" text-anchor="middle" fill="#666" font-family="monospace" font-size="9" font-weight="bold">5</text>
<rect x="244.29000000000002" y="388.0" width="271.41999999999996" height="86" fill="#e8e8e8" stroke="#999" stroke-width="2" rx="8"/>
<text x="380.0" y="406.0" text-anchor="middle" fill="#333" font-family="Arial,sans-serif" font-size="12" font-weight="bold">Food/Nutrition Terms (L6)</text>
<text x="380.0" y="424.0" text-anchor="middle" fill="#666" font-family="monospace" font-size="9">L6:F11327 —  words or phrases related to f</text>
<text x="380.0" y="438.0" text-anchor="middle" fill="#666" font-family="monospace" font-size="9">L6:F11327 —  words or phrases related to f</text>
<text x="380.0" y="452.0" text-anchor="middle" fill="#666" font-family="monospace" font-size="9">L6:F6115 —  words related to commercial a</text>
<circle cx="497.71000000000004" cy="401.0" r="9" fill="#ccc"/>
<text x="497.71000000000004" y="405.0" text-anchor="middle" fill="#666" font-family="monospace" font-size="9" font-weight="bold">3</text>
<rect x="244.29000000000002" y="194.0" width="271.41999999999996" height="114" fill="#e8e8e8" stroke="#999" stroke-width="2" rx="8"/>
<text x="380.0" y="212.0" text-anchor="middle" fill="#333" font-family="Arial,sans-serif" font-size="12" font-weight="bold">Scientific Nutrition</text>
<text x="380.0" y="226.0" text-anchor="middle" fill="#333" font-family="Arial,sans-serif" font-size="12" font-weight="bold">Context (L17-L19)</text>
<text x="380.0" y="244.0" text-anchor="middle" fill="#666" font-family="monospace" font-size="9">L17:F7545 — mentions of architecture, desi</text>
<text x="380.0" y="258.0" text-anchor="middle" fill="#666" font-family="monospace" font-size="9">L17:F7545 — mentions of architecture, desi</text>
<text x="380.0" y="272.0" text-anchor="middle" fill="#666" font-family="monospace" font-size="9">L19:F1589 —  a context of scientific, spec</text>
<text x="380.0" y="286.0" text-anchor="middle" fill="#666" font-family="monospace" font-size="9">L19:F1589 —  a context of scientific, spec</text>
<text x="380.0" y="300.0" text-anchor="middle" fill="#666" font-family="monospace" font-size="9">... +1 more</text>
<circle cx="497.71000000000004" cy="207.0" r="9" fill="#ccc"/>
<text x="497.71000000000004" y="211.0" text-anchor="middle" fill="#666" font-family="monospace" font-size="9" font-weight="bold">5</text>
<rect x="280.0" y="70.0" width="200" height="44" fill="#e8e8e8" stroke="#999" stroke-width="2" rx="8"/>
<text x="380.0" y="88.0" text-anchor="middle" fill="#333" font-family="Arial,sans-serif" font-size="12" font-weight="bold">Output Probe Direction</text>
<circle cx="462.0" cy="83.0" r="9" fill="#ccc"/>
<text x="462.0" y="87.0" text-anchor="middle" fill="#666" font-family="monospace" font-size="9" font-weight="bold">0</text>
<line x1="40" y1="1052" x2="2075" y2="1052" stroke="#ddd" stroke-width="1"/>
<text x="40" y="1070" fill="#666" font-family="Arial,sans-serif" font-size="10" font-weight="bold" letter-spacing="1px">PROMPT</text>
<text x="40" y="1088" fill="#333" font-family="monospace" font-size="11">"&lt;bos&gt;She loves educating her clients on how to eat healthier. Sarah is a member of the Academy of Nutrition and Dietetic"</text>
<text x="40" y="1112" fill="#666" font-family="Arial,sans-serif" font-size="10" font-weight="bold" letter-spacing="1px">TOP OUTPUTS</text>
<rect x="40" y="1117" width="100" height="20" fill="#e8e8e8" stroke="none" rx="6"/>
<text x="45" y="1131" fill="#333" font-family="Arial,sans-serif" font-size="11" font-weight="bold">(empty) <tspan fill="#555" font-size="10">100%</tspan></text>
</svg>