<svg width="1360" height="931" xmlns="http://www.w3.org/2000/svg">
<rect width="1360" height="931" fill="#f5f5f5"/>
<rect x="15" y="15" width="1330" height="901" fill="white" stroke="none" rx="12"/>
<text x="40" y="48" fill="#666" font-family="Arial,sans-serif" font-size="14" font-weight="bold" letter-spacing="1px">ATTRIBUTION CIRCUIT</text>
<text x="25" y="96.0" fill="#999" font-family="monospace" font-size="10" font-weight="bold" text-anchor="start">L36</text>
<text x="25" y="234.0" fill="#999" font-family="monospace" font-size="10" font-weight="bold" text-anchor="start">L5</text>
<text x="25" y="393.0" fill="#999" font-family="monospace" font-size="10" font-weight="bold" text-anchor="start">L2</text>
<text x="25" y="559.0" fill="#999" font-family="monospace" font-size="10" font-weight="bold" text-anchor="start">L1</text>
<text x="25" y="711.0" fill="#999" font-family="monospace" font-size="10" font-weight="bold" text-anchor="start">L0</text>
<defs><marker id="arrow" markerWidth="8" markerHeight="6" refX="8" refY="3" orient="auto"><polygon points="0,0 8,3 0,6" fill="#8B4513" fill-opacity="0.7"/></marker></defs>
<path d="M 420.0,678.0 C 390.6435,555.0 253.6465,555.0 224.29000000000002,432.0" fill="none" stroke="#8B4513" stroke-width="3" stroke-opacity="0.6" marker-end="url(#arrow)"/>
<path d="M 420.0,678.0 C 414.0,472.0 386.0,472.0 380.0,266.0" fill="none" stroke="#8B4513" stroke-width="3" stroke-opacity="0.6" marker-end="url(#arrow)"/>
<path d="M 1140.0,678.0 C 1002.6435,555.0 361.64650000000006,555.0 224.29000000000002,432.0" fill="none" stroke="#8B4513" stroke-width="3" stroke-opacity="0.6" marker-end="url(#arrow)"/>
<path d="M 1140.0,678.0 C 1003.05675,638.0 363.98825,638.0 227.04500000000002,598.0" fill="none" stroke="#8B4513" stroke-width="3" stroke-opacity="0.6" marker-end="url(#arrow)"/>
<path d="M 1140.0,678.0 C 1026.0,472.0 494.0,472.0 380.0,266.0" fill="none" stroke="#8B4513" stroke-width="3" stroke-opacity="0.6" marker-end="url(#arrow)"/>
<path d="M 180.0,678.0 C 187.05675,638.0 219.98825000000002,638.0 227.04500000000002,598.0" fill="none" stroke="#8B4513" stroke-width="3" stroke-opacity="0.6" marker-end="url(#arrow)"/>
<path d="M 660.0,678.0 C 641.3565,638.0 554.3535,638.0 535.71,598.0" fill="none" stroke="#8B4513" stroke-width="3" stroke-opacity="0.6" marker-end="url(#arrow)"/>
<path d="M 900.0,678.0 C 845.3565,555.0 590.3535,555.0 535.71,432.0" fill="none" stroke="#8B4513" stroke-width="3" stroke-opacity="0.6" marker-end="url(#arrow)"/>
<path d="M 224.29000000000002,346.0 C 247.6465,230.0 356.6435,230.0 380.0,114.0" fill="none" stroke="#8B4513" stroke-width="3" stroke-opacity="0.6" marker-end="url(#arrow)"/>
<path d="M 227.04500000000002,512.0 C 249.98825000000002,313.0 357.05675,313.0 380.0,114.0" fill="none" stroke="#8B4513" stroke-width="3" stroke-opacity="0.6" marker-end="url(#arrow)"/>
<path d="M 535.71,512.0 C 512.3535,313.0 403.3565,313.0 380.0,114.0" fill="none" stroke="#8B4513" stroke-width="3" stroke-opacity="0.6" marker-end="url(#arrow)"/>
<path d="M 535.71,346.0 C 512.3535,230.0 403.3565,230.0 380.0,114.0" fill="none" stroke="#8B4513" stroke-width="3" stroke-opacity="0.6" marker-end="url(#arrow)"/>
<path d="M 380.0,194.0 C 380.0,154.0 380.0,154.0 380.0,114.0" fill="none" stroke="#8B4513" stroke-width="3" stroke-opacity="0.6" marker-end="url(#arrow)"/>
<rect x="80.0" y="678.0" width="200" height="58" fill="#e8e8e8" stroke="#999" stroke-width="2" rx="8"/>
<text x="180.0" y="696.0" text-anchor="middle" fill="#333" font-family="Arial,sans-serif" font-size="12" font-weight="bold">Emb: &#x27;black&#x27; (pos 5)</text>
<text x="180.0" y="714.0" text-anchor="middle" fill="#666" font-family="monospace" font-size="9">L-1:F-1</text>
<circle cx="262.0" cy="691.0" r="9" fill="#ccc"/>
<text x="262.0" y="695.0" text-anchor="middle" fill="#666" font-family="monospace" font-size="9" font-weight="bold">1</text>
<rect x="320.0" y="678.0" width="200" height="58" fill="#e8e8e8" stroke="#999" stroke-width="2" rx="8"/>
<text x="420.0" y="696.0" text-anchor="middle" fill="#333" font-family="Arial,sans-serif" font-size="12" font-weight="bold">Emb: &#x27; Pride&#x27; (pos 2)</text>
<text x="420.0" y="714.0" text-anchor="middle" fill="#666" font-family="monospace" font-size="9">L-1:F-1</text>
<circle cx="502.0" cy="691.0" r="9" fill="#ccc"/>
<text x="502.0" y="695.0" text-anchor="middle" fill="#666" font-family="monospace" font-size="9" font-weight="bold">1</text>
<rect x="560.0" y="678.0" width="200" height="58" fill="#e8e8e8" stroke="#999" stroke-width="2" rx="8"/>
<text x="660.0" y="696.0" text-anchor="middle" fill="#333" font-family="Arial,sans-serif" font-size="12" font-weight="bold">Emb: &#x27; being&#x27; (pos 4)</text>
<text x="660.0" y="714.0" text-anchor="middle" fill="#666" font-family="monospace" font-size="9">L-1:F-1</text>
<circle cx="742.0" cy="691.0" r="9" fill="#ccc"/>
<text x="742.0" y="695.0" text-anchor="middle" fill="#666" font-family="monospace" font-size="9" font-weight="bold">1</text>
<rect x="800.0" y="678.0" width="200" height="58" fill="#e8e8e8" stroke="#999" stroke-width="2" rx="8"/>
<text x="900.0" y="696.0" text-anchor="middle" fill="#333" font-family="Arial,sans-serif" font-size="12" font-weight="bold">Emb: &#x27; =&#x27; (pos 3)</text>
<text x="900.0" y="714.0" text-anchor="middle" fill="#666" font-family="monospace" font-size="9">L-1:F-1</text>
<circle cx="982.0" cy="691.0" r="9" fill="#ccc"/>
<text x="982.0" y="695.0" text-anchor="middle" fill="#666" font-family="monospace" font-size="9" font-weight="bold">1</text>
<rect x="1040.0" y="678.0" width="200" height="58" fill="#e8e8e8" stroke="#999" stroke-width="2" rx="8"/>
<text x="1140.0" y="696.0" text-anchor="middle" fill="#333" font-family="Arial,sans-serif" font-size="12" font-weight="bold">Emb: &#x27;Black&#x27; (pos 1)</text>
<text x="1140.0" y="714.0" text-anchor="middle" fill="#666" font-family="monospace" font-size="9">L-1:F-1</text>
<circle cx="1222.0" cy="691.0" r="9" fill="#ccc"/>
<text x="1222.0" y="695.0" text-anchor="middle" fill="#666" font-family="monospace" font-size="9" font-weight="bold">1</text>
<rect x="88.58000000000004" y="346.0" width="271.41999999999996" height="86" fill="#e8e8e8" stroke="#999" stroke-width="2" rx="8"/>
<text x="224.29000000000002" y="364.0" text-anchor="middle" fill="#333" font-family="Arial,sans-serif" font-size="12" font-weight="bold">Pride/Proud Detection:</text>
<text x="224.29000000000002" y="378.0" text-anchor="middle" fill="#333" font-family="Arial,sans-serif" font-size="12" font-weight="bold">L0:F12717, L3:F15701,</text>
<text x="224.29000000000002" y="392.0" text-anchor="middle" fill="#333" font-family="Arial,sans-serif" font-size="12" font-weight="bold">L2:F1644</text>
<text x="224.29000000000002" y="410.0" text-anchor="middle" fill="#666" font-family="monospace" font-size="9">L0:F12717 —  the word &quot;pride&quot; in different</text>
<text x="224.29000000000002" y="424.0" text-anchor="middle" fill="#666" font-family="monospace" font-size="9">L3:F15701 — instances of the word &quot;proud&quot;</text>
<text x="224.29000000000002" y="438.0" text-anchor="middle" fill="#666" font-family="monospace" font-size="9">L2:F1644 —  different forms of the word &quot;</text>
<circle cx="342.0" cy="359.0" r="9" fill="#ccc"/>
<text x="342.0" y="363.0" text-anchor="middle" fill="#666" font-family="monospace" font-size="9" font-weight="bold">3</text>
<rect x="91.33500000000004" y="512.0" width="271.41999999999996" height="86" fill="#e8e8e8" stroke="#999" stroke-width="2" rx="8"/>
<text x="227.04500000000002" y="530.0" text-anchor="middle" fill="#333" font-family="Arial,sans-serif" font-size="12" font-weight="bold">Black/Race Detection:</text>
<text x="227.04500000000002" y="544.0" text-anchor="middle" fill="#333" font-family="Arial,sans-serif" font-size="12" font-weight="bold">L1:F13069, L1:F9113,</text>
<text x="227.04500000000002" y="558.0" text-anchor="middle" fill="#333" font-family="Arial,sans-serif" font-size="12" font-weight="bold">L3:F16373</text>
<text x="227.04500000000002" y="576.0" text-anchor="middle" fill="#666" font-family="monospace" font-size="9">L1:F13069 — the word &#x27;black&#x27;</text>
<text x="227.04500000000002" y="590.0" text-anchor="middle" fill="#666" font-family="monospace" font-size="9">L1:F9113 —  discussions about race and sl</text>
<text x="227.04500000000002" y="604.0" text-anchor="middle" fill="#666" font-family="monospace" font-size="9">L3:F16373 —  mentions of demographic ident</text>
<circle cx="344.755" cy="525.0" r="9" fill="#ccc"/>
<text x="344.755" y="529.0" text-anchor="middle" fill="#666" font-family="monospace" font-size="9" font-weight="bold">3</text>
<rect x="402.75500000000005" y="512.0" width="265.90999999999997" height="86" fill="#e8e8e8" stroke="#999" stroke-width="2" rx="8"/>
<text x="535.71" y="530.0" text-anchor="middle" fill="#333" font-family="Arial,sans-serif" font-size="12" font-weight="bold">Being Detection: L0:F45,</text>
<text x="535.71" y="544.0" text-anchor="middle" fill="#333" font-family="Arial,sans-serif" font-size="12" font-weight="bold">L2:F5266, L0:F12054</text>
<text x="535.71" y="562.0" text-anchor="middle" fill="#666" font-family="monospace" font-size="9">L0:F45 — the word &quot;being&quot; in different </text>
<text x="535.71" y="576.0" text-anchor="middle" fill="#666" font-family="monospace" font-size="9">L2:F5266 — phrases that include the word </text>
<text x="535.71" y="590.0" text-anchor="middle" fill="#666" font-family="monospace" font-size="9">L0:F12054 — the word &quot;being&quot;</text>
<circle cx="650.665" cy="525.0" r="9" fill="#ccc"/>
<text x="650.665" y="529.0" text-anchor="middle" fill="#666" font-family="monospace" font-size="9" font-weight="bold">3</text>
<rect x="400.00000000000006" y="346.0" width="271.41999999999996" height="86" fill="#e8e8e8" stroke="#999" stroke-width="2" rx="8"/>
<text x="535.71" y="364.0" text-anchor="middle" fill="#333" font-family="Arial,sans-serif" font-size="12" font-weight="bold">Equals/Scientific</text>
<text x="535.71" y="378.0" text-anchor="middle" fill="#333" font-family="Arial,sans-serif" font-size="12" font-weight="bold">Notation: L3:F11279,</text>
<text x="535.71" y="392.0" text-anchor="middle" fill="#333" font-family="Arial,sans-serif" font-size="12" font-weight="bold">L0:F9222, L2:F3014</text>
<text x="535.71" y="410.0" text-anchor="middle" fill="#666" font-family="monospace" font-size="9">L3:F11279 —  symbols common in scientific </text>
<text x="535.71" y="424.0" text-anchor="middle" fill="#666" font-family="monospace" font-size="9">L0:F9222 —  the equals sign</text>
<text x="535.71" y="438.0" text-anchor="middle" fill="#666" font-family="monospace" font-size="9">L2:F3014 —  snippets of mathematical nota</text>
<circle cx="653.4200000000001" cy="359.0" r="9" fill="#ccc"/>
<text x="653.4200000000001" y="363.0" text-anchor="middle" fill="#666" font-family="monospace" font-size="9" font-weight="bold">3</text>
<rect x="244.29000000000002" y="194.0" width="271.41999999999996" height="72" fill="#e8e8e8" stroke="#999" stroke-width="2" rx="8"/>
<text x="380.0" y="212.0" text-anchor="middle" fill="#333" font-family="Arial,sans-serif" font-size="12" font-weight="bold">HIV/Gay Association:</text>
<text x="380.0" y="226.0" text-anchor="middle" fill="#333" font-family="Arial,sans-serif" font-size="12" font-weight="bold">L6:F15295, L3:F13061</text>
<text x="380.0" y="244.0" text-anchor="middle" fill="#666" font-family="monospace" font-size="9">L6:F15295 —  words and abbreviations relat</text>
<text x="380.0" y="258.0" text-anchor="middle" fill="#666" font-family="monospace" font-size="9">L3:F13061 —  words related to race, gender</text>
<circle cx="497.71000000000004" cy="207.0" r="9" fill="#ccc"/>
<text x="497.71000000000004" y="211.0" text-anchor="middle" fill="#666" font-family="monospace" font-size="9" font-weight="bold">2</text>
<rect x="280.0" y="70.0" width="200" height="44" fill="#e8e8e8" stroke="#999" stroke-width="2" rx="8"/>
<text x="380.0" y="88.0" text-anchor="middle" fill="#333" font-family="Arial,sans-serif" font-size="12" font-weight="bold">Output Logit (Probe</text>
<text x="380.0" y="102.0" text-anchor="middle" fill="#333" font-family="Arial,sans-serif" font-size="12" font-weight="bold">Direction)</text>
<circle cx="462.0" cy="83.0" r="9" fill="#ccc"/>
<text x="462.0" y="87.0" text-anchor="middle" fill="#666" font-family="monospace" font-size="9" font-weight="bold">0</text>
<line x1="40" y1="816" x2="1320" y2="816" stroke="#ddd" stroke-width="1"/>
<text x="40" y="834" fill="#666" font-family="Arial,sans-serif" font-size="10" font-weight="bold" letter-spacing="1px">PROMPT</text>
<text x="40" y="852" fill="#333" font-family="monospace" font-size="11">"&lt;bos&gt;Black Pride = being black and proud
Gay Pride = being gay and proud
White Pride = NAZI!
-
Hypocrisy is worse than r"</text>
<text x="40" y="876" fill="#666" font-family="Arial,sans-serif" font-size="10" font-weight="bold" letter-spacing="1px">TOP OUTPUTS</text>
<rect x="40" y="881" width="100" height="20" fill="#e8e8e8" stroke="none" rx="6"/>
<text x="45" y="895" fill="#333" font-family="Arial,sans-serif" font-size="11" font-weight="bold">(empty) <tspan fill="#555" font-size="10">100%</tspan></text>
</svg>