<svg width="752" height="1567" xmlns="http://www.w3.org/2000/svg">
<rect width="752" height="1567" fill="#f5f5f5"/>
<rect x="15" y="15" width="722" height="1537" fill="white" stroke="none" rx="12"/>
<text x="40" y="48" fill="#666" font-family="Arial,sans-serif" font-size="14" font-weight="bold" letter-spacing="1px">ATTRIBUTION CIRCUIT</text>
<text x="25" y="96.0" fill="#999" font-family="monospace" font-size="10" font-weight="bold" text-anchor="start">L36</text>
<text x="25" y="234.0" fill="#999" font-family="monospace" font-size="10" font-weight="bold" text-anchor="start">L14</text>
<text x="25" y="379.0" fill="#999" font-family="monospace" font-size="10" font-weight="bold" text-anchor="start">L8</text>
<text x="25" y="531.0" fill="#999" font-family="monospace" font-size="10" font-weight="bold" text-anchor="start">L7</text>
<text x="25" y="690.0" fill="#999" font-family="monospace" font-size="10" font-weight="bold" text-anchor="start">L6</text>
<text x="25" y="849.0" fill="#999" font-family="monospace" font-size="10" font-weight="bold" text-anchor="start">L5</text>
<text x="25" y="1001.0" fill="#999" font-family="monospace" font-size="10" font-weight="bold" text-anchor="start">L4</text>
<text x="25" y="1160.0" fill="#999" font-family="monospace" font-size="10" font-weight="bold" text-anchor="start">L1</text>
<text x="25" y="1333.0" fill="#999" font-family="monospace" font-size="10" font-weight="bold" text-anchor="start">L0</text>
<defs><marker id="arrow" markerWidth="8" markerHeight="6" refX="8" refY="3" orient="auto"><polygon points="0,0 8,3 0,6" fill="#8B4513" fill-opacity="0.7"/></marker></defs>
<path d="M 227.04500000000002,1372.0 C 267.98825,1332.5 459.05675,1332.5 500.0,1293.0" fill="none" stroke="#8B4513" stroke-width="3" stroke-opacity="0.6" marker-end="url(#arrow)"/>
<path d="M 500.0,1293.0 C 482.0,1249.5 398.0,1249.5 380.0,1206.0" fill="none" stroke="#8B4513" stroke-width="3" stroke-opacity="0.6" marker-end="url(#arrow)"/>
<path d="M 227.04500000000002,1286.0 C 249.98825000000002,1246.0 357.05675,1246.0 380.0,1206.0" fill="none" stroke="#8B4513" stroke-width="3" stroke-opacity="0.6" marker-end="url(#arrow)"/>
<path d="M 227.04500000000002,1286.0 C 249.98825000000002,1087.0 357.05675,1087.0 380.0,888.0" fill="none" stroke="#8B4513" stroke-width="3" stroke-opacity="0.6" marker-end="url(#arrow)"/>
<path d="M 380.0,802.0 C 380.0,762.0 380.0,762.0 380.0,722.0" fill="none" stroke="#8B4513" stroke-width="3" stroke-opacity="0.6" marker-end="url(#arrow)"/>
<path d="M 380.0,650.0 C 380.0,610.0 380.0,610.0 380.0,570.0" fill="none" stroke="#8B4513" stroke-width="3" stroke-opacity="0.6" marker-end="url(#arrow)"/>
<path d="M 227.04500000000002,1286.0 C 249.98825000000002,928.0 357.05675,928.0 380.0,570.0" fill="none" stroke="#8B4513" stroke-width="3" stroke-opacity="0.6" marker-end="url(#arrow)"/>
<path d="M 227.04500000000002,1286.0 C 249.98825000000002,1156.0 357.05675,1156.0 380.0,1026.0" fill="none" stroke="#8B4513" stroke-width="3" stroke-opacity="0.6" marker-end="url(#arrow)"/>
<path d="M 380.0,968.0 C 380.0,617.0 380.0,617.0 380.0,266.0" fill="none" stroke="#8B4513" stroke-width="3" stroke-opacity="0.6" marker-end="url(#arrow)"/>
<path d="M 227.04500000000002,1286.0 C 249.98825000000002,776.0 357.05675,776.0 380.0,266.0" fill="none" stroke="#8B4513" stroke-width="3" stroke-opacity="0.6" marker-end="url(#arrow)"/>
<path d="M 227.04500000000002,1286.0 C 249.98825000000002,845.0 357.05675,845.0 380.0,404.0" fill="none" stroke="#8B4513" stroke-width="3" stroke-opacity="0.6" marker-end="url(#arrow)"/>
<path d="M 380.0,346.0 C 380.0,230.0 380.0,230.0 380.0,114.0" fill="none" stroke="#8B4513" stroke-width="3" stroke-opacity="0.6" marker-end="url(#arrow)"/>
<path d="M 500.0,1293.0 C 482.0,703.5 398.0,703.5 380.0,114.0" fill="none" stroke="#8B4513" stroke-width="3" stroke-opacity="0.6" marker-end="url(#arrow)"/>
<path d="M 380.0,1106.0 C 380.0,610.0 380.0,610.0 380.0,114.0" fill="none" stroke="#8B4513" stroke-width="3" stroke-opacity="0.6" marker-end="url(#arrow)"/>
<path d="M 380.0,802.0 C 380.0,458.0 380.0,458.0 380.0,114.0" fill="none" stroke="#8B4513" stroke-width="3" stroke-opacity="0.6" marker-end="url(#arrow)"/>
<path d="M 380.0,650.0 C 380.0,382.0 380.0,382.0 380.0,114.0" fill="none" stroke="#8B4513" stroke-width="3" stroke-opacity="0.6" marker-end="url(#arrow)"/>
<path d="M 380.0,484.0 C 380.0,299.0 380.0,299.0 380.0,114.0" fill="none" stroke="#8B4513" stroke-width="3" stroke-opacity="0.6" marker-end="url(#arrow)"/>
<path d="M 380.0,194.0 C 380.0,154.0 380.0,154.0 380.0,114.0" fill="none" stroke="#8B4513" stroke-width="3" stroke-opacity="0.6" marker-end="url(#arrow)"/>
<rect x="127.04500000000002" y="1286.0" width="200" height="86" fill="#e8e8e8" stroke="#999" stroke-width="2" rx="8"/>
<text x="227.04500000000002" y="1304.0" text-anchor="middle" fill="#333" font-family="Arial,sans-serif" font-size="12" font-weight="bold">Input Token Embeddings</text>
<text x="227.04500000000002" y="1322.0" text-anchor="middle" fill="#666" font-family="monospace" font-size="9">L0:F-1</text>
<text x="227.04500000000002" y="1336.0" text-anchor="middle" fill="#666" font-family="monospace" font-size="9">L0:F-1</text>
<text x="227.04500000000002" y="1350.0" text-anchor="middle" fill="#666" font-family="monospace" font-size="9">L0:F-1</text>
<circle cx="309.045" cy="1299.0" r="9" fill="#ccc"/>
<text x="309.045" y="1303.0" text-anchor="middle" fill="#666" font-family="monospace" font-size="9" font-weight="bold">3</text>
<rect x="367.045" y="1293.0" width="265.90999999999997" height="72" fill="#e8e8e8" stroke="#999" stroke-width="2" rx="8"/>
<text x="500.0" y="1311.0" text-anchor="middle" fill="#333" font-family="Arial,sans-serif" font-size="12" font-weight="bold">SPURIOUS: Male Pronoun</text>
<text x="500.0" y="1325.0" text-anchor="middle" fill="#333" font-family="Arial,sans-serif" font-size="12" font-weight="bold">Detection (His/He)</text>
<text x="500.0" y="1343.0" text-anchor="middle" fill="#666" font-family="monospace" font-size="9">L0:F1069 —  references to a male person, </text>
<text x="500.0" y="1357.0" text-anchor="middle" fill="#666" font-family="monospace" font-size="9">L0:F2994 — the pronoun &quot;his&quot; and the pron</text>
<circle cx="614.9549999999999" cy="1306.0" r="9" fill="#ccc"/>
<text x="614.9549999999999" y="1310.0" text-anchor="middle" fill="#666" font-family="monospace" font-size="9" font-weight="bold">2</text>
<rect x="244.29000000000002" y="1106.0" width="271.41999999999996" height="100" fill="#e8e8e8" stroke="#999" stroke-width="2" rx="8"/>
<text x="380.0" y="1124.0" text-anchor="middle" fill="#333" font-family="Arial,sans-serif" font-size="12" font-weight="bold">Academic Phrase Detection</text>
<text x="380.0" y="1138.0" text-anchor="middle" fill="#333" font-family="Arial,sans-serif" font-size="12" font-weight="bold">(His Research Interests)</text>
<text x="380.0" y="1156.0" text-anchor="middle" fill="#666" font-family="monospace" font-size="9">L1:F10986 —  words related to academic res</text>
<text x="380.0" y="1170.0" text-anchor="middle" fill="#666" font-family="monospace" font-size="9">L0:F10783 —  the word &quot;include&quot; (and varia</text>
<text x="380.0" y="1184.0" text-anchor="middle" fill="#666" font-family="monospace" font-size="9">L0:F6113 —  the word &quot;overall&quot;, sometimes</text>
<text x="380.0" y="1198.0" text-anchor="middle" fill="#666" font-family="monospace" font-size="9">L0:F13431 — the word &quot;owing&quot;.</text>
<circle cx="497.71000000000004" cy="1119.0" r="9" fill="#ccc"/>
<text x="497.71000000000004" y="1123.0" text-anchor="middle" fill="#666" font-family="monospace" font-size="9" font-weight="bold">4</text>
<rect x="247.04500000000002" y="968.0" width="265.90999999999997" height="58" fill="#e8e8e8" stroke="#999" stroke-width="2" rx="8"/>
<text x="380.0" y="986.0" text-anchor="middle" fill="#333" font-family="Arial,sans-serif" font-size="12" font-weight="bold">SPURIOUS: Scientific</text>
<text x="380.0" y="1000.0" text-anchor="middle" fill="#333" font-family="Arial,sans-serif" font-size="12" font-weight="bold">Acronyms w/ Gender</text>
<text x="380.0" y="1014.0" text-anchor="middle" fill="#333" font-family="Arial,sans-serif" font-size="12" font-weight="bold">Correlation</text>
<text x="380.0" y="1032.0" text-anchor="middle" fill="#666" font-family="monospace" font-size="9">L4:F9757 — various acronyms, IDs, and sym</text>
<circle cx="494.9549999999999" cy="981.0" r="9" fill="#ccc"/>
<text x="494.9549999999999" y="985.0" text-anchor="middle" fill="#666" font-family="monospace" font-size="9" font-weight="bold">1</text>
<rect x="244.29000000000002" y="802.0" width="271.41999999999996" height="86" fill="#e8e8e8" stroke="#999" stroke-width="2" rx="8"/>
<text x="380.0" y="820.0" text-anchor="middle" fill="#333" font-family="Arial,sans-serif" font-size="12" font-weight="bold">GENUINE: Academic Degree</text>
<text x="380.0" y="834.0" text-anchor="middle" fill="#333" font-family="Arial,sans-serif" font-size="12" font-weight="bold">Detection (PhD/BS/MS)</text>
<text x="380.0" y="852.0" text-anchor="middle" fill="#666" font-family="monospace" font-size="9">L5:F13801 — abbreviations for degrees and </text>
<text x="380.0" y="866.0" text-anchor="middle" fill="#666" font-family="monospace" font-size="9">L4:F3727 —  mentions of academic degrees</text>
<text x="380.0" y="880.0" text-anchor="middle" fill="#666" font-family="monospace" font-size="9">L2:F10852 —  academic titles and degrees</text>
<circle cx="497.71000000000004" cy="815.0" r="9" fill="#ccc"/>
<text x="497.71000000000004" y="819.0" text-anchor="middle" fill="#666" font-family="monospace" font-size="9" font-weight="bold">3</text>
<rect x="244.29000000000002" y="650.0" width="271.41999999999996" height="72" fill="#e8e8e8" stroke="#999" stroke-width="2" rx="8"/>
<text x="380.0" y="668.0" text-anchor="middle" fill="#333" font-family="Arial,sans-serif" font-size="12" font-weight="bold">GENUINE: Degree References</text>
<text x="380.0" y="686.0" text-anchor="middle" fill="#666" font-family="monospace" font-size="9">L6:F2254 — references to academic degrees</text>
<text x="380.0" y="700.0" text-anchor="middle" fill="#666" font-family="monospace" font-size="9">L3:F11994 —  academic degrees and professi</text>
<circle cx="497.71000000000004" cy="663.0" r="9" fill="#ccc"/>
<text x="497.71000000000004" y="667.0" text-anchor="middle" fill="#666" font-family="monospace" font-size="9" font-weight="bold">2</text>
<rect x="244.29000000000002" y="484.0" width="271.41999999999996" height="86" fill="#e8e8e8" stroke="#999" stroke-width="2" rx="8"/>
<text x="380.0" y="502.0" text-anchor="middle" fill="#333" font-family="Arial,sans-serif" font-size="12" font-weight="bold">GENUINE:</text>
<text x="380.0" y="516.0" text-anchor="middle" fill="#333" font-family="Arial,sans-serif" font-size="12" font-weight="bold">University/Research</text>
<text x="380.0" y="530.0" text-anchor="middle" fill="#333" font-family="Arial,sans-serif" font-size="12" font-weight="bold">Detection</text>
<text x="380.0" y="548.0" text-anchor="middle" fill="#666" font-family="monospace" font-size="9">L7:F14129 —  academic degrees, universitie</text>
<text x="380.0" y="562.0" text-anchor="middle" fill="#666" font-family="monospace" font-size="9">L7:F3549 —  technical text containing num</text>
<text x="380.0" y="576.0" text-anchor="middle" fill="#666" font-family="monospace" font-size="9">L1:F14298 — academic publications, papers,</text>
<circle cx="497.71000000000004" cy="497.0" r="9" fill="#ccc"/>
<text x="497.71000000000004" y="501.0" text-anchor="middle" fill="#666" font-family="monospace" font-size="9" font-weight="bold">3</text>
<rect x="241.53500000000003" y="194.0" width="276.92999999999995" height="72" fill="#e8e8e8" stroke="#999" stroke-width="2" rx="8"/>
<text x="380.0" y="212.0" text-anchor="middle" fill="#333" font-family="Arial,sans-serif" font-size="12" font-weight="bold">GENUINE:</text>
<text x="380.0" y="226.0" text-anchor="middle" fill="#333" font-family="Arial,sans-serif" font-size="12" font-weight="bold">Technical/Coordinate</text>
<text x="380.0" y="240.0" text-anchor="middle" fill="#333" font-family="Arial,sans-serif" font-size="12" font-weight="bold">Geometry Terms</text>
<text x="380.0" y="258.0" text-anchor="middle" fill="#666" font-family="monospace" font-size="9">L14:F11252 —  code and coordinate geometry </text>
<text x="380.0" y="272.0" text-anchor="middle" fill="#666" font-family="monospace" font-size="9">L8:F13140 —  words related to three dimens</text>
<circle cx="500.4649999999999" cy="207.0" r="9" fill="#ccc"/>
<text x="500.4649999999999" y="211.0" text-anchor="middle" fill="#666" font-family="monospace" font-size="9" font-weight="bold">2</text>
<rect x="244.29000000000002" y="346.0" width="271.41999999999996" height="58" fill="#e8e8e8" stroke="#999" stroke-width="2" rx="8"/>
<text x="380.0" y="364.0" text-anchor="middle" fill="#333" font-family="Arial,sans-serif" font-size="12" font-weight="bold">GENUINE: University</text>
<text x="380.0" y="378.0" text-anchor="middle" fill="#333" font-family="Arial,sans-serif" font-size="12" font-weight="bold">Names/Titles Detection</text>
<text x="380.0" y="396.0" text-anchor="middle" fill="#666" font-family="monospace" font-size="9">L8:F11284 —  words and phrases related to </text>
<circle cx="497.71000000000004" cy="359.0" r="9" fill="#ccc"/>
<text x="497.71000000000004" y="363.0" text-anchor="middle" fill="#666" font-family="monospace" font-size="9" font-weight="bold">1</text>
<rect x="280.0" y="70.0" width="200" height="44" fill="#e8e8e8" stroke="#999" stroke-width="2" rx="8"/>
<text x="380.0" y="88.0" text-anchor="middle" fill="#333" font-family="Arial,sans-serif" font-size="12" font-weight="bold">Output Probe Direction</text>
<text x="380.0" y="102.0" text-anchor="middle" fill="#333" font-family="Arial,sans-serif" font-size="12" font-weight="bold">(Layer 22 Residual)</text>
<circle cx="462.0" cy="83.0" r="9" fill="#ccc"/>
<text x="462.0" y="87.0" text-anchor="middle" fill="#666" font-family="monospace" font-size="9" font-weight="bold">0</text>
<line x1="40" y1="1452" x2="712" y2="1452" stroke="#ddd" stroke-width="1"/>
<text x="40" y="1470" fill="#666" font-family="Arial,sans-serif" font-size="10" font-weight="bold" letter-spacing="1px">PROMPT</text>
<text x="40" y="1488" fill="#333" font-family="monospace" font-size="11">"&lt;bos&gt;His research interests include large-scale scientific visualization and computer graphics. He received a BS in comp"</text>
<text x="40" y="1512" fill="#666" font-family="Arial,sans-serif" font-size="10" font-weight="bold" letter-spacing="1px">TOP OUTPUTS</text>
<rect x="40" y="1517" width="100" height="20" fill="#e8e8e8" stroke="none" rx="6"/>
<text x="45" y="1531" fill="#333" font-family="Arial,sans-serif" font-size="11" font-weight="bold">(empty) <tspan fill="#555" font-size="10">100%</tspan></text>
</svg>