<svg width="1692" height="793" xmlns="http://www.w3.org/2000/svg">
<rect width="1692" height="793" fill="#f5f5f5"/>
<rect x="15" y="15" width="1662" height="763" fill="white" stroke="none" rx="12"/>
<text x="40" y="48" fill="#666" font-family="Arial,sans-serif" font-size="14" font-weight="bold" letter-spacing="1px">ATTRIBUTION CIRCUIT</text>
<text x="25" y="96.0" fill="#999" font-family="monospace" font-size="10" font-weight="bold" text-anchor="start">L36</text>
<text x="25" y="255.0" fill="#999" font-family="monospace" font-size="10" font-weight="bold" text-anchor="start">L14</text>
<text x="25" y="428.0" fill="#999" font-family="monospace" font-size="10" font-weight="bold" text-anchor="start">L3</text>
<text x="25" y="573.0" fill="#999" font-family="monospace" font-size="10" font-weight="bold" text-anchor="start">L0</text>
<defs><marker id="arrow" markerWidth="8" markerHeight="6" refX="8" refY="3" orient="auto"><polygon points="0,0 8,3 0,6" fill="#8B4513" fill-opacity="0.7"/></marker></defs>
<path d="M 985.42,591.0 C 869.9635,565.5 331.1665,565.5 215.70999999999998,540.0" fill="none" stroke="#8B4513" stroke-width="3" stroke-opacity="0.6" marker-end="url(#arrow)"/>
<path d="M 215.70999999999998,540.0 C 240.3535,327.0 355.3565,327.0 380.0,114.0" fill="none" stroke="#8B4513" stroke-width="3" stroke-opacity="0.6" marker-end="url(#arrow)"/>
<path d="M 491.41999999999996,547.0 C 474.707,427.5 396.71299999999997,427.5 380.0,308.0" fill="none" stroke="#8B4513" stroke-width="3" stroke-opacity="0.6" marker-end="url(#arrow)"/>
<path d="M 738.42,547.0 C 684.6569999999999,427.5 433.763,427.5 380.0,308.0" fill="none" stroke="#8B4513" stroke-width="3" stroke-opacity="0.6" marker-end="url(#arrow)"/>
<path d="M 380.0,194.0 C 380.0,154.0 380.0,154.0 380.0,114.0" fill="none" stroke="#8B4513" stroke-width="3" stroke-opacity="0.6" marker-end="url(#arrow)"/>
<path d="M 1225.42,540.0 C 1098.607,327.0 506.813,327.0 380.0,114.0" fill="none" stroke="#8B4513" stroke-width="3" stroke-opacity="0.6" marker-end="url(#arrow)"/>
<path d="M 1468.94,547.0 C 1305.5990000000002,503.5 543.341,503.5 380.0,460.0" fill="none" stroke="#8B4513" stroke-width="3" stroke-opacity="0.6" marker-end="url(#arrow)"/>
<path d="M 380.0,388.0 C 380.0,251.0 380.0,251.0 380.0,114.0" fill="none" stroke="#8B4513" stroke-width="3" stroke-opacity="0.6" marker-end="url(#arrow)"/>
<rect x="80.0" y="540.0" width="271.41999999999996" height="58" fill="#e8e8e8" stroke="#999" stroke-width="2" rx="8"/>
<text x="215.70999999999998" y="558.0" text-anchor="middle" fill="#333" font-family="Arial,sans-serif" font-size="12" font-weight="bold">Gender Pronoun &#x27;he&#x27;</text>
<text x="215.70999999999998" y="576.0" text-anchor="middle" fill="#666" font-family="monospace" font-size="9">L0:F12768 —  mentions of &quot;he&quot; and &quot;she&quot; in</text>
<circle cx="333.41999999999996" cy="553.0" r="9" fill="#ccc"/>
<text x="333.41999999999996" y="557.0" text-anchor="middle" fill="#666" font-family="monospace" font-size="9" font-weight="bold">1</text>
<rect x="244.29000000000002" y="194.0" width="271.41999999999996" height="114" fill="#e8e8e8" stroke="#999" stroke-width="2" rx="8"/>
<text x="380.0" y="212.0" text-anchor="middle" fill="#333" font-family="Arial,sans-serif" font-size="12" font-weight="bold">Writer/Journalism</text>
<text x="380.0" y="226.0" text-anchor="middle" fill="#333" font-family="Arial,sans-serif" font-size="12" font-weight="bold">Profession</text>
<text x="380.0" y="244.0" text-anchor="middle" fill="#666" font-family="monospace" font-size="9">L2:F9210 — words related to journalism, w</text>
<text x="380.0" y="258.0" text-anchor="middle" fill="#666" font-family="monospace" font-size="9">L4:F13253 —  things related to journalism </text>
<text x="380.0" y="272.0" text-anchor="middle" fill="#666" font-family="monospace" font-size="9">L6:F12712 —  titles of editors and publish</text>
<text x="380.0" y="286.0" text-anchor="middle" fill="#666" font-family="monospace" font-size="9">L7:F13646 —  news reporting and journalism</text>
<text x="380.0" y="300.0" text-anchor="middle" fill="#666" font-family="monospace" font-size="9">... +2 more</text>
<circle cx="497.71000000000004" cy="207.0" r="9" fill="#ccc"/>
<text x="497.71000000000004" y="211.0" text-anchor="middle" fill="#666" font-family="monospace" font-size="9" font-weight="bold">6</text>
<rect x="391.41999999999996" y="547.0" width="200" height="44" fill="#e8e8e8" stroke="#999" stroke-width="2" rx="8"/>
<text x="491.41999999999996" y="565.0" text-anchor="middle" fill="#333" font-family="Arial,sans-serif" font-size="12" font-weight="bold">Emb: &#x27;writer&#x27; (pos 28)</text>
<circle cx="573.42" cy="560.0" r="9" fill="#ccc"/>
<text x="573.42" y="564.0" text-anchor="middle" fill="#666" font-family="monospace" font-size="9" font-weight="bold">0</text>
<rect x="631.42" y="547.0" width="214.0" height="44" fill="#e8e8e8" stroke="#999" stroke-width="2" rx="8"/>
<text x="738.42" y="565.0" text-anchor="middle" fill="#333" font-family="Arial,sans-serif" font-size="12" font-weight="bold">Emb: &#x27;freelance&#x27; (pos 27)</text>
<circle cx="827.42" cy="560.0" r="9" fill="#ccc"/>
<text x="827.42" y="564.0" text-anchor="middle" fill="#666" font-family="monospace" font-size="9" font-weight="bold">0</text>
<rect x="885.42" y="547.0" width="200" height="44" fill="#e8e8e8" stroke="#999" stroke-width="2" rx="8"/>
<text x="985.42" y="565.0" text-anchor="middle" fill="#333" font-family="Arial,sans-serif" font-size="12" font-weight="bold">Emb: &#x27;he&#x27; (pos 22)</text>
<circle cx="1067.42" cy="560.0" r="9" fill="#ccc"/>
<text x="1067.42" y="564.0" text-anchor="middle" fill="#666" font-family="monospace" font-size="9" font-weight="bold">0</text>
<rect x="1125.42" y="540.0" width="200" height="58" fill="#e8e8e8" stroke="#999" stroke-width="2" rx="8"/>
<text x="1225.42" y="558.0" text-anchor="middle" fill="#333" font-family="Arial,sans-serif" font-size="12" font-weight="bold">Emb: &#x27;at&#x27; (pos 2)</text>
<text x="1225.42" y="576.0" text-anchor="middle" fill="#666" font-family="monospace" font-size="9">L0:F7124 — the word &quot;at&quot;</text>
<circle cx="1307.42" cy="553.0" r="9" fill="#ccc"/>
<text x="1307.42" y="557.0" text-anchor="middle" fill="#666" font-family="monospace" font-size="9" font-weight="bold">1</text>
<rect x="247.04500000000002" y="388.0" width="265.90999999999997" height="72" fill="#e8e8e8" stroke="#999" stroke-width="2" rx="8"/>
<text x="380.0" y="406.0" text-anchor="middle" fill="#333" font-family="Arial,sans-serif" font-size="12" font-weight="bold">Institute Entity</text>
<text x="380.0" y="420.0" text-anchor="middle" fill="#333" font-family="Arial,sans-serif" font-size="12" font-weight="bold">Recognition</text>
<text x="380.0" y="438.0" text-anchor="middle" fill="#666" font-family="monospace" font-size="9">L1:F4459 —  mentions of research institut</text>
<text x="380.0" y="452.0" text-anchor="middle" fill="#666" font-family="monospace" font-size="9">L3:F10489 —  the word &quot;Institute&quot;</text>
<circle cx="494.9549999999999" cy="401.0" r="9" fill="#ccc"/>
<text x="494.9549999999999" y="405.0" text-anchor="middle" fill="#666" font-family="monospace" font-size="9" font-weight="bold">2</text>
<rect x="1365.42" y="547.0" width="207.04" height="44" fill="#e8e8e8" stroke="#999" stroke-width="2" rx="8"/>
<text x="1468.94" y="565.0" text-anchor="middle" fill="#333" font-family="Arial,sans-serif" font-size="12" font-weight="bold">Emb: &#x27;Institute&#x27; (pos 7)</text>
<circle cx="1554.46" cy="560.0" r="9" fill="#ccc"/>
<text x="1554.46" y="564.0" text-anchor="middle" fill="#666" font-family="monospace" font-size="9" font-weight="bold">0</text>
<rect x="269.52" y="70.0" width="220.95999999999998" height="44" fill="#e8e8e8" stroke="#999" stroke-width="2" rx="8"/>
<text x="380.0" y="88.0" text-anchor="middle" fill="#333" font-family="Arial,sans-serif" font-size="12" font-weight="bold">Probe Classification Score</text>
<circle cx="472.47999999999996" cy="83.0" r="9" fill="#ccc"/>
<text x="472.47999999999996" y="87.0" text-anchor="middle" fill="#666" font-family="monospace" font-size="9" font-weight="bold">0</text>
<line x1="40" y1="678" x2="1652" y2="678" stroke="#ddd" stroke-width="1"/>
<text x="40" y="696" fill="#666" font-family="Arial,sans-serif" font-size="10" font-weight="bold" letter-spacing="1px">PROMPT</text>
<text x="40" y="714" fill="#333" font-family="monospace" font-size="11">"&lt;bos&gt;Starting at the Royal United Services Institute for Defence Studies, covering both Middle East defence and European"</text>
<text x="40" y="738" fill="#666" font-family="Arial,sans-serif" font-size="10" font-weight="bold" letter-spacing="1px">TOP OUTPUTS</text>
<rect x="40" y="743" width="100" height="20" fill="#e8e8e8" stroke="none" rx="6"/>
<text x="45" y="757" fill="#333" font-family="Arial,sans-serif" font-size="11" font-weight="bold">(empty) <tspan fill="#555" font-size="10">100%</tspan></text>
</svg>