<svg width="1628" height="999" xmlns="http://www.w3.org/2000/svg">
<rect width="1628" height="999" fill="#f5f5f5"/>
<rect x="15" y="15" width="1598" height="969" fill="white" stroke="none" rx="12"/>
<text x="40" y="48" fill="#666" font-family="Arial,sans-serif" font-size="14" font-weight="bold" letter-spacing="1px">ATTRIBUTION CIRCUIT</text>
<text x="25" y="96.0" fill="#999" font-family="monospace" font-size="10" font-weight="bold" text-anchor="start">L36</text>
<text x="25" y="227.0" fill="#999" font-family="monospace" font-size="10" font-weight="bold" text-anchor="start">L18</text>
<text x="25" y="365.0" fill="#999" font-family="monospace" font-size="10" font-weight="bold" text-anchor="start">L7</text>
<text x="25" y="503.0" fill="#999" font-family="monospace" font-size="10" font-weight="bold" text-anchor="start">L6</text>
<text x="25" y="648.0" fill="#999" font-family="monospace" font-size="10" font-weight="bold" text-anchor="start">L4</text>
<text x="25" y="786.0" fill="#999" font-family="monospace" font-size="10" font-weight="bold" text-anchor="start">L0</text>
<defs><marker id="arrow" markerWidth="8" markerHeight="6" refX="8" refY="3" orient="auto"><polygon points="0,0 8,3 0,6" fill="#8B4513" fill-opacity="0.7"/></marker></defs>
<path d="M 180.0,760.0 C 210.0,644.0 350.0,644.0 380.0,528.0" fill="none" stroke="#8B4513" stroke-width="3" stroke-opacity="0.6" marker-end="url(#arrow)"/>
<path d="M 420.03999999999996,760.0 C 391.09074999999996,575.0 255.99425000000002,575.0 227.04500000000002,390.0" fill="none" stroke="#8B4513" stroke-width="3" stroke-opacity="0.6" marker-end="url(#arrow)"/>
<path d="M 660.0799999999999,760.0 C 618.068,720.0 422.012,720.0 380.0,680.0" fill="none" stroke="#8B4513" stroke-width="3" stroke-opacity="0.6" marker-end="url(#arrow)"/>
<path d="M 900.0799999999999,760.0 C 822.068,506.0 458.012,506.0 380.0,252.0" fill="none" stroke="#8B4513" stroke-width="3" stroke-opacity="0.6" marker-end="url(#arrow)"/>
<path d="M 1143.6,760.0 C 1029.06,720.0 494.53999999999996,720.0 380.0,680.0" fill="none" stroke="#8B4513" stroke-width="3" stroke-opacity="0.6" marker-end="url(#arrow)"/>
<path d="M 1397.6,760.0 C 1244.96,720.0 532.64,720.0 380.0,680.0" fill="none" stroke="#8B4513" stroke-width="3" stroke-opacity="0.6" marker-end="url(#arrow)"/>
<path d="M 380.0,470.0 C 380.0,292.0 380.0,292.0 380.0,114.0" fill="none" stroke="#8B4513" stroke-width="3" stroke-opacity="0.6" marker-end="url(#arrow)"/>
<path d="M 380.0,194.0 C 380.0,154.0 380.0,154.0 380.0,114.0" fill="none" stroke="#8B4513" stroke-width="3" stroke-opacity="0.6" marker-end="url(#arrow)"/>
<path d="M 227.04500000000002,332.0 C 249.98825000000002,223.0 357.05675,223.0 380.0,114.0" fill="none" stroke="#8B4513" stroke-width="3" stroke-opacity="0.6" marker-end="url(#arrow)"/>
<path d="M 380.0,608.0 C 380.0,361.0 380.0,361.0 380.0,114.0" fill="none" stroke="#8B4513" stroke-width="3" stroke-opacity="0.6" marker-end="url(#arrow)"/>
<path d="M 532.9549999999999,332.0 C 510.01174999999995,223.0 402.94325,223.0 380.0,114.0" fill="none" stroke="#8B4513" stroke-width="3" stroke-opacity="0.6" marker-end="url(#arrow)"/>
<path d="M 180.0,760.0 C 187.05675,575.0 219.98825000000002,575.0 227.04500000000002,390.0" fill="none" stroke="#8B4513" stroke-width="3" stroke-opacity="0.6" marker-end="url(#arrow)"/>
<rect x="80.0" y="760.0" width="200" height="44" fill="#e8e8e8" stroke="#999" stroke-width="2" rx="8"/>
<text x="180.0" y="778.0" text-anchor="middle" fill="#333" font-family="Arial,sans-serif" font-size="12" font-weight="bold">Emb: &#x27;She&#x27; (pos 1)</text>
<circle cx="262.0" cy="773.0" r="9" fill="#ccc"/>
<text x="262.0" y="777.0" text-anchor="middle" fill="#666" font-family="monospace" font-size="9" font-weight="bold">0</text>
<rect x="320.0" y="760.0" width="200.07999999999998" height="44" fill="#e8e8e8" stroke="#999" stroke-width="2" rx="8"/>
<text x="420.03999999999996" y="778.0" text-anchor="middle" fill="#333" font-family="Arial,sans-serif" font-size="12" font-weight="bold">Emb: &#x27;Heather&#x27; (pos 31)</text>
<circle cx="502.0799999999999" cy="773.0" r="9" fill="#ccc"/>
<text x="502.0799999999999" y="777.0" text-anchor="middle" fill="#666" font-family="monospace" font-size="9" font-weight="bold">0</text>
<rect x="560.0799999999999" y="760.0" width="200" height="44" fill="#e8e8e8" stroke="#999" stroke-width="2" rx="8"/>
<text x="660.0799999999999" y="778.0" text-anchor="middle" fill="#333" font-family="Arial,sans-serif" font-size="12" font-weight="bold">Emb: &#x27;RD&#x27; (pos 55)</text>
<circle cx="742.0799999999999" cy="773.0" r="9" fill="#ccc"/>
<text x="742.0799999999999" y="777.0" text-anchor="middle" fill="#666" font-family="monospace" font-size="9" font-weight="bold">0</text>
<rect x="800.0799999999999" y="760.0" width="200" height="44" fill="#e8e8e8" stroke="#999" stroke-width="2" rx="8"/>
<text x="900.0799999999999" y="778.0" text-anchor="middle" fill="#333" font-family="Arial,sans-serif" font-size="12" font-weight="bold">Emb: &#x27; she&#x27; (pos 57)</text>
<circle cx="982.0799999999999" cy="773.0" r="9" fill="#ccc"/>
<text x="982.0799999999999" y="777.0" text-anchor="middle" fill="#666" font-family="monospace" font-size="9" font-weight="bold">0</text>
<rect x="1040.08" y="760.0" width="207.04" height="44" fill="#e8e8e8" stroke="#999" stroke-width="2" rx="8"/>
<text x="1143.6" y="778.0" text-anchor="middle" fill="#333" font-family="Arial,sans-serif" font-size="12" font-weight="bold">Emb: &#x27; Diet&#x27; (pos 20-21)</text>
<circle cx="1229.12" cy="773.0" r="9" fill="#ccc"/>
<text x="1229.12" y="777.0" text-anchor="middle" fill="#666" font-family="monospace" font-size="9" font-weight="bold">0</text>
<rect x="1287.12" y="760.0" width="220.95999999999998" height="44" fill="#e8e8e8" stroke="#999" stroke-width="2" rx="8"/>
<text x="1397.6" y="778.0" text-anchor="middle" fill="#333" font-family="Arial,sans-serif" font-size="12" font-weight="bold">Emb: &#x27;Nutritional&#x27; (pos 9)</text>
<circle cx="1490.08" cy="773.0" r="9" fill="#ccc"/>
<text x="1490.08" y="777.0" text-anchor="middle" fill="#666" font-family="monospace" font-size="9" font-weight="bold">0</text>
<rect x="244.29000000000002" y="470.0" width="271.41999999999996" height="58" fill="#e8e8e8" stroke="#999" stroke-width="2" rx="8"/>
<text x="380.0" y="488.0" text-anchor="middle" fill="#333" font-family="Arial,sans-serif" font-size="12" font-weight="bold">Gender: References to</text>
<text x="380.0" y="502.0" text-anchor="middle" fill="#333" font-family="Arial,sans-serif" font-size="12" font-weight="bold">women (L6:F11646)</text>
<text x="380.0" y="520.0" text-anchor="middle" fill="#666" font-family="monospace" font-size="9">L6:F11646 —  references to women, potentia</text>
<circle cx="497.71000000000004" cy="483.0" r="9" fill="#ccc"/>
<text x="497.71000000000004" y="487.0" text-anchor="middle" fill="#666" font-family="monospace" font-size="9" font-weight="bold">1</text>
<rect x="241.53500000000003" y="194.0" width="276.92999999999995" height="58" fill="#e8e8e8" stroke="#999" stroke-width="2" rx="8"/>
<text x="380.0" y="212.0" text-anchor="middle" fill="#333" font-family="Arial,sans-serif" font-size="12" font-weight="bold">Gender: Instances of women</text>
<text x="380.0" y="226.0" text-anchor="middle" fill="#333" font-family="Arial,sans-serif" font-size="12" font-weight="bold">mentioned (L18:F14677)</text>
<text x="380.0" y="244.0" text-anchor="middle" fill="#666" font-family="monospace" font-size="9">L18:F14677 —  instances of women or girls b</text>
<circle cx="500.4649999999999" cy="207.0" r="9" fill="#ccc"/>
<text x="500.4649999999999" y="211.0" text-anchor="middle" fill="#666" font-family="monospace" font-size="9" font-weight="bold">1</text>
<rect x="94.09000000000003" y="332.0" width="265.90999999999997" height="58" fill="#e8e8e8" stroke="#999" stroke-width="2" rx="8"/>
<text x="227.04500000000002" y="350.0" text-anchor="middle" fill="#333" font-family="Arial,sans-serif" font-size="12" font-weight="bold">Gender: Woman&#x27;s name -</text>
<text x="227.04500000000002" y="364.0" text-anchor="middle" fill="#333" font-family="Arial,sans-serif" font-size="12" font-weight="bold">suppresses female</text>
<text x="227.04500000000002" y="378.0" text-anchor="middle" fill="#333" font-family="Arial,sans-serif" font-size="12" font-weight="bold">(L7:F8644)</text>
<text x="227.04500000000002" y="396.0" text-anchor="middle" fill="#666" font-family="monospace" font-size="9">L7:F8644 —  woman&#x27;s name in a variety of </text>
<circle cx="342.0" cy="345.0" r="9" fill="#ccc"/>
<text x="342.0" y="349.0" text-anchor="middle" fill="#666" font-family="monospace" font-size="9" font-weight="bold">1</text>
<rect x="244.29000000000002" y="608.0" width="271.41999999999996" height="72" fill="#e8e8e8" stroke="#999" stroke-width="2" rx="8"/>
<text x="380.0" y="626.0" text-anchor="middle" fill="#333" font-family="Arial,sans-serif" font-size="12" font-weight="bold">Profession: Diet/Dietary</text>
<text x="380.0" y="640.0" text-anchor="middle" fill="#333" font-family="Arial,sans-serif" font-size="12" font-weight="bold">health terms (L4:F13412)</text>
<text x="380.0" y="658.0" text-anchor="middle" fill="#666" font-family="monospace" font-size="9">L4:F13412 —  terms related to diets and di</text>
<text x="380.0" y="672.0" text-anchor="middle" fill="#666" font-family="monospace" font-size="9">L4:F13412 —  terms related to diets and di</text>
<circle cx="497.71000000000004" cy="621.0" r="9" fill="#ccc"/>
<text x="497.71000000000004" y="625.0" text-anchor="middle" fill="#666" font-family="monospace" font-size="9" font-weight="bold">2</text>
<rect x="399.99999999999994" y="332.0" width="265.90999999999997" height="58" fill="#e8e8e8" stroke="#999" stroke-width="2" rx="8"/>
<text x="532.9549999999999" y="350.0" text-anchor="middle" fill="#333" font-family="Arial,sans-serif" font-size="12" font-weight="bold">People: Personal</text>
<text x="532.9549999999999" y="364.0" text-anchor="middle" fill="#333" font-family="Arial,sans-serif" font-size="12" font-weight="bold">mentions/details</text>
<text x="532.9549999999999" y="378.0" text-anchor="middle" fill="#333" font-family="Arial,sans-serif" font-size="12" font-weight="bold">(L7:F2765)</text>
<text x="532.9549999999999" y="396.0" text-anchor="middle" fill="#666" font-family="monospace" font-size="9">L7:F2765 —  mentions of people or charact</text>
<circle cx="647.9099999999999" cy="345.0" r="9" fill="#ccc"/>
<text x="647.9099999999999" y="349.0" text-anchor="middle" fill="#666" font-family="monospace" font-size="9" font-weight="bold">1</text>
<rect x="269.52" y="70.0" width="220.95999999999998" height="44" fill="#e8e8e8" stroke="#999" stroke-width="2" rx="8"/>
<text x="380.0" y="88.0" text-anchor="middle" fill="#333" font-family="Arial,sans-serif" font-size="12" font-weight="bold">Probe Classification Score</text>
<circle cx="472.47999999999996" cy="83.0" r="9" fill="#ccc"/>
<text x="472.47999999999996" y="87.0" text-anchor="middle" fill="#666" font-family="monospace" font-size="9" font-weight="bold">0</text>
<line x1="40" y1="884" x2="1588" y2="884" stroke="#ddd" stroke-width="1"/>
<text x="40" y="902" fill="#666" font-family="Arial,sans-serif" font-size="10" font-weight="bold" letter-spacing="1px">PROMPT</text>
<text x="40" y="920" fill="#333" font-family="monospace" font-size="11">"&lt;bos&gt;She has a Bachelor’s degree in Nutritional Sciences from Penn State, and continued her education in Dietetics throu"</text>
<text x="40" y="944" fill="#666" font-family="Arial,sans-serif" font-size="10" font-weight="bold" letter-spacing="1px">TOP OUTPUTS</text>
<rect x="40" y="949" width="100" height="20" fill="#e8e8e8" stroke="none" rx="6"/>
<text x="45" y="963" fill="#333" font-family="Arial,sans-serif" font-size="11" font-weight="bold">(empty) <tspan fill="#555" font-size="10">100%</tspan></text>
</svg>