<svg width="2661" height="1747" xmlns="http://www.w3.org/2000/svg">
<rect width="2661" height="1747" fill="#f5f5f5"/>
<rect x="15" y="15" width="2631" height="1717" fill="white" stroke="none" rx="12"/>
<text x="40" y="48" fill="#666" font-family="Arial,sans-serif" font-size="14" font-weight="bold" letter-spacing="1px">ATTRIBUTION CIRCUIT</text>
<text x="25" y="96.0" fill="#999" font-family="monospace" font-size="10" font-weight="bold" text-anchor="start">L36</text>
<text x="25" y="248.0" fill="#999" font-family="monospace" font-size="10" font-weight="bold" text-anchor="start">L20</text>
<text x="25" y="407.0" fill="#999" font-family="monospace" font-size="10" font-weight="bold" text-anchor="start">L14</text>
<text x="25" y="545.0" fill="#999" font-family="monospace" font-size="10" font-weight="bold" text-anchor="start">L8</text>
<text x="25" y="697.0" fill="#999" font-family="monospace" font-size="10" font-weight="bold" text-anchor="start">L7</text>
<text x="25" y="849.0" fill="#999" font-family="monospace" font-size="10" font-weight="bold" text-anchor="start">L6</text>
<text x="25" y="1015.0" fill="#999" font-family="monospace" font-size="10" font-weight="bold" text-anchor="start">L4</text>
<text x="25" y="1209.0" fill="#999" font-family="monospace" font-size="10" font-weight="bold" text-anchor="start">L2</text>
<text x="25" y="1375.0" fill="#999" font-family="monospace" font-size="10" font-weight="bold" text-anchor="start">L1</text>
<text x="25" y="1520.0" fill="#999" font-family="monospace" font-size="10" font-weight="bold" text-anchor="start">L0</text>
<defs><marker id="arrow" markerWidth="8" markerHeight="6" refX="8" refY="3" orient="auto"><polygon points="0,0 8,3 0,6" fill="#8B4513" fill-opacity="0.7"/></marker></defs>
<path d="M 180.0,1538.0 C 514.21125,1509.0 2073.86375,1509.0 2408.075,1480.0" fill="none" stroke="#8B4513" stroke-width="3" stroke-opacity="0.6" marker-end="url(#arrow)"/>
<path d="M 420.0,1538.0 C 718.21125,1509.0 2109.86375,1509.0 2408.075,1480.0" fill="none" stroke="#8B4513" stroke-width="3" stroke-opacity="0.6" marker-end="url(#arrow)"/>
<path d="M 180.0,1494.0 C 184.94325,1367.5 208.01174999999998,1367.5 212.95499999999998,1241.0" fill="none" stroke="#8B4513" stroke-width="3" stroke-opacity="0.6" marker-end="url(#arrow)"/>
<path d="M 2408.075,1480.0 C 2078.807,1360.5 542.223,1360.5 212.95499999999998,1241.0" fill="none" stroke="#8B4513" stroke-width="3" stroke-opacity="0.6" marker-end="url(#arrow)"/>
<path d="M 660.04,1494.0 C 618.034,1447.0 422.006,1447.0 380.0,1400.0" fill="none" stroke="#8B4513" stroke-width="3" stroke-opacity="0.6" marker-end="url(#arrow)"/>
<path d="M 903.5999999999999,1494.0 C 825.06,1447.0 458.53999999999996,1447.0 380.0,1400.0" fill="none" stroke="#8B4513" stroke-width="3" stroke-opacity="0.6" marker-end="url(#arrow)"/>
<path d="M 1648.08,1494.0 C 1479.1109999999999,1378.0 690.5889999999999,1378.0 521.6199999999999,1262.0" fill="none" stroke="#8B4513" stroke-width="3" stroke-opacity="0.6" marker-end="url(#arrow)"/>
<path d="M 1147.12,1494.0 C 1053.2949999999998,1378.0 615.4449999999999,1378.0 521.6199999999999,1262.0" fill="none" stroke="#8B4513" stroke-width="3" stroke-opacity="0.6" marker-end="url(#arrow)"/>
<path d="M 1397.6,1494.0 C 1266.203,1378.0 653.0169999999998,1378.0 521.6199999999999,1262.0" fill="none" stroke="#8B4513" stroke-width="3" stroke-opacity="0.6" marker-end="url(#arrow)"/>
<path d="M 521.6199999999999,1148.0 C 477.4337499999999,1108.0 271.23125,1108.0 227.04500000000002,1068.0" fill="none" stroke="#8B4513" stroke-width="3" stroke-opacity="0.6" marker-end="url(#arrow)"/>
<path d="M 1147.12,1494.0 C 1009.1087499999999,1281.0 365.05625,1281.0 227.04500000000002,1068.0" fill="none" stroke="#8B4513" stroke-width="3" stroke-opacity="0.6" marker-end="url(#arrow)"/>
<path d="M 2135.12,1494.0 C 1848.90875,1281.0 513.2562499999999,1281.0 227.04500000000002,1068.0" fill="none" stroke="#8B4513" stroke-width="3" stroke-opacity="0.6" marker-end="url(#arrow)"/>
<path d="M 1891.6,1494.0 C 1641.9167499999999,1281.0 476.72825,1281.0 227.04500000000002,1068.0" fill="none" stroke="#8B4513" stroke-width="3" stroke-opacity="0.6" marker-end="url(#arrow)"/>
<path d="M 227.04500000000002,954.0 C 249.98825000000002,845.0 357.05675,845.0 380.0,736.0" fill="none" stroke="#8B4513" stroke-width="3" stroke-opacity="0.6" marker-end="url(#arrow)"/>
<path d="M 521.6199999999999,1148.0 C 500.3769999999999,942.0 401.243,942.0 380.0,736.0" fill="none" stroke="#8B4513" stroke-width="3" stroke-opacity="0.6" marker-end="url(#arrow)"/>
<path d="M 1147.12,1494.0 C 1032.052,1115.0 495.068,1115.0 380.0,736.0" fill="none" stroke="#8B4513" stroke-width="3" stroke-opacity="0.6" marker-end="url(#arrow)"/>
<path d="M 380.0,650.0 C 380.0,472.0 380.0,472.0 380.0,294.0" fill="none" stroke="#8B4513" stroke-width="3" stroke-opacity="0.6" marker-end="url(#arrow)"/>
<path d="M 227.04500000000002,954.0 C 249.98825000000002,624.0 357.05675,624.0 380.0,294.0" fill="none" stroke="#8B4513" stroke-width="3" stroke-opacity="0.6" marker-end="url(#arrow)"/>
<path d="M 380.0,650.0 C 380.0,610.0 380.0,610.0 380.0,570.0" fill="none" stroke="#8B4513" stroke-width="3" stroke-opacity="0.6" marker-end="url(#arrow)"/>
<path d="M 903.5999999999999,1494.0 C 892.6027499999999,1364.0 841.2822499999999,1364.0 830.2849999999999,1234.0" fill="none" stroke="#8B4513" stroke-width="3" stroke-opacity="0.6" marker-end="url(#arrow)"/>
<path d="M 660.04,1494.0 C 685.57675,1364.0 804.7482499999999,1364.0 830.2849999999999,1234.0" fill="none" stroke="#8B4513" stroke-width="3" stroke-opacity="0.6" marker-end="url(#arrow)"/>
<path d="M 2408.075,1480.0 C 2103.86375,797.0 684.21125,797.0 380.0,114.0" fill="none" stroke="#8B4513" stroke-width="3" stroke-opacity="0.6" marker-end="url(#arrow)"/>
<path d="M 212.95499999999998,1169.0 C 238.01174999999998,641.5 354.94325,641.5 380.0,114.0" fill="none" stroke="#8B4513" stroke-width="3" stroke-opacity="0.6" marker-end="url(#arrow)"/>
<path d="M 380.0,1342.0 C 380.0,728.0 380.0,728.0 380.0,114.0" fill="none" stroke="#8B4513" stroke-width="3" stroke-opacity="0.6" marker-end="url(#arrow)"/>
<path d="M 380.0,650.0 C 380.0,382.0 380.0,382.0 380.0,114.0" fill="none" stroke="#8B4513" stroke-width="3" stroke-opacity="0.6" marker-end="url(#arrow)"/>
<path d="M 227.04500000000002,954.0 C 249.98825000000002,534.0 357.05675,534.0 380.0,114.0" fill="none" stroke="#8B4513" stroke-width="3" stroke-opacity="0.6" marker-end="url(#arrow)"/>
<path d="M 380.0,512.0 C 380.0,313.0 380.0,313.0 380.0,114.0" fill="none" stroke="#8B4513" stroke-width="3" stroke-opacity="0.6" marker-end="url(#arrow)"/>
<path d="M 380.0,374.0 C 380.0,244.0 380.0,244.0 380.0,114.0" fill="none" stroke="#8B4513" stroke-width="3" stroke-opacity="0.6" marker-end="url(#arrow)"/>
<path d="M 380.0,816.0 C 380.0,465.0 380.0,465.0 380.0,114.0" fill="none" stroke="#8B4513" stroke-width="3" stroke-opacity="0.6" marker-end="url(#arrow)"/>
<path d="M 380.0,194.0 C 380.0,154.0 380.0,154.0 380.0,114.0" fill="none" stroke="#8B4513" stroke-width="3" stroke-opacity="0.6" marker-end="url(#arrow)"/>
<path d="M 535.71,982.0 C 512.3535,548.0 403.3565,548.0 380.0,114.0" fill="none" stroke="#8B4513" stroke-width="3" stroke-opacity="0.6" marker-end="url(#arrow)"/>
<path d="M 830.2849999999999,1176.0 C 762.7422499999999,645.0 447.54274999999996,645.0 380.0,114.0" fill="none" stroke="#8B4513" stroke-width="3" stroke-opacity="0.6" marker-end="url(#arrow)"/>
<path d="M 521.6199999999999,1148.0 C 500.3769999999999,631.0 401.243,631.0 380.0,114.0" fill="none" stroke="#8B4513" stroke-width="3" stroke-opacity="0.6" marker-end="url(#arrow)"/>
<rect x="80.0" y="1494.0" width="200" height="44" fill="#e8e8e8" stroke="#999" stroke-width="2" rx="8"/>
<text x="180.0" y="1512.0" text-anchor="middle" fill="#333" font-family="Arial,sans-serif" font-size="12" font-weight="bold">Emb: &#x27;His&#x27; (pos 1)</text>
<circle cx="262.0" cy="1507.0" r="9" fill="#ccc"/>
<text x="262.0" y="1511.0" text-anchor="middle" fill="#666" font-family="monospace" font-size="9" font-weight="bold">0</text>
<rect x="320.0" y="1494.0" width="200" height="44" fill="#e8e8e8" stroke="#999" stroke-width="2" rx="8"/>
<text x="420.0" y="1512.0" text-anchor="middle" fill="#333" font-family="Arial,sans-serif" font-size="12" font-weight="bold">Emb: &#x27;&lt;bos&gt;&#x27; (pos 0)</text>
<circle cx="502.0" cy="1507.0" r="9" fill="#ccc"/>
<text x="502.0" y="1511.0" text-anchor="middle" fill="#666" font-family="monospace" font-size="9" font-weight="bold">0</text>
<rect x="560.0" y="1494.0" width="200.07999999999998" height="44" fill="#e8e8e8" stroke="#999" stroke-width="2" rx="8"/>
<text x="660.04" y="1512.0" text-anchor="middle" fill="#333" font-family="Arial,sans-serif" font-size="12" font-weight="bold">Emb: &#x27;research&#x27; (pos 2)</text>
<circle cx="742.0799999999999" cy="1507.0" r="9" fill="#ccc"/>
<text x="742.0799999999999" y="1511.0" text-anchor="middle" fill="#666" font-family="monospace" font-size="9" font-weight="bold">0</text>
<rect x="800.0799999999999" y="1494.0" width="207.04" height="44" fill="#e8e8e8" stroke="#999" stroke-width="2" rx="8"/>
<text x="903.5999999999999" y="1512.0" text-anchor="middle" fill="#333" font-family="Arial,sans-serif" font-size="12" font-weight="bold">Emb: &#x27;interests&#x27; (pos 3)</text>
<circle cx="989.1199999999999" cy="1507.0" r="9" fill="#ccc"/>
<text x="989.1199999999999" y="1511.0" text-anchor="middle" fill="#666" font-family="monospace" font-size="9" font-weight="bold">0</text>
<rect x="1047.12" y="1494.0" width="200" height="44" fill="#e8e8e8" stroke="#999" stroke-width="2" rx="8"/>
<text x="1147.12" y="1512.0" text-anchor="middle" fill="#333" font-family="Arial,sans-serif" font-size="12" font-weight="bold">Emb: &#x27;PhD&#x27; (pos 27)</text>
<circle cx="1229.12" cy="1507.0" r="9" fill="#ccc"/>
<text x="1229.12" y="1511.0" text-anchor="middle" fill="#666" font-family="monospace" font-size="9" font-weight="bold">0</text>
<rect x="1287.12" y="1494.0" width="220.95999999999998" height="44" fill="#e8e8e8" stroke="#999" stroke-width="2" rx="8"/>
<text x="1397.6" y="1512.0" text-anchor="middle" fill="#333" font-family="Arial,sans-serif" font-size="12" font-weight="bold">Emb: &#x27;University&#x27; (pos 24)</text>
<circle cx="1490.08" cy="1507.0" r="9" fill="#ccc"/>
<text x="1490.08" y="1511.0" text-anchor="middle" fill="#666" font-family="monospace" font-size="9" font-weight="bold">0</text>
<rect x="1548.08" y="1494.0" width="200" height="44" fill="#e8e8e8" stroke="#999" stroke-width="2" rx="8"/>
<text x="1648.08" y="1512.0" text-anchor="middle" fill="#333" font-family="Arial,sans-serif" font-size="12" font-weight="bold">Emb: &#x27;BS&#x27; (pos 17)</text>
<circle cx="1730.08" cy="1507.0" r="9" fill="#ccc"/>
<text x="1730.08" y="1511.0" text-anchor="middle" fill="#666" font-family="monospace" font-size="9" font-weight="bold">0</text>
<rect x="1788.08" y="1494.0" width="207.04" height="44" fill="#e8e8e8" stroke="#999" stroke-width="2" rx="8"/>
<text x="1891.6" y="1512.0" text-anchor="middle" fill="#333" font-family="Arial,sans-serif" font-size="12" font-weight="bold">Emb: &#x27;received&#x27; (pos 15)</text>
<circle cx="1977.12" cy="1507.0" r="9" fill="#ccc"/>
<text x="1977.12" y="1511.0" text-anchor="middle" fill="#666" font-family="monospace" font-size="9" font-weight="bold">0</text>
<rect x="2035.12" y="1494.0" width="200" height="44" fill="#e8e8e8" stroke="#999" stroke-width="2" rx="8"/>
<text x="2135.12" y="1512.0" text-anchor="middle" fill="#333" font-family="Arial,sans-serif" font-size="12" font-weight="bold">Emb: &#x27;from&#x27; (pos 21)</text>
<circle cx="2217.12" cy="1507.0" r="9" fill="#ccc"/>
<text x="2217.12" y="1511.0" text-anchor="middle" fill="#666" font-family="monospace" font-size="9" font-weight="bold">0</text>
<rect x="2275.12" y="1480.0" width="265.90999999999997" height="72" fill="#e8e8e8" stroke="#999" stroke-width="2" rx="8"/>
<text x="2408.075" y="1498.0" text-anchor="middle" fill="#333" font-family="Arial,sans-serif" font-size="12" font-weight="bold">Male pronoun detector</text>
<text x="2408.075" y="1512.0" text-anchor="middle" fill="#333" font-family="Arial,sans-serif" font-size="12" font-weight="bold">(&#x27;He&#x27;/&#x27;His&#x27;)</text>
<text x="2408.075" y="1530.0" text-anchor="middle" fill="#666" font-family="monospace" font-size="9">L0:F1069 —  references to a male person, </text>
<text x="2408.075" y="1544.0" text-anchor="middle" fill="#666" font-family="monospace" font-size="9">L0:F2994 — the pronoun &quot;his&quot; and the pron</text>
<circle cx="2523.0299999999997" cy="1493.0" r="9" fill="#ccc"/>
<text x="2523.0299999999997" y="1497.0" text-anchor="middle" fill="#666" font-family="monospace" font-size="9" font-weight="bold">2</text>
<rect x="80.0" y="1169.0" width="265.90999999999997" height="72" fill="#e8e8e8" stroke="#999" stroke-width="2" rx="8"/>
<text x="212.95499999999998" y="1187.0" text-anchor="middle" fill="#333" font-family="Arial,sans-serif" font-size="12" font-weight="bold">&#x27;His&#x27; / religious context</text>
<text x="212.95499999999998" y="1201.0" text-anchor="middle" fill="#333" font-family="Arial,sans-serif" font-size="12" font-weight="bold">detector</text>
<text x="212.95499999999998" y="1219.0" text-anchor="middle" fill="#666" font-family="monospace" font-size="9">L2:F3877 —  references to &quot;His&quot; and relig</text>
<text x="212.95499999999998" y="1233.0" text-anchor="middle" fill="#666" font-family="monospace" font-size="9">L0:F2208 —  the pronoun &quot;Him&quot; and the pos</text>
<circle cx="327.90999999999997" cy="1182.0" r="9" fill="#ccc"/>
<text x="327.90999999999997" y="1186.0" text-anchor="middle" fill="#666" font-family="monospace" font-size="9" font-weight="bold">2</text>
<rect x="244.29000000000002" y="1342.0" width="271.41999999999996" height="58" fill="#e8e8e8" stroke="#999" stroke-width="2" rx="8"/>
<text x="380.0" y="1360.0" text-anchor="middle" fill="#333" font-family="Arial,sans-serif" font-size="12" font-weight="bold">Academic research</text>
<text x="380.0" y="1374.0" text-anchor="middle" fill="#333" font-family="Arial,sans-serif" font-size="12" font-weight="bold">vocabulary detector</text>
<text x="380.0" y="1392.0" text-anchor="middle" fill="#666" font-family="monospace" font-size="9">L1:F10986 —  words related to academic res</text>
<circle cx="497.71000000000004" cy="1355.0" r="9" fill="#ccc"/>
<text x="497.71000000000004" y="1359.0" text-anchor="middle" fill="#666" font-family="monospace" font-size="9" font-weight="bold">1</text>
<rect x="385.9099999999999" y="1148.0" width="271.41999999999996" height="114" fill="#e8e8e8" stroke="#999" stroke-width="2" rx="8"/>
<text x="521.6199999999999" y="1166.0" text-anchor="middle" fill="#333" font-family="Arial,sans-serif" font-size="12" font-weight="bold">Early academic degree</text>
<text x="521.6199999999999" y="1180.0" text-anchor="middle" fill="#333" font-family="Arial,sans-serif" font-size="12" font-weight="bold">detector (BS/PhD context)</text>
<text x="521.6199999999999" y="1198.0" text-anchor="middle" fill="#666" font-family="monospace" font-size="9">L2:F10852 —  academic titles and degrees</text>
<text x="521.6199999999999" y="1212.0" text-anchor="middle" fill="#666" font-family="monospace" font-size="9">L2:F10852 —  academic titles and degrees</text>
<text x="521.6199999999999" y="1226.0" text-anchor="middle" fill="#666" font-family="monospace" font-size="9">L1:F15795 —  words related to education an</text>
<text x="521.6199999999999" y="1240.0" text-anchor="middle" fill="#666" font-family="monospace" font-size="9">L1:F12372 —  mentions of US universities a</text>
<text x="521.6199999999999" y="1254.0" text-anchor="middle" fill="#666" font-family="monospace" font-size="9">... +1 more</text>
<circle cx="639.3299999999999" cy="1161.0" r="9" fill="#ccc"/>
<text x="639.3299999999999" y="1165.0" text-anchor="middle" fill="#666" font-family="monospace" font-size="9" font-weight="bold">5</text>
<rect x="91.33500000000004" y="954.0" width="271.41999999999996" height="114" fill="#e8e8e8" stroke="#999" stroke-width="2" rx="8"/>
<text x="227.04500000000002" y="972.0" text-anchor="middle" fill="#333" font-family="Arial,sans-serif" font-size="12" font-weight="bold">Mid-layer</text>
<text x="227.04500000000002" y="986.0" text-anchor="middle" fill="#333" font-family="Arial,sans-serif" font-size="12" font-weight="bold">degree/qualification</text>
<text x="227.04500000000002" y="1000.0" text-anchor="middle" fill="#333" font-family="Arial,sans-serif" font-size="12" font-weight="bold">cascade (L3-L5)</text>
<text x="227.04500000000002" y="1018.0" text-anchor="middle" fill="#666" font-family="monospace" font-size="9">L3:F4213 —  mentions of degree qualificat</text>
<text x="227.04500000000002" y="1032.0" text-anchor="middle" fill="#666" font-family="monospace" font-size="9">L3:F11994 —  academic degrees and professi</text>
<text x="227.04500000000002" y="1046.0" text-anchor="middle" fill="#666" font-family="monospace" font-size="9">L4:F3727 —  mentions of academic degrees</text>
<text x="227.04500000000002" y="1060.0" text-anchor="middle" fill="#666" font-family="monospace" font-size="9">L4:F13943 —  words and abbreviations relat</text>
<text x="227.04500000000002" y="1074.0" text-anchor="middle" fill="#666" font-family="monospace" font-size="9">... +2 more</text>
<circle cx="344.755" cy="967.0" r="9" fill="#ccc"/>
<text x="344.755" y="971.0" text-anchor="middle" fill="#666" font-family="monospace" font-size="9" font-weight="bold">6</text>
<rect x="244.29000000000002" y="650.0" width="271.41999999999996" height="86" fill="#e8e8e8" stroke="#999" stroke-width="2" rx="8"/>
<text x="380.0" y="668.0" text-anchor="middle" fill="#333" font-family="Arial,sans-serif" font-size="12" font-weight="bold">Late-layer academic degree</text>
<text x="380.0" y="682.0" text-anchor="middle" fill="#333" font-family="Arial,sans-serif" font-size="12" font-weight="bold">features (L6-L7)</text>
<text x="380.0" y="700.0" text-anchor="middle" fill="#666" font-family="monospace" font-size="9">L6:F2254 — references to academic degrees</text>
<text x="380.0" y="714.0" text-anchor="middle" fill="#666" font-family="monospace" font-size="9">L6:F2254 — references to academic degrees</text>
<text x="380.0" y="728.0" text-anchor="middle" fill="#666" font-family="monospace" font-size="9">L7:F14129 —  academic degrees, universitie</text>
<circle cx="497.71000000000004" cy="663.0" r="9" fill="#ccc"/>
<text x="497.71000000000004" y="667.0" text-anchor="middle" fill="#666" font-family="monospace" font-size="9" font-weight="bold">3</text>
<rect x="244.29000000000002" y="512.0" width="271.41999999999996" height="58" fill="#e8e8e8" stroke="#999" stroke-width="2" rx="8"/>
<text x="380.0" y="530.0" text-anchor="middle" fill="#333" font-family="Arial,sans-serif" font-size="12" font-weight="bold">Universities/research</text>
<text x="380.0" y="544.0" text-anchor="middle" fill="#333" font-family="Arial,sans-serif" font-size="12" font-weight="bold">(NEGATIVE effect)</text>
<text x="380.0" y="562.0" text-anchor="middle" fill="#666" font-family="monospace" font-size="9">L8:F11284 —  words and phrases related to </text>
<circle cx="497.71000000000004" cy="525.0" r="9" fill="#ccc"/>
<text x="497.71000000000004" y="529.0" text-anchor="middle" fill="#666" font-family="monospace" font-size="9" font-weight="bold">1</text>
<rect x="241.53500000000003" y="374.0" width="276.92999999999995" height="58" fill="#e8e8e8" stroke="#999" stroke-width="2" rx="8"/>
<text x="380.0" y="392.0" text-anchor="middle" fill="#333" font-family="Arial,sans-serif" font-size="12" font-weight="bold">Code/geometry terms</text>
<text x="380.0" y="406.0" text-anchor="middle" fill="#333" font-family="Arial,sans-serif" font-size="12" font-weight="bold">(NEGATIVE effect)</text>
<text x="380.0" y="424.0" text-anchor="middle" fill="#666" font-family="monospace" font-size="9">L14:F11252 —  code and coordinate geometry </text>
<circle cx="500.4649999999999" cy="387.0" r="9" fill="#ccc"/>
<text x="500.4649999999999" y="391.0" text-anchor="middle" fill="#666" font-family="monospace" font-size="9" font-weight="bold">1</text>
<rect x="247.04500000000002" y="816.0" width="265.90999999999997" height="58" fill="#e8e8e8" stroke="#999" stroke-width="2" rx="8"/>
<text x="380.0" y="834.0" text-anchor="middle" fill="#333" font-family="Arial,sans-serif" font-size="12" font-weight="bold">Mechanical engineering</text>
<text x="380.0" y="848.0" text-anchor="middle" fill="#333" font-family="Arial,sans-serif" font-size="12" font-weight="bold">terms (NEGATIVE effect)</text>
<text x="380.0" y="866.0" text-anchor="middle" fill="#666" font-family="monospace" font-size="9">L6:F6331 —  technical terms in mechanical</text>
<circle cx="494.9549999999999" cy="829.0" r="9" fill="#ccc"/>
<text x="494.9549999999999" y="833.0" text-anchor="middle" fill="#666" font-family="monospace" font-size="9" font-weight="bold">1</text>
<rect x="241.53500000000003" y="194.0" width="276.92999999999995" height="100" fill="#e8e8e8" stroke="#999" stroke-width="2" rx="8"/>
<text x="380.0" y="212.0" text-anchor="middle" fill="#333" font-family="Arial,sans-serif" font-size="12" font-weight="bold">High-layer academic</text>
<text x="380.0" y="226.0" text-anchor="middle" fill="#333" font-family="Arial,sans-serif" font-size="12" font-weight="bold">credentials/institutions</text>
<text x="380.0" y="240.0" text-anchor="middle" fill="#333" font-family="Arial,sans-serif" font-size="12" font-weight="bold">(L17-L20, NEGATIVE effect)</text>
<text x="380.0" y="258.0" text-anchor="middle" fill="#666" font-family="monospace" font-size="9">L20:F14235 —  references to academic creden</text>
<text x="380.0" y="272.0" text-anchor="middle" fill="#666" font-family="monospace" font-size="9">L19:F2496 —  mentions of universities and </text>
<text x="380.0" y="286.0" text-anchor="middle" fill="#666" font-family="monospace" font-size="9">L17:F11003 — university</text>
<text x="380.0" y="300.0" text-anchor="middle" fill="#666" font-family="monospace" font-size="9">L14:F3956 —  universities and degrees</text>
<circle cx="500.4649999999999" cy="207.0" r="9" fill="#ccc"/>
<text x="500.4649999999999" y="211.0" text-anchor="middle" fill="#666" font-family="monospace" font-size="9" font-weight="bold">4</text>
<rect x="402.75500000000005" y="982.0" width="265.90999999999997" height="58" fill="#e8e8e8" stroke="#999" stroke-width="2" rx="8"/>
<text x="535.71" y="1000.0" text-anchor="middle" fill="#333" font-family="Arial,sans-serif" font-size="12" font-weight="bold">Scientific acronyms/IDs</text>
<text x="535.71" y="1018.0" text-anchor="middle" fill="#666" font-family="monospace" font-size="9">L4:F9757 — various acronyms, IDs, and sym</text>
<circle cx="650.665" cy="995.0" r="9" fill="#ccc"/>
<text x="650.665" y="999.0" text-anchor="middle" fill="#666" font-family="monospace" font-size="9" font-weight="bold">1</text>
<rect x="697.3299999999999" y="1176.0" width="265.90999999999997" height="58" fill="#e8e8e8" stroke="#999" stroke-width="2" rx="8"/>
<text x="830.2849999999999" y="1194.0" text-anchor="middle" fill="#333" font-family="Arial,sans-serif" font-size="12" font-weight="bold">Education and career info</text>
<text x="830.2849999999999" y="1212.0" text-anchor="middle" fill="#666" font-family="monospace" font-size="9">L2:F1621 —  information about people&#x27;s ed</text>
<circle cx="945.2399999999999" cy="1189.0" r="9" fill="#ccc"/>
<text x="945.2399999999999" y="1193.0" text-anchor="middle" fill="#666" font-family="monospace" font-size="9" font-weight="bold">1</text>
<rect x="269.52" y="70.0" width="220.95999999999998" height="44" fill="#e8e8e8" stroke="#999" stroke-width="2" rx="8"/>
<text x="380.0" y="88.0" text-anchor="middle" fill="#333" font-family="Arial,sans-serif" font-size="12" font-weight="bold">Probe classification score</text>
<circle cx="472.47999999999996" cy="83.0" r="9" fill="#ccc"/>
<text x="472.47999999999996" y="87.0" text-anchor="middle" fill="#666" font-family="monospace" font-size="9" font-weight="bold">0</text>
<line x1="40" y1="1632" x2="2621" y2="1632" stroke="#ddd" stroke-width="1"/>
<text x="40" y="1650" fill="#666" font-family="Arial,sans-serif" font-size="10" font-weight="bold" letter-spacing="1px">PROMPT</text>
<text x="40" y="1668" fill="#333" font-family="monospace" font-size="11">"&lt;bos&gt;His research interests include large-scale scientific visualization and computer graphics. He received a BS in comp"</text>
<text x="40" y="1692" fill="#666" font-family="Arial,sans-serif" font-size="10" font-weight="bold" letter-spacing="1px">TOP OUTPUTS</text>
<rect x="40" y="1697" width="100" height="20" fill="#e8e8e8" stroke="none" rx="6"/>
<text x="45" y="1711" fill="#333" font-family="Arial,sans-serif" font-size="11" font-weight="bold">(empty) <tspan fill="#555" font-size="10">100%</tspan></text>
</svg>