<svg width="1918" height="1415" xmlns="http://www.w3.org/2000/svg">
<rect width="1918" height="1415" fill="#f5f5f5"/>
<rect x="15" y="15" width="1888" height="1385" fill="white" stroke="none" rx="12"/>
<text x="40" y="48" fill="#666" font-family="Arial,sans-serif" font-size="14" font-weight="bold" letter-spacing="1px">ATTRIBUTION CIRCUIT</text>
<text x="25" y="96.0" fill="#999" font-family="monospace" font-size="10" font-weight="bold" text-anchor="start">L36</text>
<text x="25" y="248.0" fill="#999" font-family="monospace" font-size="10" font-weight="bold" text-anchor="start">L15</text>
<text x="25" y="414.0" fill="#999" font-family="monospace" font-size="10" font-weight="bold" text-anchor="start">L9</text>
<text x="25" y="559.0" fill="#999" font-family="monospace" font-size="10" font-weight="bold" text-anchor="start">L4</text>
<text x="25" y="704.0" fill="#999" font-family="monospace" font-size="10" font-weight="bold" text-anchor="start">L3</text>
<text x="25" y="877.0" fill="#999" font-family="monospace" font-size="10" font-weight="bold" text-anchor="start">L2</text>
<text x="25" y="1050.0" fill="#999" font-family="monospace" font-size="10" font-weight="bold" text-anchor="start">L1</text>
<text x="25" y="1195.0" fill="#999" font-family="monospace" font-size="10" font-weight="bold" text-anchor="start">L0</text>
<defs><marker id="arrow" markerWidth="8" markerHeight="6" refX="8" refY="3" orient="auto"><polygon points="0,0 8,3 0,6" fill="#8B4513" fill-opacity="0.7"/></marker></defs>
<path d="M 491.41999999999996,1169.0 C 451.76374999999996,1125.5 266.70125,1125.5 227.04500000000002,1082.0" fill="none" stroke="#8B4513" stroke-width="3" stroke-opacity="0.6" marker-end="url(#arrow)"/>
<path d="M 731.42,1169.0 C 678.707,952.5 432.71299999999997,952.5 380.0,736.0" fill="none" stroke="#8B4513" stroke-width="3" stroke-opacity="0.6" marker-end="url(#arrow)"/>
<path d="M 380.0,664.0 C 356.23025,551.5 245.30474999999998,551.5 221.535,439.0" fill="none" stroke="#8B4513" stroke-width="3" stroke-opacity="0.6" marker-end="url(#arrow)"/>
<path d="M 380.0,664.0 C 400.0505,555.0 493.61949999999996,555.0 513.67,446.0" fill="none" stroke="#8B4513" stroke-width="3" stroke-opacity="0.6" marker-end="url(#arrow)"/>
<path d="M 971.42,1169.0 C 902.7574999999999,807.5 582.3325,807.5 513.67,446.0" fill="none" stroke="#8B4513" stroke-width="3" stroke-opacity="0.6" marker-end="url(#arrow)"/>
<path d="M 221.535,439.0 C 265.35525,406.5 469.84975,406.5 513.67,374.0" fill="none" stroke="#8B4513" stroke-width="3" stroke-opacity="0.6" marker-end="url(#arrow)"/>
<path d="M 380.0,736.0 C 380.0,776.0 380.0,776.0 380.0,816.0" fill="none" stroke="#8B4513" stroke-width="3" stroke-opacity="0.6" marker-end="url(#arrow)"/>
<path d="M 227.04500000000002,1010.0 C 273.758,645.0 491.75199999999995,645.0 538.4649999999999,280.0" fill="none" stroke="#8B4513" stroke-width="3" stroke-opacity="0.6" marker-end="url(#arrow)"/>
<path d="M 491.41999999999996,1169.0 C 498.4767499999999,724.5 531.40825,724.5 538.4649999999999,280.0" fill="none" stroke="#8B4513" stroke-width="3" stroke-opacity="0.6" marker-end="url(#arrow)"/>
<path d="M 1454.94,1169.0 C 1312.227,1125.5 646.2330000000001,1125.5 503.52000000000004,1082.0" fill="none" stroke="#8B4513" stroke-width="3" stroke-opacity="0.6" marker-end="url(#arrow)"/>
<path d="M 503.52000000000004,1010.0 C 461.22225000000003,652.0 263.83275000000003,652.0 221.53500000000003,294.0" fill="none" stroke="#8B4513" stroke-width="3" stroke-opacity="0.6" marker-end="url(#arrow)"/>
<path d="M 1211.42,1169.0 C 1086.707,1049.5 504.713,1049.5 380.0,930.0" fill="none" stroke="#8B4513" stroke-width="3" stroke-opacity="0.6" marker-end="url(#arrow)"/>
<path d="M 1698.46,1213.0 C 1476.0475000000001,1187.5 438.12249999999995,1187.5 215.70999999999998,1162.0" fill="none" stroke="#8B4513" stroke-width="3" stroke-opacity="0.6" marker-end="url(#arrow)"/>
<path d="M 221.53500000000003,194.0 C 245.30475,154.0 356.23025,154.0 380.0,114.0" fill="none" stroke="#8B4513" stroke-width="3" stroke-opacity="0.6" marker-end="url(#arrow)"/>
<path d="M 538.4649999999999,208.0 C 514.69525,161.0 403.76975,161.0 380.0,114.0" fill="none" stroke="#8B4513" stroke-width="3" stroke-opacity="0.6" marker-end="url(#arrow)"/>
<path d="M 380.0,664.0 C 380.0,389.0 380.0,389.0 380.0,114.0" fill="none" stroke="#8B4513" stroke-width="3" stroke-opacity="0.6" marker-end="url(#arrow)"/>
<path d="M 221.535,381.0 C 245.30474999999998,247.5 356.23025,247.5 380.0,114.0" fill="none" stroke="#8B4513" stroke-width="3" stroke-opacity="0.6" marker-end="url(#arrow)"/>
<path d="M 513.67,374.0 C 493.61949999999996,244.0 400.0505,244.0 380.0,114.0" fill="none" stroke="#8B4513" stroke-width="3" stroke-opacity="0.6" marker-end="url(#arrow)"/>
<path d="M 380.0,816.0 C 380.0,465.0 380.0,465.0 380.0,114.0" fill="none" stroke="#8B4513" stroke-width="3" stroke-opacity="0.6" marker-end="url(#arrow)"/>
<path d="M 380.0,526.0 C 380.0,320.0 380.0,320.0 380.0,114.0" fill="none" stroke="#8B4513" stroke-width="3" stroke-opacity="0.6" marker-end="url(#arrow)"/>
<path d="M 215.70999999999998,1162.0 C 240.3535,638.0 355.3565,638.0 380.0,114.0" fill="none" stroke="#8B4513" stroke-width="3" stroke-opacity="0.6" marker-end="url(#arrow)"/>
<rect x="123.52500000000002" y="1010.0" width="207.04" height="72" fill="#e8e8e8" stroke="#999" stroke-width="2" rx="8"/>
<text x="227.04500000000002" y="1028.0" text-anchor="middle" fill="#333" font-family="Arial,sans-serif" font-size="12" font-weight="bold">Negation: &quot;not&quot; at pos 6</text>
<text x="227.04500000000002" y="1042.0" text-anchor="middle" fill="#333" font-family="Arial,sans-serif" font-size="12" font-weight="bold">(Layer 0-2)</text>
<text x="227.04500000000002" y="1060.0" text-anchor="middle" fill="#666" font-family="monospace" font-size="9">L0:F4958 —  the word &quot;not&quot;</text>
<text x="227.04500000000002" y="1074.0" text-anchor="middle" fill="#666" font-family="monospace" font-size="9">L2:F2713 —  the word &quot;not&quot;</text>
<circle cx="312.565" cy="1023.0" r="9" fill="#ccc"/>
<text x="312.565" y="1027.0" text-anchor="middle" fill="#666" font-family="monospace" font-size="9" font-weight="bold">2</text>
<rect x="370.56500000000005" y="1010.0" width="265.90999999999997" height="72" fill="#e8e8e8" stroke="#999" stroke-width="2" rx="8"/>
<text x="503.52000000000004" y="1028.0" text-anchor="middle" fill="#333" font-family="Arial,sans-serif" font-size="12" font-weight="bold">Negation: &quot;isn&#x27;t&quot; pattern</text>
<text x="503.52000000000004" y="1042.0" text-anchor="middle" fill="#333" font-family="Arial,sans-serif" font-size="12" font-weight="bold">(Layer 0-2)</text>
<text x="503.52000000000004" y="1060.0" text-anchor="middle" fill="#666" font-family="monospace" font-size="9">L0:F6236 — the letter &quot;t&quot; when it follows</text>
<text x="503.52000000000004" y="1074.0" text-anchor="middle" fill="#666" font-family="monospace" font-size="9">L2:F7654 —  the letter &#x27;t&#x27;, but with some</text>
<circle cx="618.475" cy="1023.0" r="9" fill="#ccc"/>
<text x="618.475" y="1027.0" text-anchor="middle" fill="#666" font-family="monospace" font-size="9" font-weight="bold">2</text>
<rect x="247.04500000000002" y="664.0" width="265.90999999999997" height="72" fill="#e8e8e8" stroke="#999" stroke-width="2" rx="8"/>
<text x="380.0" y="682.0" text-anchor="middle" fill="#333" font-family="Arial,sans-serif" font-size="12" font-weight="bold">&quot;Not only&quot; phrase</text>
<text x="380.0" y="696.0" text-anchor="middle" fill="#333" font-family="Arial,sans-serif" font-size="12" font-weight="bold">detection (Layer 2, 4)</text>
<text x="380.0" y="714.0" text-anchor="middle" fill="#666" font-family="monospace" font-size="9">L2:F5627 —  instances of the phrase &quot;not </text>
<text x="380.0" y="728.0" text-anchor="middle" fill="#666" font-family="monospace" font-size="9">L4:F11560 — the phrase &quot;not only&quot;</text>
<circle cx="494.9549999999999" cy="677.0" r="9" fill="#ccc"/>
<text x="494.9549999999999" y="681.0" text-anchor="middle" fill="#666" font-family="monospace" font-size="9" font-weight="bold">2</text>
<rect x="107.86500000000001" y="381.0" width="227.33999999999997" height="58" fill="#e8e8e8" stroke="#999" stroke-width="2" rx="8"/>
<text x="221.535" y="399.0" text-anchor="middle" fill="#333" font-family="Arial,sans-serif" font-size="12" font-weight="bold">&quot;Not only&quot; phrase</text>
<text x="221.535" y="413.0" text-anchor="middle" fill="#333" font-family="Arial,sans-serif" font-size="12" font-weight="bold">refinement (Layer 9)</text>
<text x="221.535" y="431.0" text-anchor="middle" fill="#666" font-family="monospace" font-size="9">L9:F12274 —  the phrase &quot;not only&quot;</text>
<circle cx="317.205" cy="394.0" r="9" fill="#ccc"/>
<text x="317.205" y="398.0" text-anchor="middle" fill="#666" font-family="monospace" font-size="9" font-weight="bold">1</text>
<rect x="375.205" y="374.0" width="276.92999999999995" height="72" fill="#e8e8e8" stroke="#999" stroke-width="2" rx="8"/>
<text x="513.67" y="392.0" text-anchor="middle" fill="#333" font-family="Arial,sans-serif" font-size="12" font-weight="bold">&quot;But&quot; contrastive</text>
<text x="513.67" y="406.0" text-anchor="middle" fill="#333" font-family="Arial,sans-serif" font-size="12" font-weight="bold">conjunction (Layer 4, 15)</text>
<text x="513.67" y="424.0" text-anchor="middle" fill="#666" font-family="monospace" font-size="9">L4:F2884 — the word &quot;but&quot; and other contr</text>
<text x="513.67" y="438.0" text-anchor="middle" fill="#666" font-family="monospace" font-size="9">L15:F12905 —  the word &quot;but&quot; along with sur</text>
<circle cx="634.135" cy="387.0" r="9" fill="#ccc"/>
<text x="634.135" y="391.0" text-anchor="middle" fill="#666" font-family="monospace" font-size="9" font-weight="bold">2</text>
<rect x="83.07000000000005" y="194.0" width="276.92999999999995" height="100" fill="#e8e8e8" stroke="#999" stroke-width="2" rx="8"/>
<text x="221.53500000000003" y="212.0" text-anchor="middle" fill="#333" font-family="Arial,sans-serif" font-size="12" font-weight="bold">Negation + &quot;to be&quot; pattern</text>
<text x="221.53500000000003" y="226.0" text-anchor="middle" fill="#333" font-family="Arial,sans-serif" font-size="12" font-weight="bold">(Layer 13-16)</text>
<text x="221.53500000000003" y="244.0" text-anchor="middle" fill="#666" font-family="monospace" font-size="9">L13:F3295 — negations in the form of &quot;is/a</text>
<text x="221.53500000000003" y="258.0" text-anchor="middle" fill="#666" font-family="monospace" font-size="9">L14:F13077 — negations.</text>
<text x="221.53500000000003" y="272.0" text-anchor="middle" fill="#666" font-family="monospace" font-size="9">L15:F10071 — negations and equivocations</text>
<text x="221.53500000000003" y="286.0" text-anchor="middle" fill="#666" font-family="monospace" font-size="9">L16:F12358 —  the word &quot;not&quot; followed withi</text>
<circle cx="342.0" cy="207.0" r="9" fill="#ccc"/>
<text x="342.0" y="211.0" text-anchor="middle" fill="#666" font-family="monospace" font-size="9" font-weight="bold">4</text>
<rect x="399.99999999999994" y="208.0" width="276.92999999999995" height="72" fill="#e8e8e8" stroke="#999" stroke-width="2" rx="8"/>
<text x="538.4649999999999" y="226.0" text-anchor="middle" fill="#333" font-family="Arial,sans-serif" font-size="12" font-weight="bold">&quot;Not&quot; + pronouns/emotional</text>
<text x="538.4649999999999" y="240.0" text-anchor="middle" fill="#333" font-family="Arial,sans-serif" font-size="12" font-weight="bold">(Layer 14, 16)</text>
<text x="538.4649999999999" y="258.0" text-anchor="middle" fill="#666" font-family="monospace" font-size="9">L14:F2476 — negative polarity, sometimes i</text>
<text x="538.4649999999999" y="272.0" text-anchor="middle" fill="#666" font-family="monospace" font-size="9">L16:F15025 —  usage of the word &quot;not&quot; combi</text>
<circle cx="658.9299999999998" cy="221.0" r="9" fill="#ccc"/>
<text x="658.9299999999998" y="225.0" text-anchor="middle" fill="#666" font-family="monospace" font-size="9" font-weight="bold">2</text>
<rect x="244.29000000000002" y="816.0" width="271.41999999999996" height="114" fill="#e8e8e8" stroke="#999" stroke-width="2" rx="8"/>
<text x="380.0" y="834.0" text-anchor="middle" fill="#333" font-family="Arial,sans-serif" font-size="12" font-weight="bold">Speech attribution &quot;said&quot;</text>
<text x="380.0" y="848.0" text-anchor="middle" fill="#333" font-family="Arial,sans-serif" font-size="12" font-weight="bold">(Layer 0-4)</text>
<text x="380.0" y="866.0" text-anchor="middle" fill="#666" font-family="monospace" font-size="9">L0:F8525 —  the word &quot;said&quot;</text>
<text x="380.0" y="880.0" text-anchor="middle" fill="#666" font-family="monospace" font-size="9">L1:F173 — dialogue being spoken or narra</text>
<text x="380.0" y="894.0" text-anchor="middle" fill="#666" font-family="monospace" font-size="9">L2:F13445 —  the word &quot;said&quot; and words tha</text>
<text x="380.0" y="908.0" text-anchor="middle" fill="#666" font-family="monospace" font-size="9">L3:F2091 —  mentions of the word &quot;said&quot;</text>
<text x="380.0" y="922.0" text-anchor="middle" fill="#666" font-family="monospace" font-size="9">... +1 more</text>
<circle cx="497.71000000000004" cy="829.0" r="9" fill="#ccc"/>
<text x="497.71000000000004" y="833.0" text-anchor="middle" fill="#666" font-family="monospace" font-size="9" font-weight="bold">5</text>
<rect x="244.29000000000002" y="526.0" width="271.41999999999996" height="58" fill="#e8e8e8" stroke="#999" stroke-width="2" rx="8"/>
<text x="380.0" y="544.0" text-anchor="middle" fill="#333" font-family="Arial,sans-serif" font-size="12" font-weight="bold">&quot;Said&quot; suppression (Layer</text>
<text x="380.0" y="558.0" text-anchor="middle" fill="#333" font-family="Arial,sans-serif" font-size="12" font-weight="bold">4)</text>
<text x="380.0" y="576.0" text-anchor="middle" fill="#666" font-family="monospace" font-size="9">L4:F12337 —  speech attribution, especiall</text>
<circle cx="497.71000000000004" cy="539.0" r="9" fill="#ccc"/>
<text x="497.71000000000004" y="543.0" text-anchor="middle" fill="#666" font-family="monospace" font-size="9" font-weight="bold">1</text>
<rect x="80.0" y="1162.0" width="271.41999999999996" height="58" fill="#e8e8e8" stroke="#999" stroke-width="2" rx="8"/>
<text x="215.70999999999998" y="1180.0" text-anchor="middle" fill="#333" font-family="Arial,sans-serif" font-size="12" font-weight="bold">Content word: &quot;program&quot;</text>
<text x="215.70999999999998" y="1194.0" text-anchor="middle" fill="#333" font-family="Arial,sans-serif" font-size="12" font-weight="bold">(Layer 0)</text>
<text x="215.70999999999998" y="1212.0" text-anchor="middle" fill="#666" font-family="monospace" font-size="9">L0:F14950 —  instances of the word &quot;progra</text>
<circle cx="333.41999999999996" cy="1175.0" r="9" fill="#ccc"/>
<text x="333.41999999999996" y="1179.0" text-anchor="middle" fill="#666" font-family="monospace" font-size="9" font-weight="bold">1</text>
<rect x="391.41999999999996" y="1169.0" width="200" height="44" fill="#e8e8e8" stroke="#999" stroke-width="2" rx="8"/>
<text x="491.41999999999996" y="1187.0" text-anchor="middle" fill="#333" font-family="Arial,sans-serif" font-size="12" font-weight="bold">Emb: &quot;not&quot; (pos 6)</text>
<circle cx="573.42" cy="1182.0" r="9" fill="#ccc"/>
<text x="573.42" y="1186.0" text-anchor="middle" fill="#666" font-family="monospace" font-size="9" font-weight="bold">0</text>
<rect x="631.42" y="1169.0" width="200" height="44" fill="#e8e8e8" stroke="#999" stroke-width="2" rx="8"/>
<text x="731.42" y="1187.0" text-anchor="middle" fill="#333" font-family="Arial,sans-serif" font-size="12" font-weight="bold">Emb: &quot;only&quot; (pos 7)</text>
<circle cx="813.42" cy="1182.0" r="9" fill="#ccc"/>
<text x="813.42" y="1186.0" text-anchor="middle" fill="#666" font-family="monospace" font-size="9" font-weight="bold">0</text>
<rect x="871.42" y="1169.0" width="200" height="44" fill="#e8e8e8" stroke="#999" stroke-width="2" rx="8"/>
<text x="971.42" y="1187.0" text-anchor="middle" fill="#333" font-family="Arial,sans-serif" font-size="12" font-weight="bold">Emb: &quot;but&quot; (pos 13)</text>
<circle cx="1053.42" cy="1182.0" r="9" fill="#ccc"/>
<text x="1053.42" y="1186.0" text-anchor="middle" fill="#666" font-family="monospace" font-size="9" font-weight="bold">0</text>
<rect x="1111.42" y="1169.0" width="200" height="44" fill="#e8e8e8" stroke="#999" stroke-width="2" rx="8"/>
<text x="1211.42" y="1187.0" text-anchor="middle" fill="#333" font-family="Arial,sans-serif" font-size="12" font-weight="bold">Emb: &quot;said&quot; (pos 3)</text>
<circle cx="1293.42" cy="1182.0" r="9" fill="#ccc"/>
<text x="1293.42" y="1186.0" text-anchor="middle" fill="#666" font-family="monospace" font-size="9" font-weight="bold">0</text>
<rect x="1351.42" y="1169.0" width="207.04" height="44" fill="#e8e8e8" stroke="#999" stroke-width="2" rx="8"/>
<text x="1454.94" y="1187.0" text-anchor="middle" fill="#333" font-family="Arial,sans-serif" font-size="12" font-weight="bold">Emb: &quot;isn&#x27;t&quot; (pos 26-28)</text>
<circle cx="1540.46" cy="1182.0" r="9" fill="#ccc"/>
<text x="1540.46" y="1186.0" text-anchor="middle" fill="#666" font-family="monospace" font-size="9" font-weight="bold">0</text>
<rect x="1598.46" y="1169.0" width="200" height="44" fill="#e8e8e8" stroke="#999" stroke-width="2" rx="8"/>
<text x="1698.46" y="1187.0" text-anchor="middle" fill="#333" font-family="Arial,sans-serif" font-size="12" font-weight="bold">Emb: &quot;program&quot; (pos 5)</text>
<circle cx="1780.46" cy="1182.0" r="9" fill="#ccc"/>
<text x="1780.46" y="1186.0" text-anchor="middle" fill="#666" font-family="monospace" font-size="9" font-weight="bold">0</text>
<rect x="269.52" y="70.0" width="220.95999999999998" height="44" fill="#e8e8e8" stroke="#999" stroke-width="2" rx="8"/>
<text x="380.0" y="88.0" text-anchor="middle" fill="#333" font-family="Arial,sans-serif" font-size="12" font-weight="bold">Probe Direction (Layer 36)</text>
<circle cx="472.47999999999996" cy="83.0" r="9" fill="#ccc"/>
<text x="472.47999999999996" y="87.0" text-anchor="middle" fill="#666" font-family="monospace" font-size="9" font-weight="bold">0</text>
<line x1="40" y1="1300" x2="1878" y2="1300" stroke="#ddd" stroke-width="1"/>
<text x="40" y="1318" fill="#666" font-family="Arial,sans-serif" font-size="10" font-weight="bold" letter-spacing="1px">PROMPT</text>
<text x="40" y="1336" fill="#333" font-family="monospace" font-size="11">"&lt;bos&gt;Wagonheim said the program not only will benefit the needy, but also will help improve the public image of lawyers."</text>
<text x="40" y="1360" fill="#666" font-family="Arial,sans-serif" font-size="10" font-weight="bold" letter-spacing="1px">TOP OUTPUTS</text>
<rect x="40" y="1365" width="100" height="20" fill="#e8e8e8" stroke="none" rx="6"/>
<text x="45" y="1379" fill="#333" font-family="Arial,sans-serif" font-size="11" font-weight="bold">(empty) <tspan fill="#555" font-size="10">100%</tspan></text>
</svg>