<svg width="1900" height="807" xmlns="http://www.w3.org/2000/svg">
<rect width="1900" height="807" fill="#f5f5f5"/>
<rect x="15" y="15" width="1870" height="777" fill="white" stroke="none" rx="12"/>
<text x="40" y="48" fill="#666" font-family="Arial,sans-serif" font-size="14" font-weight="bold" letter-spacing="1px">ATTRIBUTION CIRCUIT</text>
<text x="25" y="103.0" fill="#999" font-family="monospace" font-size="10" font-weight="bold" text-anchor="start">L36</text>
<text x="25" y="255.0" fill="#999" font-family="monospace" font-size="10" font-weight="bold" text-anchor="start">L5</text>
<text x="25" y="421.0" fill="#999" font-family="monospace" font-size="10" font-weight="bold" text-anchor="start">L3</text>
<text x="25" y="580.0" fill="#999" font-family="monospace" font-size="10" font-weight="bold" text-anchor="start">L0</text>
<defs><marker id="arrow" markerWidth="8" markerHeight="6" refX="8" refY="3" orient="auto"><polygon points="0,0 8,3 0,6" fill="#8B4513" fill-opacity="0.7"/></marker></defs>
<path d="M 380.0,208.0 C 380.0,168.0 380.0,168.0 380.0,128.0" fill="none" stroke="#8B4513" stroke-width="3" stroke-opacity="0.6" marker-end="url(#arrow)"/>
<path d="M 210.2,547.0 C 235.67,337.5 354.53,337.5 380.0,128.0" fill="none" stroke="#8B4513" stroke-width="3" stroke-opacity="0.6" marker-end="url(#arrow)"/>
<path d="M 224.29000000000002,374.0 C 247.6465,251.0 356.6435,251.0 380.0,128.0" fill="none" stroke="#8B4513" stroke-width="3" stroke-opacity="0.6" marker-end="url(#arrow)"/>
<path d="M 532.9549999999999,388.0 C 510.01174999999995,258.0 402.94325,258.0 380.0,128.0" fill="none" stroke="#8B4513" stroke-width="3" stroke-opacity="0.6" marker-end="url(#arrow)"/>
<path d="M 480.4,540.0 C 465.34,334.0 395.06,334.0 380.0,128.0" fill="none" stroke="#8B4513" stroke-width="3" stroke-opacity="0.6" marker-end="url(#arrow)"/>
<path d="M 720.4,554.0 C 669.34,424.0 431.06,424.0 380.0,294.0" fill="none" stroke="#8B4513" stroke-width="3" stroke-opacity="0.6" marker-end="url(#arrow)"/>
<path d="M 960.4,554.0 C 849.9835,507.0 334.7065,507.0 224.29000000000002,460.0" fill="none" stroke="#8B4513" stroke-width="3" stroke-opacity="0.6" marker-end="url(#arrow)"/>
<path d="M 1200.4,598.0 C 1051.8700000000001,572.5 358.73,572.5 210.2,547.0" fill="none" stroke="#8B4513" stroke-width="3" stroke-opacity="0.6" marker-end="url(#arrow)"/>
<path d="M 1440.4,554.0 C 1304.28325,500.0 669.07175,500.0 532.9549999999999,446.0" fill="none" stroke="#8B4513" stroke-width="3" stroke-opacity="0.6" marker-end="url(#arrow)"/>
<path d="M 1680.4,598.0 C 1500.4,569.0 660.4,569.0 480.4,540.0" fill="none" stroke="#8B4513" stroke-width="3" stroke-opacity="0.6" marker-end="url(#arrow)"/>
<rect x="280.0" y="70.0" width="200" height="58" fill="#e8e8e8" stroke="#999" stroke-width="2" rx="8"/>
<text x="380.0" y="88.0" text-anchor="middle" fill="#333" font-family="Arial,sans-serif" font-size="12" font-weight="bold">Toxicity Probe Score</text>
<text x="380.0" y="106.0" text-anchor="middle" fill="#666" font-family="monospace" font-size="9">L36:F0</text>
<circle cx="462.0" cy="83.0" r="9" fill="#ccc"/>
<text x="462.0" y="87.0" text-anchor="middle" fill="#666" font-family="monospace" font-size="9" font-weight="bold">1</text>
<rect x="91.33500000000004" y="374.0" width="265.90999999999997" height="86" fill="#e8e8e8" stroke="#999" stroke-width="2" rx="8"/>
<text x="224.29000000000002" y="392.0" text-anchor="middle" fill="#333" font-family="Arial,sans-serif" font-size="12" font-weight="bold">Marriage/Family Concepts</text>
<text x="224.29000000000002" y="406.0" text-anchor="middle" fill="#333" font-family="Arial,sans-serif" font-size="12" font-weight="bold">(L2-L3)</text>
<text x="224.29000000000002" y="424.0" text-anchor="middle" fill="#666" font-family="monospace" font-size="9">L2:F3399 —  words related to marriage</text>
<text x="224.29000000000002" y="438.0" text-anchor="middle" fill="#666" font-family="monospace" font-size="9">L3:F6262 — mentions of marriage</text>
<text x="224.29000000000002" y="452.0" text-anchor="middle" fill="#666" font-family="monospace" font-size="9">L3:F8254 —  words and phrases related to </text>
<circle cx="339.245" cy="387.0" r="9" fill="#ccc"/>
<text x="339.245" y="391.0" text-anchor="middle" fill="#666" font-family="monospace" font-size="9" font-weight="bold">3</text>
<rect x="247.04500000000002" y="208.0" width="265.90999999999997" height="86" fill="#e8e8e8" stroke="#999" stroke-width="2" rx="8"/>
<text x="380.0" y="226.0" text-anchor="middle" fill="#333" font-family="Arial,sans-serif" font-size="12" font-weight="bold">Author/Books Concepts</text>
<text x="380.0" y="240.0" text-anchor="middle" fill="#333" font-family="Arial,sans-serif" font-size="12" font-weight="bold">(L0-L6)</text>
<text x="380.0" y="258.0" text-anchor="middle" fill="#666" font-family="monospace" font-size="9">L0:F753 — the word &quot;author&quot; and words re</text>
<text x="380.0" y="272.0" text-anchor="middle" fill="#666" font-family="monospace" font-size="9">L0:F4408 —  the word &quot;authors&quot; in academi</text>
<text x="380.0" y="286.0" text-anchor="middle" fill="#666" font-family="monospace" font-size="9">L6:F2851 — books and associated things su</text>
<circle cx="494.9549999999999" cy="221.0" r="9" fill="#ccc"/>
<text x="494.9549999999999" y="225.0" text-anchor="middle" fill="#666" font-family="monospace" font-size="9" font-weight="bold">3</text>
<rect x="80.0" y="547.0" width="260.4" height="58" fill="#e8e8e8" stroke="#999" stroke-width="2" rx="8"/>
<text x="210.2" y="565.0" text-anchor="middle" fill="#333" font-family="Arial,sans-serif" font-size="12" font-weight="bold">RACE SIGNAL: &#x27;white&#x27; (L0)</text>
<text x="210.2" y="583.0" text-anchor="middle" fill="#666" font-family="monospace" font-size="9">L0:F3436 —  mentions of the word &quot;white&quot;</text>
<circle cx="322.4" cy="560.0" r="9" fill="#ccc"/>
<text x="322.4" y="564.0" text-anchor="middle" fill="#666" font-family="monospace" font-size="9" font-weight="bold">1</text>
<rect x="397.24499999999995" y="388.0" width="271.41999999999996" height="58" fill="#e8e8e8" stroke="#999" stroke-width="2" rx="8"/>
<text x="532.9549999999999" y="406.0" text-anchor="middle" fill="#333" font-family="Arial,sans-serif" font-size="12" font-weight="bold">Uncertainty/Hedging (L3)</text>
<text x="532.9549999999999" y="424.0" text-anchor="middle" fill="#666" font-family="monospace" font-size="9">L3:F10004 —  words which mean or indicate </text>
<circle cx="650.665" cy="401.0" r="9" fill="#ccc"/>
<text x="650.665" y="405.0" text-anchor="middle" fill="#666" font-family="monospace" font-size="9" font-weight="bold">1</text>
<rect x="380.4" y="540.0" width="200" height="72" fill="#e8e8e8" stroke="#999" stroke-width="2" rx="8"/>
<text x="480.4" y="558.0" text-anchor="middle" fill="#333" font-family="Arial,sans-serif" font-size="12" font-weight="bold">Grammatical: &#x27;to&#x27; (L0)</text>
<text x="480.4" y="576.0" text-anchor="middle" fill="#666" font-family="monospace" font-size="9">L0:F8444 — the word &quot;to&quot;</text>
<text x="480.4" y="590.0" text-anchor="middle" fill="#666" font-family="monospace" font-size="9">L0:F8444 — the word &quot;to&quot;</text>
<circle cx="562.4" cy="553.0" r="9" fill="#ccc"/>
<text x="562.4" y="557.0" text-anchor="middle" fill="#666" font-family="monospace" font-size="9" font-weight="bold">2</text>
<rect x="620.4" y="554.0" width="200" height="44" fill="#e8e8e8" stroke="#999" stroke-width="2" rx="8"/>
<text x="720.4" y="572.0" text-anchor="middle" fill="#333" font-family="Arial,sans-serif" font-size="12" font-weight="bold">Emb: author (pos 2)</text>
<circle cx="802.4" cy="567.0" r="9" fill="#ccc"/>
<text x="802.4" y="571.0" text-anchor="middle" fill="#666" font-family="monospace" font-size="9" font-weight="bold">0</text>
<rect x="860.4" y="554.0" width="200" height="44" fill="#e8e8e8" stroke="#999" stroke-width="2" rx="8"/>
<text x="960.4" y="572.0" text-anchor="middle" fill="#333" font-family="Arial,sans-serif" font-size="12" font-weight="bold">Emb: married (pos 6)</text>
<circle cx="1042.4" cy="567.0" r="9" fill="#ccc"/>
<text x="1042.4" y="571.0" text-anchor="middle" fill="#666" font-family="monospace" font-size="9" font-weight="bold">0</text>
<rect x="1100.4" y="554.0" width="200" height="44" fill="#e8e8e8" stroke="#999" stroke-width="2" rx="8"/>
<text x="1200.4" y="572.0" text-anchor="middle" fill="#333" font-family="Arial,sans-serif" font-size="12" font-weight="bold">Emb: white (pos 9)</text>
<circle cx="1282.4" cy="567.0" r="9" fill="#ccc"/>
<text x="1282.4" y="571.0" text-anchor="middle" fill="#666" font-family="monospace" font-size="9" font-weight="bold">0</text>
<rect x="1340.4" y="554.0" width="200" height="44" fill="#e8e8e8" stroke="#999" stroke-width="2" rx="8"/>
<text x="1440.4" y="572.0" text-anchor="middle" fill="#333" font-family="Arial,sans-serif" font-size="12" font-weight="bold">Emb: Maybe (pos 17)</text>
<circle cx="1522.4" cy="567.0" r="9" fill="#ccc"/>
<text x="1522.4" y="571.0" text-anchor="middle" fill="#666" font-family="monospace" font-size="9" font-weight="bold">0</text>
<rect x="1580.4" y="554.0" width="200" height="44" fill="#e8e8e8" stroke="#999" stroke-width="2" rx="8"/>
<text x="1680.4" y="572.0" text-anchor="middle" fill="#333" font-family="Arial,sans-serif" font-size="12" font-weight="bold">Emb: to (pos 4, 7)</text>
<circle cx="1762.4" cy="567.0" r="9" fill="#ccc"/>
<text x="1762.4" y="571.0" text-anchor="middle" fill="#666" font-family="monospace" font-size="9" font-weight="bold">0</text>
<line x1="40" y1="692" x2="1860" y2="692" stroke="#ddd" stroke-width="1"/>
<text x="40" y="710" fill="#666" font-family="Arial,sans-serif" font-size="10" font-weight="bold" letter-spacing="1px">PROMPT</text>
<text x="40" y="728" fill="#333" font-family="monospace" font-size="11">"&lt;bos&gt;The author appears to be married to a white guy based on her last name. Maybe she is a self hater like all those ot"</text>
<text x="40" y="752" fill="#666" font-family="Arial,sans-serif" font-size="10" font-weight="bold" letter-spacing="1px">TOP OUTPUTS</text>
<rect x="40" y="757" width="100" height="20" fill="#e8e8e8" stroke="none" rx="6"/>
<text x="45" y="771" fill="#333" font-family="Arial,sans-serif" font-size="11" font-weight="bold">(empty) <tspan fill="#555" font-size="10">100%</tspan></text>
</svg>