<svg width="1148" height="2079" xmlns="http://www.w3.org/2000/svg">
<rect width="1148" height="2079" fill="#f5f5f5"/>
<rect x="15" y="15" width="1118" height="2049" fill="white" stroke="none" rx="12"/>
<text x="40" y="48" fill="#666" font-family="Arial,sans-serif" font-size="14" font-weight="bold" letter-spacing="1px">ATTRIBUTION CIRCUIT</text>
<text x="25" y="96.0" fill="#999" font-family="monospace" font-size="10" font-weight="bold" text-anchor="start">L36</text>
<text x="25" y="234.0" fill="#999" font-family="monospace" font-size="10" font-weight="bold" text-anchor="start">L20</text>
<text x="25" y="393.0" fill="#999" font-family="monospace" font-size="10" font-weight="bold" text-anchor="start">L18</text>
<text x="25" y="552.0" fill="#999" font-family="monospace" font-size="10" font-weight="bold" text-anchor="start">L14</text>
<text x="25" y="704.0" fill="#999" font-family="monospace" font-size="10" font-weight="bold" text-anchor="start">L12</text>
<text x="25" y="870.0" fill="#999" font-family="monospace" font-size="10" font-weight="bold" text-anchor="start">L8</text>
<text x="25" y="1036.0" fill="#999" font-family="monospace" font-size="10" font-weight="bold" text-anchor="start">L6</text>
<text x="25" y="1188.0" fill="#999" font-family="monospace" font-size="10" font-weight="bold" text-anchor="start">L5</text>
<text x="25" y="1361.0" fill="#999" font-family="monospace" font-size="10" font-weight="bold" text-anchor="start">L4</text>
<text x="25" y="1534.0" fill="#999" font-family="monospace" font-size="10" font-weight="bold" text-anchor="start">L3</text>
<text x="25" y="1700.0" fill="#999" font-family="monospace" font-size="10" font-weight="bold" text-anchor="start">L1</text>
<text x="25" y="1859.0" fill="#999" font-family="monospace" font-size="10" font-weight="bold" text-anchor="start">L0</text>
<defs><marker id="arrow" markerWidth="8" markerHeight="6" refX="8" refY="3" orient="auto"><polygon points="0,0 8,3 0,6" fill="#8B4513" fill-opacity="0.7"/></marker></defs>
<path d="M 180.0,1833.0 C 210.0,1789.5 350.0,1789.5 380.0,1746.0" fill="none" stroke="#8B4513" stroke-width="3" stroke-opacity="0.6" marker-end="url(#arrow)"/>
<path d="M 180.0,1833.0 C 210.0,1699.5 350.0,1699.5 380.0,1566.0" fill="none" stroke="#8B4513" stroke-width="3" stroke-opacity="0.6" marker-end="url(#arrow)"/>
<path d="M 180.0,1833.0 C 210.0,1450.5 350.0,1450.5 380.0,1068.0" fill="none" stroke="#8B4513" stroke-width="3" stroke-opacity="0.6" marker-end="url(#arrow)"/>
<path d="M 180.0,1833.0 C 210.0,1208.5 350.0,1208.5 380.0,584.0" fill="none" stroke="#8B4513" stroke-width="3" stroke-opacity="0.6" marker-end="url(#arrow)"/>
<path d="M 180.0,1833.0 C 233.76975,1132.5 484.69524999999993,1132.5 538.4649999999999,432.0" fill="none" stroke="#8B4513" stroke-width="3" stroke-opacity="0.6" marker-end="url(#arrow)"/>
<path d="M 423.52,1833.0 C 416.99199999999996,1789.5 386.528,1789.5 380.0,1746.0" fill="none" stroke="#8B4513" stroke-width="3" stroke-opacity="0.6" marker-end="url(#arrow)"/>
<path d="M 423.52,1833.0 C 416.99199999999996,1623.5 386.528,1623.5 380.0,1414.0" fill="none" stroke="#8B4513" stroke-width="3" stroke-opacity="0.6" marker-end="url(#arrow)"/>
<path d="M 423.52,1833.0 C 416.99199999999996,1450.5 386.528,1450.5 380.0,1068.0" fill="none" stroke="#8B4513" stroke-width="3" stroke-opacity="0.6" marker-end="url(#arrow)"/>
<path d="M 667.04,1877.0 C 704.612,1851.5 879.948,1851.5 917.52,1826.0" fill="none" stroke="#8B4513" stroke-width="3" stroke-opacity="0.6" marker-end="url(#arrow)"/>
<path d="M 667.04,1833.0 C 623.9839999999999,1526.5 423.056,1526.5 380.0,1220.0" fill="none" stroke="#8B4513" stroke-width="3" stroke-opacity="0.6" marker-end="url(#arrow)"/>
<path d="M 667.04,1833.0 C 600.21425,1129.0 288.36075,1129.0 221.53500000000003,425.0" fill="none" stroke="#8B4513" stroke-width="3" stroke-opacity="0.6" marker-end="url(#arrow)"/>
<path d="M 917.52,1826.0 C 836.8919999999999,1523.0 460.628,1523.0 380.0,1220.0" fill="none" stroke="#8B4513" stroke-width="3" stroke-opacity="0.6" marker-end="url(#arrow)"/>
<path d="M 380.0,1148.0 C 380.0,942.0 380.0,942.0 380.0,736.0" fill="none" stroke="#8B4513" stroke-width="3" stroke-opacity="0.6" marker-end="url(#arrow)"/>
<path d="M 380.0,664.0 C 356.23025,544.5 245.30475,544.5 221.53500000000003,425.0" fill="none" stroke="#8B4513" stroke-width="3" stroke-opacity="0.6" marker-end="url(#arrow)"/>
<path d="M 380.0,1646.0 C 380.0,1606.0 380.0,1606.0 380.0,1566.0" fill="none" stroke="#8B4513" stroke-width="3" stroke-opacity="0.6" marker-end="url(#arrow)"/>
<path d="M 380.0,1646.0 C 380.0,1530.0 380.0,1530.0 380.0,1414.0" fill="none" stroke="#8B4513" stroke-width="3" stroke-opacity="0.6" marker-end="url(#arrow)"/>
<path d="M 380.0,1494.0 C 380.0,1454.0 380.0,1454.0 380.0,1414.0" fill="none" stroke="#8B4513" stroke-width="3" stroke-opacity="0.6" marker-end="url(#arrow)"/>
<path d="M 380.0,1494.0 C 380.0,1281.0 380.0,1281.0 380.0,1068.0" fill="none" stroke="#8B4513" stroke-width="3" stroke-opacity="0.6" marker-end="url(#arrow)"/>
<path d="M 380.0,1494.0 C 403.76975,963.0 514.69525,963.0 538.4649999999999,432.0" fill="none" stroke="#8B4513" stroke-width="3" stroke-opacity="0.6" marker-end="url(#arrow)"/>
<path d="M 380.0,1300.0 C 380.0,1184.0 380.0,1184.0 380.0,1068.0" fill="none" stroke="#8B4513" stroke-width="3" stroke-opacity="0.6" marker-end="url(#arrow)"/>
<path d="M 380.0,1300.0 C 380.0,1108.0 380.0,1108.0 380.0,916.0" fill="none" stroke="#8B4513" stroke-width="3" stroke-opacity="0.6" marker-end="url(#arrow)"/>
<path d="M 380.0,996.0 C 403.76975,714.0 514.69525,714.0 538.4649999999999,432.0" fill="none" stroke="#8B4513" stroke-width="3" stroke-opacity="0.6" marker-end="url(#arrow)"/>
<path d="M 380.0,996.0 C 380.0,631.0 380.0,631.0 380.0,266.0" fill="none" stroke="#8B4513" stroke-width="3" stroke-opacity="0.6" marker-end="url(#arrow)"/>
<path d="M 380.0,816.0 C 380.0,700.0 380.0,700.0 380.0,584.0" fill="none" stroke="#8B4513" stroke-width="3" stroke-opacity="0.6" marker-end="url(#arrow)"/>
<path d="M 380.0,512.0 C 403.76975,472.0 514.69525,472.0 538.4649999999999,432.0" fill="none" stroke="#8B4513" stroke-width="3" stroke-opacity="0.6" marker-end="url(#arrow)"/>
<path d="M 380.0,512.0 C 380.0,389.0 380.0,389.0 380.0,266.0" fill="none" stroke="#8B4513" stroke-width="3" stroke-opacity="0.6" marker-end="url(#arrow)"/>
<path d="M 538.4649999999999,346.0 C 514.69525,306.0 403.76975,306.0 380.0,266.0" fill="none" stroke="#8B4513" stroke-width="3" stroke-opacity="0.6" marker-end="url(#arrow)"/>
<path d="M 380.0,512.0 C 380.0,313.0 380.0,313.0 380.0,114.0" fill="none" stroke="#8B4513" stroke-width="3" stroke-opacity="0.6" marker-end="url(#arrow)"/>
<path d="M 380.0,996.0 C 380.0,555.0 380.0,555.0 380.0,114.0" fill="none" stroke="#8B4513" stroke-width="3" stroke-opacity="0.6" marker-end="url(#arrow)"/>
<path d="M 380.0,1494.0 C 380.0,804.0 380.0,804.0 380.0,114.0" fill="none" stroke="#8B4513" stroke-width="3" stroke-opacity="0.6" marker-end="url(#arrow)"/>
<path d="M 380.0,816.0 C 380.0,465.0 380.0,465.0 380.0,114.0" fill="none" stroke="#8B4513" stroke-width="3" stroke-opacity="0.6" marker-end="url(#arrow)"/>
<path d="M 380.0,1300.0 C 380.0,707.0 380.0,707.0 380.0,114.0" fill="none" stroke="#8B4513" stroke-width="3" stroke-opacity="0.6" marker-end="url(#arrow)"/>
<path d="M 538.4649999999999,346.0 C 514.69525,230.0 403.76975,230.0 380.0,114.0" fill="none" stroke="#8B4513" stroke-width="3" stroke-opacity="0.6" marker-end="url(#arrow)"/>
<path d="M 380.0,194.0 C 380.0,154.0 380.0,154.0 380.0,114.0" fill="none" stroke="#8B4513" stroke-width="3" stroke-opacity="0.6" marker-end="url(#arrow)"/>
<path d="M 221.53500000000003,353.0 C 245.30475,233.5 356.23025,233.5 380.0,114.0" fill="none" stroke="#8B4513" stroke-width="3" stroke-opacity="0.6" marker-end="url(#arrow)"/>
<rect x="80.0" y="1833.0" width="200" height="44" fill="#e8e8e8" stroke="#999" stroke-width="2" rx="8"/>
<text x="180.0" y="1851.0" text-anchor="middle" fill="#333" font-family="Arial,sans-serif" font-size="12" font-weight="bold">Emb: &#x27;nurses&#x27; (pos 15)</text>
<circle cx="262.0" cy="1846.0" r="9" fill="#ccc"/>
<text x="262.0" y="1850.0" text-anchor="middle" fill="#666" font-family="monospace" font-size="9" font-weight="bold">0</text>
<rect x="320.0" y="1833.0" width="207.04" height="44" fill="#e8e8e8" stroke="#999" stroke-width="2" rx="8"/>
<text x="423.52" y="1851.0" text-anchor="middle" fill="#333" font-family="Arial,sans-serif" font-size="12" font-weight="bold">Emb: &#x27;perative&#x27; (pos 14)</text>
<circle cx="509.03999999999996" cy="1846.0" r="9" fill="#ccc"/>
<text x="509.03999999999996" y="1850.0" text-anchor="middle" fill="#666" font-family="monospace" font-size="9" font-weight="bold">0</text>
<rect x="567.04" y="1833.0" width="200" height="44" fill="#e8e8e8" stroke="#999" stroke-width="2" rx="8"/>
<text x="667.04" y="1851.0" text-anchor="middle" fill="#333" font-family="Arial,sans-serif" font-size="12" font-weight="bold">Emb: &#x27;she&#x27; (pos 7)</text>
<circle cx="749.04" cy="1846.0" r="9" fill="#ccc"/>
<text x="749.04" y="1850.0" text-anchor="middle" fill="#666" font-family="monospace" font-size="9" font-weight="bold">0</text>
<rect x="247.04500000000002" y="1646.0" width="265.90999999999997" height="100" fill="#e8e8e8" stroke="#999" stroke-width="2" rx="8"/>
<text x="380.0" y="1664.0" text-anchor="middle" fill="#333" font-family="Arial,sans-serif" font-size="12" font-weight="bold">Nurse Word Detectors</text>
<text x="380.0" y="1678.0" text-anchor="middle" fill="#333" font-family="Arial,sans-serif" font-size="12" font-weight="bold">(L0-L1): detect &#x27;nurse&#x27;</text>
<text x="380.0" y="1692.0" text-anchor="middle" fill="#333" font-family="Arial,sans-serif" font-size="12" font-weight="bold">token</text>
<text x="380.0" y="1710.0" text-anchor="middle" fill="#666" font-family="monospace" font-size="9">L0:F10920 —  the word &quot;nurse&quot;</text>
<text x="380.0" y="1724.0" text-anchor="middle" fill="#666" font-family="monospace" font-size="9">L0:F8854 —  the word &quot;nurse&quot; as well as s</text>
<text x="380.0" y="1738.0" text-anchor="middle" fill="#666" font-family="monospace" font-size="9">L1:F14469 —  mentions of &#x27;nurse&#x27;</text>
<text x="380.0" y="1752.0" text-anchor="middle" fill="#666" font-family="monospace" font-size="9">L1:F1889 —  words related to medical stud</text>
<circle cx="494.9549999999999" cy="1659.0" r="9" fill="#ccc"/>
<text x="494.9549999999999" y="1663.0" text-anchor="middle" fill="#666" font-family="monospace" font-size="9" font-weight="bold">4</text>
<rect x="807.04" y="1826.0" width="220.95999999999998" height="58" fill="#e8e8e8" stroke="#999" stroke-width="2" rx="8"/>
<text x="917.52" y="1844.0" text-anchor="middle" fill="#333" font-family="Arial,sans-serif" font-size="12" font-weight="bold">She-Pronoun Detector (L0):</text>
<text x="917.52" y="1858.0" text-anchor="middle" fill="#333" font-family="Arial,sans-serif" font-size="12" font-weight="bold">detects &#x27;she&#x27; pronoun</text>
<text x="917.52" y="1876.0" text-anchor="middle" fill="#666" font-family="monospace" font-size="9">L0:F12519 —  the pronoun &quot;she&quot;</text>
<circle cx="1010.0" cy="1839.0" r="9" fill="#ccc"/>
<text x="1010.0" y="1843.0" text-anchor="middle" fill="#666" font-family="monospace" font-size="9" font-weight="bold">1</text>
<rect x="244.29000000000002" y="1494.0" width="271.41999999999996" height="72" fill="#e8e8e8" stroke="#999" stroke-width="2" rx="8"/>
<text x="380.0" y="1512.0" text-anchor="middle" fill="#333" font-family="Arial,sans-serif" font-size="12" font-weight="bold">Nursing Suppressor</text>
<text x="380.0" y="1526.0" text-anchor="middle" fill="#333" font-family="Arial,sans-serif" font-size="12" font-weight="bold">(L2-L3): fires on &#x27;nurse&#x27;,</text>
<text x="380.0" y="1540.0" text-anchor="middle" fill="#333" font-family="Arial,sans-serif" font-size="12" font-weight="bold">suppresses nurse vocab</text>
<text x="380.0" y="1558.0" text-anchor="middle" fill="#666" font-family="monospace" font-size="9">L2:F15437 —  words related to nurses and s</text>
<text x="380.0" y="1572.0" text-anchor="middle" fill="#666" font-family="monospace" font-size="9">L3:F15901 —  mentions of nurses, nursing, </text>
<circle cx="497.71000000000004" cy="1507.0" r="9" fill="#ccc"/>
<text x="497.71000000000004" y="1511.0" text-anchor="middle" fill="#666" font-family="monospace" font-size="9" font-weight="bold">2</text>
<rect x="244.29000000000002" y="1300.0" width="271.41999999999996" height="114" fill="#e8e8e8" stroke="#999" stroke-width="2" rx="8"/>
<text x="380.0" y="1318.0" text-anchor="middle" fill="#333" font-family="Arial,sans-serif" font-size="12" font-weight="bold">Medical</text>
<text x="380.0" y="1332.0" text-anchor="middle" fill="#333" font-family="Arial,sans-serif" font-size="12" font-weight="bold">Environment/Healthcare</text>
<text x="380.0" y="1346.0" text-anchor="middle" fill="#333" font-family="Arial,sans-serif" font-size="12" font-weight="bold">Features (L4-L5): medical</text>
<text x="380.0" y="1360.0" text-anchor="middle" fill="#333" font-family="Arial,sans-serif" font-size="12" font-weight="bold">settings, professionals</text>
<text x="380.0" y="1378.0" text-anchor="middle" fill="#666" font-family="monospace" font-size="9">L4:F4665 —  words and phrases related to </text>
<text x="380.0" y="1392.0" text-anchor="middle" fill="#666" font-family="monospace" font-size="9">L4:F4665 —  words and phrases related to </text>
<text x="380.0" y="1406.0" text-anchor="middle" fill="#666" font-family="monospace" font-size="9">L4:F11037 —  words related to counseling, </text>
<text x="380.0" y="1420.0" text-anchor="middle" fill="#666" font-family="monospace" font-size="9">L5:F1275 — words related to healthcare pr</text>
<text x="380.0" y="1434.0" text-anchor="middle" fill="#666" font-family="monospace" font-size="9">... +1 more</text>
<circle cx="497.71000000000004" cy="1313.0" r="9" fill="#ccc"/>
<text x="497.71000000000004" y="1317.0" text-anchor="middle" fill="#666" font-family="monospace" font-size="9" font-weight="bold">5</text>
<rect x="244.29000000000002" y="1148.0" width="271.41999999999996" height="72" fill="#e8e8e8" stroke="#999" stroke-width="2" rx="8"/>
<text x="380.0" y="1166.0" text-anchor="middle" fill="#333" font-family="Arial,sans-serif" font-size="12" font-weight="bold">Early Gender Features</text>
<text x="380.0" y="1180.0" text-anchor="middle" fill="#333" font-family="Arial,sans-serif" font-size="12" font-weight="bold">(L4-L6): female</text>
<text x="380.0" y="1194.0" text-anchor="middle" fill="#333" font-family="Arial,sans-serif" font-size="12" font-weight="bold">pronoun/women references</text>
<text x="380.0" y="1212.0" text-anchor="middle" fill="#666" font-family="monospace" font-size="9">L4:F7864 — xml or source code snippets, e</text>
<text x="380.0" y="1226.0" text-anchor="middle" fill="#666" font-family="monospace" font-size="9">L6:F11646 —  references to women, potentia</text>
<circle cx="497.71000000000004" cy="1161.0" r="9" fill="#ccc"/>
<text x="497.71000000000004" y="1165.0" text-anchor="middle" fill="#666" font-family="monospace" font-size="9" font-weight="bold">2</text>
<rect x="244.29000000000002" y="996.0" width="271.41999999999996" height="72" fill="#e8e8e8" stroke="#999" stroke-width="2" rx="8"/>
<text x="380.0" y="1014.0" text-anchor="middle" fill="#333" font-family="Arial,sans-serif" font-size="12" font-weight="bold">Nursing Profession</text>
<text x="380.0" y="1028.0" text-anchor="middle" fill="#333" font-family="Arial,sans-serif" font-size="12" font-weight="bold">Detector (L6):</text>
<text x="380.0" y="1042.0" text-anchor="middle" fill="#333" font-family="Arial,sans-serif" font-size="12" font-weight="bold">specifically detects</text>
<text x="380.0" y="1056.0" text-anchor="middle" fill="#333" font-family="Arial,sans-serif" font-size="12" font-weight="bold">nursing as a profession</text>
<text x="380.0" y="1074.0" text-anchor="middle" fill="#666" font-family="monospace" font-size="9">L6:F15267 —  words in the document referri</text>
<text x="380.0" y="1088.0" text-anchor="middle" fill="#666" font-family="monospace" font-size="9">L6:F15267 —  words in the document referri</text>
<circle cx="497.71000000000004" cy="1009.0" r="9" fill="#ccc"/>
<text x="497.71000000000004" y="1013.0" text-anchor="middle" fill="#666" font-family="monospace" font-size="9" font-weight="bold">2</text>
<rect x="244.29000000000002" y="816.0" width="271.41999999999996" height="100" fill="#e8e8e8" stroke="#999" stroke-width="2" rx="8"/>
<text x="380.0" y="834.0" text-anchor="middle" fill="#333" font-family="Arial,sans-serif" font-size="12" font-weight="bold">Hospital/Healthcare</text>
<text x="380.0" y="848.0" text-anchor="middle" fill="#333" font-family="Arial,sans-serif" font-size="12" font-weight="bold">Context (L7-L8): hospital</text>
<text x="380.0" y="862.0" text-anchor="middle" fill="#333" font-family="Arial,sans-serif" font-size="12" font-weight="bold">systems, medical settings</text>
<text x="380.0" y="880.0" text-anchor="middle" fill="#666" font-family="monospace" font-size="9">L7:F210 —  words and names associated wi</text>
<text x="380.0" y="894.0" text-anchor="middle" fill="#666" font-family="monospace" font-size="9">L7:F3979 —  words related to nursing and </text>
<text x="380.0" y="908.0" text-anchor="middle" fill="#666" font-family="monospace" font-size="9">L8:F16339 —  text discussing hospital infe</text>
<text x="380.0" y="922.0" text-anchor="middle" fill="#666" font-family="monospace" font-size="9">L8:F16339 —  text discussing hospital infe</text>
<circle cx="497.71000000000004" cy="829.0" r="9" fill="#ccc"/>
<text x="497.71000000000004" y="833.0" text-anchor="middle" fill="#666" font-family="monospace" font-size="9" font-weight="bold">4</text>
<rect x="241.53500000000003" y="664.0" width="276.92999999999995" height="72" fill="#e8e8e8" stroke="#999" stroke-width="2" rx="8"/>
<text x="380.0" y="682.0" text-anchor="middle" fill="#333" font-family="Arial,sans-serif" font-size="12" font-weight="bold">Mid-Layer Gender Features</text>
<text x="380.0" y="696.0" text-anchor="middle" fill="#333" font-family="Arial,sans-serif" font-size="12" font-weight="bold">(L10-L12): female pronoun</text>
<text x="380.0" y="710.0" text-anchor="middle" fill="#333" font-family="Arial,sans-serif" font-size="12" font-weight="bold">refinement</text>
<text x="380.0" y="728.0" text-anchor="middle" fill="#666" font-family="monospace" font-size="9">L10:F14965 —  terms relating to women</text>
<text x="380.0" y="742.0" text-anchor="middle" fill="#666" font-family="monospace" font-size="9">L12:F12940 — references to female pronouns </text>
<circle cx="500.4649999999999" cy="677.0" r="9" fill="#ccc"/>
<text x="500.4649999999999" y="681.0" text-anchor="middle" fill="#666" font-family="monospace" font-size="9" font-weight="bold">2</text>
<rect x="244.29000000000002" y="512.0" width="271.41999999999996" height="72" fill="#e8e8e8" stroke="#999" stroke-width="2" rx="8"/>
<text x="380.0" y="530.0" text-anchor="middle" fill="#333" font-family="Arial,sans-serif" font-size="12" font-weight="bold">Medical</text>
<text x="380.0" y="544.0" text-anchor="middle" fill="#333" font-family="Arial,sans-serif" font-size="12" font-weight="bold">Leadership/Management</text>
<text x="380.0" y="558.0" text-anchor="middle" fill="#333" font-family="Arial,sans-serif" font-size="12" font-weight="bold">(L14): management,</text>
<text x="380.0" y="572.0" text-anchor="middle" fill="#333" font-family="Arial,sans-serif" font-size="12" font-weight="bold">leadership, medicine</text>
<text x="380.0" y="590.0" text-anchor="middle" fill="#666" font-family="monospace" font-size="9">L14:F3985 — terms related to management, l</text>
<text x="380.0" y="604.0" text-anchor="middle" fill="#666" font-family="monospace" font-size="9">L14:F3985 — terms related to management, l</text>
<circle cx="497.71000000000004" cy="525.0" r="9" fill="#ccc"/>
<text x="497.71000000000004" y="529.0" text-anchor="middle" fill="#666" font-family="monospace" font-size="9" font-weight="bold">2</text>
<rect x="83.07000000000005" y="353.0" width="276.92999999999995" height="72" fill="#e8e8e8" stroke="#999" stroke-width="2" rx="8"/>
<text x="221.53500000000003" y="371.0" text-anchor="middle" fill="#333" font-family="Arial,sans-serif" font-size="12" font-weight="bold">Late Gender Feature</text>
<text x="221.53500000000003" y="385.0" text-anchor="middle" fill="#333" font-family="Arial,sans-serif" font-size="12" font-weight="bold">(L17-L18): &#x27;women/girls</text>
<text x="221.53500000000003" y="399.0" text-anchor="middle" fill="#333" font-family="Arial,sans-serif" font-size="12" font-weight="bold">mentioned&#x27; — NEGATIVE</text>
<text x="221.53500000000003" y="413.0" text-anchor="middle" fill="#333" font-family="Arial,sans-serif" font-size="12" font-weight="bold">effect</text>
<text x="221.53500000000003" y="431.0" text-anchor="middle" fill="#666" font-family="monospace" font-size="9">L17:F5889 —  references to people with pro</text>
<text x="221.53500000000003" y="445.0" text-anchor="middle" fill="#666" font-family="monospace" font-size="9">L18:F14677 —  instances of women or girls b</text>
<circle cx="342.0" cy="366.0" r="9" fill="#ccc"/>
<text x="342.0" y="370.0" text-anchor="middle" fill="#666" font-family="monospace" font-size="9" font-weight="bold">2</text>
<rect x="399.99999999999994" y="346.0" width="276.92999999999995" height="86" fill="#e8e8e8" stroke="#999" stroke-width="2" rx="8"/>
<text x="538.4649999999999" y="364.0" text-anchor="middle" fill="#333" font-family="Arial,sans-serif" font-size="12" font-weight="bold">Nurse Manager Role (L18):</text>
<text x="538.4649999999999" y="378.0" text-anchor="middle" fill="#333" font-family="Arial,sans-serif" font-size="12" font-weight="bold">nurse manager skills and</text>
<text x="538.4649999999999" y="392.0" text-anchor="middle" fill="#333" font-family="Arial,sans-serif" font-size="12" font-weight="bold">leadership</text>
<text x="538.4649999999999" y="410.0" text-anchor="middle" fill="#666" font-family="monospace" font-size="9">L18:F13596 —  text about the role, skills a</text>
<text x="538.4649999999999" y="424.0" text-anchor="middle" fill="#666" font-family="monospace" font-size="9">L18:F13596 —  text about the role, skills a</text>
<text x="538.4649999999999" y="438.0" text-anchor="middle" fill="#666" font-family="monospace" font-size="9">L18:F14457 —  words or phrases related to h</text>
<circle cx="658.9299999999998" cy="359.0" r="9" fill="#ccc"/>
<text x="658.9299999999998" y="363.0" text-anchor="middle" fill="#666" font-family="monospace" font-size="9" font-weight="bold">3</text>
<rect x="244.29000000000002" y="194.0" width="271.41999999999996" height="72" fill="#e8e8e8" stroke="#999" stroke-width="2" rx="8"/>
<text x="380.0" y="212.0" text-anchor="middle" fill="#333" font-family="Arial,sans-serif" font-size="12" font-weight="bold">Healthcare Titles/Acronyms</text>
<text x="380.0" y="226.0" text-anchor="middle" fill="#333" font-family="Arial,sans-serif" font-size="12" font-weight="bold">(L20): healthcare</text>
<text x="380.0" y="240.0" text-anchor="middle" fill="#333" font-family="Arial,sans-serif" font-size="12" font-weight="bold">credentials after names</text>
<text x="380.0" y="258.0" text-anchor="middle" fill="#666" font-family="monospace" font-size="9">L20:F4927 —  titles and acronyms following</text>
<text x="380.0" y="272.0" text-anchor="middle" fill="#666" font-family="monospace" font-size="9">L20:F4927 —  titles and acronyms following</text>
<circle cx="497.71000000000004" cy="207.0" r="9" fill="#ccc"/>
<text x="497.71000000000004" y="211.0" text-anchor="middle" fill="#666" font-family="monospace" font-size="9" font-weight="bold">2</text>
<rect x="269.52" y="70.0" width="220.95999999999998" height="44" fill="#e8e8e8" stroke="#999" stroke-width="2" rx="8"/>
<text x="380.0" y="88.0" text-anchor="middle" fill="#333" font-family="Arial,sans-serif" font-size="12" font-weight="bold">Probe Classification Score</text>
<text x="380.0" y="102.0" text-anchor="middle" fill="#333" font-family="Arial,sans-serif" font-size="12" font-weight="bold">(Nurse)</text>
<circle cx="472.47999999999996" cy="83.0" r="9" fill="#ccc"/>
<text x="472.47999999999996" y="87.0" text-anchor="middle" fill="#666" font-family="monospace" font-size="9" font-weight="bold">0</text>
<line x1="40" y1="1964" x2="1108" y2="1964" stroke="#ddd" stroke-width="1"/>
<text x="40" y="1982" fill="#666" font-family="Arial,sans-serif" font-size="10" font-weight="bold" letter-spacing="1px">PROMPT</text>
<text x="40" y="2000" fill="#333" font-family="monospace" font-size="11">"&lt;bos&gt;Formerly from Hartford, Connecticut, she was one of the first Perioperative nurses in Connecticut to become certifi"</text>
<text x="40" y="2024" fill="#666" font-family="Arial,sans-serif" font-size="10" font-weight="bold" letter-spacing="1px">TOP OUTPUTS</text>
<rect x="40" y="2029" width="100" height="20" fill="#e8e8e8" stroke="none" rx="6"/>
<text x="45" y="2043" fill="#333" font-family="Arial,sans-serif" font-size="11" font-weight="bold">(empty) <tspan fill="#555" font-size="10">100%</tspan></text>
</svg>