<svg width="2616" height="1427" xmlns="http://www.w3.org/2000/svg">
<rect width="2616" height="1427" fill="#f5f5f5"/>
<rect x="15" y="15" width="2586" height="1397" fill="white" stroke="none" rx="12"/>
<text x="40" y="48" fill="#666" font-family="Arial,sans-serif" font-size="14" font-weight="bold" letter-spacing="1px">ATTRIBUTION CIRCUIT</text>
<text x="25" y="96.0" fill="#999" font-family="monospace" font-size="10" font-weight="bold" text-anchor="start">L36</text>
<text x="25" y="227.0" fill="#999" font-family="monospace" font-size="10" font-weight="bold" text-anchor="start">L8</text>
<text x="25" y="365.0" fill="#999" font-family="monospace" font-size="10" font-weight="bold" text-anchor="start">L7</text>
<text x="25" y="503.0" fill="#999" font-family="monospace" font-size="10" font-weight="bold" text-anchor="start">L6</text>
<text x="25" y="641.0" fill="#999" font-family="monospace" font-size="10" font-weight="bold" text-anchor="start">L4</text>
<text x="25" y="779.0" fill="#999" font-family="monospace" font-size="10" font-weight="bold" text-anchor="start">L3</text>
<text x="25" y="917.0" fill="#999" font-family="monospace" font-size="10" font-weight="bold" text-anchor="start">L2</text>
<text x="25" y="1055.0" fill="#999" font-family="monospace" font-size="10" font-weight="bold" text-anchor="start">L1</text>
<text x="25" y="1200.0" fill="#999" font-family="monospace" font-size="10" font-weight="bold" text-anchor="start">L0</text>
<defs><marker id="arrow" markerWidth="8" markerHeight="6" refX="8" refY="3" orient="auto"><polygon points="0,0 8,3 0,6" fill="#8B4513" fill-opacity="0.7"/></marker></defs>
<path d="M 180.0,1225.0 C 398.628,1196.0 1418.892,1196.0 1637.52,1167.0" fill="none" stroke="#8B4513" stroke-width="3" stroke-opacity="0.6" marker-end="url(#arrow)"/>
<path d="M 180.0,1167.0 C 210.0,985.5 350.0,985.5 380.0,804.0" fill="none" stroke="#8B4513" stroke-width="3" stroke-opacity="0.6" marker-end="url(#arrow)"/>
<path d="M 180.0,1167.0 C 185.35649999999998,1054.5 210.3535,1054.5 215.70999999999998,942.0" fill="none" stroke="#8B4513" stroke-width="3" stroke-opacity="0.6" marker-end="url(#arrow)"/>
<path d="M 420.0,1167.0 C 414.0,985.5 386.0,985.5 380.0,804.0" fill="none" stroke="#8B4513" stroke-width="3" stroke-opacity="0.6" marker-end="url(#arrow)"/>
<path d="M 420.0,1167.0 C 389.3565,1054.5 246.3535,1054.5 215.70999999999998,942.0" fill="none" stroke="#8B4513" stroke-width="3" stroke-opacity="0.6" marker-end="url(#arrow)"/>
<path d="M 1637.52,1167.0 C 1448.892,985.5 568.6279999999999,985.5 380.0,804.0" fill="none" stroke="#8B4513" stroke-width="3" stroke-opacity="0.6" marker-end="url(#arrow)"/>
<path d="M 663.52,1225.0 C 848.4159999999999,1196.0 1711.2640000000001,1196.0 1896.16,1167.0" fill="none" stroke="#8B4513" stroke-width="3" stroke-opacity="0.6" marker-end="url(#arrow)"/>
<path d="M 663.52,1167.0 C 592.564,1123.5 261.436,1123.5 190.48,1080.0" fill="none" stroke="#8B4513" stroke-width="3" stroke-opacity="0.6" marker-end="url(#arrow)"/>
<path d="M 663.52,1167.0 C 596.3485,1054.5 282.88149999999996,1054.5 215.70999999999998,942.0" fill="none" stroke="#8B4513" stroke-width="3" stroke-opacity="0.6" marker-end="url(#arrow)"/>
<path d="M 663.52,1167.0 C 642.64825,1054.5 545.24675,1054.5 524.375,942.0" fill="none" stroke="#8B4513" stroke-width="3" stroke-opacity="0.6" marker-end="url(#arrow)"/>
<path d="M 663.52,1167.0 C 598.0487499999999,916.5 292.51625,916.5 227.04500000000002,666.0" fill="none" stroke="#8B4513" stroke-width="3" stroke-opacity="0.6" marker-end="url(#arrow)"/>
<path d="M 1896.16,1167.0 C 1640.308,1123.5 446.332,1123.5 190.48,1080.0" fill="none" stroke="#8B4513" stroke-width="3" stroke-opacity="0.6" marker-end="url(#arrow)"/>
<path d="M 190.48,1022.0 C 195.96474999999998,844.0 221.56025000000002,844.0 227.04500000000002,666.0" fill="none" stroke="#8B4513" stroke-width="3" stroke-opacity="0.6" marker-end="url(#arrow)"/>
<path d="M 215.70999999999998,884.0 C 217.41025,775.0 225.34475,775.0 227.04500000000002,666.0" fill="none" stroke="#8B4513" stroke-width="3" stroke-opacity="0.6" marker-end="url(#arrow)"/>
<path d="M 215.70999999999998,884.0 C 240.3535,568.0 355.3565,568.0 380.0,252.0" fill="none" stroke="#8B4513" stroke-width="3" stroke-opacity="0.6" marker-end="url(#arrow)"/>
<path d="M 524.375,884.0 C 479.7755,775.0 271.6445,775.0 227.04500000000002,666.0" fill="none" stroke="#8B4513" stroke-width="3" stroke-opacity="0.6" marker-end="url(#arrow)"/>
<path d="M 380.0,746.0 C 380.0,499.0 380.0,499.0 380.0,252.0" fill="none" stroke="#8B4513" stroke-width="3" stroke-opacity="0.6" marker-end="url(#arrow)"/>
<path d="M 227.04500000000002,608.0 C 249.98825000000002,361.0 357.05675,361.0 380.0,114.0" fill="none" stroke="#8B4513" stroke-width="3" stroke-opacity="0.6" marker-end="url(#arrow)"/>
<path d="M 380.0,194.0 C 380.0,154.0 380.0,154.0 380.0,114.0" fill="none" stroke="#8B4513" stroke-width="3" stroke-opacity="0.6" marker-end="url(#arrow)"/>
<path d="M 907.04,1232.0 C 1093.16,1199.5 1961.72,1199.5 2147.84,1167.0" fill="none" stroke="#8B4513" stroke-width="3" stroke-opacity="0.6" marker-end="url(#arrow)"/>
<path d="M 907.04,1160.0 C 883.5424999999999,1120.0 773.8874999999999,1120.0 750.3899999999999,1080.0" fill="none" stroke="#8B4513" stroke-width="3" stroke-opacity="0.6" marker-end="url(#arrow)"/>
<path d="M 907.04,1160.0 C 850.92725,913.0 589.0677499999999,913.0 532.9549999999999,666.0" fill="none" stroke="#8B4513" stroke-width="3" stroke-opacity="0.6" marker-end="url(#arrow)"/>
<path d="M 2147.84,1167.0 C 1938.2225,1123.5 960.0074999999999,1123.5 750.3899999999999,1080.0" fill="none" stroke="#8B4513" stroke-width="3" stroke-opacity="0.6" marker-end="url(#arrow)"/>
<path d="M 750.3899999999999,1022.0 C 717.7747499999999,844.0 565.5702499999999,844.0 532.9549999999999,666.0" fill="none" stroke="#8B4513" stroke-width="3" stroke-opacity="0.6" marker-end="url(#arrow)"/>
<path d="M 532.9549999999999,608.0 C 510.01174999999995,568.0 402.94325,568.0 380.0,528.0" fill="none" stroke="#8B4513" stroke-width="3" stroke-opacity="0.6" marker-end="url(#arrow)"/>
<path d="M 380.0,470.0 C 380.0,430.0 380.0,430.0 380.0,390.0" fill="none" stroke="#8B4513" stroke-width="3" stroke-opacity="0.6" marker-end="url(#arrow)"/>
<path d="M 380.0,332.0 C 380.0,223.0 380.0,223.0 380.0,114.0" fill="none" stroke="#8B4513" stroke-width="3" stroke-opacity="0.6" marker-end="url(#arrow)"/>
<path d="M 1147.04,1225.0 C 1334.0855,1196.0 2206.9645,1196.0 2394.01,1167.0" fill="none" stroke="#8B4513" stroke-width="3" stroke-opacity="0.6" marker-end="url(#arrow)"/>
<path d="M 1147.04,1167.0 C 1046.07125,1123.5 574.88375,1123.5 473.91499999999996,1080.0" fill="none" stroke="#8B4513" stroke-width="3" stroke-opacity="0.6" marker-end="url(#arrow)"/>
<path d="M 2394.01,1167.0 C 2105.99575,1123.5 761.9292499999999,1123.5 473.91499999999996,1080.0" fill="none" stroke="#8B4513" stroke-width="3" stroke-opacity="0.6" marker-end="url(#arrow)"/>
<path d="M 473.91499999999996,1022.0 C 527.7837499999999,982.0 779.17125,982.0 833.04,942.0" fill="none" stroke="#8B4513" stroke-width="3" stroke-opacity="0.6" marker-end="url(#arrow)"/>
<path d="M 833.04,884.0 C 765.084,499.0 447.956,499.0 380.0,114.0" fill="none" stroke="#8B4513" stroke-width="3" stroke-opacity="0.6" marker-end="url(#arrow)"/>
<path d="M 1387.04,1167.0 C 1235.984,640.5 531.056,640.5 380.0,114.0" fill="none" stroke="#8B4513" stroke-width="3" stroke-opacity="0.6" marker-end="url(#arrow)"/>
<rect x="80.0" y="1167.0" width="200" height="58" fill="#e8e8e8" stroke="#999" stroke-width="2" rx="8"/>
<text x="180.0" y="1185.0" text-anchor="middle" fill="#333" font-family="Arial,sans-serif" font-size="12" font-weight="bold">Emb: &#x27;Cons&#x27; (pos 1)</text>
<text x="180.0" y="1203.0" text-anchor="middle" fill="#666" font-family="monospace" font-size="9">L0:F-1</text>
<circle cx="262.0" cy="1180.0" r="9" fill="#ccc"/>
<text x="262.0" y="1184.0" text-anchor="middle" fill="#666" font-family="monospace" font-size="9" font-weight="bold">1</text>
<rect x="320.0" y="1167.0" width="200" height="58" fill="#e8e8e8" stroke="#999" stroke-width="2" rx="8"/>
<text x="420.0" y="1185.0" text-anchor="middle" fill="#333" font-family="Arial,sans-serif" font-size="12" font-weight="bold">Emb: &#x27;piracy&#x27; (pos 2)</text>
<text x="420.0" y="1203.0" text-anchor="middle" fill="#666" font-family="monospace" font-size="9">L0:F-1</text>
<circle cx="502.0" cy="1180.0" r="9" fill="#ccc"/>
<text x="502.0" y="1184.0" text-anchor="middle" fill="#666" font-family="monospace" font-size="9" font-weight="bold">1</text>
<rect x="560.0" y="1167.0" width="207.04" height="58" fill="#e8e8e8" stroke="#999" stroke-width="2" rx="8"/>
<text x="663.52" y="1185.0" text-anchor="middle" fill="#333" font-family="Arial,sans-serif" font-size="12" font-weight="bold">Emb: &#x27;theorists&#x27; (pos 3)</text>
<text x="663.52" y="1203.0" text-anchor="middle" fill="#666" font-family="monospace" font-size="9">L0:F-1</text>
<circle cx="749.04" cy="1180.0" r="9" fill="#ccc"/>
<text x="749.04" y="1184.0" text-anchor="middle" fill="#666" font-family="monospace" font-size="9" font-weight="bold">1</text>
<rect x="807.04" y="1160.0" width="200" height="72" fill="#e8e8e8" stroke="#999" stroke-width="2" rx="8"/>
<text x="907.04" y="1178.0" text-anchor="middle" fill="#333" font-family="Arial,sans-serif" font-size="12" font-weight="bold">Emb: &#x27;MasterCard&#x27; (pos</text>
<text x="907.04" y="1192.0" text-anchor="middle" fill="#333" font-family="Arial,sans-serif" font-size="12" font-weight="bold">5-6)</text>
<text x="907.04" y="1210.0" text-anchor="middle" fill="#666" font-family="monospace" font-size="9">L0:F-1</text>
<text x="907.04" y="1224.0" text-anchor="middle" fill="#666" font-family="monospace" font-size="9">L0:F-1</text>
<circle cx="989.04" cy="1173.0" r="9" fill="#ccc"/>
<text x="989.04" y="1177.0" text-anchor="middle" fill="#666" font-family="monospace" font-size="9" font-weight="bold">2</text>
<rect x="1047.04" y="1167.0" width="200" height="58" fill="#e8e8e8" stroke="#999" stroke-width="2" rx="8"/>
<text x="1147.04" y="1185.0" text-anchor="middle" fill="#333" font-family="Arial,sans-serif" font-size="12" font-weight="bold">Emb: &#x27;chip&#x27; (pos 11)</text>
<text x="1147.04" y="1203.0" text-anchor="middle" fill="#666" font-family="monospace" font-size="9">L0:F-1</text>
<circle cx="1229.04" cy="1180.0" r="9" fill="#ccc"/>
<text x="1229.04" y="1184.0" text-anchor="middle" fill="#666" font-family="monospace" font-size="9" font-weight="bold">1</text>
<rect x="1287.04" y="1167.0" width="200" height="58" fill="#e8e8e8" stroke="#999" stroke-width="2" rx="8"/>
<text x="1387.04" y="1185.0" text-anchor="middle" fill="#333" font-family="Arial,sans-serif" font-size="12" font-weight="bold">Emb: &#x27;that&#x27; (pos 12)</text>
<text x="1387.04" y="1203.0" text-anchor="middle" fill="#666" font-family="monospace" font-size="9">L0:F-1</text>
<circle cx="1469.04" cy="1180.0" r="9" fill="#ccc"/>
<text x="1469.04" y="1184.0" text-anchor="middle" fill="#666" font-family="monospace" font-size="9" font-weight="bold">1</text>
<rect x="1527.04" y="1167.0" width="220.95999999999998" height="58" fill="#e8e8e8" stroke="#999" stroke-width="2" rx="8"/>
<text x="1637.52" y="1185.0" text-anchor="middle" fill="#333" font-family="Arial,sans-serif" font-size="12" font-weight="bold">L0: Prefix &#x27;cons&#x27; detector</text>
<text x="1637.52" y="1203.0" text-anchor="middle" fill="#666" font-family="monospace" font-size="9">L0:F16015 — the prefix &quot;cons&quot;</text>
<circle cx="1730.0" cy="1180.0" r="9" fill="#ccc"/>
<text x="1730.0" y="1184.0" text-anchor="middle" fill="#666" font-family="monospace" font-size="9" font-weight="bold">1</text>
<rect x="1788.0" y="1167.0" width="216.32" height="58" fill="#e8e8e8" stroke="#999" stroke-width="2" rx="8"/>
<text x="1896.16" y="1185.0" text-anchor="middle" fill="#333" font-family="Arial,sans-serif" font-size="12" font-weight="bold">L0: Word &#x27;tomorrow&#x27;</text>
<text x="1896.16" y="1199.0" text-anchor="middle" fill="#333" font-family="Arial,sans-serif" font-size="12" font-weight="bold">(character overlap)</text>
<text x="1896.16" y="1217.0" text-anchor="middle" fill="#666" font-family="monospace" font-size="9">L0:F15958 —  the word &quot;tomorrow&quot;</text>
<circle cx="1986.32" cy="1180.0" r="9" fill="#ccc"/>
<text x="1986.32" y="1184.0" text-anchor="middle" fill="#666" font-family="monospace" font-size="9" font-weight="bold">1</text>
<rect x="2044.3200000000002" y="1167.0" width="207.04" height="58" fill="#e8e8e8" stroke="#999" stroke-width="2" rx="8"/>
<text x="2147.84" y="1185.0" text-anchor="middle" fill="#333" font-family="Arial,sans-serif" font-size="12" font-weight="bold">L0: Word &#x27;card&#x27; detector</text>
<text x="2147.84" y="1203.0" text-anchor="middle" fill="#666" font-family="monospace" font-size="9">L0:F1859 —  the word &quot;card&quot;</text>
<circle cx="2233.36" cy="1180.0" r="9" fill="#ccc"/>
<text x="2233.36" y="1184.0" text-anchor="middle" fill="#666" font-family="monospace" font-size="9" font-weight="bold">1</text>
<rect x="2291.36" y="1167.0" width="205.29999999999998" height="58" fill="#e8e8e8" stroke="#999" stroke-width="2" rx="8"/>
<text x="2394.01" y="1185.0" text-anchor="middle" fill="#333" font-family="Arial,sans-serif" font-size="12" font-weight="bold">L0: Word &#x27;circuit&#x27;</text>
<text x="2394.01" y="1199.0" text-anchor="middle" fill="#333" font-family="Arial,sans-serif" font-size="12" font-weight="bold">detector</text>
<text x="2394.01" y="1217.0" text-anchor="middle" fill="#666" font-family="monospace" font-size="9">L0:F1506 —  the word &quot;circuit&quot;</text>
<circle cx="2478.6600000000003" cy="1180.0" r="9" fill="#ccc"/>
<text x="2478.6600000000003" y="1184.0" text-anchor="middle" fill="#666" font-family="monospace" font-size="9" font-weight="bold">1</text>
<rect x="80.0" y="1022.0" width="220.95999999999998" height="58" fill="#e8e8e8" stroke="#999" stroke-width="2" rx="8"/>
<text x="190.48" y="1040.0" text-anchor="middle" fill="#333" font-family="Arial,sans-serif" font-size="12" font-weight="bold">L1: Word &#x27;theory&#x27; detector</text>
<text x="190.48" y="1058.0" text-anchor="middle" fill="#666" font-family="monospace" font-size="9">L1:F13684 —  the word &quot;theory&quot;</text>
<circle cx="282.96" cy="1035.0" r="9" fill="#ccc"/>
<text x="282.96" y="1039.0" text-anchor="middle" fill="#666" font-family="monospace" font-size="9" font-weight="bold">1</text>
<rect x="340.96" y="1022.0" width="265.90999999999997" height="58" fill="#e8e8e8" stroke="#999" stroke-width="2" rx="8"/>
<text x="473.91499999999996" y="1040.0" text-anchor="middle" fill="#333" font-family="Arial,sans-serif" font-size="12" font-weight="bold">L1: Word &#x27;chip&#x27; detector</text>
<text x="473.91499999999996" y="1058.0" text-anchor="middle" fill="#666" font-family="monospace" font-size="9">L1:F6066 —  the word &#x27;chip&#x27;, possibly in </text>
<circle cx="588.8699999999999" cy="1035.0" r="9" fill="#ccc"/>
<text x="588.8699999999999" y="1039.0" text-anchor="middle" fill="#666" font-family="monospace" font-size="9" font-weight="bold">1</text>
<rect x="646.8699999999999" y="1022.0" width="207.04" height="58" fill="#e8e8e8" stroke="#999" stroke-width="2" rx="8"/>
<text x="750.3899999999999" y="1040.0" text-anchor="middle" fill="#333" font-family="Arial,sans-serif" font-size="12" font-weight="bold">L1: Word &#x27;card&#x27; detector</text>
<text x="750.3899999999999" y="1058.0" text-anchor="middle" fill="#666" font-family="monospace" font-size="9">L1:F7447 —  the word card</text>
<circle cx="835.9099999999999" cy="1035.0" r="9" fill="#ccc"/>
<text x="835.9099999999999" y="1039.0" text-anchor="middle" fill="#666" font-family="monospace" font-size="9" font-weight="bold">1</text>
<rect x="80.0" y="884.0" width="271.41999999999996" height="58" fill="#e8e8e8" stroke="#999" stroke-width="2" rx="8"/>
<text x="215.70999999999998" y="902.0" text-anchor="middle" fill="#333" font-family="Arial,sans-serif" font-size="12" font-weight="bold">L2: Speculation/false</text>
<text x="215.70999999999998" y="916.0" text-anchor="middle" fill="#333" font-family="Arial,sans-serif" font-size="12" font-weight="bold">info/conspiracy</text>
<text x="215.70999999999998" y="934.0" text-anchor="middle" fill="#666" font-family="monospace" font-size="9">L2:F16028 —  terms related to speculation,</text>
<circle cx="333.41999999999996" cy="897.0" r="9" fill="#ccc"/>
<text x="333.41999999999996" y="901.0" text-anchor="middle" fill="#666" font-family="monospace" font-size="9" font-weight="bold">1</text>
<rect x="391.42" y="884.0" width="265.90999999999997" height="58" fill="#e8e8e8" stroke="#999" stroke-width="2" rx="8"/>
<text x="524.375" y="902.0" text-anchor="middle" fill="#333" font-family="Arial,sans-serif" font-size="12" font-weight="bold">L2:</text>
<text x="524.375" y="916.0" text-anchor="middle" fill="#333" font-family="Arial,sans-serif" font-size="12" font-weight="bold">People/occupations/politics</text>
<text x="524.375" y="934.0" text-anchor="middle" fill="#666" font-family="monospace" font-size="9">L2:F7100 —  words denoting people/groups </text>
<circle cx="639.3299999999999" cy="897.0" r="9" fill="#ccc"/>
<text x="639.3299999999999" y="901.0" text-anchor="middle" fill="#666" font-family="monospace" font-size="9" font-weight="bold">1</text>
<rect x="697.3299999999999" y="884.0" width="271.41999999999996" height="58" fill="#e8e8e8" stroke="#999" stroke-width="2" rx="8"/>
<text x="833.04" y="902.0" text-anchor="middle" fill="#333" font-family="Arial,sans-serif" font-size="12" font-weight="bold">L2: Semiconductor</text>
<text x="833.04" y="916.0" text-anchor="middle" fill="#333" font-family="Arial,sans-serif" font-size="12" font-weight="bold">chips/devices</text>
<text x="833.04" y="934.0" text-anchor="middle" fill="#666" font-family="monospace" font-size="9">L2:F16230 —  mentions of semiconductor chi</text>
<circle cx="950.7499999999999" cy="897.0" r="9" fill="#ccc"/>
<text x="950.7499999999999" y="901.0" text-anchor="middle" fill="#666" font-family="monospace" font-size="9" font-weight="bold">1</text>
<rect x="247.04500000000002" y="746.0" width="265.90999999999997" height="58" fill="#e8e8e8" stroke="#999" stroke-width="2" rx="8"/>
<text x="380.0" y="764.0" text-anchor="middle" fill="#333" font-family="Arial,sans-serif" font-size="12" font-weight="bold">L3: Words related to</text>
<text x="380.0" y="778.0" text-anchor="middle" fill="#333" font-family="Arial,sans-serif" font-size="12" font-weight="bold">conspiracies</text>
<text x="380.0" y="796.0" text-anchor="middle" fill="#666" font-family="monospace" font-size="9">L3:F9739 —  words related to conspiracies</text>
<circle cx="494.9549999999999" cy="759.0" r="9" fill="#ccc"/>
<text x="494.9549999999999" y="763.0" text-anchor="middle" fill="#666" font-family="monospace" font-size="9" font-weight="bold">1</text>
<rect x="94.09000000000003" y="608.0" width="265.90999999999997" height="58" fill="#e8e8e8" stroke="#999" stroke-width="2" rx="8"/>
<text x="227.04500000000002" y="626.0" text-anchor="middle" fill="#333" font-family="Arial,sans-serif" font-size="12" font-weight="bold">L4: Intense</text>
<text x="227.04500000000002" y="640.0" text-anchor="middle" fill="#333" font-family="Arial,sans-serif" font-size="12" font-weight="bold">interest/enthusiasm</text>
<text x="227.04500000000002" y="658.0" text-anchor="middle" fill="#666" font-family="monospace" font-size="9">L4:F1602 —  words or phrases that indicat</text>
<circle cx="342.0" cy="621.0" r="9" fill="#ccc"/>
<text x="342.0" y="625.0" text-anchor="middle" fill="#666" font-family="monospace" font-size="9" font-weight="bold">1</text>
<rect x="399.99999999999994" y="608.0" width="265.90999999999997" height="58" fill="#e8e8e8" stroke="#999" stroke-width="2" rx="8"/>
<text x="532.9549999999999" y="626.0" text-anchor="middle" fill="#333" font-family="Arial,sans-serif" font-size="12" font-weight="bold">L4: Currency/banking</text>
<text x="532.9549999999999" y="640.0" text-anchor="middle" fill="#333" font-family="Arial,sans-serif" font-size="12" font-weight="bold">transactions</text>
<text x="532.9549999999999" y="658.0" text-anchor="middle" fill="#666" font-family="monospace" font-size="9">L4:F4153 —  words or phrases related to c</text>
<circle cx="647.9099999999999" cy="621.0" r="9" fill="#ccc"/>
<text x="647.9099999999999" y="625.0" text-anchor="middle" fill="#666" font-family="monospace" font-size="9" font-weight="bold">1</text>
<rect x="244.29000000000002" y="470.0" width="271.41999999999996" height="58" fill="#e8e8e8" stroke="#999" stroke-width="2" rx="8"/>
<text x="380.0" y="488.0" text-anchor="middle" fill="#333" font-family="Arial,sans-serif" font-size="12" font-weight="bold">L6: Payment/financial info</text>
<text x="380.0" y="502.0" text-anchor="middle" fill="#333" font-family="Arial,sans-serif" font-size="12" font-weight="bold">(credit cards)</text>
<text x="380.0" y="520.0" text-anchor="middle" fill="#666" font-family="monospace" font-size="9">L6:F10189 —  phrases related to payment an</text>
<circle cx="497.71000000000004" cy="483.0" r="9" fill="#ccc"/>
<text x="497.71000000000004" y="487.0" text-anchor="middle" fill="#666" font-family="monospace" font-size="9" font-weight="bold">1</text>
<rect x="247.04500000000002" y="332.0" width="265.90999999999997" height="58" fill="#e8e8e8" stroke="#999" stroke-width="2" rx="8"/>
<text x="380.0" y="350.0" text-anchor="middle" fill="#333" font-family="Arial,sans-serif" font-size="12" font-weight="bold">L7: Credit</text>
<text x="380.0" y="364.0" text-anchor="middle" fill="#333" font-family="Arial,sans-serif" font-size="12" font-weight="bold">cards/loans/gambling/money</text>
<text x="380.0" y="382.0" text-anchor="middle" fill="#666" font-family="monospace" font-size="9">L7:F1062 —  words and phrases related to </text>
<circle cx="494.9549999999999" cy="345.0" r="9" fill="#ccc"/>
<text x="494.9549999999999" y="349.0" text-anchor="middle" fill="#666" font-family="monospace" font-size="9" font-weight="bold">1</text>
<rect x="244.29000000000002" y="194.0" width="271.41999999999996" height="58" fill="#e8e8e8" stroke="#999" stroke-width="2" rx="8"/>
<text x="380.0" y="212.0" text-anchor="middle" fill="#333" font-family="Arial,sans-serif" font-size="12" font-weight="bold">L8: QAnon conspiracy</text>
<text x="380.0" y="226.0" text-anchor="middle" fill="#333" font-family="Arial,sans-serif" font-size="12" font-weight="bold">theory</text>
<text x="380.0" y="244.0" text-anchor="middle" fill="#666" font-family="monospace" font-size="9">L8:F12761 —  words associated with the QAn</text>
<circle cx="497.71000000000004" cy="207.0" r="9" fill="#ccc"/>
<text x="497.71000000000004" y="211.0" text-anchor="middle" fill="#666" font-family="monospace" font-size="9" font-weight="bold">1</text>
<rect x="280.0" y="70.0" width="200" height="44" fill="#e8e8e8" stroke="#999" stroke-width="2" rx="8"/>
<text x="380.0" y="88.0" text-anchor="middle" fill="#333" font-family="Arial,sans-serif" font-size="12" font-weight="bold">Output: Probe</text>
<text x="380.0" y="102.0" text-anchor="middle" fill="#333" font-family="Arial,sans-serif" font-size="12" font-weight="bold">Classification Score</text>
<circle cx="462.0" cy="83.0" r="9" fill="#ccc"/>
<text x="462.0" y="87.0" text-anchor="middle" fill="#666" font-family="monospace" font-size="9" font-weight="bold">0</text>
<line x1="40" y1="1312" x2="2576" y2="1312" stroke="#ddd" stroke-width="1"/>
<text x="40" y="1330" fill="#666" font-family="Arial,sans-serif" font-size="10" font-weight="bold" letter-spacing="1px">PROMPT</text>
<text x="40" y="1348" fill="#333" font-family="monospace" font-size="11">"&lt;bos&gt;Conspiracy theorists  MasterCard is investing in a chip that can store electronic cash, your medical history, and k"</text>
<text x="40" y="1372" fill="#666" font-family="Arial,sans-serif" font-size="10" font-weight="bold" letter-spacing="1px">TOP OUTPUTS</text>
<rect x="40" y="1377" width="100" height="20" fill="#e8e8e8" stroke="none" rx="6"/>
<text x="45" y="1391" fill="#333" font-family="Arial,sans-serif" font-size="11" font-weight="bold">(empty) <tspan fill="#555" font-size="10">100%</tspan></text>
</svg>