<svg width="2512" height="877" xmlns="http://www.w3.org/2000/svg">
<rect width="2512" height="877" fill="#f5f5f5"/>
<rect x="15" y="15" width="2482" height="847" fill="white" stroke="none" rx="12"/>
<text x="40" y="48" fill="#666" font-family="Arial,sans-serif" font-size="14" font-weight="bold" letter-spacing="1px">ATTRIBUTION CIRCUIT</text>
<text x="25" y="96.0" fill="#999" font-family="monospace" font-size="10" font-weight="bold" text-anchor="start">L36</text>
<text x="25" y="255.0" fill="#999" font-family="monospace" font-size="10" font-weight="bold" text-anchor="start">L10</text>
<text x="25" y="449.0" fill="#999" font-family="monospace" font-size="10" font-weight="bold" text-anchor="start">L3</text>
<text x="25" y="636.0" fill="#999" font-family="monospace" font-size="10" font-weight="bold" text-anchor="start">L0</text>
<defs><marker id="arrow" markerWidth="8" markerHeight="6" refX="8" refY="3" orient="auto"><polygon points="0,0 8,3 0,6" fill="#8B4513" fill-opacity="0.7"/></marker></defs>
<path d="M 485.90999999999997,610.0 C 470.02349999999996,459.0 395.8865,459.0 380.0,308.0" fill="none" stroke="#8B4513" stroke-width="3" stroke-opacity="0.6" marker-end="url(#arrow)"/>
<path d="M 485.90999999999997,610.0 C 470.02349999999996,556.0 395.8865,556.0 380.0,502.0" fill="none" stroke="#8B4513" stroke-width="3" stroke-opacity="0.6" marker-end="url(#arrow)"/>
<path d="M 725.91,610.0 C 674.0235,556.0 431.8865,556.0 380.0,502.0" fill="none" stroke="#8B4513" stroke-width="3" stroke-opacity="0.6" marker-end="url(#arrow)"/>
<path d="M 380.0,194.0 C 380.0,154.0 380.0,154.0 380.0,114.0" fill="none" stroke="#8B4513" stroke-width="3" stroke-opacity="0.6" marker-end="url(#arrow)"/>
<path d="M 380.0,388.0 C 380.0,251.0 380.0,251.0 380.0,114.0" fill="none" stroke="#8B4513" stroke-width="3" stroke-opacity="0.6" marker-end="url(#arrow)"/>
<path d="M 965.91,654.0 C 852.9667499999999,618.0 325.89824999999996,618.0 212.95499999999998,582.0" fill="none" stroke="#8B4513" stroke-width="3" stroke-opacity="0.6" marker-end="url(#arrow)"/>
<path d="M 1205.9099999999999,654.0 C 1056.9667499999998,618.0 361.89824999999996,618.0 212.95499999999998,582.0" fill="none" stroke="#8B4513" stroke-width="3" stroke-opacity="0.6" marker-end="url(#arrow)"/>
<path d="M 212.95499999999998,582.0 C 238.01174999999998,348.0 354.94325,348.0 380.0,114.0" fill="none" stroke="#8B4513" stroke-width="3" stroke-opacity="0.6" marker-end="url(#arrow)"/>
<path d="M 1740.7999999999997,654.0 C 1700.6832499999998,628.5 1513.4717499999997,628.5 1473.3549999999998,603.0" fill="none" stroke="#8B4513" stroke-width="3" stroke-opacity="0.6" marker-end="url(#arrow)"/>
<path d="M 1473.3549999999998,603.0 C 1309.3517499999998,358.5 544.00325,358.5 380.0,114.0" fill="none" stroke="#8B4513" stroke-width="3" stroke-opacity="0.6" marker-end="url(#arrow)"/>
<path d="M 2292.22,654.0 C 2250.8635,628.5 2057.8664999999996,628.5 2016.5099999999998,603.0" fill="none" stroke="#8B4513" stroke-width="3" stroke-opacity="0.6" marker-end="url(#arrow)"/>
<path d="M 2016.5099999999998,603.0 C 1771.0334999999998,358.5 625.4765,358.5 380.0,114.0" fill="none" stroke="#8B4513" stroke-width="3" stroke-opacity="0.6" marker-end="url(#arrow)"/>
<rect x="280.0" y="70.0" width="200" height="44" fill="#e8e8e8" stroke="#999" stroke-width="2" rx="8"/>
<text x="380.0" y="88.0" text-anchor="middle" fill="#333" font-family="Arial,sans-serif" font-size="12" font-weight="bold">Output: Probe</text>
<text x="380.0" y="102.0" text-anchor="middle" fill="#333" font-family="Arial,sans-serif" font-size="12" font-weight="bold">Classification Score</text>
<circle cx="462.0" cy="83.0" r="9" fill="#ccc"/>
<text x="462.0" y="87.0" text-anchor="middle" fill="#666" font-family="monospace" font-size="9" font-weight="bold">0</text>
<rect x="244.29000000000002" y="194.0" width="271.41999999999996" height="114" fill="#e8e8e8" stroke="#999" stroke-width="2" rx="8"/>
<text x="380.0" y="212.0" text-anchor="middle" fill="#333" font-family="Arial,sans-serif" font-size="12" font-weight="bold">Negation Detection Cascade</text>
<text x="380.0" y="226.0" text-anchor="middle" fill="#333" font-family="Arial,sans-serif" font-size="12" font-weight="bold">(L0-L16)</text>
<text x="380.0" y="244.0" text-anchor="middle" fill="#666" font-family="monospace" font-size="9">L0:F1143 —  the word &quot;no&quot; and related wor</text>
<text x="380.0" y="258.0" text-anchor="middle" fill="#666" font-family="monospace" font-size="9">L2:F2771 —  the word &quot;no&quot; as well as word</text>
<text x="380.0" y="272.0" text-anchor="middle" fill="#666" font-family="monospace" font-size="9">L6:F15886 —  the word &quot;no&quot; and related neg</text>
<text x="380.0" y="286.0" text-anchor="middle" fill="#666" font-family="monospace" font-size="9">L12:F8719 —  phrases that start with &quot;no.&quot;</text>
<text x="380.0" y="300.0" text-anchor="middle" fill="#666" font-family="monospace" font-size="9">... +3 more</text>
<circle cx="497.71000000000004" cy="207.0" r="9" fill="#ccc"/>
<text x="497.71000000000004" y="211.0" text-anchor="middle" fill="#666" font-family="monospace" font-size="9" font-weight="bold">7</text>
<rect x="247.04500000000002" y="388.0" width="265.90999999999997" height="114" fill="#e8e8e8" stroke="#999" stroke-width="2" rx="8"/>
<text x="380.0" y="406.0" text-anchor="middle" fill="#333" font-family="Arial,sans-serif" font-size="12" font-weight="bold">&#x27;No one&#x27; Phrase Detection</text>
<text x="380.0" y="420.0" text-anchor="middle" fill="#333" font-family="Arial,sans-serif" font-size="12" font-weight="bold">(L0-L4)</text>
<text x="380.0" y="438.0" text-anchor="middle" fill="#666" font-family="monospace" font-size="9">L0:F4438 — the word &quot;one&quot;.</text>
<text x="380.0" y="452.0" text-anchor="middle" fill="#666" font-family="monospace" font-size="9">L0:F11351 —  the number &quot;one&quot;</text>
<text x="380.0" y="466.0" text-anchor="middle" fill="#666" font-family="monospace" font-size="9">L2:F8837 —  the word &quot;one&quot; or &quot;body&quot; when</text>
<text x="380.0" y="480.0" text-anchor="middle" fill="#666" font-family="monospace" font-size="9">L2:F8142 — words related to places, manag</text>
<text x="380.0" y="494.0" text-anchor="middle" fill="#666" font-family="monospace" font-size="9">... +2 more</text>
<circle cx="494.9549999999999" cy="401.0" r="9" fill="#ccc"/>
<text x="494.9549999999999" y="405.0" text-anchor="middle" fill="#666" font-family="monospace" font-size="9" font-weight="bold">6</text>
<rect x="80.0" y="582.0" width="265.90999999999997" height="100" fill="#e8e8e8" stroke="#999" stroke-width="2" rx="8"/>
<text x="212.95499999999998" y="600.0" text-anchor="middle" fill="#333" font-family="Arial,sans-serif" font-size="12" font-weight="bold">Token Detectors (Content</text>
<text x="212.95499999999998" y="614.0" text-anchor="middle" fill="#333" font-family="Arial,sans-serif" font-size="12" font-weight="bold">Features)</text>
<text x="212.95499999999998" y="632.0" text-anchor="middle" fill="#666" font-family="monospace" font-size="9">L0:F11375 —  the word &quot;is&quot;</text>
<text x="212.95499999999998" y="646.0" text-anchor="middle" fill="#666" font-family="monospace" font-size="9">L0:F3635 — the word &quot;that&quot;</text>
<text x="212.95499999999998" y="660.0" text-anchor="middle" fill="#666" font-family="monospace" font-size="9">L5:F559 —  words frequently related to l</text>
<text x="212.95499999999998" y="674.0" text-anchor="middle" fill="#666" font-family="monospace" font-size="9">L3:F9739 —  words related to conspiracies</text>
<circle cx="327.90999999999997" cy="595.0" r="9" fill="#ccc"/>
<text x="327.90999999999997" y="599.0" text-anchor="middle" fill="#666" font-family="monospace" font-size="9" font-weight="bold">4</text>
<rect x="385.90999999999997" y="610.0" width="200" height="44" fill="#e8e8e8" stroke="#999" stroke-width="2" rx="8"/>
<text x="485.90999999999997" y="628.0" text-anchor="middle" fill="#333" font-family="Arial,sans-serif" font-size="12" font-weight="bold">Emb: &#x27;No&#x27; (pos 30)</text>
<circle cx="567.91" cy="623.0" r="9" fill="#ccc"/>
<text x="567.91" y="627.0" text-anchor="middle" fill="#666" font-family="monospace" font-size="9" font-weight="bold">0</text>
<rect x="625.91" y="610.0" width="200" height="44" fill="#e8e8e8" stroke="#999" stroke-width="2" rx="8"/>
<text x="725.91" y="628.0" text-anchor="middle" fill="#333" font-family="Arial,sans-serif" font-size="12" font-weight="bold">Emb: &#x27;one&#x27; (pos 31)</text>
<circle cx="807.91" cy="623.0" r="9" fill="#ccc"/>
<text x="807.91" y="627.0" text-anchor="middle" fill="#666" font-family="monospace" font-size="9" font-weight="bold">0</text>
<rect x="865.91" y="610.0" width="200" height="44" fill="#e8e8e8" stroke="#999" stroke-width="2" rx="8"/>
<text x="965.91" y="628.0" text-anchor="middle" fill="#333" font-family="Arial,sans-serif" font-size="12" font-weight="bold">Emb: &#x27; is&#x27; (pos 7)</text>
<circle cx="1047.9099999999999" cy="623.0" r="9" fill="#ccc"/>
<text x="1047.9099999999999" y="627.0" text-anchor="middle" fill="#666" font-family="monospace" font-size="9" font-weight="bold">0</text>
<rect x="1105.9099999999999" y="610.0" width="200" height="44" fill="#e8e8e8" stroke="#999" stroke-width="2" rx="8"/>
<text x="1205.9099999999999" y="628.0" text-anchor="middle" fill="#333" font-family="Arial,sans-serif" font-size="12" font-weight="bold">Emb: &#x27; that&#x27; (pos 12)</text>
<circle cx="1287.9099999999999" cy="623.0" r="9" fill="#ccc"/>
<text x="1287.9099999999999" y="627.0" text-anchor="middle" fill="#666" font-family="monospace" font-size="9" font-weight="bold">0</text>
<rect x="1345.9099999999999" y="603.0" width="254.89" height="58" fill="#e8e8e8" stroke="#999" stroke-width="2" rx="8"/>
<text x="1473.3549999999998" y="621.0" text-anchor="middle" fill="#333" font-family="Arial,sans-serif" font-size="12" font-weight="bold">Conspiracy Token (NEGATIVE</text>
<text x="1473.3549999999998" y="635.0" text-anchor="middle" fill="#333" font-family="Arial,sans-serif" font-size="12" font-weight="bold">Driver)</text>
<text x="1473.3549999999998" y="653.0" text-anchor="middle" fill="#666" font-family="monospace" font-size="9">L0:F44 — words starting with &quot;cons&quot; tha</text>
<circle cx="1582.7999999999997" cy="616.0" r="9" fill="#ccc"/>
<text x="1582.7999999999997" y="620.0" text-anchor="middle" fill="#666" font-family="monospace" font-size="9" font-weight="bold">1</text>
<rect x="1640.7999999999997" y="610.0" width="200" height="44" fill="#e8e8e8" stroke="#999" stroke-width="2" rx="8"/>
<text x="1740.7999999999997" y="628.0" text-anchor="middle" fill="#333" font-family="Arial,sans-serif" font-size="12" font-weight="bold">Emb: &#x27;Cons&#x27; (pos 1)</text>
<circle cx="1822.7999999999997" cy="623.0" r="9" fill="#ccc"/>
<text x="1822.7999999999997" y="627.0" text-anchor="middle" fill="#666" font-family="monospace" font-size="9" font-weight="bold">0</text>
<rect x="1880.7999999999997" y="603.0" width="271.41999999999996" height="58" fill="#e8e8e8" stroke="#999" stroke-width="2" rx="8"/>
<text x="2016.5099999999998" y="621.0" text-anchor="middle" fill="#333" font-family="Arial,sans-serif" font-size="12" font-weight="bold">&#x27;Your&#x27; Token (NEGATIVE</text>
<text x="2016.5099999999998" y="635.0" text-anchor="middle" fill="#333" font-family="Arial,sans-serif" font-size="12" font-weight="bold">Driver)</text>
<text x="2016.5099999999998" y="653.0" text-anchor="middle" fill="#666" font-family="monospace" font-size="9">L0:F14574 — the possessive adjective &quot;your</text>
<circle cx="2134.22" cy="616.0" r="9" fill="#ccc"/>
<text x="2134.22" y="620.0" text-anchor="middle" fill="#666" font-family="monospace" font-size="9" font-weight="bold">1</text>
<rect x="2192.22" y="610.0" width="200" height="44" fill="#e8e8e8" stroke="#999" stroke-width="2" rx="8"/>
<text x="2292.22" y="628.0" text-anchor="middle" fill="#333" font-family="Arial,sans-serif" font-size="12" font-weight="bold">Emb: &#x27;your&#x27; (pos 18)</text>
<circle cx="2374.22" cy="623.0" r="9" fill="#ccc"/>
<text x="2374.22" y="627.0" text-anchor="middle" fill="#666" font-family="monospace" font-size="9" font-weight="bold">0</text>
<line x1="40" y1="762" x2="2472" y2="762" stroke="#ddd" stroke-width="1"/>
<text x="40" y="780" fill="#666" font-family="Arial,sans-serif" font-size="10" font-weight="bold" letter-spacing="1px">PROMPT</text>
<text x="40" y="798" fill="#333" font-family="monospace" font-size="11">"&lt;bos&gt;Conspiracy theorists  MasterCard is investing in a chip that can store electronic cash, your medical history, and k"</text>
<text x="40" y="822" fill="#666" font-family="Arial,sans-serif" font-size="10" font-weight="bold" letter-spacing="1px">TOP OUTPUTS</text>
<rect x="40" y="827" width="100" height="20" fill="#e8e8e8" stroke="none" rx="6"/>
<text x="45" y="841" fill="#333" font-family="Arial,sans-serif" font-size="11" font-weight="bold">(empty) <tspan fill="#555" font-size="10">100%</tspan></text>
</svg>