<svg width="1505" height="2063" xmlns="http://www.w3.org/2000/svg">
<rect width="1505" height="2063" fill="#f5f5f5"/>
<rect x="15" y="15" width="1475" height="2033" fill="white" stroke="none" rx="12"/>
<text x="40" y="48" fill="#666" font-family="Arial,sans-serif" font-size="14" font-weight="bold" letter-spacing="1px">ATTRIBUTION CIRCUIT</text>
<text x="25" y="96.0" fill="#999" font-family="monospace" font-size="10" font-weight="bold" text-anchor="start">L36</text>
<text x="25" y="227.0" fill="#999" font-family="monospace" font-size="10" font-weight="bold" text-anchor="start">L19</text>
<text x="25" y="379.0" fill="#999" font-family="monospace" font-size="10" font-weight="bold" text-anchor="start">L18</text>
<text x="25" y="531.0" fill="#999" font-family="monospace" font-size="10" font-weight="bold" text-anchor="start">L17</text>
<text x="25" y="669.0" fill="#999" font-family="monospace" font-size="10" font-weight="bold" text-anchor="start">L15</text>
<text x="25" y="807.0" fill="#999" font-family="monospace" font-size="10" font-weight="bold" text-anchor="start">L14</text>
<text x="25" y="945.0" fill="#999" font-family="monospace" font-size="10" font-weight="bold" text-anchor="start">L12</text>
<text x="25" y="1083.0" fill="#999" font-family="monospace" font-size="10" font-weight="bold" text-anchor="start">L10</text>
<text x="25" y="1228.0" fill="#999" font-family="monospace" font-size="10" font-weight="bold" text-anchor="start">L7</text>
<text x="25" y="1380.0" fill="#999" font-family="monospace" font-size="10" font-weight="bold" text-anchor="start">L6</text>
<text x="25" y="1525.0" fill="#999" font-family="monospace" font-size="10" font-weight="bold" text-anchor="start">L4</text>
<text x="25" y="1670.0" fill="#999" font-family="monospace" font-size="10" font-weight="bold" text-anchor="start">L2</text>
<text x="25" y="1829.0" fill="#999" font-family="monospace" font-size="10" font-weight="bold" text-anchor="start">L0</text>
<defs><marker id="arrow" markerWidth="8" markerHeight="6" refX="8" refY="3" orient="auto"><polygon points="0,0 8,3 0,6" fill="#8B4513" fill-opacity="0.7"/></marker></defs>
<path d="M 180.0,1847.0 C 295.04325,1814.5 831.91175,1814.5 946.9549999999999,1782.0" fill="none" stroke="#8B4513" stroke-width="3" stroke-opacity="0.6" marker-end="url(#arrow)"/>
<path d="M 180.0,1803.0 C 186.64350000000002,1676.5 217.6465,1676.5 224.29000000000002,1550.0" fill="none" stroke="#8B4513" stroke-width="3" stroke-opacity="0.6" marker-end="url(#arrow)"/>
<path d="M 180.0,1803.0 C 185.35649999999998,1604.0 210.3535,1604.0 215.70999999999998,1405.0" fill="none" stroke="#8B4513" stroke-width="3" stroke-opacity="0.6" marker-end="url(#arrow)"/>
<path d="M 180.0,1803.0 C 232.06949999999998,1604.0 475.0604999999999,1604.0 527.1299999999999,1405.0" fill="none" stroke="#8B4513" stroke-width="3" stroke-opacity="0.6" marker-end="url(#arrow)"/>
<path d="M 180.0,1803.0 C 210.0,1386.5 350.0,1386.5 380.0,970.0" fill="none" stroke="#8B4513" stroke-width="3" stroke-opacity="0.6" marker-end="url(#arrow)"/>
<path d="M 180.0,1803.0 C 192.0,1110.5 248.0,1110.5 260.0,418.0" fill="none" stroke="#8B4513" stroke-width="3" stroke-opacity="0.6" marker-end="url(#arrow)"/>
<path d="M 180.0,1803.0 C 210.0,1027.5 350.0,1027.5 380.0,252.0" fill="none" stroke="#8B4513" stroke-width="3" stroke-opacity="0.6" marker-end="url(#arrow)"/>
<path d="M 420.0,1847.0 C 544.92975,1814.5 1127.9352499999998,1814.5 1252.8649999999998,1782.0" fill="none" stroke="#8B4513" stroke-width="3" stroke-opacity="0.6" marker-end="url(#arrow)"/>
<path d="M 420.0,1803.0 C 391.05675,1749.0 255.98825000000002,1749.0 227.04500000000002,1695.0" fill="none" stroke="#8B4513" stroke-width="3" stroke-opacity="0.6" marker-end="url(#arrow)"/>
<path d="M 667.0,1803.0 C 692.7325,1607.5 812.8175,1607.5 838.55,1412.0" fill="none" stroke="#8B4513" stroke-width="3" stroke-opacity="0.6" marker-end="url(#arrow)"/>
<path d="M 946.9549999999999,1782.0 C 885.26825,1742.0 597.39675,1742.0 535.71,1702.0" fill="none" stroke="#8B4513" stroke-width="3" stroke-opacity="0.6" marker-end="url(#arrow)"/>
<path d="M 1252.8649999999998,1782.0 C 1098.9919999999997,1738.5 380.918,1738.5 227.04500000000002,1695.0" fill="none" stroke="#8B4513" stroke-width="3" stroke-opacity="0.6" marker-end="url(#arrow)"/>
<path d="M 535.71,1630.0 C 488.997,1590.0 271.00300000000004,1590.0 224.29000000000002,1550.0" fill="none" stroke="#8B4513" stroke-width="3" stroke-opacity="0.6" marker-end="url(#arrow)"/>
<path d="M 224.29000000000002,1492.0 C 223.00300000000001,1448.5 216.99699999999999,1448.5 215.70999999999998,1405.0" fill="none" stroke="#8B4513" stroke-width="3" stroke-opacity="0.6" marker-end="url(#arrow)"/>
<path d="M 224.29000000000002,1492.0 C 247.6465,1376.0 356.6435,1376.0 380.0,1260.0" fill="none" stroke="#8B4513" stroke-width="3" stroke-opacity="0.6" marker-end="url(#arrow)"/>
<path d="M 224.29000000000002,1492.0 C 247.6465,1300.0 356.6435,1300.0 380.0,1108.0" fill="none" stroke="#8B4513" stroke-width="3" stroke-opacity="0.6" marker-end="url(#arrow)"/>
<path d="M 224.29000000000002,1492.0 C 247.6465,1231.0 356.6435,1231.0 380.0,970.0" fill="none" stroke="#8B4513" stroke-width="3" stroke-opacity="0.6" marker-end="url(#arrow)"/>
<path d="M 224.29000000000002,1492.0 C 247.6465,1093.0 356.6435,1093.0 380.0,694.0" fill="none" stroke="#8B4513" stroke-width="3" stroke-opacity="0.6" marker-end="url(#arrow)"/>
<path d="M 532.9549999999999,1492.0 C 578.7942499999999,1452.0 792.71075,1452.0 838.55,1412.0" fill="none" stroke="#8B4513" stroke-width="3" stroke-opacity="0.6" marker-end="url(#arrow)"/>
<path d="M 215.70999999999998,1347.0 C 240.3535,1303.5 355.3565,1303.5 380.0,1260.0" fill="none" stroke="#8B4513" stroke-width="3" stroke-opacity="0.6" marker-end="url(#arrow)"/>
<path d="M 215.70999999999998,1347.0 C 240.3535,1227.5 355.3565,1227.5 380.0,1108.0" fill="none" stroke="#8B4513" stroke-width="3" stroke-opacity="0.6" marker-end="url(#arrow)"/>
<path d="M 215.70999999999998,1347.0 C 240.3535,1158.5 355.3565,1158.5 380.0,970.0" fill="none" stroke="#8B4513" stroke-width="3" stroke-opacity="0.6" marker-end="url(#arrow)"/>
<path d="M 215.70999999999998,1347.0 C 240.3535,1020.5 355.3565,1020.5 380.0,694.0" fill="none" stroke="#8B4513" stroke-width="3" stroke-opacity="0.6" marker-end="url(#arrow)"/>
<path d="M 215.70999999999998,1347.0 C 240.3535,799.5 355.3565,799.5 380.0,252.0" fill="none" stroke="#8B4513" stroke-width="3" stroke-opacity="0.6" marker-end="url(#arrow)"/>
<path d="M 527.1299999999999,1347.0 C 505.0604999999999,1303.5 402.0695,1303.5 380.0,1260.0" fill="none" stroke="#8B4513" stroke-width="3" stroke-opacity="0.6" marker-end="url(#arrow)"/>
<path d="M 527.1299999999999,1347.0 C 505.0604999999999,1227.5 402.0695,1227.5 380.0,1108.0" fill="none" stroke="#8B4513" stroke-width="3" stroke-opacity="0.6" marker-end="url(#arrow)"/>
<path d="M 380.0,1188.0 C 380.0,1148.0 380.0,1148.0 380.0,1108.0" fill="none" stroke="#8B4513" stroke-width="3" stroke-opacity="0.6" marker-end="url(#arrow)"/>
<path d="M 380.0,1050.0 C 380.0,1010.0 380.0,1010.0 380.0,970.0" fill="none" stroke="#8B4513" stroke-width="3" stroke-opacity="0.6" marker-end="url(#arrow)"/>
<path d="M 380.0,912.0 C 380.0,803.0 380.0,803.0 380.0,694.0" fill="none" stroke="#8B4513" stroke-width="3" stroke-opacity="0.6" marker-end="url(#arrow)"/>
<path d="M 380.0,912.0 C 362.0,665.0 278.0,665.0 260.0,418.0" fill="none" stroke="#8B4513" stroke-width="3" stroke-opacity="0.6" marker-end="url(#arrow)"/>
<path d="M 380.0,912.0 C 380.0,582.0 380.0,582.0 380.0,252.0" fill="none" stroke="#8B4513" stroke-width="3" stroke-opacity="0.6" marker-end="url(#arrow)"/>
<path d="M 380.0,774.0 C 380.0,665.0 380.0,665.0 380.0,556.0" fill="none" stroke="#8B4513" stroke-width="3" stroke-opacity="0.6" marker-end="url(#arrow)"/>
<path d="M 380.0,636.0 C 380.0,444.0 380.0,444.0 380.0,252.0" fill="none" stroke="#8B4513" stroke-width="3" stroke-opacity="0.6" marker-end="url(#arrow)"/>
<path d="M 380.0,498.0 C 380.0,375.0 380.0,375.0 380.0,252.0" fill="none" stroke="#8B4513" stroke-width="3" stroke-opacity="0.6" marker-end="url(#arrow)"/>
<path d="M 215.70999999999998,1347.0 C 240.3535,730.5 355.3565,730.5 380.0,114.0" fill="none" stroke="#8B4513" stroke-width="3" stroke-opacity="0.6" marker-end="url(#arrow)"/>
<path d="M 260.0,332.0 C 278.0,223.0 362.0,223.0 380.0,114.0" fill="none" stroke="#8B4513" stroke-width="3" stroke-opacity="0.6" marker-end="url(#arrow)"/>
<path d="M 946.9549999999999,1782.0 C 861.91175,948.0 465.04325,948.0 380.0,114.0" fill="none" stroke="#8B4513" stroke-width="3" stroke-opacity="0.6" marker-end="url(#arrow)"/>
<path d="M 380.0,912.0 C 380.0,513.0 380.0,513.0 380.0,114.0" fill="none" stroke="#8B4513" stroke-width="3" stroke-opacity="0.6" marker-end="url(#arrow)"/>
<path d="M 527.1299999999999,1347.0 C 505.0604999999999,730.5 402.0695,730.5 380.0,114.0" fill="none" stroke="#8B4513" stroke-width="3" stroke-opacity="0.6" marker-end="url(#arrow)"/>
<path d="M 224.29000000000002,1492.0 C 247.6465,803.0 356.6435,803.0 380.0,114.0" fill="none" stroke="#8B4513" stroke-width="3" stroke-opacity="0.6" marker-end="url(#arrow)"/>
<path d="M 380.0,194.0 C 380.0,154.0 380.0,154.0 380.0,114.0" fill="none" stroke="#8B4513" stroke-width="3" stroke-opacity="0.6" marker-end="url(#arrow)"/>
<path d="M 838.55,1340.0 C 769.7674999999999,727.0 448.78249999999997,727.0 380.0,114.0" fill="none" stroke="#8B4513" stroke-width="3" stroke-opacity="0.6" marker-end="url(#arrow)"/>
<path d="M 227.04500000000002,1637.0 C 249.98825000000002,875.5 357.05675,875.5 380.0,114.0" fill="none" stroke="#8B4513" stroke-width="3" stroke-opacity="0.6" marker-end="url(#arrow)"/>
<path d="M 538.4649999999999,346.0 C 514.69525,230.0 403.76975,230.0 380.0,114.0" fill="none" stroke="#8B4513" stroke-width="3" stroke-opacity="0.6" marker-end="url(#arrow)"/>
<path d="M 946.9549999999999,1782.0 C 861.91175,948.0 465.04325,948.0 380.0,114.0" fill="none" stroke="#8B4513" stroke-width="3" stroke-opacity="0.6" marker-end="url(#arrow)"/>
<path d="M 380.0,774.0 C 380.0,444.0 380.0,444.0 380.0,114.0" fill="none" stroke="#8B4513" stroke-width="3" stroke-opacity="0.6" marker-end="url(#arrow)"/>
<path d="M 380.0,1050.0 C 380.0,582.0 380.0,582.0 380.0,114.0" fill="none" stroke="#8B4513" stroke-width="3" stroke-opacity="0.6" marker-end="url(#arrow)"/>
<path d="M 380.0,1188.0 C 380.0,651.0 380.0,651.0 380.0,114.0" fill="none" stroke="#8B4513" stroke-width="3" stroke-opacity="0.6" marker-end="url(#arrow)"/>
<path d="M 535.71,1630.0 C 512.3535,872.0 403.3565,872.0 380.0,114.0" fill="none" stroke="#8B4513" stroke-width="3" stroke-opacity="0.6" marker-end="url(#arrow)"/>
<rect x="80.0" y="1803.0" width="200" height="44" fill="#e8e8e8" stroke="#999" stroke-width="2" rx="8"/>
<text x="180.0" y="1821.0" text-anchor="middle" fill="#333" font-family="Arial,sans-serif" font-size="12" font-weight="bold">Emb: &#x27;she&#x27; (pos 7)</text>
<circle cx="262.0" cy="1816.0" r="9" fill="#ccc"/>
<text x="262.0" y="1820.0" text-anchor="middle" fill="#666" font-family="monospace" font-size="9" font-weight="bold">0</text>
<rect x="320.0" y="1803.0" width="200" height="44" fill="#e8e8e8" stroke="#999" stroke-width="2" rx="8"/>
<text x="420.0" y="1821.0" text-anchor="middle" fill="#333" font-family="Arial,sans-serif" font-size="12" font-weight="bold">Emb: &#x27;nurses&#x27; (pos 15)</text>
<circle cx="502.0" cy="1816.0" r="9" fill="#ccc"/>
<text x="502.0" y="1820.0" text-anchor="middle" fill="#666" font-family="monospace" font-size="9" font-weight="bold">0</text>
<rect x="560.0" y="1803.0" width="214.0" height="44" fill="#e8e8e8" stroke="#999" stroke-width="2" rx="8"/>
<text x="667.0" y="1821.0" text-anchor="middle" fill="#333" font-family="Arial,sans-serif" font-size="12" font-weight="bold">Emb: &#x27;Perioperative&#x27; (pos</text>
<text x="667.0" y="1835.0" text-anchor="middle" fill="#333" font-family="Arial,sans-serif" font-size="12" font-weight="bold">14)</text>
<circle cx="756.0" cy="1816.0" r="9" fill="#ccc"/>
<text x="756.0" y="1820.0" text-anchor="middle" fill="#666" font-family="monospace" font-size="9" font-weight="bold">0</text>
<rect x="814.0" y="1782.0" width="265.90999999999997" height="86" fill="#e8e8e8" stroke="#999" stroke-width="2" rx="8"/>
<text x="946.9549999999999" y="1800.0" text-anchor="middle" fill="#333" font-family="Arial,sans-serif" font-size="12" font-weight="bold">Early &#x27;she&#x27; detection</text>
<text x="946.9549999999999" y="1814.0" text-anchor="middle" fill="#333" font-family="Arial,sans-serif" font-size="12" font-weight="bold">(L0-L1)</text>
<text x="946.9549999999999" y="1832.0" text-anchor="middle" fill="#666" font-family="monospace" font-size="9">L0:F12519 —  the pronoun &quot;she&quot;</text>
<text x="946.9549999999999" y="1846.0" text-anchor="middle" fill="#666" font-family="monospace" font-size="9">L0:F7509 —  female pronouns and words lik</text>
<text x="946.9549999999999" y="1860.0" text-anchor="middle" fill="#666" font-family="monospace" font-size="9">L1:F4232 —  the possessive pronoun &quot;her&quot;</text>
<circle cx="1061.9099999999999" cy="1795.0" r="9" fill="#ccc"/>
<text x="1061.9099999999999" y="1799.0" text-anchor="middle" fill="#666" font-family="monospace" font-size="9" font-weight="bold">3</text>
<rect x="1119.9099999999999" y="1782.0" width="265.90999999999997" height="86" fill="#e8e8e8" stroke="#999" stroke-width="2" rx="8"/>
<text x="1252.8649999999998" y="1800.0" text-anchor="middle" fill="#333" font-family="Arial,sans-serif" font-size="12" font-weight="bold">Early &#x27;nurse&#x27; detection</text>
<text x="1252.8649999999998" y="1814.0" text-anchor="middle" fill="#333" font-family="Arial,sans-serif" font-size="12" font-weight="bold">(L0-L1)</text>
<text x="1252.8649999999998" y="1832.0" text-anchor="middle" fill="#666" font-family="monospace" font-size="9">L0:F10920 —  the word &quot;nurse&quot;</text>
<text x="1252.8649999999998" y="1846.0" text-anchor="middle" fill="#666" font-family="monospace" font-size="9">L0:F8854 —  the word &quot;nurse&quot; as well as s</text>
<text x="1252.8649999999998" y="1860.0" text-anchor="middle" fill="#666" font-family="monospace" font-size="9">L1:F14469 —  mentions of &#x27;nurse&#x27;</text>
<circle cx="1367.8199999999997" cy="1795.0" r="9" fill="#ccc"/>
<text x="1367.8199999999997" y="1799.0" text-anchor="middle" fill="#666" font-family="monospace" font-size="9" font-weight="bold">3</text>
<rect x="91.33500000000004" y="1637.0" width="271.41999999999996" height="58" fill="#e8e8e8" stroke="#999" stroke-width="2" rx="8"/>
<text x="227.04500000000002" y="1655.0" text-anchor="middle" fill="#333" font-family="Arial,sans-serif" font-size="12" font-weight="bold">Nursing concept (L2)</text>
<text x="227.04500000000002" y="1673.0" text-anchor="middle" fill="#666" font-family="monospace" font-size="9">L2:F15728 —  mentions of nurses and nursin</text>
<circle cx="344.755" cy="1650.0" r="9" fill="#ccc"/>
<text x="344.755" y="1654.0" text-anchor="middle" fill="#666" font-family="monospace" font-size="9" font-weight="bold">1</text>
<rect x="402.75500000000005" y="1630.0" width="265.90999999999997" height="72" fill="#e8e8e8" stroke="#999" stroke-width="2" rx="8"/>
<text x="535.71" y="1648.0" text-anchor="middle" fill="#333" font-family="Arial,sans-serif" font-size="12" font-weight="bold">&#x27;she&#x27; pronoun refined (L2)</text>
<text x="535.71" y="1666.0" text-anchor="middle" fill="#666" font-family="monospace" font-size="9">L2:F8966 —  the pronoun &quot;she&quot;</text>
<text x="535.71" y="1680.0" text-anchor="middle" fill="#666" font-family="monospace" font-size="9">L2:F7672 —  mentions of women by name and</text>
<circle cx="650.665" cy="1643.0" r="9" fill="#ccc"/>
<text x="650.665" y="1647.0" text-anchor="middle" fill="#666" font-family="monospace" font-size="9" font-weight="bold">2</text>
<rect x="91.33500000000004" y="1492.0" width="265.90999999999997" height="58" fill="#e8e8e8" stroke="#999" stroke-width="2" rx="8"/>
<text x="224.29000000000002" y="1510.0" text-anchor="middle" fill="#333" font-family="Arial,sans-serif" font-size="12" font-weight="bold">Female gender signal (L4)</text>
<text x="224.29000000000002" y="1528.0" text-anchor="middle" fill="#666" font-family="monospace" font-size="9">L4:F7864 — xml or source code snippets, e</text>
<circle cx="339.245" cy="1505.0" r="9" fill="#ccc"/>
<text x="339.245" y="1509.0" text-anchor="middle" fill="#666" font-family="monospace" font-size="9" font-weight="bold">1</text>
<rect x="397.24499999999995" y="1492.0" width="271.41999999999996" height="58" fill="#e8e8e8" stroke="#999" stroke-width="2" rx="8"/>
<text x="532.9549999999999" y="1510.0" text-anchor="middle" fill="#333" font-family="Arial,sans-serif" font-size="12" font-weight="bold">Profession/social work</text>
<text x="532.9549999999999" y="1524.0" text-anchor="middle" fill="#333" font-family="Arial,sans-serif" font-size="12" font-weight="bold">concepts (L4)</text>
<text x="532.9549999999999" y="1542.0" text-anchor="middle" fill="#666" font-family="monospace" font-size="9">L4:F11037 —  words related to counseling, </text>
<circle cx="650.665" cy="1505.0" r="9" fill="#ccc"/>
<text x="650.665" y="1509.0" text-anchor="middle" fill="#666" font-family="monospace" font-size="9" font-weight="bold">1</text>
<rect x="80.0" y="1347.0" width="271.41999999999996" height="58" fill="#e8e8e8" stroke="#999" stroke-width="2" rx="8"/>
<text x="215.70999999999998" y="1365.0" text-anchor="middle" fill="#333" font-family="Arial,sans-serif" font-size="12" font-weight="bold">References to women (L6) —</text>
<text x="215.70999999999998" y="1379.0" text-anchor="middle" fill="#333" font-family="Arial,sans-serif" font-size="12" font-weight="bold">STRONGEST positive</text>
<text x="215.70999999999998" y="1397.0" text-anchor="middle" fill="#666" font-family="monospace" font-size="9">L6:F11646 —  references to women, potentia</text>
<circle cx="333.41999999999996" cy="1360.0" r="9" fill="#ccc"/>
<text x="333.41999999999996" y="1364.0" text-anchor="middle" fill="#666" font-family="monospace" font-size="9" font-weight="bold">1</text>
<rect x="391.4199999999999" y="1347.0" width="271.41999999999996" height="58" fill="#e8e8e8" stroke="#999" stroke-width="2" rx="8"/>
<text x="527.1299999999999" y="1365.0" text-anchor="middle" fill="#333" font-family="Arial,sans-serif" font-size="12" font-weight="bold">Female first names (L6) —</text>
<text x="527.1299999999999" y="1379.0" text-anchor="middle" fill="#333" font-family="Arial,sans-serif" font-size="12" font-weight="bold">suppressive</text>
<text x="527.1299999999999" y="1397.0" text-anchor="middle" fill="#666" font-family="monospace" font-size="9">L6:F16329 — female first names and their p</text>
<circle cx="644.8399999999999" cy="1360.0" r="9" fill="#ccc"/>
<text x="644.8399999999999" y="1364.0" text-anchor="middle" fill="#666" font-family="monospace" font-size="9" font-weight="bold">1</text>
<rect x="702.8399999999999" y="1340.0" width="271.41999999999996" height="72" fill="#e8e8e8" stroke="#999" stroke-width="2" rx="8"/>
<text x="838.55" y="1358.0" text-anchor="middle" fill="#333" font-family="Arial,sans-serif" font-size="12" font-weight="bold">Nursing profession (L6)</text>
<text x="838.55" y="1376.0" text-anchor="middle" fill="#666" font-family="monospace" font-size="9">L6:F15267 —  words in the document referri</text>
<text x="838.55" y="1390.0" text-anchor="middle" fill="#666" font-family="monospace" font-size="9">L6:F15267 —  words in the document referri</text>
<circle cx="956.2599999999999" cy="1353.0" r="9" fill="#ccc"/>
<text x="956.2599999999999" y="1357.0" text-anchor="middle" fill="#666" font-family="monospace" font-size="9" font-weight="bold">2</text>
<rect x="244.29000000000002" y="1188.0" width="271.41999999999996" height="72" fill="#e8e8e8" stroke="#999" stroke-width="2" rx="8"/>
<text x="380.0" y="1206.0" text-anchor="middle" fill="#333" font-family="Arial,sans-serif" font-size="12" font-weight="bold">Women by name/pronoun</text>
<text x="380.0" y="1220.0" text-anchor="middle" fill="#333" font-family="Arial,sans-serif" font-size="12" font-weight="bold">(L7-L8)</text>
<text x="380.0" y="1238.0" text-anchor="middle" fill="#666" font-family="monospace" font-size="9">L7:F8952 —  references to women, by direc</text>
<text x="380.0" y="1252.0" text-anchor="middle" fill="#666" font-family="monospace" font-size="9">L8:F15388 —  female pronouns and proper na</text>
<circle cx="497.71000000000004" cy="1201.0" r="9" fill="#ccc"/>
<text x="497.71000000000004" y="1205.0" text-anchor="middle" fill="#666" font-family="monospace" font-size="9" font-weight="bold">2</text>
<rect x="258.065" y="1050.0" width="243.86999999999998" height="58" fill="#e8e8e8" stroke="#999" stroke-width="2" rx="8"/>
<text x="380.0" y="1068.0" text-anchor="middle" fill="#333" font-family="Arial,sans-serif" font-size="12" font-weight="bold">Terms relating to women</text>
<text x="380.0" y="1082.0" text-anchor="middle" fill="#333" font-family="Arial,sans-serif" font-size="12" font-weight="bold">(L10)</text>
<text x="380.0" y="1100.0" text-anchor="middle" fill="#666" font-family="monospace" font-size="9">L10:F14965 —  terms relating to women</text>
<circle cx="483.93499999999995" cy="1063.0" r="9" fill="#ccc"/>
<text x="483.93499999999995" y="1067.0" text-anchor="middle" fill="#666" font-family="monospace" font-size="9" font-weight="bold">1</text>
<rect x="241.53500000000003" y="912.0" width="276.92999999999995" height="58" fill="#e8e8e8" stroke="#999" stroke-width="2" rx="8"/>
<text x="380.0" y="930.0" text-anchor="middle" fill="#333" font-family="Arial,sans-serif" font-size="12" font-weight="bold">Female pronouns &amp;</text>
<text x="380.0" y="944.0" text-anchor="middle" fill="#333" font-family="Arial,sans-serif" font-size="12" font-weight="bold">possessives (L12)</text>
<text x="380.0" y="962.0" text-anchor="middle" fill="#666" font-family="monospace" font-size="9">L12:F12940 — references to female pronouns </text>
<circle cx="500.4649999999999" cy="925.0" r="9" fill="#ccc"/>
<text x="500.4649999999999" y="929.0" text-anchor="middle" fill="#666" font-family="monospace" font-size="9" font-weight="bold">1</text>
<rect x="244.29000000000002" y="774.0" width="271.41999999999996" height="58" fill="#e8e8e8" stroke="#999" stroke-width="2" rx="8"/>
<text x="380.0" y="792.0" text-anchor="middle" fill="#333" font-family="Arial,sans-serif" font-size="12" font-weight="bold">&#x27;he&#x27; detection —</text>
<text x="380.0" y="806.0" text-anchor="middle" fill="#333" font-family="Arial,sans-serif" font-size="12" font-weight="bold">suppressive (L14)</text>
<text x="380.0" y="824.0" text-anchor="middle" fill="#666" font-family="monospace" font-size="9">L14:F14097 —  occurrences of the word &quot;he&quot;</text>
<circle cx="497.71000000000004" cy="787.0" r="9" fill="#ccc"/>
<text x="497.71000000000004" y="791.0" text-anchor="middle" fill="#666" font-family="monospace" font-size="9" font-weight="bold">1</text>
<rect x="241.53500000000003" y="636.0" width="276.92999999999995" height="58" fill="#e8e8e8" stroke="#999" stroke-width="2" rx="8"/>
<text x="380.0" y="654.0" text-anchor="middle" fill="#333" font-family="Arial,sans-serif" font-size="12" font-weight="bold">Female names/words (L15)</text>
<text x="380.0" y="672.0" text-anchor="middle" fill="#666" font-family="monospace" font-size="9">L15:F12956 — female names and female-relate</text>
<circle cx="500.4649999999999" cy="649.0" r="9" fill="#ccc"/>
<text x="500.4649999999999" y="653.0" text-anchor="middle" fill="#666" font-family="monospace" font-size="9" font-weight="bold">1</text>
<rect x="244.29000000000002" y="498.0" width="271.41999999999996" height="58" fill="#e8e8e8" stroke="#999" stroke-width="2" rx="8"/>
<text x="380.0" y="516.0" text-anchor="middle" fill="#333" font-family="Arial,sans-serif" font-size="12" font-weight="bold">People with pronouns (L17)</text>
<text x="380.0" y="534.0" text-anchor="middle" fill="#666" font-family="monospace" font-size="9">L17:F5889 —  references to people with pro</text>
<circle cx="497.71000000000004" cy="511.0" r="9" fill="#ccc"/>
<text x="497.71000000000004" y="515.0" text-anchor="middle" fill="#666" font-family="monospace" font-size="9" font-weight="bold">1</text>
<rect x="121.53500000000003" y="332.0" width="276.92999999999995" height="86" fill="#e8e8e8" stroke="#999" stroke-width="2" rx="8"/>
<text x="260.0" y="350.0" text-anchor="middle" fill="#333" font-family="Arial,sans-serif" font-size="12" font-weight="bold">Women/girls mentioned</text>
<text x="260.0" y="364.0" text-anchor="middle" fill="#333" font-family="Arial,sans-serif" font-size="12" font-weight="bold">(L18)</text>
<text x="260.0" y="382.0" text-anchor="middle" fill="#666" font-family="monospace" font-size="9">L18:F14677 —  instances of women or girls b</text>
<text x="260.0" y="396.0" text-anchor="middle" fill="#666" font-family="monospace" font-size="9">L18:F14677 —  instances of women or girls b</text>
<text x="260.0" y="410.0" text-anchor="middle" fill="#666" font-family="monospace" font-size="9">L18:F14677 —  instances of women or girls b</text>
<circle cx="380.465" cy="345.0" r="9" fill="#ccc"/>
<text x="380.465" y="349.0" text-anchor="middle" fill="#666" font-family="monospace" font-size="9" font-weight="bold">3</text>
<rect x="438.4649999999999" y="346.0" width="200" height="58" fill="#e8e8e8" stroke="#999" stroke-width="2" rx="8"/>
<text x="538.4649999999999" y="364.0" text-anchor="middle" fill="#333" font-family="Arial,sans-serif" font-size="12" font-weight="bold">&#x27;He&#x27; detection —</text>
<text x="538.4649999999999" y="378.0" text-anchor="middle" fill="#333" font-family="Arial,sans-serif" font-size="12" font-weight="bold">suppressive (L18)</text>
<text x="538.4649999999999" y="396.0" text-anchor="middle" fill="#666" font-family="monospace" font-size="9">L18:F14743 — He</text>
<circle cx="620.4649999999999" cy="359.0" r="9" fill="#ccc"/>
<text x="620.4649999999999" y="363.0" text-anchor="middle" fill="#666" font-family="monospace" font-size="9" font-weight="bold">1</text>
<rect x="244.29000000000002" y="194.0" width="271.41999999999996" height="58" fill="#e8e8e8" stroke="#999" stroke-width="2" rx="8"/>
<text x="380.0" y="212.0" text-anchor="middle" fill="#333" font-family="Arial,sans-serif" font-size="12" font-weight="bold">Women&#x27;s names &amp;</text>
<text x="380.0" y="226.0" text-anchor="middle" fill="#333" font-family="Arial,sans-serif" font-size="12" font-weight="bold">accomplishments (L19)</text>
<text x="380.0" y="244.0" text-anchor="middle" fill="#666" font-family="monospace" font-size="9">L19:F9685 —  references to women&#x27;s names a</text>
<circle cx="497.71000000000004" cy="207.0" r="9" fill="#ccc"/>
<text x="497.71000000000004" y="211.0" text-anchor="middle" fill="#666" font-family="monospace" font-size="9" font-weight="bold">1</text>
<rect x="269.52" y="70.0" width="220.95999999999998" height="44" fill="#e8e8e8" stroke="#999" stroke-width="2" rx="8"/>
<text x="380.0" y="88.0" text-anchor="middle" fill="#333" font-family="Arial,sans-serif" font-size="12" font-weight="bold">Probe classification score</text>
<text x="380.0" y="102.0" text-anchor="middle" fill="#333" font-family="Arial,sans-serif" font-size="12" font-weight="bold">(nurse)</text>
<circle cx="472.47999999999996" cy="83.0" r="9" fill="#ccc"/>
<text x="472.47999999999996" y="87.0" text-anchor="middle" fill="#666" font-family="monospace" font-size="9" font-weight="bold">0</text>
<line x1="40" y1="1948" x2="1465" y2="1948" stroke="#ddd" stroke-width="1"/>
<text x="40" y="1966" fill="#666" font-family="Arial,sans-serif" font-size="10" font-weight="bold" letter-spacing="1px">PROMPT</text>
<text x="40" y="1984" fill="#333" font-family="monospace" font-size="11">"&lt;bos&gt;Formerly from Hartford, Connecticut, she was one of the first Perioperative nurses in Connecticut to become certifi"</text>
<text x="40" y="2008" fill="#666" font-family="Arial,sans-serif" font-size="10" font-weight="bold" letter-spacing="1px">TOP OUTPUTS</text>
<rect x="40" y="2013" width="100" height="20" fill="#e8e8e8" stroke="none" rx="6"/>
<text x="45" y="2027" fill="#333" font-family="Arial,sans-serif" font-size="11" font-weight="bold">(empty) <tspan fill="#555" font-size="10">100%</tspan></text>
</svg>