<svg width="3177" height="1165" xmlns="http://www.w3.org/2000/svg">
<rect width="3177" height="1165" fill="#f5f5f5"/>
<rect x="15" y="15" width="3147" height="1135" fill="white" stroke="none" rx="12"/>
<text x="40" y="48" fill="#666" font-family="Arial,sans-serif" font-size="14" font-weight="bold" letter-spacing="1px">ATTRIBUTION CIRCUIT</text>
<text x="25" y="96.0" fill="#999" font-family="monospace" font-size="10" font-weight="bold" text-anchor="start">L36</text>
<text x="25" y="227.0" fill="#999" font-family="monospace" font-size="10" font-weight="bold" text-anchor="start">L6</text>
<text x="25" y="365.0" fill="#999" font-family="monospace" font-size="10" font-weight="bold" text-anchor="start">L4</text>
<text x="25" y="503.0" fill="#999" font-family="monospace" font-size="10" font-weight="bold" text-anchor="start">L3</text>
<text x="25" y="641.0" fill="#999" font-family="monospace" font-size="10" font-weight="bold" text-anchor="start">L2</text>
<text x="25" y="779.0" fill="#999" font-family="monospace" font-size="10" font-weight="bold" text-anchor="start">L1</text>
<text x="25" y="931.0" fill="#999" font-family="monospace" font-size="10" font-weight="bold" text-anchor="start">L0</text>
<defs><marker id="arrow" markerWidth="8" markerHeight="6" refX="8" refY="3" orient="auto"><polygon points="0,0 8,3 0,6" fill="#8B4513" fill-opacity="0.7"/></marker></defs>
<path d="M 180.0,905.0 C 210.0,785.5 350.0,785.5 380.0,666.0" fill="none" stroke="#8B4513" stroke-width="3" stroke-opacity="0.6" marker-end="url(#arrow)"/>
<path d="M 1620.0,898.0 C 1434.0,782.0 566.0,782.0 380.0,666.0" fill="none" stroke="#8B4513" stroke-width="3" stroke-opacity="0.6" marker-end="url(#arrow)"/>
<path d="M 380.0,666.0 C 380.0,706.0 380.0,706.0 380.0,746.0" fill="none" stroke="#8B4513" stroke-width="3" stroke-opacity="0.6" marker-end="url(#arrow)"/>
<path d="M 380.0,746.0 C 380.0,706.0 380.0,706.0 380.0,666.0" fill="none" stroke="#8B4513" stroke-width="3" stroke-opacity="0.6" marker-end="url(#arrow)"/>
<path d="M 660.0,905.0 C 618.0,854.5 422.0,854.5 380.0,804.0" fill="none" stroke="#8B4513" stroke-width="3" stroke-opacity="0.6" marker-end="url(#arrow)"/>
<path d="M 420.0,905.0 C 414.0,647.5 386.0,647.5 380.0,390.0" fill="none" stroke="#8B4513" stroke-width="3" stroke-opacity="0.6" marker-end="url(#arrow)"/>
<path d="M 420.0,949.0 C 636.0,923.5 1644.0,923.5 1860.0,898.0" fill="none" stroke="#8B4513" stroke-width="3" stroke-opacity="0.6" marker-end="url(#arrow)"/>
<path d="M 420.0,905.0 C 391.05675,716.5 255.98825000000002,716.5 227.04500000000002,528.0" fill="none" stroke="#8B4513" stroke-width="3" stroke-opacity="0.6" marker-end="url(#arrow)"/>
<path d="M 420.0,905.0 C 414.0,578.5 386.0,578.5 380.0,252.0" fill="none" stroke="#8B4513" stroke-width="3" stroke-opacity="0.6" marker-end="url(#arrow)"/>
<path d="M 227.04500000000002,470.0 C 249.98825000000002,361.0 357.05675,361.0 380.0,252.0" fill="none" stroke="#8B4513" stroke-width="3" stroke-opacity="0.6" marker-end="url(#arrow)"/>
<path d="M 1860.0,898.0 C 1638.0,644.0 602.0,644.0 380.0,390.0" fill="none" stroke="#8B4513" stroke-width="3" stroke-opacity="0.6" marker-end="url(#arrow)"/>
<path d="M 380.0,332.0 C 380.0,292.0 380.0,292.0 380.0,252.0" fill="none" stroke="#8B4513" stroke-width="3" stroke-opacity="0.6" marker-end="url(#arrow)"/>
<path d="M 227.04500000000002,470.0 C 249.98825000000002,430.0 357.05675,430.0 380.0,390.0" fill="none" stroke="#8B4513" stroke-width="3" stroke-opacity="0.6" marker-end="url(#arrow)"/>
<path d="M 227.04500000000002,528.0 C 273.34475000000003,499.0 489.41025,499.0 535.71,470.0" fill="none" stroke="#8B4513" stroke-width="3" stroke-opacity="0.6" marker-end="url(#arrow)"/>
<path d="M 535.71,470.0 C 512.3535,430.0 403.3565,430.0 380.0,390.0" fill="none" stroke="#8B4513" stroke-width="3" stroke-opacity="0.6" marker-end="url(#arrow)"/>
<path d="M 900.0,905.0 C 822.0,647.5 458.0,647.5 380.0,390.0" fill="none" stroke="#8B4513" stroke-width="3" stroke-opacity="0.6" marker-end="url(#arrow)"/>
<path d="M 1140.0,949.0 C 1288.94325,916.5 1984.01175,916.5 2132.955,884.0" fill="none" stroke="#8B4513" stroke-width="3" stroke-opacity="0.6" marker-end="url(#arrow)"/>
<path d="M 1380.0,949.0 C 1533.8865,923.5 2252.0235,923.5 2405.91,898.0" fill="none" stroke="#8B4513" stroke-width="3" stroke-opacity="0.6" marker-end="url(#arrow)"/>
<path d="M 180.0,949.0 C 396.0,923.5 1404.0,923.5 1620.0,898.0" fill="none" stroke="#8B4513" stroke-width="3" stroke-opacity="0.6" marker-end="url(#arrow)"/>
<path d="M 180.0,949.0 C 555.2429999999999,923.5 2306.377,923.5 2681.62,898.0" fill="none" stroke="#8B4513" stroke-width="3" stroke-opacity="0.6" marker-end="url(#arrow)"/>
<path d="M 180.0,905.0 C 210.0,854.5 350.0,854.5 380.0,804.0" fill="none" stroke="#8B4513" stroke-width="3" stroke-opacity="0.6" marker-end="url(#arrow)"/>
<path d="M 1620.0,898.0 C 1434.0,851.0 566.0,851.0 380.0,804.0" fill="none" stroke="#8B4513" stroke-width="3" stroke-opacity="0.6" marker-end="url(#arrow)"/>
<path d="M 2681.62,898.0 C 2336.377,851.0 725.2429999999999,851.0 380.0,804.0" fill="none" stroke="#8B4513" stroke-width="3" stroke-opacity="0.6" marker-end="url(#arrow)"/>
<path d="M 2957.33,905.0 C 2570.7305,854.5 766.5995,854.5 380.0,804.0" fill="none" stroke="#8B4513" stroke-width="3" stroke-opacity="0.6" marker-end="url(#arrow)"/>
<path d="M 380.0,608.0 C 380.0,361.0 380.0,361.0 380.0,114.0" fill="none" stroke="#8B4513" stroke-width="3" stroke-opacity="0.6" marker-end="url(#arrow)"/>
<path d="M 380.0,194.0 C 380.0,154.0 380.0,154.0 380.0,114.0" fill="none" stroke="#8B4513" stroke-width="3" stroke-opacity="0.6" marker-end="url(#arrow)"/>
<path d="M 380.0,332.0 C 380.0,223.0 380.0,223.0 380.0,114.0" fill="none" stroke="#8B4513" stroke-width="3" stroke-opacity="0.6" marker-end="url(#arrow)"/>
<path d="M 380.0,746.0 C 380.0,430.0 380.0,430.0 380.0,114.0" fill="none" stroke="#8B4513" stroke-width="3" stroke-opacity="0.6" marker-end="url(#arrow)"/>
<path d="M 2132.955,884.0 C 1870.01175,499.0 642.94325,499.0 380.0,114.0" fill="none" stroke="#8B4513" stroke-width="3" stroke-opacity="0.6" marker-end="url(#arrow)"/>
<path d="M 2405.91,898.0 C 2102.0235,506.0 683.8865,506.0 380.0,114.0" fill="none" stroke="#8B4513" stroke-width="3" stroke-opacity="0.6" marker-end="url(#arrow)"/>
<rect x="80.0" y="905.0" width="200" height="44" fill="#e8e8e8" stroke="#999" stroke-width="2" rx="8"/>
<text x="180.0" y="923.0" text-anchor="middle" fill="#333" font-family="Arial,sans-serif" font-size="12" font-weight="bold">Emb: &#x27;black&#x27; (pos 32)</text>
<circle cx="262.0" cy="918.0" r="9" fill="#ccc"/>
<text x="262.0" y="922.0" text-anchor="middle" fill="#666" font-family="monospace" font-size="9" font-weight="bold">0</text>
<rect x="320.0" y="905.0" width="200" height="44" fill="#e8e8e8" stroke="#999" stroke-width="2" rx="8"/>
<text x="420.0" y="923.0" text-anchor="middle" fill="#333" font-family="Arial,sans-serif" font-size="12" font-weight="bold">Emb: &#x27;white&#x27; (pos 25)</text>
<circle cx="502.0" cy="918.0" r="9" fill="#ccc"/>
<text x="502.0" y="922.0" text-anchor="middle" fill="#666" font-family="monospace" font-size="9" font-weight="bold">0</text>
<rect x="560.0" y="905.0" width="200" height="44" fill="#e8e8e8" stroke="#999" stroke-width="2" rx="8"/>
<text x="660.0" y="923.0" text-anchor="middle" fill="#333" font-family="Arial,sans-serif" font-size="12" font-weight="bold">Emb: &#x27;white&#x27; (pos 15)</text>
<circle cx="742.0" cy="918.0" r="9" fill="#ccc"/>
<text x="742.0" y="922.0" text-anchor="middle" fill="#666" font-family="monospace" font-size="9" font-weight="bold">0</text>
<rect x="800.0" y="905.0" width="200" height="44" fill="#e8e8e8" stroke="#999" stroke-width="2" rx="8"/>
<text x="900.0" y="923.0" text-anchor="middle" fill="#333" font-family="Arial,sans-serif" font-size="12" font-weight="bold">Emb: &#x27;white&#x27; (pos 24)</text>
<circle cx="982.0" cy="918.0" r="9" fill="#ccc"/>
<text x="982.0" y="922.0" text-anchor="middle" fill="#666" font-family="monospace" font-size="9" font-weight="bold">0</text>
<rect x="1040.0" y="905.0" width="200" height="44" fill="#e8e8e8" stroke="#999" stroke-width="2" rx="8"/>
<text x="1140.0" y="923.0" text-anchor="middle" fill="#333" font-family="Arial,sans-serif" font-size="12" font-weight="bold">Emb: &#x27;clearly&#x27; (pos 2)</text>
<circle cx="1222.0" cy="918.0" r="9" fill="#ccc"/>
<text x="1222.0" y="922.0" text-anchor="middle" fill="#666" font-family="monospace" font-size="9" font-weight="bold">0</text>
<rect x="1280.0" y="905.0" width="200" height="44" fill="#e8e8e8" stroke="#999" stroke-width="2" rx="8"/>
<text x="1380.0" y="923.0" text-anchor="middle" fill="#333" font-family="Arial,sans-serif" font-size="12" font-weight="bold">Emb: &#x27;other&#x27; (pos 14)</text>
<circle cx="1462.0" cy="918.0" r="9" fill="#ccc"/>
<text x="1462.0" y="922.0" text-anchor="middle" fill="#666" font-family="monospace" font-size="9" font-weight="bold">0</text>
<rect x="244.29000000000002" y="608.0" width="271.41999999999996" height="58" fill="#e8e8e8" stroke="#999" stroke-width="2" rx="8"/>
<text x="380.0" y="626.0" text-anchor="middle" fill="#333" font-family="Arial,sans-serif" font-size="12" font-weight="bold">L2:F13158 - Race/Ethnicity</text>
<text x="380.0" y="640.0" text-anchor="middle" fill="#333" font-family="Arial,sans-serif" font-size="12" font-weight="bold">Words</text>
<text x="380.0" y="658.0" text-anchor="middle" fill="#666" font-family="monospace" font-size="9">L2:F13158 —  words about race and ethnicit</text>
<circle cx="497.71000000000004" cy="621.0" r="9" fill="#ccc"/>
<text x="497.71000000000004" y="625.0" text-anchor="middle" fill="#666" font-family="monospace" font-size="9" font-weight="bold">1</text>
<rect x="244.29000000000002" y="746.0" width="271.41999999999996" height="58" fill="#e8e8e8" stroke="#999" stroke-width="2" rx="8"/>
<text x="380.0" y="764.0" text-anchor="middle" fill="#333" font-family="Arial,sans-serif" font-size="12" font-weight="bold">L1:F13646 - Social Justice</text>
<text x="380.0" y="778.0" text-anchor="middle" fill="#333" font-family="Arial,sans-serif" font-size="12" font-weight="bold">Discussion</text>
<text x="380.0" y="796.0" text-anchor="middle" fill="#666" font-family="monospace" font-size="9">L1:F13646 —  text discussing social justic</text>
<circle cx="497.71000000000004" cy="759.0" r="9" fill="#ccc"/>
<text x="497.71000000000004" y="763.0" text-anchor="middle" fill="#666" font-family="monospace" font-size="9" font-weight="bold">1</text>
<rect x="249.8" y="332.0" width="260.4" height="58" fill="#e8e8e8" stroke="#999" stroke-width="2" rx="8"/>
<text x="380.0" y="350.0" text-anchor="middle" fill="#333" font-family="Arial,sans-serif" font-size="12" font-weight="bold">L4:F117 - Race/Racism</text>
<text x="380.0" y="364.0" text-anchor="middle" fill="#333" font-family="Arial,sans-serif" font-size="12" font-weight="bold">Terms</text>
<text x="380.0" y="382.0" text-anchor="middle" fill="#666" font-family="monospace" font-size="9">L4:F117 —  terms related to race, racism</text>
<circle cx="492.2" cy="345.0" r="9" fill="#ccc"/>
<text x="492.2" y="349.0" text-anchor="middle" fill="#666" font-family="monospace" font-size="9" font-weight="bold">1</text>
<rect x="247.04500000000002" y="194.0" width="265.90999999999997" height="58" fill="#e8e8e8" stroke="#999" stroke-width="2" rx="8"/>
<text x="380.0" y="212.0" text-anchor="middle" fill="#333" font-family="Arial,sans-serif" font-size="12" font-weight="bold">L6:F3902 - Race/Ethnicity</text>
<text x="380.0" y="226.0" text-anchor="middle" fill="#333" font-family="Arial,sans-serif" font-size="12" font-weight="bold">Terms</text>
<text x="380.0" y="244.0" text-anchor="middle" fill="#666" font-family="monospace" font-size="9">L6:F3902 —  terms referring to race and e</text>
<circle cx="494.9549999999999" cy="207.0" r="9" fill="#ccc"/>
<text x="494.9549999999999" y="211.0" text-anchor="middle" fill="#666" font-family="monospace" font-size="9" font-weight="bold">1</text>
<rect x="91.33500000000004" y="470.0" width="271.41999999999996" height="58" fill="#e8e8e8" stroke="#999" stroke-width="2" rx="8"/>
<text x="227.04500000000002" y="488.0" text-anchor="middle" fill="#333" font-family="Arial,sans-serif" font-size="12" font-weight="bold">L3:F11768 - White Word</text>
<text x="227.04500000000002" y="502.0" text-anchor="middle" fill="#333" font-family="Arial,sans-serif" font-size="12" font-weight="bold">Detector</text>
<text x="227.04500000000002" y="520.0" text-anchor="middle" fill="#666" font-family="monospace" font-size="9">L3:F11768 —  the word &quot;white&quot; and related </text>
<circle cx="344.755" cy="483.0" r="9" fill="#ccc"/>
<text x="344.755" y="487.0" text-anchor="middle" fill="#666" font-family="monospace" font-size="9" font-weight="bold">1</text>
<rect x="402.75500000000005" y="470.0" width="265.90999999999997" height="58" fill="#e8e8e8" stroke="#999" stroke-width="2" rx="8"/>
<text x="535.71" y="488.0" text-anchor="middle" fill="#333" font-family="Arial,sans-serif" font-size="12" font-weight="bold">L3:F3248 - Racial Identity</text>
<text x="535.71" y="502.0" text-anchor="middle" fill="#333" font-family="Arial,sans-serif" font-size="12" font-weight="bold">Discourse</text>
<text x="535.71" y="520.0" text-anchor="middle" fill="#666" font-family="monospace" font-size="9">L3:F3248 —  words and phrases related to </text>
<circle cx="650.665" cy="483.0" r="9" fill="#ccc"/>
<text x="650.665" y="487.0" text-anchor="middle" fill="#666" font-family="monospace" font-size="9" font-weight="bold">1</text>
<rect x="1520.0" y="898.0" width="200" height="58" fill="#e8e8e8" stroke="#999" stroke-width="2" rx="8"/>
<text x="1620.0" y="916.0" text-anchor="middle" fill="#333" font-family="Arial,sans-serif" font-size="12" font-weight="bold">L0:F1015 - Black Word</text>
<text x="1620.0" y="930.0" text-anchor="middle" fill="#333" font-family="Arial,sans-serif" font-size="12" font-weight="bold">Detector</text>
<text x="1620.0" y="948.0" text-anchor="middle" fill="#666" font-family="monospace" font-size="9">L0:F1015 —  the word &quot;black&quot;</text>
<circle cx="1702.0" cy="911.0" r="9" fill="#ccc"/>
<text x="1702.0" y="915.0" text-anchor="middle" fill="#666" font-family="monospace" font-size="9" font-weight="bold">1</text>
<rect x="1760.0" y="898.0" width="200" height="58" fill="#e8e8e8" stroke="#999" stroke-width="2" rx="8"/>
<text x="1860.0" y="916.0" text-anchor="middle" fill="#333" font-family="Arial,sans-serif" font-size="12" font-weight="bold">L0:F585 - White Word</text>
<text x="1860.0" y="930.0" text-anchor="middle" fill="#333" font-family="Arial,sans-serif" font-size="12" font-weight="bold">Detector</text>
<text x="1860.0" y="948.0" text-anchor="middle" fill="#666" font-family="monospace" font-size="9">L0:F585</text>
<circle cx="1942.0" cy="911.0" r="9" fill="#ccc"/>
<text x="1942.0" y="915.0" text-anchor="middle" fill="#666" font-family="monospace" font-size="9" font-weight="bold">1</text>
<rect x="2000.0" y="884.0" width="265.90999999999997" height="86" fill="#e8e8e8" stroke="#999" stroke-width="2" rx="8"/>
<text x="2132.955" y="902.0" text-anchor="middle" fill="#333" font-family="Arial,sans-serif" font-size="12" font-weight="bold">L0:L1 - &#x27;Clearly&#x27; Word</text>
<text x="2132.955" y="916.0" text-anchor="middle" fill="#333" font-family="Arial,sans-serif" font-size="12" font-weight="bold">Detectors</text>
<text x="2132.955" y="934.0" text-anchor="middle" fill="#666" font-family="monospace" font-size="9">L0:F5707 —  words or phrases related to k</text>
<text x="2132.955" y="948.0" text-anchor="middle" fill="#666" font-family="monospace" font-size="9">L0:F6154 —  uses of &#x27;clearly&#x27; and nearby </text>
<text x="2132.955" y="962.0" text-anchor="middle" fill="#666" font-family="monospace" font-size="9">L1:F2407 —  the word &quot;clearly&quot;</text>
<circle cx="2247.91" cy="897.0" r="9" fill="#ccc"/>
<text x="2247.91" y="901.0" text-anchor="middle" fill="#666" font-family="monospace" font-size="9" font-weight="bold">3</text>
<rect x="2305.91" y="898.0" width="200" height="58" fill="#e8e8e8" stroke="#999" stroke-width="2" rx="8"/>
<text x="2405.91" y="916.0" text-anchor="middle" fill="#333" font-family="Arial,sans-serif" font-size="12" font-weight="bold">L0:F7969 - Other Word</text>
<text x="2405.91" y="930.0" text-anchor="middle" fill="#333" font-family="Arial,sans-serif" font-size="12" font-weight="bold">Detector</text>
<text x="2405.91" y="948.0" text-anchor="middle" fill="#666" font-family="monospace" font-size="9">L0:F7969 —  the word &quot;other&quot;</text>
<circle cx="2487.91" cy="911.0" r="9" fill="#ccc"/>
<text x="2487.91" y="915.0" text-anchor="middle" fill="#666" font-family="monospace" font-size="9" font-weight="bold">1</text>
<rect x="2545.91" y="898.0" width="271.41999999999996" height="58" fill="#e8e8e8" stroke="#999" stroke-width="2" rx="8"/>
<text x="2681.62" y="916.0" text-anchor="middle" fill="#333" font-family="Arial,sans-serif" font-size="12" font-weight="bold">L0:F16013 - Color</text>
<text x="2681.62" y="930.0" text-anchor="middle" fill="#333" font-family="Arial,sans-serif" font-size="12" font-weight="bold">Blue/Graphic Components</text>
<text x="2681.62" y="948.0" text-anchor="middle" fill="#666" font-family="monospace" font-size="9">L0:F16013 —  mentions of the color blue, a</text>
<circle cx="2799.33" cy="911.0" r="9" fill="#ccc"/>
<text x="2799.33" y="915.0" text-anchor="middle" fill="#666" font-family="monospace" font-size="9" font-weight="bold">1</text>
<rect x="2857.33" y="905.0" width="200" height="44" fill="#e8e8e8" stroke="#999" stroke-width="2" rx="8"/>
<text x="2957.33" y="923.0" text-anchor="middle" fill="#333" font-family="Arial,sans-serif" font-size="12" font-weight="bold">Emb: &#x27;America&#x27; (pos</text>
<text x="2957.33" y="937.0" text-anchor="middle" fill="#333" font-family="Arial,sans-serif" font-size="12" font-weight="bold">24,29,30)</text>
<circle cx="3039.33" cy="918.0" r="9" fill="#ccc"/>
<text x="3039.33" y="922.0" text-anchor="middle" fill="#666" font-family="monospace" font-size="9" font-weight="bold">0</text>
<rect x="280.0" y="70.0" width="200" height="44" fill="#e8e8e8" stroke="#999" stroke-width="2" rx="8"/>
<text x="380.0" y="88.0" text-anchor="middle" fill="#333" font-family="Arial,sans-serif" font-size="12" font-weight="bold">OUTPUT: Toxicity Probe</text>
<text x="380.0" y="102.0" text-anchor="middle" fill="#333" font-family="Arial,sans-serif" font-size="12" font-weight="bold">Score</text>
<circle cx="462.0" cy="83.0" r="9" fill="#ccc"/>
<text x="462.0" y="87.0" text-anchor="middle" fill="#666" font-family="monospace" font-size="9" font-weight="bold">0</text>
<line x1="40" y1="1050" x2="3137" y2="1050" stroke="#ddd" stroke-width="1"/>
<text x="40" y="1068" fill="#666" font-family="Arial,sans-serif" font-size="10" font-weight="bold" letter-spacing="1px">PROMPT</text>
<text x="40" y="1086" fill="#333" font-family="monospace" font-size="11">"&lt;bos&gt;tie clearly shows that trump is a bigot and being supported by other white bigots.  they want to make America white"</text>
<text x="40" y="1110" fill="#666" font-family="Arial,sans-serif" font-size="10" font-weight="bold" letter-spacing="1px">TOP OUTPUTS</text>
<rect x="40" y="1115" width="100" height="20" fill="#e8e8e8" stroke="none" rx="6"/>
<text x="45" y="1129" fill="#333" font-family="Arial,sans-serif" font-size="11" font-weight="bold">(empty) <tspan fill="#555" font-size="10">100%</tspan></text>
</svg>