<svg width="2499" height="821" xmlns="http://www.w3.org/2000/svg">
<rect width="2499" height="821" fill="#f5f5f5"/>
<rect x="15" y="15" width="2469" height="791" fill="white" stroke="none" rx="12"/>
<text x="40" y="48" fill="#666" font-family="Arial,sans-serif" font-size="14" font-weight="bold" letter-spacing="1px">ATTRIBUTION CIRCUIT</text>
<text x="25" y="96.0" fill="#999" font-family="monospace" font-size="10" font-weight="bold" text-anchor="start">L36</text>
<text x="25" y="255.0" fill="#999" font-family="monospace" font-size="10" font-weight="bold" text-anchor="start">L9</text>
<text x="25" y="428.0" fill="#999" font-family="monospace" font-size="10" font-weight="bold" text-anchor="start">L1</text>
<text x="25" y="587.0" fill="#999" font-family="monospace" font-size="10" font-weight="bold" text-anchor="start">L0</text>
<defs><marker id="arrow" markerWidth="8" markerHeight="6" refX="8" refY="3" orient="auto"><polygon points="0,0 8,3 0,6" fill="#8B4513" fill-opacity="0.7"/></marker></defs>
<path d="M 180.0,612.0 C 368.08725,579.5 1245.82775,579.5 1433.915,547.0" fill="none" stroke="#8B4513" stroke-width="3" stroke-opacity="0.6" marker-end="url(#arrow)"/>
<path d="M 1433.915,547.0 C 1275.82775,330.5 538.08725,330.5 380.0,114.0" fill="none" stroke="#8B4513" stroke-width="3" stroke-opacity="0.6" marker-end="url(#arrow)"/>
<path d="M 420.0,612.0 C 618.387,576.0 1544.193,576.0 1742.58,540.0" fill="none" stroke="#8B4513" stroke-width="3" stroke-opacity="0.6" marker-end="url(#arrow)"/>
<path d="M 420.0,554.0 C 414.0,507.0 386.0,507.0 380.0,460.0" fill="none" stroke="#8B4513" stroke-width="3" stroke-opacity="0.6" marker-end="url(#arrow)"/>
<path d="M 1742.58,540.0 C 1538.193,327.0 584.387,327.0 380.0,114.0" fill="none" stroke="#8B4513" stroke-width="3" stroke-opacity="0.6" marker-end="url(#arrow)"/>
<path d="M 380.0,388.0 C 380.0,251.0 380.0,251.0 380.0,114.0" fill="none" stroke="#8B4513" stroke-width="3" stroke-opacity="0.6" marker-end="url(#arrow)"/>
<path d="M 670.48,554.0 C 626.908,431.0 423.572,431.0 380.0,308.0" fill="none" stroke="#8B4513" stroke-width="3" stroke-opacity="0.6" marker-end="url(#arrow)"/>
<path d="M 380.0,194.0 C 380.0,154.0 380.0,154.0 380.0,114.0" fill="none" stroke="#8B4513" stroke-width="3" stroke-opacity="0.6" marker-end="url(#arrow)"/>
<path d="M 920.96,612.0 C 1085.957,583.0 1855.943,583.0 2020.94,554.0" fill="none" stroke="#8B4513" stroke-width="3" stroke-opacity="0.6" marker-end="url(#arrow)"/>
<path d="M 2020.94,554.0 C 1774.799,334.0 626.141,334.0 380.0,114.0" fill="none" stroke="#8B4513" stroke-width="3" stroke-opacity="0.6" marker-end="url(#arrow)"/>
<path d="M 1160.96,612.0 C 1327.5785,579.5 2105.1315,579.5 2271.75,547.0" fill="none" stroke="#8B4513" stroke-width="3" stroke-opacity="0.6" marker-end="url(#arrow)"/>
<path d="M 2271.75,547.0 C 1987.9875,330.5 663.7625,330.5 380.0,114.0" fill="none" stroke="#8B4513" stroke-width="3" stroke-opacity="0.6" marker-end="url(#arrow)"/>
<rect x="80.0" y="554.0" width="200" height="58" fill="#e8e8e8" stroke="#999" stroke-width="2" rx="8"/>
<text x="180.0" y="572.0" text-anchor="middle" fill="#333" font-family="Arial,sans-serif" font-size="12" font-weight="bold">Emb: He (pos 1)</text>
<text x="180.0" y="590.0" text-anchor="middle" fill="#666" font-family="monospace" font-size="9">L0:F-1</text>
<circle cx="262.0" cy="567.0" r="9" fill="#ccc"/>
<text x="262.0" y="571.0" text-anchor="middle" fill="#666" font-family="monospace" font-size="9" font-weight="bold">1</text>
<rect x="320.0" y="554.0" width="200" height="58" fill="#e8e8e8" stroke="#999" stroke-width="2" rx="8"/>
<text x="420.0" y="572.0" text-anchor="middle" fill="#333" font-family="Arial,sans-serif" font-size="12" font-weight="bold">Emb: stories (pos 3)</text>
<text x="420.0" y="590.0" text-anchor="middle" fill="#666" font-family="monospace" font-size="9">L0:F-1</text>
<circle cx="502.0" cy="567.0" r="9" fill="#ccc"/>
<text x="502.0" y="571.0" text-anchor="middle" fill="#666" font-family="monospace" font-size="9" font-weight="bold">1</text>
<rect x="560.0" y="554.0" width="220.95999999999998" height="58" fill="#e8e8e8" stroke="#999" stroke-width="2" rx="8"/>
<text x="670.48" y="572.0" text-anchor="middle" fill="#333" font-family="Arial,sans-serif" font-size="12" font-weight="bold">Emb: journalistic (pos 13)</text>
<text x="670.48" y="590.0" text-anchor="middle" fill="#666" font-family="monospace" font-size="9">L0:F-1</text>
<circle cx="762.96" cy="567.0" r="9" fill="#ccc"/>
<text x="762.96" y="571.0" text-anchor="middle" fill="#666" font-family="monospace" font-size="9" font-weight="bold">1</text>
<rect x="820.96" y="554.0" width="200" height="58" fill="#e8e8e8" stroke="#999" stroke-width="2" rx="8"/>
<text x="920.96" y="572.0" text-anchor="middle" fill="#333" font-family="Arial,sans-serif" font-size="12" font-weight="bold">Emb: foreign (pos 20)</text>
<text x="920.96" y="590.0" text-anchor="middle" fill="#666" font-family="monospace" font-size="9">L0:F-1</text>
<circle cx="1002.96" cy="567.0" r="9" fill="#ccc"/>
<text x="1002.96" y="571.0" text-anchor="middle" fill="#666" font-family="monospace" font-size="9" font-weight="bold">1</text>
<rect x="1060.96" y="554.0" width="200" height="58" fill="#e8e8e8" stroke="#999" stroke-width="2" rx="8"/>
<text x="1160.96" y="572.0" text-anchor="middle" fill="#333" font-family="Arial,sans-serif" font-size="12" font-weight="bold">Emb: too (pos 27)</text>
<text x="1160.96" y="590.0" text-anchor="middle" fill="#666" font-family="monospace" font-size="9">L0:F-1</text>
<circle cx="1242.96" cy="567.0" r="9" fill="#ccc"/>
<text x="1242.96" y="571.0" text-anchor="middle" fill="#666" font-family="monospace" font-size="9" font-weight="bold">1</text>
<rect x="1300.96" y="547.0" width="265.90999999999997" height="72" fill="#e8e8e8" stroke="#999" stroke-width="2" rx="8"/>
<text x="1433.915" y="565.0" text-anchor="middle" fill="#333" font-family="Arial,sans-serif" font-size="12" font-weight="bold">Male Pronoun Detection</text>
<text x="1433.915" y="579.0" text-anchor="middle" fill="#333" font-family="Arial,sans-serif" font-size="12" font-weight="bold">(He)</text>
<text x="1433.915" y="597.0" text-anchor="middle" fill="#666" font-family="monospace" font-size="9">L0:F1069 —  references to a male person, </text>
<text x="1433.915" y="611.0" text-anchor="middle" fill="#666" font-family="monospace" font-size="9">L0:F310 —  the pronouns &quot;she&quot;, &quot;her&quot;, an</text>
<circle cx="1548.87" cy="560.0" r="9" fill="#ccc"/>
<text x="1548.87" y="564.0" text-anchor="middle" fill="#666" font-family="monospace" font-size="9" font-weight="bold">2</text>
<rect x="1606.87" y="540.0" width="271.41999999999996" height="86" fill="#e8e8e8" stroke="#999" stroke-width="2" rx="8"/>
<text x="1742.58" y="558.0" text-anchor="middle" fill="#333" font-family="Arial,sans-serif" font-size="12" font-weight="bold">Narrative/Stories</text>
<text x="1742.58" y="572.0" text-anchor="middle" fill="#333" font-family="Arial,sans-serif" font-size="12" font-weight="bold">Detection</text>
<text x="1742.58" y="590.0" text-anchor="middle" fill="#666" font-family="monospace" font-size="9">L0:F61 — the word &quot;stories&quot; sometimes a</text>
<text x="1742.58" y="604.0" text-anchor="middle" fill="#666" font-family="monospace" font-size="9">L0:F14906 —  the word &quot;binding&quot;</text>
<text x="1742.58" y="618.0" text-anchor="middle" fill="#666" font-family="monospace" font-size="9">L0:F11261 —  the word &quot;migration&quot; and word</text>
<circle cx="1860.29" cy="553.0" r="9" fill="#ccc"/>
<text x="1860.29" y="557.0" text-anchor="middle" fill="#666" font-family="monospace" font-size="9" font-weight="bold">3</text>
<rect x="244.29000000000002" y="388.0" width="271.41999999999996" height="72" fill="#e8e8e8" stroke="#999" stroke-width="2" rx="8"/>
<text x="380.0" y="406.0" text-anchor="middle" fill="#333" font-family="Arial,sans-serif" font-size="12" font-weight="bold">Stories Abstraction (L1)</text>
<text x="380.0" y="424.0" text-anchor="middle" fill="#666" font-family="monospace" font-size="9">L1:F14812 —  references to stories, chapte</text>
<text x="380.0" y="438.0" text-anchor="middle" fill="#666" font-family="monospace" font-size="9">L1:F16233 — the word &quot;tips&quot; and the word &quot;</text>
<circle cx="497.71000000000004" cy="401.0" r="9" fill="#ccc"/>
<text x="497.71000000000004" y="405.0" text-anchor="middle" fill="#666" font-family="monospace" font-size="9" font-weight="bold">2</text>
<rect x="244.29000000000002" y="194.0" width="271.41999999999996" height="114" fill="#e8e8e8" stroke="#999" stroke-width="2" rx="8"/>
<text x="380.0" y="212.0" text-anchor="middle" fill="#333" font-family="Arial,sans-serif" font-size="12" font-weight="bold">Journalism Media Chain</text>
<text x="380.0" y="226.0" text-anchor="middle" fill="#333" font-family="Arial,sans-serif" font-size="12" font-weight="bold">(L4-L14)</text>
<text x="380.0" y="244.0" text-anchor="middle" fill="#666" font-family="monospace" font-size="9">L4:F13253 —  things related to journalism </text>
<text x="380.0" y="258.0" text-anchor="middle" fill="#666" font-family="monospace" font-size="9">L7:F9092 —  words and phrases associated </text>
<text x="380.0" y="272.0" text-anchor="middle" fill="#666" font-family="monospace" font-size="9">L8:F8437 — content related to film festiv</text>
<text x="380.0" y="286.0" text-anchor="middle" fill="#666" font-family="monospace" font-size="9">L9:F7435 —  words and phrases related to </text>
<text x="380.0" y="300.0" text-anchor="middle" fill="#666" font-family="monospace" font-size="9">... +1 more</text>
<circle cx="497.71000000000004" cy="207.0" r="9" fill="#ccc"/>
<text x="497.71000000000004" y="211.0" text-anchor="middle" fill="#666" font-family="monospace" font-size="9" font-weight="bold">5</text>
<rect x="1918.29" y="554.0" width="205.29999999999998" height="58" fill="#e8e8e8" stroke="#999" stroke-width="2" rx="8"/>
<text x="2020.94" y="572.0" text-anchor="middle" fill="#333" font-family="Arial,sans-serif" font-size="12" font-weight="bold">Foreign Word Detector</text>
<text x="2020.94" y="590.0" text-anchor="middle" fill="#666" font-family="monospace" font-size="9">L0:F2711 — the word &quot;foreign.&quot;</text>
<circle cx="2105.59" cy="567.0" r="9" fill="#ccc"/>
<text x="2105.59" y="571.0" text-anchor="middle" fill="#666" font-family="monospace" font-size="9" font-weight="bold">1</text>
<rect x="2163.59" y="547.0" width="216.32" height="72" fill="#e8e8e8" stroke="#999" stroke-width="2" rx="8"/>
<text x="2271.75" y="565.0" text-anchor="middle" fill="#333" font-family="Arial,sans-serif" font-size="12" font-weight="bold">Grammar Markers (too, in)</text>
<text x="2271.75" y="583.0" text-anchor="middle" fill="#666" font-family="monospace" font-size="9">L0:F11603 —  the word &quot;too&quot;</text>
<text x="2271.75" y="597.0" text-anchor="middle" fill="#666" font-family="monospace" font-size="9">L0:F8061 —  the preposition &quot;in&quot;</text>
<circle cx="2361.9100000000003" cy="560.0" r="9" fill="#ccc"/>
<text x="2361.9100000000003" y="564.0" text-anchor="middle" fill="#666" font-family="monospace" font-size="9" font-weight="bold">2</text>
<rect x="280.0" y="70.0" width="200" height="44" fill="#e8e8e8" stroke="#999" stroke-width="2" rx="8"/>
<text x="380.0" y="88.0" text-anchor="middle" fill="#333" font-family="Arial,sans-serif" font-size="12" font-weight="bold">Probe Direction Output</text>
<circle cx="462.0" cy="83.0" r="9" fill="#ccc"/>
<text x="462.0" y="87.0" text-anchor="middle" fill="#666" font-family="monospace" font-size="9" font-weight="bold">0</text>
<line x1="40" y1="706" x2="2459" y2="706" stroke="#ddd" stroke-width="1"/>
<text x="40" y="724" fill="#666" font-family="Arial,sans-serif" font-size="10" font-weight="bold" letter-spacing="1px">PROMPT</text>
<text x="40" y="742" fill="#333" font-family="monospace" font-size="11">"&lt;bos&gt;He researches stories and at the same time represents the country in journalistic circles. When, on a foreign broad"</text>
<text x="40" y="766" fill="#666" font-family="Arial,sans-serif" font-size="10" font-weight="bold" letter-spacing="1px">TOP OUTPUTS</text>
<rect x="40" y="771" width="100" height="20" fill="#e8e8e8" stroke="none" rx="6"/>
<text x="45" y="785" fill="#333" font-family="Arial,sans-serif" font-size="11" font-weight="bold">(empty) <tspan fill="#555" font-size="10">100%</tspan></text>
</svg>