<svg width="1693" height="1845" xmlns="http://www.w3.org/2000/svg">
<rect width="1693" height="1845" fill="#f5f5f5"/>
<rect x="15" y="15" width="1663" height="1815" fill="white" stroke="none" rx="12"/>
<text x="40" y="48" fill="#666" font-family="Arial,sans-serif" font-size="14" font-weight="bold" letter-spacing="1px">ATTRIBUTION CIRCUIT</text>
<text x="25" y="96.0" fill="#999" font-family="monospace" font-size="10" font-weight="bold" text-anchor="start">L36</text>
<text x="25" y="234.0" fill="#999" font-family="monospace" font-size="10" font-weight="bold" text-anchor="start">L19</text>
<text x="25" y="400.0" fill="#999" font-family="monospace" font-size="10" font-weight="bold" text-anchor="start">L18</text>
<text x="25" y="566.0" fill="#999" font-family="monospace" font-size="10" font-weight="bold" text-anchor="start">L16</text>
<text x="25" y="725.0" fill="#999" font-family="monospace" font-size="10" font-weight="bold" text-anchor="start">L11</text>
<text x="25" y="891.0" fill="#999" font-family="monospace" font-size="10" font-weight="bold" text-anchor="start">L6</text>
<text x="25" y="1050.0" fill="#999" font-family="monospace" font-size="10" font-weight="bold" text-anchor="start">L5</text>
<text x="25" y="1216.0" fill="#999" font-family="monospace" font-size="10" font-weight="bold" text-anchor="start">L4</text>
<text x="25" y="1403.0" fill="#999" font-family="monospace" font-size="10" font-weight="bold" text-anchor="start">L2</text>
<text x="25" y="1597.0" fill="#999" font-family="monospace" font-size="10" font-weight="bold" text-anchor="start">L0</text>
<defs><marker id="arrow" markerWidth="8" markerHeight="6" refX="8" refY="3" orient="auto"><polygon points="0,0 8,3 0,6" fill="#8B4513" fill-opacity="0.7"/></marker></defs>
<path d="M 180.0,1615.0 C 369.15524999999997,1575.5 1251.8797499999998,1575.5 1441.0349999999999,1536.0" fill="none" stroke="#8B4513" stroke-width="3" stroke-opacity="0.6" marker-end="url(#arrow)"/>
<path d="M 420.0,1615.0 C 573.15525,1575.5 1287.8797499999998,1575.5 1441.0349999999999,1536.0" fill="none" stroke="#8B4513" stroke-width="3" stroke-opacity="0.6" marker-end="url(#arrow)"/>
<path d="M 180.0,1571.0 C 210.0,1416.5 350.0,1416.5 380.0,1262.0" fill="none" stroke="#8B4513" stroke-width="3" stroke-opacity="0.6" marker-end="url(#arrow)"/>
<path d="M 180.0,1571.0 C 277.1295,1250.5 730.4005,1250.5 827.53,930.0" fill="none" stroke="#8B4513" stroke-width="3" stroke-opacity="0.6" marker-end="url(#arrow)"/>
<path d="M 180.0,1571.0 C 210.0,1008.5 350.0,1008.5 380.0,446.0" fill="none" stroke="#8B4513" stroke-width="3" stroke-opacity="0.6" marker-end="url(#arrow)"/>
<path d="M 420.0,1571.0 C 414.0,1008.5 386.0,1008.5 380.0,446.0" fill="none" stroke="#8B4513" stroke-width="3" stroke-opacity="0.6" marker-end="url(#arrow)"/>
<path d="M 1441.0349999999999,1536.0 C 1281.8797499999998,1399.0 539.15525,1399.0 380.0,1262.0" fill="none" stroke="#8B4513" stroke-width="3" stroke-opacity="0.6" marker-end="url(#arrow)"/>
<path d="M 1441.0349999999999,1536.0 C 1349.0092499999998,1233.0 919.55575,1233.0 827.53,930.0" fill="none" stroke="#8B4513" stroke-width="3" stroke-opacity="0.6" marker-end="url(#arrow)"/>
<path d="M 1441.0349999999999,1536.0 C 1281.8797499999998,1067.0 539.15525,1067.0 380.0,598.0" fill="none" stroke="#8B4513" stroke-width="3" stroke-opacity="0.6" marker-end="url(#arrow)"/>
<path d="M 380.0,1162.0 C 447.1295,1046.0 760.4005,1046.0 827.53,930.0" fill="none" stroke="#8B4513" stroke-width="3" stroke-opacity="0.6" marker-end="url(#arrow)"/>
<path d="M 380.0,1162.0 C 380.0,963.0 380.0,963.0 380.0,764.0" fill="none" stroke="#8B4513" stroke-width="3" stroke-opacity="0.6" marker-end="url(#arrow)"/>
<path d="M 827.53,844.0 C 760.4005,804.0 447.1295,804.0 380.0,764.0" fill="none" stroke="#8B4513" stroke-width="3" stroke-opacity="0.6" marker-end="url(#arrow)"/>
<path d="M 380.0,678.0 C 380.0,562.0 380.0,562.0 380.0,446.0" fill="none" stroke="#8B4513" stroke-width="3" stroke-opacity="0.6" marker-end="url(#arrow)"/>
<path d="M 827.53,844.0 C 760.4005,645.0 447.1295,645.0 380.0,446.0" fill="none" stroke="#8B4513" stroke-width="3" stroke-opacity="0.6" marker-end="url(#arrow)"/>
<path d="M 380.0,526.0 C 380.0,486.0 380.0,486.0 380.0,446.0" fill="none" stroke="#8B4513" stroke-width="3" stroke-opacity="0.6" marker-end="url(#arrow)"/>
<path d="M 380.0,678.0 C 380.0,638.0 380.0,638.0 380.0,598.0" fill="none" stroke="#8B4513" stroke-width="3" stroke-opacity="0.6" marker-end="url(#arrow)"/>
<path d="M 660.04,1571.0 C 595.09075,1513.5 291.99425,1513.5 227.04500000000002,1456.0" fill="none" stroke="#8B4513" stroke-width="3" stroke-opacity="0.6" marker-end="url(#arrow)"/>
<path d="M 227.04500000000002,1342.0 C 249.98825000000002,1212.0 357.05675,1212.0 380.0,1082.0" fill="none" stroke="#8B4513" stroke-width="3" stroke-opacity="0.6" marker-end="url(#arrow)"/>
<path d="M 660.04,1571.0 C 618.034,1326.5 422.006,1326.5 380.0,1082.0" fill="none" stroke="#8B4513" stroke-width="3" stroke-opacity="0.6" marker-end="url(#arrow)"/>
<path d="M 380.0,1010.0 C 355.3565,963.0 240.3535,963.0 215.70999999999998,916.0" fill="none" stroke="#8B4513" stroke-width="3" stroke-opacity="0.6" marker-end="url(#arrow)"/>
<path d="M 660.04,1571.0 C 593.3905,1243.5 282.35949999999997,1243.5 215.70999999999998,916.0" fill="none" stroke="#8B4513" stroke-width="3" stroke-opacity="0.6" marker-end="url(#arrow)"/>
<path d="M 227.04500000000002,1342.0 C 225.34475,1129.0 217.41025,1129.0 215.70999999999998,916.0" fill="none" stroke="#8B4513" stroke-width="3" stroke-opacity="0.6" marker-end="url(#arrow)"/>
<path d="M 660.04,1571.0 C 639.2769999999999,1243.5 542.3829999999999,1243.5 521.6199999999999,916.0" fill="none" stroke="#8B4513" stroke-width="3" stroke-opacity="0.6" marker-end="url(#arrow)"/>
<path d="M 1157.6,1571.0 C 1064.3165,1503.0 628.9935,1503.0 535.71,1435.0" fill="none" stroke="#8B4513" stroke-width="3" stroke-opacity="0.6" marker-end="url(#arrow)"/>
<path d="M 535.71,1363.0 C 512.3535,1312.5 403.3565,1312.5 380.0,1262.0" fill="none" stroke="#8B4513" stroke-width="3" stroke-opacity="0.6" marker-end="url(#arrow)"/>
<path d="M 180.0,1571.0 C 233.3565,1503.0 482.35350000000005,1503.0 535.71,1435.0" fill="none" stroke="#8B4513" stroke-width="3" stroke-opacity="0.6" marker-end="url(#arrow)"/>
<path d="M 380.0,1162.0 C 380.0,714.0 380.0,714.0 380.0,266.0" fill="none" stroke="#8B4513" stroke-width="3" stroke-opacity="0.6" marker-end="url(#arrow)"/>
<path d="M 1157.6,1571.0 C 1040.96,918.5 496.64,918.5 380.0,266.0" fill="none" stroke="#8B4513" stroke-width="3" stroke-opacity="0.6" marker-end="url(#arrow)"/>
<path d="M 1138.9499999999998,844.0 C 1025.1074999999998,479.0 493.8425,479.0 380.0,114.0" fill="none" stroke="#8B4513" stroke-width="3" stroke-opacity="0.6" marker-end="url(#arrow)"/>
<path d="M 827.53,844.0 C 760.4005,479.0 447.1295,479.0 380.0,114.0" fill="none" stroke="#8B4513" stroke-width="3" stroke-opacity="0.6" marker-end="url(#arrow)"/>
<path d="M 215.70999999999998,858.0 C 240.3535,486.0 355.3565,486.0 380.0,114.0" fill="none" stroke="#8B4513" stroke-width="3" stroke-opacity="0.6" marker-end="url(#arrow)"/>
<path d="M 521.6199999999999,858.0 C 500.3769999999999,486.0 401.243,486.0 380.0,114.0" fill="none" stroke="#8B4513" stroke-width="3" stroke-opacity="0.6" marker-end="url(#arrow)"/>
<path d="M 380.0,1162.0 C 380.0,638.0 380.0,638.0 380.0,114.0" fill="none" stroke="#8B4513" stroke-width="3" stroke-opacity="0.6" marker-end="url(#arrow)"/>
<path d="M 380.0,678.0 C 380.0,396.0 380.0,396.0 380.0,114.0" fill="none" stroke="#8B4513" stroke-width="3" stroke-opacity="0.6" marker-end="url(#arrow)"/>
<path d="M 380.0,346.0 C 380.0,230.0 380.0,230.0 380.0,114.0" fill="none" stroke="#8B4513" stroke-width="3" stroke-opacity="0.6" marker-end="url(#arrow)"/>
<path d="M 380.0,194.0 C 380.0,154.0 380.0,154.0 380.0,114.0" fill="none" stroke="#8B4513" stroke-width="3" stroke-opacity="0.6" marker-end="url(#arrow)"/>
<path d="M 903.5999999999999,1571.0 C 825.06,1167.5 458.53999999999996,1167.5 380.0,764.0" fill="none" stroke="#8B4513" stroke-width="3" stroke-opacity="0.6" marker-end="url(#arrow)"/>
<rect x="80.0" y="1571.0" width="200" height="44" fill="#e8e8e8" stroke="#999" stroke-width="2" rx="8"/>
<text x="180.0" y="1589.0" text-anchor="middle" fill="#333" font-family="Arial,sans-serif" font-size="12" font-weight="bold">Emb: &#x27;She&#x27; (pos 1)</text>
<circle cx="262.0" cy="1584.0" r="9" fill="#ccc"/>
<text x="262.0" y="1588.0" text-anchor="middle" fill="#666" font-family="monospace" font-size="9" font-weight="bold">0</text>
<rect x="320.0" y="1571.0" width="200" height="44" fill="#e8e8e8" stroke="#999" stroke-width="2" rx="8"/>
<text x="420.0" y="1589.0" text-anchor="middle" fill="#333" font-family="Arial,sans-serif" font-size="12" font-weight="bold">Emb: &#x27;She&#x27; (pos 19)</text>
<circle cx="502.0" cy="1584.0" r="9" fill="#ccc"/>
<text x="502.0" y="1588.0" text-anchor="middle" fill="#666" font-family="monospace" font-size="9" font-weight="bold">0</text>
<rect x="560.0" y="1571.0" width="200.07999999999998" height="44" fill="#e8e8e8" stroke="#999" stroke-width="2" rx="8"/>
<text x="660.04" y="1589.0" text-anchor="middle" fill="#333" font-family="Arial,sans-serif" font-size="12" font-weight="bold">Emb: &#x27;Nursing&#x27; (pos 10)</text>
<circle cx="742.0799999999999" cy="1584.0" r="9" fill="#ccc"/>
<text x="742.0799999999999" y="1588.0" text-anchor="middle" fill="#666" font-family="monospace" font-size="9" font-weight="bold">0</text>
<rect x="800.0799999999999" y="1571.0" width="207.04" height="44" fill="#e8e8e8" stroke="#999" stroke-width="2" rx="8"/>
<text x="903.5999999999999" y="1589.0" text-anchor="middle" fill="#333" font-family="Arial,sans-serif" font-size="12" font-weight="bold">Emb: &#x27;graduated&#x27; (pos 2)</text>
<circle cx="989.1199999999999" cy="1584.0" r="9" fill="#ccc"/>
<text x="989.1199999999999" y="1588.0" text-anchor="middle" fill="#666" font-family="monospace" font-size="9" font-weight="bold">0</text>
<rect x="1047.12" y="1571.0" width="220.95999999999998" height="44" fill="#e8e8e8" stroke="#999" stroke-width="2" rx="8"/>
<text x="1157.6" y="1589.0" text-anchor="middle" fill="#333" font-family="Arial,sans-serif" font-size="12" font-weight="bold">Emb: &#x27;Kayte&#x27; (pos 139-140)</text>
<circle cx="1250.08" cy="1584.0" r="9" fill="#ccc"/>
<text x="1250.08" y="1588.0" text-anchor="middle" fill="#666" font-family="monospace" font-size="9" font-weight="bold">0</text>
<rect x="1308.08" y="1536.0" width="265.90999999999997" height="114" fill="#e8e8e8" stroke="#999" stroke-width="2" rx="8"/>
<text x="1441.0349999999999" y="1554.0" text-anchor="middle" fill="#333" font-family="Arial,sans-serif" font-size="12" font-weight="bold">Early Gender Detectors</text>
<text x="1441.0349999999999" y="1568.0" text-anchor="middle" fill="#333" font-family="Arial,sans-serif" font-size="12" font-weight="bold">(L0-L1): pronoun</text>
<text x="1441.0349999999999" y="1582.0" text-anchor="middle" fill="#333" font-family="Arial,sans-serif" font-size="12" font-weight="bold">&#x27;she&#x27;/&#x27;her&#x27; features</text>
<text x="1441.0349999999999" y="1600.0" text-anchor="middle" fill="#666" font-family="monospace" font-size="9">L0:F15382 — mentions of a female person.</text>
<text x="1441.0349999999999" y="1614.0" text-anchor="middle" fill="#666" font-family="monospace" font-size="9">L0:F9519 —  the pronoun &quot;she&quot; and the pos</text>
<text x="1441.0349999999999" y="1628.0" text-anchor="middle" fill="#666" font-family="monospace" font-size="9">L0:F15382 — mentions of a female person.</text>
<text x="1441.0349999999999" y="1642.0" text-anchor="middle" fill="#666" font-family="monospace" font-size="9">L0:F9519 —  the pronoun &quot;she&quot; and the pos</text>
<text x="1441.0349999999999" y="1656.0" text-anchor="middle" fill="#666" font-family="monospace" font-size="9">... +1 more</text>
<circle cx="1555.9899999999998" cy="1549.0" r="9" fill="#ccc"/>
<text x="1555.9899999999998" y="1553.0" text-anchor="middle" fill="#666" font-family="monospace" font-size="9" font-weight="bold">5</text>
<rect x="91.33500000000004" y="1342.0" width="271.41999999999996" height="114" fill="#e8e8e8" stroke="#999" stroke-width="2" rx="8"/>
<text x="227.04500000000002" y="1360.0" text-anchor="middle" fill="#333" font-family="Arial,sans-serif" font-size="12" font-weight="bold">Early Nursing/Academic</text>
<text x="227.04500000000002" y="1374.0" text-anchor="middle" fill="#333" font-family="Arial,sans-serif" font-size="12" font-weight="bold">Pipeline (L1-L3): academic</text>
<text x="227.04500000000002" y="1388.0" text-anchor="middle" fill="#333" font-family="Arial,sans-serif" font-size="12" font-weight="bold">programs, nursing, degrees</text>
<text x="227.04500000000002" y="1406.0" text-anchor="middle" fill="#666" font-family="monospace" font-size="9">L1:F10429 —  words related to academic pro</text>
<text x="227.04500000000002" y="1420.0" text-anchor="middle" fill="#666" font-family="monospace" font-size="9">L1:F12372 —  mentions of US universities a</text>
<text x="227.04500000000002" y="1434.0" text-anchor="middle" fill="#666" font-family="monospace" font-size="9">L2:F10852 —  academic titles and degrees</text>
<text x="227.04500000000002" y="1448.0" text-anchor="middle" fill="#666" font-family="monospace" font-size="9">L2:F9995 —  terms related to occupations </text>
<text x="227.04500000000002" y="1462.0" text-anchor="middle" fill="#666" font-family="monospace" font-size="9">... +2 more</text>
<circle cx="344.755" cy="1355.0" r="9" fill="#ccc"/>
<text x="344.755" y="1359.0" text-anchor="middle" fill="#666" font-family="monospace" font-size="9" font-weight="bold">6</text>
<rect x="402.75500000000005" y="1363.0" width="265.90999999999997" height="72" fill="#e8e8e8" stroke="#999" stroke-width="2" rx="8"/>
<text x="535.71" y="1381.0" text-anchor="middle" fill="#333" font-family="Arial,sans-serif" font-size="12" font-weight="bold">Female Name Detection</text>
<text x="535.71" y="1395.0" text-anchor="middle" fill="#333" font-family="Arial,sans-serif" font-size="12" font-weight="bold">(L2): first names (mostly</text>
<text x="535.71" y="1409.0" text-anchor="middle" fill="#333" font-family="Arial,sans-serif" font-size="12" font-weight="bold">female)</text>
<text x="535.71" y="1427.0" text-anchor="middle" fill="#666" font-family="monospace" font-size="9">L2:F5859 —  first names (mostly female)</text>
<text x="535.71" y="1441.0" text-anchor="middle" fill="#666" font-family="monospace" font-size="9">L2:F7672 —  mentions of women by name and</text>
<circle cx="650.665" cy="1376.0" r="9" fill="#ccc"/>
<text x="650.665" y="1380.0" text-anchor="middle" fill="#666" font-family="monospace" font-size="9" font-weight="bold">2</text>
<rect x="244.29000000000002" y="1162.0" width="271.41999999999996" height="100" fill="#e8e8e8" stroke="#999" stroke-width="2" rx="8"/>
<text x="380.0" y="1180.0" text-anchor="middle" fill="#333" font-family="Arial,sans-serif" font-size="12" font-weight="bold">Mid-Layer Gender Features</text>
<text x="380.0" y="1194.0" text-anchor="middle" fill="#333" font-family="Arial,sans-serif" font-size="12" font-weight="bold">(L4): female-biased</text>
<text x="380.0" y="1208.0" text-anchor="middle" fill="#333" font-family="Arial,sans-serif" font-size="12" font-weight="bold">entity/pronoun features</text>
<text x="380.0" y="1226.0" text-anchor="middle" fill="#666" font-family="monospace" font-size="9">L4:F15317 —  named entities like character</text>
<text x="380.0" y="1240.0" text-anchor="middle" fill="#666" font-family="monospace" font-size="9">L4:F7864 — xml or source code snippets, e</text>
<text x="380.0" y="1254.0" text-anchor="middle" fill="#666" font-family="monospace" font-size="9">L4:F1276 — capitalized names and titles, </text>
<text x="380.0" y="1268.0" text-anchor="middle" fill="#666" font-family="monospace" font-size="9">L4:F1302 —  parts of names or titles, som</text>
<circle cx="497.71000000000004" cy="1175.0" r="9" fill="#ccc"/>
<text x="497.71000000000004" y="1179.0" text-anchor="middle" fill="#666" font-family="monospace" font-size="9" font-weight="bold">4</text>
<rect x="244.29000000000002" y="1010.0" width="271.41999999999996" height="72" fill="#e8e8e8" stroke="#999" stroke-width="2" rx="8"/>
<text x="380.0" y="1028.0" text-anchor="middle" fill="#333" font-family="Arial,sans-serif" font-size="12" font-weight="bold">Mid-Layer Profession</text>
<text x="380.0" y="1042.0" text-anchor="middle" fill="#333" font-family="Arial,sans-serif" font-size="12" font-weight="bold">Features (L4-L5): allied</text>
<text x="380.0" y="1056.0" text-anchor="middle" fill="#333" font-family="Arial,sans-serif" font-size="12" font-weight="bold">health, healthcare</text>
<text x="380.0" y="1070.0" text-anchor="middle" fill="#333" font-family="Arial,sans-serif" font-size="12" font-weight="bold">professionals</text>
<text x="380.0" y="1088.0" text-anchor="middle" fill="#666" font-family="monospace" font-size="9">L4:F11037 —  words related to counseling, </text>
<text x="380.0" y="1102.0" text-anchor="middle" fill="#666" font-family="monospace" font-size="9">L5:F1275 — words related to healthcare pr</text>
<circle cx="497.71000000000004" cy="1023.0" r="9" fill="#ccc"/>
<text x="497.71000000000004" y="1027.0" text-anchor="middle" fill="#666" font-family="monospace" font-size="9" font-weight="bold">2</text>
<rect x="80.0" y="858.0" width="271.41999999999996" height="58" fill="#e8e8e8" stroke="#999" stroke-width="2" rx="8"/>
<text x="215.70999999999998" y="876.0" text-anchor="middle" fill="#333" font-family="Arial,sans-serif" font-size="12" font-weight="bold">Nursing Profession Feature</text>
<text x="215.70999999999998" y="890.0" text-anchor="middle" fill="#333" font-family="Arial,sans-serif" font-size="12" font-weight="bold">(L6:15267): &#x27;words</text>
<text x="215.70999999999998" y="904.0" text-anchor="middle" fill="#333" font-family="Arial,sans-serif" font-size="12" font-weight="bold">referring to profession of</text>
<text x="215.70999999999998" y="918.0" text-anchor="middle" fill="#333" font-family="Arial,sans-serif" font-size="12" font-weight="bold">nursing&#x27;</text>
<text x="215.70999999999998" y="936.0" text-anchor="middle" fill="#666" font-family="monospace" font-size="9">L6:F15267 —  words in the document referri</text>
<circle cx="333.41999999999996" cy="871.0" r="9" fill="#ccc"/>
<text x="333.41999999999996" y="875.0" text-anchor="middle" fill="#666" font-family="monospace" font-size="9" font-weight="bold">1</text>
<rect x="391.4199999999999" y="858.0" width="260.4" height="58" fill="#e8e8e8" stroke="#999" stroke-width="2" rx="8"/>
<text x="521.6199999999999" y="876.0" text-anchor="middle" fill="#333" font-family="Arial,sans-serif" font-size="12" font-weight="bold">Academic Fields Feature</text>
<text x="521.6199999999999" y="890.0" text-anchor="middle" fill="#333" font-family="Arial,sans-serif" font-size="12" font-weight="bold">(L6:170): &#x27;references to</text>
<text x="521.6199999999999" y="904.0" text-anchor="middle" fill="#333" font-family="Arial,sans-serif" font-size="12" font-weight="bold">academic fields&#x27;</text>
<text x="521.6199999999999" y="922.0" text-anchor="middle" fill="#666" font-family="monospace" font-size="9">L6:F170 —  references to academic fields</text>
<circle cx="633.8199999999999" cy="871.0" r="9" fill="#ccc"/>
<text x="633.8199999999999" y="875.0" text-anchor="middle" fill="#666" font-family="monospace" font-size="9" font-weight="bold">1</text>
<rect x="691.8199999999999" y="844.0" width="271.41999999999996" height="86" fill="#e8e8e8" stroke="#999" stroke-width="2" rx="8"/>
<text x="827.53" y="862.0" text-anchor="middle" fill="#333" font-family="Arial,sans-serif" font-size="12" font-weight="bold">Women Reference Features</text>
<text x="827.53" y="876.0" text-anchor="middle" fill="#333" font-family="Arial,sans-serif" font-size="12" font-weight="bold">(L6:11646): &#x27;references to</text>
<text x="827.53" y="890.0" text-anchor="middle" fill="#333" font-family="Arial,sans-serif" font-size="12" font-weight="bold">women via pronouns/titles&#x27;</text>
<text x="827.53" y="908.0" text-anchor="middle" fill="#666" font-family="monospace" font-size="9">L6:F11646 —  references to women, potentia</text>
<text x="827.53" y="922.0" text-anchor="middle" fill="#666" font-family="monospace" font-size="9">L6:F11646 —  references to women, potentia</text>
<text x="827.53" y="936.0" text-anchor="middle" fill="#666" font-family="monospace" font-size="9">L6:F11646 —  references to women, potentia</text>
<circle cx="945.2399999999999" cy="857.0" r="9" fill="#ccc"/>
<text x="945.2399999999999" y="861.0" text-anchor="middle" fill="#666" font-family="monospace" font-size="9" font-weight="bold">3</text>
<rect x="1003.2399999999998" y="844.0" width="271.41999999999996" height="86" fill="#e8e8e8" stroke="#999" stroke-width="2" rx="8"/>
<text x="1138.9499999999998" y="862.0" text-anchor="middle" fill="#333" font-family="Arial,sans-serif" font-size="12" font-weight="bold">Female Name Features</text>
<text x="1138.9499999999998" y="876.0" text-anchor="middle" fill="#333" font-family="Arial,sans-serif" font-size="12" font-weight="bold">(L6:8166, L6:16329):</text>
<text x="1138.9499999999998" y="890.0" text-anchor="middle" fill="#333" font-family="Arial,sans-serif" font-size="12" font-weight="bold">name-based gender signals</text>
<text x="1138.9499999999998" y="908.0" text-anchor="middle" fill="#666" font-family="monospace" font-size="9">L6:F8166 —  proper names longer than 4 ch</text>
<text x="1138.9499999999998" y="922.0" text-anchor="middle" fill="#666" font-family="monospace" font-size="9">L6:F16329 — female first names and their p</text>
<text x="1138.9499999999998" y="936.0" text-anchor="middle" fill="#666" font-family="monospace" font-size="9">L6:F16329 — female first names and their p</text>
<circle cx="1256.6599999999999" cy="857.0" r="9" fill="#ccc"/>
<text x="1256.6599999999999" y="861.0" text-anchor="middle" fill="#666" font-family="monospace" font-size="9" font-weight="bold">3</text>
<rect x="241.53500000000003" y="678.0" width="276.92999999999995" height="86" fill="#e8e8e8" stroke="#999" stroke-width="2" rx="8"/>
<text x="380.0" y="696.0" text-anchor="middle" fill="#333" font-family="Arial,sans-serif" font-size="12" font-weight="bold">Mid-Layer Gender Cascade</text>
<text x="380.0" y="710.0" text-anchor="middle" fill="#333" font-family="Arial,sans-serif" font-size="12" font-weight="bold">(L10-L12): female</text>
<text x="380.0" y="724.0" text-anchor="middle" fill="#333" font-family="Arial,sans-serif" font-size="12" font-weight="bold">pronouns, women terms</text>
<text x="380.0" y="742.0" text-anchor="middle" fill="#666" font-family="monospace" font-size="9">L10:F14965 —  terms relating to women</text>
<text x="380.0" y="756.0" text-anchor="middle" fill="#666" font-family="monospace" font-size="9">L12:F12940 — references to female pronouns </text>
<text x="380.0" y="770.0" text-anchor="middle" fill="#666" font-family="monospace" font-size="9">L12:F5722 —  references to people using pe</text>
<circle cx="500.4649999999999" cy="691.0" r="9" fill="#ccc"/>
<text x="500.4649999999999" y="695.0" text-anchor="middle" fill="#666" font-family="monospace" font-size="9" font-weight="bold">3</text>
<rect x="244.29000000000002" y="526.0" width="271.41999999999996" height="72" fill="#e8e8e8" stroke="#999" stroke-width="2" rx="8"/>
<text x="380.0" y="544.0" text-anchor="middle" fill="#333" font-family="Arial,sans-serif" font-size="12" font-weight="bold">Late Gender Cascade</text>
<text x="380.0" y="558.0" text-anchor="middle" fill="#333" font-family="Arial,sans-serif" font-size="12" font-weight="bold">(L15-L17): personal</text>
<text x="380.0" y="572.0" text-anchor="middle" fill="#333" font-family="Arial,sans-serif" font-size="12" font-weight="bold">stories of women, pronouns</text>
<text x="380.0" y="590.0" text-anchor="middle" fill="#666" font-family="monospace" font-size="9">L15:F3330 —  personal stories of individua</text>
<text x="380.0" y="604.0" text-anchor="middle" fill="#666" font-family="monospace" font-size="9">L17:F5889 —  references to people with pro</text>
<circle cx="497.71000000000004" cy="539.0" r="9" fill="#ccc"/>
<text x="497.71000000000004" y="543.0" text-anchor="middle" fill="#666" font-family="monospace" font-size="9" font-weight="bold">2</text>
<rect x="241.53500000000003" y="346.0" width="276.92999999999995" height="100" fill="#e8e8e8" stroke="#999" stroke-width="2" rx="8"/>
<text x="380.0" y="364.0" text-anchor="middle" fill="#333" font-family="Arial,sans-serif" font-size="12" font-weight="bold">Women Mentioned Feature</text>
<text x="380.0" y="378.0" text-anchor="middle" fill="#333" font-family="Arial,sans-serif" font-size="12" font-weight="bold">(L18:14677): &#x27;instances of</text>
<text x="380.0" y="392.0" text-anchor="middle" fill="#333" font-family="Arial,sans-serif" font-size="12" font-weight="bold">women or girls mentioned&#x27;</text>
<text x="380.0" y="410.0" text-anchor="middle" fill="#666" font-family="monospace" font-size="9">L18:F14677 —  instances of women or girls b</text>
<text x="380.0" y="424.0" text-anchor="middle" fill="#666" font-family="monospace" font-size="9">L18:F14677 —  instances of women or girls b</text>
<text x="380.0" y="438.0" text-anchor="middle" fill="#666" font-family="monospace" font-size="9">L18:F14677 —  instances of women or girls b</text>
<text x="380.0" y="452.0" text-anchor="middle" fill="#666" font-family="monospace" font-size="9">L18:F14677 —  instances of women or girls b</text>
<circle cx="500.4649999999999" cy="359.0" r="9" fill="#ccc"/>
<text x="500.4649999999999" y="363.0" text-anchor="middle" fill="#666" font-family="monospace" font-size="9" font-weight="bold">4</text>
<rect x="244.29000000000002" y="194.0" width="271.41999999999996" height="72" fill="#e8e8e8" stroke="#999" stroke-width="2" rx="8"/>
<text x="380.0" y="212.0" text-anchor="middle" fill="#333" font-family="Arial,sans-serif" font-size="12" font-weight="bold">Women&#x27;s Names &amp; Roles</text>
<text x="380.0" y="226.0" text-anchor="middle" fill="#333" font-family="Arial,sans-serif" font-size="12" font-weight="bold">(L19:9685): &#x27;women&#x27;s names</text>
<text x="380.0" y="240.0" text-anchor="middle" fill="#333" font-family="Arial,sans-serif" font-size="12" font-weight="bold">and their</text>
<text x="380.0" y="254.0" text-anchor="middle" fill="#333" font-family="Arial,sans-serif" font-size="12" font-weight="bold">roles/accomplishments&#x27;</text>
<text x="380.0" y="272.0" text-anchor="middle" fill="#666" font-family="monospace" font-size="9">L19:F9685 —  references to women&#x27;s names a</text>
<text x="380.0" y="286.0" text-anchor="middle" fill="#666" font-family="monospace" font-size="9">L19:F9685 —  references to women&#x27;s names a</text>
<circle cx="497.71000000000004" cy="207.0" r="9" fill="#ccc"/>
<text x="497.71000000000004" y="211.0" text-anchor="middle" fill="#666" font-family="monospace" font-size="9" font-weight="bold">2</text>
<rect x="280.0" y="70.0" width="200" height="44" fill="#e8e8e8" stroke="#999" stroke-width="2" rx="8"/>
<text x="380.0" y="88.0" text-anchor="middle" fill="#333" font-family="Arial,sans-serif" font-size="12" font-weight="bold">Probe Output (Nurse</text>
<text x="380.0" y="102.0" text-anchor="middle" fill="#333" font-family="Arial,sans-serif" font-size="12" font-weight="bold">Classification Score)</text>
<circle cx="462.0" cy="83.0" r="9" fill="#ccc"/>
<text x="462.0" y="87.0" text-anchor="middle" fill="#666" font-family="monospace" font-size="9" font-weight="bold">0</text>
<line x1="40" y1="1730" x2="1653" y2="1730" stroke="#ddd" stroke-width="1"/>
<text x="40" y="1748" fill="#666" font-family="Arial,sans-serif" font-size="10" font-weight="bold" letter-spacing="1px">PROMPT</text>
<text x="40" y="1766" fill="#333" font-family="monospace" font-size="11">"&lt;bos&gt;She graduated with her Bachelors of Science in Nursing from the Medical University Of South Carolina. She began her"</text>
<text x="40" y="1790" fill="#666" font-family="Arial,sans-serif" font-size="10" font-weight="bold" letter-spacing="1px">TOP OUTPUTS</text>
<rect x="40" y="1795" width="100" height="20" fill="#e8e8e8" stroke="none" rx="6"/>
<text x="45" y="1809" fill="#333" font-family="Arial,sans-serif" font-size="11" font-weight="bold">(empty) <tspan fill="#555" font-size="10">100%</tspan></text>
</svg>