<svg width="1199" height="1525" xmlns="http://www.w3.org/2000/svg">
<rect width="1199" height="1525" fill="#f5f5f5"/>
<rect x="15" y="15" width="1169" height="1495" fill="white" stroke="none" rx="12"/>
<text x="40" y="48" fill="#666" font-family="Arial,sans-serif" font-size="14" font-weight="bold" letter-spacing="1px">ATTRIBUTION CIRCUIT</text>
<text x="25" y="96.0" fill="#999" font-family="monospace" font-size="10" font-weight="bold" text-anchor="start">L36</text>
<text x="25" y="227.0" fill="#999" font-family="monospace" font-size="10" font-weight="bold" text-anchor="start">L19</text>
<text x="25" y="379.0" fill="#999" font-family="monospace" font-size="10" font-weight="bold" text-anchor="start">L18</text>
<text x="25" y="531.0" fill="#999" font-family="monospace" font-size="10" font-weight="bold" text-anchor="start">L15</text>
<text x="25" y="669.0" fill="#999" font-family="monospace" font-size="10" font-weight="bold" text-anchor="start">L12</text>
<text x="25" y="821.0" fill="#999" font-family="monospace" font-size="10" font-weight="bold" text-anchor="start">L6</text>
<text x="25" y="980.0" fill="#999" font-family="monospace" font-size="10" font-weight="bold" text-anchor="start">L4</text>
<text x="25" y="1132.0" fill="#999" font-family="monospace" font-size="10" font-weight="bold" text-anchor="start">L2</text>
<text x="25" y="1291.0" fill="#999" font-family="monospace" font-size="10" font-weight="bold" text-anchor="start">L0</text>
<defs><marker id="arrow" markerWidth="8" markerHeight="6" refX="8" refY="3" orient="auto"><polygon points="0,0 8,3 0,6" fill="#8B4513" fill-opacity="0.7"/></marker></defs>
<path d="M 180.0,1316.0 C 295.04325,1280.0 831.91175,1280.0 946.9549999999999,1244.0" fill="none" stroke="#8B4513" stroke-width="3" stroke-opacity="0.6" marker-end="url(#arrow)"/>
<path d="M 180.0,1258.0 C 186.64350000000002,1059.0 217.6465,1059.0 224.29000000000002,860.0" fill="none" stroke="#8B4513" stroke-width="3" stroke-opacity="0.6" marker-end="url(#arrow)"/>
<path d="M 180.0,1258.0 C 210.0,838.0 350.0,838.0 380.0,418.0" fill="none" stroke="#8B4513" stroke-width="3" stroke-opacity="0.6" marker-end="url(#arrow)"/>
<path d="M 180.0,1258.0 C 210.0,755.0 350.0,755.0 380.0,252.0" fill="none" stroke="#8B4513" stroke-width="3" stroke-opacity="0.6" marker-end="url(#arrow)"/>
<path d="M 420.0,1316.0 C 499.04325,1280.0 867.91175,1280.0 946.9549999999999,1244.0" fill="none" stroke="#8B4513" stroke-width="3" stroke-opacity="0.6" marker-end="url(#arrow)"/>
<path d="M 420.0,1258.0 C 414.0,907.0 386.0,907.0 380.0,556.0" fill="none" stroke="#8B4513" stroke-width="3" stroke-opacity="0.6" marker-end="url(#arrow)"/>
<path d="M 420.0,1258.0 C 414.0,838.0 386.0,838.0 380.0,418.0" fill="none" stroke="#8B4513" stroke-width="3" stroke-opacity="0.6" marker-end="url(#arrow)"/>
<path d="M 667.0,1258.0 C 647.3065,1052.0 555.4035,1052.0 535.71,846.0" fill="none" stroke="#8B4513" stroke-width="3" stroke-opacity="0.6" marker-end="url(#arrow)"/>
<path d="M 946.9549999999999,1244.0 C 861.91175,1204.0 465.04325,1204.0 380.0,1164.0" fill="none" stroke="#8B4513" stroke-width="3" stroke-opacity="0.6" marker-end="url(#arrow)"/>
<path d="M 946.9549999999999,1244.0 C 861.91175,1128.0 465.04325,1128.0 380.0,1012.0" fill="none" stroke="#8B4513" stroke-width="3" stroke-opacity="0.6" marker-end="url(#arrow)"/>
<path d="M 380.0,1092.0 C 380.0,1052.0 380.0,1052.0 380.0,1012.0" fill="none" stroke="#8B4513" stroke-width="3" stroke-opacity="0.6" marker-end="url(#arrow)"/>
<path d="M 380.0,1092.0 C 356.6435,976.0 247.6465,976.0 224.29000000000002,860.0" fill="none" stroke="#8B4513" stroke-width="3" stroke-opacity="0.6" marker-end="url(#arrow)"/>
<path d="M 380.0,940.0 C 356.6435,900.0 247.6465,900.0 224.29000000000002,860.0" fill="none" stroke="#8B4513" stroke-width="3" stroke-opacity="0.6" marker-end="url(#arrow)"/>
<path d="M 380.0,940.0 C 380.0,817.0 380.0,817.0 380.0,694.0" fill="none" stroke="#8B4513" stroke-width="3" stroke-opacity="0.6" marker-end="url(#arrow)"/>
<path d="M 224.29000000000002,774.0 C 247.6465,734.0 356.6435,734.0 380.0,694.0" fill="none" stroke="#8B4513" stroke-width="3" stroke-opacity="0.6" marker-end="url(#arrow)"/>
<path d="M 224.29000000000002,774.0 C 247.6465,665.0 356.6435,665.0 380.0,556.0" fill="none" stroke="#8B4513" stroke-width="3" stroke-opacity="0.6" marker-end="url(#arrow)"/>
<path d="M 224.29000000000002,774.0 C 247.6465,596.0 356.6435,596.0 380.0,418.0" fill="none" stroke="#8B4513" stroke-width="3" stroke-opacity="0.6" marker-end="url(#arrow)"/>
<path d="M 535.71,788.0 C 512.3535,451.0 403.3565,451.0 380.0,114.0" fill="none" stroke="#8B4513" stroke-width="3" stroke-opacity="0.6" marker-end="url(#arrow)"/>
<path d="M 380.0,636.0 C 380.0,375.0 380.0,375.0 380.0,114.0" fill="none" stroke="#8B4513" stroke-width="3" stroke-opacity="0.6" marker-end="url(#arrow)"/>
<path d="M 380.0,498.0 C 380.0,458.0 380.0,458.0 380.0,418.0" fill="none" stroke="#8B4513" stroke-width="3" stroke-opacity="0.6" marker-end="url(#arrow)"/>
<path d="M 380.0,332.0 C 380.0,223.0 380.0,223.0 380.0,114.0" fill="none" stroke="#8B4513" stroke-width="3" stroke-opacity="0.6" marker-end="url(#arrow)"/>
<path d="M 380.0,194.0 C 380.0,154.0 380.0,154.0 380.0,114.0" fill="none" stroke="#8B4513" stroke-width="3" stroke-opacity="0.6" marker-end="url(#arrow)"/>
<rect x="80.0" y="1258.0" width="200" height="58" fill="#e8e8e8" stroke="#999" stroke-width="2" rx="8"/>
<text x="180.0" y="1276.0" text-anchor="middle" fill="#333" font-family="Arial,sans-serif" font-size="12" font-weight="bold">Emb: &#x27;She&#x27; (pos 1) -</text>
<text x="180.0" y="1290.0" text-anchor="middle" fill="#333" font-family="Arial,sans-serif" font-size="12" font-weight="bold">SPURIOUS GENDER MARKER</text>
<text x="180.0" y="1308.0" text-anchor="middle" fill="#666" font-family="monospace" font-size="9">L0:F-1</text>
<circle cx="262.0" cy="1271.0" r="9" fill="#ccc"/>
<text x="262.0" y="1275.0" text-anchor="middle" fill="#666" font-family="monospace" font-size="9" font-weight="bold">1</text>
<rect x="320.0" y="1258.0" width="200" height="58" fill="#e8e8e8" stroke="#999" stroke-width="2" rx="8"/>
<text x="420.0" y="1276.0" text-anchor="middle" fill="#333" font-family="Arial,sans-serif" font-size="12" font-weight="bold">Emb: &#x27;She&#x27; (pos 19) -</text>
<text x="420.0" y="1290.0" text-anchor="middle" fill="#333" font-family="Arial,sans-serif" font-size="12" font-weight="bold">SPURIOUS GENDER MARKER</text>
<text x="420.0" y="1308.0" text-anchor="middle" fill="#666" font-family="monospace" font-size="9">L0:F-1</text>
<circle cx="502.0" cy="1271.0" r="9" fill="#ccc"/>
<text x="502.0" y="1275.0" text-anchor="middle" fill="#666" font-family="monospace" font-size="9" font-weight="bold">1</text>
<rect x="560.0" y="1258.0" width="214.0" height="58" fill="#e8e8e8" stroke="#999" stroke-width="2" rx="8"/>
<text x="667.0" y="1276.0" text-anchor="middle" fill="#333" font-family="Arial,sans-serif" font-size="12" font-weight="bold">Emb: &#x27;Nursing&#x27; (pos 10) -</text>
<text x="667.0" y="1290.0" text-anchor="middle" fill="#333" font-family="Arial,sans-serif" font-size="12" font-weight="bold">GENUINE PROFESSION</text>
<text x="667.0" y="1308.0" text-anchor="middle" fill="#666" font-family="monospace" font-size="9">L0:F-1</text>
<circle cx="756.0" cy="1271.0" r="9" fill="#ccc"/>
<text x="756.0" y="1275.0" text-anchor="middle" fill="#666" font-family="monospace" font-size="9" font-weight="bold">1</text>
<rect x="814.0" y="1244.0" width="265.90999999999997" height="86" fill="#e8e8e8" stroke="#999" stroke-width="2" rx="8"/>
<text x="946.9549999999999" y="1262.0" text-anchor="middle" fill="#333" font-family="Arial,sans-serif" font-size="12" font-weight="bold">L0 Gender Detection (&#x27;she&#x27;</text>
<text x="946.9549999999999" y="1276.0" text-anchor="middle" fill="#333" font-family="Arial,sans-serif" font-size="12" font-weight="bold">pronoun, female person</text>
<text x="946.9549999999999" y="1290.0" text-anchor="middle" fill="#333" font-family="Arial,sans-serif" font-size="12" font-weight="bold">mentions)</text>
<text x="946.9549999999999" y="1308.0" text-anchor="middle" fill="#666" font-family="monospace" font-size="9">L0:F12519 —  the pronoun &quot;she&quot;</text>
<text x="946.9549999999999" y="1322.0" text-anchor="middle" fill="#666" font-family="monospace" font-size="9">L0:F15382 — mentions of a female person.</text>
<text x="946.9549999999999" y="1336.0" text-anchor="middle" fill="#666" font-family="monospace" font-size="9">L0:F9519 —  the pronoun &quot;she&quot; and the pos</text>
<circle cx="1061.9099999999999" cy="1257.0" r="9" fill="#ccc"/>
<text x="1061.9099999999999" y="1261.0" text-anchor="middle" fill="#666" font-family="monospace" font-size="9" font-weight="bold">3</text>
<rect x="247.04500000000002" y="1092.0" width="265.90999999999997" height="72" fill="#e8e8e8" stroke="#999" stroke-width="2" rx="8"/>
<text x="380.0" y="1110.0" text-anchor="middle" fill="#333" font-family="Arial,sans-serif" font-size="12" font-weight="bold">L2 Pronoun/Gender Features</text>
<text x="380.0" y="1124.0" text-anchor="middle" fill="#333" font-family="Arial,sans-serif" font-size="12" font-weight="bold">(he/she pronouns, women by</text>
<text x="380.0" y="1138.0" text-anchor="middle" fill="#333" font-family="Arial,sans-serif" font-size="12" font-weight="bold">name)</text>
<text x="380.0" y="1156.0" text-anchor="middle" fill="#666" font-family="monospace" font-size="9">L2:F2128 —  pronouns, especially &quot;he/him/</text>
<text x="380.0" y="1170.0" text-anchor="middle" fill="#666" font-family="monospace" font-size="9">L2:F7672 —  mentions of women by name and</text>
<circle cx="494.9549999999999" cy="1105.0" r="9" fill="#ccc"/>
<text x="494.9549999999999" y="1109.0" text-anchor="middle" fill="#666" font-family="monospace" font-size="9" font-weight="bold">2</text>
<rect x="244.29000000000002" y="940.0" width="271.41999999999996" height="72" fill="#e8e8e8" stroke="#999" stroke-width="2" rx="8"/>
<text x="380.0" y="958.0" text-anchor="middle" fill="#333" font-family="Arial,sans-serif" font-size="12" font-weight="bold">L4 Named Entities + Gender</text>
<text x="380.0" y="972.0" text-anchor="middle" fill="#333" font-family="Arial,sans-serif" font-size="12" font-weight="bold">(people, characters,</text>
<text x="380.0" y="986.0" text-anchor="middle" fill="#333" font-family="Arial,sans-serif" font-size="12" font-weight="bold">her/she)</text>
<text x="380.0" y="1004.0" text-anchor="middle" fill="#666" font-family="monospace" font-size="9">L4:F15317 —  named entities like character</text>
<text x="380.0" y="1018.0" text-anchor="middle" fill="#666" font-family="monospace" font-size="9">L4:F7864 — xml or source code snippets, e</text>
<circle cx="497.71000000000004" cy="953.0" r="9" fill="#ccc"/>
<text x="497.71000000000004" y="957.0" text-anchor="middle" fill="#666" font-family="monospace" font-size="9" font-weight="bold">2</text>
<rect x="88.58000000000004" y="774.0" width="271.41999999999996" height="86" fill="#e8e8e8" stroke="#999" stroke-width="2" rx="8"/>
<text x="224.29000000000002" y="792.0" text-anchor="middle" fill="#333" font-family="Arial,sans-serif" font-size="12" font-weight="bold">L6 Women References</text>
<text x="224.29000000000002" y="806.0" text-anchor="middle" fill="#333" font-family="Arial,sans-serif" font-size="12" font-weight="bold">(frac=0.020) - PRIMARY</text>
<text x="224.29000000000002" y="820.0" text-anchor="middle" fill="#333" font-family="Arial,sans-serif" font-size="12" font-weight="bold">SPURIOUS FEATURE</text>
<text x="224.29000000000002" y="838.0" text-anchor="middle" fill="#666" font-family="monospace" font-size="9">L6:F11646 —  references to women, potentia</text>
<text x="224.29000000000002" y="852.0" text-anchor="middle" fill="#666" font-family="monospace" font-size="9">L6:F11646 —  references to women, potentia</text>
<text x="224.29000000000002" y="866.0" text-anchor="middle" fill="#666" font-family="monospace" font-size="9">L6:F11646 —  references to women, potentia</text>
<circle cx="342.0" cy="787.0" r="9" fill="#ccc"/>
<text x="342.0" y="791.0" text-anchor="middle" fill="#666" font-family="monospace" font-size="9" font-weight="bold">3</text>
<rect x="400.00000000000006" y="788.0" width="271.41999999999996" height="58" fill="#e8e8e8" stroke="#999" stroke-width="2" rx="8"/>
<text x="535.71" y="806.0" text-anchor="middle" fill="#333" font-family="Arial,sans-serif" font-size="12" font-weight="bold">L6 Nursing Profession</text>
<text x="535.71" y="820.0" text-anchor="middle" fill="#333" font-family="Arial,sans-serif" font-size="12" font-weight="bold">(frac=0.016) - GENUINE</text>
<text x="535.71" y="834.0" text-anchor="middle" fill="#333" font-family="Arial,sans-serif" font-size="12" font-weight="bold">PROFESSION FEATURE</text>
<text x="535.71" y="852.0" text-anchor="middle" fill="#666" font-family="monospace" font-size="9">L6:F15267 —  words in the document referri</text>
<circle cx="653.4200000000001" cy="801.0" r="9" fill="#ccc"/>
<text x="653.4200000000001" y="805.0" text-anchor="middle" fill="#666" font-family="monospace" font-size="9" font-weight="bold">1</text>
<rect x="241.53500000000003" y="636.0" width="276.92999999999995" height="58" fill="#e8e8e8" stroke="#999" stroke-width="2" rx="8"/>
<text x="380.0" y="654.0" text-anchor="middle" fill="#333" font-family="Arial,sans-serif" font-size="12" font-weight="bold">L12 Female Pronouns</text>
<text x="380.0" y="668.0" text-anchor="middle" fill="#333" font-family="Arial,sans-serif" font-size="12" font-weight="bold">(frac=0.007) - SPURIOUS</text>
<text x="380.0" y="682.0" text-anchor="middle" fill="#333" font-family="Arial,sans-serif" font-size="12" font-weight="bold">GENDER MARKER</text>
<text x="380.0" y="700.0" text-anchor="middle" fill="#666" font-family="monospace" font-size="9">L12:F12940 — references to female pronouns </text>
<circle cx="500.4649999999999" cy="649.0" r="9" fill="#ccc"/>
<text x="500.4649999999999" y="653.0" text-anchor="middle" fill="#666" font-family="monospace" font-size="9" font-weight="bold">1</text>
<rect x="244.29000000000002" y="498.0" width="271.41999999999996" height="58" fill="#e8e8e8" stroke="#999" stroke-width="2" rx="8"/>
<text x="380.0" y="516.0" text-anchor="middle" fill="#333" font-family="Arial,sans-serif" font-size="12" font-weight="bold">L15 Personal Stories of</text>
<text x="380.0" y="530.0" text-anchor="middle" fill="#333" font-family="Arial,sans-serif" font-size="12" font-weight="bold">Women (frac=0.019)</text>
<text x="380.0" y="548.0" text-anchor="middle" fill="#666" font-family="monospace" font-size="9">L15:F3330 —  personal stories of individua</text>
<circle cx="497.71000000000004" cy="511.0" r="9" fill="#ccc"/>
<text x="497.71000000000004" y="515.0" text-anchor="middle" fill="#666" font-family="monospace" font-size="9" font-weight="bold">1</text>
<rect x="241.53500000000003" y="332.0" width="276.92999999999995" height="86" fill="#e8e8e8" stroke="#999" stroke-width="2" rx="8"/>
<text x="380.0" y="350.0" text-anchor="middle" fill="#333" font-family="Arial,sans-serif" font-size="12" font-weight="bold">L18 Women/Girls Mentioned</text>
<text x="380.0" y="364.0" text-anchor="middle" fill="#333" font-family="Arial,sans-serif" font-size="12" font-weight="bold">(frac=0.012) - SPURIOUS</text>
<text x="380.0" y="378.0" text-anchor="middle" fill="#333" font-family="Arial,sans-serif" font-size="12" font-weight="bold">GENDER MARKER</text>
<text x="380.0" y="396.0" text-anchor="middle" fill="#666" font-family="monospace" font-size="9">L18:F14677 —  instances of women or girls b</text>
<text x="380.0" y="410.0" text-anchor="middle" fill="#666" font-family="monospace" font-size="9">L18:F14677 —  instances of women or girls b</text>
<text x="380.0" y="424.0" text-anchor="middle" fill="#666" font-family="monospace" font-size="9">L18:F14677 —  instances of women or girls b</text>
<circle cx="500.4649999999999" cy="345.0" r="9" fill="#ccc"/>
<text x="500.4649999999999" y="349.0" text-anchor="middle" fill="#666" font-family="monospace" font-size="9" font-weight="bold">3</text>
<rect x="280.0" y="194.0" width="200" height="58" fill="#e8e8e8" stroke="#999" stroke-width="2" rx="8"/>
<text x="380.0" y="212.0" text-anchor="middle" fill="#333" font-family="Arial,sans-serif" font-size="12" font-weight="bold">L19 Late Gender/Entity</text>
<text x="380.0" y="226.0" text-anchor="middle" fill="#333" font-family="Arial,sans-serif" font-size="12" font-weight="bold">Features (pos 140)</text>
<text x="380.0" y="244.0" text-anchor="middle" fill="#666" font-family="monospace" font-size="9">L19:F9685</text>
<circle cx="462.0" cy="207.0" r="9" fill="#ccc"/>
<text x="462.0" y="211.0" text-anchor="middle" fill="#666" font-family="monospace" font-size="9" font-weight="bold">1</text>
<rect x="273.0" y="70.0" width="214.0" height="44" fill="#e8e8e8" stroke="#999" stroke-width="2" rx="8"/>
<text x="380.0" y="88.0" text-anchor="middle" fill="#333" font-family="Arial,sans-serif" font-size="12" font-weight="bold">Probe Direction (Layer-22</text>
<text x="380.0" y="102.0" text-anchor="middle" fill="#333" font-family="Arial,sans-serif" font-size="12" font-weight="bold">Classifier Score)</text>
<circle cx="469.0" cy="83.0" r="9" fill="#ccc"/>
<text x="469.0" y="87.0" text-anchor="middle" fill="#666" font-family="monospace" font-size="9" font-weight="bold">0</text>
<line x1="40" y1="1410" x2="1159" y2="1410" stroke="#ddd" stroke-width="1"/>
<text x="40" y="1428" fill="#666" font-family="Arial,sans-serif" font-size="10" font-weight="bold" letter-spacing="1px">PROMPT</text>
<text x="40" y="1446" fill="#333" font-family="monospace" font-size="11">"&lt;bos&gt;She graduated with her Bachelors of Science in Nursing from the Medical University Of South Carolina. She began her"</text>
<text x="40" y="1470" fill="#666" font-family="Arial,sans-serif" font-size="10" font-weight="bold" letter-spacing="1px">TOP OUTPUTS</text>
<rect x="40" y="1475" width="100" height="20" fill="#e8e8e8" stroke="none" rx="6"/>
<text x="45" y="1489" fill="#333" font-family="Arial,sans-serif" font-size="11" font-weight="bold">(empty) <tspan fill="#555" font-size="10">100%</tspan></text>
</svg>