<svg width="1388" height="875" xmlns="http://www.w3.org/2000/svg">
<rect width="1388" height="875" fill="#f5f5f5"/>
<rect x="15" y="15" width="1358" height="845" fill="white" stroke="none" rx="12"/>
<text x="40" y="48" fill="#666" font-family="Arial,sans-serif" font-size="14" font-weight="bold" letter-spacing="1px">ATTRIBUTION CIRCUIT</text>
<text x="25" y="96.0" fill="#999" font-family="monospace" font-size="10" font-weight="bold" text-anchor="start">L36</text>
<text x="25" y="227.0" fill="#999" font-family="monospace" font-size="10" font-weight="bold" text-anchor="start">L6</text>
<text x="25" y="365.0" fill="#999" font-family="monospace" font-size="10" font-weight="bold" text-anchor="start">L4</text>
<text x="25" y="510.0" fill="#999" font-family="monospace" font-size="10" font-weight="bold" text-anchor="start">L3</text>
<text x="25" y="655.0" fill="#999" font-family="monospace" font-size="10" font-weight="bold" text-anchor="start">L0</text>
<defs><marker id="arrow" markerWidth="8" markerHeight="6" refX="8" refY="3" orient="auto"><polygon points="0,0 8,3 0,6" fill="#8B4513" fill-opacity="0.7"/></marker></defs>
<path d="M 187.0,622.0 C 281.4265,582.0 722.0835,582.0 816.51,542.0" fill="none" stroke="#8B4513" stroke-width="3" stroke-opacity="0.6" marker-end="url(#arrow)"/>
<path d="M 187.0,622.0 C 193.00675,506.0 221.03825,506.0 227.04500000000002,390.0" fill="none" stroke="#8B4513" stroke-width="3" stroke-opacity="0.6" marker-end="url(#arrow)"/>
<path d="M 187.0,622.0 C 238.89325,506.0 481.06174999999996,506.0 532.9549999999999,390.0" fill="none" stroke="#8B4513" stroke-width="3" stroke-opacity="0.6" marker-end="url(#arrow)"/>
<path d="M 187.0,622.0 C 215.95,437.0 351.05,437.0 380.0,252.0" fill="none" stroke="#8B4513" stroke-width="3" stroke-opacity="0.6" marker-end="url(#arrow)"/>
<path d="M 434.0,622.0 C 400.43,578.5 243.76999999999998,578.5 210.2,535.0" fill="none" stroke="#8B4513" stroke-width="3" stroke-opacity="0.6" marker-end="url(#arrow)"/>
<path d="M 434.0,622.0 C 491.3765,582.0 759.1335,582.0 816.51,542.0" fill="none" stroke="#8B4513" stroke-width="3" stroke-opacity="0.6" marker-end="url(#arrow)"/>
<path d="M 434.0,622.0 C 445.90325,578.5 501.45175,578.5 513.355,535.0" fill="none" stroke="#8B4513" stroke-width="3" stroke-opacity="0.6" marker-end="url(#arrow)"/>
<path d="M 434.0,622.0 C 402.95675,506.0 258.08825,506.0 227.04500000000002,390.0" fill="none" stroke="#8B4513" stroke-width="3" stroke-opacity="0.6" marker-end="url(#arrow)"/>
<path d="M 674.0,622.0 C 649.90325,578.5 537.4517500000001,578.5 513.355,535.0" fill="none" stroke="#8B4513" stroke-width="3" stroke-opacity="0.6" marker-end="url(#arrow)"/>
<path d="M 674.0,622.0 C 740.84975,582.0 1052.8152499999999,582.0 1119.665,542.0" fill="none" stroke="#8B4513" stroke-width="3" stroke-opacity="0.6" marker-end="url(#arrow)"/>
<path d="M 674.0,622.0 C 652.84325,506.0 554.1117499999999,506.0 532.9549999999999,390.0" fill="none" stroke="#8B4513" stroke-width="3" stroke-opacity="0.6" marker-end="url(#arrow)"/>
<path d="M 914.04,622.0 C 808.4639999999999,578.5 315.77599999999995,578.5 210.2,535.0" fill="none" stroke="#8B4513" stroke-width="3" stroke-opacity="0.6" marker-end="url(#arrow)"/>
<path d="M 1161.08,622.0 C 1109.3944999999999,582.0 868.1955,582.0 816.51,542.0" fill="none" stroke="#8B4513" stroke-width="3" stroke-opacity="0.6" marker-end="url(#arrow)"/>
<path d="M 816.51,470.0 C 728.09025,430.0 315.46475,430.0 227.04500000000002,390.0" fill="none" stroke="#8B4513" stroke-width="3" stroke-opacity="0.6" marker-end="url(#arrow)"/>
<path d="M 816.51,470.0 C 773.97675,430.0 575.4882499999999,430.0 532.9549999999999,390.0" fill="none" stroke="#8B4513" stroke-width="3" stroke-opacity="0.6" marker-end="url(#arrow)"/>
<path d="M 1119.665,470.0 C 1031.6585,430.0 620.9614999999999,430.0 532.9549999999999,390.0" fill="none" stroke="#8B4513" stroke-width="3" stroke-opacity="0.6" marker-end="url(#arrow)"/>
<path d="M 210.2,477.0 C 212.72674999999998,433.5 224.51825000000002,433.5 227.04500000000002,390.0" fill="none" stroke="#8B4513" stroke-width="3" stroke-opacity="0.6" marker-end="url(#arrow)"/>
<path d="M 513.355,477.0 C 470.4085,433.5 269.99150000000003,433.5 227.04500000000002,390.0" fill="none" stroke="#8B4513" stroke-width="3" stroke-opacity="0.6" marker-end="url(#arrow)"/>
<path d="M 513.355,477.0 C 493.35175000000004,364.5 400.00325,364.5 380.0,252.0" fill="none" stroke="#8B4513" stroke-width="3" stroke-opacity="0.6" marker-end="url(#arrow)"/>
<path d="M 227.04500000000002,332.0 C 249.98825000000002,292.0 357.05675,292.0 380.0,252.0" fill="none" stroke="#8B4513" stroke-width="3" stroke-opacity="0.6" marker-end="url(#arrow)"/>
<path d="M 532.9549999999999,332.0 C 510.01174999999995,292.0 402.94325,292.0 380.0,252.0" fill="none" stroke="#8B4513" stroke-width="3" stroke-opacity="0.6" marker-end="url(#arrow)"/>
<path d="M 227.04500000000002,332.0 C 249.98825000000002,223.0 357.05675,223.0 380.0,114.0" fill="none" stroke="#8B4513" stroke-width="3" stroke-opacity="0.6" marker-end="url(#arrow)"/>
<path d="M 513.355,477.0 C 493.35175000000004,295.5 400.00325,295.5 380.0,114.0" fill="none" stroke="#8B4513" stroke-width="3" stroke-opacity="0.6" marker-end="url(#arrow)"/>
<path d="M 210.2,477.0 C 235.67,295.5 354.53,295.5 380.0,114.0" fill="none" stroke="#8B4513" stroke-width="3" stroke-opacity="0.6" marker-end="url(#arrow)"/>
<path d="M 380.0,194.0 C 380.0,154.0 380.0,154.0 380.0,114.0" fill="none" stroke="#8B4513" stroke-width="3" stroke-opacity="0.6" marker-end="url(#arrow)"/>
<rect x="80.0" y="622.0" width="214.0" height="58" fill="#e8e8e8" stroke="#999" stroke-width="2" rx="8"/>
<text x="187.0" y="640.0" text-anchor="middle" fill="#333" font-family="Arial,sans-serif" font-size="12" font-weight="bold">Emb: &#x27;hat&#x27; (pos 3) - core</text>
<text x="187.0" y="654.0" text-anchor="middle" fill="#333" font-family="Arial,sans-serif" font-size="12" font-weight="bold">toxic signal</text>
<text x="187.0" y="672.0" text-anchor="middle" fill="#666" font-family="monospace" font-size="9">L-1:F-1</text>
<circle cx="276.0" cy="635.0" r="9" fill="#ccc"/>
<text x="276.0" y="639.0" text-anchor="middle" fill="#666" font-family="monospace" font-size="9" font-weight="bold">1</text>
<rect x="334.0" y="622.0" width="200" height="58" fill="#e8e8e8" stroke="#999" stroke-width="2" rx="8"/>
<text x="434.0" y="640.0" text-anchor="middle" fill="#333" font-family="Arial,sans-serif" font-size="12" font-weight="bold">Emb: &#x27;Self&#x27; (pos 1) -</text>
<text x="434.0" y="654.0" text-anchor="middle" fill="#333" font-family="Arial,sans-serif" font-size="12" font-weight="bold">&#x27;self-&#x27; prefix trigger</text>
<text x="434.0" y="672.0" text-anchor="middle" fill="#666" font-family="monospace" font-size="9">L-1:F-1</text>
<circle cx="516.0" cy="635.0" r="9" fill="#ccc"/>
<text x="516.0" y="639.0" text-anchor="middle" fill="#666" font-family="monospace" font-size="9" font-weight="bold">1</text>
<rect x="574.0" y="622.0" width="200" height="58" fill="#e8e8e8" stroke="#999" stroke-width="2" rx="8"/>
<text x="674.0" y="640.0" text-anchor="middle" fill="#333" font-family="Arial,sans-serif" font-size="12" font-weight="bold">Emb: &#x27;ing&#x27; (pos 4)</text>
<text x="674.0" y="658.0" text-anchor="middle" fill="#666" font-family="monospace" font-size="9">L-1:F-1</text>
<circle cx="756.0" cy="635.0" r="9" fill="#ccc"/>
<text x="756.0" y="639.0" text-anchor="middle" fill="#666" font-family="monospace" font-size="9" font-weight="bold">1</text>
<rect x="814.0" y="622.0" width="200.07999999999998" height="58" fill="#e8e8e8" stroke="#999" stroke-width="2" rx="8"/>
<text x="914.04" y="640.0" text-anchor="middle" fill="#333" font-family="Arial,sans-serif" font-size="12" font-weight="bold">Emb: &#x27;-&#x27; hyphen (pos 2)</text>
<text x="914.04" y="658.0" text-anchor="middle" fill="#666" font-family="monospace" font-size="9">L-1:F-1</text>
<circle cx="996.0799999999999" cy="635.0" r="9" fill="#ccc"/>
<text x="996.0799999999999" y="639.0" text-anchor="middle" fill="#666" font-family="monospace" font-size="9" font-weight="bold">1</text>
<rect x="1054.08" y="622.0" width="214.0" height="58" fill="#e8e8e8" stroke="#999" stroke-width="2" rx="8"/>
<text x="1161.08" y="640.0" text-anchor="middle" fill="#333" font-family="Arial,sans-serif" font-size="12" font-weight="bold">Emb: &#x27;Jew&#x27; (pos 6) - WEAK</text>
<text x="1161.08" y="654.0" text-anchor="middle" fill="#333" font-family="Arial,sans-serif" font-size="12" font-weight="bold">connection only</text>
<text x="1161.08" y="672.0" text-anchor="middle" fill="#666" font-family="monospace" font-size="9">L-1:F-1</text>
<circle cx="1250.08" cy="635.0" r="9" fill="#ccc"/>
<text x="1250.08" y="639.0" text-anchor="middle" fill="#666" font-family="monospace" font-size="9" font-weight="bold">1</text>
<rect x="80.0" y="477.0" width="260.4" height="58" fill="#e8e8e8" stroke="#999" stroke-width="2" rx="8"/>
<text x="210.2" y="495.0" text-anchor="middle" fill="#333" font-family="Arial,sans-serif" font-size="12" font-weight="bold">L3:F735 - &#x27;self-&#x27;</text>
<text x="210.2" y="509.0" text-anchor="middle" fill="#333" font-family="Arial,sans-serif" font-size="12" font-weight="bold">hyphenated words detector</text>
<text x="210.2" y="527.0" text-anchor="middle" fill="#666" font-family="monospace" font-size="9">L3:F735 —  words and phrases that includ</text>
<circle cx="322.4" cy="490.0" r="9" fill="#ccc"/>
<text x="322.4" y="494.0" text-anchor="middle" fill="#666" font-family="monospace" font-size="9" font-weight="bold">1</text>
<rect x="380.40000000000003" y="477.0" width="265.90999999999997" height="58" fill="#e8e8e8" stroke="#999" stroke-width="2" rx="8"/>
<text x="513.355" y="495.0" text-anchor="middle" fill="#333" font-family="Arial,sans-serif" font-size="12" font-weight="bold">L3:F9615 - &#x27;self-&#x27; prefix</text>
<text x="513.355" y="509.0" text-anchor="middle" fill="#333" font-family="Arial,sans-serif" font-size="12" font-weight="bold">(TOXICITY SUPPRESSOR)</text>
<text x="513.355" y="527.0" text-anchor="middle" fill="#666" font-family="monospace" font-size="9">L3:F9615 —  words containing the prefix &quot;</text>
<circle cx="628.31" cy="490.0" r="9" fill="#ccc"/>
<text x="628.31" y="494.0" text-anchor="middle" fill="#666" font-family="monospace" font-size="9" font-weight="bold">1</text>
<rect x="686.31" y="470.0" width="260.4" height="72" fill="#e8e8e8" stroke="#999" stroke-width="2" rx="8"/>
<text x="816.51" y="488.0" text-anchor="middle" fill="#333" font-family="Arial,sans-serif" font-size="12" font-weight="bold">L3:F592 + F8492 -</text>
<text x="816.51" y="502.0" text-anchor="middle" fill="#333" font-family="Arial,sans-serif" font-size="12" font-weight="bold">hate/love detection +</text>
<text x="816.51" y="516.0" text-anchor="middle" fill="#333" font-family="Arial,sans-serif" font-size="12" font-weight="bold">&#x27;hate&#x27; word</text>
<text x="816.51" y="534.0" text-anchor="middle" fill="#666" font-family="monospace" font-size="9">L3:F592 — words related to love, affecti</text>
<text x="816.51" y="548.0" text-anchor="middle" fill="#666" font-family="monospace" font-size="9">L3:F8492 — the word &quot;hate&quot;</text>
<circle cx="928.7099999999999" cy="483.0" r="9" fill="#ccc"/>
<text x="928.7099999999999" y="487.0" text-anchor="middle" fill="#666" font-family="monospace" font-size="9" font-weight="bold">2</text>
<rect x="986.71" y="470.0" width="265.90999999999997" height="72" fill="#e8e8e8" stroke="#999" stroke-width="2" rx="8"/>
<text x="1119.665" y="488.0" text-anchor="middle" fill="#333" font-family="Arial,sans-serif" font-size="12" font-weight="bold">L3:F5808 + F1319 - &#x27;-ing&#x27;</text>
<text x="1119.665" y="502.0" text-anchor="middle" fill="#333" font-family="Arial,sans-serif" font-size="12" font-weight="bold">ending detection</text>
<text x="1119.665" y="520.0" text-anchor="middle" fill="#666" font-family="monospace" font-size="9">L3:F5808 — words ending in &quot;-ing&quot; that ha</text>
<text x="1119.665" y="534.0" text-anchor="middle" fill="#666" font-family="monospace" font-size="9">L3:F1319</text>
<circle cx="1234.62" cy="483.0" r="9" fill="#ccc"/>
<text x="1234.62" y="487.0" text-anchor="middle" fill="#666" font-family="monospace" font-size="9" font-weight="bold">2</text>
<rect x="94.09000000000003" y="332.0" width="265.90999999999997" height="58" fill="#e8e8e8" stroke="#999" stroke-width="2" rx="8"/>
<text x="227.04500000000002" y="350.0" text-anchor="middle" fill="#333" font-family="Arial,sans-serif" font-size="12" font-weight="bold">L4:F8407 -</text>
<text x="227.04500000000002" y="364.0" text-anchor="middle" fill="#333" font-family="Arial,sans-serif" font-size="12" font-weight="bold">antagonists/fighting words</text>
<text x="227.04500000000002" y="378.0" text-anchor="middle" fill="#333" font-family="Arial,sans-serif" font-size="12" font-weight="bold">(STRONGEST DRIVER)</text>
<text x="227.04500000000002" y="396.0" text-anchor="middle" fill="#666" font-family="monospace" font-size="9">L4:F8407 —  words related to antagonists </text>
<circle cx="342.0" cy="345.0" r="9" fill="#ccc"/>
<text x="342.0" y="349.0" text-anchor="middle" fill="#666" font-family="monospace" font-size="9" font-weight="bold">1</text>
<rect x="399.99999999999994" y="332.0" width="265.90999999999997" height="58" fill="#e8e8e8" stroke="#999" stroke-width="2" rx="8"/>
<text x="532.9549999999999" y="350.0" text-anchor="middle" fill="#333" font-family="Arial,sans-serif" font-size="12" font-weight="bold">L4:F5181 -</text>
<text x="532.9549999999999" y="364.0" text-anchor="middle" fill="#333" font-family="Arial,sans-serif" font-size="12" font-weight="bold">political/ideological</text>
<text x="532.9549999999999" y="378.0" text-anchor="middle" fill="#333" font-family="Arial,sans-serif" font-size="12" font-weight="bold">terms</text>
<text x="532.9549999999999" y="396.0" text-anchor="middle" fill="#666" font-family="monospace" font-size="9">L4:F5181 —  terms relating to political p</text>
<circle cx="647.9099999999999" cy="345.0" r="9" fill="#ccc"/>
<text x="647.9099999999999" y="349.0" text-anchor="middle" fill="#666" font-family="monospace" font-size="9" font-weight="bold">1</text>
<rect x="244.29000000000002" y="194.0" width="271.41999999999996" height="58" fill="#e8e8e8" stroke="#999" stroke-width="2" rx="8"/>
<text x="380.0" y="212.0" text-anchor="middle" fill="#333" font-family="Arial,sans-serif" font-size="12" font-weight="bold">L6:F10545 - political</text>
<text x="380.0" y="226.0" text-anchor="middle" fill="#333" font-family="Arial,sans-serif" font-size="12" font-weight="bold">rhetoric/censorship</text>
<text x="380.0" y="240.0" text-anchor="middle" fill="#333" font-family="Arial,sans-serif" font-size="12" font-weight="bold">monitor</text>
<text x="380.0" y="258.0" text-anchor="middle" fill="#666" font-family="monospace" font-size="9">L6:F10545 —  political rhetoric related to</text>
<circle cx="497.71000000000004" cy="207.0" r="9" fill="#ccc"/>
<text x="497.71000000000004" y="211.0" text-anchor="middle" fill="#666" font-family="monospace" font-size="9" font-weight="bold">1</text>
<rect x="280.0" y="70.0" width="200" height="44" fill="#e8e8e8" stroke="#999" stroke-width="2" rx="8"/>
<text x="380.0" y="88.0" text-anchor="middle" fill="#333" font-family="Arial,sans-serif" font-size="12" font-weight="bold">Output: Toxicity Probe</text>
<text x="380.0" y="102.0" text-anchor="middle" fill="#333" font-family="Arial,sans-serif" font-size="12" font-weight="bold">Classification</text>
<circle cx="462.0" cy="83.0" r="9" fill="#ccc"/>
<text x="462.0" y="87.0" text-anchor="middle" fill="#666" font-family="monospace" font-size="9" font-weight="bold">0</text>
<line x1="40" y1="760" x2="1348" y2="760" stroke="#ddd" stroke-width="1"/>
<text x="40" y="778" fill="#666" font-family="Arial,sans-serif" font-size="10" font-weight="bold" letter-spacing="1px">PROMPT</text>
<text x="40" y="796" fill="#333" font-family="monospace" font-size="11">"&lt;bos&gt;Self-hating liberal Jew - a stain on his brethren and his country."</text>
<text x="40" y="820" fill="#666" font-family="Arial,sans-serif" font-size="10" font-weight="bold" letter-spacing="1px">TOP OUTPUTS</text>
<rect x="40" y="825" width="100" height="20" fill="#e8e8e8" stroke="none" rx="6"/>
<text x="45" y="839" fill="#333" font-family="Arial,sans-serif" font-size="11" font-weight="bold">(empty) <tspan fill="#555" font-size="10">100%</tspan></text>
</svg>