<svg width="2590" height="1857" xmlns="http://www.w3.org/2000/svg">
<rect width="2590" height="1857" fill="#f5f5f5"/>
<rect x="15" y="15" width="2560" height="1827" fill="white" stroke="none" rx="12"/>
<text x="40" y="48" fill="#666" font-family="Arial,sans-serif" font-size="14" font-weight="bold" letter-spacing="1px">ATTRIBUTION CIRCUIT</text>
<text x="25" y="96.0" fill="#999" font-family="monospace" font-size="10" font-weight="bold" text-anchor="start">L36</text>
<text x="25" y="248.0" fill="#999" font-family="monospace" font-size="10" font-weight="bold" text-anchor="start">L19</text>
<text x="25" y="407.0" fill="#999" font-family="monospace" font-size="10" font-weight="bold" text-anchor="start">L17</text>
<text x="25" y="545.0" fill="#999" font-family="monospace" font-size="10" font-weight="bold" text-anchor="start">L15</text>
<text x="25" y="683.0" fill="#999" font-family="monospace" font-size="10" font-weight="bold" text-anchor="start">L14</text>
<text x="25" y="828.0" fill="#999" font-family="monospace" font-size="10" font-weight="bold" text-anchor="start">L6</text>
<text x="25" y="994.0" fill="#999" font-family="monospace" font-size="10" font-weight="bold" text-anchor="start">L4</text>
<text x="25" y="1160.0" fill="#999" font-family="monospace" font-size="10" font-weight="bold" text-anchor="start">L3</text>
<text x="25" y="1312.0" fill="#999" font-family="monospace" font-size="10" font-weight="bold" text-anchor="start">L2</text>
<text x="25" y="1464.0" fill="#999" font-family="monospace" font-size="10" font-weight="bold" text-anchor="start">L1</text>
<text x="25" y="1623.0" fill="#999" font-family="monospace" font-size="10" font-weight="bold" text-anchor="start">L0</text>
<defs><marker id="arrow" markerWidth="8" markerHeight="6" refX="8" refY="3" orient="auto"><polygon points="0,0 8,3 0,6" fill="#8B4513" fill-opacity="0.7"/></marker></defs>
<path d="M 180.0,1641.0 C 366.01124999999996,1608.5 1234.0637499999998,1608.5 1420.0749999999998,1576.0" fill="none" stroke="#8B4513" stroke-width="3" stroke-opacity="0.6" marker-end="url(#arrow)"/>
<path d="M 180.0,1597.0 C 184.53,1543.0 205.67,1543.0 210.2,1489.0" fill="none" stroke="#8B4513" stroke-width="3" stroke-opacity="0.6" marker-end="url(#arrow)"/>
<path d="M 180.0,1597.0 C 187.05675,1470.5 219.98825000000002,1470.5 227.04500000000002,1344.0" fill="none" stroke="#8B4513" stroke-width="3" stroke-opacity="0.6" marker-end="url(#arrow)"/>
<path d="M 180.0,1597.0 C 186.64350000000002,1391.0 217.6465,1391.0 224.29000000000002,1185.0" fill="none" stroke="#8B4513" stroke-width="3" stroke-opacity="0.6" marker-end="url(#arrow)"/>
<path d="M 180.0,1597.0 C 184.94325,1308.0 208.01174999999998,1308.0 212.95499999999998,1019.0" fill="none" stroke="#8B4513" stroke-width="3" stroke-opacity="0.6" marker-end="url(#arrow)"/>
<path d="M 180.0,1597.0 C 185.35649999999998,1228.5 210.3535,1228.5 215.70999999999998,860.0" fill="none" stroke="#8B4513" stroke-width="3" stroke-opacity="0.6" marker-end="url(#arrow)"/>
<path d="M 180.0,1597.0 C 210.0,1152.5 350.0,1152.5 380.0,708.0" fill="none" stroke="#8B4513" stroke-width="3" stroke-opacity="0.6" marker-end="url(#arrow)"/>
<path d="M 420.0,1597.0 C 481.1295,1543.0 766.4005,1543.0 827.53,1489.0" fill="none" stroke="#8B4513" stroke-width="3" stroke-opacity="0.6" marker-end="url(#arrow)"/>
<path d="M 420.0,1597.0 C 435.65625,1225.0 508.71875,1225.0 524.375,853.0" fill="none" stroke="#8B4513" stroke-width="3" stroke-opacity="0.6" marker-end="url(#arrow)"/>
<path d="M 660.04,1641.0 C 819.93175,1612.0 1566.0932499999997,1612.0 1725.9849999999997,1583.0" fill="none" stroke="#8B4513" stroke-width="3" stroke-opacity="0.6" marker-end="url(#arrow)"/>
<path d="M 660.04,1597.0 C 638.4504999999999,1546.5 537.6995,1546.5 516.1099999999999,1496.0" fill="none" stroke="#8B4513" stroke-width="3" stroke-opacity="0.6" marker-end="url(#arrow)"/>
<path d="M 660.04,1597.0 C 641.3905,1467.0 554.3595,1467.0 535.71,1337.0" fill="none" stroke="#8B4513" stroke-width="3" stroke-opacity="0.6" marker-end="url(#arrow)"/>
<path d="M 903.5999999999999,1597.0 C 848.4164999999999,1467.0 590.8935,1467.0 535.71,1337.0" fill="none" stroke="#8B4513" stroke-width="3" stroke-opacity="0.6" marker-end="url(#arrow)"/>
<path d="M 1147.12,1641.0 C 1279.8362499999998,1615.5 1899.1787499999996,1615.5 2031.8949999999995,1590.0" fill="none" stroke="#8B4513" stroke-width="3" stroke-opacity="0.6" marker-end="url(#arrow)"/>
<path d="M 1420.0749999999998,1576.0 C 1238.5937499999998,1532.5 391.68125,1532.5 210.2,1489.0" fill="none" stroke="#8B4513" stroke-width="3" stroke-opacity="0.6" marker-end="url(#arrow)"/>
<path d="M 1420.0749999999998,1576.0 C 1240.70725,1380.5 403.65774999999996,1380.5 224.29000000000002,1185.0" fill="none" stroke="#8B4513" stroke-width="3" stroke-opacity="0.6" marker-end="url(#arrow)"/>
<path d="M 1725.9849999999997,1583.0 C 1547.4437499999997,1460.0 714.25125,1460.0 535.71,1337.0" fill="none" stroke="#8B4513" stroke-width="3" stroke-opacity="0.6" marker-end="url(#arrow)"/>
<path d="M 1725.9849999999997,1583.0 C 1547.0304999999996,1387.5 711.9094999999999,1387.5 532.9549999999999,1192.0" fill="none" stroke="#8B4513" stroke-width="3" stroke-opacity="0.6" marker-end="url(#arrow)"/>
<path d="M 210.2,1431.0 C 212.3135,1308.0 222.1765,1308.0 224.29000000000002,1185.0" fill="none" stroke="#8B4513" stroke-width="3" stroke-opacity="0.6" marker-end="url(#arrow)"/>
<path d="M 210.2,1431.0 C 210.61325,1225.0 212.54174999999998,1225.0 212.95499999999998,1019.0" fill="none" stroke="#8B4513" stroke-width="3" stroke-opacity="0.6" marker-end="url(#arrow)"/>
<path d="M 516.1099999999999,1424.0 C 516.9364999999999,1232.0 520.7934999999999,1232.0 521.6199999999999,1040.0" fill="none" stroke="#8B4513" stroke-width="3" stroke-opacity="0.6" marker-end="url(#arrow)"/>
<path d="M 227.04500000000002,1272.0 C 226.63175,1228.5 224.70325000000003,1228.5 224.29000000000002,1185.0" fill="none" stroke="#8B4513" stroke-width="3" stroke-opacity="0.6" marker-end="url(#arrow)"/>
<path d="M 227.04500000000002,1272.0 C 224.9315,1145.5 215.0685,1145.5 212.95499999999998,1019.0" fill="none" stroke="#8B4513" stroke-width="3" stroke-opacity="0.6" marker-end="url(#arrow)"/>
<path d="M 535.71,1279.0 C 535.29675,1235.5 533.36825,1235.5 532.9549999999999,1192.0" fill="none" stroke="#8B4513" stroke-width="3" stroke-opacity="0.6" marker-end="url(#arrow)"/>
<path d="M 224.29000000000002,1127.0 C 222.58975,1073.0 214.65525,1073.0 212.95499999999998,1019.0" fill="none" stroke="#8B4513" stroke-width="3" stroke-opacity="0.6" marker-end="url(#arrow)"/>
<path d="M 224.29000000000002,1127.0 C 223.00300000000001,993.5 216.99699999999999,993.5 215.70999999999998,860.0" fill="none" stroke="#8B4513" stroke-width="3" stroke-opacity="0.6" marker-end="url(#arrow)"/>
<path d="M 532.9549999999999,1120.0 C 531.25475,1080.0 523.3202499999999,1080.0 521.6199999999999,1040.0" fill="none" stroke="#8B4513" stroke-width="3" stroke-opacity="0.6" marker-end="url(#arrow)"/>
<path d="M 212.95499999999998,961.0 C 213.36825,910.5 215.29674999999997,910.5 215.70999999999998,860.0" fill="none" stroke="#8B4513" stroke-width="3" stroke-opacity="0.6" marker-end="url(#arrow)"/>
<path d="M 521.6199999999999,940.0 C 475.73349999999994,900.0 261.5965,900.0 215.70999999999998,860.0" fill="none" stroke="#8B4513" stroke-width="3" stroke-opacity="0.6" marker-end="url(#arrow)"/>
<path d="M 521.6199999999999,940.0 C 500.3769999999999,686.0 401.243,686.0 380.0,432.0" fill="none" stroke="#8B4513" stroke-width="3" stroke-opacity="0.6" marker-end="url(#arrow)"/>
<path d="M 521.6199999999999,940.0 C 500.3769999999999,617.0 401.243,617.0 380.0,294.0" fill="none" stroke="#8B4513" stroke-width="3" stroke-opacity="0.6" marker-end="url(#arrow)"/>
<path d="M 1144.4599999999998,961.0 C 1029.791,696.5 494.669,696.5 380.0,432.0" fill="none" stroke="#8B4513" stroke-width="3" stroke-opacity="0.6" marker-end="url(#arrow)"/>
<path d="M 215.70999999999998,788.0 C 240.3535,748.0 355.3565,748.0 380.0,708.0" fill="none" stroke="#8B4513" stroke-width="3" stroke-opacity="0.6" marker-end="url(#arrow)"/>
<path d="M 215.70999999999998,788.0 C 240.3535,541.0 355.3565,541.0 380.0,294.0" fill="none" stroke="#8B4513" stroke-width="3" stroke-opacity="0.6" marker-end="url(#arrow)"/>
<path d="M 380.0,650.0 C 380.0,472.0 380.0,472.0 380.0,294.0" fill="none" stroke="#8B4513" stroke-width="3" stroke-opacity="0.6" marker-end="url(#arrow)"/>
<path d="M 380.0,374.0 C 380.0,334.0 380.0,334.0 380.0,294.0" fill="none" stroke="#8B4513" stroke-width="3" stroke-opacity="0.6" marker-end="url(#arrow)"/>
<path d="M 380.0,194.0 C 380.0,154.0 380.0,154.0 380.0,114.0" fill="none" stroke="#8B4513" stroke-width="3" stroke-opacity="0.6" marker-end="url(#arrow)"/>
<path d="M 380.0,650.0 C 380.0,382.0 380.0,382.0 380.0,114.0" fill="none" stroke="#8B4513" stroke-width="3" stroke-opacity="0.6" marker-end="url(#arrow)"/>
<path d="M 524.375,795.0 C 502.71875,454.5 401.65625,454.5 380.0,114.0" fill="none" stroke="#8B4513" stroke-width="3" stroke-opacity="0.6" marker-end="url(#arrow)"/>
<path d="M 215.70999999999998,788.0 C 240.3535,451.0 355.3565,451.0 380.0,114.0" fill="none" stroke="#8B4513" stroke-width="3" stroke-opacity="0.6" marker-end="url(#arrow)"/>
<path d="M 521.6199999999999,940.0 C 500.3769999999999,527.0 401.243,527.0 380.0,114.0" fill="none" stroke="#8B4513" stroke-width="3" stroke-opacity="0.6" marker-end="url(#arrow)"/>
<path d="M 833.04,961.0 C 765.084,537.5 447.956,537.5 380.0,114.0" fill="none" stroke="#8B4513" stroke-width="3" stroke-opacity="0.6" marker-end="url(#arrow)"/>
<path d="M 830.2849999999999,795.0 C 762.7422499999999,454.5 447.54274999999996,454.5 380.0,114.0" fill="none" stroke="#8B4513" stroke-width="3" stroke-opacity="0.6" marker-end="url(#arrow)"/>
<path d="M 380.0,512.0 C 380.0,313.0 380.0,313.0 380.0,114.0" fill="none" stroke="#8B4513" stroke-width="3" stroke-opacity="0.6" marker-end="url(#arrow)"/>
<path d="M 2031.8949999999995,1590.0 C 1784.1107499999996,852.0 627.7842499999999,852.0 380.0,114.0" fill="none" stroke="#8B4513" stroke-width="3" stroke-opacity="0.6" marker-end="url(#arrow)"/>
<path d="M 827.53,1431.0 C 760.4005,772.5 447.1295,772.5 380.0,114.0" fill="none" stroke="#8B4513" stroke-width="3" stroke-opacity="0.6" marker-end="url(#arrow)"/>
<path d="M 2337.8049999999994,1590.0 C 2044.1342499999996,852.0 673.6707499999999,852.0 380.0,114.0" fill="none" stroke="#8B4513" stroke-width="3" stroke-opacity="0.6" marker-end="url(#arrow)"/>
<rect x="80.0" y="1597.0" width="200" height="44" fill="#e8e8e8" stroke="#999" stroke-width="2" rx="8"/>
<text x="180.0" y="1615.0" text-anchor="middle" fill="#333" font-family="Arial,sans-serif" font-size="12" font-weight="bold">Emb: &#x27;eat&#x27; (pos 9)</text>
<circle cx="262.0" cy="1610.0" r="9" fill="#ccc"/>
<text x="262.0" y="1614.0" text-anchor="middle" fill="#666" font-family="monospace" font-size="9" font-weight="bold">0</text>
<rect x="320.0" y="1597.0" width="200" height="44" fill="#e8e8e8" stroke="#999" stroke-width="2" rx="8"/>
<text x="420.0" y="1615.0" text-anchor="middle" fill="#333" font-family="Arial,sans-serif" font-size="12" font-weight="bold">Emb: &#x27;clients&#x27; (pos 5)</text>
<circle cx="502.0" cy="1610.0" r="9" fill="#ccc"/>
<text x="502.0" y="1614.0" text-anchor="middle" fill="#666" font-family="monospace" font-size="9" font-weight="bold">0</text>
<rect x="560.0" y="1597.0" width="200.07999999999998" height="44" fill="#e8e8e8" stroke="#999" stroke-width="2" rx="8"/>
<text x="660.04" y="1615.0" text-anchor="middle" fill="#333" font-family="Arial,sans-serif" font-size="12" font-weight="bold">Emb: &#x27;Die[tetics]&#x27; (pos</text>
<text x="660.04" y="1629.0" text-anchor="middle" fill="#333" font-family="Arial,sans-serif" font-size="12" font-weight="bold">22)</text>
<circle cx="742.0799999999999" cy="1610.0" r="9" fill="#ccc"/>
<text x="742.0799999999999" y="1614.0" text-anchor="middle" fill="#666" font-family="monospace" font-size="9" font-weight="bold">0</text>
<rect x="800.0799999999999" y="1597.0" width="207.04" height="44" fill="#e8e8e8" stroke="#999" stroke-width="2" rx="8"/>
<text x="903.5999999999999" y="1615.0" text-anchor="middle" fill="#333" font-family="Arial,sans-serif" font-size="12" font-weight="bold">Emb: &#x27;te[tics]&#x27; (pos 23)</text>
<circle cx="989.1199999999999" cy="1610.0" r="9" fill="#ccc"/>
<text x="989.1199999999999" y="1614.0" text-anchor="middle" fill="#666" font-family="monospace" font-size="9" font-weight="bold">0</text>
<rect x="1047.12" y="1597.0" width="200" height="44" fill="#e8e8e8" stroke="#999" stroke-width="2" rx="8"/>
<text x="1147.12" y="1615.0" text-anchor="middle" fill="#333" font-family="Arial,sans-serif" font-size="12" font-weight="bold">Emb: &#x27;.&#x27; (pos 11) —</text>
<text x="1147.12" y="1629.0" text-anchor="middle" fill="#333" font-family="Arial,sans-serif" font-size="12" font-weight="bold">punctuation</text>
<circle cx="1229.12" cy="1610.0" r="9" fill="#ccc"/>
<text x="1229.12" y="1614.0" text-anchor="middle" fill="#666" font-family="monospace" font-size="9" font-weight="bold">0</text>
<rect x="1287.12" y="1576.0" width="265.90999999999997" height="86" fill="#e8e8e8" stroke="#999" stroke-width="2" rx="8"/>
<text x="1420.0749999999998" y="1594.0" text-anchor="middle" fill="#333" font-family="Arial,sans-serif" font-size="12" font-weight="bold">L0 &#x27;eat&#x27; lexical detectors</text>
<text x="1420.0749999999998" y="1612.0" text-anchor="middle" fill="#666" font-family="monospace" font-size="9">L0:F2175 — the word &quot;eat&quot;</text>
<text x="1420.0749999999998" y="1626.0" text-anchor="middle" fill="#666" font-family="monospace" font-size="9">L0:F9093 —  words related to eating, dini</text>
<text x="1420.0749999999998" y="1640.0" text-anchor="middle" fill="#666" font-family="monospace" font-size="9">L0:F11021 —  mentions of eating</text>
<circle cx="1535.0299999999997" cy="1589.0" r="9" fill="#ccc"/>
<text x="1535.0299999999997" y="1593.0" text-anchor="middle" fill="#666" font-family="monospace" font-size="9" font-weight="bold">3</text>
<rect x="1593.0299999999997" y="1583.0" width="265.90999999999997" height="72" fill="#e8e8e8" stroke="#999" stroke-width="2" rx="8"/>
<text x="1725.9849999999997" y="1601.0" text-anchor="middle" fill="#333" font-family="Arial,sans-serif" font-size="12" font-weight="bold">L0 &#x27;D&#x27;-initial / &#x27;die&#x27;</text>
<text x="1725.9849999999997" y="1615.0" text-anchor="middle" fill="#333" font-family="Arial,sans-serif" font-size="12" font-weight="bold">morphology detectors (pos</text>
<text x="1725.9849999999997" y="1629.0" text-anchor="middle" fill="#333" font-family="Arial,sans-serif" font-size="12" font-weight="bold">22)</text>
<text x="1725.9849999999997" y="1647.0" text-anchor="middle" fill="#666" font-family="monospace" font-size="9">L0:F7699 — words and abbreviations starti</text>
<text x="1725.9849999999997" y="1661.0" text-anchor="middle" fill="#666" font-family="monospace" font-size="9">L0:F4058 — the word &quot;die&quot; or its derivati</text>
<circle cx="1840.9399999999996" cy="1596.0" r="9" fill="#ccc"/>
<text x="1840.9399999999996" y="1600.0" text-anchor="middle" fill="#666" font-family="monospace" font-size="9" font-weight="bold">2</text>
<rect x="1898.9399999999996" y="1590.0" width="265.90999999999997" height="58" fill="#e8e8e8" stroke="#999" stroke-width="2" rx="8"/>
<text x="2031.8949999999995" y="1608.0" text-anchor="middle" fill="#333" font-family="Arial,sans-serif" font-size="12" font-weight="bold">L0 period/punctuation</text>
<text x="2031.8949999999995" y="1622.0" text-anchor="middle" fill="#333" font-family="Arial,sans-serif" font-size="12" font-weight="bold">detector (SUPPRESSES</text>
<text x="2031.8949999999995" y="1636.0" text-anchor="middle" fill="#333" font-family="Arial,sans-serif" font-size="12" font-weight="bold">probe)</text>
<text x="2031.8949999999995" y="1654.0" text-anchor="middle" fill="#666" font-family="monospace" font-size="9">L0:F6051 — periods, spaces, and the numbe</text>
<circle cx="2146.8499999999995" cy="1603.0" r="9" fill="#ccc"/>
<text x="2146.8499999999995" y="1607.0" text-anchor="middle" fill="#666" font-family="monospace" font-size="9" font-weight="bold">1</text>
<rect x="2204.8499999999995" y="1590.0" width="265.90999999999997" height="58" fill="#e8e8e8" stroke="#999" stroke-width="2" rx="8"/>
<text x="2337.8049999999994" y="1608.0" text-anchor="middle" fill="#333" font-family="Arial,sans-serif" font-size="12" font-weight="bold">L0 &#x27;educating&#x27; → formal</text>
<text x="2337.8049999999994" y="1622.0" text-anchor="middle" fill="#333" font-family="Arial,sans-serif" font-size="12" font-weight="bold">schooling (pos 3)</text>
<text x="2337.8049999999994" y="1640.0" text-anchor="middle" fill="#666" font-family="monospace" font-size="9">L0:F9888 —  words related to formal schoo</text>
<circle cx="2452.7599999999993" cy="1603.0" r="9" fill="#ccc"/>
<text x="2452.7599999999993" y="1607.0" text-anchor="middle" fill="#666" font-family="monospace" font-size="9" font-weight="bold">1</text>
<rect x="80.0" y="1431.0" width="260.4" height="58" fill="#e8e8e8" stroke="#999" stroke-width="2" rx="8"/>
<text x="210.2" y="1449.0" text-anchor="middle" fill="#333" font-family="Arial,sans-serif" font-size="12" font-weight="bold">L1 &#x27;eat&#x27; variations</text>
<text x="210.2" y="1463.0" text-anchor="middle" fill="#333" font-family="Arial,sans-serif" font-size="12" font-weight="bold">detector</text>
<text x="210.2" y="1481.0" text-anchor="middle" fill="#666" font-family="monospace" font-size="9">L1:F2750 —  variations of the word &quot;eat&quot;</text>
<circle cx="322.4" cy="1444.0" r="9" fill="#ccc"/>
<text x="322.4" y="1448.0" text-anchor="middle" fill="#666" font-family="monospace" font-size="9" font-weight="bold">1</text>
<rect x="380.3999999999999" y="1424.0" width="271.41999999999996" height="72" fill="#e8e8e8" stroke="#999" stroke-width="2" rx="8"/>
<text x="516.1099999999999" y="1442.0" text-anchor="middle" fill="#333" font-family="Arial,sans-serif" font-size="12" font-weight="bold">L1 health/fitness &amp;</text>
<text x="516.1099999999999" y="1456.0" text-anchor="middle" fill="#333" font-family="Arial,sans-serif" font-size="12" font-weight="bold">dietary patterns (pos 22,</text>
<text x="516.1099999999999" y="1470.0" text-anchor="middle" fill="#333" font-family="Arial,sans-serif" font-size="12" font-weight="bold">from Dietetics)</text>
<text x="516.1099999999999" y="1488.0" text-anchor="middle" fill="#666" font-family="monospace" font-size="9">L1:F11764 —  words and phrases related to </text>
<text x="516.1099999999999" y="1502.0" text-anchor="middle" fill="#666" font-family="monospace" font-size="9">L1:F6631 —  words related to dietary patt</text>
<circle cx="633.8199999999999" cy="1437.0" r="9" fill="#ccc"/>
<text x="633.8199999999999" y="1441.0" text-anchor="middle" fill="#666" font-family="monospace" font-size="9" font-weight="bold">2</text>
<rect x="691.8199999999999" y="1431.0" width="271.41999999999996" height="58" fill="#e8e8e8" stroke="#999" stroke-width="2" rx="8"/>
<text x="827.53" y="1449.0" text-anchor="middle" fill="#333" font-family="Arial,sans-serif" font-size="12" font-weight="bold">L1 &#x27;client&#x27; word detector</text>
<text x="827.53" y="1463.0" text-anchor="middle" fill="#333" font-family="Arial,sans-serif" font-size="12" font-weight="bold">(SUPPRESSES probe)</text>
<text x="827.53" y="1481.0" text-anchor="middle" fill="#666" font-family="monospace" font-size="9">L1:F15251 —  the word &quot;client&quot; and its plu</text>
<circle cx="945.2399999999999" cy="1444.0" r="9" fill="#ccc"/>
<text x="945.2399999999999" y="1448.0" text-anchor="middle" fill="#666" font-family="monospace" font-size="9" font-weight="bold">1</text>
<rect x="91.33500000000004" y="1272.0" width="271.41999999999996" height="72" fill="#e8e8e8" stroke="#999" stroke-width="2" rx="8"/>
<text x="227.04500000000002" y="1290.0" text-anchor="middle" fill="#333" font-family="Arial,sans-serif" font-size="12" font-weight="bold">L2 eating/food language</text>
<text x="227.04500000000002" y="1304.0" text-anchor="middle" fill="#333" font-family="Arial,sans-serif" font-size="12" font-weight="bold">refinement (pos 9)</text>
<text x="227.04500000000002" y="1322.0" text-anchor="middle" fill="#666" font-family="monospace" font-size="9">L2:F12264 — words associated with communic</text>
<text x="227.04500000000002" y="1336.0" text-anchor="middle" fill="#666" font-family="monospace" font-size="9">L2:F7196 —  language related to eating</text>
<circle cx="344.755" cy="1285.0" r="9" fill="#ccc"/>
<text x="344.755" y="1289.0" text-anchor="middle" fill="#666" font-family="monospace" font-size="9" font-weight="bold">2</text>
<rect x="402.75500000000005" y="1279.0" width="265.90999999999997" height="58" fill="#e8e8e8" stroke="#999" stroke-width="2" rx="8"/>
<text x="535.71" y="1297.0" text-anchor="middle" fill="#333" font-family="Arial,sans-serif" font-size="12" font-weight="bold">L2 morphological pattern:</text>
<text x="535.71" y="1311.0" text-anchor="middle" fill="#333" font-family="Arial,sans-serif" font-size="12" font-weight="bold">capitalized two-letter</text>
<text x="535.71" y="1325.0" text-anchor="middle" fill="#333" font-family="Arial,sans-serif" font-size="12" font-weight="bold">prefix/suffix (pos 23)</text>
<text x="535.71" y="1343.0" text-anchor="middle" fill="#666" font-family="monospace" font-size="9">L2:F7473 —  capitalized two letter prefix</text>
<circle cx="650.665" cy="1292.0" r="9" fill="#ccc"/>
<text x="650.665" y="1296.0" text-anchor="middle" fill="#666" font-family="monospace" font-size="9" font-weight="bold">1</text>
<rect x="91.33500000000004" y="1127.0" width="265.90999999999997" height="58" fill="#e8e8e8" stroke="#999" stroke-width="2" rx="8"/>
<text x="224.29000000000002" y="1145.0" text-anchor="middle" fill="#333" font-family="Arial,sans-serif" font-size="12" font-weight="bold">L3 &#x27;eat&#x27; and eating habits</text>
<text x="224.29000000000002" y="1159.0" text-anchor="middle" fill="#333" font-family="Arial,sans-serif" font-size="12" font-weight="bold">(pos 9)</text>
<text x="224.29000000000002" y="1177.0" text-anchor="middle" fill="#666" font-family="monospace" font-size="9">L3:F9216 —  the word &quot;eat&quot; and words rela</text>
<circle cx="339.245" cy="1140.0" r="9" fill="#ccc"/>
<text x="339.245" y="1144.0" text-anchor="middle" fill="#666" font-family="monospace" font-size="9" font-weight="bold">1</text>
<rect x="397.24499999999995" y="1120.0" width="271.41999999999996" height="72" fill="#e8e8e8" stroke="#999" stroke-width="2" rx="8"/>
<text x="532.9549999999999" y="1138.0" text-anchor="middle" fill="#333" font-family="Arial,sans-serif" font-size="12" font-weight="bold">L3 morpho-semantic bridges</text>
<text x="532.9549999999999" y="1152.0" text-anchor="middle" fill="#333" font-family="Arial,sans-serif" font-size="12" font-weight="bold">(pos 23, &#x27;recipes&#x27; /</text>
<text x="532.9549999999999" y="1166.0" text-anchor="middle" fill="#333" font-family="Arial,sans-serif" font-size="12" font-weight="bold">scientific)</text>
<text x="532.9549999999999" y="1184.0" text-anchor="middle" fill="#666" font-family="monospace" font-size="9">L3:F10028 — words or short phrases that in</text>
<text x="532.9549999999999" y="1198.0" text-anchor="middle" fill="#666" font-family="monospace" font-size="9">L3:F11774 —  what appears to be a smatteri</text>
<circle cx="650.665" cy="1133.0" r="9" fill="#ccc"/>
<text x="650.665" y="1137.0" text-anchor="middle" fill="#666" font-family="monospace" font-size="9" font-weight="bold">2</text>
<rect x="80.0" y="961.0" width="265.90999999999997" height="58" fill="#e8e8e8" stroke="#999" stroke-width="2" rx="8"/>
<text x="212.95499999999998" y="979.0" text-anchor="middle" fill="#333" font-family="Arial,sans-serif" font-size="12" font-weight="bold">L4 food consumption</text>
<text x="212.95499999999998" y="993.0" text-anchor="middle" fill="#333" font-family="Arial,sans-serif" font-size="12" font-weight="bold">context (pos 9)</text>
<text x="212.95499999999998" y="1011.0" text-anchor="middle" fill="#666" font-family="monospace" font-size="9">L4:F1626 —  phrases that occur in the con</text>
<circle cx="327.90999999999997" cy="974.0" r="9" fill="#ccc"/>
<text x="327.90999999999997" y="978.0" text-anchor="middle" fill="#666" font-family="monospace" font-size="9" font-weight="bold">1</text>
<rect x="385.9099999999999" y="940.0" width="271.41999999999996" height="100" fill="#e8e8e8" stroke="#999" stroke-width="2" rx="8"/>
<text x="521.6199999999999" y="958.0" text-anchor="middle" fill="#333" font-family="Arial,sans-serif" font-size="12" font-weight="bold">L4 diet/dietary health</text>
<text x="521.6199999999999" y="972.0" text-anchor="middle" fill="#333" font-family="Arial,sans-serif" font-size="12" font-weight="bold">(fires at multiple</text>
<text x="521.6199999999999" y="986.0" text-anchor="middle" fill="#333" font-family="Arial,sans-serif" font-size="12" font-weight="bold">positions)</text>
<text x="521.6199999999999" y="1004.0" text-anchor="middle" fill="#666" font-family="monospace" font-size="9">L4:F13412 —  terms related to diets and di</text>
<text x="521.6199999999999" y="1018.0" text-anchor="middle" fill="#666" font-family="monospace" font-size="9">L4:F13412 —  terms related to diets and di</text>
<text x="521.6199999999999" y="1032.0" text-anchor="middle" fill="#666" font-family="monospace" font-size="9">L4:F13412 —  terms related to diets and di</text>
<text x="521.6199999999999" y="1046.0" text-anchor="middle" fill="#666" font-family="monospace" font-size="9">L4:F13412 —  terms related to diets and di</text>
<circle cx="639.3299999999999" cy="953.0" r="9" fill="#ccc"/>
<text x="639.3299999999999" y="957.0" text-anchor="middle" fill="#666" font-family="monospace" font-size="9" font-weight="bold">4</text>
<rect x="697.3299999999999" y="961.0" width="271.41999999999996" height="58" fill="#e8e8e8" stroke="#999" stroke-width="2" rx="8"/>
<text x="833.04" y="979.0" text-anchor="middle" fill="#333" font-family="Arial,sans-serif" font-size="12" font-weight="bold">L4 health research (pos</text>
<text x="833.04" y="993.0" text-anchor="middle" fill="#333" font-family="Arial,sans-serif" font-size="12" font-weight="bold">10, &#x27;healthier&#x27;)</text>
<text x="833.04" y="1011.0" text-anchor="middle" fill="#666" font-family="monospace" font-size="9">L4:F12213 — strings of letters followed by</text>
<circle cx="950.7499999999999" cy="974.0" r="9" fill="#ccc"/>
<text x="950.7499999999999" y="978.0" text-anchor="middle" fill="#666" font-family="monospace" font-size="9" font-weight="bold">1</text>
<rect x="1008.7499999999998" y="961.0" width="271.41999999999996" height="58" fill="#e8e8e8" stroke="#999" stroke-width="2" rx="8"/>
<text x="1144.4599999999998" y="979.0" text-anchor="middle" fill="#333" font-family="Arial,sans-serif" font-size="12" font-weight="bold">L4</text>
<text x="1144.4599999999998" y="993.0" text-anchor="middle" fill="#333" font-family="Arial,sans-serif" font-size="12" font-weight="bold">counseling/therapy/social</text>
<text x="1144.4599999999998" y="1007.0" text-anchor="middle" fill="#333" font-family="Arial,sans-serif" font-size="12" font-weight="bold">work (pos 23)</text>
<text x="1144.4599999999998" y="1025.0" text-anchor="middle" fill="#666" font-family="monospace" font-size="9">L4:F11037 —  words related to counseling, </text>
<circle cx="1262.1699999999996" cy="974.0" r="9" fill="#ccc"/>
<text x="1262.1699999999996" y="978.0" text-anchor="middle" fill="#666" font-family="monospace" font-size="9" font-weight="bold">1</text>
<rect x="80.0" y="788.0" width="271.41999999999996" height="72" fill="#e8e8e8" stroke="#999" stroke-width="2" rx="8"/>
<text x="215.70999999999998" y="806.0" text-anchor="middle" fill="#333" font-family="Arial,sans-serif" font-size="12" font-weight="bold">L6 food/nutrition words</text>
<text x="215.70999999999998" y="820.0" text-anchor="middle" fill="#333" font-family="Arial,sans-serif" font-size="12" font-weight="bold">(pos 9, 23)</text>
<text x="215.70999999999998" y="838.0" text-anchor="middle" fill="#666" font-family="monospace" font-size="9">L6:F11327 —  words or phrases related to f</text>
<text x="215.70999999999998" y="852.0" text-anchor="middle" fill="#666" font-family="monospace" font-size="9">L6:F11327 —  words or phrases related to f</text>
<circle cx="333.41999999999996" cy="801.0" r="9" fill="#ccc"/>
<text x="333.41999999999996" y="805.0" text-anchor="middle" fill="#666" font-family="monospace" font-size="9" font-weight="bold">2</text>
<rect x="391.42" y="795.0" width="265.90999999999997" height="58" fill="#e8e8e8" stroke="#999" stroke-width="2" rx="8"/>
<text x="524.375" y="813.0" text-anchor="middle" fill="#333" font-family="Arial,sans-serif" font-size="12" font-weight="bold">L6 commercial</text>
<text x="524.375" y="827.0" text-anchor="middle" fill="#333" font-family="Arial,sans-serif" font-size="12" font-weight="bold">activity/customers (pos 5)</text>
<text x="524.375" y="845.0" text-anchor="middle" fill="#666" font-family="monospace" font-size="9">L6:F6115 —  words related to commercial a</text>
<circle cx="639.3299999999999" cy="808.0" r="9" fill="#ccc"/>
<text x="639.3299999999999" y="812.0" text-anchor="middle" fill="#666" font-family="monospace" font-size="9" font-weight="bold">1</text>
<rect x="697.3299999999999" y="795.0" width="265.90999999999997" height="58" fill="#e8e8e8" stroke="#999" stroke-width="2" rx="8"/>
<text x="830.2849999999999" y="813.0" text-anchor="middle" fill="#333" font-family="Arial,sans-serif" font-size="12" font-weight="bold">L6 health-related words</text>
<text x="830.2849999999999" y="827.0" text-anchor="middle" fill="#333" font-family="Arial,sans-serif" font-size="12" font-weight="bold">(pos 10)</text>
<text x="830.2849999999999" y="845.0" text-anchor="middle" fill="#666" font-family="monospace" font-size="9">L6:F8984 —  words and phrases related to </text>
<circle cx="945.2399999999999" cy="808.0" r="9" fill="#ccc"/>
<text x="945.2399999999999" y="812.0" text-anchor="middle" fill="#666" font-family="monospace" font-size="9" font-weight="bold">1</text>
<rect x="244.29000000000002" y="650.0" width="271.41999999999996" height="58" fill="#e8e8e8" stroke="#999" stroke-width="2" rx="8"/>
<text x="380.0" y="668.0" text-anchor="middle" fill="#333" font-family="Arial,sans-serif" font-size="12" font-weight="bold">L14 food/food insecurity</text>
<text x="380.0" y="682.0" text-anchor="middle" fill="#333" font-family="Arial,sans-serif" font-size="12" font-weight="bold">(pos 9)</text>
<text x="380.0" y="700.0" text-anchor="middle" fill="#666" font-family="monospace" font-size="9">L14:F4197 —  words and phrases related to </text>
<circle cx="497.71000000000004" cy="663.0" r="9" fill="#ccc"/>
<text x="497.71000000000004" y="667.0" text-anchor="middle" fill="#666" font-family="monospace" font-size="9" font-weight="bold">1</text>
<rect x="249.8" y="512.0" width="260.4" height="58" fill="#e8e8e8" stroke="#999" stroke-width="2" rx="8"/>
<text x="380.0" y="530.0" text-anchor="middle" fill="#333" font-family="Arial,sans-serif" font-size="12" font-weight="bold">L15 eating-associated</text>
<text x="380.0" y="544.0" text-anchor="middle" fill="#333" font-family="Arial,sans-serif" font-size="12" font-weight="bold">words (pos 9)</text>
<text x="380.0" y="562.0" text-anchor="middle" fill="#666" font-family="monospace" font-size="9">L15:F8177 — words associated with eating</text>
<circle cx="492.2" cy="525.0" r="9" fill="#ccc"/>
<text x="492.2" y="529.0" text-anchor="middle" fill="#666" font-family="monospace" font-size="9" font-weight="bold">1</text>
<rect x="244.29000000000002" y="374.0" width="271.41999999999996" height="58" fill="#e8e8e8" stroke="#999" stroke-width="2" rx="8"/>
<text x="380.0" y="392.0" text-anchor="middle" fill="#333" font-family="Arial,sans-serif" font-size="12" font-weight="bold">L17 registered healthcare</text>
<text x="380.0" y="406.0" text-anchor="middle" fill="#333" font-family="Arial,sans-serif" font-size="12" font-weight="bold">professionals (pos 23)</text>
<text x="380.0" y="424.0" text-anchor="middle" fill="#666" font-family="monospace" font-size="9">L17:F7545 — mentions of architecture, desi</text>
<circle cx="497.71000000000004" cy="387.0" r="9" fill="#ccc"/>
<text x="497.71000000000004" y="391.0" text-anchor="middle" fill="#666" font-family="monospace" font-size="9" font-weight="bold">1</text>
<rect x="244.29000000000002" y="194.0" width="271.41999999999996" height="100" fill="#e8e8e8" stroke="#999" stroke-width="2" rx="8"/>
<text x="380.0" y="212.0" text-anchor="middle" fill="#333" font-family="Arial,sans-serif" font-size="12" font-weight="bold">L19 nutritional science</text>
<text x="380.0" y="226.0" text-anchor="middle" fill="#333" font-family="Arial,sans-serif" font-size="12" font-weight="bold">context (pos 20, 22, 23,</text>
<text x="380.0" y="240.0" text-anchor="middle" fill="#333" font-family="Arial,sans-serif" font-size="12" font-weight="bold">35)</text>
<text x="380.0" y="258.0" text-anchor="middle" fill="#666" font-family="monospace" font-size="9">L19:F1589 —  a context of scientific, spec</text>
<text x="380.0" y="272.0" text-anchor="middle" fill="#666" font-family="monospace" font-size="9">L19:F1589 —  a context of scientific, spec</text>
<text x="380.0" y="286.0" text-anchor="middle" fill="#666" font-family="monospace" font-size="9">L19:F1589 —  a context of scientific, spec</text>
<text x="380.0" y="300.0" text-anchor="middle" fill="#666" font-family="monospace" font-size="9">L19:F1589 —  a context of scientific, spec</text>
<circle cx="497.71000000000004" cy="207.0" r="9" fill="#ccc"/>
<text x="497.71000000000004" y="211.0" text-anchor="middle" fill="#666" font-family="monospace" font-size="9" font-weight="bold">4</text>
<rect x="269.52" y="70.0" width="220.95999999999998" height="44" fill="#e8e8e8" stroke="#999" stroke-width="2" rx="8"/>
<text x="380.0" y="88.0" text-anchor="middle" fill="#333" font-family="Arial,sans-serif" font-size="12" font-weight="bold">Probe classification score</text>
<text x="380.0" y="102.0" text-anchor="middle" fill="#333" font-family="Arial,sans-serif" font-size="12" font-weight="bold">(dietitian)</text>
<circle cx="472.47999999999996" cy="83.0" r="9" fill="#ccc"/>
<text x="472.47999999999996" y="87.0" text-anchor="middle" fill="#666" font-family="monospace" font-size="9" font-weight="bold">0</text>
<line x1="40" y1="1742" x2="2550" y2="1742" stroke="#ddd" stroke-width="1"/>
<text x="40" y="1760" fill="#666" font-family="Arial,sans-serif" font-size="10" font-weight="bold" letter-spacing="1px">PROMPT</text>
<text x="40" y="1778" fill="#333" font-family="monospace" font-size="11">"&lt;bos&gt;She loves educating her clients on how to eat healthier. Sarah is a member of the Academy of Nutrition and Dietetic"</text>
<text x="40" y="1802" fill="#666" font-family="Arial,sans-serif" font-size="10" font-weight="bold" letter-spacing="1px">TOP OUTPUTS</text>
<rect x="40" y="1807" width="100" height="20" fill="#e8e8e8" stroke="none" rx="6"/>
<text x="45" y="1821" fill="#333" font-family="Arial,sans-serif" font-size="11" font-weight="bold">(empty) <tspan fill="#555" font-size="10">100%</tspan></text>
</svg>