<svg width="2691" height="1137" xmlns="http://www.w3.org/2000/svg">
<rect width="2691" height="1137" fill="#f5f5f5"/>
<rect x="15" y="15" width="2661" height="1107" fill="white" stroke="none" rx="12"/>
<text x="40" y="48" fill="#666" font-family="Arial,sans-serif" font-size="14" font-weight="bold" letter-spacing="1px">ATTRIBUTION CIRCUIT</text>
<text x="25" y="96.0" fill="#999" font-family="monospace" font-size="10" font-weight="bold" text-anchor="start">L36</text>
<text x="25" y="227.0" fill="#999" font-family="monospace" font-size="10" font-weight="bold" text-anchor="start">L8</text>
<text x="25" y="365.0" fill="#999" font-family="monospace" font-size="10" font-weight="bold" text-anchor="start">L4</text>
<text x="25" y="503.0" fill="#999" font-family="monospace" font-size="10" font-weight="bold" text-anchor="start">L3</text>
<text x="25" y="641.0" fill="#999" font-family="monospace" font-size="10" font-weight="bold" text-anchor="start">L2</text>
<text x="25" y="779.0" fill="#999" font-family="monospace" font-size="10" font-weight="bold" text-anchor="start">L1</text>
<text x="25" y="917.0" fill="#999" font-family="monospace" font-size="10" font-weight="bold" text-anchor="start">L0</text>
<defs><marker id="arrow" markerWidth="8" markerHeight="6" refX="8" refY="3" orient="auto"><polygon points="0,0 8,3 0,6" fill="#8B4513" fill-opacity="0.7"/></marker></defs>
<path d="M 212.95499999999998,884.0 C 238.01174999999998,499.0 354.94325,499.0 380.0,114.0" fill="none" stroke="#8B4513" stroke-width="3" stroke-opacity="0.6" marker-end="url(#arrow)"/>
<path d="M 518.865,884.0 C 498.03525,499.0 400.82975,499.0 380.0,114.0" fill="none" stroke="#8B4513" stroke-width="3" stroke-opacity="0.6" marker-end="url(#arrow)"/>
<path d="M 791.8599999999999,884.0 C 730.0809999999999,499.0 441.779,499.0 380.0,114.0" fill="none" stroke="#8B4513" stroke-width="3" stroke-opacity="0.6" marker-end="url(#arrow)"/>
<path d="M 227.04500000000002,332.0 C 249.98825000000002,223.0 357.05675,223.0 380.0,114.0" fill="none" stroke="#8B4513" stroke-width="3" stroke-opacity="0.6" marker-end="url(#arrow)"/>
<path d="M 380.0,194.0 C 380.0,154.0 380.0,154.0 380.0,114.0" fill="none" stroke="#8B4513" stroke-width="3" stroke-opacity="0.6" marker-end="url(#arrow)"/>
<path d="M 187.0,608.0 C 215.95,361.0 351.05,361.0 380.0,114.0" fill="none" stroke="#8B4513" stroke-width="3" stroke-opacity="0.6" marker-end="url(#arrow)"/>
<path d="M 380.0,470.0 C 380.0,292.0 380.0,292.0 380.0,114.0" fill="none" stroke="#8B4513" stroke-width="3" stroke-opacity="0.6" marker-end="url(#arrow)"/>
<path d="M 535.71,332.0 C 512.3535,223.0 403.3565,223.0 380.0,114.0" fill="none" stroke="#8B4513" stroke-width="3" stroke-opacity="0.6" marker-end="url(#arrow)"/>
<path d="M 469.71,608.0 C 456.2535,361.0 393.4565,361.0 380.0,114.0" fill="none" stroke="#8B4513" stroke-width="3" stroke-opacity="0.6" marker-end="url(#arrow)"/>
<path d="M 380.0,746.0 C 380.0,430.0 380.0,430.0 380.0,114.0" fill="none" stroke="#8B4513" stroke-width="3" stroke-opacity="0.6" marker-end="url(#arrow)"/>
<path d="M 1271.8999999999999,935.0 C 1113.0582499999998,909.5 371.79675,909.5 212.95499999999998,884.0" fill="none" stroke="#8B4513" stroke-width="3" stroke-opacity="0.6" marker-end="url(#arrow)"/>
<path d="M 1751.8999999999999,935.0 C 1566.9447499999999,909.5 703.82025,909.5 518.865,884.0" fill="none" stroke="#8B4513" stroke-width="3" stroke-opacity="0.6" marker-end="url(#arrow)"/>
<path d="M 2231.8999999999996,935.0 C 2015.8939999999998,909.5 1007.8659999999999,909.5 791.8599999999999,884.0" fill="none" stroke="#8B4513" stroke-width="3" stroke-opacity="0.6" marker-end="url(#arrow)"/>
<path d="M 1031.8999999999999,891.0 C 911.1717499999999,640.5 347.77324999999996,640.5 227.04500000000002,390.0" fill="none" stroke="#8B4513" stroke-width="3" stroke-opacity="0.6" marker-end="url(#arrow)"/>
<path d="M 1031.8999999999999,891.0 C 994.2844999999999,778.5 818.7454999999999,778.5 781.1299999999999,666.0" fill="none" stroke="#8B4513" stroke-width="3" stroke-opacity="0.6" marker-end="url(#arrow)"/>
<path d="M 2471.8999999999996,891.0 C 2158.115,571.5 693.7849999999999,571.5 380.0,252.0" fill="none" stroke="#8B4513" stroke-width="3" stroke-opacity="0.6" marker-end="url(#arrow)"/>
<path d="M 1511.8999999999999,891.0 C 1313.165,778.5 385.735,778.5 187.0,666.0" fill="none" stroke="#8B4513" stroke-width="3" stroke-opacity="0.6" marker-end="url(#arrow)"/>
<path d="M 1511.8999999999999,891.0 C 1365.4714999999999,640.5 682.1385,640.5 535.71,390.0" fill="none" stroke="#8B4513" stroke-width="3" stroke-opacity="0.6" marker-end="url(#arrow)"/>
<path d="M 1751.8999999999999,891.0 C 1517.165,778.5 421.73499999999996,778.5 187.0,666.0" fill="none" stroke="#8B4513" stroke-width="3" stroke-opacity="0.6" marker-end="url(#arrow)"/>
<path d="M 1751.8999999999999,891.0 C 1546.1149999999998,709.5 585.785,709.5 380.0,528.0" fill="none" stroke="#8B4513" stroke-width="3" stroke-opacity="0.6" marker-end="url(#arrow)"/>
<path d="M 1991.8999999999999,891.0 C 1763.5715,778.5 698.0384999999999,778.5 469.71,666.0" fill="none" stroke="#8B4513" stroke-width="3" stroke-opacity="0.6" marker-end="url(#arrow)"/>
<path d="M 1991.8999999999999,891.0 C 1750.1149999999998,847.5 621.785,847.5 380.0,804.0" fill="none" stroke="#8B4513" stroke-width="3" stroke-opacity="0.6" marker-end="url(#arrow)"/>
<path d="M 781.1299999999999,608.0 C 698.0172499999999,499.0 310.15774999999996,499.0 227.04500000000002,390.0" fill="none" stroke="#8B4513" stroke-width="3" stroke-opacity="0.6" marker-end="url(#arrow)"/>
<rect x="280.0" y="70.0" width="200" height="44" fill="#e8e8e8" stroke="#999" stroke-width="2" rx="8"/>
<text x="380.0" y="88.0" text-anchor="middle" fill="#333" font-family="Arial,sans-serif" font-size="12" font-weight="bold">Output: Probe</text>
<text x="380.0" y="102.0" text-anchor="middle" fill="#333" font-family="Arial,sans-serif" font-size="12" font-weight="bold">Classification Score</text>
<circle cx="462.0" cy="83.0" r="9" fill="#ccc"/>
<text x="462.0" y="87.0" text-anchor="middle" fill="#666" font-family="monospace" font-size="9" font-weight="bold">0</text>
<rect x="80.0" y="884.0" width="265.90999999999997" height="58" fill="#e8e8e8" stroke="#999" stroke-width="2" rx="8"/>
<text x="212.95499999999998" y="902.0" text-anchor="middle" fill="#333" font-family="Arial,sans-serif" font-size="12" font-weight="bold">Pronoun &#x27;they&#x27; Detection</text>
<text x="212.95499999999998" y="920.0" text-anchor="middle" fill="#666" font-family="monospace" font-size="9">L0:F3498 —  the pronoun &quot;they&quot; or its pos</text>
<circle cx="327.90999999999997" cy="897.0" r="9" fill="#ccc"/>
<text x="327.90999999999997" y="901.0" text-anchor="middle" fill="#666" font-family="monospace" font-size="9" font-weight="bold">1</text>
<rect x="385.91" y="884.0" width="265.90999999999997" height="58" fill="#e8e8e8" stroke="#999" stroke-width="2" rx="8"/>
<text x="518.865" y="902.0" text-anchor="middle" fill="#333" font-family="Arial,sans-serif" font-size="12" font-weight="bold">&#x27;about&#x27; Detection (numeric</text>
<text x="518.865" y="916.0" text-anchor="middle" fill="#333" font-family="Arial,sans-serif" font-size="12" font-weight="bold">context)</text>
<text x="518.865" y="934.0" text-anchor="middle" fill="#666" font-family="monospace" font-size="9">L0:F2238 —  the word &quot;about&quot; when followe</text>
<circle cx="633.8199999999999" cy="897.0" r="9" fill="#ccc"/>
<text x="633.8199999999999" y="901.0" text-anchor="middle" fill="#666" font-family="monospace" font-size="9" font-weight="bold">1</text>
<rect x="691.8199999999999" y="884.0" width="200.07999999999998" height="58" fill="#e8e8e8" stroke="#999" stroke-width="2" rx="8"/>
<text x="791.8599999999999" y="902.0" text-anchor="middle" fill="#333" font-family="Arial,sans-serif" font-size="12" font-weight="bold">&#x27;to&#x27; Detection (archaic</text>
<text x="791.8599999999999" y="916.0" text-anchor="middle" fill="#333" font-family="Arial,sans-serif" font-size="12" font-weight="bold">context)</text>
<text x="791.8599999999999" y="934.0" text-anchor="middle" fill="#666" font-family="monospace" font-size="9">L0:F8444 — the word &quot;to&quot;</text>
<circle cx="873.8999999999999" cy="897.0" r="9" fill="#ccc"/>
<text x="873.8999999999999" y="901.0" text-anchor="middle" fill="#666" font-family="monospace" font-size="9" font-weight="bold">1</text>
<rect x="91.33500000000004" y="332.0" width="271.41999999999996" height="58" fill="#e8e8e8" stroke="#999" stroke-width="2" rx="8"/>
<text x="227.04500000000002" y="350.0" text-anchor="middle" fill="#333" font-family="Arial,sans-serif" font-size="12" font-weight="bold">Transitional Words (&#x27;So&#x27;,</text>
<text x="227.04500000000002" y="364.0" text-anchor="middle" fill="#333" font-family="Arial,sans-serif" font-size="12" font-weight="bold">&#x27;therefore&#x27;, &#x27;hence&#x27;)</text>
<text x="227.04500000000002" y="382.0" text-anchor="middle" fill="#666" font-family="monospace" font-size="9">L4:F12225 —  transitional conclusion words</text>
<circle cx="344.755" cy="345.0" r="9" fill="#ccc"/>
<text x="344.755" y="349.0" text-anchor="middle" fill="#666" font-family="monospace" font-size="9" font-weight="bold">1</text>
<rect x="247.04500000000002" y="194.0" width="265.90999999999997" height="58" fill="#e8e8e8" stroke="#999" stroke-width="2" rx="8"/>
<text x="380.0" y="212.0" text-anchor="middle" fill="#333" font-family="Arial,sans-serif" font-size="12" font-weight="bold">Code Documentation</text>
<text x="380.0" y="226.0" text-anchor="middle" fill="#333" font-family="Arial,sans-serif" font-size="12" font-weight="bold">Patterns (I, Exactly)</text>
<text x="380.0" y="244.0" text-anchor="middle" fill="#666" font-family="monospace" font-size="9">L8:F8406 — the first-person pronoun &quot;I&quot; a</text>
<circle cx="494.9549999999999" cy="207.0" r="9" fill="#ccc"/>
<text x="494.9549999999999" y="211.0" text-anchor="middle" fill="#666" font-family="monospace" font-size="9" font-weight="bold">1</text>
<rect x="80.0" y="608.0" width="214.0" height="58" fill="#e8e8e8" stroke="#999" stroke-width="2" rx="8"/>
<text x="187.0" y="626.0" text-anchor="middle" fill="#333" font-family="Arial,sans-serif" font-size="12" font-weight="bold">General &#x27;about&#x27; Detection</text>
<text x="187.0" y="644.0" text-anchor="middle" fill="#666" font-family="monospace" font-size="9">L2:F15312 —  the word &quot;about.&quot;</text>
<circle cx="276.0" cy="621.0" r="9" fill="#ccc"/>
<text x="276.0" y="625.0" text-anchor="middle" fill="#666" font-family="monospace" font-size="9" font-weight="bold">1</text>
<rect x="280.0" y="470.0" width="200" height="58" fill="#e8e8e8" stroke="#999" stroke-width="2" rx="8"/>
<text x="380.0" y="488.0" text-anchor="middle" fill="#333" font-family="Arial,sans-serif" font-size="12" font-weight="bold">&#x27;about&#x27; Layer 3</text>
<text x="380.0" y="506.0" text-anchor="middle" fill="#666" font-family="monospace" font-size="9">L3:F4464 —  the word &quot;about&quot;</text>
<circle cx="462.0" cy="483.0" r="9" fill="#ccc"/>
<text x="462.0" y="487.0" text-anchor="middle" fill="#666" font-family="monospace" font-size="9" font-weight="bold">1</text>
<rect x="402.75500000000005" y="332.0" width="265.90999999999997" height="58" fill="#e8e8e8" stroke="#999" stroke-width="2" rx="8"/>
<text x="535.71" y="350.0" text-anchor="middle" fill="#333" font-family="Arial,sans-serif" font-size="12" font-weight="bold">&#x27;begin/start&#x27; Detection</text>
<text x="535.71" y="364.0" text-anchor="middle" fill="#333" font-family="Arial,sans-serif" font-size="12" font-weight="bold">(code)</text>
<text x="535.71" y="382.0" text-anchor="middle" fill="#666" font-family="monospace" font-size="9">L4:F5450 —  code snippets from different </text>
<circle cx="650.665" cy="345.0" r="9" fill="#ccc"/>
<text x="650.665" y="349.0" text-anchor="middle" fill="#666" font-family="monospace" font-size="9" font-weight="bold">1</text>
<rect x="334.0" y="608.0" width="271.41999999999996" height="58" fill="#e8e8e8" stroke="#999" stroke-width="2" rx="8"/>
<text x="469.71" y="626.0" text-anchor="middle" fill="#333" font-family="Arial,sans-serif" font-size="12" font-weight="bold">&#x27;land&#x27;</text>
<text x="469.71" y="640.0" text-anchor="middle" fill="#333" font-family="Arial,sans-serif" font-size="12" font-weight="bold">Scientific/Agricultural</text>
<text x="469.71" y="658.0" text-anchor="middle" fill="#666" font-family="monospace" font-size="9">L2:F11518 —  the word &quot;land&quot; in scientific</text>
<circle cx="587.42" cy="621.0" r="9" fill="#ccc"/>
<text x="587.42" y="625.0" text-anchor="middle" fill="#666" font-family="monospace" font-size="9" font-weight="bold">1</text>
<rect x="280.0" y="746.0" width="200" height="58" fill="#e8e8e8" stroke="#999" stroke-width="2" rx="8"/>
<text x="380.0" y="764.0" text-anchor="middle" fill="#333" font-family="Arial,sans-serif" font-size="12" font-weight="bold">&#x27;land&#x27; Basic Detection</text>
<text x="380.0" y="782.0" text-anchor="middle" fill="#666" font-family="monospace" font-size="9">L1:F461 —  the word &quot;land&quot;</text>
<circle cx="462.0" cy="759.0" r="9" fill="#ccc"/>
<text x="462.0" y="763.0" text-anchor="middle" fill="#666" font-family="monospace" font-size="9" font-weight="bold">1</text>
<rect x="645.4199999999998" y="608.0" width="271.41999999999996" height="58" fill="#e8e8e8" stroke="#999" stroke-width="2" rx="8"/>
<text x="781.1299999999999" y="626.0" text-anchor="middle" fill="#333" font-family="Arial,sans-serif" font-size="12" font-weight="bold">&#x27;SO&#x27; Abbreviation</text>
<text x="781.1299999999999" y="640.0" text-anchor="middle" fill="#333" font-family="Arial,sans-serif" font-size="12" font-weight="bold">Detection</text>
<text x="781.1299999999999" y="658.0" text-anchor="middle" fill="#666" font-family="monospace" font-size="9">L2:F14822 —  the abbreviation &quot;SO&quot; followe</text>
<circle cx="898.8399999999998" cy="621.0" r="9" fill="#ccc"/>
<text x="898.8399999999998" y="625.0" text-anchor="middle" fill="#666" font-family="monospace" font-size="9" font-weight="bold">1</text>
<rect x="931.8999999999999" y="891.0" width="200" height="44" fill="#e8e8e8" stroke="#999" stroke-width="2" rx="8"/>
<text x="1031.8999999999999" y="909.0" text-anchor="middle" fill="#333" font-family="Arial,sans-serif" font-size="12" font-weight="bold">Emb: &#x27;So&#x27; (pos 1)</text>
<circle cx="1113.8999999999999" cy="904.0" r="9" fill="#ccc"/>
<text x="1113.8999999999999" y="908.0" text-anchor="middle" fill="#666" font-family="monospace" font-size="9" font-weight="bold">0</text>
<rect x="1171.8999999999999" y="891.0" width="200" height="44" fill="#e8e8e8" stroke="#999" stroke-width="2" rx="8"/>
<text x="1271.8999999999999" y="909.0" text-anchor="middle" fill="#333" font-family="Arial,sans-serif" font-size="12" font-weight="bold">Emb: &#x27;they&#x27; (pos 2)</text>
<circle cx="1353.8999999999999" cy="904.0" r="9" fill="#ccc"/>
<text x="1353.8999999999999" y="908.0" text-anchor="middle" fill="#666" font-family="monospace" font-size="9" font-weight="bold">0</text>
<rect x="1411.8999999999999" y="891.0" width="200" height="44" fill="#e8e8e8" stroke="#999" stroke-width="2" rx="8"/>
<text x="1511.8999999999999" y="909.0" text-anchor="middle" fill="#333" font-family="Arial,sans-serif" font-size="12" font-weight="bold">Emb: &#x27;set&#x27; (pos 3)</text>
<circle cx="1593.8999999999999" cy="904.0" r="9" fill="#ccc"/>
<text x="1593.8999999999999" y="908.0" text-anchor="middle" fill="#666" font-family="monospace" font-size="9" font-weight="bold">0</text>
<rect x="1651.8999999999999" y="891.0" width="200" height="44" fill="#e8e8e8" stroke="#999" stroke-width="2" rx="8"/>
<text x="1751.8999999999999" y="909.0" text-anchor="middle" fill="#333" font-family="Arial,sans-serif" font-size="12" font-weight="bold">Emb: &#x27;about&#x27; (pos 4)</text>
<circle cx="1833.8999999999999" cy="904.0" r="9" fill="#ccc"/>
<text x="1833.8999999999999" y="908.0" text-anchor="middle" fill="#666" font-family="monospace" font-size="9" font-weight="bold">0</text>
<rect x="1891.8999999999999" y="891.0" width="200" height="44" fill="#e8e8e8" stroke="#999" stroke-width="2" rx="8"/>
<text x="1991.8999999999999" y="909.0" text-anchor="middle" fill="#333" font-family="Arial,sans-serif" font-size="12" font-weight="bold">Emb: &#x27;land&#x27; (pos 7)</text>
<circle cx="2073.8999999999996" cy="904.0" r="9" fill="#ccc"/>
<text x="2073.8999999999996" y="908.0" text-anchor="middle" fill="#666" font-family="monospace" font-size="9" font-weight="bold">0</text>
<rect x="2131.8999999999996" y="891.0" width="200" height="44" fill="#e8e8e8" stroke="#999" stroke-width="2" rx="8"/>
<text x="2231.8999999999996" y="909.0" text-anchor="middle" fill="#333" font-family="Arial,sans-serif" font-size="12" font-weight="bold">Emb: &#x27;to&#x27; (pos 13)</text>
<circle cx="2313.8999999999996" cy="904.0" r="9" fill="#ccc"/>
<text x="2313.8999999999996" y="908.0" text-anchor="middle" fill="#666" font-family="monospace" font-size="9" font-weight="bold">0</text>
<rect x="2371.8999999999996" y="891.0" width="200" height="44" fill="#e8e8e8" stroke="#999" stroke-width="2" rx="8"/>
<text x="2471.8999999999996" y="909.0" text-anchor="middle" fill="#333" font-family="Arial,sans-serif" font-size="12" font-weight="bold">Emb: &lt;bos&gt; (pos 0)</text>
<circle cx="2553.8999999999996" cy="904.0" r="9" fill="#ccc"/>
<text x="2553.8999999999996" y="908.0" text-anchor="middle" fill="#666" font-family="monospace" font-size="9" font-weight="bold">0</text>
<line x1="40" y1="1022" x2="2651" y2="1022" stroke="#ddd" stroke-width="1"/>
<text x="40" y="1040" fill="#666" font-family="Arial,sans-serif" font-size="10" font-weight="bold" letter-spacing="1px">PROMPT</text>
<text x="40" y="1058" fill="#333" font-family="monospace" font-size="11">"&lt;bos&gt;So they set about clearing the land for agriculture, setting fire to massive tracts of forest. They were not allowe"</text>
<text x="40" y="1082" fill="#666" font-family="Arial,sans-serif" font-size="10" font-weight="bold" letter-spacing="1px">TOP OUTPUTS</text>
<rect x="40" y="1087" width="100" height="20" fill="#e8e8e8" stroke="none" rx="6"/>
<text x="45" y="1101" fill="#333" font-family="Arial,sans-serif" font-size="11" font-weight="bold">(empty) <tspan fill="#555" font-size="10">100%</tspan></text>
</svg>