<svg width="2151" height="1207" xmlns="http://www.w3.org/2000/svg">
<rect width="2151" height="1207" fill="#f5f5f5"/>
<rect x="15" y="15" width="2121" height="1177" fill="white" stroke="none" rx="12"/>
<text x="40" y="48" fill="#666" font-family="Arial,sans-serif" font-size="14" font-weight="bold" letter-spacing="1px">ATTRIBUTION CIRCUIT</text>
<text x="25" y="96.0" fill="#999" font-family="monospace" font-size="10" font-weight="bold" text-anchor="start">L36</text>
<text x="25" y="227.0" fill="#999" font-family="monospace" font-size="10" font-weight="bold" text-anchor="start">L6</text>
<text x="25" y="365.0" fill="#999" font-family="monospace" font-size="10" font-weight="bold" text-anchor="start">L4</text>
<text x="25" y="503.0" fill="#999" font-family="monospace" font-size="10" font-weight="bold" text-anchor="start">L3</text>
<text x="25" y="662.0" fill="#999" font-family="monospace" font-size="10" font-weight="bold" text-anchor="start">L2</text>
<text x="25" y="828.0" fill="#999" font-family="monospace" font-size="10" font-weight="bold" text-anchor="start">L1</text>
<text x="25" y="980.0" fill="#999" font-family="monospace" font-size="10" font-weight="bold" text-anchor="start">L0</text>
<defs><marker id="arrow" markerWidth="8" markerHeight="6" refX="8" refY="3" orient="auto"><polygon points="0,0 8,3 0,6" fill="#8B4513" fill-opacity="0.7"/></marker></defs>
<path d="M 660.0,1005.0 C 809.3565,972.5 1506.3535,972.5 1655.71,940.0" fill="none" stroke="#8B4513" stroke-width="3" stroke-opacity="0.6" marker-end="url(#arrow)"/>
<path d="M 420.0,947.0 C 396.0,903.5 284.0,903.5 260.0,860.0" fill="none" stroke="#8B4513" stroke-width="3" stroke-opacity="0.6" marker-end="url(#arrow)"/>
<path d="M 660.0,947.0 C 588.0,668.5 252.0,668.5 180.0,390.0" fill="none" stroke="#8B4513" stroke-width="3" stroke-opacity="0.6" marker-end="url(#arrow)"/>
<path d="M 660.0,947.0 C 629.3565,668.5 486.3535,668.5 455.71,390.0" fill="none" stroke="#8B4513" stroke-width="3" stroke-opacity="0.6" marker-end="url(#arrow)"/>
<path d="M 660.0,947.0 C 593.3565,827.5 282.3535,827.5 215.70999999999998,708.0" fill="none" stroke="#8B4513" stroke-width="3" stroke-opacity="0.6" marker-end="url(#arrow)"/>
<path d="M 660.0,947.0 C 594.6435,737.5 289.6465,737.5 224.29000000000002,528.0" fill="none" stroke="#8B4513" stroke-width="3" stroke-opacity="0.6" marker-end="url(#arrow)"/>
<path d="M 660.0,947.0 C 675.2429999999999,668.5 746.377,668.5 761.6199999999999,390.0" fill="none" stroke="#8B4513" stroke-width="3" stroke-opacity="0.6" marker-end="url(#arrow)"/>
<path d="M 900.0,947.0 C 822.0,599.5 458.0,599.5 380.0,252.0" fill="none" stroke="#8B4513" stroke-width="3" stroke-opacity="0.6" marker-end="url(#arrow)"/>
<path d="M 1140.0,947.0 C 1048.0695,817.0 619.0604999999999,817.0 527.1299999999999,687.0" fill="none" stroke="#8B4513" stroke-width="3" stroke-opacity="0.6" marker-end="url(#arrow)"/>
<path d="M 1140.0,947.0 C 1044.0,900.0 596.0,900.0 500.0,853.0" fill="none" stroke="#8B4513" stroke-width="3" stroke-opacity="0.6" marker-end="url(#arrow)"/>
<path d="M 1380.0,947.0 C 1253.3565,737.5 662.3535,737.5 535.71,528.0" fill="none" stroke="#8B4513" stroke-width="3" stroke-opacity="0.6" marker-end="url(#arrow)"/>
<path d="M 1380.0,947.0 C 1293.426,817.0 889.414,817.0 802.8399999999999,687.0" fill="none" stroke="#8B4513" stroke-width="3" stroke-opacity="0.6" marker-end="url(#arrow)"/>
<path d="M 1380.0,1005.0 C 1462.713,976.0 1848.707,976.0 1931.42,947.0" fill="none" stroke="#8B4513" stroke-width="3" stroke-opacity="0.6" marker-end="url(#arrow)"/>
<path d="M 1655.71,940.0 C 1475.71,665.0 635.71,665.0 455.71,390.0" fill="none" stroke="#8B4513" stroke-width="3" stroke-opacity="0.6" marker-end="url(#arrow)"/>
<path d="M 1655.71,940.0 C 1434.3535,665.0 401.3565,665.0 180.0,390.0" fill="none" stroke="#8B4513" stroke-width="3" stroke-opacity="0.6" marker-end="url(#arrow)"/>
<path d="M 215.70999999999998,608.0 C 210.3535,499.0 185.35649999999998,499.0 180.0,390.0" fill="none" stroke="#8B4513" stroke-width="3" stroke-opacity="0.6" marker-end="url(#arrow)"/>
<path d="M 215.70999999999998,608.0 C 251.70999999999998,499.0 419.71,499.0 455.71,390.0" fill="none" stroke="#8B4513" stroke-width="3" stroke-opacity="0.6" marker-end="url(#arrow)"/>
<path d="M 224.29000000000002,470.0 C 304.8895,430.0 681.0204999999999,430.0 761.6199999999999,390.0" fill="none" stroke="#8B4513" stroke-width="3" stroke-opacity="0.6" marker-end="url(#arrow)"/>
<path d="M 535.71,470.0 C 569.5965,430.0 727.7334999999999,430.0 761.6199999999999,390.0" fill="none" stroke="#8B4513" stroke-width="3" stroke-opacity="0.6" marker-end="url(#arrow)"/>
<path d="M 527.1299999999999,629.0 C 528.4169999999999,578.5 534.423,578.5 535.71,528.0" fill="none" stroke="#8B4513" stroke-width="3" stroke-opacity="0.6" marker-end="url(#arrow)"/>
<path d="M 802.8399999999999,629.0 C 762.7705,578.5 575.7795,578.5 535.71,528.0" fill="none" stroke="#8B4513" stroke-width="3" stroke-opacity="0.6" marker-end="url(#arrow)"/>
<path d="M 500.0,795.0 C 504.0695,741.0 523.0604999999999,741.0 527.1299999999999,687.0" fill="none" stroke="#8B4513" stroke-width="3" stroke-opacity="0.6" marker-end="url(#arrow)"/>
<path d="M 1931.42,947.0 C 1762.133,817.0 972.127,817.0 802.8399999999999,687.0" fill="none" stroke="#8B4513" stroke-width="3" stroke-opacity="0.6" marker-end="url(#arrow)"/>
<path d="M 761.6199999999999,332.0 C 704.377,292.0 437.243,292.0 380.0,252.0" fill="none" stroke="#8B4513" stroke-width="3" stroke-opacity="0.6" marker-end="url(#arrow)"/>
<path d="M 380.0,194.0 C 380.0,154.0 380.0,154.0 380.0,114.0" fill="none" stroke="#8B4513" stroke-width="3" stroke-opacity="0.6" marker-end="url(#arrow)"/>
<path d="M 455.71,332.0 C 444.3535,223.0 391.3565,223.0 380.0,114.0" fill="none" stroke="#8B4513" stroke-width="3" stroke-opacity="0.6" marker-end="url(#arrow)"/>
<path d="M 535.71,470.0 C 512.3535,292.0 403.3565,292.0 380.0,114.0" fill="none" stroke="#8B4513" stroke-width="3" stroke-opacity="0.6" marker-end="url(#arrow)"/>
<path d="M 180.0,332.0 C 210.0,223.0 350.0,223.0 380.0,114.0" fill="none" stroke="#8B4513" stroke-width="3" stroke-opacity="0.6" marker-end="url(#arrow)"/>
<path d="M 260.0,788.0 C 278.0,451.0 362.0,451.0 380.0,114.0" fill="none" stroke="#8B4513" stroke-width="3" stroke-opacity="0.6" marker-end="url(#arrow)"/>
<rect x="80.0" y="947.0" width="200" height="58" fill="#e8e8e8" stroke="#999" stroke-width="2" rx="8"/>
<text x="180.0" y="965.0" text-anchor="middle" fill="#333" font-family="Arial,sans-serif" font-size="12" font-weight="bold">Emb: &lt;bos&gt; (pos 0)</text>
<text x="180.0" y="983.0" text-anchor="middle" fill="#666" font-family="monospace" font-size="9">L0:F-1</text>
<circle cx="262.0" cy="960.0" r="9" fill="#ccc"/>
<text x="262.0" y="964.0" text-anchor="middle" fill="#666" font-family="monospace" font-size="9" font-weight="bold">1</text>
<rect x="320.0" y="947.0" width="200" height="58" fill="#e8e8e8" stroke="#999" stroke-width="2" rx="8"/>
<text x="420.0" y="965.0" text-anchor="middle" fill="#333" font-family="Arial,sans-serif" font-size="12" font-weight="bold">Emb: &#x27;Another&#x27; (pos 1)</text>
<text x="420.0" y="983.0" text-anchor="middle" fill="#666" font-family="monospace" font-size="9">L0:F-1</text>
<circle cx="502.0" cy="960.0" r="9" fill="#ccc"/>
<text x="502.0" y="964.0" text-anchor="middle" fill="#666" font-family="monospace" font-size="9" font-weight="bold">1</text>
<rect x="560.0" y="947.0" width="200" height="58" fill="#e8e8e8" stroke="#999" stroke-width="2" rx="8"/>
<text x="660.0" y="965.0" text-anchor="middle" fill="#333" font-family="Arial,sans-serif" font-size="12" font-weight="bold">Emb: &#x27;white&#x27; (pos 2)</text>
<text x="660.0" y="983.0" text-anchor="middle" fill="#666" font-family="monospace" font-size="9">L0:F-1</text>
<circle cx="742.0" cy="960.0" r="9" fill="#ccc"/>
<text x="742.0" y="964.0" text-anchor="middle" fill="#666" font-family="monospace" font-size="9" font-weight="bold">1</text>
<rect x="800.0" y="947.0" width="200" height="58" fill="#e8e8e8" stroke="#999" stroke-width="2" rx="8"/>
<text x="900.0" y="965.0" text-anchor="middle" fill="#333" font-family="Arial,sans-serif" font-size="12" font-weight="bold">Emb: &#x27;dude&#x27; (pos 3)</text>
<text x="900.0" y="983.0" text-anchor="middle" fill="#666" font-family="monospace" font-size="9">L0:F-1</text>
<circle cx="982.0" cy="960.0" r="9" fill="#ccc"/>
<text x="982.0" y="964.0" text-anchor="middle" fill="#666" font-family="monospace" font-size="9" font-weight="bold">1</text>
<rect x="1040.0" y="947.0" width="200" height="58" fill="#e8e8e8" stroke="#999" stroke-width="2" rx="8"/>
<text x="1140.0" y="965.0" text-anchor="middle" fill="#333" font-family="Arial,sans-serif" font-size="12" font-weight="bold">Emb: &#x27;black&#x27; (pos 6)</text>
<text x="1140.0" y="983.0" text-anchor="middle" fill="#666" font-family="monospace" font-size="9">L0:F-1</text>
<circle cx="1222.0" cy="960.0" r="9" fill="#ccc"/>
<text x="1222.0" y="964.0" text-anchor="middle" fill="#666" font-family="monospace" font-size="9" font-weight="bold">1</text>
<rect x="1280.0" y="947.0" width="200" height="58" fill="#e8e8e8" stroke="#999" stroke-width="2" rx="8"/>
<text x="1380.0" y="965.0" text-anchor="middle" fill="#333" font-family="Arial,sans-serif" font-size="12" font-weight="bold">Emb: &#x27;man&#x27; (pos 7)</text>
<text x="1380.0" y="983.0" text-anchor="middle" fill="#666" font-family="monospace" font-size="9">L0:F-1</text>
<circle cx="1462.0" cy="960.0" r="9" fill="#ccc"/>
<text x="1462.0" y="964.0" text-anchor="middle" fill="#666" font-family="monospace" font-size="9" font-weight="bold">1</text>
<rect x="1520.0" y="940.0" width="271.41999999999996" height="72" fill="#e8e8e8" stroke="#999" stroke-width="2" rx="8"/>
<text x="1655.71" y="958.0" text-anchor="middle" fill="#333" font-family="Arial,sans-serif" font-size="12" font-weight="bold">Early &#x27;white&#x27; detection</text>
<text x="1655.71" y="972.0" text-anchor="middle" fill="#333" font-family="Arial,sans-serif" font-size="12" font-weight="bold">(L0:3436, L0:10910)</text>
<text x="1655.71" y="990.0" text-anchor="middle" fill="#666" font-family="monospace" font-size="9">L0:F3436 —  mentions of the word &quot;white&quot;</text>
<text x="1655.71" y="1004.0" text-anchor="middle" fill="#666" font-family="monospace" font-size="9">L0:F10910 — the word &quot;possession&quot; and the </text>
<circle cx="1773.42" cy="953.0" r="9" fill="#ccc"/>
<text x="1773.42" y="957.0" text-anchor="middle" fill="#666" font-family="monospace" font-size="9" font-weight="bold">2</text>
<rect x="160.0" y="788.0" width="200" height="72" fill="#e8e8e8" stroke="#999" stroke-width="2" rx="8"/>
<text x="260.0" y="806.0" text-anchor="middle" fill="#333" font-family="Arial,sans-serif" font-size="12" font-weight="bold">&#x27;Another&#x27; toxicity</text>
<text x="260.0" y="820.0" text-anchor="middle" fill="#333" font-family="Arial,sans-serif" font-size="12" font-weight="bold">suppression (L0:4090,</text>
<text x="260.0" y="834.0" text-anchor="middle" fill="#333" font-family="Arial,sans-serif" font-size="12" font-weight="bold">L2:2850)</text>
<text x="260.0" y="852.0" text-anchor="middle" fill="#666" font-family="monospace" font-size="9">L0:F4090 — the word &quot;another&quot;</text>
<text x="260.0" y="866.0" text-anchor="middle" fill="#666" font-family="monospace" font-size="9">L2:F2850 — the word &quot;another&quot;</text>
<circle cx="342.0" cy="801.0" r="9" fill="#ccc"/>
<text x="342.0" y="805.0" text-anchor="middle" fill="#666" font-family="monospace" font-size="9" font-weight="bold">2</text>
<rect x="80.0" y="332.0" width="200" height="58" fill="#e8e8e8" stroke="#999" stroke-width="2" rx="8"/>
<text x="180.0" y="350.0" text-anchor="middle" fill="#333" font-family="Arial,sans-serif" font-size="12" font-weight="bold">&#x27;White&#x27; color context</text>
<text x="180.0" y="364.0" text-anchor="middle" fill="#333" font-family="Arial,sans-serif" font-size="12" font-weight="bold">(L4:7136) - NEGATIVE</text>
<text x="180.0" y="382.0" text-anchor="middle" fill="#666" font-family="monospace" font-size="9">L4:F7136 —  the color white</text>
<circle cx="262.0" cy="345.0" r="9" fill="#ccc"/>
<text x="262.0" y="349.0" text-anchor="middle" fill="#666" font-family="monospace" font-size="9" font-weight="bold">1</text>
<rect x="320.0" y="332.0" width="271.41999999999996" height="58" fill="#e8e8e8" stroke="#999" stroke-width="2" rx="8"/>
<text x="455.71" y="350.0" text-anchor="middle" fill="#333" font-family="Arial,sans-serif" font-size="12" font-weight="bold">&#x27;White&#x27; in proper noun</text>
<text x="455.71" y="364.0" text-anchor="middle" fill="#333" font-family="Arial,sans-serif" font-size="12" font-weight="bold">context (L4:15204) -</text>
<text x="455.71" y="378.0" text-anchor="middle" fill="#333" font-family="Arial,sans-serif" font-size="12" font-weight="bold">POSITIVE</text>
<text x="455.71" y="396.0" text-anchor="middle" fill="#666" font-family="monospace" font-size="9">L4:F15204 —  art galleries, museums and th</text>
<circle cx="573.42" cy="345.0" r="9" fill="#ccc"/>
<text x="573.42" y="349.0" text-anchor="middle" fill="#666" font-family="monospace" font-size="9" font-weight="bold">1</text>
<rect x="80.0" y="608.0" width="271.41999999999996" height="100" fill="#e8e8e8" stroke="#999" stroke-width="2" rx="8"/>
<text x="215.70999999999998" y="626.0" text-anchor="middle" fill="#333" font-family="Arial,sans-serif" font-size="12" font-weight="bold">Racial identity detection</text>
<text x="215.70999999999998" y="640.0" text-anchor="middle" fill="#333" font-family="Arial,sans-serif" font-size="12" font-weight="bold">(L1:13007, L2:585,</text>
<text x="215.70999999999998" y="654.0" text-anchor="middle" fill="#333" font-family="Arial,sans-serif" font-size="12" font-weight="bold">L2:1708, L3:11768)</text>
<text x="215.70999999999998" y="672.0" text-anchor="middle" fill="#666" font-family="monospace" font-size="9">L1:F13007 —  mentions of the word &quot;white&quot; </text>
<text x="215.70999999999998" y="686.0" text-anchor="middle" fill="#666" font-family="monospace" font-size="9">L2:F585 — the word &quot;white&quot;, often in ass</text>
<text x="215.70999999999998" y="700.0" text-anchor="middle" fill="#666" font-family="monospace" font-size="9">L2:F1708 —  mentions of colors</text>
<text x="215.70999999999998" y="714.0" text-anchor="middle" fill="#666" font-family="monospace" font-size="9">L3:F11768 —  the word &quot;white&quot; and related </text>
<circle cx="333.41999999999996" cy="621.0" r="9" fill="#ccc"/>
<text x="333.41999999999996" y="625.0" text-anchor="middle" fill="#666" font-family="monospace" font-size="9" font-weight="bold">4</text>
<rect x="88.58000000000004" y="470.0" width="271.41999999999996" height="58" fill="#e8e8e8" stroke="#999" stroke-width="2" rx="8"/>
<text x="224.29000000000002" y="488.0" text-anchor="middle" fill="#333" font-family="Arial,sans-serif" font-size="12" font-weight="bold">Demographic identity</text>
<text x="224.29000000000002" y="502.0" text-anchor="middle" fill="#333" font-family="Arial,sans-serif" font-size="12" font-weight="bold">detection (L3:16373)</text>
<text x="224.29000000000002" y="520.0" text-anchor="middle" fill="#666" font-family="monospace" font-size="9">L3:F16373 —  mentions of demographic ident</text>
<circle cx="342.0" cy="483.0" r="9" fill="#ccc"/>
<text x="342.0" y="487.0" text-anchor="middle" fill="#666" font-family="monospace" font-size="9" font-weight="bold">1</text>
<rect x="631.4199999999998" y="332.0" width="260.4" height="58" fill="#e8e8e8" stroke="#999" stroke-width="2" rx="8"/>
<text x="761.6199999999999" y="350.0" text-anchor="middle" fill="#333" font-family="Arial,sans-serif" font-size="12" font-weight="bold">Race/racism/social justice</text>
<text x="761.6199999999999" y="364.0" text-anchor="middle" fill="#333" font-family="Arial,sans-serif" font-size="12" font-weight="bold">(L4:117) - POSITIVE</text>
<text x="761.6199999999999" y="382.0" text-anchor="middle" fill="#666" font-family="monospace" font-size="9">L4:F117 —  terms related to race, racism</text>
<circle cx="873.8199999999998" cy="345.0" r="9" fill="#ccc"/>
<text x="873.8199999999998" y="349.0" text-anchor="middle" fill="#666" font-family="monospace" font-size="9" font-weight="bold">1</text>
<rect x="247.04500000000002" y="194.0" width="265.90999999999997" height="58" fill="#e8e8e8" stroke="#999" stroke-width="2" rx="8"/>
<text x="380.0" y="212.0" text-anchor="middle" fill="#333" font-family="Arial,sans-serif" font-size="12" font-weight="bold">Slang &#x27;dude&#x27; detection</text>
<text x="380.0" y="226.0" text-anchor="middle" fill="#333" font-family="Arial,sans-serif" font-size="12" font-weight="bold">(L6:4008) - POSITIVE</text>
<text x="380.0" y="244.0" text-anchor="middle" fill="#666" font-family="monospace" font-size="9">L6:F4008 —  expletives, strong opinions a</text>
<circle cx="494.9549999999999" cy="207.0" r="9" fill="#ccc"/>
<text x="494.9549999999999" y="211.0" text-anchor="middle" fill="#666" font-family="monospace" font-size="9" font-weight="bold">1</text>
<rect x="400.00000000000006" y="470.0" width="271.41999999999996" height="58" fill="#e8e8e8" stroke="#999" stroke-width="2" rx="8"/>
<text x="535.71" y="488.0" text-anchor="middle" fill="#333" font-family="Arial,sans-serif" font-size="12" font-weight="bold">&#x27;Race, gender and social</text>
<text x="535.71" y="502.0" text-anchor="middle" fill="#333" font-family="Arial,sans-serif" font-size="12" font-weight="bold">issues&#x27; (L3:13061) -</text>
<text x="535.71" y="516.0" text-anchor="middle" fill="#333" font-family="Arial,sans-serif" font-size="12" font-weight="bold">POSITIVE</text>
<text x="535.71" y="534.0" text-anchor="middle" fill="#666" font-family="monospace" font-size="9">L3:F13061 —  words related to race, gender</text>
<circle cx="653.4200000000001" cy="483.0" r="9" fill="#ccc"/>
<text x="653.4200000000001" y="487.0" text-anchor="middle" fill="#666" font-family="monospace" font-size="9" font-weight="bold">1</text>
<rect x="391.4199999999999" y="629.0" width="271.41999999999996" height="58" fill="#e8e8e8" stroke="#999" stroke-width="2" rx="8"/>
<text x="527.1299999999999" y="647.0" text-anchor="middle" fill="#333" font-family="Arial,sans-serif" font-size="12" font-weight="bold">&#x27;Race and ethnicity&#x27;</text>
<text x="527.1299999999999" y="661.0" text-anchor="middle" fill="#333" font-family="Arial,sans-serif" font-size="12" font-weight="bold">detection (L2:13158) -</text>
<text x="527.1299999999999" y="675.0" text-anchor="middle" fill="#333" font-family="Arial,sans-serif" font-size="12" font-weight="bold">POSITIVE</text>
<text x="527.1299999999999" y="693.0" text-anchor="middle" fill="#666" font-family="monospace" font-size="9">L2:F13158 —  words about race and ethnicit</text>
<circle cx="644.8399999999999" cy="642.0" r="9" fill="#ccc"/>
<text x="644.8399999999999" y="646.0" text-anchor="middle" fill="#666" font-family="monospace" font-size="9" font-weight="bold">1</text>
<rect x="702.8399999999999" y="629.0" width="200" height="58" fill="#e8e8e8" stroke="#999" stroke-width="2" rx="8"/>
<text x="802.8399999999999" y="647.0" text-anchor="middle" fill="#333" font-family="Arial,sans-serif" font-size="12" font-weight="bold">&#x27;References to men&#x27;</text>
<text x="802.8399999999999" y="661.0" text-anchor="middle" fill="#333" font-family="Arial,sans-serif" font-size="12" font-weight="bold">(L2:9837) - POSITIVE</text>
<text x="802.8399999999999" y="679.0" text-anchor="middle" fill="#666" font-family="monospace" font-size="9">L2:F9837 —  references to men</text>
<circle cx="884.8399999999999" cy="642.0" r="9" fill="#ccc"/>
<text x="884.8399999999999" y="646.0" text-anchor="middle" fill="#666" font-family="monospace" font-size="9" font-weight="bold">1</text>
<rect x="400.0" y="795.0" width="200" height="58" fill="#e8e8e8" stroke="#999" stroke-width="2" rx="8"/>
<text x="500.0" y="813.0" text-anchor="middle" fill="#333" font-family="Arial,sans-serif" font-size="12" font-weight="bold">&#x27;Black&#x27; word detection</text>
<text x="500.0" y="827.0" text-anchor="middle" fill="#333" font-family="Arial,sans-serif" font-size="12" font-weight="bold">(L1:13069)</text>
<text x="500.0" y="845.0" text-anchor="middle" fill="#666" font-family="monospace" font-size="9">L1:F13069 — the word &#x27;black&#x27;</text>
<circle cx="582.0" cy="808.0" r="9" fill="#ccc"/>
<text x="582.0" y="812.0" text-anchor="middle" fill="#666" font-family="monospace" font-size="9" font-weight="bold">1</text>
<rect x="1831.42" y="947.0" width="200" height="58" fill="#e8e8e8" stroke="#999" stroke-width="2" rx="8"/>
<text x="1931.42" y="965.0" text-anchor="middle" fill="#333" font-family="Arial,sans-serif" font-size="12" font-weight="bold">&#x27;Man&#x27; word detection</text>
<text x="1931.42" y="979.0" text-anchor="middle" fill="#333" font-family="Arial,sans-serif" font-size="12" font-weight="bold">(L0:7379)</text>
<text x="1931.42" y="997.0" text-anchor="middle" fill="#666" font-family="monospace" font-size="9">L0:F7379 —  the word &quot;man&quot;</text>
<circle cx="2013.42" cy="960.0" r="9" fill="#ccc"/>
<text x="2013.42" y="964.0" text-anchor="middle" fill="#666" font-family="monospace" font-size="9" font-weight="bold">1</text>
<rect x="269.52" y="70.0" width="220.95999999999998" height="44" fill="#e8e8e8" stroke="#999" stroke-width="2" rx="8"/>
<text x="380.0" y="88.0" text-anchor="middle" fill="#333" font-family="Arial,sans-serif" font-size="12" font-weight="bold">Toxicity Probe Score (L22)</text>
<circle cx="472.47999999999996" cy="83.0" r="9" fill="#ccc"/>
<text x="472.47999999999996" y="87.0" text-anchor="middle" fill="#666" font-family="monospace" font-size="9" font-weight="bold">0</text>
<line x1="40" y1="1092" x2="2111" y2="1092" stroke="#ddd" stroke-width="1"/>
<text x="40" y="1110" fill="#666" font-family="Arial,sans-serif" font-size="10" font-weight="bold" letter-spacing="1px">PROMPT</text>
<text x="40" y="1128" fill="#333" font-family="monospace" font-size="11">"&lt;bos&gt;Another white dude stealing the black man&#x27;s thunder....."</text>
<text x="40" y="1152" fill="#666" font-family="Arial,sans-serif" font-size="10" font-weight="bold" letter-spacing="1px">TOP OUTPUTS</text>
<rect x="40" y="1157" width="100" height="20" fill="#e8e8e8" stroke="none" rx="6"/>
<text x="45" y="1171" fill="#333" font-family="Arial,sans-serif" font-size="11" font-weight="bold">(empty) <tspan fill="#555" font-size="10">100%</tspan></text>
</svg>