<svg width="2152" height="1041" xmlns="http://www.w3.org/2000/svg">
<rect width="2152" height="1041" fill="#f5f5f5"/>
<rect x="15" y="15" width="2122" height="1011" fill="white" stroke="none" rx="12"/>
<text x="40" y="48" fill="#666" font-family="Arial,sans-serif" font-size="14" font-weight="bold" letter-spacing="1px">ATTRIBUTION CIRCUIT</text>
<text x="25" y="96.0" fill="#999" font-family="monospace" font-size="10" font-weight="bold" text-anchor="start">L36</text>
<text x="25" y="227.0" fill="#999" font-family="monospace" font-size="10" font-weight="bold" text-anchor="start">L4</text>
<text x="25" y="365.0" fill="#999" font-family="monospace" font-size="10" font-weight="bold" text-anchor="start">L3</text>
<text x="25" y="503.0" fill="#999" font-family="monospace" font-size="10" font-weight="bold" text-anchor="start">L2</text>
<text x="25" y="655.0" fill="#999" font-family="monospace" font-size="10" font-weight="bold" text-anchor="start">L1</text>
<text x="25" y="814.0" fill="#999" font-family="monospace" font-size="10" font-weight="bold" text-anchor="start">L0</text>
<defs><marker id="arrow" markerWidth="8" markerHeight="6" refX="8" refY="3" orient="auto"><polygon points="0,0 8,3 0,6" fill="#8B4513" fill-opacity="0.7"/></marker></defs>
<path d="M 183.51999999999998,839.0 C 368.9912499999999,806.5 1234.5237499999998,806.5 1419.995,774.0" fill="none" stroke="#8B4513" stroke-width="3" stroke-opacity="0.6" marker-end="url(#arrow)"/>
<path d="M 183.51999999999998,781.0 C 189.63549999999998,730.5 218.17450000000002,730.5 224.29000000000002,680.0" fill="none" stroke="#8B4513" stroke-width="3" stroke-opacity="0.6" marker-end="url(#arrow)"/>
<path d="M 183.51999999999998,781.0 C 212.992,654.5 350.528,654.5 380.0,528.0" fill="none" stroke="#8B4513" stroke-width="3" stroke-opacity="0.6" marker-end="url(#arrow)"/>
<path d="M 427.03999999999996,839.0 C 616.9264999999999,806.5 1503.0634999999997,806.5 1692.9499999999998,774.0" fill="none" stroke="#8B4513" stroke-width="3" stroke-opacity="0.6" marker-end="url(#arrow)"/>
<path d="M 427.03999999999996,781.0 C 442.92724999999996,737.5 517.0677499999999,737.5 532.9549999999999,694.0" fill="none" stroke="#8B4513" stroke-width="3" stroke-opacity="0.6" marker-end="url(#arrow)"/>
<path d="M 427.03999999999996,781.0 C 419.984,585.5 387.056,585.5 380.0,390.0" fill="none" stroke="#8B4513" stroke-width="3" stroke-opacity="0.6" marker-end="url(#arrow)"/>
<path d="M 427.03999999999996,781.0 C 419.984,516.5 387.056,516.5 380.0,252.0" fill="none" stroke="#8B4513" stroke-width="3" stroke-opacity="0.6" marker-end="url(#arrow)"/>
<path d="M 667.04,839.0 C 856.9264999999999,810.0 1743.0634999999997,810.0 1932.9499999999998,781.0" fill="none" stroke="#8B4513" stroke-width="3" stroke-opacity="0.6" marker-end="url(#arrow)"/>
<path d="M 1419.995,774.0 C 1263.9957499999998,651.0 535.99925,651.0 380.0,528.0" fill="none" stroke="#8B4513" stroke-width="3" stroke-opacity="0.6" marker-end="url(#arrow)"/>
<path d="M 224.29000000000002,622.0 C 247.6465,575.0 356.6435,575.0 380.0,528.0" fill="none" stroke="#8B4513" stroke-width="3" stroke-opacity="0.6" marker-end="url(#arrow)"/>
<path d="M 1692.9499999999998,774.0 C 1518.9507499999997,734.0 706.9542499999999,734.0 532.9549999999999,694.0" fill="none" stroke="#8B4513" stroke-width="3" stroke-opacity="0.6" marker-end="url(#arrow)"/>
<path d="M 1692.9499999999998,774.0 C 1496.0075,582.0 576.9425,582.0 380.0,390.0" fill="none" stroke="#8B4513" stroke-width="3" stroke-opacity="0.6" marker-end="url(#arrow)"/>
<path d="M 532.9549999999999,608.0 C 510.01174999999995,499.0 402.94325,499.0 380.0,390.0" fill="none" stroke="#8B4513" stroke-width="3" stroke-opacity="0.6" marker-end="url(#arrow)"/>
<path d="M 532.9549999999999,608.0 C 510.01174999999995,430.0 402.94325,430.0 380.0,252.0" fill="none" stroke="#8B4513" stroke-width="3" stroke-opacity="0.6" marker-end="url(#arrow)"/>
<path d="M 380.0,470.0 C 380.0,292.0 380.0,292.0 380.0,114.0" fill="none" stroke="#8B4513" stroke-width="3" stroke-opacity="0.6" marker-end="url(#arrow)"/>
<path d="M 1692.9499999999998,774.0 C 1496.0075,444.0 576.9425,444.0 380.0,114.0" fill="none" stroke="#8B4513" stroke-width="3" stroke-opacity="0.6" marker-end="url(#arrow)"/>
<path d="M 532.9549999999999,608.0 C 510.01174999999995,361.0 402.94325,361.0 380.0,114.0" fill="none" stroke="#8B4513" stroke-width="3" stroke-opacity="0.6" marker-end="url(#arrow)"/>
<path d="M 1932.9499999999998,781.0 C 1700.0075,447.5 612.9425,447.5 380.0,114.0" fill="none" stroke="#8B4513" stroke-width="3" stroke-opacity="0.6" marker-end="url(#arrow)"/>
<path d="M 380.0,332.0 C 380.0,223.0 380.0,223.0 380.0,114.0" fill="none" stroke="#8B4513" stroke-width="3" stroke-opacity="0.6" marker-end="url(#arrow)"/>
<path d="M 380.0,194.0 C 380.0,154.0 380.0,154.0 380.0,114.0" fill="none" stroke="#8B4513" stroke-width="3" stroke-opacity="0.6" marker-end="url(#arrow)"/>
<rect x="79.99999999999999" y="781.0" width="207.04" height="58" fill="#e8e8e8" stroke="#999" stroke-width="2" rx="8"/>
<text x="183.51999999999998" y="799.0" text-anchor="middle" fill="#333" font-family="Arial,sans-serif" font-size="12" font-weight="bold">Emb: &#x27; recorded&#x27; (pos 2)</text>
<text x="183.51999999999998" y="817.0" text-anchor="middle" fill="#666" font-family="monospace" font-size="9">L0:F-1</text>
<circle cx="269.03999999999996" cy="794.0" r="9" fill="#ccc"/>
<text x="269.03999999999996" y="798.0" text-anchor="middle" fill="#666" font-family="monospace" font-size="9" font-weight="bold">1</text>
<rect x="327.03999999999996" y="781.0" width="200" height="58" fill="#e8e8e8" stroke="#999" stroke-width="2" rx="8"/>
<text x="427.03999999999996" y="799.0" text-anchor="middle" fill="#333" font-family="Arial,sans-serif" font-size="12" font-weight="bold">Emb: &#x27; menu&#x27; (pos 3)</text>
<text x="427.03999999999996" y="817.0" text-anchor="middle" fill="#666" font-family="monospace" font-size="9">L0:F-1</text>
<circle cx="509.03999999999996" cy="794.0" r="9" fill="#ccc"/>
<text x="509.03999999999996" y="798.0" text-anchor="middle" fill="#666" font-family="monospace" font-size="9" font-weight="bold">1</text>
<rect x="567.04" y="781.0" width="200" height="58" fill="#e8e8e8" stroke="#999" stroke-width="2" rx="8"/>
<text x="667.04" y="799.0" text-anchor="middle" fill="#333" font-family="Arial,sans-serif" font-size="12" font-weight="bold">Emb: &#x27; will&#x27; (pos 4)</text>
<text x="667.04" y="817.0" text-anchor="middle" fill="#666" font-family="monospace" font-size="9">L0:F-1</text>
<circle cx="749.04" cy="794.0" r="9" fill="#ccc"/>
<text x="749.04" y="798.0" text-anchor="middle" fill="#666" font-family="monospace" font-size="9" font-weight="bold">1</text>
<rect x="807.04" y="781.0" width="200" height="58" fill="#e8e8e8" stroke="#999" stroke-width="2" rx="8"/>
<text x="907.04" y="799.0" text-anchor="middle" fill="#333" font-family="Arial,sans-serif" font-size="12" font-weight="bold">Emb: &#x27;A&#x27; (pos 1)</text>
<text x="907.04" y="817.0" text-anchor="middle" fill="#666" font-family="monospace" font-size="9">L0:F-1</text>
<circle cx="989.04" cy="794.0" r="9" fill="#ccc"/>
<text x="989.04" y="798.0" text-anchor="middle" fill="#666" font-family="monospace" font-size="9" font-weight="bold">1</text>
<rect x="1047.04" y="781.0" width="200" height="58" fill="#e8e8e8" stroke="#999" stroke-width="2" rx="8"/>
<text x="1147.04" y="799.0" text-anchor="middle" fill="#333" font-family="Arial,sans-serif" font-size="12" font-weight="bold">Emb: &#x27;&lt;bos&gt;&#x27; (pos 0)</text>
<text x="1147.04" y="817.0" text-anchor="middle" fill="#666" font-family="monospace" font-size="9">L0:F-1</text>
<circle cx="1229.04" cy="794.0" r="9" fill="#ccc"/>
<text x="1229.04" y="798.0" text-anchor="middle" fill="#666" font-family="monospace" font-size="9" font-weight="bold">1</text>
<rect x="1287.04" y="774.0" width="265.90999999999997" height="72" fill="#e8e8e8" stroke="#999" stroke-width="2" rx="8"/>
<text x="1419.995" y="792.0" text-anchor="middle" fill="#333" font-family="Arial,sans-serif" font-size="12" font-weight="bold">Lexical: &#x27;record&#x27; word</text>
<text x="1419.995" y="806.0" text-anchor="middle" fill="#333" font-family="Arial,sans-serif" font-size="12" font-weight="bold">detection</text>
<text x="1419.995" y="824.0" text-anchor="middle" fill="#666" font-family="monospace" font-size="9">L0:F7443 — the word &quot;record&quot; appearing in</text>
<text x="1419.995" y="838.0" text-anchor="middle" fill="#666" font-family="monospace" font-size="9">L0:F7404 —  the word &quot;faith&quot;, sometimes i</text>
<circle cx="1534.9499999999998" cy="787.0" r="9" fill="#ccc"/>
<text x="1534.9499999999998" y="791.0" text-anchor="middle" fill="#666" font-family="monospace" font-size="9" font-weight="bold">2</text>
<rect x="1592.9499999999998" y="774.0" width="200" height="72" fill="#e8e8e8" stroke="#999" stroke-width="2" rx="8"/>
<text x="1692.9499999999998" y="792.0" text-anchor="middle" fill="#333" font-family="Arial,sans-serif" font-size="12" font-weight="bold">Lexical: &#x27;menu&#x27; word</text>
<text x="1692.9499999999998" y="806.0" text-anchor="middle" fill="#333" font-family="Arial,sans-serif" font-size="12" font-weight="bold">detection</text>
<text x="1692.9499999999998" y="824.0" text-anchor="middle" fill="#666" font-family="monospace" font-size="9">L0:F2108 — the word &quot;menu&quot;</text>
<text x="1692.9499999999998" y="838.0" text-anchor="middle" fill="#666" font-family="monospace" font-size="9">L0:F6649 —  the word &quot;Title&quot;</text>
<circle cx="1774.9499999999998" cy="787.0" r="9" fill="#ccc"/>
<text x="1774.9499999999998" y="791.0" text-anchor="middle" fill="#666" font-family="monospace" font-size="9" font-weight="bold">2</text>
<rect x="1832.9499999999998" y="781.0" width="200" height="58" fill="#e8e8e8" stroke="#999" stroke-width="2" rx="8"/>
<text x="1932.9499999999998" y="799.0" text-anchor="middle" fill="#333" font-family="Arial,sans-serif" font-size="12" font-weight="bold">Lexical: &#x27;will&#x27; word</text>
<text x="1932.9499999999998" y="813.0" text-anchor="middle" fill="#333" font-family="Arial,sans-serif" font-size="12" font-weight="bold">detection</text>
<text x="1932.9499999999998" y="831.0" text-anchor="middle" fill="#666" font-family="monospace" font-size="9">L0:F8046 —  the word &quot;will.&quot;</text>
<circle cx="2014.9499999999998" cy="794.0" r="9" fill="#ccc"/>
<text x="2014.9499999999998" y="798.0" text-anchor="middle" fill="#666" font-family="monospace" font-size="9" font-weight="bold">1</text>
<rect x="91.33500000000004" y="622.0" width="265.90999999999997" height="58" fill="#e8e8e8" stroke="#999" stroke-width="2" rx="8"/>
<text x="224.29000000000002" y="640.0" text-anchor="middle" fill="#333" font-family="Arial,sans-serif" font-size="12" font-weight="bold">Scientific: &#x27;recording&#x27;</text>
<text x="224.29000000000002" y="654.0" text-anchor="middle" fill="#333" font-family="Arial,sans-serif" font-size="12" font-weight="bold">detector</text>
<text x="224.29000000000002" y="672.0" text-anchor="middle" fill="#666" font-family="monospace" font-size="9">L1:F3691 —  the word &quot;recording&quot; in scien</text>
<circle cx="339.245" cy="635.0" r="9" fill="#ccc"/>
<text x="339.245" y="639.0" text-anchor="middle" fill="#666" font-family="monospace" font-size="9" font-weight="bold">1</text>
<rect x="397.24499999999995" y="608.0" width="271.41999999999996" height="86" fill="#e8e8e8" stroke="#999" stroke-width="2" rx="8"/>
<text x="532.9549999999999" y="626.0" text-anchor="middle" fill="#333" font-family="Arial,sans-serif" font-size="12" font-weight="bold">Menu/Telecom: word</text>
<text x="532.9549999999999" y="640.0" text-anchor="middle" fill="#333" font-family="Arial,sans-serif" font-size="12" font-weight="bold">detection chain</text>
<text x="532.9549999999999" y="658.0" text-anchor="middle" fill="#666" font-family="monospace" font-size="9">L1:F12253 —  the word &#x27;menu&#x27;</text>
<text x="532.9549999999999" y="672.0" text-anchor="middle" fill="#666" font-family="monospace" font-size="9">L1:F11170 — words related to telephones an</text>
<text x="532.9549999999999" y="686.0" text-anchor="middle" fill="#666" font-family="monospace" font-size="9">L1:F14120 — restaurant menus</text>
<circle cx="650.665" cy="621.0" r="9" fill="#ccc"/>
<text x="650.665" y="625.0" text-anchor="middle" fill="#666" font-family="monospace" font-size="9" font-weight="bold">3</text>
<rect x="247.04500000000002" y="470.0" width="265.90999999999997" height="58" fill="#e8e8e8" stroke="#999" stroke-width="2" rx="8"/>
<text x="380.0" y="488.0" text-anchor="middle" fill="#333" font-family="Arial,sans-serif" font-size="12" font-weight="bold">Domain: Finance/Property</text>
<text x="380.0" y="502.0" text-anchor="middle" fill="#333" font-family="Arial,sans-serif" font-size="12" font-weight="bold">Law</text>
<text x="380.0" y="520.0" text-anchor="middle" fill="#666" font-family="monospace" font-size="9">L2:F8776 —  words related to finance and </text>
<circle cx="494.9549999999999" cy="483.0" r="9" fill="#ccc"/>
<text x="494.9549999999999" y="487.0" text-anchor="middle" fill="#666" font-family="monospace" font-size="9" font-weight="bold">1</text>
<rect x="247.04500000000002" y="332.0" width="265.90999999999997" height="58" fill="#e8e8e8" stroke="#999" stroke-width="2" rx="8"/>
<text x="380.0" y="350.0" text-anchor="middle" fill="#333" font-family="Arial,sans-serif" font-size="12" font-weight="bold">Interface: &#x27;menu&#x27; in UI</text>
<text x="380.0" y="364.0" text-anchor="middle" fill="#333" font-family="Arial,sans-serif" font-size="12" font-weight="bold">context</text>
<text x="380.0" y="382.0" text-anchor="middle" fill="#666" font-family="monospace" font-size="9">L3:F3573 — the word &quot;menu&quot; often in conju</text>
<circle cx="494.9549999999999" cy="345.0" r="9" fill="#ccc"/>
<text x="494.9549999999999" y="349.0" text-anchor="middle" fill="#666" font-family="monospace" font-size="9" font-weight="bold">1</text>
<rect x="247.04500000000002" y="194.0" width="265.90999999999997" height="58" fill="#e8e8e8" stroke="#999" stroke-width="2" rx="8"/>
<text x="380.0" y="212.0" text-anchor="middle" fill="#333" font-family="Arial,sans-serif" font-size="12" font-weight="bold">Domain: Telecommunications</text>
<text x="380.0" y="230.0" text-anchor="middle" fill="#666" font-family="monospace" font-size="9">L4:F7998 —  words related to telecommunic</text>
<circle cx="494.9549999999999" cy="207.0" r="9" fill="#ccc"/>
<text x="494.9549999999999" y="211.0" text-anchor="middle" fill="#666" font-family="monospace" font-size="9" font-weight="bold">1</text>
<rect x="280.0" y="70.0" width="200" height="44" fill="#e8e8e8" stroke="#999" stroke-width="2" rx="8"/>
<text x="380.0" y="88.0" text-anchor="middle" fill="#333" font-family="Arial,sans-serif" font-size="12" font-weight="bold">Output: Probe</text>
<text x="380.0" y="102.0" text-anchor="middle" fill="#333" font-family="Arial,sans-serif" font-size="12" font-weight="bold">Classification Score</text>
<circle cx="462.0" cy="83.0" r="9" fill="#ccc"/>
<text x="462.0" y="87.0" text-anchor="middle" fill="#666" font-family="monospace" font-size="9" font-weight="bold">0</text>
<line x1="40" y1="926" x2="2112" y2="926" stroke="#ddd" stroke-width="1"/>
<text x="40" y="944" fill="#666" font-family="Arial,sans-serif" font-size="10" font-weight="bold" letter-spacing="1px">PROMPT</text>
<text x="40" y="962" fill="#333" font-family="monospace" font-size="11">"&lt;bos&gt;A recorded menu will provide information on how to obtain these lists. Recorded menus do not provide any informatio"</text>
<text x="40" y="986" fill="#666" font-family="Arial,sans-serif" font-size="10" font-weight="bold" letter-spacing="1px">TOP OUTPUTS</text>
<rect x="40" y="991" width="100" height="20" fill="#e8e8e8" stroke="none" rx="6"/>
<text x="45" y="1005" fill="#333" font-family="Arial,sans-serif" font-size="11" font-weight="bold">(empty) <tspan fill="#555" font-size="10">100%</tspan></text>
</svg>