<svg width="1665" height="889" xmlns="http://www.w3.org/2000/svg">
<rect width="1665" height="889" fill="#f5f5f5"/>
<rect x="15" y="15" width="1635" height="859" fill="white" stroke="none" rx="12"/>
<text x="40" y="48" fill="#666" font-family="Arial,sans-serif" font-size="14" font-weight="bold" letter-spacing="1px">ATTRIBUTION CIRCUIT</text>
<text x="25" y="96.0" fill="#999" font-family="monospace" font-size="10" font-weight="bold" text-anchor="start">L36</text>
<text x="25" y="227.0" fill="#999" font-family="monospace" font-size="10" font-weight="bold" text-anchor="start">L6</text>
<text x="25" y="372.0" fill="#999" font-family="monospace" font-size="10" font-weight="bold" text-anchor="start">L3</text>
<text x="25" y="517.0" fill="#999" font-family="monospace" font-size="10" font-weight="bold" text-anchor="start">L1</text>
<text x="25" y="662.0" fill="#999" font-family="monospace" font-size="10" font-weight="bold" text-anchor="start">L0</text>
<defs><marker id="arrow" markerWidth="8" markerHeight="6" refX="8" refY="3" orient="auto"><polygon points="0,0 8,3 0,6" fill="#8B4513" fill-opacity="0.7"/></marker></defs>
<path d="M 180.0,687.0 C 364.95525,654.5 1228.0797499999999,654.5 1413.0349999999999,622.0" fill="none" stroke="#8B4513" stroke-width="3" stroke-opacity="0.6" marker-end="url(#arrow)"/>
<path d="M 180.0,629.0 C 210.0,440.5 350.0,440.5 380.0,252.0" fill="none" stroke="#8B4513" stroke-width="3" stroke-opacity="0.6" marker-end="url(#arrow)"/>
<path d="M 180.0,687.0 C 324.01199999999994,658.0 996.068,658.0 1140.08,629.0" fill="none" stroke="#8B4513" stroke-width="3" stroke-opacity="0.6" marker-end="url(#arrow)"/>
<path d="M 1413.0349999999999,622.0 C 1258.0797499999999,582.0 534.95525,582.0 380.0,542.0" fill="none" stroke="#8B4513" stroke-width="3" stroke-opacity="0.6" marker-end="url(#arrow)"/>
<path d="M 1413.0349999999999,622.0 C 1258.0797499999999,437.0 534.95525,437.0 380.0,252.0" fill="none" stroke="#8B4513" stroke-width="3" stroke-opacity="0.6" marker-end="url(#arrow)"/>
<path d="M 380.0,484.0 C 380.0,368.0 380.0,368.0 380.0,252.0" fill="none" stroke="#8B4513" stroke-width="3" stroke-opacity="0.6" marker-end="url(#arrow)"/>
<path d="M 420.0,629.0 C 437.3565,516.5 518.3535,516.5 535.71,404.0" fill="none" stroke="#8B4513" stroke-width="3" stroke-opacity="0.6" marker-end="url(#arrow)"/>
<path d="M 660.04,629.0 C 641.3905,516.5 554.3595,516.5 535.71,404.0" fill="none" stroke="#8B4513" stroke-width="3" stroke-opacity="0.6" marker-end="url(#arrow)"/>
<path d="M 535.71,332.0 C 512.3535,223.0 403.3565,223.0 380.0,114.0" fill="none" stroke="#8B4513" stroke-width="3" stroke-opacity="0.6" marker-end="url(#arrow)"/>
<path d="M 900.0799999999999,629.0 C 799.12475,516.5 328.00025,516.5 227.04500000000002,404.0" fill="none" stroke="#8B4513" stroke-width="3" stroke-opacity="0.6" marker-end="url(#arrow)"/>
<path d="M 227.04500000000002,332.0 C 249.98825000000002,223.0 357.05675,223.0 380.0,114.0" fill="none" stroke="#8B4513" stroke-width="3" stroke-opacity="0.6" marker-end="url(#arrow)"/>
<path d="M 380.0,194.0 C 380.0,154.0 380.0,154.0 380.0,114.0" fill="none" stroke="#8B4513" stroke-width="3" stroke-opacity="0.6" marker-end="url(#arrow)"/>
<path d="M 1140.08,629.0 C 1026.068,371.5 494.012,371.5 380.0,114.0" fill="none" stroke="#8B4513" stroke-width="3" stroke-opacity="0.6" marker-end="url(#arrow)"/>
<rect x="80.0" y="629.0" width="200" height="58" fill="#e8e8e8" stroke="#999" stroke-width="2" rx="8"/>
<text x="180.0" y="647.0" text-anchor="middle" fill="#333" font-family="Arial,sans-serif" font-size="12" font-weight="bold">Emb: &#x27; she&#x27; (pos 5) -</text>
<text x="180.0" y="661.0" text-anchor="middle" fill="#333" font-family="Arial,sans-serif" font-size="12" font-weight="bold">feminine pronoun</text>
<text x="180.0" y="679.0" text-anchor="middle" fill="#666" font-family="monospace" font-size="9">L-1:F-1</text>
<circle cx="262.0" cy="642.0" r="9" fill="#ccc"/>
<text x="262.0" y="646.0" text-anchor="middle" fill="#666" font-family="monospace" font-size="9" font-weight="bold">1</text>
<rect x="320.0" y="629.0" width="200" height="58" fill="#e8e8e8" stroke="#999" stroke-width="2" rx="8"/>
<text x="420.0" y="647.0" text-anchor="middle" fill="#333" font-family="Arial,sans-serif" font-size="12" font-weight="bold">Emb: &#x27; side&#x27; (pos 10)</text>
<text x="420.0" y="665.0" text-anchor="middle" fill="#666" font-family="monospace" font-size="9">L-1:F-1</text>
<circle cx="502.0" cy="642.0" r="9" fill="#ccc"/>
<text x="502.0" y="646.0" text-anchor="middle" fill="#666" font-family="monospace" font-size="9" font-weight="bold">1</text>
<rect x="560.0" y="629.0" width="200.07999999999998" height="58" fill="#e8e8e8" stroke="#999" stroke-width="2" rx="8"/>
<text x="660.04" y="647.0" text-anchor="middle" fill="#333" font-family="Arial,sans-serif" font-size="12" font-weight="bold">Emb: &#x27; hustle&#x27; (pos 11)</text>
<text x="660.04" y="665.0" text-anchor="middle" fill="#666" font-family="monospace" font-size="9">L-1:F-1</text>
<circle cx="742.0799999999999" cy="642.0" r="9" fill="#ccc"/>
<text x="742.0799999999999" y="646.0" text-anchor="middle" fill="#666" font-family="monospace" font-size="9" font-weight="bold">1</text>
<rect x="800.0799999999999" y="629.0" width="200" height="58" fill="#e8e8e8" stroke="#999" stroke-width="2" rx="8"/>
<text x="900.0799999999999" y="647.0" text-anchor="middle" fill="#333" font-family="Arial,sans-serif" font-size="12" font-weight="bold">Emb: &#x27;never&#x27; (pos 7)</text>
<text x="900.0799999999999" y="665.0" text-anchor="middle" fill="#666" font-family="monospace" font-size="9">L-1:F-1</text>
<circle cx="982.0799999999999" cy="642.0" r="9" fill="#ccc"/>
<text x="982.0799999999999" y="646.0" text-anchor="middle" fill="#666" font-family="monospace" font-size="9" font-weight="bold">1</text>
<rect x="1040.08" y="629.0" width="200" height="58" fill="#e8e8e8" stroke="#999" stroke-width="2" rx="8"/>
<text x="1140.08" y="647.0" text-anchor="middle" fill="#333" font-family="Arial,sans-serif" font-size="12" font-weight="bold">Emb: &#x27;.&#x27; (pos 12)</text>
<text x="1140.08" y="665.0" text-anchor="middle" fill="#666" font-family="monospace" font-size="9">L-1:F-1</text>
<circle cx="1222.08" cy="642.0" r="9" fill="#ccc"/>
<text x="1222.08" y="646.0" text-anchor="middle" fill="#666" font-family="monospace" font-size="9" font-weight="bold">1</text>
<rect x="1280.08" y="622.0" width="265.90999999999997" height="72" fill="#e8e8e8" stroke="#999" stroke-width="2" rx="8"/>
<text x="1413.0349999999999" y="640.0" text-anchor="middle" fill="#333" font-family="Arial,sans-serif" font-size="12" font-weight="bold">Pronoun Detection</text>
<text x="1413.0349999999999" y="654.0" text-anchor="middle" fill="#333" font-family="Arial,sans-serif" font-size="12" font-weight="bold">(L0-F12519, F7509):</text>
<text x="1413.0349999999999" y="668.0" text-anchor="middle" fill="#333" font-family="Arial,sans-serif" font-size="12" font-weight="bold">feminine pronouns</text>
<text x="1413.0349999999999" y="686.0" text-anchor="middle" fill="#666" font-family="monospace" font-size="9">L0:F12519 —  the pronoun &quot;she&quot;</text>
<text x="1413.0349999999999" y="700.0" text-anchor="middle" fill="#666" font-family="monospace" font-size="9">L0:F7509 —  female pronouns and words lik</text>
<circle cx="1527.9899999999998" cy="635.0" r="9" fill="#ccc"/>
<text x="1527.9899999999998" y="639.0" text-anchor="middle" fill="#666" font-family="monospace" font-size="9" font-weight="bold">2</text>
<rect x="249.8" y="484.0" width="260.4" height="58" fill="#e8e8e8" stroke="#999" stroke-width="2" rx="8"/>
<text x="380.0" y="502.0" text-anchor="middle" fill="#333" font-family="Arial,sans-serif" font-size="12" font-weight="bold">Possessive Pronoun</text>
<text x="380.0" y="516.0" text-anchor="middle" fill="#333" font-family="Arial,sans-serif" font-size="12" font-weight="bold">(L1-F4232): &#x27;her&#x27; →</text>
<text x="380.0" y="530.0" text-anchor="middle" fill="#333" font-family="Arial,sans-serif" font-size="12" font-weight="bold">suppresses &#x27;she&#x27;</text>
<text x="380.0" y="548.0" text-anchor="middle" fill="#666" font-family="monospace" font-size="9">L1:F4232 —  the possessive pronoun &quot;her&quot;</text>
<circle cx="492.2" cy="497.0" r="9" fill="#ccc"/>
<text x="492.2" y="501.0" text-anchor="middle" fill="#666" font-family="monospace" font-size="9" font-weight="bold">1</text>
<rect x="244.29000000000002" y="194.0" width="271.41999999999996" height="58" fill="#e8e8e8" stroke="#999" stroke-width="2" rx="8"/>
<text x="380.0" y="212.0" text-anchor="middle" fill="#333" font-family="Arial,sans-serif" font-size="12" font-weight="bold">Gender Marker (L6-F11646):</text>
<text x="380.0" y="226.0" text-anchor="middle" fill="#333" font-family="Arial,sans-serif" font-size="12" font-weight="bold">&#x27;women references&#x27; —</text>
<text x="380.0" y="240.0" text-anchor="middle" fill="#333" font-family="Arial,sans-serif" font-size="12" font-weight="bold">NEGATIVE effect</text>
<text x="380.0" y="258.0" text-anchor="middle" fill="#666" font-family="monospace" font-size="9">L6:F11646 —  references to women, potentia</text>
<circle cx="497.71000000000004" cy="207.0" r="9" fill="#ccc"/>
<text x="497.71000000000004" y="211.0" text-anchor="middle" fill="#666" font-family="monospace" font-size="9" font-weight="bold">1</text>
<rect x="91.33500000000004" y="332.0" width="271.41999999999996" height="72" fill="#e8e8e8" stroke="#999" stroke-width="2" rx="8"/>
<text x="227.04500000000002" y="350.0" text-anchor="middle" fill="#333" font-family="Arial,sans-serif" font-size="12" font-weight="bold">Negative Sentiment</text>
<text x="227.04500000000002" y="364.0" text-anchor="middle" fill="#333" font-family="Arial,sans-serif" font-size="12" font-weight="bold">(L1-F14233, L4-F12637):</text>
<text x="227.04500000000002" y="378.0" text-anchor="middle" fill="#333" font-family="Arial,sans-serif" font-size="12" font-weight="bold">&#x27;never&#x27;, &#x27;not&#x27; — POSITIVE</text>
<text x="227.04500000000002" y="392.0" text-anchor="middle" fill="#333" font-family="Arial,sans-serif" font-size="12" font-weight="bold">effect</text>
<text x="227.04500000000002" y="410.0" text-anchor="middle" fill="#666" font-family="monospace" font-size="9">L1:F14233 —  negative sentiment markers su</text>
<text x="227.04500000000002" y="424.0" text-anchor="middle" fill="#666" font-family="monospace" font-size="9">L4:F12637 —  words that indicate something</text>
<circle cx="344.755" cy="345.0" r="9" fill="#ccc"/>
<text x="344.755" y="349.0" text-anchor="middle" fill="#666" font-family="monospace" font-size="9" font-weight="bold">2</text>
<rect x="402.75500000000005" y="332.0" width="265.90999999999997" height="72" fill="#e8e8e8" stroke="#999" stroke-width="2" rx="8"/>
<text x="535.71" y="350.0" text-anchor="middle" fill="#333" font-family="Arial,sans-serif" font-size="12" font-weight="bold">Business/Side Hustle</text>
<text x="535.71" y="364.0" text-anchor="middle" fill="#333" font-family="Arial,sans-serif" font-size="12" font-weight="bold">(L3-F3222, L2-F6966):</text>
<text x="535.71" y="378.0" text-anchor="middle" fill="#333" font-family="Arial,sans-serif" font-size="12" font-weight="bold">&#x27;side hustle&#x27; context —</text>
<text x="535.71" y="392.0" text-anchor="middle" fill="#333" font-family="Arial,sans-serif" font-size="12" font-weight="bold">POSITIVE effect</text>
<text x="535.71" y="410.0" text-anchor="middle" fill="#666" font-family="monospace" font-size="9">L3:F3222 —  numerical references, especia</text>
<text x="535.71" y="424.0" text-anchor="middle" fill="#666" font-family="monospace" font-size="9">L2:F6966 —  words related to business and</text>
<circle cx="650.665" cy="345.0" r="9" fill="#ccc"/>
<text x="650.665" y="349.0" text-anchor="middle" fill="#666" font-family="monospace" font-size="9" font-weight="bold">2</text>
<rect x="269.52" y="70.0" width="220.95999999999998" height="44" fill="#e8e8e8" stroke="#999" stroke-width="2" rx="8"/>
<text x="380.0" y="88.0" text-anchor="middle" fill="#333" font-family="Arial,sans-serif" font-size="12" font-weight="bold">Probe Classification Score</text>
<text x="380.0" y="102.0" text-anchor="middle" fill="#333" font-family="Arial,sans-serif" font-size="12" font-weight="bold">(L22 residual stream)</text>
<circle cx="472.47999999999996" cy="83.0" r="9" fill="#ccc"/>
<text x="472.47999999999996" y="87.0" text-anchor="middle" fill="#666" font-family="monospace" font-size="9" font-weight="bold">0</text>
<line x1="40" y1="774" x2="1625" y2="774" stroke="#ddd" stroke-width="1"/>
<text x="40" y="792" fill="#666" font-family="Arial,sans-serif" font-size="10" font-weight="bold" letter-spacing="1px">PROMPT</text>
<text x="40" y="810" fill="#333" font-family="monospace" font-size="11">"&lt;bos&gt;Until this year, she had never had a side hustle. She didn’t know about providing a service, creating a website, de"</text>
<text x="40" y="834" fill="#666" font-family="Arial,sans-serif" font-size="10" font-weight="bold" letter-spacing="1px">TOP OUTPUTS</text>
<rect x="40" y="839" width="100" height="20" fill="#e8e8e8" stroke="none" rx="6"/>
<text x="45" y="853" fill="#333" font-family="Arial,sans-serif" font-size="11" font-weight="bold">(empty) <tspan fill="#555" font-size="10">100%</tspan></text>
</svg>