<svg width="1961" height="1551" xmlns="http://www.w3.org/2000/svg">
<rect width="1961" height="1551" fill="#f5f5f5"/>
<rect x="15" y="15" width="1931" height="1521" fill="white" stroke="none" rx="12"/>
<text x="40" y="48" fill="#666" font-family="Arial,sans-serif" font-size="14" font-weight="bold" letter-spacing="1px">ATTRIBUTION CIRCUIT</text>
<text x="25" y="96.0" fill="#999" font-family="monospace" font-size="10" font-weight="bold" text-anchor="start">L36</text>
<text x="25" y="227.0" fill="#999" font-family="monospace" font-size="10" font-weight="bold" text-anchor="start">L14</text>
<text x="25" y="365.0" fill="#999" font-family="monospace" font-size="10" font-weight="bold" text-anchor="start">L9</text>
<text x="25" y="503.0" fill="#999" font-family="monospace" font-size="10" font-weight="bold" text-anchor="start">L8</text>
<text x="25" y="641.0" fill="#999" font-family="monospace" font-size="10" font-weight="bold" text-anchor="start">L7</text>
<text x="25" y="779.0" fill="#999" font-family="monospace" font-size="10" font-weight="bold" text-anchor="start">L6</text>
<text x="25" y="917.0" fill="#999" font-family="monospace" font-size="10" font-weight="bold" text-anchor="start">L4</text>
<text x="25" y="1055.0" fill="#999" font-family="monospace" font-size="10" font-weight="bold" text-anchor="start">L3</text>
<text x="25" y="1193.0" fill="#999" font-family="monospace" font-size="10" font-weight="bold" text-anchor="start">L1</text>
<text x="25" y="1331.0" fill="#999" font-family="monospace" font-size="10" font-weight="bold" text-anchor="start">L0</text>
<defs><marker id="arrow" markerWidth="8" markerHeight="6" refX="8" refY="3" orient="auto"><polygon points="0,0 8,3 0,6" fill="#8B4513" fill-opacity="0.7"/></marker></defs>
<path d="M 187.0,1305.0 C 239.3065,1123.5 483.4035,1123.5 535.71,942.0" fill="none" stroke="#8B4513" stroke-width="3" stroke-opacity="0.6" marker-end="url(#arrow)"/>
<path d="M 187.0,1305.0 C 192.18025,778.5 216.35475000000002,778.5 221.53500000000003,252.0" fill="none" stroke="#8B4513" stroke-width="3" stroke-opacity="0.6" marker-end="url(#arrow)"/>
<path d="M 434.0,1305.0 C 400.84325,1261.5 246.11174999999997,1261.5 212.95499999999998,1218.0" fill="none" stroke="#8B4513" stroke-width="3" stroke-opacity="0.6" marker-end="url(#arrow)"/>
<path d="M 1479.3149999999998,1298.0 C 1289.3609999999999,1258.0 402.909,1258.0 212.95499999999998,1218.0" fill="none" stroke="#8B4513" stroke-width="3" stroke-opacity="0.6" marker-end="url(#arrow)"/>
<path d="M 1200.955,1298.0 C 1052.7549999999999,1258.0 361.155,1258.0 212.95499999999998,1218.0" fill="none" stroke="#8B4513" stroke-width="3" stroke-opacity="0.6" marker-end="url(#arrow)"/>
<path d="M 1732.8799999999999,1298.0 C 1529.9479999999999,1189.0 582.932,1189.0 380.0,1080.0" fill="none" stroke="#8B4513" stroke-width="3" stroke-opacity="0.6" marker-end="url(#arrow)"/>
<path d="M 212.95499999999998,1160.0 C 214.65525,1051.0 222.58975,1051.0 224.29000000000002,942.0" fill="none" stroke="#8B4513" stroke-width="3" stroke-opacity="0.6" marker-end="url(#arrow)"/>
<path d="M 516.1099999999999,1160.0 C 472.33699999999993,1051.0 268.063,1051.0 224.29000000000002,942.0" fill="none" stroke="#8B4513" stroke-width="3" stroke-opacity="0.6" marker-end="url(#arrow)"/>
<path d="M 212.95499999999998,1160.0 C 261.36825,1051.0 487.29675000000003,1051.0 535.71,942.0" fill="none" stroke="#8B4513" stroke-width="3" stroke-opacity="0.6" marker-end="url(#arrow)"/>
<path d="M 819.2649999999999,1160.0 C 776.7317499999999,1051.0 578.24325,1051.0 535.71,942.0" fill="none" stroke="#8B4513" stroke-width="3" stroke-opacity="0.6" marker-end="url(#arrow)"/>
<path d="M 380.0,1022.0 C 403.3565,982.0 512.3535,982.0 535.71,942.0" fill="none" stroke="#8B4513" stroke-width="3" stroke-opacity="0.6" marker-end="url(#arrow)"/>
<path d="M 380.0,1022.0 C 356.6435,982.0 247.6465,982.0 224.29000000000002,942.0" fill="none" stroke="#8B4513" stroke-width="3" stroke-opacity="0.6" marker-end="url(#arrow)"/>
<path d="M 535.71,884.0 C 488.58375,568.0 268.66125,568.0 221.53500000000003,252.0" fill="none" stroke="#8B4513" stroke-width="3" stroke-opacity="0.6" marker-end="url(#arrow)"/>
<path d="M 224.29000000000002,884.0 C 271.00300000000004,568.0 488.997,568.0 535.71,252.0" fill="none" stroke="#8B4513" stroke-width="3" stroke-opacity="0.6" marker-end="url(#arrow)"/>
<path d="M 224.29000000000002,884.0 C 247.6465,499.0 356.6435,499.0 380.0,114.0" fill="none" stroke="#8B4513" stroke-width="3" stroke-opacity="0.6" marker-end="url(#arrow)"/>
<path d="M 535.71,884.0 C 512.3535,499.0 403.3565,499.0 380.0,114.0" fill="none" stroke="#8B4513" stroke-width="3" stroke-opacity="0.6" marker-end="url(#arrow)"/>
<path d="M 380.0,746.0 C 356.23025,499.0 245.30475,499.0 221.53500000000003,252.0" fill="none" stroke="#8B4513" stroke-width="3" stroke-opacity="0.6" marker-end="url(#arrow)"/>
<path d="M 535.71,608.0 C 488.58375,430.0 268.66125,430.0 221.53500000000003,252.0" fill="none" stroke="#8B4513" stroke-width="3" stroke-opacity="0.6" marker-end="url(#arrow)"/>
<path d="M 224.29000000000002,608.0 C 247.6465,499.0 356.6435,499.0 380.0,390.0" fill="none" stroke="#8B4513" stroke-width="3" stroke-opacity="0.6" marker-end="url(#arrow)"/>
<path d="M 380.0,470.0 C 403.3565,361.0 512.3535,361.0 535.71,252.0" fill="none" stroke="#8B4513" stroke-width="3" stroke-opacity="0.6" marker-end="url(#arrow)"/>
<path d="M 224.29000000000002,608.0 C 271.00300000000004,430.0 488.997,430.0 535.71,252.0" fill="none" stroke="#8B4513" stroke-width="3" stroke-opacity="0.6" marker-end="url(#arrow)"/>
<path d="M 380.0,332.0 C 356.23025,292.0 245.30475,292.0 221.53500000000003,252.0" fill="none" stroke="#8B4513" stroke-width="3" stroke-opacity="0.6" marker-end="url(#arrow)"/>
<path d="M 221.53500000000003,194.0 C 245.30475,154.0 356.23025,154.0 380.0,114.0" fill="none" stroke="#8B4513" stroke-width="3" stroke-opacity="0.6" marker-end="url(#arrow)"/>
<path d="M 535.71,194.0 C 512.3535,154.0 403.3565,154.0 380.0,114.0" fill="none" stroke="#8B4513" stroke-width="3" stroke-opacity="0.6" marker-end="url(#arrow)"/>
<rect x="80.0" y="1305.0" width="214.0" height="44" fill="#e8e8e8" stroke="#999" stroke-width="2" rx="8"/>
<text x="187.0" y="1323.0" text-anchor="middle" fill="#333" font-family="Arial,sans-serif" font-size="12" font-weight="bold">Emb: &#x27; nutrition&#x27; (pos 7)</text>
<circle cx="276.0" cy="1318.0" r="9" fill="#ccc"/>
<text x="276.0" y="1322.0" text-anchor="middle" fill="#666" font-family="monospace" font-size="9" font-weight="bold">0</text>
<rect x="334.0" y="1305.0" width="200" height="44" fill="#e8e8e8" stroke="#999" stroke-width="2" rx="8"/>
<text x="434.0" y="1323.0" text-anchor="middle" fill="#333" font-family="Arial,sans-serif" font-size="12" font-weight="bold">Emb: &#x27; sports&#x27; (pos 6)</text>
<circle cx="516.0" cy="1318.0" r="9" fill="#ccc"/>
<text x="516.0" y="1322.0" text-anchor="middle" fill="#666" font-family="monospace" font-size="9" font-weight="bold">0</text>
<rect x="574.0" y="1305.0" width="214.0" height="44" fill="#e8e8e8" stroke="#999" stroke-width="2" rx="8"/>
<text x="681.0" y="1323.0" text-anchor="middle" fill="#333" font-family="Arial,sans-serif" font-size="12" font-weight="bold">Emb: &#x27; expertise&#x27; (pos 4)</text>
<circle cx="770.0" cy="1318.0" r="9" fill="#ccc"/>
<text x="770.0" y="1322.0" text-anchor="middle" fill="#666" font-family="monospace" font-size="9" font-weight="bold">0</text>
<rect x="828.0" y="1305.0" width="200" height="44" fill="#e8e8e8" stroke="#999" stroke-width="2" rx="8"/>
<text x="928.0" y="1323.0" text-anchor="middle" fill="#333" font-family="Arial,sans-serif" font-size="12" font-weight="bold">Emb: &#x27;Her&#x27; (pos 1)</text>
<circle cx="1010.0" cy="1318.0" r="9" fill="#ccc"/>
<text x="1010.0" y="1322.0" text-anchor="middle" fill="#666" font-family="monospace" font-size="9" font-weight="bold">0</text>
<rect x="1068.0" y="1298.0" width="265.90999999999997" height="58" fill="#e8e8e8" stroke="#999" stroke-width="2" rx="8"/>
<text x="1200.955" y="1316.0" text-anchor="middle" fill="#333" font-family="Arial,sans-serif" font-size="12" font-weight="bold">L0: Nutrition/malnutrition</text>
<text x="1200.955" y="1330.0" text-anchor="middle" fill="#333" font-family="Arial,sans-serif" font-size="12" font-weight="bold">terms</text>
<text x="1200.955" y="1348.0" text-anchor="middle" fill="#666" font-family="monospace" font-size="9">L0:F7843 —  words related to nutrition an</text>
<circle cx="1315.9099999999999" cy="1311.0" r="9" fill="#ccc"/>
<text x="1315.9099999999999" y="1315.0" text-anchor="middle" fill="#666" font-family="monospace" font-size="9" font-weight="bold">1</text>
<rect x="1373.9099999999999" y="1298.0" width="210.81" height="58" fill="#e8e8e8" stroke="#999" stroke-width="2" rx="8"/>
<text x="1479.3149999999998" y="1316.0" text-anchor="middle" fill="#333" font-family="Arial,sans-serif" font-size="12" font-weight="bold">L0: Word &#x27;sports&#x27;</text>
<text x="1479.3149999999998" y="1334.0" text-anchor="middle" fill="#666" font-family="monospace" font-size="9">L0:F10254 —  the word &quot;sports&quot;.</text>
<circle cx="1566.7199999999998" cy="1311.0" r="9" fill="#ccc"/>
<text x="1566.7199999999998" y="1315.0" text-anchor="middle" fill="#666" font-family="monospace" font-size="9" font-weight="bold">1</text>
<rect x="1624.7199999999998" y="1298.0" width="216.32" height="58" fill="#e8e8e8" stroke="#999" stroke-width="2" rx="8"/>
<text x="1732.8799999999999" y="1316.0" text-anchor="middle" fill="#333" font-family="Arial,sans-serif" font-size="12" font-weight="bold">L0: Word &#x27;nutrition&#x27;</text>
<text x="1732.8799999999999" y="1330.0" text-anchor="middle" fill="#333" font-family="Arial,sans-serif" font-size="12" font-weight="bold">(highly specific)</text>
<text x="1732.8799999999999" y="1348.0" text-anchor="middle" fill="#666" font-family="monospace" font-size="9">L0:F5201 —  the word &quot;nutrition&quot;</text>
<circle cx="1823.0399999999997" cy="1311.0" r="9" fill="#ccc"/>
<text x="1823.0399999999997" y="1315.0" text-anchor="middle" fill="#666" font-family="monospace" font-size="9" font-weight="bold">1</text>
<rect x="80.0" y="1160.0" width="265.90999999999997" height="58" fill="#e8e8e8" stroke="#999" stroke-width="2" rx="8"/>
<text x="212.95499999999998" y="1178.0" text-anchor="middle" fill="#333" font-family="Arial,sans-serif" font-size="12" font-weight="bold">L1: Physical</text>
<text x="212.95499999999998" y="1192.0" text-anchor="middle" fill="#333" font-family="Arial,sans-serif" font-size="12" font-weight="bold">activity/muscle function</text>
<text x="212.95499999999998" y="1210.0" text-anchor="middle" fill="#666" font-family="monospace" font-size="9">L1:F6461 —  technical language around phy</text>
<circle cx="327.90999999999997" cy="1173.0" r="9" fill="#ccc"/>
<text x="327.90999999999997" y="1177.0" text-anchor="middle" fill="#666" font-family="monospace" font-size="9" font-weight="bold">1</text>
<rect x="385.9099999999999" y="1160.0" width="260.4" height="58" fill="#e8e8e8" stroke="#999" stroke-width="2" rx="8"/>
<text x="516.1099999999999" y="1178.0" text-anchor="middle" fill="#333" font-family="Arial,sans-serif" font-size="12" font-weight="bold">L1: Medical/scientific</text>
<text x="516.1099999999999" y="1192.0" text-anchor="middle" fill="#333" font-family="Arial,sans-serif" font-size="12" font-weight="bold">terminology</text>
<text x="516.1099999999999" y="1210.0" text-anchor="middle" fill="#666" font-family="monospace" font-size="9">L1:F760 —  scientific and medical termin</text>
<circle cx="628.31" cy="1173.0" r="9" fill="#ccc"/>
<text x="628.31" y="1177.0" text-anchor="middle" fill="#666" font-family="monospace" font-size="9" font-weight="bold">1</text>
<rect x="686.31" y="1160.0" width="265.90999999999997" height="58" fill="#e8e8e8" stroke="#999" stroke-width="2" rx="8"/>
<text x="819.2649999999999" y="1178.0" text-anchor="middle" fill="#333" font-family="Arial,sans-serif" font-size="12" font-weight="bold">L1: Dietary</text>
<text x="819.2649999999999" y="1192.0" text-anchor="middle" fill="#333" font-family="Arial,sans-serif" font-size="12" font-weight="bold">patterns/studies</text>
<text x="819.2649999999999" y="1210.0" text-anchor="middle" fill="#666" font-family="monospace" font-size="9">L1:F6631 —  words related to dietary patt</text>
<circle cx="934.2199999999999" cy="1173.0" r="9" fill="#ccc"/>
<text x="934.2199999999999" y="1177.0" text-anchor="middle" fill="#666" font-family="monospace" font-size="9" font-weight="bold">1</text>
<rect x="247.04500000000002" y="1022.0" width="265.90999999999997" height="58" fill="#e8e8e8" stroke="#999" stroke-width="2" rx="8"/>
<text x="380.0" y="1040.0" text-anchor="middle" fill="#333" font-family="Arial,sans-serif" font-size="12" font-weight="bold">L3: Food/nutrient/diet</text>
<text x="380.0" y="1054.0" text-anchor="middle" fill="#333" font-family="Arial,sans-serif" font-size="12" font-weight="bold">terms</text>
<text x="380.0" y="1072.0" text-anchor="middle" fill="#666" font-family="monospace" font-size="9">L3:F6920 — words related to consuming foo</text>
<circle cx="494.9549999999999" cy="1035.0" r="9" fill="#ccc"/>
<text x="494.9549999999999" y="1039.0" text-anchor="middle" fill="#666" font-family="monospace" font-size="9" font-weight="bold">1</text>
<rect x="88.58000000000004" y="884.0" width="271.41999999999996" height="58" fill="#e8e8e8" stroke="#999" stroke-width="2" rx="8"/>
<text x="224.29000000000002" y="902.0" text-anchor="middle" fill="#333" font-family="Arial,sans-serif" font-size="12" font-weight="bold">L4:</text>
<text x="224.29000000000002" y="916.0" text-anchor="middle" fill="#333" font-family="Arial,sans-serif" font-size="12" font-weight="bold">Health/medicine/diet/exercise</text>
<text x="224.29000000000002" y="934.0" text-anchor="middle" fill="#666" font-family="monospace" font-size="9">L4:F10494 —  words related to health, medi</text>
<circle cx="342.0" cy="897.0" r="9" fill="#ccc"/>
<text x="342.0" y="901.0" text-anchor="middle" fill="#666" font-family="monospace" font-size="9" font-weight="bold">1</text>
<rect x="400.00000000000006" y="884.0" width="271.41999999999996" height="58" fill="#e8e8e8" stroke="#999" stroke-width="2" rx="8"/>
<text x="535.71" y="902.0" text-anchor="middle" fill="#333" font-family="Arial,sans-serif" font-size="12" font-weight="bold">L4: Diets/dietary health</text>
<text x="535.71" y="916.0" text-anchor="middle" fill="#333" font-family="Arial,sans-serif" font-size="12" font-weight="bold">(KEY)</text>
<text x="535.71" y="934.0" text-anchor="middle" fill="#666" font-family="monospace" font-size="9">L4:F13412 —  terms related to diets and di</text>
<circle cx="653.4200000000001" cy="897.0" r="9" fill="#ccc"/>
<text x="653.4200000000001" y="901.0" text-anchor="middle" fill="#666" font-family="monospace" font-size="9" font-weight="bold">1</text>
<rect x="244.29000000000002" y="746.0" width="271.41999999999996" height="58" fill="#e8e8e8" stroke="#999" stroke-width="2" rx="8"/>
<text x="380.0" y="764.0" text-anchor="middle" fill="#333" font-family="Arial,sans-serif" font-size="12" font-weight="bold">L6: Food/nutrition terms</text>
<text x="380.0" y="782.0" text-anchor="middle" fill="#666" font-family="monospace" font-size="9">L6:F11327 —  words or phrases related to f</text>
<circle cx="497.71000000000004" cy="759.0" r="9" fill="#ccc"/>
<text x="497.71000000000004" y="763.0" text-anchor="middle" fill="#666" font-family="monospace" font-size="9" font-weight="bold">1</text>
<rect x="88.58000000000004" y="608.0" width="271.41999999999996" height="58" fill="#e8e8e8" stroke="#999" stroke-width="2" rx="8"/>
<text x="224.29000000000002" y="626.0" text-anchor="middle" fill="#333" font-family="Arial,sans-serif" font-size="12" font-weight="bold">L7: Physical/mental</text>
<text x="224.29000000000002" y="640.0" text-anchor="middle" fill="#333" font-family="Arial,sans-serif" font-size="12" font-weight="bold">training</text>
<text x="224.29000000000002" y="658.0" text-anchor="middle" fill="#666" font-family="monospace" font-size="9">L7:F13562 —  terms related to physical and</text>
<circle cx="342.0" cy="621.0" r="9" fill="#ccc"/>
<text x="342.0" y="625.0" text-anchor="middle" fill="#666" font-family="monospace" font-size="9" font-weight="bold">1</text>
<rect x="400.00000000000006" y="608.0" width="271.41999999999996" height="58" fill="#e8e8e8" stroke="#999" stroke-width="2" rx="8"/>
<text x="535.71" y="626.0" text-anchor="middle" fill="#333" font-family="Arial,sans-serif" font-size="12" font-weight="bold">L7: Vitamins/minerals</text>
<text x="535.71" y="644.0" text-anchor="middle" fill="#666" font-family="monospace" font-size="9">L7:F11540 —  scientific discussion of vita</text>
<circle cx="653.4200000000001" cy="621.0" r="9" fill="#ccc"/>
<text x="653.4200000000001" y="625.0" text-anchor="middle" fill="#666" font-family="monospace" font-size="9" font-weight="bold">1</text>
<rect x="247.04500000000002" y="470.0" width="265.90999999999997" height="58" fill="#e8e8e8" stroke="#999" stroke-width="2" rx="8"/>
<text x="380.0" y="488.0" text-anchor="middle" fill="#333" font-family="Arial,sans-serif" font-size="12" font-weight="bold">L8:</text>
<text x="380.0" y="502.0" text-anchor="middle" fill="#333" font-family="Arial,sans-serif" font-size="12" font-weight="bold">Exercise/biology/chemistry</text>
<text x="380.0" y="520.0" text-anchor="middle" fill="#666" font-family="monospace" font-size="9">L8:F7057 —  terms related to exercise, bi</text>
<circle cx="494.9549999999999" cy="483.0" r="9" fill="#ccc"/>
<text x="494.9549999999999" y="487.0" text-anchor="middle" fill="#666" font-family="monospace" font-size="9" font-weight="bold">1</text>
<rect x="244.29000000000002" y="332.0" width="271.41999999999996" height="58" fill="#e8e8e8" stroke="#999" stroke-width="2" rx="8"/>
<text x="380.0" y="350.0" text-anchor="middle" fill="#333" font-family="Arial,sans-serif" font-size="12" font-weight="bold">L9: Eating/meals</text>
<text x="380.0" y="368.0" text-anchor="middle" fill="#666" font-family="monospace" font-size="9">L9:F15926 — mentions about eating and meal</text>
<circle cx="497.71000000000004" cy="345.0" r="9" fill="#ccc"/>
<text x="497.71000000000004" y="349.0" text-anchor="middle" fill="#666" font-family="monospace" font-size="9" font-weight="bold">1</text>
<rect x="85.82500000000005" y="194.0" width="271.41999999999996" height="58" fill="#e8e8e8" stroke="#999" stroke-width="2" rx="8"/>
<text x="221.53500000000003" y="212.0" text-anchor="middle" fill="#333" font-family="Arial,sans-serif" font-size="12" font-weight="bold">L14: Food insecurity (KEY)</text>
<text x="221.53500000000003" y="230.0" text-anchor="middle" fill="#666" font-family="monospace" font-size="9">L14:F4197 —  words and phrases related to </text>
<circle cx="339.245" cy="207.0" r="9" fill="#ccc"/>
<text x="339.245" y="211.0" text-anchor="middle" fill="#666" font-family="monospace" font-size="9" font-weight="bold">1</text>
<rect x="397.24500000000006" y="194.0" width="276.92999999999995" height="58" fill="#e8e8e8" stroke="#999" stroke-width="2" rx="8"/>
<text x="535.71" y="212.0" text-anchor="middle" fill="#333" font-family="Arial,sans-serif" font-size="12" font-weight="bold">L14: Physical</text>
<text x="535.71" y="226.0" text-anchor="middle" fill="#333" font-family="Arial,sans-serif" font-size="12" font-weight="bold">activity/training (KEY)</text>
<text x="535.71" y="244.0" text-anchor="middle" fill="#666" font-family="monospace" font-size="9">L14:F16195 — mentions of physical activity </text>
<circle cx="656.175" cy="207.0" r="9" fill="#ccc"/>
<text x="656.175" y="211.0" text-anchor="middle" fill="#666" font-family="monospace" font-size="9" font-weight="bold">1</text>
<rect x="280.0" y="70.0" width="200" height="44" fill="#e8e8e8" stroke="#999" stroke-width="2" rx="8"/>
<text x="380.0" y="88.0" text-anchor="middle" fill="#333" font-family="Arial,sans-serif" font-size="12" font-weight="bold">Output: Probe</text>
<text x="380.0" y="102.0" text-anchor="middle" fill="#333" font-family="Arial,sans-serif" font-size="12" font-weight="bold">Classification</text>
<circle cx="462.0" cy="83.0" r="9" fill="#ccc"/>
<text x="462.0" y="87.0" text-anchor="middle" fill="#666" font-family="monospace" font-size="9" font-weight="bold">0</text>
<line x1="40" y1="1436" x2="1921" y2="1436" stroke="#ddd" stroke-width="1"/>
<text x="40" y="1454" fill="#666" font-family="Arial,sans-serif" font-size="10" font-weight="bold" letter-spacing="1px">PROMPT</text>
<text x="40" y="1472" fill="#333" font-family="monospace" font-size="11">"&lt;bos&gt;Her areas of expertise include sports nutrition, weight management and disordered eating. She is a spokesperson for"</text>
<text x="40" y="1496" fill="#666" font-family="Arial,sans-serif" font-size="10" font-weight="bold" letter-spacing="1px">TOP OUTPUTS</text>
<rect x="40" y="1501" width="100" height="20" fill="#e8e8e8" stroke="none" rx="6"/>
<text x="45" y="1515" fill="#333" font-family="Arial,sans-serif" font-size="11" font-weight="bold">(empty) <tspan fill="#555" font-size="10">100%</tspan></text>
</svg>