<svg width="3860" height="1703" xmlns="http://www.w3.org/2000/svg">
<rect width="3860" height="1703" fill="#f5f5f5"/>
<rect x="15" y="15" width="3830" height="1673" fill="white" stroke="none" rx="12"/>
<text x="40" y="48" fill="#666" font-family="Arial,sans-serif" font-size="14" font-weight="bold" letter-spacing="1px">ATTRIBUTION CIRCUIT</text>
<text x="25" y="96.0" fill="#999" font-family="monospace" font-size="10" font-weight="bold" text-anchor="start">L36</text>
<text x="25" y="227.0" fill="#999" font-family="monospace" font-size="10" font-weight="bold" text-anchor="start">L17</text>
<text x="25" y="365.0" fill="#999" font-family="monospace" font-size="10" font-weight="bold" text-anchor="start">L16</text>
<text x="25" y="503.0" fill="#999" font-family="monospace" font-size="10" font-weight="bold" text-anchor="start">L8</text>
<text x="25" y="641.0" fill="#999" font-family="monospace" font-size="10" font-weight="bold" text-anchor="start">L7</text>
<text x="25" y="779.0" fill="#999" font-family="monospace" font-size="10" font-weight="bold" text-anchor="start">L6</text>
<text x="25" y="917.0" fill="#999" font-family="monospace" font-size="10" font-weight="bold" text-anchor="start">L5</text>
<text x="25" y="1062.0" fill="#999" font-family="monospace" font-size="10" font-weight="bold" text-anchor="start">L4</text>
<text x="25" y="1207.0" fill="#999" font-family="monospace" font-size="10" font-weight="bold" text-anchor="start">L3</text>
<text x="25" y="1345.0" fill="#999" font-family="monospace" font-size="10" font-weight="bold" text-anchor="start">L2</text>
<text x="25" y="1483.0" fill="#999" font-family="monospace" font-size="10" font-weight="bold" text-anchor="start">L0</text>
<defs><marker id="arrow" markerWidth="8" markerHeight="6" refX="8" refY="3" orient="auto"><polygon points="0,0 8,3 0,6" fill="#8B4513" fill-opacity="0.7"/></marker></defs>
<path d="M 180.0,1508.0 C 541.05,1479.0 2225.95,1479.0 2587.0,1450.0" fill="none" stroke="#8B4513" stroke-width="3" stroke-opacity="0.6" marker-end="url(#arrow)"/>
<path d="M 1140.0,1508.0 C 1357.05,1479.0 2369.95,1479.0 2587.0,1450.0" fill="none" stroke="#8B4513" stroke-width="3" stroke-opacity="0.6" marker-end="url(#arrow)"/>
<path d="M 900.0,1450.0 C 799.05675,1341.0 327.98825,1341.0 227.04500000000002,1232.0" fill="none" stroke="#8B4513" stroke-width="3" stroke-opacity="0.6" marker-end="url(#arrow)"/>
<path d="M 900.0,1450.0 C 796.94325,1272.0 316.01175,1272.0 212.95499999999998,1094.0" fill="none" stroke="#8B4513" stroke-width="3" stroke-opacity="0.6" marker-end="url(#arrow)"/>
<path d="M 660.0,1450.0 C 595.05675,1341.0 291.98825,1341.0 227.04500000000002,1232.0" fill="none" stroke="#8B4513" stroke-width="3" stroke-opacity="0.6" marker-end="url(#arrow)"/>
<path d="M 660.0,1450.0 C 592.94325,1272.0 280.01175,1272.0 212.95499999999998,1094.0" fill="none" stroke="#8B4513" stroke-width="3" stroke-opacity="0.6" marker-end="url(#arrow)"/>
<path d="M 660.0,1450.0 C 730.60275,1268.5 1060.08225,1268.5 1130.685,1087.0" fill="none" stroke="#8B4513" stroke-width="3" stroke-opacity="0.6" marker-end="url(#arrow)"/>
<path d="M 1140.0,1450.0 C 1000.94325,1272.0 352.01175,1272.0 212.95499999999998,1094.0" fill="none" stroke="#8B4513" stroke-width="3" stroke-opacity="0.6" marker-end="url(#arrow)"/>
<path d="M 1380.0,1508.0 C 1598.1,1479.0 2615.9,1479.0 2834.0,1450.0" fill="none" stroke="#8B4513" stroke-width="3" stroke-opacity="0.6" marker-end="url(#arrow)"/>
<path d="M 1380.0,1450.0 C 1230.0,782.0 530.0,782.0 380.0,114.0" fill="none" stroke="#8B4513" stroke-width="3" stroke-opacity="0.6" marker-end="url(#arrow)"/>
<path d="M 2587.0,1450.0 C 2255.95,782.0 711.05,782.0 380.0,114.0" fill="none" stroke="#8B4513" stroke-width="3" stroke-opacity="0.6" marker-end="url(#arrow)"/>
<path d="M 2834.0,1450.0 C 2465.9,782.0 748.0999999999999,782.0 380.0,114.0" fill="none" stroke="#8B4513" stroke-width="3" stroke-opacity="0.6" marker-end="url(#arrow)"/>
<path d="M 227.04500000000002,1174.0 C 224.9315,1134.0 215.0685,1134.0 212.95499999999998,1094.0" fill="none" stroke="#8B4513" stroke-width="3" stroke-opacity="0.6" marker-end="url(#arrow)"/>
<path d="M 212.95499999999998,1022.0 C 238.01174999999998,568.0 354.94325,568.0 380.0,114.0" fill="none" stroke="#8B4513" stroke-width="3" stroke-opacity="0.6" marker-end="url(#arrow)"/>
<path d="M 3084.48,1450.0 C 2678.808,782.0 785.672,782.0 380.0,114.0" fill="none" stroke="#8B4513" stroke-width="3" stroke-opacity="0.6" marker-end="url(#arrow)"/>
<path d="M 3367.915,1450.0 C 2919.72775,782.0 828.18725,782.0 380.0,114.0" fill="none" stroke="#8B4513" stroke-width="3" stroke-opacity="0.6" marker-end="url(#arrow)"/>
<path d="M 2340.0,1508.0 C 2494.18725,1479.0 3213.72775,1479.0 3367.915,1450.0" fill="none" stroke="#8B4513" stroke-width="3" stroke-opacity="0.6" marker-end="url(#arrow)"/>
<path d="M 1860.0,1450.0 C 1620.0,1410.0 500.0,1410.0 260.0,1370.0" fill="none" stroke="#8B4513" stroke-width="3" stroke-opacity="0.6" marker-end="url(#arrow)"/>
<path d="M 1860.0,1450.0 C 1658.82975,1272.0 720.03525,1272.0 518.865,1094.0" fill="none" stroke="#8B4513" stroke-width="3" stroke-opacity="0.6" marker-end="url(#arrow)"/>
<path d="M 1620.0,1450.0 C 1454.82975,1272.0 684.03525,1272.0 518.865,1094.0" fill="none" stroke="#8B4513" stroke-width="3" stroke-opacity="0.6" marker-end="url(#arrow)"/>
<path d="M 260.0,1312.0 C 300.94325,1272.0 492.01174999999995,1272.0 532.9549999999999,1232.0" fill="none" stroke="#8B4513" stroke-width="3" stroke-opacity="0.6" marker-end="url(#arrow)"/>
<path d="M 510.91499999999996,1312.0 C 514.221,1272.0 529.6489999999999,1272.0 532.9549999999999,1232.0" fill="none" stroke="#8B4513" stroke-width="3" stroke-opacity="0.6" marker-end="url(#arrow)"/>
<path d="M 532.9549999999999,1174.0 C 530.8415,1134.0 520.9784999999999,1134.0 518.865,1094.0" fill="none" stroke="#8B4513" stroke-width="3" stroke-opacity="0.6" marker-end="url(#arrow)"/>
<path d="M 518.865,1022.0 C 498.03525,568.0 400.82975,568.0 380.0,114.0" fill="none" stroke="#8B4513" stroke-width="3" stroke-opacity="0.6" marker-end="url(#arrow)"/>
<path d="M 824.7749999999999,1029.0 C 758.0587499999999,571.5 446.71624999999995,571.5 380.0,114.0" fill="none" stroke="#8B4513" stroke-width="3" stroke-opacity="0.6" marker-end="url(#arrow)"/>
<path d="M 2100.0,1508.0 C 2331.1305,1479.0 3409.7394999999997,1479.0 3640.87,1450.0" fill="none" stroke="#8B4513" stroke-width="3" stroke-opacity="0.6" marker-end="url(#arrow)"/>
<path d="M 3640.87,1450.0 C 3151.7394999999997,782.0 869.1305,782.0 380.0,114.0" fill="none" stroke="#8B4513" stroke-width="3" stroke-opacity="0.6" marker-end="url(#arrow)"/>
<path d="M 180.0,1450.0 C 210.0,1196.0 350.0,1196.0 380.0,942.0" fill="none" stroke="#8B4513" stroke-width="3" stroke-opacity="0.6" marker-end="url(#arrow)"/>
<path d="M 420.0,1450.0 C 414.0,1196.0 386.0,1196.0 380.0,942.0" fill="none" stroke="#8B4513" stroke-width="3" stroke-opacity="0.6" marker-end="url(#arrow)"/>
<path d="M 380.0,884.0 C 357.05675,775.0 249.98825000000002,775.0 227.04500000000002,666.0" fill="none" stroke="#8B4513" stroke-width="3" stroke-opacity="0.6" marker-end="url(#arrow)"/>
<path d="M 380.0,884.0 C 402.53000000000003,775.0 507.67,775.0 530.2,666.0" fill="none" stroke="#8B4513" stroke-width="3" stroke-opacity="0.6" marker-end="url(#arrow)"/>
<path d="M 227.04500000000002,608.0 C 249.98825000000002,568.0 357.05675,568.0 380.0,528.0" fill="none" stroke="#8B4513" stroke-width="3" stroke-opacity="0.6" marker-end="url(#arrow)"/>
<path d="M 530.2,608.0 C 507.67,568.0 402.53000000000003,568.0 380.0,528.0" fill="none" stroke="#8B4513" stroke-width="3" stroke-opacity="0.6" marker-end="url(#arrow)"/>
<path d="M 380.0,470.0 C 380.0,292.0 380.0,292.0 380.0,114.0" fill="none" stroke="#8B4513" stroke-width="3" stroke-opacity="0.6" marker-end="url(#arrow)"/>
<path d="M 380.0,332.0 C 380.0,292.0 380.0,292.0 380.0,252.0" fill="none" stroke="#8B4513" stroke-width="3" stroke-opacity="0.6" marker-end="url(#arrow)"/>
<path d="M 380.0,194.0 C 380.0,154.0 380.0,154.0 380.0,114.0" fill="none" stroke="#8B4513" stroke-width="3" stroke-opacity="0.6" marker-end="url(#arrow)"/>
<path d="M 380.0,746.0 C 380.0,430.0 380.0,430.0 380.0,114.0" fill="none" stroke="#8B4513" stroke-width="3" stroke-opacity="0.6" marker-end="url(#arrow)"/>
<path d="M 1130.685,1029.0 C 1018.0822499999999,571.5 492.60275,571.5 380.0,114.0" fill="none" stroke="#8B4513" stroke-width="3" stroke-opacity="0.6" marker-end="url(#arrow)"/>
<path d="M 1439.35,1029.0 C 1280.4475,571.5 538.9024999999999,571.5 380.0,114.0" fill="none" stroke="#8B4513" stroke-width="3" stroke-opacity="0.6" marker-end="url(#arrow)"/>
<rect x="80.0" y="1450.0" width="200" height="58" fill="#e8e8e8" stroke="#999" stroke-width="2" rx="8"/>
<text x="180.0" y="1468.0" text-anchor="middle" fill="#333" font-family="Arial,sans-serif" font-size="12" font-weight="bold">Emb: &lt;bos&gt; (pos 0)</text>
<text x="180.0" y="1486.0" text-anchor="middle" fill="#666" font-family="monospace" font-size="9">L0:F-1</text>
<circle cx="262.0" cy="1463.0" r="9" fill="#ccc"/>
<text x="262.0" y="1467.0" text-anchor="middle" fill="#666" font-family="monospace" font-size="9" font-weight="bold">1</text>
<rect x="320.0" y="1450.0" width="200" height="58" fill="#e8e8e8" stroke="#999" stroke-width="2" rx="8"/>
<text x="420.0" y="1468.0" text-anchor="middle" fill="#333" font-family="Arial,sans-serif" font-size="12" font-weight="bold">Emb: That (pos 1)</text>
<text x="420.0" y="1486.0" text-anchor="middle" fill="#666" font-family="monospace" font-size="9">L0:F-1</text>
<circle cx="502.0" cy="1463.0" r="9" fill="#ccc"/>
<text x="502.0" y="1467.0" text-anchor="middle" fill="#666" font-family="monospace" font-size="9" font-weight="bold">1</text>
<rect x="560.0" y="1450.0" width="200" height="58" fill="#e8e8e8" stroke="#999" stroke-width="2" rx="8"/>
<text x="660.0" y="1468.0" text-anchor="middle" fill="#333" font-family="Arial,sans-serif" font-size="12" font-weight="bold">Emb: first (pos 2)</text>
<text x="660.0" y="1486.0" text-anchor="middle" fill="#666" font-family="monospace" font-size="9">L0:F-1</text>
<circle cx="742.0" cy="1463.0" r="9" fill="#ccc"/>
<text x="742.0" y="1467.0" text-anchor="middle" fill="#666" font-family="monospace" font-size="9" font-weight="bold">1</text>
<rect x="800.0" y="1450.0" width="200" height="58" fill="#e8e8e8" stroke="#999" stroke-width="2" rx="8"/>
<text x="900.0" y="1468.0" text-anchor="middle" fill="#333" font-family="Arial,sans-serif" font-size="12" font-weight="bold">Emb: glimpse (pos 3)</text>
<text x="900.0" y="1486.0" text-anchor="middle" fill="#666" font-family="monospace" font-size="9">L0:F-1</text>
<circle cx="982.0" cy="1463.0" r="9" fill="#ccc"/>
<text x="982.0" y="1467.0" text-anchor="middle" fill="#666" font-family="monospace" font-size="9" font-weight="bold">1</text>
<rect x="1040.0" y="1450.0" width="200" height="58" fill="#e8e8e8" stroke="#999" stroke-width="2" rx="8"/>
<text x="1140.0" y="1468.0" text-anchor="middle" fill="#333" font-family="Arial,sans-serif" font-size="12" font-weight="bold">Emb: of (pos 4)</text>
<text x="1140.0" y="1486.0" text-anchor="middle" fill="#666" font-family="monospace" font-size="9">L0:F-1</text>
<circle cx="1222.0" cy="1463.0" r="9" fill="#ccc"/>
<text x="1222.0" y="1467.0" text-anchor="middle" fill="#666" font-family="monospace" font-size="9" font-weight="bold">1</text>
<rect x="1280.0" y="1450.0" width="200" height="58" fill="#e8e8e8" stroke="#999" stroke-width="2" rx="8"/>
<text x="1380.0" y="1468.0" text-anchor="middle" fill="#333" font-family="Arial,sans-serif" font-size="12" font-weight="bold">Emb: of (pos 30)</text>
<text x="1380.0" y="1486.0" text-anchor="middle" fill="#666" font-family="monospace" font-size="9">L0:F-1</text>
<circle cx="1462.0" cy="1463.0" r="9" fill="#ccc"/>
<text x="1462.0" y="1467.0" text-anchor="middle" fill="#666" font-family="monospace" font-size="9" font-weight="bold">1</text>
<rect x="1520.0" y="1450.0" width="200" height="58" fill="#e8e8e8" stroke="#999" stroke-width="2" rx="8"/>
<text x="1620.0" y="1468.0" text-anchor="middle" fill="#333" font-family="Arial,sans-serif" font-size="12" font-weight="bold">Emb: steep (pos 8)</text>
<text x="1620.0" y="1486.0" text-anchor="middle" fill="#666" font-family="monospace" font-size="9">L0:F-1</text>
<circle cx="1702.0" cy="1463.0" r="9" fill="#ccc"/>
<text x="1702.0" y="1467.0" text-anchor="middle" fill="#666" font-family="monospace" font-size="9" font-weight="bold">1</text>
<rect x="1760.0" y="1450.0" width="200" height="58" fill="#e8e8e8" stroke="#999" stroke-width="2" rx="8"/>
<text x="1860.0" y="1468.0" text-anchor="middle" fill="#333" font-family="Arial,sans-serif" font-size="12" font-weight="bold">Emb: led (pos 9)</text>
<text x="1860.0" y="1486.0" text-anchor="middle" fill="#666" font-family="monospace" font-size="9">L0:F-1</text>
<circle cx="1942.0" cy="1463.0" r="9" fill="#ccc"/>
<text x="1942.0" y="1467.0" text-anchor="middle" fill="#666" font-family="monospace" font-size="9" font-weight="bold">1</text>
<rect x="2000.0" y="1450.0" width="200" height="58" fill="#e8e8e8" stroke="#999" stroke-width="2" rx="8"/>
<text x="2100.0" y="1468.0" text-anchor="middle" fill="#333" font-family="Arial,sans-serif" font-size="12" font-weight="bold">Emb: you (pos 21)</text>
<text x="2100.0" y="1486.0" text-anchor="middle" fill="#666" font-family="monospace" font-size="9">L0:F-1</text>
<circle cx="2182.0" cy="1463.0" r="9" fill="#ccc"/>
<text x="2182.0" y="1467.0" text-anchor="middle" fill="#666" font-family="monospace" font-size="9" font-weight="bold">1</text>
<rect x="2240.0" y="1450.0" width="200" height="58" fill="#e8e8e8" stroke="#999" stroke-width="2" rx="8"/>
<text x="2340.0" y="1468.0" text-anchor="middle" fill="#333" font-family="Arial,sans-serif" font-size="12" font-weight="bold">Emb: abbey (pos 27)</text>
<text x="2340.0" y="1486.0" text-anchor="middle" fill="#666" font-family="monospace" font-size="9">L0:F-1</text>
<circle cx="2422.0" cy="1463.0" r="9" fill="#ccc"/>
<text x="2422.0" y="1467.0" text-anchor="middle" fill="#666" font-family="monospace" font-size="9" font-weight="bold">1</text>
<rect x="2480.0" y="1450.0" width="214.0" height="58" fill="#e8e8e8" stroke="#999" stroke-width="2" rx="8"/>
<text x="2587.0" y="1468.0" text-anchor="middle" fill="#333" font-family="Arial,sans-serif" font-size="12" font-weight="bold">L0: Word &#x27;of&#x27; (frac=0.02)</text>
<text x="2587.0" y="1486.0" text-anchor="middle" fill="#666" font-family="monospace" font-size="9">L0:F2848 — the word &quot;of&quot;</text>
<circle cx="2676.0" cy="1463.0" r="9" fill="#ccc"/>
<text x="2676.0" y="1467.0" text-anchor="middle" fill="#666" font-family="monospace" font-size="9" font-weight="bold">1</text>
<rect x="2734.0" y="1450.0" width="200" height="58" fill="#e8e8e8" stroke="#999" stroke-width="2" rx="8"/>
<text x="2834.0" y="1468.0" text-anchor="middle" fill="#333" font-family="Arial,sans-serif" font-size="12" font-weight="bold">L0: Word &#x27;of&#x27; (pos 30)</text>
<text x="2834.0" y="1482.0" text-anchor="middle" fill="#333" font-family="Arial,sans-serif" font-size="12" font-weight="bold">(frac=0.02)</text>
<text x="2834.0" y="1500.0" text-anchor="middle" fill="#666" font-family="monospace" font-size="9">L0:F2848 — the word &quot;of&quot;</text>
<circle cx="2916.0" cy="1463.0" r="9" fill="#ccc"/>
<text x="2916.0" y="1467.0" text-anchor="middle" fill="#666" font-family="monospace" font-size="9" font-weight="bold">1</text>
<rect x="2974.0" y="1450.0" width="220.95999999999998" height="58" fill="#e8e8e8" stroke="#999" stroke-width="2" rx="8"/>
<text x="3084.48" y="1468.0" text-anchor="middle" fill="#333" font-family="Arial,sans-serif" font-size="12" font-weight="bold">L0: Word &#x27;the&#x27; (frac=0.03)</text>
<text x="3084.48" y="1486.0" text-anchor="middle" fill="#666" font-family="monospace" font-size="9">L0:F3820 — the word &quot;the&quot;</text>
<circle cx="3176.96" cy="1463.0" r="9" fill="#ccc"/>
<text x="3176.96" y="1467.0" text-anchor="middle" fill="#666" font-family="monospace" font-size="9" font-weight="bold">1</text>
<rect x="3234.96" y="1450.0" width="265.90999999999997" height="58" fill="#e8e8e8" stroke="#999" stroke-width="2" rx="8"/>
<text x="3367.915" y="1468.0" text-anchor="middle" fill="#333" font-family="Arial,sans-serif" font-size="12" font-weight="bold">L0: Technical documents</text>
<text x="3367.915" y="1482.0" text-anchor="middle" fill="#333" font-family="Arial,sans-serif" font-size="12" font-weight="bold">(frac=0.41) [HIGH]</text>
<text x="3367.915" y="1500.0" text-anchor="middle" fill="#666" font-family="monospace" font-size="9">L0:F9026 — technical documents or data, i</text>
<circle cx="3482.87" cy="1463.0" r="9" fill="#ccc"/>
<text x="3482.87" y="1467.0" text-anchor="middle" fill="#666" font-family="monospace" font-size="9" font-weight="bold">1</text>
<rect x="3540.87" y="1450.0" width="200" height="58" fill="#e8e8e8" stroke="#999" stroke-width="2" rx="8"/>
<text x="3640.87" y="1468.0" text-anchor="middle" fill="#333" font-family="Arial,sans-serif" font-size="12" font-weight="bold">L0: Pronoun &#x27;you&#x27;</text>
<text x="3640.87" y="1482.0" text-anchor="middle" fill="#333" font-family="Arial,sans-serif" font-size="12" font-weight="bold">(frac=0.02)</text>
<text x="3640.87" y="1500.0" text-anchor="middle" fill="#666" font-family="monospace" font-size="9">L0:F7710 — the pronoun &quot;you&quot;</text>
<circle cx="3722.87" cy="1463.0" r="9" fill="#ccc"/>
<text x="3722.87" y="1467.0" text-anchor="middle" fill="#666" font-family="monospace" font-size="9" font-weight="bold">1</text>
<rect x="149.085" y="1312.0" width="221.82999999999998" height="58" fill="#e8e8e8" stroke="#999" stroke-width="2" rx="8"/>
<text x="260.0" y="1330.0" text-anchor="middle" fill="#333" font-family="Arial,sans-serif" font-size="12" font-weight="bold">L2: Verbs ending &#x27;led&#x27;</text>
<text x="260.0" y="1348.0" text-anchor="middle" fill="#666" font-family="monospace" font-size="9">L2:F6145 —  verbs ending in &#x27;led&#x27;</text>
<circle cx="352.91499999999996" cy="1325.0" r="9" fill="#ccc"/>
<text x="352.91499999999996" y="1329.0" text-anchor="middle" fill="#666" font-family="monospace" font-size="9" font-weight="bold">1</text>
<rect x="410.91499999999996" y="1312.0" width="200" height="58" fill="#e8e8e8" stroke="#999" stroke-width="2" rx="8"/>
<text x="510.91499999999996" y="1330.0" text-anchor="middle" fill="#333" font-family="Arial,sans-serif" font-size="12" font-weight="bold">L2: Suffix &#x27;le&#x27;</text>
<text x="510.91499999999996" y="1348.0" text-anchor="middle" fill="#666" font-family="monospace" font-size="9">L2:F5878 — the suffix &quot;le&quot;</text>
<circle cx="592.915" cy="1325.0" r="9" fill="#ccc"/>
<text x="592.915" y="1329.0" text-anchor="middle" fill="#666" font-family="monospace" font-size="9" font-weight="bold">1</text>
<rect x="94.09000000000003" y="1174.0" width="265.90999999999997" height="58" fill="#e8e8e8" stroke="#999" stroke-width="2" rx="8"/>
<text x="227.04500000000002" y="1192.0" text-anchor="middle" fill="#333" font-family="Arial,sans-serif" font-size="12" font-weight="bold">L3: Forms of</text>
<text x="227.04500000000002" y="1206.0" text-anchor="middle" fill="#333" font-family="Arial,sans-serif" font-size="12" font-weight="bold">seeing/noticing</text>
<text x="227.04500000000002" y="1220.0" text-anchor="middle" fill="#333" font-family="Arial,sans-serif" font-size="12" font-weight="bold">(frac=0.006)</text>
<text x="227.04500000000002" y="1238.0" text-anchor="middle" fill="#666" font-family="monospace" font-size="9">L3:F6616 — different forms of seeing or n</text>
<circle cx="342.0" cy="1187.0" r="9" fill="#ccc"/>
<text x="342.0" y="1191.0" text-anchor="middle" fill="#666" font-family="monospace" font-size="9" font-weight="bold">1</text>
<rect x="399.99999999999994" y="1174.0" width="265.90999999999997" height="58" fill="#e8e8e8" stroke="#999" stroke-width="2" rx="8"/>
<text x="532.9549999999999" y="1192.0" text-anchor="middle" fill="#333" font-family="Arial,sans-serif" font-size="12" font-weight="bold">L3: Stata/stent mentions</text>
<text x="532.9549999999999" y="1210.0" text-anchor="middle" fill="#666" font-family="monospace" font-size="9">L3:F4081 — mentions of the statistical so</text>
<circle cx="647.9099999999999" cy="1187.0" r="9" fill="#ccc"/>
<text x="647.9099999999999" y="1191.0" text-anchor="middle" fill="#666" font-family="monospace" font-size="9" font-weight="bold">1</text>
<rect x="80.0" y="1022.0" width="265.90999999999997" height="72" fill="#e8e8e8" stroke="#999" stroke-width="2" rx="8"/>
<text x="212.95499999999998" y="1040.0" text-anchor="middle" fill="#333" font-family="Arial,sans-serif" font-size="12" font-weight="bold">L4: Plot summary words</text>
<text x="212.95499999999998" y="1054.0" text-anchor="middle" fill="#333" font-family="Arial,sans-serif" font-size="12" font-weight="bold">(frac=0.01)</text>
<text x="212.95499999999998" y="1072.0" text-anchor="middle" fill="#666" font-family="monospace" font-size="9">L4:F3833 —  words used when summarizing p</text>
<text x="212.95499999999998" y="1086.0" text-anchor="middle" fill="#666" font-family="monospace" font-size="9">L4:F3833 —  words used when summarizing p</text>
<circle cx="327.90999999999997" cy="1035.0" r="9" fill="#ccc"/>
<text x="327.90999999999997" y="1039.0" text-anchor="middle" fill="#666" font-family="monospace" font-size="9" font-weight="bold">2</text>
<rect x="385.91" y="1022.0" width="265.90999999999997" height="72" fill="#e8e8e8" stroke="#999" stroke-width="2" rx="8"/>
<text x="518.865" y="1040.0" text-anchor="middle" fill="#333" font-family="Arial,sans-serif" font-size="12" font-weight="bold">L4: Churches/buildings</text>
<text x="518.865" y="1054.0" text-anchor="middle" fill="#333" font-family="Arial,sans-serif" font-size="12" font-weight="bold">(frac=0.005)</text>
<text x="518.865" y="1072.0" text-anchor="middle" fill="#666" font-family="monospace" font-size="9">L4:F4605 —  words related to churches, ch</text>
<text x="518.865" y="1086.0" text-anchor="middle" fill="#666" font-family="monospace" font-size="9">L4:F4605 —  words related to churches, ch</text>
<circle cx="633.8199999999999" cy="1035.0" r="9" fill="#ccc"/>
<text x="633.8199999999999" y="1039.0" text-anchor="middle" fill="#666" font-family="monospace" font-size="9" font-weight="bold">2</text>
<rect x="691.8199999999999" y="1029.0" width="265.90999999999997" height="58" fill="#e8e8e8" stroke="#999" stroke-width="2" rx="8"/>
<text x="824.7749999999999" y="1047.0" text-anchor="middle" fill="#333" font-family="Arial,sans-serif" font-size="12" font-weight="bold">L4: Ancient</text>
<text x="824.7749999999999" y="1061.0" text-anchor="middle" fill="#333" font-family="Arial,sans-serif" font-size="12" font-weight="bold">settlements/fortifications</text>
<text x="824.7749999999999" y="1075.0" text-anchor="middle" fill="#333" font-family="Arial,sans-serif" font-size="12" font-weight="bold">(frac=0.005)</text>
<text x="824.7749999999999" y="1093.0" text-anchor="middle" fill="#666" font-family="monospace" font-size="9">L4:F5749 —  terms that describe ancient s</text>
<circle cx="939.7299999999999" cy="1042.0" r="9" fill="#ccc"/>
<text x="939.7299999999999" y="1046.0" text-anchor="middle" fill="#666" font-family="monospace" font-size="9" font-weight="bold">1</text>
<rect x="997.73" y="1029.0" width="265.90999999999997" height="58" fill="#e8e8e8" stroke="#999" stroke-width="2" rx="8"/>
<text x="1130.685" y="1047.0" text-anchor="middle" fill="#333" font-family="Arial,sans-serif" font-size="12" font-weight="bold">L4: Mentions of &#x27;first&#x27;</text>
<text x="1130.685" y="1061.0" text-anchor="middle" fill="#333" font-family="Arial,sans-serif" font-size="12" font-weight="bold">(frac=0.015)</text>
<text x="1130.685" y="1079.0" text-anchor="middle" fill="#666" font-family="monospace" font-size="9">L4:F2581 —  mentions of things being &quot;fir</text>
<circle cx="1245.6399999999999" cy="1042.0" r="9" fill="#ccc"/>
<text x="1245.6399999999999" y="1046.0" text-anchor="middle" fill="#666" font-family="monospace" font-size="9" font-weight="bold">1</text>
<rect x="1303.6399999999999" y="1029.0" width="271.41999999999996" height="58" fill="#e8e8e8" stroke="#999" stroke-width="2" rx="8"/>
<text x="1439.35" y="1047.0" text-anchor="middle" fill="#333" font-family="Arial,sans-serif" font-size="12" font-weight="bold">L4: Land</text>
<text x="1439.35" y="1061.0" text-anchor="middle" fill="#333" font-family="Arial,sans-serif" font-size="12" font-weight="bold">ownership/administration</text>
<text x="1439.35" y="1075.0" text-anchor="middle" fill="#333" font-family="Arial,sans-serif" font-size="12" font-weight="bold">(frac=0.005)</text>
<text x="1439.35" y="1093.0" text-anchor="middle" fill="#666" font-family="monospace" font-size="9">L4:F13244 —  terms related to land ownersh</text>
<circle cx="1557.06" cy="1042.0" r="9" fill="#ccc"/>
<text x="1557.06" y="1046.0" text-anchor="middle" fill="#666" font-family="monospace" font-size="9" font-weight="bold">1</text>
<rect x="247.04500000000002" y="884.0" width="265.90999999999997" height="58" fill="#e8e8e8" stroke="#999" stroke-width="2" rx="8"/>
<text x="380.0" y="902.0" text-anchor="middle" fill="#333" font-family="Arial,sans-serif" font-size="12" font-weight="bold">L5: Code documentation</text>
<text x="380.0" y="916.0" text-anchor="middle" fill="#333" font-family="Arial,sans-serif" font-size="12" font-weight="bold">blocks</text>
<text x="380.0" y="934.0" text-anchor="middle" fill="#666" font-family="monospace" font-size="9">L5:F3992 — the start of documentation blo</text>
<circle cx="494.9549999999999" cy="897.0" r="9" fill="#ccc"/>
<text x="494.9549999999999" y="901.0" text-anchor="middle" fill="#666" font-family="monospace" font-size="9" font-weight="bold">1</text>
<rect x="247.04500000000002" y="746.0" width="265.90999999999997" height="58" fill="#e8e8e8" stroke="#999" stroke-width="2" rx="8"/>
<text x="380.0" y="764.0" text-anchor="middle" fill="#333" font-family="Arial,sans-serif" font-size="12" font-weight="bold">L6: Word &#x27;first&#x27; +</text>
<text x="380.0" y="778.0" text-anchor="middle" fill="#333" font-family="Arial,sans-serif" font-size="12" font-weight="bold">following (frac=0.04)</text>
<text x="380.0" y="796.0" text-anchor="middle" fill="#666" font-family="monospace" font-size="9">L6:F5342 — the word &quot;first&quot; as well as wo</text>
<circle cx="494.9549999999999" cy="759.0" r="9" fill="#ccc"/>
<text x="494.9549999999999" y="763.0" text-anchor="middle" fill="#666" font-family="monospace" font-size="9" font-weight="bold">1</text>
<rect x="96.84500000000003" y="608.0" width="260.4" height="58" fill="#e8e8e8" stroke="#999" stroke-width="2" rx="8"/>
<text x="227.04500000000002" y="626.0" text-anchor="middle" fill="#333" font-family="Arial,sans-serif" font-size="12" font-weight="bold">L7: Code docs/imports</text>
<text x="227.04500000000002" y="644.0" text-anchor="middle" fill="#666" font-family="monospace" font-size="9">L7:F462 —  code documentation and import</text>
<circle cx="339.245" cy="621.0" r="9" fill="#ccc"/>
<text x="339.245" y="625.0" text-anchor="middle" fill="#666" font-family="monospace" font-size="9" font-weight="bold">1</text>
<rect x="397.24500000000006" y="608.0" width="265.90999999999997" height="58" fill="#e8e8e8" stroke="#999" stroke-width="2" rx="8"/>
<text x="530.2" y="626.0" text-anchor="middle" fill="#333" font-family="Arial,sans-serif" font-size="12" font-weight="bold">L7: Code docs/copyright</text>
<text x="530.2" y="644.0" text-anchor="middle" fill="#666" font-family="monospace" font-size="9">L7:F5741 —  code documentation or copyrig</text>
<circle cx="645.155" cy="621.0" r="9" fill="#ccc"/>
<text x="645.155" y="625.0" text-anchor="middle" fill="#666" font-family="monospace" font-size="9" font-weight="bold">1</text>
<rect x="247.04500000000002" y="470.0" width="265.90999999999997" height="58" fill="#e8e8e8" stroke="#999" stroke-width="2" rx="8"/>
<text x="380.0" y="488.0" text-anchor="middle" fill="#333" font-family="Arial,sans-serif" font-size="12" font-weight="bold">L8: &#x27;I&#x27; and &#x27;Exactly&#x27;</text>
<text x="380.0" y="502.0" text-anchor="middle" fill="#333" font-family="Arial,sans-serif" font-size="12" font-weight="bold">(frac=0.009) [SPURIOUS]</text>
<text x="380.0" y="520.0" text-anchor="middle" fill="#666" font-family="monospace" font-size="9">L8:F8406 — the first-person pronoun &quot;I&quot; a</text>
<circle cx="494.9549999999999" cy="483.0" r="9" fill="#ccc"/>
<text x="494.9549999999999" y="487.0" text-anchor="middle" fill="#666" font-family="monospace" font-size="9" font-weight="bold">1</text>
<rect x="273.0" y="332.0" width="214.0" height="58" fill="#e8e8e8" stroke="#999" stroke-width="2" rx="8"/>
<text x="380.0" y="350.0" text-anchor="middle" fill="#333" font-family="Arial,sans-serif" font-size="12" font-weight="bold">L16: Word &#x27;the&#x27; detection</text>
<text x="380.0" y="368.0" text-anchor="middle" fill="#666" font-family="monospace" font-size="9">L16:F10989 — the</text>
<circle cx="469.0" cy="345.0" r="9" fill="#ccc"/>
<text x="469.0" y="349.0" text-anchor="middle" fill="#666" font-family="monospace" font-size="9" font-weight="bold">1</text>
<rect x="280.0" y="194.0" width="200" height="58" fill="#e8e8e8" stroke="#999" stroke-width="2" rx="8"/>
<text x="380.0" y="212.0" text-anchor="middle" fill="#333" font-family="Arial,sans-serif" font-size="12" font-weight="bold">L17: High-activation</text>
<text x="380.0" y="226.0" text-anchor="middle" fill="#333" font-family="Arial,sans-serif" font-size="12" font-weight="bold">positive feature</text>
<text x="380.0" y="244.0" text-anchor="middle" fill="#666" font-family="monospace" font-size="9">L17:F451 — start of sentences</text>
<circle cx="462.0" cy="207.0" r="9" fill="#ccc"/>
<text x="462.0" y="211.0" text-anchor="middle" fill="#666" font-family="monospace" font-size="9" font-weight="bold">1</text>
<rect x="279.96000000000004" y="70.0" width="200.07999999999998" height="44" fill="#e8e8e8" stroke="#999" stroke-width="2" rx="8"/>
<text x="380.0" y="88.0" text-anchor="middle" fill="#333" font-family="Arial,sans-serif" font-size="12" font-weight="bold">Output: Probe Direction</text>
<circle cx="462.04" cy="83.0" r="9" fill="#ccc"/>
<text x="462.04" y="87.0" text-anchor="middle" fill="#666" font-family="monospace" font-size="9" font-weight="bold">0</text>
<line x1="40" y1="1588" x2="3820" y2="1588" stroke="#ddd" stroke-width="1"/>
<text x="40" y="1606" fill="#666" font-family="Arial,sans-serif" font-size="10" font-weight="bold" letter-spacing="1px">PROMPT</text>
<text x="40" y="1624" fill="#333" font-family="monospace" font-size="11">"&lt;bos&gt;That first glimpse of the towering, steepled abbey rising from the sea on its rock is a moment you will not forget."</text>
<text x="40" y="1648" fill="#666" font-family="Arial,sans-serif" font-size="10" font-weight="bold" letter-spacing="1px">TOP OUTPUTS</text>
<rect x="40" y="1653" width="100" height="20" fill="#e8e8e8" stroke="none" rx="6"/>
<text x="45" y="1667" fill="#333" font-family="Arial,sans-serif" font-size="11" font-weight="bold">(empty) <tspan fill="#555" font-size="10">100%</tspan></text>
</svg>