<svg width="4227" height="1193" xmlns="http://www.w3.org/2000/svg">
<rect width="4227" height="1193" fill="#f5f5f5"/>
<rect x="15" y="15" width="4197" height="1163" fill="white" stroke="none" rx="12"/>
<text x="40" y="48" fill="#666" font-family="Arial,sans-serif" font-size="14" font-weight="bold" letter-spacing="1px">ATTRIBUTION CIRCUIT</text>
<text x="25" y="96.0" fill="#999" font-family="monospace" font-size="10" font-weight="bold" text-anchor="start">L36</text>
<text x="25" y="227.0" fill="#999" font-family="monospace" font-size="10" font-weight="bold" text-anchor="start">L14</text>
<text x="25" y="372.0" fill="#999" font-family="monospace" font-size="10" font-weight="bold" text-anchor="start">L7</text>
<text x="25" y="524.0" fill="#999" font-family="monospace" font-size="10" font-weight="bold" text-anchor="start">L6</text>
<text x="25" y="676.0" fill="#999" font-family="monospace" font-size="10" font-weight="bold" text-anchor="start">L2</text>
<text x="25" y="821.0" fill="#999" font-family="monospace" font-size="10" font-weight="bold" text-anchor="start">L1</text>
<text x="25" y="966.0" fill="#999" font-family="monospace" font-size="10" font-weight="bold" text-anchor="start">L0</text>
<defs><marker id="arrow" markerWidth="8" markerHeight="6" refX="8" refY="3" orient="auto"><polygon points="0,0 8,3 0,6" fill="#8B4513" fill-opacity="0.7"/></marker></defs>
<path d="M 180.0,933.0 C 186.64350000000002,817.0 217.64650000000003,817.0 224.29000000000005,701.0" fill="none" stroke="#8B4513" stroke-width="3" stroke-opacity="0.6" marker-end="url(#arrow)"/>
<path d="M 180.0,991.0 C 595.305,958.5 2533.395,958.5 2948.7,926.0" fill="none" stroke="#8B4513" stroke-width="3" stroke-opacity="0.6" marker-end="url(#arrow)"/>
<path d="M 224.29000000000005,643.0 C 247.64650000000003,378.5 356.6435,378.5 380.0,114.0" fill="none" stroke="#8B4513" stroke-width="3" stroke-opacity="0.6" marker-end="url(#arrow)"/>
<path d="M 423.52,991.0 C 960.1344999999999,962.0 3464.3355,962.0 4000.95,933.0" fill="none" stroke="#8B4513" stroke-width="3" stroke-opacity="0.6" marker-end="url(#arrow)"/>
<path d="M 4000.95,933.0 C 3457.8075,523.5 923.1424999999999,523.5 380.0,114.0" fill="none" stroke="#8B4513" stroke-width="3" stroke-opacity="0.6" marker-end="url(#arrow)"/>
<path d="M 677.52,991.0 C 1061.604,958.5 2853.996,958.5 3238.08,926.0" fill="none" stroke="#8B4513" stroke-width="3" stroke-opacity="0.6" marker-end="url(#arrow)"/>
<path d="M 677.52,933.0 C 632.8919999999999,889.5 424.628,889.5 380.0,846.0" fill="none" stroke="#8B4513" stroke-width="3" stroke-opacity="0.6" marker-end="url(#arrow)"/>
<path d="M 931.52,991.0 C 1277.504,958.5 2892.096,958.5 3238.08,926.0" fill="none" stroke="#8B4513" stroke-width="3" stroke-opacity="0.6" marker-end="url(#arrow)"/>
<path d="M 931.52,933.0 C 848.792,889.5 462.728,889.5 380.0,846.0" fill="none" stroke="#8B4513" stroke-width="3" stroke-opacity="0.6" marker-end="url(#arrow)"/>
<path d="M 3238.08,926.0 C 2809.368,886.0 808.712,886.0 380.0,846.0" fill="none" stroke="#8B4513" stroke-width="3" stroke-opacity="0.6" marker-end="url(#arrow)"/>
<path d="M 380.0,788.0 C 380.0,451.0 380.0,451.0 380.0,114.0" fill="none" stroke="#8B4513" stroke-width="3" stroke-opacity="0.6" marker-end="url(#arrow)"/>
<path d="M 1182.04,991.0 C 1531.8084999999999,962.0 3164.0615,962.0 3513.83,933.0" fill="none" stroke="#8B4513" stroke-width="3" stroke-opacity="0.6" marker-end="url(#arrow)"/>
<path d="M 1182.04,933.0 C 1038.3775,668.5 367.9525,668.5 224.29000000000002,404.0" fill="none" stroke="#8B4513" stroke-width="3" stroke-opacity="0.6" marker-end="url(#arrow)"/>
<path d="M 1182.04,933.0 C 1061.734,592.5 500.306,592.5 380.0,252.0" fill="none" stroke="#8B4513" stroke-width="3" stroke-opacity="0.6" marker-end="url(#arrow)"/>
<path d="M 224.29000000000002,332.0 C 247.6465,292.0 356.6435,292.0 380.0,252.0" fill="none" stroke="#8B4513" stroke-width="3" stroke-opacity="0.6" marker-end="url(#arrow)"/>
<path d="M 380.0,194.0 C 380.0,154.0 380.0,154.0 380.0,114.0" fill="none" stroke="#8B4513" stroke-width="3" stroke-opacity="0.6" marker-end="url(#arrow)"/>
<path d="M 3513.83,933.0 C 3043.7555,523.5 850.0745,523.5 380.0,114.0" fill="none" stroke="#8B4513" stroke-width="3" stroke-opacity="0.6" marker-end="url(#arrow)"/>
<path d="M 1429.04,991.0 C 1777.7704999999999,958.5 3405.1794999999997,958.5 3753.91,926.0" fill="none" stroke="#8B4513" stroke-width="3" stroke-opacity="0.6" marker-end="url(#arrow)"/>
<path d="M 3753.91,926.0 C 3247.8235,520.0 886.0864999999999,520.0 380.0,114.0" fill="none" stroke="#8B4513" stroke-width="3" stroke-opacity="0.6" marker-end="url(#arrow)"/>
<path d="M 1669.04,933.0 C 1475.684,523.5 573.356,523.5 380.0,114.0" fill="none" stroke="#8B4513" stroke-width="3" stroke-opacity="0.6" marker-end="url(#arrow)"/>
<path d="M 1909.08,933.0 C 1679.7179999999998,744.5 609.362,744.5 380.0,556.0" fill="none" stroke="#8B4513" stroke-width="3" stroke-opacity="0.6" marker-end="url(#arrow)"/>
<path d="M 380.0,484.0 C 380.0,299.0 380.0,299.0 380.0,114.0" fill="none" stroke="#8B4513" stroke-width="3" stroke-opacity="0.6" marker-end="url(#arrow)"/>
<path d="M 2662.075,933.0 C 2319.76375,523.5 722.31125,523.5 380.0,114.0" fill="none" stroke="#8B4513" stroke-width="3" stroke-opacity="0.6" marker-end="url(#arrow)"/>
<path d="M 2149.12,933.0 C 1903.3239999999998,820.5 756.276,820.5 510.48,708.0" fill="none" stroke="#8B4513" stroke-width="3" stroke-opacity="0.6" marker-end="url(#arrow)"/>
<path d="M 2389.12,933.0 C 2107.324,820.5 792.2760000000001,820.5 510.48,708.0" fill="none" stroke="#8B4513" stroke-width="3" stroke-opacity="0.6" marker-end="url(#arrow)"/>
<path d="M 510.48,636.0 C 513.85125,520.0 529.5837499999999,520.0 532.9549999999999,404.0" fill="none" stroke="#8B4513" stroke-width="3" stroke-opacity="0.6" marker-end="url(#arrow)"/>
<path d="M 532.9549999999999,332.0 C 510.01174999999995,223.0 402.94325,223.0 380.0,114.0" fill="none" stroke="#8B4513" stroke-width="3" stroke-opacity="0.6" marker-end="url(#arrow)"/>
<rect x="80.0" y="933.0" width="200" height="58" fill="#e8e8e8" stroke="#999" stroke-width="2" rx="8"/>
<text x="180.0" y="951.0" text-anchor="middle" fill="#333" font-family="Arial,sans-serif" font-size="12" font-weight="bold">Emb: &#x27;Daniel&#x27; (pos 1)</text>
<text x="180.0" y="969.0" text-anchor="middle" fill="#666" font-family="monospace" font-size="9">L-1:F-1</text>
<circle cx="262.0" cy="946.0" r="9" fill="#ccc"/>
<text x="262.0" y="950.0" text-anchor="middle" fill="#666" font-family="monospace" font-size="9" font-weight="bold">1</text>
<rect x="320.0" y="933.0" width="207.04" height="58" fill="#e8e8e8" stroke="#999" stroke-width="2" rx="8"/>
<text x="423.52" y="951.0" text-anchor="middle" fill="#333" font-family="Arial,sans-serif" font-size="12" font-weight="bold">Emb: &#x27; received&#x27; (pos 2)</text>
<text x="423.52" y="969.0" text-anchor="middle" fill="#666" font-family="monospace" font-size="9">L-1:F-1</text>
<circle cx="509.03999999999996" cy="946.0" r="9" fill="#ccc"/>
<text x="509.03999999999996" y="950.0" text-anchor="middle" fill="#666" font-family="monospace" font-size="9" font-weight="bold">1</text>
<rect x="567.04" y="933.0" width="220.95999999999998" height="58" fill="#e8e8e8" stroke="#999" stroke-width="2" rx="8"/>
<text x="677.52" y="951.0" text-anchor="middle" fill="#333" font-family="Arial,sans-serif" font-size="12" font-weight="bold">Emb: &#x27; Mechanical&#x27; (pos 8)</text>
<text x="677.52" y="969.0" text-anchor="middle" fill="#666" font-family="monospace" font-size="9">L-1:F-1</text>
<circle cx="770.0" cy="946.0" r="9" fill="#ccc"/>
<text x="770.0" y="950.0" text-anchor="middle" fill="#666" font-family="monospace" font-size="9" font-weight="bold">1</text>
<rect x="828.0" y="933.0" width="207.04" height="58" fill="#e8e8e8" stroke="#999" stroke-width="2" rx="8"/>
<text x="931.52" y="951.0" text-anchor="middle" fill="#333" font-family="Arial,sans-serif" font-size="12" font-weight="bold">Emb: &#x27; Engineering&#x27; (pos</text>
<text x="931.52" y="965.0" text-anchor="middle" fill="#333" font-family="Arial,sans-serif" font-size="12" font-weight="bold">9)</text>
<text x="931.52" y="983.0" text-anchor="middle" fill="#666" font-family="monospace" font-size="9">L-1:F-1</text>
<circle cx="1017.04" cy="946.0" r="9" fill="#ccc"/>
<text x="1017.04" y="950.0" text-anchor="middle" fill="#666" font-family="monospace" font-size="9" font-weight="bold">1</text>
<rect x="1075.04" y="933.0" width="214.0" height="58" fill="#e8e8e8" stroke="#999" stroke-width="2" rx="8"/>
<text x="1182.04" y="951.0" text-anchor="middle" fill="#333" font-family="Arial,sans-serif" font-size="12" font-weight="bold">Emb: &#x27; Waterloo&#x27; (pos 14)</text>
<text x="1182.04" y="969.0" text-anchor="middle" fill="#666" font-family="monospace" font-size="9">L-1:F-1</text>
<circle cx="1271.04" cy="946.0" r="9" fill="#ccc"/>
<text x="1271.04" y="950.0" text-anchor="middle" fill="#666" font-family="monospace" font-size="9" font-weight="bold">1</text>
<rect x="1329.04" y="933.0" width="200" height="58" fill="#e8e8e8" stroke="#999" stroke-width="2" rx="8"/>
<text x="1429.04" y="951.0" text-anchor="middle" fill="#333" font-family="Arial,sans-serif" font-size="12" font-weight="bold">Emb: &#x27;1993&#x27; (pos 18)</text>
<text x="1429.04" y="969.0" text-anchor="middle" fill="#666" font-family="monospace" font-size="9">L-1:F-1</text>
<circle cx="1511.04" cy="946.0" r="9" fill="#ccc"/>
<text x="1511.04" y="950.0" text-anchor="middle" fill="#666" font-family="monospace" font-size="9" font-weight="bold">1</text>
<rect x="1569.04" y="933.0" width="200" height="58" fill="#e8e8e8" stroke="#999" stroke-width="2" rx="8"/>
<text x="1669.04" y="951.0" text-anchor="middle" fill="#333" font-family="Arial,sans-serif" font-size="12" font-weight="bold">Emb: &#x27; later&#x27; (pos 23)</text>
<text x="1669.04" y="969.0" text-anchor="middle" fill="#666" font-family="monospace" font-size="9">L-1:F-1</text>
<circle cx="1751.04" cy="946.0" r="9" fill="#ccc"/>
<text x="1751.04" y="950.0" text-anchor="middle" fill="#666" font-family="monospace" font-size="9" font-weight="bold">1</text>
<rect x="1809.04" y="933.0" width="200.07999999999998" height="58" fill="#e8e8e8" stroke="#999" stroke-width="2" rx="8"/>
<text x="1909.08" y="951.0" text-anchor="middle" fill="#333" font-family="Arial,sans-serif" font-size="12" font-weight="bold">Emb: &#x27; Beirut&#x27; (pos 38)</text>
<text x="1909.08" y="969.0" text-anchor="middle" fill="#666" font-family="monospace" font-size="9">L-1:F-1</text>
<circle cx="1991.12" cy="946.0" r="9" fill="#ccc"/>
<text x="1991.12" y="950.0" text-anchor="middle" fill="#666" font-family="monospace" font-size="9" font-weight="bold">1</text>
<rect x="2049.12" y="933.0" width="200" height="58" fill="#e8e8e8" stroke="#999" stroke-width="2" rx="8"/>
<text x="2149.12" y="951.0" text-anchor="middle" fill="#333" font-family="Arial,sans-serif" font-size="12" font-weight="bold">Emb: &#x27; Ph&#x27; (pos 48)</text>
<text x="2149.12" y="969.0" text-anchor="middle" fill="#666" font-family="monospace" font-size="9">L-1:F-1</text>
<circle cx="2231.12" cy="946.0" r="9" fill="#ccc"/>
<text x="2231.12" y="950.0" text-anchor="middle" fill="#666" font-family="monospace" font-size="9" font-weight="bold">1</text>
<rect x="2289.12" y="933.0" width="200" height="58" fill="#e8e8e8" stroke="#999" stroke-width="2" rx="8"/>
<text x="2389.12" y="951.0" text-anchor="middle" fill="#333" font-family="Arial,sans-serif" font-size="12" font-weight="bold">Emb: &#x27;D&#x27; (pos 50)</text>
<text x="2389.12" y="969.0" text-anchor="middle" fill="#666" font-family="monospace" font-size="9">L-1:F-1</text>
<circle cx="2471.12" cy="946.0" r="9" fill="#ccc"/>
<text x="2471.12" y="950.0" text-anchor="middle" fill="#666" font-family="monospace" font-size="9" font-weight="bold">1</text>
<rect x="2529.12" y="933.0" width="265.90999999999997" height="58" fill="#e8e8e8" stroke="#999" stroke-width="2" rx="8"/>
<text x="2662.075" y="951.0" text-anchor="middle" fill="#333" font-family="Arial,sans-serif" font-size="12" font-weight="bold">Gender Pronoun Detection:</text>
<text x="2662.075" y="965.0" text-anchor="middle" fill="#333" font-family="Arial,sans-serif" font-size="12" font-weight="bold">&#x27;his&#x27;/&#x27;he&#x27; (L0:F2994)</text>
<text x="2662.075" y="983.0" text-anchor="middle" fill="#666" font-family="monospace" font-size="9">L0:F2994 — the pronoun &quot;his&quot; and the pron</text>
<circle cx="2777.0299999999997" cy="946.0" r="9" fill="#ccc"/>
<text x="2777.0299999999997" y="950.0" text-anchor="middle" fill="#666" font-family="monospace" font-size="9" font-weight="bold">1</text>
<rect x="113.81000000000006" y="643.0" width="220.95999999999998" height="58" fill="#e8e8e8" stroke="#999" stroke-width="2" rx="8"/>
<text x="224.29000000000005" y="661.0" text-anchor="middle" fill="#333" font-family="Arial,sans-serif" font-size="12" font-weight="bold">People&#x27;s Names: &#x27;Daniel&#x27; →</text>
<text x="224.29000000000005" y="675.0" text-anchor="middle" fill="#333" font-family="Arial,sans-serif" font-size="12" font-weight="bold">Name Detection (L2:F16309)</text>
<text x="224.29000000000005" y="693.0" text-anchor="middle" fill="#666" font-family="monospace" font-size="9">L2:F16309 —  people&#x27;s names</text>
<circle cx="316.77000000000004" cy="656.0" r="9" fill="#ccc"/>
<text x="316.77000000000004" y="660.0" text-anchor="middle" fill="#666" font-family="monospace" font-size="9" font-weight="bold">1</text>
<rect x="2835.0299999999997" y="926.0" width="227.33999999999997" height="72" fill="#e8e8e8" stroke="#999" stroke-width="2" rx="8"/>
<text x="2948.7" y="944.0" text-anchor="middle" fill="#333" font-family="Arial,sans-serif" font-size="12" font-weight="bold">Proper Nouns Detectors</text>
<text x="2948.7" y="958.0" text-anchor="middle" fill="#333" font-family="Arial,sans-serif" font-size="12" font-weight="bold">(L0:F7532, L0:F6226)</text>
<text x="2948.7" y="976.0" text-anchor="middle" fill="#666" font-family="monospace" font-size="9">L0:F7532 —  proper nouns</text>
<text x="2948.7" y="990.0" text-anchor="middle" fill="#666" font-family="monospace" font-size="9">L0:F6226 —  proper nouns of people</text>
<circle cx="3044.37" cy="939.0" r="9" fill="#ccc"/>
<text x="3044.37" y="943.0" text-anchor="middle" fill="#666" font-family="monospace" font-size="9" font-weight="bold">2</text>
<rect x="276.48" y="788.0" width="207.04" height="58" fill="#e8e8e8" stroke="#999" stroke-width="2" rx="8"/>
<text x="380.0" y="806.0" text-anchor="middle" fill="#333" font-family="Arial,sans-serif" font-size="12" font-weight="bold">Engineer Detection:</text>
<text x="380.0" y="820.0" text-anchor="middle" fill="#333" font-family="Arial,sans-serif" font-size="12" font-weight="bold">&#x27;Engineering&#x27; (L1:F1372)</text>
<text x="380.0" y="838.0" text-anchor="middle" fill="#666" font-family="monospace" font-size="9">L1:F1372 — the word &quot;engineer&quot;</text>
<circle cx="465.52" cy="801.0" r="9" fill="#ccc"/>
<text x="465.52" y="805.0" text-anchor="middle" fill="#666" font-family="monospace" font-size="9" font-weight="bold">1</text>
<rect x="3102.37" y="926.0" width="271.41999999999996" height="72" fill="#e8e8e8" stroke="#999" stroke-width="2" rx="8"/>
<text x="3238.08" y="944.0" text-anchor="middle" fill="#333" font-family="Arial,sans-serif" font-size="12" font-weight="bold">Engineer-Related Features</text>
<text x="3238.08" y="958.0" text-anchor="middle" fill="#333" font-family="Arial,sans-serif" font-size="12" font-weight="bold">(L0:F6414, L0:F15570)</text>
<text x="3238.08" y="976.0" text-anchor="middle" fill="#666" font-family="monospace" font-size="9">L0:F6414 —  the job title of &quot;engineer&quot;, </text>
<text x="3238.08" y="990.0" text-anchor="middle" fill="#666" font-family="monospace" font-size="9">L0:F15570 —  words and phrases related to </text>
<circle cx="3355.79" cy="939.0" r="9" fill="#ccc"/>
<text x="3355.79" y="943.0" text-anchor="middle" fill="#666" font-family="monospace" font-size="9" font-weight="bold">2</text>
<rect x="244.29000000000002" y="194.0" width="271.41999999999996" height="58" fill="#e8e8e8" stroke="#999" stroke-width="2" rx="8"/>
<text x="380.0" y="212.0" text-anchor="middle" fill="#333" font-family="Arial,sans-serif" font-size="12" font-weight="bold">Canadian Places:</text>
<text x="380.0" y="226.0" text-anchor="middle" fill="#333" font-family="Arial,sans-serif" font-size="12" font-weight="bold">&#x27;Waterloo&#x27; → Canada</text>
<text x="380.0" y="240.0" text-anchor="middle" fill="#333" font-family="Arial,sans-serif" font-size="12" font-weight="bold">Detection (L14:F5600)</text>
<text x="380.0" y="258.0" text-anchor="middle" fill="#666" font-family="monospace" font-size="9">L14:F5600 —  places and regions, particula</text>
<circle cx="497.71000000000004" cy="207.0" r="9" fill="#ccc"/>
<text x="497.71000000000004" y="211.0" text-anchor="middle" fill="#666" font-family="monospace" font-size="9" font-weight="bold">1</text>
<rect x="91.33500000000004" y="332.0" width="265.90999999999997" height="72" fill="#e8e8e8" stroke="#999" stroke-width="2" rx="8"/>
<text x="224.29000000000002" y="350.0" text-anchor="middle" fill="#333" font-family="Arial,sans-serif" font-size="12" font-weight="bold">Canadian Geography</text>
<text x="224.29000000000002" y="364.0" text-anchor="middle" fill="#333" font-family="Arial,sans-serif" font-size="12" font-weight="bold">(L4:F8439, L7:F8870)</text>
<text x="224.29000000000002" y="382.0" text-anchor="middle" fill="#666" font-family="monospace" font-size="9">L4:F8439 —  stock ticker symbols and Cana</text>
<text x="224.29000000000002" y="396.0" text-anchor="middle" fill="#666" font-family="monospace" font-size="9">L7:F8870 —  locations and names of organi</text>
<circle cx="339.245" cy="345.0" r="9" fill="#ccc"/>
<text x="339.245" y="349.0" text-anchor="middle" fill="#666" font-family="monospace" font-size="9" font-weight="bold">2</text>
<rect x="3413.79" y="933.0" width="200.07999999999998" height="58" fill="#e8e8e8" stroke="#999" stroke-width="2" rx="8"/>
<text x="3513.83" y="951.0" text-anchor="middle" fill="#333" font-family="Arial,sans-serif" font-size="12" font-weight="bold">Place Names: &#x27;Waterloo&#x27;</text>
<text x="3513.83" y="965.0" text-anchor="middle" fill="#333" font-family="Arial,sans-serif" font-size="12" font-weight="bold">Detection (L0:F4687)</text>
<text x="3513.83" y="983.0" text-anchor="middle" fill="#666" font-family="monospace" font-size="9">L0:F4687 — place names</text>
<circle cx="3595.87" cy="946.0" r="9" fill="#ccc"/>
<text x="3595.87" y="950.0" text-anchor="middle" fill="#666" font-family="monospace" font-size="9" font-weight="bold">1</text>
<rect x="3653.87" y="926.0" width="200.07999999999998" height="72" fill="#e8e8e8" stroke="#999" stroke-width="2" rx="8"/>
<text x="3753.91" y="944.0" text-anchor="middle" fill="#333" font-family="Arial,sans-serif" font-size="12" font-weight="bold">1990s Detection: &#x27;1993&#x27;</text>
<text x="3753.91" y="958.0" text-anchor="middle" fill="#333" font-family="Arial,sans-serif" font-size="12" font-weight="bold">(L0:F11333)</text>
<text x="3753.91" y="976.0" text-anchor="middle" fill="#666" font-family="monospace" font-size="9">L0:F11333 —  the 1990&#x27;s</text>
<text x="3753.91" y="990.0" text-anchor="middle" fill="#666" font-family="monospace" font-size="9">L0:F11132</text>
<circle cx="3835.95" cy="939.0" r="9" fill="#ccc"/>
<text x="3835.95" y="943.0" text-anchor="middle" fill="#666" font-family="monospace" font-size="9" font-weight="bold">2</text>
<rect x="397.24499999999995" y="332.0" width="271.41999999999996" height="72" fill="#e8e8e8" stroke="#999" stroke-width="2" rx="8"/>
<text x="532.9549999999999" y="350.0" text-anchor="middle" fill="#333" font-family="Arial,sans-serif" font-size="12" font-weight="bold">Academic Degrees &amp; PhD:</text>
<text x="532.9549999999999" y="364.0" text-anchor="middle" fill="#333" font-family="Arial,sans-serif" font-size="12" font-weight="bold">&#x27;PhD&#x27; (L7:F14129)</text>
<text x="532.9549999999999" y="382.0" text-anchor="middle" fill="#666" font-family="monospace" font-size="9">L7:F14129 —  academic degrees, universitie</text>
<text x="532.9549999999999" y="396.0" text-anchor="middle" fill="#666" font-family="monospace" font-size="9">L6:F2254 — references to academic degrees</text>
<circle cx="650.665" cy="345.0" r="9" fill="#ccc"/>
<text x="650.665" y="349.0" text-anchor="middle" fill="#666" font-family="monospace" font-size="9" font-weight="bold">2</text>
<rect x="374.77000000000004" y="636.0" width="271.41999999999996" height="72" fill="#e8e8e8" stroke="#999" stroke-width="2" rx="8"/>
<text x="510.48" y="654.0" text-anchor="middle" fill="#333" font-family="Arial,sans-serif" font-size="12" font-weight="bold">Ph.D. Abbreviation</text>
<text x="510.48" y="668.0" text-anchor="middle" fill="#333" font-family="Arial,sans-serif" font-size="12" font-weight="bold">(L1:F10132, L2:F10852)</text>
<text x="510.48" y="686.0" text-anchor="middle" fill="#666" font-family="monospace" font-size="9">L1:F10132 —  the abbreviation for Doctorat</text>
<text x="510.48" y="700.0" text-anchor="middle" fill="#666" font-family="monospace" font-size="9">L2:F10852 —  academic titles and degrees</text>
<circle cx="628.19" cy="649.0" r="9" fill="#ccc"/>
<text x="628.19" y="653.0" text-anchor="middle" fill="#666" font-family="monospace" font-size="9" font-weight="bold">2</text>
<rect x="247.04500000000002" y="484.0" width="265.90999999999997" height="72" fill="#e8e8e8" stroke="#999" stroke-width="2" rx="8"/>
<text x="380.0" y="502.0" text-anchor="middle" fill="#333" font-family="Arial,sans-serif" font-size="12" font-weight="bold">Beirut University Context</text>
<text x="380.0" y="516.0" text-anchor="middle" fill="#333" font-family="Arial,sans-serif" font-size="12" font-weight="bold">(L6:F3235, L4:F5150)</text>
<text x="380.0" y="534.0" text-anchor="middle" fill="#666" font-family="monospace" font-size="9">L6:F3235 —  academic publications, math, </text>
<text x="380.0" y="548.0" text-anchor="middle" fill="#666" font-family="monospace" font-size="9">L4:F5150 —  mentions of specific universi</text>
<circle cx="494.9549999999999" cy="497.0" r="9" fill="#ccc"/>
<text x="494.9549999999999" y="501.0" text-anchor="middle" fill="#666" font-family="monospace" font-size="9" font-weight="bold">2</text>
<rect x="3893.95" y="933.0" width="214.0" height="58" fill="#e8e8e8" stroke="#999" stroke-width="2" rx="8"/>
<text x="4000.95" y="951.0" text-anchor="middle" fill="#333" font-family="Arial,sans-serif" font-size="12" font-weight="bold">Spurious &#x27;ice&#x27; Pattern: &#x27;</text>
<text x="4000.95" y="965.0" text-anchor="middle" fill="#333" font-family="Arial,sans-serif" font-size="12" font-weight="bold">received&#x27; (L0:F15320)</text>
<text x="4000.95" y="983.0" text-anchor="middle" fill="#666" font-family="monospace" font-size="9">L0:F15320 —  the word &quot;ice&quot;</text>
<circle cx="4089.95" cy="946.0" r="9" fill="#ccc"/>
<text x="4089.95" y="950.0" text-anchor="middle" fill="#666" font-family="monospace" font-size="9" font-weight="bold">1</text>
<rect x="280.0" y="70.0" width="200" height="44" fill="#e8e8e8" stroke="#999" stroke-width="2" rx="8"/>
<text x="380.0" y="88.0" text-anchor="middle" fill="#333" font-family="Arial,sans-serif" font-size="12" font-weight="bold">Output: Probe</text>
<text x="380.0" y="102.0" text-anchor="middle" fill="#333" font-family="Arial,sans-serif" font-size="12" font-weight="bold">Classification Score</text>
<circle cx="462.0" cy="83.0" r="9" fill="#ccc"/>
<text x="462.0" y="87.0" text-anchor="middle" fill="#666" font-family="monospace" font-size="9" font-weight="bold">0</text>
<line x1="40" y1="1078" x2="4187" y2="1078" stroke="#ddd" stroke-width="1"/>
<text x="40" y="1096" fill="#666" font-family="Arial,sans-serif" font-size="10" font-weight="bold" letter-spacing="1px">PROMPT</text>
<text x="40" y="1114" fill="#333" font-family="monospace" font-size="11">"&lt;bos&gt;Daniel received his Bachelors degree in Mechanical Engineering from the University of Waterloo in 1993. He later ea"</text>
<text x="40" y="1138" fill="#666" font-family="Arial,sans-serif" font-size="10" font-weight="bold" letter-spacing="1px">TOP OUTPUTS</text>
<rect x="40" y="1143" width="100" height="20" fill="#e8e8e8" stroke="none" rx="6"/>
<text x="45" y="1157" fill="#333" font-family="Arial,sans-serif" font-size="11" font-weight="bold">(empty) <tspan fill="#555" font-size="10">100%</tspan></text>
</svg>