<svg width="2791" height="1941" xmlns="http://www.w3.org/2000/svg">
<rect width="2791" height="1941" fill="#f5f5f5"/>
<rect x="15" y="15" width="2761" height="1911" fill="white" stroke="none" rx="12"/>
<text x="40" y="48" fill="#666" font-family="Arial,sans-serif" font-size="14" font-weight="bold" letter-spacing="1px">ATTRIBUTION CIRCUIT</text>
<text x="25" y="96.0" fill="#999" font-family="monospace" font-size="10" font-weight="bold" text-anchor="start">L36</text>
<text x="25" y="241.0" fill="#999" font-family="monospace" font-size="10" font-weight="bold" text-anchor="start">L18</text>
<text x="25" y="407.0" fill="#999" font-family="monospace" font-size="10" font-weight="bold" text-anchor="start">L15</text>
<text x="25" y="559.0" fill="#999" font-family="monospace" font-size="10" font-weight="bold" text-anchor="start">L12</text>
<text x="25" y="704.0" fill="#999" font-family="monospace" font-size="10" font-weight="bold" text-anchor="start">L7</text>
<text x="25" y="870.0" fill="#999" font-family="monospace" font-size="10" font-weight="bold" text-anchor="start">L6</text>
<text x="25" y="1043.0" fill="#999" font-family="monospace" font-size="10" font-weight="bold" text-anchor="start">L5</text>
<text x="25" y="1202.0" fill="#999" font-family="monospace" font-size="10" font-weight="bold" text-anchor="start">L4</text>
<text x="25" y="1361.0" fill="#999" font-family="monospace" font-size="10" font-weight="bold" text-anchor="start">L3</text>
<text x="25" y="1527.0" fill="#999" font-family="monospace" font-size="10" font-weight="bold" text-anchor="start">L2</text>
<text x="25" y="1700.0" fill="#999" font-family="monospace" font-size="10" font-weight="bold" text-anchor="start">L0</text>
<defs><marker id="arrow" markerWidth="8" markerHeight="6" refX="8" refY="3" orient="auto"><polygon points="0,0 8,3 0,6" fill="#8B4513" fill-opacity="0.7"/></marker></defs>
<path d="M 180.0,1718.0 C 405.5685,1682.0 1458.2214999999999,1682.0 1683.79,1646.0" fill="none" stroke="#8B4513" stroke-width="3" stroke-opacity="0.6" marker-end="url(#arrow)"/>
<path d="M 420.0,1718.0 C 655.86825,1689.0 1756.58675,1689.0 1992.455,1660.0" fill="none" stroke="#8B4513" stroke-width="3" stroke-opacity="0.6" marker-end="url(#arrow)"/>
<path d="M 420.0,1674.0 C 436.94325,1620.0 516.0117499999999,1620.0 532.9549999999999,1566.0" fill="none" stroke="#8B4513" stroke-width="3" stroke-opacity="0.6" marker-end="url(#arrow)"/>
<path d="M 420.0,1674.0 C 437.3565,1378.0 518.3535,1378.0 535.71,1082.0" fill="none" stroke="#8B4513" stroke-width="3" stroke-opacity="0.6" marker-end="url(#arrow)"/>
<path d="M 660.0,1718.0 C 900.8115,1692.5 2024.5984999999998,1692.5 2265.41,1667.0" fill="none" stroke="#8B4513" stroke-width="3" stroke-opacity="0.6" marker-end="url(#arrow)"/>
<path d="M 660.0,1674.0 C 618.0,1205.0 422.0,1205.0 380.0,736.0" fill="none" stroke="#8B4513" stroke-width="3" stroke-opacity="0.6" marker-end="url(#arrow)"/>
<path d="M 900.04,1674.0 C 822.034,1537.0 458.006,1537.0 380.0,1400.0" fill="none" stroke="#8B4513" stroke-width="3" stroke-opacity="0.6" marker-end="url(#arrow)"/>
<path d="M 1143.6,1674.0 C 1005.7035,1616.5 362.1865,1616.5 224.29000000000002,1559.0" fill="none" stroke="#8B4513" stroke-width="3" stroke-opacity="0.6" marker-end="url(#arrow)"/>
<path d="M 1397.6,1674.0 C 1221.6035,1616.5 400.28650000000005,1616.5 224.29000000000002,1559.0" fill="none" stroke="#8B4513" stroke-width="3" stroke-opacity="0.6" marker-end="url(#arrow)"/>
<path d="M 1683.79,1646.0 C 1464.865,1364.0 443.21500000000003,1364.0 224.29000000000002,1082.0" fill="none" stroke="#8B4513" stroke-width="3" stroke-opacity="0.6" marker-end="url(#arrow)"/>
<path d="M 1683.79,1646.0 C 1488.2214999999999,1191.0 575.5685,1191.0 380.0,736.0" fill="none" stroke="#8B4513" stroke-width="3" stroke-opacity="0.6" marker-end="url(#arrow)"/>
<path d="M 1992.455,1660.0 C 1773.53,1613.0 751.8799999999999,1613.0 532.9549999999999,1566.0" fill="none" stroke="#8B4513" stroke-width="3" stroke-opacity="0.6" marker-end="url(#arrow)"/>
<path d="M 1992.455,1660.0 C 1773.94325,1371.0 754.22175,1371.0 535.71,1082.0" fill="none" stroke="#8B4513" stroke-width="3" stroke-opacity="0.6" marker-end="url(#arrow)"/>
<path d="M 1992.455,1660.0 C 1750.58675,1053.0 621.86825,1053.0 380.0,446.0" fill="none" stroke="#8B4513" stroke-width="3" stroke-opacity="0.6" marker-end="url(#arrow)"/>
<path d="M 532.9549999999999,1480.0 C 533.36825,1281.0 535.29675,1281.0 535.71,1082.0" fill="none" stroke="#8B4513" stroke-width="3" stroke-opacity="0.6" marker-end="url(#arrow)"/>
<path d="M 224.29000000000002,996.0 C 247.6465,866.0 356.6435,866.0 380.0,736.0" fill="none" stroke="#8B4513" stroke-width="3" stroke-opacity="0.6" marker-end="url(#arrow)"/>
<path d="M 535.71,996.0 C 512.3535,638.0 403.3565,638.0 380.0,280.0" fill="none" stroke="#8B4513" stroke-width="3" stroke-opacity="0.6" marker-end="url(#arrow)"/>
<path d="M 224.29000000000002,1487.0 C 247.6465,1360.5 356.6435,1360.5 380.0,1234.0" fill="none" stroke="#8B4513" stroke-width="3" stroke-opacity="0.6" marker-end="url(#arrow)"/>
<path d="M 380.0,1162.0 C 380.0,1039.0 380.0,1039.0 380.0,916.0" fill="none" stroke="#8B4513" stroke-width="3" stroke-opacity="0.6" marker-end="url(#arrow)"/>
<path d="M 224.29000000000002,1487.0 C 247.6465,1201.5 356.6435,1201.5 380.0,916.0" fill="none" stroke="#8B4513" stroke-width="3" stroke-opacity="0.6" marker-end="url(#arrow)"/>
<path d="M 380.0,1314.0 C 380.0,949.0 380.0,949.0 380.0,584.0" fill="none" stroke="#8B4513" stroke-width="3" stroke-opacity="0.6" marker-end="url(#arrow)"/>
<path d="M 380.0,360.0 C 380.0,320.0 380.0,320.0 380.0,280.0" fill="none" stroke="#8B4513" stroke-width="3" stroke-opacity="0.6" marker-end="url(#arrow)"/>
<path d="M 1683.79,1646.0 C 1488.2214999999999,880.0 575.5685,880.0 380.0,114.0" fill="none" stroke="#8B4513" stroke-width="3" stroke-opacity="0.6" marker-end="url(#arrow)"/>
<path d="M 380.0,664.0 C 380.0,389.0 380.0,389.0 380.0,114.0" fill="none" stroke="#8B4513" stroke-width="3" stroke-opacity="0.6" marker-end="url(#arrow)"/>
<path d="M 380.0,816.0 C 380.0,465.0 380.0,465.0 380.0,114.0" fill="none" stroke="#8B4513" stroke-width="3" stroke-opacity="0.6" marker-end="url(#arrow)"/>
<path d="M 380.0,526.0 C 380.0,320.0 380.0,320.0 380.0,114.0" fill="none" stroke="#8B4513" stroke-width="3" stroke-opacity="0.6" marker-end="url(#arrow)"/>
<path d="M 380.0,194.0 C 380.0,154.0 380.0,154.0 380.0,114.0" fill="none" stroke="#8B4513" stroke-width="3" stroke-opacity="0.6" marker-end="url(#arrow)"/>
<path d="M 535.71,996.0 C 512.3535,555.0 403.3565,555.0 380.0,114.0" fill="none" stroke="#8B4513" stroke-width="3" stroke-opacity="0.6" marker-end="url(#arrow)"/>
<path d="M 2265.41,1667.0 C 1982.5984999999998,890.5 662.8115,890.5 380.0,114.0" fill="none" stroke="#8B4513" stroke-width="3" stroke-opacity="0.6" marker-end="url(#arrow)"/>
<path d="M 2538.365,1667.0 C 2214.6102499999997,890.5 703.75475,890.5 380.0,114.0" fill="none" stroke="#8B4513" stroke-width="3" stroke-opacity="0.6" marker-end="url(#arrow)"/>
<rect x="80.0" y="1674.0" width="200" height="44" fill="#e8e8e8" stroke="#999" stroke-width="2" rx="8"/>
<text x="180.0" y="1692.0" text-anchor="middle" fill="#333" font-family="Arial,sans-serif" font-size="12" font-weight="bold">Emb: &#x27;his&#x27; (pos 3)</text>
<circle cx="262.0" cy="1687.0" r="9" fill="#ccc"/>
<text x="262.0" y="1691.0" text-anchor="middle" fill="#666" font-family="monospace" font-size="9" font-weight="bold">0</text>
<rect x="320.0" y="1674.0" width="200" height="44" fill="#e8e8e8" stroke="#999" stroke-width="2" rx="8"/>
<text x="420.0" y="1692.0" text-anchor="middle" fill="#333" font-family="Arial,sans-serif" font-size="12" font-weight="bold">Emb: &#x27;He&#x27; (pos 22)</text>
<circle cx="502.0" cy="1687.0" r="9" fill="#ccc"/>
<text x="502.0" y="1691.0" text-anchor="middle" fill="#666" font-family="monospace" font-size="9" font-weight="bold">0</text>
<rect x="560.0" y="1674.0" width="200" height="44" fill="#e8e8e8" stroke="#999" stroke-width="2" rx="8"/>
<text x="660.0" y="1692.0" text-anchor="middle" fill="#333" font-family="Arial,sans-serif" font-size="12" font-weight="bold">Emb: &#x27;Daniel&#x27; (pos 1)</text>
<circle cx="742.0" cy="1687.0" r="9" fill="#ccc"/>
<text x="742.0" y="1691.0" text-anchor="middle" fill="#666" font-family="monospace" font-size="9" font-weight="bold">0</text>
<rect x="800.0" y="1674.0" width="200.07999999999998" height="44" fill="#e8e8e8" stroke="#999" stroke-width="2" rx="8"/>
<text x="900.04" y="1692.0" text-anchor="middle" fill="#333" font-family="Arial,sans-serif" font-size="12" font-weight="bold">Emb: &#x27;received&#x27; (pos 2)</text>
<circle cx="982.0799999999999" cy="1687.0" r="9" fill="#ccc"/>
<text x="982.0799999999999" y="1691.0" text-anchor="middle" fill="#666" font-family="monospace" font-size="9" font-weight="bold">0</text>
<rect x="1040.08" y="1674.0" width="207.04" height="44" fill="#e8e8e8" stroke="#999" stroke-width="2" rx="8"/>
<text x="1143.6" y="1692.0" text-anchor="middle" fill="#333" font-family="Arial,sans-serif" font-size="12" font-weight="bold">Emb: &#x27;Bachelors&#x27; (pos 5)</text>
<circle cx="1229.12" cy="1687.0" r="9" fill="#ccc"/>
<text x="1229.12" y="1691.0" text-anchor="middle" fill="#666" font-family="monospace" font-size="9" font-weight="bold">0</text>
<rect x="1287.12" y="1674.0" width="220.95999999999998" height="44" fill="#e8e8e8" stroke="#999" stroke-width="2" rx="8"/>
<text x="1397.6" y="1692.0" text-anchor="middle" fill="#333" font-family="Arial,sans-serif" font-size="12" font-weight="bold">Emb: &#x27;Engineering&#x27; (pos 9)</text>
<circle cx="1490.08" cy="1687.0" r="9" fill="#ccc"/>
<text x="1490.08" y="1691.0" text-anchor="middle" fill="#666" font-family="monospace" font-size="9" font-weight="bold">0</text>
<rect x="1548.08" y="1646.0" width="271.41999999999996" height="100" fill="#e8e8e8" stroke="#999" stroke-width="2" rx="8"/>
<text x="1683.79" y="1664.0" text-anchor="middle" fill="#333" font-family="Arial,sans-serif" font-size="12" font-weight="bold">L0 masculine pronoun &#x27;his&#x27;</text>
<text x="1683.79" y="1678.0" text-anchor="middle" fill="#333" font-family="Arial,sans-serif" font-size="12" font-weight="bold">detector (pos 3,25,47)</text>
<text x="1683.79" y="1696.0" text-anchor="middle" fill="#666" font-family="monospace" font-size="9">L0:F2994 — the pronoun &quot;his&quot; and the pron</text>
<text x="1683.79" y="1710.0" text-anchor="middle" fill="#666" font-family="monospace" font-size="9">L0:F2994 — the pronoun &quot;his&quot; and the pron</text>
<text x="1683.79" y="1724.0" text-anchor="middle" fill="#666" font-family="monospace" font-size="9">L0:F2994 — the pronoun &quot;his&quot; and the pron</text>
<text x="1683.79" y="1738.0" text-anchor="middle" fill="#666" font-family="monospace" font-size="9">L0:F13553 —  verbs in the past tense or pa</text>
<circle cx="1801.5" cy="1659.0" r="9" fill="#ccc"/>
<text x="1801.5" y="1663.0" text-anchor="middle" fill="#666" font-family="monospace" font-size="9" font-weight="bold">4</text>
<rect x="1859.5" y="1660.0" width="265.90999999999997" height="72" fill="#e8e8e8" stroke="#999" stroke-width="2" rx="8"/>
<text x="1992.455" y="1678.0" text-anchor="middle" fill="#333" font-family="Arial,sans-serif" font-size="12" font-weight="bold">L0 male pronoun &#x27;He&#x27;</text>
<text x="1992.455" y="1692.0" text-anchor="middle" fill="#333" font-family="Arial,sans-serif" font-size="12" font-weight="bold">detector (pos 22)</text>
<text x="1992.455" y="1710.0" text-anchor="middle" fill="#666" font-family="monospace" font-size="9">L0:F1069 —  references to a male person, </text>
<text x="1992.455" y="1724.0" text-anchor="middle" fill="#666" font-family="monospace" font-size="9">L0:F2241 —  the pronoun &quot;she&quot;</text>
<circle cx="2107.41" cy="1673.0" r="9" fill="#ccc"/>
<text x="2107.41" y="1677.0" text-anchor="middle" fill="#666" font-family="monospace" font-size="9" font-weight="bold">2</text>
<rect x="2165.41" y="1667.0" width="200" height="58" fill="#e8e8e8" stroke="#999" stroke-width="2" rx="8"/>
<text x="2265.41" y="1685.0" text-anchor="middle" fill="#333" font-family="Arial,sans-serif" font-size="12" font-weight="bold">L0 proper noun / name</text>
<text x="2265.41" y="1699.0" text-anchor="middle" fill="#333" font-family="Arial,sans-serif" font-size="12" font-weight="bold">detector</text>
<text x="2265.41" y="1717.0" text-anchor="middle" fill="#666" font-family="monospace" font-size="9">L0:F7532 —  proper nouns</text>
<circle cx="2347.41" cy="1680.0" r="9" fill="#ccc"/>
<text x="2347.41" y="1684.0" text-anchor="middle" fill="#666" font-family="monospace" font-size="9" font-weight="bold">1</text>
<rect x="91.33500000000004" y="1487.0" width="265.90999999999997" height="72" fill="#e8e8e8" stroke="#999" stroke-width="2" rx="8"/>
<text x="224.29000000000002" y="1505.0" text-anchor="middle" fill="#333" font-family="Arial,sans-serif" font-size="12" font-weight="bold">L2 academic degree &amp;</text>
<text x="224.29000000000002" y="1519.0" text-anchor="middle" fill="#333" font-family="Arial,sans-serif" font-size="12" font-weight="bold">engineering detectors</text>
<text x="224.29000000000002" y="1537.0" text-anchor="middle" fill="#666" font-family="monospace" font-size="9">L2:F10852 —  academic titles and degrees</text>
<text x="224.29000000000002" y="1551.0" text-anchor="middle" fill="#666" font-family="monospace" font-size="9">L2:F1440 —  the word &quot;engineering&quot; and wo</text>
<circle cx="339.245" cy="1500.0" r="9" fill="#ccc"/>
<text x="339.245" y="1504.0" text-anchor="middle" fill="#666" font-family="monospace" font-size="9" font-weight="bold">2</text>
<rect x="247.04500000000002" y="1314.0" width="265.90999999999997" height="86" fill="#e8e8e8" stroke="#999" stroke-width="2" rx="8"/>
<text x="380.0" y="1332.0" text-anchor="middle" fill="#333" font-family="Arial,sans-serif" font-size="12" font-weight="bold">L2-L3 &#x27;received&#x27; semantic</text>
<text x="380.0" y="1346.0" text-anchor="middle" fill="#333" font-family="Arial,sans-serif" font-size="12" font-weight="bold">cluster (pos 2)</text>
<text x="380.0" y="1364.0" text-anchor="middle" fill="#666" font-family="monospace" font-size="9">L2:F3992 —  instances of people or things</text>
<text x="380.0" y="1378.0" text-anchor="middle" fill="#666" font-family="monospace" font-size="9">L3:F6253 — the word &quot;receive&quot; and its inf</text>
<text x="380.0" y="1392.0" text-anchor="middle" fill="#666" font-family="monospace" font-size="9">L1:F1840 —  the words &quot;receiver&quot;, &quot;receiv</text>
<circle cx="494.9549999999999" cy="1327.0" r="9" fill="#ccc"/>
<text x="494.9549999999999" y="1331.0" text-anchor="middle" fill="#666" font-family="monospace" font-size="9" font-weight="bold">3</text>
<rect x="397.24499999999995" y="1480.0" width="271.41999999999996" height="86" fill="#e8e8e8" stroke="#999" stroke-width="2" rx="8"/>
<text x="532.9549999999999" y="1498.0" text-anchor="middle" fill="#333" font-family="Arial,sans-serif" font-size="12" font-weight="bold">L1-L2 narrative pronoun</text>
<text x="532.9549999999999" y="1512.0" text-anchor="middle" fill="#333" font-family="Arial,sans-serif" font-size="12" font-weight="bold">detectors (pos 22)</text>
<text x="532.9549999999999" y="1530.0" text-anchor="middle" fill="#666" font-family="monospace" font-size="9">L1:F12922 —  the pronoun &quot;he&quot; or &quot;she&quot; in </text>
<text x="532.9549999999999" y="1544.0" text-anchor="middle" fill="#666" font-family="monospace" font-size="9">L2:F13928 —  third person pronouns related</text>
<text x="532.9549999999999" y="1558.0" text-anchor="middle" fill="#666" font-family="monospace" font-size="9">L2:F2110 —  the third person singular pro</text>
<circle cx="650.665" cy="1493.0" r="9" fill="#ccc"/>
<text x="650.665" y="1497.0" text-anchor="middle" fill="#666" font-family="monospace" font-size="9" font-weight="bold">3</text>
<rect x="247.04500000000002" y="1162.0" width="265.90999999999997" height="72" fill="#e8e8e8" stroke="#999" stroke-width="2" rx="8"/>
<text x="380.0" y="1180.0" text-anchor="middle" fill="#333" font-family="Arial,sans-serif" font-size="12" font-weight="bold">L3-L4 degree mention</text>
<text x="380.0" y="1194.0" text-anchor="middle" fill="#333" font-family="Arial,sans-serif" font-size="12" font-weight="bold">consolidation</text>
<text x="380.0" y="1212.0" text-anchor="middle" fill="#666" font-family="monospace" font-size="9">L3:F4113 —  mentions of academic degrees </text>
<text x="380.0" y="1226.0" text-anchor="middle" fill="#666" font-family="monospace" font-size="9">L4:F3727 —  mentions of academic degrees</text>
<circle cx="494.9549999999999" cy="1175.0" r="9" fill="#ccc"/>
<text x="494.9549999999999" y="1179.0" text-anchor="middle" fill="#666" font-family="monospace" font-size="9" font-weight="bold">2</text>
<rect x="88.58000000000004" y="996.0" width="271.41999999999996" height="86" fill="#e8e8e8" stroke="#999" stroke-width="2" rx="8"/>
<text x="224.29000000000002" y="1014.0" text-anchor="middle" fill="#333" font-family="Arial,sans-serif" font-size="12" font-weight="bold">L4-L6 masculine gender</text>
<text x="224.29000000000002" y="1028.0" text-anchor="middle" fill="#333" font-family="Arial,sans-serif" font-size="12" font-weight="bold">cascade (pos 3)</text>
<text x="224.29000000000002" y="1046.0" text-anchor="middle" fill="#666" font-family="monospace" font-size="9">L4:F4315 —  mentions of &quot;his&quot; and other a</text>
<text x="224.29000000000002" y="1060.0" text-anchor="middle" fill="#666" font-family="monospace" font-size="9">L6:F12990 —  male pronouns and titles alon</text>
<text x="224.29000000000002" y="1074.0" text-anchor="middle" fill="#666" font-family="monospace" font-size="9">L6:F10944 —  text in languages other than </text>
<circle cx="342.0" cy="1009.0" r="9" fill="#ccc"/>
<text x="342.0" y="1013.0" text-anchor="middle" fill="#666" font-family="monospace" font-size="9" font-weight="bold">3</text>
<rect x="400.00000000000006" y="996.0" width="271.41999999999996" height="86" fill="#e8e8e8" stroke="#999" stroke-width="2" rx="8"/>
<text x="535.71" y="1014.0" text-anchor="middle" fill="#333" font-family="Arial,sans-serif" font-size="12" font-weight="bold">L3-L6 masculine gender</text>
<text x="535.71" y="1028.0" text-anchor="middle" fill="#333" font-family="Arial,sans-serif" font-size="12" font-weight="bold">cascade (pos 22)</text>
<text x="535.71" y="1046.0" text-anchor="middle" fill="#666" font-family="monospace" font-size="9">L3:F2860 —  instances of a male person wi</text>
<text x="535.71" y="1060.0" text-anchor="middle" fill="#666" font-family="monospace" font-size="9">L4:F14796 — the pronoun &quot;he&quot; or &quot;him&quot;</text>
<text x="535.71" y="1074.0" text-anchor="middle" fill="#666" font-family="monospace" font-size="9">L6:F12990 —  male pronouns and titles alon</text>
<circle cx="653.4200000000001" cy="1009.0" r="9" fill="#ccc"/>
<text x="653.4200000000001" y="1013.0" text-anchor="middle" fill="#666" font-family="monospace" font-size="9" font-weight="bold">3</text>
<rect x="247.04500000000002" y="816.0" width="265.90999999999997" height="100" fill="#e8e8e8" stroke="#999" stroke-width="2" rx="8"/>
<text x="380.0" y="834.0" text-anchor="middle" fill="#333" font-family="Arial,sans-serif" font-size="12" font-weight="bold">L5-L6 academic field</text>
<text x="380.0" y="848.0" text-anchor="middle" fill="#333" font-family="Arial,sans-serif" font-size="12" font-weight="bold">detectors (pos 8-9)</text>
<text x="380.0" y="866.0" text-anchor="middle" fill="#666" font-family="monospace" font-size="9">L5:F10392 —  fields of academic study</text>
<text x="380.0" y="880.0" text-anchor="middle" fill="#666" font-family="monospace" font-size="9">L5:F6384 — words related to higher educat</text>
<text x="380.0" y="894.0" text-anchor="middle" fill="#666" font-family="monospace" font-size="9">L6:F170 —  references to academic fields</text>
<text x="380.0" y="908.0" text-anchor="middle" fill="#666" font-family="monospace" font-size="9">L6:F170 —  references to academic fields</text>
<circle cx="494.9549999999999" cy="829.0" r="9" fill="#ccc"/>
<text x="494.9549999999999" y="833.0" text-anchor="middle" fill="#666" font-family="monospace" font-size="9" font-weight="bold">4</text>
<rect x="244.29000000000002" y="664.0" width="271.41999999999996" height="72" fill="#e8e8e8" stroke="#999" stroke-width="2" rx="8"/>
<text x="380.0" y="682.0" text-anchor="middle" fill="#333" font-family="Arial,sans-serif" font-size="12" font-weight="bold">L7 gender-switching</text>
<text x="380.0" y="696.0" text-anchor="middle" fill="#333" font-family="Arial,sans-serif" font-size="12" font-weight="bold">pronoun feature (pos 3)</text>
<text x="380.0" y="710.0" text-anchor="middle" fill="#333" font-family="Arial,sans-serif" font-size="12" font-weight="bold">[promotes &#x27;herself&#x27;]</text>
<text x="380.0" y="728.0" text-anchor="middle" fill="#666" font-family="monospace" font-size="9">L7:F14893 —  pronouns or possessive pronou</text>
<text x="380.0" y="742.0" text-anchor="middle" fill="#666" font-family="monospace" font-size="9">L7:F14946 —  the possessive pronoun &quot;his&quot; </text>
<circle cx="497.71000000000004" cy="677.0" r="9" fill="#ccc"/>
<text x="497.71000000000004" y="681.0" text-anchor="middle" fill="#666" font-family="monospace" font-size="9" font-weight="bold">2</text>
<rect x="255.31" y="526.0" width="249.38" height="58" fill="#e8e8e8" stroke="#999" stroke-width="2" rx="8"/>
<text x="380.0" y="544.0" text-anchor="middle" fill="#333" font-family="Arial,sans-serif" font-size="12" font-weight="bold">L12 gender word detector</text>
<text x="380.0" y="558.0" text-anchor="middle" fill="#333" font-family="Arial,sans-serif" font-size="12" font-weight="bold">(pos 2) [counterbalance]</text>
<text x="380.0" y="576.0" text-anchor="middle" fill="#666" font-family="monospace" font-size="9">L12:F2175 —  words referring to gender</text>
<circle cx="486.69" cy="539.0" r="9" fill="#ccc"/>
<text x="486.69" y="543.0" text-anchor="middle" fill="#666" font-family="monospace" font-size="9" font-weight="bold">1</text>
<rect x="244.29000000000002" y="360.0" width="271.41999999999996" height="86" fill="#e8e8e8" stroke="#999" stroke-width="2" rx="8"/>
<text x="380.0" y="378.0" text-anchor="middle" fill="#333" font-family="Arial,sans-serif" font-size="12" font-weight="bold">L13-L17 pronoun</text>
<text x="380.0" y="392.0" text-anchor="middle" fill="#333" font-family="Arial,sans-serif" font-size="12" font-weight="bold">aggregation (pos 22)</text>
<text x="380.0" y="410.0" text-anchor="middle" fill="#666" font-family="monospace" font-size="9">L13:F6622 —  pronouns.</text>
<text x="380.0" y="424.0" text-anchor="middle" fill="#666" font-family="monospace" font-size="9">L15:F3330 —  personal stories of individua</text>
<text x="380.0" y="438.0" text-anchor="middle" fill="#666" font-family="monospace" font-size="9">L17:F5889 —  references to people with pro</text>
<circle cx="497.71000000000004" cy="373.0" r="9" fill="#ccc"/>
<text x="497.71000000000004" y="377.0" text-anchor="middle" fill="#666" font-family="monospace" font-size="9" font-weight="bold">3</text>
<rect x="241.53500000000003" y="194.0" width="276.92999999999995" height="86" fill="#e8e8e8" stroke="#999" stroke-width="2" rx="8"/>
<text x="380.0" y="212.0" text-anchor="middle" fill="#333" font-family="Arial,sans-serif" font-size="12" font-weight="bold">L18 &#x27;He&#x27; male pronoun</text>
<text x="380.0" y="226.0" text-anchor="middle" fill="#333" font-family="Arial,sans-serif" font-size="12" font-weight="bold">detector (pos 22, 81)</text>
<text x="380.0" y="244.0" text-anchor="middle" fill="#666" font-family="monospace" font-size="9">L18:F14743 — He</text>
<text x="380.0" y="258.0" text-anchor="middle" fill="#666" font-family="monospace" font-size="9">L18:F14743 — He</text>
<text x="380.0" y="272.0" text-anchor="middle" fill="#666" font-family="monospace" font-size="9">L18:F10315 —  pronouns and possessive prono</text>
<circle cx="500.4649999999999" cy="207.0" r="9" fill="#ccc"/>
<text x="500.4649999999999" y="211.0" text-anchor="middle" fill="#666" font-family="monospace" font-size="9" font-weight="bold">3</text>
<rect x="2405.41" y="1667.0" width="265.90999999999997" height="58" fill="#e8e8e8" stroke="#999" stroke-width="2" rx="8"/>
<text x="2538.365" y="1685.0" text-anchor="middle" fill="#333" font-family="Arial,sans-serif" font-size="12" font-weight="bold">L0</text>
<text x="2538.365" y="1699.0" text-anchor="middle" fill="#333" font-family="Arial,sans-serif" font-size="12" font-weight="bold">organization/institution</text>
<text x="2538.365" y="1713.0" text-anchor="middle" fill="#333" font-family="Arial,sans-serif" font-size="12" font-weight="bold">detector (pos 14)</text>
<text x="2538.365" y="1731.0" text-anchor="middle" fill="#666" font-family="monospace" font-size="9">L0:F1326 —  mentions of organizations and</text>
<circle cx="2653.3199999999997" cy="1680.0" r="9" fill="#ccc"/>
<text x="2653.3199999999997" y="1684.0" text-anchor="middle" fill="#666" font-family="monospace" font-size="9" font-weight="bold">1</text>
<rect x="269.52" y="70.0" width="220.95999999999998" height="44" fill="#e8e8e8" stroke="#999" stroke-width="2" rx="8"/>
<text x="380.0" y="88.0" text-anchor="middle" fill="#333" font-family="Arial,sans-serif" font-size="12" font-weight="bold">Probe classification score</text>
<circle cx="472.47999999999996" cy="83.0" r="9" fill="#ccc"/>
<text x="472.47999999999996" y="87.0" text-anchor="middle" fill="#666" font-family="monospace" font-size="9" font-weight="bold">0</text>
<line x1="40" y1="1826" x2="2751" y2="1826" stroke="#ddd" stroke-width="1"/>
<text x="40" y="1844" fill="#666" font-family="Arial,sans-serif" font-size="10" font-weight="bold" letter-spacing="1px">PROMPT</text>
<text x="40" y="1862" fill="#333" font-family="monospace" font-size="11">"&lt;bos&gt;Daniel received his Bachelors degree in Mechanical Engineering from the University of Waterloo in 1993. He later ea"</text>
<text x="40" y="1886" fill="#666" font-family="Arial,sans-serif" font-size="10" font-weight="bold" letter-spacing="1px">TOP OUTPUTS</text>
<rect x="40" y="1891" width="100" height="20" fill="#e8e8e8" stroke="none" rx="6"/>
<text x="45" y="1905" fill="#333" font-family="Arial,sans-serif" font-size="11" font-weight="bold">(empty) <tspan fill="#555" font-size="10">100%</tspan></text>
</svg>