<svg width="3609" height="1387" xmlns="http://www.w3.org/2000/svg">
<rect width="3609" height="1387" fill="#f5f5f5"/>
<rect x="15" y="15" width="3579" height="1357" fill="white" stroke="none" rx="12"/>
<text x="40" y="48" fill="#666" font-family="Arial,sans-serif" font-size="14" font-weight="bold" letter-spacing="1px">ATTRIBUTION CIRCUIT</text>
<text x="25" y="96.0" fill="#999" font-family="monospace" font-size="10" font-weight="bold" text-anchor="start">L36</text>
<text x="25" y="227.0" fill="#999" font-family="monospace" font-size="10" font-weight="bold" text-anchor="start">L6</text>
<text x="25" y="365.0" fill="#999" font-family="monospace" font-size="10" font-weight="bold" text-anchor="start">L5</text>
<text x="25" y="503.0" fill="#999" font-family="monospace" font-size="10" font-weight="bold" text-anchor="start">L4</text>
<text x="25" y="641.0" fill="#999" font-family="monospace" font-size="10" font-weight="bold" text-anchor="start">L3</text>
<text x="25" y="786.0" fill="#999" font-family="monospace" font-size="10" font-weight="bold" text-anchor="start">L2</text>
<text x="25" y="959.0" fill="#999" font-family="monospace" font-size="10" font-weight="bold" text-anchor="start">L1</text>
<text x="25" y="1146.0" fill="#999" font-family="monospace" font-size="10" font-weight="bold" text-anchor="start">L0</text>
<defs><marker id="arrow" markerWidth="8" markerHeight="6" refX="8" refY="3" orient="auto"><polygon points="0,0 8,3 0,6" fill="#8B4513" fill-opacity="0.7"/></marker></defs>
<path d="M 180.04,1164.0 C 437.0012499999999,1128.0 1636.15375,1128.0 1893.1149999999998,1092.0" fill="none" stroke="#8B4513" stroke-width="3" stroke-opacity="0.6" marker-end="url(#arrow)"/>
<path d="M 180.04,1120.0 C 185.3905,1066.0 210.35949999999997,1066.0 215.70999999999998,1012.0" fill="none" stroke="#8B4513" stroke-width="3" stroke-opacity="0.6" marker-end="url(#arrow)"/>
<path d="M 180.04,1120.0 C 184.97725,965.5 208.01774999999998,965.5 212.95499999999998,811.0" fill="none" stroke="#8B4513" stroke-width="3" stroke-opacity="0.6" marker-end="url(#arrow)"/>
<path d="M 180.04,1120.0 C 230.86374999999998,965.5 468.04125,965.5 518.865,811.0" fill="none" stroke="#8B4513" stroke-width="3" stroke-opacity="0.6" marker-end="url(#arrow)"/>
<path d="M 180.04,1120.0 C 210.034,824.0 350.006,824.0 380.0,528.0" fill="none" stroke="#8B4513" stroke-width="3" stroke-opacity="0.6" marker-end="url(#arrow)"/>
<path d="M 180.04,1120.0 C 210.034,755.0 350.006,755.0 380.0,390.0" fill="none" stroke="#8B4513" stroke-width="3" stroke-opacity="0.6" marker-end="url(#arrow)"/>
<path d="M 180.04,1120.0 C 210.034,686.0 350.006,686.0 380.0,252.0" fill="none" stroke="#8B4513" stroke-width="3" stroke-opacity="0.6" marker-end="url(#arrow)"/>
<path d="M 420.08,1164.0 C 681.9844999999999,1138.5 1904.2054999999998,1138.5 2166.1099999999997,1113.0" fill="none" stroke="#8B4513" stroke-width="3" stroke-opacity="0.6" marker-end="url(#arrow)"/>
<path d="M 660.0799999999999,1164.0 C 926.9337499999999,1135.0 2172.25125,1135.0 2439.1049999999996,1106.0" fill="none" stroke="#8B4513" stroke-width="3" stroke-opacity="0.6" marker-end="url(#arrow)"/>
<path d="M 660.0799999999999,1120.0 C 685.6107499999999,1052.0 804.7542499999998,1052.0 830.2849999999999,984.0" fill="none" stroke="#8B4513" stroke-width="3" stroke-opacity="0.6" marker-end="url(#arrow)"/>
<path d="M 900.0799999999999,1164.0 C 1176.8202499999998,1135.0 2468.2747499999996,1135.0 2745.0149999999994,1106.0" fill="none" stroke="#8B4513" stroke-width="3" stroke-opacity="0.6" marker-end="url(#arrow)"/>
<path d="M 900.0799999999999,1120.0 C 888.371,965.5 833.7289999999999,965.5 822.02,811.0" fill="none" stroke="#8B4513" stroke-width="3" stroke-opacity="0.6" marker-end="url(#arrow)"/>
<path d="M 1140.12,1164.0 C 1426.3274999999999,1138.5 2761.962499999999,1138.5 3048.169999999999,1113.0" fill="none" stroke="#8B4513" stroke-width="3" stroke-opacity="0.6" marker-end="url(#arrow)"/>
<path d="M 1140.12,1120.0 C 1139.53125,1055.5 1136.7837499999998,1055.5 1136.195,991.0" fill="none" stroke="#8B4513" stroke-width="3" stroke-opacity="0.6" marker-end="url(#arrow)"/>
<path d="M 1140.12,1120.0 C 1137.87825,965.5 1127.4167499999999,965.5 1125.175,811.0" fill="none" stroke="#8B4513" stroke-width="3" stroke-opacity="0.6" marker-end="url(#arrow)"/>
<path d="M 1140.12,1120.0 C 1183.7647499999998,965.5 1387.4402499999999,965.5 1431.0849999999998,811.0" fill="none" stroke="#8B4513" stroke-width="3" stroke-opacity="0.6" marker-end="url(#arrow)"/>
<path d="M 1140.12,1120.0 C 1042.386,893.0 586.294,893.0 488.55999999999995,666.0" fill="none" stroke="#8B4513" stroke-width="3" stroke-opacity="0.6" marker-end="url(#arrow)"/>
<path d="M 1380.1599999999999,1164.0 C 1676.2479999999998,1135.0 3057.9919999999997,1135.0 3354.0799999999995,1106.0" fill="none" stroke="#8B4513" stroke-width="3" stroke-opacity="0.6" marker-end="url(#arrow)"/>
<path d="M 1380.1599999999999,1120.0 C 1386.0804999999998,1052.0 1413.7095,1052.0 1419.6299999999999,984.0" fill="none" stroke="#8B4513" stroke-width="3" stroke-opacity="0.6" marker-end="url(#arrow)"/>
<path d="M 1380.1599999999999,1120.0 C 1434.0984999999998,969.0 1685.8115,969.0 1739.75,818.0" fill="none" stroke="#8B4513" stroke-width="3" stroke-opacity="0.6" marker-end="url(#arrow)"/>
<path d="M 1380.1599999999999,1120.0 C 1288.5872499999998,893.0 861.24775,893.0 769.675,666.0" fill="none" stroke="#8B4513" stroke-width="3" stroke-opacity="0.6" marker-end="url(#arrow)"/>
<path d="M 1620.1599999999999,1120.0 C 1409.4924999999998,1066.0 426.37749999999994,1066.0 215.70999999999998,1012.0" fill="none" stroke="#8B4513" stroke-width="3" stroke-opacity="0.6" marker-end="url(#arrow)"/>
<path d="M 1893.1149999999998,1092.0 C 1641.50425,1052.0 467.3207499999999,1052.0 215.70999999999998,1012.0" fill="none" stroke="#8B4513" stroke-width="3" stroke-opacity="0.6" marker-end="url(#arrow)"/>
<path d="M 1893.1149999999998,1092.0 C 1687.8039999999999,1038.0 729.6859999999999,1038.0 524.375,984.0" fill="none" stroke="#8B4513" stroke-width="3" stroke-opacity="0.6" marker-end="url(#arrow)"/>
<path d="M 2166.1099999999997,1113.0 C 1898.1934999999999,613.5 647.9164999999999,613.5 380.0,114.0" fill="none" stroke="#8B4513" stroke-width="3" stroke-opacity="0.6" marker-end="url(#arrow)"/>
<path d="M 2439.1049999999996,1106.0 C 2197.7819999999997,1045.0 1071.6079999999997,1045.0 830.2849999999999,984.0" fill="none" stroke="#8B4513" stroke-width="3" stroke-opacity="0.6" marker-end="url(#arrow)"/>
<path d="M 2745.0149999999994,1106.0 C 2503.6919999999996,1048.5 1377.5179999999998,1048.5 1136.195,991.0" fill="none" stroke="#8B4513" stroke-width="3" stroke-opacity="0.6" marker-end="url(#arrow)"/>
<path d="M 3048.169999999999,1113.0 C 2761.3737499999993,1052.0 1422.9912499999998,1052.0 1136.195,991.0" fill="none" stroke="#8B4513" stroke-width="3" stroke-opacity="0.6" marker-end="url(#arrow)"/>
<path d="M 3048.169999999999,1113.0 C 2805.607249999999,962.0 1673.6477499999996,962.0 1431.0849999999998,811.0" fill="none" stroke="#8B4513" stroke-width="3" stroke-opacity="0.6" marker-end="url(#arrow)"/>
<path d="M 3354.0799999999995,1106.0 C 3063.9124999999995,1045.0 1709.7974999999997,1045.0 1419.6299999999999,984.0" fill="none" stroke="#8B4513" stroke-width="3" stroke-opacity="0.6" marker-end="url(#arrow)"/>
<path d="M 3354.0799999999995,1106.0 C 3111.9304999999995,962.0 1981.8995,962.0 1739.75,818.0" fill="none" stroke="#8B4513" stroke-width="3" stroke-opacity="0.6" marker-end="url(#arrow)"/>
<path d="M 215.70999999999998,898.0 C 215.29674999999997,854.5 213.36825,854.5 212.95499999999998,811.0" fill="none" stroke="#8B4513" stroke-width="3" stroke-opacity="0.6" marker-end="url(#arrow)"/>
<path d="M 215.70999999999998,898.0 C 261.18325,854.5 473.39175,854.5 518.865,811.0" fill="none" stroke="#8B4513" stroke-width="3" stroke-opacity="0.6" marker-end="url(#arrow)"/>
<path d="M 215.70999999999998,898.0 C 240.3535,713.0 355.3565,713.0 380.0,528.0" fill="none" stroke="#8B4513" stroke-width="3" stroke-opacity="0.6" marker-end="url(#arrow)"/>
<path d="M 524.375,926.0 C 477.662,868.5 259.668,868.5 212.95499999999998,811.0" fill="none" stroke="#8B4513" stroke-width="3" stroke-opacity="0.6" marker-end="url(#arrow)"/>
<path d="M 830.2849999999999,926.0 C 762.7422499999999,520.0 447.54274999999996,520.0 380.0,114.0" fill="none" stroke="#8B4513" stroke-width="3" stroke-opacity="0.6" marker-end="url(#arrow)"/>
<path d="M 1136.195,919.0 C 1134.542,865.0 1126.828,865.0 1125.175,811.0" fill="none" stroke="#8B4513" stroke-width="3" stroke-opacity="0.6" marker-end="url(#arrow)"/>
<path d="M 1136.195,919.0 C 1180.4285,865.0 1386.8514999999998,865.0 1431.0849999999998,811.0" fill="none" stroke="#8B4513" stroke-width="3" stroke-opacity="0.6" marker-end="url(#arrow)"/>
<path d="M 1136.195,919.0 C 1039.04975,792.5 585.70525,792.5 488.55999999999995,666.0" fill="none" stroke="#8B4513" stroke-width="3" stroke-opacity="0.6" marker-end="url(#arrow)"/>
<path d="M 1419.6299999999999,926.0 C 1467.648,872.0 1691.732,872.0 1739.75,818.0" fill="none" stroke="#8B4513" stroke-width="3" stroke-opacity="0.6" marker-end="url(#arrow)"/>
<path d="M 212.95499999999998,753.0 C 238.01174999999998,640.5 354.94325,640.5 380.0,528.0" fill="none" stroke="#8B4513" stroke-width="3" stroke-opacity="0.6" marker-end="url(#arrow)"/>
<path d="M 212.95499999999998,753.0 C 238.01174999999998,571.5 354.94325,571.5 380.0,390.0" fill="none" stroke="#8B4513" stroke-width="3" stroke-opacity="0.6" marker-end="url(#arrow)"/>
<path d="M 212.95499999999998,753.0 C 238.01174999999998,502.5 354.94325,502.5 380.0,252.0" fill="none" stroke="#8B4513" stroke-width="3" stroke-opacity="0.6" marker-end="url(#arrow)"/>
<path d="M 518.865,753.0 C 472.56525,709.5 256.49975,709.5 210.2,666.0" fill="none" stroke="#8B4513" stroke-width="3" stroke-opacity="0.6" marker-end="url(#arrow)"/>
<path d="M 1125.175,753.0 C 1029.68275,709.5 584.05225,709.5 488.55999999999995,666.0" fill="none" stroke="#8B4513" stroke-width="3" stroke-opacity="0.6" marker-end="url(#arrow)"/>
<path d="M 1431.0849999999998,753.0 C 1289.7062499999997,709.5 629.9387499999999,709.5 488.55999999999995,666.0" fill="none" stroke="#8B4513" stroke-width="3" stroke-opacity="0.6" marker-end="url(#arrow)"/>
<path d="M 822.02,753.0 C 755.717,433.5 446.303,433.5 380.0,114.0" fill="none" stroke="#8B4513" stroke-width="3" stroke-opacity="0.6" marker-end="url(#arrow)"/>
<path d="M 1739.75,746.0 C 1594.23875,706.0 915.18625,706.0 769.675,666.0" fill="none" stroke="#8B4513" stroke-width="3" stroke-opacity="0.6" marker-end="url(#arrow)"/>
<path d="M 380.0,470.0 C 380.0,430.0 380.0,430.0 380.0,390.0" fill="none" stroke="#8B4513" stroke-width="3" stroke-opacity="0.6" marker-end="url(#arrow)"/>
<path d="M 380.0,470.0 C 380.0,361.0 380.0,361.0 380.0,252.0" fill="none" stroke="#8B4513" stroke-width="3" stroke-opacity="0.6" marker-end="url(#arrow)"/>
<path d="M 380.0,332.0 C 380.0,292.0 380.0,292.0 380.0,252.0" fill="none" stroke="#8B4513" stroke-width="3" stroke-opacity="0.6" marker-end="url(#arrow)"/>
<path d="M 210.2,608.0 C 235.67,361.0 354.53,361.0 380.0,114.0" fill="none" stroke="#8B4513" stroke-width="3" stroke-opacity="0.6" marker-end="url(#arrow)"/>
<path d="M 488.55999999999995,608.0 C 472.27599999999995,361.0 396.284,361.0 380.0,114.0" fill="none" stroke="#8B4513" stroke-width="3" stroke-opacity="0.6" marker-end="url(#arrow)"/>
<path d="M 769.675,608.0 C 711.22375,361.0 438.45124999999996,361.0 380.0,114.0" fill="none" stroke="#8B4513" stroke-width="3" stroke-opacity="0.6" marker-end="url(#arrow)"/>
<path d="M 380.0,194.0 C 380.0,154.0 380.0,154.0 380.0,114.0" fill="none" stroke="#8B4513" stroke-width="3" stroke-opacity="0.6" marker-end="url(#arrow)"/>
<rect x="80.0" y="1120.0" width="200.07999999999998" height="44" fill="#e8e8e8" stroke="#999" stroke-width="2" rx="8"/>
<text x="180.04" y="1138.0" text-anchor="middle" fill="#333" font-family="Arial,sans-serif" font-size="12" font-weight="bold">Emb: &#x27;Congress&#x27; (pos 2)</text>
<circle cx="262.08" cy="1133.0" r="9" fill="#ccc"/>
<text x="262.08" y="1137.0" text-anchor="middle" fill="#666" font-family="monospace" font-size="9" font-weight="bold">0</text>
<rect x="320.08" y="1120.0" width="200" height="44" fill="#e8e8e8" stroke="#999" stroke-width="2" rx="8"/>
<text x="420.08" y="1138.0" text-anchor="middle" fill="#333" font-family="Arial,sans-serif" font-size="12" font-weight="bold">Emb: &#x27;who&#x27; (pos 15)</text>
<circle cx="502.0799999999999" cy="1133.0" r="9" fill="#ccc"/>
<text x="502.0799999999999" y="1137.0" text-anchor="middle" fill="#666" font-family="monospace" font-size="9" font-weight="bold">0</text>
<rect x="560.0799999999999" y="1120.0" width="200" height="44" fill="#e8e8e8" stroke="#999" stroke-width="2" rx="8"/>
<text x="660.0799999999999" y="1138.0" text-anchor="middle" fill="#333" font-family="Arial,sans-serif" font-size="12" font-weight="bold">Emb: &#x27;funding&#x27; (pos 7)</text>
<circle cx="742.0799999999999" cy="1133.0" r="9" fill="#ccc"/>
<text x="742.0799999999999" y="1137.0" text-anchor="middle" fill="#666" font-family="monospace" font-size="9" font-weight="bold">0</text>
<rect x="800.0799999999999" y="1120.0" width="200" height="44" fill="#e8e8e8" stroke="#999" stroke-width="2" rx="8"/>
<text x="900.0799999999999" y="1138.0" text-anchor="middle" fill="#333" font-family="Arial,sans-serif" font-size="12" font-weight="bold">Emb: &#x27;levels&#x27; (pos 8)</text>
<circle cx="982.0799999999999" cy="1133.0" r="9" fill="#ccc"/>
<text x="982.0799999999999" y="1137.0" text-anchor="middle" fill="#666" font-family="monospace" font-size="9" font-weight="bold">0</text>
<rect x="1040.08" y="1120.0" width="200.07999999999998" height="44" fill="#e8e8e8" stroke="#999" stroke-width="2" rx="8"/>
<text x="1140.12" y="1138.0" text-anchor="middle" fill="#333" font-family="Arial,sans-serif" font-size="12" font-weight="bold">Emb: &#x27;controls&#x27; (pos 5)</text>
<circle cx="1222.1599999999999" cy="1133.0" r="9" fill="#ccc"/>
<text x="1222.1599999999999" y="1137.0" text-anchor="middle" fill="#666" font-family="monospace" font-size="9" font-weight="bold">0</text>
<rect x="1280.1599999999999" y="1120.0" width="200" height="44" fill="#e8e8e8" stroke="#999" stroke-width="2" rx="8"/>
<text x="1380.1599999999999" y="1138.0" text-anchor="middle" fill="#333" font-family="Arial,sans-serif" font-size="12" font-weight="bold">Emb: &#x27;many&#x27; (pos 13)</text>
<circle cx="1462.1599999999999" cy="1133.0" r="9" fill="#ccc"/>
<text x="1462.1599999999999" y="1137.0" text-anchor="middle" fill="#666" font-family="monospace" font-size="9" font-weight="bold">0</text>
<rect x="1520.1599999999999" y="1120.0" width="200" height="44" fill="#e8e8e8" stroke="#999" stroke-width="2" rx="8"/>
<text x="1620.1599999999999" y="1138.0" text-anchor="middle" fill="#333" font-family="Arial,sans-serif" font-size="12" font-weight="bold">Emb: &#x27;The&#x27; (pos 1)</text>
<circle cx="1702.1599999999999" cy="1133.0" r="9" fill="#ccc"/>
<text x="1702.1599999999999" y="1137.0" text-anchor="middle" fill="#666" font-family="monospace" font-size="9" font-weight="bold">0</text>
<rect x="1760.1599999999999" y="1092.0" width="265.90999999999997" height="100" fill="#e8e8e8" stroke="#999" stroke-width="2" rx="8"/>
<text x="1893.1149999999998" y="1110.0" text-anchor="middle" fill="#333" font-family="Arial,sans-serif" font-size="12" font-weight="bold">L0: Congress/Political</text>
<text x="1893.1149999999998" y="1124.0" text-anchor="middle" fill="#333" font-family="Arial,sans-serif" font-size="12" font-weight="bold">terms (F6044, F767,</text>
<text x="1893.1149999999998" y="1138.0" text-anchor="middle" fill="#333" font-family="Arial,sans-serif" font-size="12" font-weight="bold">F10198, F9557)</text>
<text x="1893.1149999999998" y="1156.0" text-anchor="middle" fill="#666" font-family="monospace" font-size="9">L0:F6044 — the word &quot;yield&quot;</text>
<text x="1893.1149999999998" y="1170.0" text-anchor="middle" fill="#666" font-family="monospace" font-size="9">L0:F767 — the word &quot;Congress&quot; as well as</text>
<text x="1893.1149999999998" y="1184.0" text-anchor="middle" fill="#666" font-family="monospace" font-size="9">L0:F10198 —  the word &quot;Congress&quot;</text>
<text x="1893.1149999999998" y="1198.0" text-anchor="middle" fill="#666" font-family="monospace" font-size="9">L0:F9557 — the word &quot;clean&quot; and words/phr</text>
<circle cx="2008.0699999999997" cy="1105.0" r="9" fill="#ccc"/>
<text x="2008.0699999999997" y="1109.0" text-anchor="middle" fill="#666" font-family="monospace" font-size="9" font-weight="bold">4</text>
<rect x="2066.0699999999997" y="1113.0" width="200.07999999999998" height="58" fill="#e8e8e8" stroke="#999" stroke-width="2" rx="8"/>
<text x="2166.1099999999997" y="1131.0" text-anchor="middle" fill="#333" font-family="Arial,sans-serif" font-size="12" font-weight="bold">L0: Word &#x27;who&#x27; detector</text>
<text x="2166.1099999999997" y="1145.0" text-anchor="middle" fill="#333" font-family="Arial,sans-serif" font-size="12" font-weight="bold">(F13437)</text>
<text x="2166.1099999999997" y="1163.0" text-anchor="middle" fill="#666" font-family="monospace" font-size="9">L0:F13437 — the word &quot;who&quot;</text>
<circle cx="2248.1499999999996" cy="1126.0" r="9" fill="#ccc"/>
<text x="2248.1499999999996" y="1130.0" text-anchor="middle" fill="#666" font-family="monospace" font-size="9" font-weight="bold">1</text>
<rect x="2306.1499999999996" y="1106.0" width="265.90999999999997" height="72" fill="#e8e8e8" stroke="#999" stroke-width="2" rx="8"/>
<text x="2439.1049999999996" y="1124.0" text-anchor="middle" fill="#333" font-family="Arial,sans-serif" font-size="12" font-weight="bold">L0: Funding/Legal terms</text>
<text x="2439.1049999999996" y="1138.0" text-anchor="middle" fill="#333" font-family="Arial,sans-serif" font-size="12" font-weight="bold">(F4766, F7833)</text>
<text x="2439.1049999999996" y="1156.0" text-anchor="middle" fill="#666" font-family="monospace" font-size="9">L0:F4766 —  the word &quot;fund&quot; and words ass</text>
<text x="2439.1049999999996" y="1170.0" text-anchor="middle" fill="#666" font-family="monospace" font-size="9">L0:F7833 — positive subjective judgements</text>
<circle cx="2554.0599999999995" cy="1119.0" r="9" fill="#ccc"/>
<text x="2554.0599999999995" y="1123.0" text-anchor="middle" fill="#666" font-family="monospace" font-size="9" font-weight="bold">2</text>
<rect x="2612.0599999999995" y="1106.0" width="265.90999999999997" height="72" fill="#e8e8e8" stroke="#999" stroke-width="2" rx="8"/>
<text x="2745.0149999999994" y="1124.0" text-anchor="middle" fill="#333" font-family="Arial,sans-serif" font-size="12" font-weight="bold">L0: &#x27;Levels&#x27; detection</text>
<text x="2745.0149999999994" y="1138.0" text-anchor="middle" fill="#333" font-family="Arial,sans-serif" font-size="12" font-weight="bold">(F812, F1736)</text>
<text x="2745.0149999999994" y="1156.0" text-anchor="middle" fill="#666" font-family="monospace" font-size="9">L0:F812 —  a combination of the word &quot;le</text>
<text x="2745.0149999999994" y="1170.0" text-anchor="middle" fill="#666" font-family="monospace" font-size="9">L0:F1736 —  mentions of scientific rates </text>
<circle cx="2859.9699999999993" cy="1119.0" r="9" fill="#ccc"/>
<text x="2859.9699999999993" y="1123.0" text-anchor="middle" fill="#666" font-family="monospace" font-size="9" font-weight="bold">2</text>
<rect x="2917.9699999999993" y="1113.0" width="260.4" height="58" fill="#e8e8e8" stroke="#999" stroke-width="2" rx="8"/>
<text x="3048.169999999999" y="1131.0" text-anchor="middle" fill="#333" font-family="Arial,sans-serif" font-size="12" font-weight="bold">L0: Control terms (F5749)</text>
<text x="3048.169999999999" y="1149.0" text-anchor="middle" fill="#666" font-family="monospace" font-size="9">L0:F5749 —  the phrase &quot;quality control&quot;</text>
<circle cx="3160.3699999999994" cy="1126.0" r="9" fill="#ccc"/>
<text x="3160.3699999999994" y="1130.0" text-anchor="middle" fill="#666" font-family="monospace" font-size="9" font-weight="bold">1</text>
<rect x="3218.3699999999994" y="1106.0" width="271.41999999999996" height="72" fill="#e8e8e8" stroke="#999" stroke-width="2" rx="8"/>
<text x="3354.0799999999995" y="1124.0" text-anchor="middle" fill="#333" font-family="Arial,sans-serif" font-size="12" font-weight="bold">L0: Quantifier &#x27;many&#x27;</text>
<text x="3354.0799999999995" y="1138.0" text-anchor="middle" fill="#333" font-family="Arial,sans-serif" font-size="12" font-weight="bold">(F15792, F676)</text>
<text x="3354.0799999999995" y="1156.0" text-anchor="middle" fill="#666" font-family="monospace" font-size="9">L0:F15792 —  the word &quot;many&quot; (and to a les</text>
<text x="3354.0799999999995" y="1170.0" text-anchor="middle" fill="#666" font-family="monospace" font-size="9">L0:F676 —  the word &quot;many&quot; or similar wo</text>
<circle cx="3471.7899999999995" cy="1119.0" r="9" fill="#ccc"/>
<text x="3471.7899999999995" y="1123.0" text-anchor="middle" fill="#666" font-family="monospace" font-size="9" font-weight="bold">2</text>
<rect x="80.0" y="898.0" width="271.41999999999996" height="114" fill="#e8e8e8" stroke="#999" stroke-width="2" rx="8"/>
<text x="215.70999999999998" y="916.0" text-anchor="middle" fill="#333" font-family="Arial,sans-serif" font-size="12" font-weight="bold">L1: U.S.</text>
<text x="215.70999999999998" y="930.0" text-anchor="middle" fill="#333" font-family="Arial,sans-serif" font-size="12" font-weight="bold">Congress/Political</text>
<text x="215.70999999999998" y="944.0" text-anchor="middle" fill="#333" font-family="Arial,sans-serif" font-size="12" font-weight="bold">entities (F14850, F6853,</text>
<text x="215.70999999999998" y="958.0" text-anchor="middle" fill="#333" font-family="Arial,sans-serif" font-size="12" font-weight="bold">F7245, F2408, F3276)</text>
<text x="215.70999999999998" y="976.0" text-anchor="middle" fill="#666" font-family="monospace" font-size="9">L1:F14850 — references to the U.S. Congres</text>
<text x="215.70999999999998" y="990.0" text-anchor="middle" fill="#666" font-family="monospace" font-size="9">L1:F6853 —  proper nouns from the Indian </text>
<text x="215.70999999999998" y="1004.0" text-anchor="middle" fill="#666" font-family="monospace" font-size="9">L1:F7245 —  mentions of government or aut</text>
<text x="215.70999999999998" y="1018.0" text-anchor="middle" fill="#666" font-family="monospace" font-size="9">L1:F2408 —  words related to organization</text>
<text x="215.70999999999998" y="1032.0" text-anchor="middle" fill="#666" font-family="monospace" font-size="9">... +1 more</text>
<circle cx="333.41999999999996" cy="911.0" r="9" fill="#ccc"/>
<text x="333.41999999999996" y="915.0" text-anchor="middle" fill="#666" font-family="monospace" font-size="9" font-weight="bold">5</text>
<rect x="391.42" y="926.0" width="265.90999999999997" height="58" fill="#e8e8e8" stroke="#999" stroke-width="2" rx="8"/>
<text x="524.375" y="944.0" text-anchor="middle" fill="#333" font-family="Arial,sans-serif" font-size="12" font-weight="bold">L1: Mechanical/ski context</text>
<text x="524.375" y="958.0" text-anchor="middle" fill="#333" font-family="Arial,sans-serif" font-size="12" font-weight="bold">(F6948) - spurious label</text>
<text x="524.375" y="976.0" text-anchor="middle" fill="#666" font-family="monospace" font-size="9">L1:F6948 —  the word &quot;lift&quot; in the contex</text>
<circle cx="639.3299999999999" cy="939.0" r="9" fill="#ccc"/>
<text x="639.3299999999999" y="943.0" text-anchor="middle" fill="#666" font-family="monospace" font-size="9" font-weight="bold">1</text>
<rect x="697.3299999999999" y="926.0" width="265.90999999999997" height="58" fill="#e8e8e8" stroke="#999" stroke-width="2" rx="8"/>
<text x="830.2849999999999" y="944.0" text-anchor="middle" fill="#333" font-family="Arial,sans-serif" font-size="12" font-weight="bold">L1: Legal</text>
<text x="830.2849999999999" y="958.0" text-anchor="middle" fill="#333" font-family="Arial,sans-serif" font-size="12" font-weight="bold">counsel/representation</text>
<text x="830.2849999999999" y="972.0" text-anchor="middle" fill="#333" font-family="Arial,sans-serif" font-size="12" font-weight="bold">(F2116)</text>
<text x="830.2849999999999" y="990.0" text-anchor="middle" fill="#666" font-family="monospace" font-size="9">L1:F2116 —  words and phrases related to </text>
<circle cx="945.2399999999999" cy="939.0" r="9" fill="#ccc"/>
<text x="945.2399999999999" y="943.0" text-anchor="middle" fill="#666" font-family="monospace" font-size="9" font-weight="bold">1</text>
<rect x="1003.24" y="919.0" width="265.90999999999997" height="72" fill="#e8e8e8" stroke="#999" stroke-width="2" rx="8"/>
<text x="1136.195" y="937.0" text-anchor="middle" fill="#333" font-family="Arial,sans-serif" font-size="12" font-weight="bold">L1: &#x27;Control&#x27; variations</text>
<text x="1136.195" y="951.0" text-anchor="middle" fill="#333" font-family="Arial,sans-serif" font-size="12" font-weight="bold">(F4020, F3604)</text>
<text x="1136.195" y="969.0" text-anchor="middle" fill="#666" font-family="monospace" font-size="9">L1:F4020 —  variations of the word &quot;contr</text>
<text x="1136.195" y="983.0" text-anchor="middle" fill="#666" font-family="monospace" font-size="9">L1:F3604 —  verbs in scientific or techni</text>
<circle cx="1251.15" cy="932.0" r="9" fill="#ccc"/>
<text x="1251.15" y="936.0" text-anchor="middle" fill="#666" font-family="monospace" font-size="9" font-weight="bold">2</text>
<rect x="1309.1499999999999" y="926.0" width="220.95999999999998" height="58" fill="#e8e8e8" stroke="#999" stroke-width="2" rx="8"/>
<text x="1419.6299999999999" y="944.0" text-anchor="middle" fill="#333" font-family="Arial,sans-serif" font-size="12" font-weight="bold">L1: &#x27;many&#x27; detector (F160)</text>
<text x="1419.6299999999999" y="962.0" text-anchor="middle" fill="#666" font-family="monospace" font-size="9">L1:F160 —  the word &quot;many&quot;</text>
<circle cx="1512.11" cy="939.0" r="9" fill="#ccc"/>
<text x="1512.11" y="943.0" text-anchor="middle" fill="#666" font-family="monospace" font-size="9" font-weight="bold">1</text>
<rect x="80.0" y="753.0" width="265.90999999999997" height="58" fill="#e8e8e8" stroke="#999" stroke-width="2" rx="8"/>
<text x="212.95499999999998" y="771.0" text-anchor="middle" fill="#333" font-family="Arial,sans-serif" font-size="12" font-weight="bold">L2: Political</text>
<text x="212.95499999999998" y="785.0" text-anchor="middle" fill="#333" font-family="Arial,sans-serif" font-size="12" font-weight="bold">parties/politicians</text>
<text x="212.95499999999998" y="799.0" text-anchor="middle" fill="#333" font-family="Arial,sans-serif" font-size="12" font-weight="bold">(F6735)</text>
<text x="212.95499999999998" y="817.0" text-anchor="middle" fill="#666" font-family="monospace" font-size="9">L2:F6735 —  political parties and politic</text>
<circle cx="327.90999999999997" cy="766.0" r="9" fill="#ccc"/>
<text x="327.90999999999997" y="770.0" text-anchor="middle" fill="#666" font-family="monospace" font-size="9" font-weight="bold">1</text>
<rect x="385.91" y="753.0" width="265.90999999999997" height="58" fill="#e8e8e8" stroke="#999" stroke-width="2" rx="8"/>
<text x="518.865" y="771.0" text-anchor="middle" fill="#333" font-family="Arial,sans-serif" font-size="12" font-weight="bold">L2: U.S. Congress (F2701)</text>
<text x="518.865" y="789.0" text-anchor="middle" fill="#666" font-family="monospace" font-size="9">L2:F2701 —  words related to the U.S. Con</text>
<circle cx="633.8199999999999" cy="766.0" r="9" fill="#ccc"/>
<text x="633.8199999999999" y="770.0" text-anchor="middle" fill="#666" font-family="monospace" font-size="9" font-weight="bold">1</text>
<rect x="691.8199999999999" y="753.0" width="260.4" height="58" fill="#e8e8e8" stroke="#999" stroke-width="2" rx="8"/>
<text x="822.02" y="771.0" text-anchor="middle" fill="#333" font-family="Arial,sans-serif" font-size="12" font-weight="bold">L2: Amount/intensity</text>
<text x="822.02" y="785.0" text-anchor="middle" fill="#333" font-family="Arial,sans-serif" font-size="12" font-weight="bold">&#x27;levels&#x27; (F156)</text>
<text x="822.02" y="803.0" text-anchor="middle" fill="#666" font-family="monospace" font-size="9">L2:F156 —  words related to the amount o</text>
<circle cx="934.2199999999999" cy="766.0" r="9" fill="#ccc"/>
<text x="934.2199999999999" y="770.0" text-anchor="middle" fill="#666" font-family="monospace" font-size="9" font-weight="bold">1</text>
<rect x="992.22" y="753.0" width="265.90999999999997" height="58" fill="#e8e8e8" stroke="#999" stroke-width="2" rx="8"/>
<text x="1125.175" y="771.0" text-anchor="middle" fill="#333" font-family="Arial,sans-serif" font-size="12" font-weight="bold">L2: &#x27;Control&#x27; forms/rulers</text>
<text x="1125.175" y="785.0" text-anchor="middle" fill="#333" font-family="Arial,sans-serif" font-size="12" font-weight="bold">(F7279)</text>
<text x="1125.175" y="803.0" text-anchor="middle" fill="#666" font-family="monospace" font-size="9">L2:F7279 —  forms of the word &quot;control&quot; a</text>
<circle cx="1240.13" cy="766.0" r="9" fill="#ccc"/>
<text x="1240.13" y="770.0" text-anchor="middle" fill="#666" font-family="monospace" font-size="9" font-weight="bold">1</text>
<rect x="1298.1299999999999" y="753.0" width="265.90999999999997" height="58" fill="#e8e8e8" stroke="#999" stroke-width="2" rx="8"/>
<text x="1431.0849999999998" y="771.0" text-anchor="middle" fill="#333" font-family="Arial,sans-serif" font-size="12" font-weight="bold">L2: Electronic control</text>
<text x="1431.0849999999998" y="785.0" text-anchor="middle" fill="#333" font-family="Arial,sans-serif" font-size="12" font-weight="bold">processes (F7490)</text>
<text x="1431.0849999999998" y="803.0" text-anchor="middle" fill="#666" font-family="monospace" font-size="9">L2:F7490 —  words related to controlling </text>
<circle cx="1546.04" cy="766.0" r="9" fill="#ccc"/>
<text x="1546.04" y="770.0" text-anchor="middle" fill="#666" font-family="monospace" font-size="9" font-weight="bold">1</text>
<rect x="1604.04" y="746.0" width="271.41999999999996" height="72" fill="#e8e8e8" stroke="#999" stroke-width="2" rx="8"/>
<text x="1739.75" y="764.0" text-anchor="middle" fill="#333" font-family="Arial,sans-serif" font-size="12" font-weight="bold">L2: &#x27;many&#x27; variants</text>
<text x="1739.75" y="778.0" text-anchor="middle" fill="#333" font-family="Arial,sans-serif" font-size="12" font-weight="bold">(F6462, F15792)</text>
<text x="1739.75" y="796.0" text-anchor="middle" fill="#666" font-family="monospace" font-size="9">L2:F6462 —  the word &quot;many&quot; and occasiona</text>
<text x="1739.75" y="810.0" text-anchor="middle" fill="#666" font-family="monospace" font-size="9">L2:F15792 —  the word &quot;many&quot;, &quot;multiple&quot;, </text>
<circle cx="1857.46" cy="759.0" r="9" fill="#ccc"/>
<text x="1857.46" y="763.0" text-anchor="middle" fill="#666" font-family="monospace" font-size="9" font-weight="bold">2</text>
<rect x="80.0" y="608.0" width="260.4" height="58" fill="#e8e8e8" stroke="#999" stroke-width="2" rx="8"/>
<text x="210.2" y="626.0" text-anchor="middle" fill="#333" font-family="Arial,sans-serif" font-size="12" font-weight="bold">L3: U.S. Congress mentions</text>
<text x="210.2" y="640.0" text-anchor="middle" fill="#333" font-family="Arial,sans-serif" font-size="12" font-weight="bold">(F123)</text>
<text x="210.2" y="658.0" text-anchor="middle" fill="#666" font-family="monospace" font-size="9">L3:F123 —  mentions of the United States</text>
<circle cx="322.4" cy="621.0" r="9" fill="#ccc"/>
<text x="322.4" y="625.0" text-anchor="middle" fill="#666" font-family="monospace" font-size="9" font-weight="bold">1</text>
<rect x="380.4" y="608.0" width="216.32" height="58" fill="#e8e8e8" stroke="#999" stroke-width="2" rx="8"/>
<text x="488.55999999999995" y="626.0" text-anchor="middle" fill="#333" font-family="Arial,sans-serif" font-size="12" font-weight="bold">L3: Word &#x27;control&#x27;</text>
<text x="488.55999999999995" y="640.0" text-anchor="middle" fill="#333" font-family="Arial,sans-serif" font-size="12" font-weight="bold">(F13271)</text>
<text x="488.55999999999995" y="658.0" text-anchor="middle" fill="#666" font-family="monospace" font-size="9">L3:F13271 —  the word &quot;control.&quot;</text>
<circle cx="578.72" cy="621.0" r="9" fill="#ccc"/>
<text x="578.72" y="625.0" text-anchor="middle" fill="#666" font-family="monospace" font-size="9" font-weight="bold">1</text>
<rect x="636.72" y="608.0" width="265.90999999999997" height="58" fill="#e8e8e8" stroke="#999" stroke-width="2" rx="8"/>
<text x="769.675" y="626.0" text-anchor="middle" fill="#333" font-family="Arial,sans-serif" font-size="12" font-weight="bold">L3: Word &#x27;many&#x27; (F8382)</text>
<text x="769.675" y="644.0" text-anchor="middle" fill="#666" font-family="monospace" font-size="9">L3:F8382 —  the word &quot;many&quot;, and sometime</text>
<circle cx="884.63" cy="621.0" r="9" fill="#ccc"/>
<text x="884.63" y="625.0" text-anchor="middle" fill="#666" font-family="monospace" font-size="9" font-weight="bold">1</text>
<rect x="247.04500000000002" y="470.0" width="265.90999999999997" height="58" fill="#e8e8e8" stroke="#999" stroke-width="2" rx="8"/>
<text x="380.0" y="488.0" text-anchor="middle" fill="#333" font-family="Arial,sans-serif" font-size="12" font-weight="bold">L4: Political</text>
<text x="380.0" y="502.0" text-anchor="middle" fill="#333" font-family="Arial,sans-serif" font-size="12" font-weight="bold">parties/elections (F5265)</text>
<text x="380.0" y="520.0" text-anchor="middle" fill="#666" font-family="monospace" font-size="9">L4:F5265 —  references to political parti</text>
<circle cx="494.9549999999999" cy="483.0" r="9" fill="#ccc"/>
<text x="494.9549999999999" y="487.0" text-anchor="middle" fill="#666" font-family="monospace" font-size="9" font-weight="bold">1</text>
<rect x="249.8" y="332.0" width="260.4" height="58" fill="#e8e8e8" stroke="#999" stroke-width="2" rx="8"/>
<text x="380.0" y="350.0" text-anchor="middle" fill="#333" font-family="Arial,sans-serif" font-size="12" font-weight="bold">L5: Political</text>
<text x="380.0" y="364.0" text-anchor="middle" fill="#333" font-family="Arial,sans-serif" font-size="12" font-weight="bold">parties/politicians (F842)</text>
<text x="380.0" y="382.0" text-anchor="middle" fill="#666" font-family="monospace" font-size="9">L5:F842 —  political parties and politic</text>
<circle cx="492.2" cy="345.0" r="9" fill="#ccc"/>
<text x="492.2" y="349.0" text-anchor="middle" fill="#666" font-family="monospace" font-size="9" font-weight="bold">1</text>
<rect x="247.04500000000002" y="194.0" width="265.90999999999997" height="58" fill="#e8e8e8" stroke="#999" stroke-width="2" rx="8"/>
<text x="380.0" y="212.0" text-anchor="middle" fill="#333" font-family="Arial,sans-serif" font-size="12" font-weight="bold">L6: Political</text>
<text x="380.0" y="226.0" text-anchor="middle" fill="#333" font-family="Arial,sans-serif" font-size="12" font-weight="bold">parties/affiliations</text>
<text x="380.0" y="240.0" text-anchor="middle" fill="#333" font-family="Arial,sans-serif" font-size="12" font-weight="bold">(F6096)</text>
<text x="380.0" y="258.0" text-anchor="middle" fill="#666" font-family="monospace" font-size="9">L6:F6096 —  political parties and affilia</text>
<circle cx="494.9549999999999" cy="207.0" r="9" fill="#ccc"/>
<text x="494.9549999999999" y="211.0" text-anchor="middle" fill="#666" font-family="monospace" font-size="9" font-weight="bold">1</text>
<rect x="280.0" y="70.0" width="200" height="44" fill="#e8e8e8" stroke="#999" stroke-width="2" rx="8"/>
<text x="380.0" y="88.0" text-anchor="middle" fill="#333" font-family="Arial,sans-serif" font-size="12" font-weight="bold">Output: Probe</text>
<text x="380.0" y="102.0" text-anchor="middle" fill="#333" font-family="Arial,sans-serif" font-size="12" font-weight="bold">Classification</text>
<circle cx="462.0" cy="83.0" r="9" fill="#ccc"/>
<text x="462.0" y="87.0" text-anchor="middle" fill="#666" font-family="monospace" font-size="9" font-weight="bold">0</text>
<line x1="40" y1="1272" x2="3569" y2="1272" stroke="#ddd" stroke-width="1"/>
<text x="40" y="1290" fill="#666" font-family="Arial,sans-serif" font-size="10" font-weight="bold" letter-spacing="1px">PROMPT</text>
<text x="40" y="1308" fill="#333" font-family="monospace" font-size="11">"&lt;bos&gt;The Congress, which controls our funding levels, began to include many members who did not support the purpose and "</text>
<text x="40" y="1332" fill="#666" font-family="Arial,sans-serif" font-size="10" font-weight="bold" letter-spacing="1px">TOP OUTPUTS</text>
<rect x="40" y="1337" width="100" height="20" fill="#e8e8e8" stroke="none" rx="6"/>
<text x="45" y="1351" fill="#333" font-family="Arial,sans-serif" font-size="11" font-weight="bold">(empty) <tspan fill="#555" font-size="10">100%</tspan></text>
</svg>