<svg width="1497" height="1995" xmlns="http://www.w3.org/2000/svg">
<rect width="1497" height="1995" fill="#f5f5f5"/>
<rect x="15" y="15" width="1467" height="1965" fill="white" stroke="none" rx="12"/>
<text x="40" y="48" fill="#666" font-family="Arial,sans-serif" font-size="14" font-weight="bold" letter-spacing="1px">ATTRIBUTION CIRCUIT</text>
<text x="25" y="96.0" fill="#999" font-family="monospace" font-size="10" font-weight="bold" text-anchor="start">L36</text>
<text x="25" y="227.0" fill="#999" font-family="monospace" font-size="10" font-weight="bold" text-anchor="start">L19</text>
<text x="25" y="379.0" fill="#999" font-family="monospace" font-size="10" font-weight="bold" text-anchor="start">L18</text>
<text x="25" y="538.0" fill="#999" font-family="monospace" font-size="10" font-weight="bold" text-anchor="start">L16</text>
<text x="25" y="690.0" fill="#999" font-family="monospace" font-size="10" font-weight="bold" text-anchor="start">L14</text>
<text x="25" y="842.0" fill="#999" font-family="monospace" font-size="10" font-weight="bold" text-anchor="start">L8</text>
<text x="25" y="987.0" fill="#999" font-family="monospace" font-size="10" font-weight="bold" text-anchor="start">L7</text>
<text x="25" y="1132.0" fill="#999" font-family="monospace" font-size="10" font-weight="bold" text-anchor="start">L6</text>
<text x="25" y="1298.0" fill="#999" font-family="monospace" font-size="10" font-weight="bold" text-anchor="start">L4</text>
<text x="25" y="1464.0" fill="#999" font-family="monospace" font-size="10" font-weight="bold" text-anchor="start">L2</text>
<text x="25" y="1609.0" fill="#999" font-family="monospace" font-size="10" font-weight="bold" text-anchor="start">L1</text>
<text x="25" y="1761.0" fill="#999" font-family="monospace" font-size="10" font-weight="bold" text-anchor="start">L0</text>
<defs><marker id="arrow" markerWidth="8" markerHeight="6" refX="8" refY="3" orient="auto"><polygon points="0,0 8,3 0,6" fill="#8B4513" fill-opacity="0.7"/></marker></defs>
<path d="M 180.0,1779.0 C 292.94325,1746.5 820.0117499999999,1746.5 932.9549999999999,1714.0" fill="none" stroke="#8B4513" stroke-width="3" stroke-opacity="0.6" marker-end="url(#arrow)"/>
<path d="M 180.0,1735.0 C 210.0,1684.5 350.0,1684.5 380.0,1634.0" fill="none" stroke="#8B4513" stroke-width="3" stroke-opacity="0.6" marker-end="url(#arrow)"/>
<path d="M 180.0,1735.0 C 210.0,1615.5 350.0,1615.5 380.0,1496.0" fill="none" stroke="#8B4513" stroke-width="3" stroke-opacity="0.6" marker-end="url(#arrow)"/>
<path d="M 180.0,1735.0 C 187.05675,1536.0 219.98825000000002,1536.0 227.04500000000002,1337.0" fill="none" stroke="#8B4513" stroke-width="3" stroke-opacity="0.6" marker-end="url(#arrow)"/>
<path d="M 180.0,1735.0 C 210.0,1449.5 350.0,1449.5 380.0,1164.0" fill="none" stroke="#8B4513" stroke-width="3" stroke-opacity="0.6" marker-end="url(#arrow)"/>
<path d="M 180.0,1735.0 C 186.64350000000002,1373.5 217.6465,1373.5 224.29000000000002,1012.0" fill="none" stroke="#8B4513" stroke-width="3" stroke-opacity="0.6" marker-end="url(#arrow)"/>
<path d="M 180.0,1735.0 C 233.3565,1373.5 482.35350000000005,1373.5 535.71,1012.0" fill="none" stroke="#8B4513" stroke-width="3" stroke-opacity="0.6" marker-end="url(#arrow)"/>
<path d="M 180.0,1735.0 C 233.76975,1069.5 484.69524999999993,1069.5 538.4649999999999,404.0" fill="none" stroke="#8B4513" stroke-width="3" stroke-opacity="0.6" marker-end="url(#arrow)"/>
<path d="M 420.0,1735.0 C 437.76975,1069.5 520.69525,1069.5 538.4649999999999,404.0" fill="none" stroke="#8B4513" stroke-width="3" stroke-opacity="0.6" marker-end="url(#arrow)"/>
<path d="M 932.9549999999999,1714.0 C 850.0117499999999,1674.0 462.94325,1674.0 380.0,1634.0" fill="none" stroke="#8B4513" stroke-width="3" stroke-opacity="0.6" marker-end="url(#arrow)"/>
<path d="M 932.9549999999999,1714.0 C 850.0117499999999,1605.0 462.94325,1605.0 380.0,1496.0" fill="none" stroke="#8B4513" stroke-width="3" stroke-opacity="0.6" marker-end="url(#arrow)"/>
<path d="M 932.9549999999999,1714.0 C 827.0685,1525.5 332.93149999999997,1525.5 227.04500000000002,1337.0" fill="none" stroke="#8B4513" stroke-width="3" stroke-opacity="0.6" marker-end="url(#arrow)"/>
<path d="M 932.9549999999999,1714.0 C 850.0117499999999,1439.0 462.94325,1439.0 380.0,1164.0" fill="none" stroke="#8B4513" stroke-width="3" stroke-opacity="0.6" marker-end="url(#arrow)"/>
<path d="M 380.0,1576.0 C 380.0,1536.0 380.0,1536.0 380.0,1496.0" fill="none" stroke="#8B4513" stroke-width="3" stroke-opacity="0.6" marker-end="url(#arrow)"/>
<path d="M 380.0,1576.0 C 357.05675,1456.5 249.98825000000002,1456.5 227.04500000000002,1337.0" fill="none" stroke="#8B4513" stroke-width="3" stroke-opacity="0.6" marker-end="url(#arrow)"/>
<path d="M 380.0,1424.0 C 357.05675,1380.5 249.98825000000002,1380.5 227.04500000000002,1337.0" fill="none" stroke="#8B4513" stroke-width="3" stroke-opacity="0.6" marker-end="url(#arrow)"/>
<path d="M 380.0,1424.0 C 380.0,1294.0 380.0,1294.0 380.0,1164.0" fill="none" stroke="#8B4513" stroke-width="3" stroke-opacity="0.6" marker-end="url(#arrow)"/>
<path d="M 227.04500000000002,1251.0 C 249.98825000000002,1207.5 357.05675,1207.5 380.0,1164.0" fill="none" stroke="#8B4513" stroke-width="3" stroke-opacity="0.6" marker-end="url(#arrow)"/>
<path d="M 227.04500000000002,1251.0 C 226.63175,1131.5 224.70325000000003,1131.5 224.29000000000002,1012.0" fill="none" stroke="#8B4513" stroke-width="3" stroke-opacity="0.6" marker-end="url(#arrow)"/>
<path d="M 380.0,1092.0 C 356.6435,1052.0 247.6465,1052.0 224.29000000000002,1012.0" fill="none" stroke="#8B4513" stroke-width="3" stroke-opacity="0.6" marker-end="url(#arrow)"/>
<path d="M 380.0,1092.0 C 356.6435,672.0 247.6465,672.0 224.29000000000002,252.0" fill="none" stroke="#8B4513" stroke-width="3" stroke-opacity="0.6" marker-end="url(#arrow)"/>
<path d="M 224.29000000000002,954.0 C 224.29000000000002,603.0 224.29000000000002,603.0 224.29000000000002,252.0" fill="none" stroke="#8B4513" stroke-width="3" stroke-opacity="0.6" marker-end="url(#arrow)"/>
<path d="M 535.71,954.0 C 488.997,603.0 271.00300000000004,603.0 224.29000000000002,252.0" fill="none" stroke="#8B4513" stroke-width="3" stroke-opacity="0.6" marker-end="url(#arrow)"/>
<path d="M 253.0,332.0 C 248.6935,292.0 228.59650000000002,292.0 224.29000000000002,252.0" fill="none" stroke="#8B4513" stroke-width="3" stroke-opacity="0.6" marker-end="url(#arrow)"/>
<path d="M 660.0,1735.0 C 641.3565,1539.5 554.3535,1539.5 535.71,1344.0" fill="none" stroke="#8B4513" stroke-width="3" stroke-opacity="0.6" marker-end="url(#arrow)"/>
<path d="M 660.0,1735.0 C 618.0,1304.5 422.0,1304.5 380.0,874.0" fill="none" stroke="#8B4513" stroke-width="3" stroke-opacity="0.6" marker-end="url(#arrow)"/>
<path d="M 660.0,1735.0 C 618.0,1228.5 422.0,1228.5 380.0,722.0" fill="none" stroke="#8B4513" stroke-width="3" stroke-opacity="0.6" marker-end="url(#arrow)"/>
<path d="M 535.71,1244.0 C 512.3535,1059.0 403.3565,1059.0 380.0,874.0" fill="none" stroke="#8B4513" stroke-width="3" stroke-opacity="0.6" marker-end="url(#arrow)"/>
<path d="M 380.0,802.0 C 380.0,762.0 380.0,762.0 380.0,722.0" fill="none" stroke="#8B4513" stroke-width="3" stroke-opacity="0.6" marker-end="url(#arrow)"/>
<path d="M 380.0,650.0 C 380.0,610.0 380.0,610.0 380.0,570.0" fill="none" stroke="#8B4513" stroke-width="3" stroke-opacity="0.6" marker-end="url(#arrow)"/>
<path d="M 380.0,650.0 C 403.3565,451.0 512.3535,451.0 535.71,252.0" fill="none" stroke="#8B4513" stroke-width="3" stroke-opacity="0.6" marker-end="url(#arrow)"/>
<path d="M 380.0,498.0 C 403.3565,375.0 512.3535,375.0 535.71,252.0" fill="none" stroke="#8B4513" stroke-width="3" stroke-opacity="0.6" marker-end="url(#arrow)"/>
<path d="M 380.0,802.0 C 403.3565,527.0 512.3535,527.0 535.71,252.0" fill="none" stroke="#8B4513" stroke-width="3" stroke-opacity="0.6" marker-end="url(#arrow)"/>
<path d="M 932.9549999999999,1714.0 C 850.0117499999999,914.0 462.94325,914.0 380.0,114.0" fill="none" stroke="#8B4513" stroke-width="3" stroke-opacity="0.6" marker-end="url(#arrow)"/>
<path d="M 1241.62,1714.0 C 1112.377,914.0 509.24299999999994,914.0 380.0,114.0" fill="none" stroke="#8B4513" stroke-width="3" stroke-opacity="0.6" marker-end="url(#arrow)"/>
<path d="M 380.0,1424.0 C 380.0,769.0 380.0,769.0 380.0,114.0" fill="none" stroke="#8B4513" stroke-width="3" stroke-opacity="0.6" marker-end="url(#arrow)"/>
<path d="M 227.04500000000002,1251.0 C 249.98825000000002,682.5 357.05675,682.5 380.0,114.0" fill="none" stroke="#8B4513" stroke-width="3" stroke-opacity="0.6" marker-end="url(#arrow)"/>
<path d="M 380.0,1092.0 C 380.0,603.0 380.0,603.0 380.0,114.0" fill="none" stroke="#8B4513" stroke-width="3" stroke-opacity="0.6" marker-end="url(#arrow)"/>
<path d="M 224.29000000000002,954.0 C 247.6465,534.0 356.6435,534.0 380.0,114.0" fill="none" stroke="#8B4513" stroke-width="3" stroke-opacity="0.6" marker-end="url(#arrow)"/>
<path d="M 535.71,954.0 C 512.3535,534.0 403.3565,534.0 380.0,114.0" fill="none" stroke="#8B4513" stroke-width="3" stroke-opacity="0.6" marker-end="url(#arrow)"/>
<path d="M 253.0,332.0 C 272.05,223.0 360.95,223.0 380.0,114.0" fill="none" stroke="#8B4513" stroke-width="3" stroke-opacity="0.6" marker-end="url(#arrow)"/>
<path d="M 538.4649999999999,346.0 C 514.69525,230.0 403.76975,230.0 380.0,114.0" fill="none" stroke="#8B4513" stroke-width="3" stroke-opacity="0.6" marker-end="url(#arrow)"/>
<path d="M 224.29000000000002,194.0 C 247.6465,154.0 356.6435,154.0 380.0,114.0" fill="none" stroke="#8B4513" stroke-width="3" stroke-opacity="0.6" marker-end="url(#arrow)"/>
<path d="M 380.0,650.0 C 380.0,382.0 380.0,382.0 380.0,114.0" fill="none" stroke="#8B4513" stroke-width="3" stroke-opacity="0.6" marker-end="url(#arrow)"/>
<path d="M 535.71,194.0 C 512.3535,154.0 403.3565,154.0 380.0,114.0" fill="none" stroke="#8B4513" stroke-width="3" stroke-opacity="0.6" marker-end="url(#arrow)"/>
<rect x="80.0" y="1735.0" width="200" height="44" fill="#e8e8e8" stroke="#999" stroke-width="2" rx="8"/>
<text x="180.0" y="1753.0" text-anchor="middle" fill="#333" font-family="Arial,sans-serif" font-size="12" font-weight="bold">Emb: &#x27;His&#x27; (pos 1)</text>
<circle cx="262.0" cy="1748.0" r="9" fill="#ccc"/>
<text x="262.0" y="1752.0" text-anchor="middle" fill="#666" font-family="monospace" font-size="9" font-weight="bold">0</text>
<rect x="320.0" y="1735.0" width="200" height="44" fill="#e8e8e8" stroke="#999" stroke-width="2" rx="8"/>
<text x="420.0" y="1753.0" text-anchor="middle" fill="#333" font-family="Arial,sans-serif" font-size="12" font-weight="bold">Emb: &#x27;him&#x27; (pos 9)</text>
<circle cx="502.0" cy="1748.0" r="9" fill="#ccc"/>
<text x="502.0" y="1752.0" text-anchor="middle" fill="#666" font-family="monospace" font-size="9" font-weight="bold">0</text>
<rect x="560.0" y="1735.0" width="200" height="44" fill="#e8e8e8" stroke="#999" stroke-width="2" rx="8"/>
<text x="660.0" y="1753.0" text-anchor="middle" fill="#333" font-family="Arial,sans-serif" font-size="12" font-weight="bold">Emb: &#x27;report&#x27; (pos 21)</text>
<circle cx="742.0" cy="1748.0" r="9" fill="#ccc"/>
<text x="742.0" y="1752.0" text-anchor="middle" fill="#666" font-family="monospace" font-size="9" font-weight="bold">0</text>
<rect x="800.0" y="1714.0" width="265.90999999999997" height="86" fill="#e8e8e8" stroke="#999" stroke-width="2" rx="8"/>
<text x="932.9549999999999" y="1732.0" text-anchor="middle" fill="#333" font-family="Arial,sans-serif" font-size="12" font-weight="bold">L0 Male Pronoun Detectors</text>
<text x="932.9549999999999" y="1746.0" text-anchor="middle" fill="#333" font-family="Arial,sans-serif" font-size="12" font-weight="bold">(pos 1): &#x27;his/he&#x27;</text>
<text x="932.9549999999999" y="1760.0" text-anchor="middle" fill="#333" font-family="Arial,sans-serif" font-size="12" font-weight="bold">recognizer + male person</text>
<text x="932.9549999999999" y="1774.0" text-anchor="middle" fill="#333" font-family="Arial,sans-serif" font-size="12" font-weight="bold">reference</text>
<text x="932.9549999999999" y="1792.0" text-anchor="middle" fill="#666" font-family="monospace" font-size="9">L0:F2994 — the pronoun &quot;his&quot; and the pron</text>
<text x="932.9549999999999" y="1806.0" text-anchor="middle" fill="#666" font-family="monospace" font-size="9">L0:F1069 —  references to a male person, </text>
<text x="932.9549999999999" y="1820.0" text-anchor="middle" fill="#666" font-family="monospace" font-size="9">L0:F2208 —  the pronoun &quot;Him&quot; and the pos</text>
<circle cx="1047.9099999999999" cy="1727.0" r="9" fill="#ccc"/>
<text x="1047.9099999999999" y="1731.0" text-anchor="middle" fill="#666" font-family="monospace" font-size="9" font-weight="bold">3</text>
<rect x="1105.9099999999999" y="1714.0" width="271.41999999999996" height="86" fill="#e8e8e8" stroke="#999" stroke-width="2" rx="8"/>
<text x="1241.62" y="1732.0" text-anchor="middle" fill="#333" font-family="Arial,sans-serif" font-size="12" font-weight="bold">L0 Context Features:</text>
<text x="1241.62" y="1746.0" text-anchor="middle" fill="#333" font-family="Arial,sans-serif" font-size="12" font-weight="bold">&#x27;desire/dream&#x27; detector,</text>
<text x="1241.62" y="1760.0" text-anchor="middle" fill="#333" font-family="Arial,sans-serif" font-size="12" font-weight="bold">&#x27;taken&#x27; past-participle,</text>
<text x="1241.62" y="1774.0" text-anchor="middle" fill="#333" font-family="Arial,sans-serif" font-size="12" font-weight="bold">&#x27;world&#x27; token</text>
<text x="1241.62" y="1792.0" text-anchor="middle" fill="#666" font-family="monospace" font-size="9">L0:F2011 —  the word &quot;dream&quot;</text>
<text x="1241.62" y="1806.0" text-anchor="middle" fill="#666" font-family="monospace" font-size="9">L0:F7927 —  past-participle verbs</text>
<text x="1241.62" y="1820.0" text-anchor="middle" fill="#666" font-family="monospace" font-size="9">L0:F11767 — the word &quot;world&quot; with a lower </text>
<circle cx="1359.33" cy="1727.0" r="9" fill="#ccc"/>
<text x="1359.33" y="1731.0" text-anchor="middle" fill="#666" font-family="monospace" font-size="9" font-weight="bold">3</text>
<rect x="247.04500000000002" y="1576.0" width="265.90999999999997" height="58" fill="#e8e8e8" stroke="#999" stroke-width="2" rx="8"/>
<text x="380.0" y="1594.0" text-anchor="middle" fill="#333" font-family="Arial,sans-serif" font-size="12" font-weight="bold">L1 &#x27;his/him&#x27; Possessive</text>
<text x="380.0" y="1608.0" text-anchor="middle" fill="#333" font-family="Arial,sans-serif" font-size="12" font-weight="bold">Detector (very specific,</text>
<text x="380.0" y="1622.0" text-anchor="middle" fill="#333" font-family="Arial,sans-serif" font-size="12" font-weight="bold">frac=0.003)</text>
<text x="380.0" y="1640.0" text-anchor="middle" fill="#666" font-family="monospace" font-size="9">L1:F7439 —  the possessive pronouns &quot;his&quot;</text>
<circle cx="494.9549999999999" cy="1589.0" r="9" fill="#ccc"/>
<text x="494.9549999999999" y="1593.0" text-anchor="middle" fill="#666" font-family="monospace" font-size="9" font-weight="bold">1</text>
<rect x="247.04500000000002" y="1424.0" width="265.90999999999997" height="72" fill="#e8e8e8" stroke="#999" stroke-width="2" rx="8"/>
<text x="380.0" y="1442.0" text-anchor="middle" fill="#333" font-family="Arial,sans-serif" font-size="12" font-weight="bold">L2 Gender/Pronoun</text>
<text x="380.0" y="1456.0" text-anchor="middle" fill="#333" font-family="Arial,sans-serif" font-size="12" font-weight="bold">Features: capitalized</text>
<text x="380.0" y="1470.0" text-anchor="middle" fill="#333" font-family="Arial,sans-serif" font-size="12" font-weight="bold">&#x27;His&#x27; (God context) +</text>
<text x="380.0" y="1484.0" text-anchor="middle" fill="#333" font-family="Arial,sans-serif" font-size="12" font-weight="bold">gendered social roles</text>
<text x="380.0" y="1502.0" text-anchor="middle" fill="#666" font-family="monospace" font-size="9">L2:F5491 — references to God in the third</text>
<text x="380.0" y="1516.0" text-anchor="middle" fill="#666" font-family="monospace" font-size="9">L2:F9301 —  all mentions of men and women</text>
<circle cx="494.9549999999999" cy="1437.0" r="9" fill="#ccc"/>
<text x="494.9549999999999" y="1441.0" text-anchor="middle" fill="#666" font-family="monospace" font-size="9" font-weight="bold">2</text>
<rect x="91.33500000000004" y="1251.0" width="271.41999999999996" height="86" fill="#e8e8e8" stroke="#999" stroke-width="2" rx="8"/>
<text x="227.04500000000002" y="1269.0" text-anchor="middle" fill="#333" font-family="Arial,sans-serif" font-size="12" font-weight="bold">L3-4 Male Pronoun</text>
<text x="227.04500000000002" y="1283.0" text-anchor="middle" fill="#333" font-family="Arial,sans-serif" font-size="12" font-weight="bold">Processing: capitalized</text>
<text x="227.04500000000002" y="1297.0" text-anchor="middle" fill="#333" font-family="Arial,sans-serif" font-size="12" font-weight="bold">&#x27;His&#x27; + &#x27;his&#x27; pronoun</text>
<text x="227.04500000000002" y="1311.0" text-anchor="middle" fill="#333" font-family="Arial,sans-serif" font-size="12" font-weight="bold">detectors</text>
<text x="227.04500000000002" y="1329.0" text-anchor="middle" fill="#666" font-family="monospace" font-size="9">L3:F13121 — the word &quot;His&quot; and words that </text>
<text x="227.04500000000002" y="1343.0" text-anchor="middle" fill="#666" font-family="monospace" font-size="9">L4:F4315 —  mentions of &quot;his&quot; and other a</text>
<text x="227.04500000000002" y="1357.0" text-anchor="middle" fill="#666" font-family="monospace" font-size="9">L4:F15567 — sentences with male or female </text>
<circle cx="344.755" cy="1264.0" r="9" fill="#ccc"/>
<text x="344.755" y="1268.0" text-anchor="middle" fill="#666" font-family="monospace" font-size="9" font-weight="bold">3</text>
<rect x="244.29000000000002" y="1092.0" width="271.41999999999996" height="72" fill="#e8e8e8" stroke="#999" stroke-width="2" rx="8"/>
<text x="380.0" y="1110.0" text-anchor="middle" fill="#333" font-family="Arial,sans-serif" font-size="12" font-weight="bold">L5-6 Gender Consolidation:</text>
<text x="380.0" y="1124.0" text-anchor="middle" fill="#333" font-family="Arial,sans-serif" font-size="12" font-weight="bold">third-person pronoun</text>
<text x="380.0" y="1138.0" text-anchor="middle" fill="#333" font-family="Arial,sans-serif" font-size="12" font-weight="bold">context + male descriptor</text>
<text x="380.0" y="1152.0" text-anchor="middle" fill="#333" font-family="Arial,sans-serif" font-size="12" font-weight="bold">features</text>
<text x="380.0" y="1170.0" text-anchor="middle" fill="#666" font-family="monospace" font-size="9">L5:F10952 — third person pronouns in varyi</text>
<text x="380.0" y="1184.0" text-anchor="middle" fill="#666" font-family="monospace" font-size="9">L6:F12990 —  male pronouns and titles alon</text>
<circle cx="497.71000000000004" cy="1105.0" r="9" fill="#ccc"/>
<text x="497.71000000000004" y="1109.0" text-anchor="middle" fill="#666" font-family="monospace" font-size="9" font-weight="bold">2</text>
<rect x="88.58000000000004" y="954.0" width="271.41999999999996" height="58" fill="#e8e8e8" stroke="#999" stroke-width="2" rx="8"/>
<text x="224.29000000000002" y="972.0" text-anchor="middle" fill="#333" font-family="Arial,sans-serif" font-size="12" font-weight="bold">L7 Gender Flip Feature (→</text>
<text x="224.29000000000002" y="986.0" text-anchor="middle" fill="#333" font-family="Arial,sans-serif" font-size="12" font-weight="bold">female): promotes</text>
<text x="224.29000000000002" y="1000.0" text-anchor="middle" fill="#333" font-family="Arial,sans-serif" font-size="12" font-weight="bold">&#x27;she/herself&#x27;, suppresses</text>
<text x="224.29000000000002" y="1014.0" text-anchor="middle" fill="#333" font-family="Arial,sans-serif" font-size="12" font-weight="bold">&#x27;his/himself&#x27;</text>
<text x="224.29000000000002" y="1032.0" text-anchor="middle" fill="#666" font-family="monospace" font-size="9">L7:F14893 —  pronouns or possessive pronou</text>
<circle cx="342.0" cy="967.0" r="9" fill="#ccc"/>
<text x="342.0" y="971.0" text-anchor="middle" fill="#666" font-family="monospace" font-size="9" font-weight="bold">1</text>
<rect x="400.00000000000006" y="954.0" width="271.41999999999996" height="58" fill="#e8e8e8" stroke="#999" stroke-width="2" rx="8"/>
<text x="535.71" y="972.0" text-anchor="middle" fill="#333" font-family="Arial,sans-serif" font-size="12" font-weight="bold">L7 Male Pronoun Feature (→</text>
<text x="535.71" y="986.0" text-anchor="middle" fill="#333" font-family="Arial,sans-serif" font-size="12" font-weight="bold">male): promotes</text>
<text x="535.71" y="1000.0" text-anchor="middle" fill="#333" font-family="Arial,sans-serif" font-size="12" font-weight="bold">&#x27;his/himself&#x27;, suppresses</text>
<text x="535.71" y="1014.0" text-anchor="middle" fill="#333" font-family="Arial,sans-serif" font-size="12" font-weight="bold">&#x27;she/herself&#x27;</text>
<text x="535.71" y="1032.0" text-anchor="middle" fill="#666" font-family="monospace" font-size="9">L7:F14946 —  the possessive pronoun &quot;his&quot; </text>
<circle cx="653.4200000000001" cy="967.0" r="9" fill="#ccc"/>
<text x="653.4200000000001" y="971.0" text-anchor="middle" fill="#666" font-family="monospace" font-size="9" font-weight="bold">1</text>
<rect x="402.75500000000005" y="1244.0" width="265.90999999999997" height="100" fill="#e8e8e8" stroke="#999" stroke-width="2" rx="8"/>
<text x="535.71" y="1262.0" text-anchor="middle" fill="#333" font-family="Arial,sans-serif" font-size="12" font-weight="bold">L1-4 Early Journalism</text>
<text x="535.71" y="1276.0" text-anchor="middle" fill="#333" font-family="Arial,sans-serif" font-size="12" font-weight="bold">Pipeline (pos 21):</text>
<text x="535.71" y="1290.0" text-anchor="middle" fill="#333" font-family="Arial,sans-serif" font-size="12" font-weight="bold">&#x27;report&#x27; lexical detectors</text>
<text x="535.71" y="1304.0" text-anchor="middle" fill="#333" font-family="Arial,sans-serif" font-size="12" font-weight="bold">+ media context</text>
<text x="535.71" y="1322.0" text-anchor="middle" fill="#666" font-family="monospace" font-size="9">L1:F14511 —  the word &quot;report&quot;</text>
<text x="535.71" y="1336.0" text-anchor="middle" fill="#666" font-family="monospace" font-size="9">L4:F661 —  words and phrases used when r</text>
<text x="535.71" y="1350.0" text-anchor="middle" fill="#666" font-family="monospace" font-size="9">L4:F6696 — the word &quot;report&quot; or &quot;reportin</text>
<text x="535.71" y="1364.0" text-anchor="middle" fill="#666" font-family="monospace" font-size="9">L5:F12586 —  mentions of reports</text>
<circle cx="650.665" cy="1257.0" r="9" fill="#ccc"/>
<text x="650.665" y="1261.0" text-anchor="middle" fill="#666" font-family="monospace" font-size="9" font-weight="bold">4</text>
<rect x="244.29000000000002" y="802.0" width="271.41999999999996" height="72" fill="#e8e8e8" stroke="#999" stroke-width="2" rx="8"/>
<text x="380.0" y="820.0" text-anchor="middle" fill="#333" font-family="Arial,sans-serif" font-size="12" font-weight="bold">L7-8 Journalism</text>
<text x="380.0" y="834.0" text-anchor="middle" fill="#333" font-family="Arial,sans-serif" font-size="12" font-weight="bold">Abstraction (pos 21): news</text>
<text x="380.0" y="848.0" text-anchor="middle" fill="#333" font-family="Arial,sans-serif" font-size="12" font-weight="bold">reporting + reporter</text>
<text x="380.0" y="862.0" text-anchor="middle" fill="#333" font-family="Arial,sans-serif" font-size="12" font-weight="bold">detectors</text>
<text x="380.0" y="880.0" text-anchor="middle" fill="#666" font-family="monospace" font-size="9">L7:F13646 —  news reporting and journalism</text>
<text x="380.0" y="894.0" text-anchor="middle" fill="#666" font-family="monospace" font-size="9">L8:F8855 —  mentions of news reporters an</text>
<circle cx="497.71000000000004" cy="815.0" r="9" fill="#ccc"/>
<text x="497.71000000000004" y="819.0" text-anchor="middle" fill="#666" font-family="monospace" font-size="9" font-weight="bold">2</text>
<rect x="244.29000000000002" y="650.0" width="271.41999999999996" height="72" fill="#e8e8e8" stroke="#999" stroke-width="2" rx="8"/>
<text x="380.0" y="668.0" text-anchor="middle" fill="#333" font-family="Arial,sans-serif" font-size="12" font-weight="bold">L11-14 Journalism</text>
<text x="380.0" y="682.0" text-anchor="middle" fill="#333" font-family="Arial,sans-serif" font-size="12" font-weight="bold">Consolidation (pos 21):</text>
<text x="380.0" y="696.0" text-anchor="middle" fill="#333" font-family="Arial,sans-serif" font-size="12" font-weight="bold">news publications +</text>
<text x="380.0" y="710.0" text-anchor="middle" fill="#333" font-family="Arial,sans-serif" font-size="12" font-weight="bold">journalism/newspaper</text>
<text x="380.0" y="724.0" text-anchor="middle" fill="#333" font-family="Arial,sans-serif" font-size="12" font-weight="bold">concept</text>
<text x="380.0" y="742.0" text-anchor="middle" fill="#666" font-family="monospace" font-size="9">L11:F5996 —  references to news publicatio</text>
<text x="380.0" y="756.0" text-anchor="middle" fill="#666" font-family="monospace" font-size="9">L14:F4420 — words and phrases related to j</text>
<circle cx="497.71000000000004" cy="663.0" r="9" fill="#ccc"/>
<text x="497.71000000000004" y="667.0" text-anchor="middle" fill="#666" font-family="monospace" font-size="9" font-weight="bold">2</text>
<rect x="241.53500000000003" y="498.0" width="276.92999999999995" height="72" fill="#e8e8e8" stroke="#999" stroke-width="2" rx="8"/>
<text x="380.0" y="516.0" text-anchor="middle" fill="#333" font-family="Arial,sans-serif" font-size="12" font-weight="bold">L16 Journalism Features</text>
<text x="380.0" y="530.0" text-anchor="middle" fill="#333" font-family="Arial,sans-serif" font-size="12" font-weight="bold">(pos 21): reporting verbs</text>
<text x="380.0" y="544.0" text-anchor="middle" fill="#333" font-family="Arial,sans-serif" font-size="12" font-weight="bold">+ news organizations</text>
<text x="380.0" y="562.0" text-anchor="middle" fill="#666" font-family="monospace" font-size="9">L16:F15046 —  names, organizations, and rep</text>
<text x="380.0" y="576.0" text-anchor="middle" fill="#666" font-family="monospace" font-size="9">L16:F8642 —  text related to official repo</text>
<circle cx="500.4649999999999" cy="511.0" r="9" fill="#ccc"/>
<text x="500.4649999999999" y="515.0" text-anchor="middle" fill="#666" font-family="monospace" font-size="9" font-weight="bold">2</text>
<rect x="114.53500000000003" y="332.0" width="276.92999999999995" height="86" fill="#e8e8e8" stroke="#999" stroke-width="2" rx="8"/>
<text x="253.0" y="350.0" text-anchor="middle" fill="#333" font-family="Arial,sans-serif" font-size="12" font-weight="bold">L18 Late Gender Features</text>
<text x="253.0" y="364.0" text-anchor="middle" fill="#333" font-family="Arial,sans-serif" font-size="12" font-weight="bold">(pos 1): male</text>
<text x="253.0" y="378.0" text-anchor="middle" fill="#333" font-family="Arial,sans-serif" font-size="12" font-weight="bold">pronoun/possessive</text>
<text x="253.0" y="392.0" text-anchor="middle" fill="#333" font-family="Arial,sans-serif" font-size="12" font-weight="bold">consolidation</text>
<text x="253.0" y="410.0" text-anchor="middle" fill="#666" font-family="monospace" font-size="9">L18:F7400 —  words related to coding and s</text>
<text x="253.0" y="424.0" text-anchor="middle" fill="#666" font-family="monospace" font-size="9">L18:F10315 —  pronouns and possessive prono</text>
<text x="253.0" y="438.0" text-anchor="middle" fill="#666" font-family="monospace" font-size="9">L18:F7217 —  words or abbreviations referr</text>
<circle cx="373.465" cy="345.0" r="9" fill="#ccc"/>
<text x="373.465" y="349.0" text-anchor="middle" fill="#666" font-family="monospace" font-size="9" font-weight="bold">3</text>
<rect x="431.4649999999999" y="346.0" width="214.0" height="58" fill="#e8e8e8" stroke="#999" stroke-width="2" rx="8"/>
<text x="538.4649999999999" y="364.0" text-anchor="middle" fill="#333" font-family="Arial,sans-serif" font-size="12" font-weight="bold">L18 &#x27;He&#x27; Feature (pos 9):</text>
<text x="538.4649999999999" y="378.0" text-anchor="middle" fill="#333" font-family="Arial,sans-serif" font-size="12" font-weight="bold">detects &#x27;He&#x27; pronoun from</text>
<text x="538.4649999999999" y="392.0" text-anchor="middle" fill="#333" font-family="Arial,sans-serif" font-size="12" font-weight="bold">&#x27;him&#x27; token</text>
<text x="538.4649999999999" y="410.0" text-anchor="middle" fill="#666" font-family="monospace" font-size="9">L18:F14743 — He</text>
<circle cx="627.4649999999999" cy="359.0" r="9" fill="#ccc"/>
<text x="627.4649999999999" y="363.0" text-anchor="middle" fill="#666" font-family="monospace" font-size="9" font-weight="bold">1</text>
<rect x="88.58000000000004" y="194.0" width="271.41999999999996" height="58" fill="#e8e8e8" stroke="#999" stroke-width="2" rx="8"/>
<text x="224.29000000000002" y="212.0" text-anchor="middle" fill="#333" font-family="Arial,sans-serif" font-size="12" font-weight="bold">L19 Person Pronoun Feature</text>
<text x="224.29000000000002" y="226.0" text-anchor="middle" fill="#333" font-family="Arial,sans-serif" font-size="12" font-weight="bold">(pos 1): promotes</text>
<text x="224.29000000000002" y="240.0" text-anchor="middle" fill="#333" font-family="Arial,sans-serif" font-size="12" font-weight="bold">&#x27;she/herself&#x27;, suppresses</text>
<text x="224.29000000000002" y="254.0" text-anchor="middle" fill="#333" font-family="Arial,sans-serif" font-size="12" font-weight="bold">&#x27;his/himself&#x27;</text>
<text x="224.29000000000002" y="272.0" text-anchor="middle" fill="#666" font-family="monospace" font-size="9">L19:F8814 —  various pronouns and names re</text>
<circle cx="342.0" cy="207.0" r="9" fill="#ccc"/>
<text x="342.0" y="211.0" text-anchor="middle" fill="#666" font-family="monospace" font-size="9" font-weight="bold">1</text>
<rect x="400.00000000000006" y="194.0" width="271.41999999999996" height="58" fill="#e8e8e8" stroke="#999" stroke-width="2" rx="8"/>
<text x="535.71" y="212.0" text-anchor="middle" fill="#333" font-family="Arial,sans-serif" font-size="12" font-weight="bold">L19 Journalistic Sources</text>
<text x="535.71" y="226.0" text-anchor="middle" fill="#333" font-family="Arial,sans-serif" font-size="12" font-weight="bold">Feature (pos 21): promotes</text>
<text x="535.71" y="240.0" text-anchor="middle" fill="#333" font-family="Arial,sans-serif" font-size="12" font-weight="bold">&#x27;reporter/reporting&#x27;</text>
<text x="535.71" y="258.0" text-anchor="middle" fill="#666" font-family="monospace" font-size="9">L19:F2486 —  journalistic sources and news</text>
<circle cx="653.4200000000001" cy="207.0" r="9" fill="#ccc"/>
<text x="653.4200000000001" y="211.0" text-anchor="middle" fill="#666" font-family="monospace" font-size="9" font-weight="bold">1</text>
<rect x="269.52" y="70.0" width="220.95999999999998" height="44" fill="#e8e8e8" stroke="#999" stroke-width="2" rx="8"/>
<text x="380.0" y="88.0" text-anchor="middle" fill="#333" font-family="Arial,sans-serif" font-size="12" font-weight="bold">Probe Classification Score</text>
<circle cx="472.47999999999996" cy="83.0" r="9" fill="#ccc"/>
<text x="472.47999999999996" y="87.0" text-anchor="middle" fill="#666" font-family="monospace" font-size="9" font-weight="bold">0</text>
<line x1="40" y1="1880" x2="1457" y2="1880" stroke="#ddd" stroke-width="1"/>
<text x="40" y="1898" fill="#666" font-family="Arial,sans-serif" font-size="10" font-weight="bold" letter-spacing="1px">PROMPT</text>
<text x="40" y="1916" fill="#333" font-family="monospace" font-size="11">"&lt;bos&gt;His desire to see the world has taken him to countries around the world and given him the opportunity to report for"</text>
<text x="40" y="1940" fill="#666" font-family="Arial,sans-serif" font-size="10" font-weight="bold" letter-spacing="1px">TOP OUTPUTS</text>
<rect x="40" y="1945" width="100" height="20" fill="#e8e8e8" stroke="none" rx="6"/>
<text x="45" y="1959" fill="#333" font-family="Arial,sans-serif" font-size="11" font-weight="bold">(empty) <tspan fill="#555" font-size="10">100%</tspan></text>
</svg>