<svg width="3389" height="1359" xmlns="http://www.w3.org/2000/svg">
<rect width="3389" height="1359" fill="#f5f5f5"/>
<rect x="15" y="15" width="3359" height="1329" fill="white" stroke="none" rx="12"/>
<text x="40" y="48" fill="#666" font-family="Arial,sans-serif" font-size="14" font-weight="bold" letter-spacing="1px">ATTRIBUTION CIRCUIT</text>
<text x="25" y="96.0" fill="#999" font-family="monospace" font-size="10" font-weight="bold" text-anchor="start">L36</text>
<text x="25" y="227.0" fill="#999" font-family="monospace" font-size="10" font-weight="bold" text-anchor="start">L6</text>
<text x="25" y="365.0" fill="#999" font-family="monospace" font-size="10" font-weight="bold" text-anchor="start">L5</text>
<text x="25" y="503.0" fill="#999" font-family="monospace" font-size="10" font-weight="bold" text-anchor="start">L4</text>
<text x="25" y="641.0" fill="#999" font-family="monospace" font-size="10" font-weight="bold" text-anchor="start">L3</text>
<text x="25" y="786.0" fill="#999" font-family="monospace" font-size="10" font-weight="bold" text-anchor="start">L2</text>
<text x="25" y="945.0" fill="#999" font-family="monospace" font-size="10" font-weight="bold" text-anchor="start">L1</text>
<text x="25" y="1118.0" fill="#999" font-family="monospace" font-size="10" font-weight="bold" text-anchor="start">L0</text>
<defs><marker id="arrow" markerWidth="8" markerHeight="6" refX="8" refY="3" orient="auto"><polygon points="0,0 8,3 0,6" fill="#8B4513" fill-opacity="0.7"/></marker></defs>
<path d="M 180.04,1092.0 C 187.09074999999999,810.0 219.99425000000002,810.0 227.04500000000002,528.0" fill="none" stroke="#8B4513" stroke-width="3" stroke-opacity="0.6" marker-end="url(#arrow)"/>
<path d="M 2844.66,1085.0 C 2452.01775,806.5 619.68725,806.5 227.04500000000002,528.0" fill="none" stroke="#8B4513" stroke-width="3" stroke-opacity="0.6" marker-end="url(#arrow)"/>
<path d="M 227.04500000000002,470.0 C 249.98825000000002,292.0 357.05675,292.0 380.0,114.0" fill="none" stroke="#8B4513" stroke-width="3" stroke-opacity="0.6" marker-end="url(#arrow)"/>
<path d="M 420.12,1092.0 C 389.04525,951.5 244.02974999999998,951.5 212.95499999999998,811.0" fill="none" stroke="#8B4513" stroke-width="3" stroke-opacity="0.6" marker-end="url(#arrow)"/>
<path d="M 660.1999999999999,1092.0 C 593.1132499999999,951.5 280.04175,951.5 212.95499999999998,811.0" fill="none" stroke="#8B4513" stroke-width="3" stroke-opacity="0.6" marker-end="url(#arrow)"/>
<path d="M 518.865,912.0 C 472.9785,861.5 258.8415,861.5 212.95499999999998,811.0" fill="none" stroke="#8B4513" stroke-width="3" stroke-opacity="0.6" marker-end="url(#arrow)"/>
<path d="M 786.3499999999999,912.0 C 700.34075,861.5 298.96425,861.5 212.95499999999998,811.0" fill="none" stroke="#8B4513" stroke-width="3" stroke-opacity="0.6" marker-end="url(#arrow)"/>
<path d="M 212.95499999999998,753.0 C 238.01174999999998,433.5 354.94325,433.5 380.0,114.0" fill="none" stroke="#8B4513" stroke-width="3" stroke-opacity="0.6" marker-end="url(#arrow)"/>
<path d="M 660.1999999999999,1092.0 C 679.1225,1031.0 767.4274999999999,1031.0 786.3499999999999,970.0" fill="none" stroke="#8B4513" stroke-width="3" stroke-opacity="0.6" marker-end="url(#arrow)"/>
<path d="M 2555.2799999999997,1064.0 C 2289.9404999999997,1017.0 1051.6895,1017.0 786.3499999999999,970.0" fill="none" stroke="#8B4513" stroke-width="3" stroke-opacity="0.6" marker-end="url(#arrow)"/>
<path d="M 420.12,1092.0 C 434.93175,1031.0 504.05325,1031.0 518.865,970.0" fill="none" stroke="#8B4513" stroke-width="3" stroke-opacity="0.6" marker-end="url(#arrow)"/>
<path d="M 2246.615,1085.0 C 1987.4524999999999,1027.5 778.0274999999999,1027.5 518.865,970.0" fill="none" stroke="#8B4513" stroke-width="3" stroke-opacity="0.6" marker-end="url(#arrow)"/>
<path d="M 518.865,912.0 C 498.03525,789.0 400.82975,789.0 380.0,666.0" fill="none" stroke="#8B4513" stroke-width="3" stroke-opacity="0.6" marker-end="url(#arrow)"/>
<path d="M 212.95499999999998,753.0 C 238.01174999999998,709.5 354.94325,709.5 380.0,666.0" fill="none" stroke="#8B4513" stroke-width="3" stroke-opacity="0.6" marker-end="url(#arrow)"/>
<path d="M 380.0,608.0 C 380.0,430.0 380.0,430.0 380.0,252.0" fill="none" stroke="#8B4513" stroke-width="3" stroke-opacity="0.6" marker-end="url(#arrow)"/>
<path d="M 420.12,1092.0 C 414.102,879.0 386.01800000000003,879.0 380.0,666.0" fill="none" stroke="#8B4513" stroke-width="3" stroke-opacity="0.6" marker-end="url(#arrow)"/>
<path d="M 660.1999999999999,1092.0 C 618.17,672.0 422.03,672.0 380.0,252.0" fill="none" stroke="#8B4513" stroke-width="3" stroke-opacity="0.6" marker-end="url(#arrow)"/>
<path d="M 212.95499999999998,753.0 C 238.01174999999998,502.5 354.94325,502.5 380.0,252.0" fill="none" stroke="#8B4513" stroke-width="3" stroke-opacity="0.6" marker-end="url(#arrow)"/>
<path d="M 227.04500000000002,470.0 C 249.98825000000002,361.0 357.05675,361.0 380.0,252.0" fill="none" stroke="#8B4513" stroke-width="3" stroke-opacity="0.6" marker-end="url(#arrow)"/>
<path d="M 535.71,470.0 C 512.3535,361.0 403.3565,361.0 380.0,252.0" fill="none" stroke="#8B4513" stroke-width="3" stroke-opacity="0.6" marker-end="url(#arrow)"/>
<path d="M 380.0,332.0 C 380.0,292.0 380.0,292.0 380.0,252.0" fill="none" stroke="#8B4513" stroke-width="3" stroke-opacity="0.6" marker-end="url(#arrow)"/>
<path d="M 900.24,1136.0 C 1055.8965,1100.0 1782.2935,1100.0 1937.95,1064.0" fill="none" stroke="#8B4513" stroke-width="3" stroke-opacity="0.6" marker-end="url(#arrow)"/>
<path d="M 1937.95,1064.0 C 1806.15925,1020.5 1191.13575,1020.5 1059.3449999999998,977.0" fill="none" stroke="#8B4513" stroke-width="3" stroke-opacity="0.6" marker-end="url(#arrow)"/>
<path d="M 1059.3449999999998,905.0 C 978.2729999999998,858.0 599.937,858.0 518.865,811.0" fill="none" stroke="#8B4513" stroke-width="3" stroke-opacity="0.6" marker-end="url(#arrow)"/>
<path d="M 518.865,753.0 C 498.03525,433.5 400.82975,433.5 380.0,114.0" fill="none" stroke="#8B4513" stroke-width="3" stroke-opacity="0.6" marker-end="url(#arrow)"/>
<path d="M 1390.8,1136.0 C 1652.286,1103.5 2872.554,1103.5 3134.04,1071.0" fill="none" stroke="#8B4513" stroke-width="3" stroke-opacity="0.6" marker-end="url(#arrow)"/>
<path d="M 3134.04,1071.0 C 2696.2905,1020.5 653.4594999999999,1020.5 215.70999999999998,970.0" fill="none" stroke="#8B4513" stroke-width="3" stroke-opacity="0.6" marker-end="url(#arrow)"/>
<path d="M 215.70999999999998,912.0 C 240.3535,513.0 355.3565,513.0 380.0,114.0" fill="none" stroke="#8B4513" stroke-width="3" stroke-opacity="0.6" marker-end="url(#arrow)"/>
<path d="M 180.04,1136.0 C 579.733,1110.5 2444.9669999999996,1110.5 2844.66,1085.0" fill="none" stroke="#8B4513" stroke-width="3" stroke-opacity="0.6" marker-end="url(#arrow)"/>
<path d="M 2844.66,1085.0 C 2622.74925,1034.5 1587.1657499999997,1034.5 1365.2549999999997,984.0" fill="none" stroke="#8B4513" stroke-width="3" stroke-opacity="0.6" marker-end="url(#arrow)"/>
<path d="M 1365.2549999999997,898.0 C 1284.1829999999998,858.0 905.8469999999999,858.0 824.7749999999999,818.0" fill="none" stroke="#8B4513" stroke-width="3" stroke-opacity="0.6" marker-end="url(#arrow)"/>
<path d="M 824.7749999999999,746.0 C 735.1154999999999,637.0 316.7045,637.0 227.04500000000002,528.0" fill="none" stroke="#8B4513" stroke-width="3" stroke-opacity="0.6" marker-end="url(#arrow)"/>
<path d="M 180.04,1092.0 C 233.3905,810.0 482.3595,810.0 535.71,528.0" fill="none" stroke="#8B4513" stroke-width="3" stroke-opacity="0.6" marker-end="url(#arrow)"/>
<path d="M 535.71,470.0 C 512.3535,292.0 403.3565,292.0 380.0,114.0" fill="none" stroke="#8B4513" stroke-width="3" stroke-opacity="0.6" marker-end="url(#arrow)"/>
<path d="M 900.24,1136.0 C 936.246,1114.0 1104.274,1114.0 1140.28,1092.0" fill="none" stroke="#8B4513" stroke-width="3" stroke-opacity="0.6" marker-end="url(#arrow)"/>
<path d="M 1140.28,1092.0 C 1047.06775,951.5 612.07725,951.5 518.865,811.0" fill="none" stroke="#8B4513" stroke-width="3" stroke-opacity="0.6" marker-end="url(#arrow)"/>
<path d="M 1651.76,1092.0 C 1460.996,603.0 570.764,603.0 380.0,114.0" fill="none" stroke="#8B4513" stroke-width="3" stroke-opacity="0.6" marker-end="url(#arrow)"/>
<rect x="269.52" y="70.0" width="220.95999999999998" height="44" fill="#e8e8e8" stroke="#999" stroke-width="2" rx="8"/>
<text x="380.0" y="88.0" text-anchor="middle" fill="#333" font-family="Arial,sans-serif" font-size="12" font-weight="bold">Probe Classification Score</text>
<circle cx="472.47999999999996" cy="83.0" r="9" fill="#ccc"/>
<text x="472.47999999999996" y="87.0" text-anchor="middle" fill="#666" font-family="monospace" font-size="9" font-weight="bold">0</text>
<rect x="91.33500000000004" y="470.0" width="271.41999999999996" height="58" fill="#e8e8e8" stroke="#999" stroke-width="2" rx="8"/>
<text x="227.04500000000002" y="488.0" text-anchor="middle" fill="#333" font-family="Arial,sans-serif" font-size="12" font-weight="bold">Land Ownership / Slavery</text>
<text x="227.04500000000002" y="502.0" text-anchor="middle" fill="#333" font-family="Arial,sans-serif" font-size="12" font-weight="bold">Terms (Castle)</text>
<text x="227.04500000000002" y="520.0" text-anchor="middle" fill="#666" font-family="monospace" font-size="9">L4:F13244 —  terms related to land ownersh</text>
<circle cx="344.755" cy="483.0" r="9" fill="#ccc"/>
<text x="344.755" y="487.0" text-anchor="middle" fill="#666" font-family="monospace" font-size="9" font-weight="bold">1</text>
<rect x="80.0" y="753.0" width="265.90999999999997" height="58" fill="#e8e8e8" stroke="#999" stroke-width="2" rx="8"/>
<text x="212.95499999999998" y="771.0" text-anchor="middle" fill="#333" font-family="Arial,sans-serif" font-size="12" font-weight="bold">House Detection</text>
<text x="212.95499999999998" y="785.0" text-anchor="middle" fill="#333" font-family="Arial,sans-serif" font-size="12" font-weight="bold">(Suppresses Output)</text>
<text x="212.95499999999998" y="803.0" text-anchor="middle" fill="#666" font-family="monospace" font-size="9">L2:F1430 — mentions of the U.S. White Hou</text>
<circle cx="327.90999999999997" cy="766.0" r="9" fill="#ccc"/>
<text x="327.90999999999997" y="770.0" text-anchor="middle" fill="#666" font-family="monospace" font-size="9" font-weight="bold">1</text>
<rect x="249.8" y="194.0" width="260.4" height="58" fill="#e8e8e8" stroke="#999" stroke-width="2" rx="8"/>
<text x="380.0" y="212.0" text-anchor="middle" fill="#333" font-family="Arial,sans-serif" font-size="12" font-weight="bold">Scottish</text>
<text x="380.0" y="226.0" text-anchor="middle" fill="#333" font-family="Arial,sans-serif" font-size="12" font-weight="bold">Political/Geographic Terms</text>
<text x="380.0" y="244.0" text-anchor="middle" fill="#666" font-family="monospace" font-size="9">L6:F486 —  Scottish locations and politi</text>
<circle cx="492.2" cy="207.0" r="9" fill="#ccc"/>
<text x="492.2" y="211.0" text-anchor="middle" fill="#666" font-family="monospace" font-size="9" font-weight="bold">1</text>
<rect x="385.91" y="753.0" width="265.90999999999997" height="58" fill="#e8e8e8" stroke="#999" stroke-width="2" rx="8"/>
<text x="518.865" y="771.0" text-anchor="middle" fill="#333" font-family="Arial,sans-serif" font-size="12" font-weight="bold">Temporal Period Detection</text>
<text x="518.865" y="785.0" text-anchor="middle" fill="#333" font-family="Arial,sans-serif" font-size="12" font-weight="bold">(&#x27;early&#x27;)</text>
<text x="518.865" y="803.0" text-anchor="middle" fill="#666" font-family="monospace" font-size="9">L2:F4429 —  mentions of the beginning of </text>
<circle cx="633.8199999999999" cy="766.0" r="9" fill="#ccc"/>
<text x="633.8199999999999" y="770.0" text-anchor="middle" fill="#666" font-family="monospace" font-size="9" font-weight="bold">1</text>
<rect x="80.0" y="912.0" width="271.41999999999996" height="58" fill="#e8e8e8" stroke="#999" stroke-width="2" rx="8"/>
<text x="215.70999999999998" y="930.0" text-anchor="middle" fill="#333" font-family="Arial,sans-serif" font-size="12" font-weight="bold">Restoration Language</text>
<text x="215.70999999999998" y="944.0" text-anchor="middle" fill="#333" font-family="Arial,sans-serif" font-size="12" font-weight="bold">(Suppresses Output)</text>
<text x="215.70999999999998" y="962.0" text-anchor="middle" fill="#666" font-family="monospace" font-size="9">L1:F11220 — instances of the word &quot;restore</text>
<circle cx="333.41999999999996" cy="925.0" r="9" fill="#ccc"/>
<text x="333.41999999999996" y="929.0" text-anchor="middle" fill="#666" font-family="monospace" font-size="9" font-weight="bold">1</text>
<rect x="402.75500000000005" y="470.0" width="265.90999999999997" height="58" fill="#e8e8e8" stroke="#999" stroke-width="2" rx="8"/>
<text x="535.71" y="488.0" text-anchor="middle" fill="#333" font-family="Arial,sans-serif" font-size="12" font-weight="bold">Ancient</text>
<text x="535.71" y="502.0" text-anchor="middle" fill="#333" font-family="Arial,sans-serif" font-size="12" font-weight="bold">Settlements/Fortifications</text>
<text x="535.71" y="520.0" text-anchor="middle" fill="#666" font-family="monospace" font-size="9">L4:F5749 —  terms that describe ancient s</text>
<circle cx="650.665" cy="483.0" r="9" fill="#ccc"/>
<text x="650.665" y="487.0" text-anchor="middle" fill="#666" font-family="monospace" font-size="9" font-weight="bold">1</text>
<rect x="391.42" y="912.0" width="254.89" height="58" fill="#e8e8e8" stroke="#999" stroke-width="2" rx="8"/>
<text x="518.865" y="930.0" text-anchor="middle" fill="#333" font-family="Arial,sans-serif" font-size="12" font-weight="bold">Word Detection: &#x27;house&#x27;</text>
<text x="518.865" y="948.0" text-anchor="middle" fill="#666" font-family="monospace" font-size="9">L1:F12702 — the word &quot;house&quot; or &quot;homes&quot;</text>
<circle cx="628.31" cy="925.0" r="9" fill="#ccc"/>
<text x="628.31" y="929.0" text-anchor="middle" fill="#666" font-family="monospace" font-size="9" font-weight="bold">1</text>
<rect x="686.31" y="912.0" width="200.07999999999998" height="58" fill="#e8e8e8" stroke="#999" stroke-width="2" rx="8"/>
<text x="786.3499999999999" y="930.0" text-anchor="middle" fill="#333" font-family="Arial,sans-serif" font-size="12" font-weight="bold">Word Detection: &#x27;tower&#x27;</text>
<text x="786.3499999999999" y="948.0" text-anchor="middle" fill="#666" font-family="monospace" font-size="9">L1:F1027 — the word &quot;tower&quot;</text>
<circle cx="868.3899999999999" cy="925.0" r="9" fill="#ccc"/>
<text x="868.3899999999999" y="929.0" text-anchor="middle" fill="#666" font-family="monospace" font-size="9" font-weight="bold">1</text>
<rect x="80.0" y="1092.0" width="200.07999999999998" height="44" fill="#e8e8e8" stroke="#999" stroke-width="2" rx="8"/>
<text x="180.04" y="1110.0" text-anchor="middle" fill="#333" font-family="Arial,sans-serif" font-size="12" font-weight="bold">Token: &#x27;castle&#x27; (pos 2)</text>
<circle cx="262.08" cy="1105.0" r="9" fill="#ccc"/>
<text x="262.08" y="1109.0" text-anchor="middle" fill="#666" font-family="monospace" font-size="9" font-weight="bold">0</text>
<rect x="320.08000000000004" y="1092.0" width="200.07999999999998" height="44" fill="#e8e8e8" stroke="#999" stroke-width="2" rx="8"/>
<text x="420.12" y="1110.0" text-anchor="middle" fill="#333" font-family="Arial,sans-serif" font-size="12" font-weight="bold">Token: &#x27;house&#x27; (pos 14)</text>
<circle cx="502.1600000000001" cy="1105.0" r="9" fill="#ccc"/>
<text x="502.1600000000001" y="1109.0" text-anchor="middle" fill="#666" font-family="monospace" font-size="9" font-weight="bold">0</text>
<rect x="560.16" y="1092.0" width="200.07999999999998" height="44" fill="#e8e8e8" stroke="#999" stroke-width="2" rx="8"/>
<text x="660.1999999999999" y="1110.0" text-anchor="middle" fill="#333" font-family="Arial,sans-serif" font-size="12" font-weight="bold">Token: &#x27;tower&#x27; (pos 13)</text>
<circle cx="742.24" cy="1105.0" r="9" fill="#ccc"/>
<text x="742.24" y="1109.0" text-anchor="middle" fill="#666" font-family="monospace" font-size="9" font-weight="bold">0</text>
<rect x="800.24" y="1092.0" width="200" height="44" fill="#e8e8e8" stroke="#999" stroke-width="2" rx="8"/>
<text x="900.24" y="1110.0" text-anchor="middle" fill="#333" font-family="Arial,sans-serif" font-size="12" font-weight="bold">Token: &#x27;early&#x27; (pos 6)</text>
<circle cx="982.24" cy="1105.0" r="9" fill="#ccc"/>
<text x="982.24" y="1109.0" text-anchor="middle" fill="#666" font-family="monospace" font-size="9" font-weight="bold">0</text>
<rect x="1040.24" y="1092.0" width="200.07999999999998" height="44" fill="#e8e8e8" stroke="#999" stroke-width="2" rx="8"/>
<text x="1140.28" y="1110.0" text-anchor="middle" fill="#333" font-family="Arial,sans-serif" font-size="12" font-weight="bold">Token: &#x27;early&#x27; (pos 39)</text>
<circle cx="1222.32" cy="1105.0" r="9" fill="#ccc"/>
<text x="1222.32" y="1109.0" text-anchor="middle" fill="#666" font-family="monospace" font-size="9" font-weight="bold">0</text>
<rect x="1280.32" y="1092.0" width="220.95999999999998" height="44" fill="#e8e8e8" stroke="#999" stroke-width="2" rx="8"/>
<text x="1390.8" y="1110.0" text-anchor="middle" fill="#333" font-family="Arial,sans-serif" font-size="12" font-weight="bold">Token: &#x27;restored&#x27; (pos 16)</text>
<circle cx="1483.28" cy="1105.0" r="9" fill="#ccc"/>
<text x="1483.28" y="1109.0" text-anchor="middle" fill="#666" font-family="monospace" font-size="9" font-weight="bold">0</text>
<rect x="1541.28" y="1092.0" width="220.95999999999998" height="44" fill="#e8e8e8" stroke="#999" stroke-width="2" rx="8"/>
<text x="1651.76" y="1110.0" text-anchor="middle" fill="#333" font-family="Arial,sans-serif" font-size="12" font-weight="bold">Token: &#x27;together&#x27; (pos 26)</text>
<circle cx="1744.24" cy="1105.0" r="9" fill="#ccc"/>
<text x="1744.24" y="1109.0" text-anchor="middle" fill="#666" font-family="monospace" font-size="9" font-weight="bold">0</text>
<rect x="1802.24" y="1064.0" width="271.41999999999996" height="100" fill="#e8e8e8" stroke="#999" stroke-width="2" rx="8"/>
<text x="1937.95" y="1082.0" text-anchor="middle" fill="#333" font-family="Arial,sans-serif" font-size="12" font-weight="bold">Layer-0: &#x27;early&#x27; Detection</text>
<text x="1937.95" y="1096.0" text-anchor="middle" fill="#333" font-family="Arial,sans-serif" font-size="12" font-weight="bold">Features</text>
<text x="1937.95" y="1114.0" text-anchor="middle" fill="#666" font-family="monospace" font-size="9">L0:F5494 — the word &quot;early&quot; often related</text>
<text x="1937.95" y="1128.0" text-anchor="middle" fill="#666" font-family="monospace" font-size="9">L0:F15004 — the word &quot;score&quot; and related w</text>
<text x="1937.95" y="1142.0" text-anchor="middle" fill="#666" font-family="monospace" font-size="9">L0:F10711 —  the word &quot;probability&quot;</text>
<text x="1937.95" y="1156.0" text-anchor="middle" fill="#666" font-family="monospace" font-size="9">L0:F5391 —  references to the beginning o</text>
<circle cx="2055.66" cy="1077.0" r="9" fill="#ccc"/>
<text x="2055.66" y="1081.0" text-anchor="middle" fill="#666" font-family="monospace" font-size="9" font-weight="bold">4</text>
<rect x="926.3899999999999" y="905.0" width="265.90999999999997" height="72" fill="#e8e8e8" stroke="#999" stroke-width="2" rx="8"/>
<text x="1059.3449999999998" y="923.0" text-anchor="middle" fill="#333" font-family="Arial,sans-serif" font-size="12" font-weight="bold">Layer-1:</text>
<text x="1059.3449999999998" y="937.0" text-anchor="middle" fill="#333" font-family="Arial,sans-serif" font-size="12" font-weight="bold">Temporal/Beginning</text>
<text x="1059.3449999999998" y="951.0" text-anchor="middle" fill="#333" font-family="Arial,sans-serif" font-size="12" font-weight="bold">Features</text>
<text x="1059.3449999999998" y="969.0" text-anchor="middle" fill="#666" font-family="monospace" font-size="9">L1:F7313 — mentions of bike trails or pat</text>
<text x="1059.3449999999998" y="983.0" text-anchor="middle" fill="#666" font-family="monospace" font-size="9">L1:F2520 — the word &quot;aim&quot;</text>
<circle cx="1174.2999999999997" cy="918.0" r="9" fill="#ccc"/>
<text x="1174.2999999999997" y="922.0" text-anchor="middle" fill="#666" font-family="monospace" font-size="9" font-weight="bold">2</text>
<rect x="247.04500000000002" y="332.0" width="265.90999999999997" height="58" fill="#e8e8e8" stroke="#999" stroke-width="2" rx="8"/>
<text x="380.0" y="350.0" text-anchor="middle" fill="#333" font-family="Arial,sans-serif" font-size="12" font-weight="bold">Irish/Scottish Cultural</text>
<text x="380.0" y="364.0" text-anchor="middle" fill="#333" font-family="Arial,sans-serif" font-size="12" font-weight="bold">References</text>
<text x="380.0" y="382.0" text-anchor="middle" fill="#666" font-family="monospace" font-size="9">L5:F3316 — Irish or Scottish geographical</text>
<circle cx="494.9549999999999" cy="345.0" r="9" fill="#ccc"/>
<text x="494.9549999999999" y="349.0" text-anchor="middle" fill="#666" font-family="monospace" font-size="9" font-weight="bold">1</text>
<rect x="2113.66" y="1085.0" width="265.90999999999997" height="58" fill="#e8e8e8" stroke="#999" stroke-width="2" rx="8"/>
<text x="2246.615" y="1103.0" text-anchor="middle" fill="#333" font-family="Arial,sans-serif" font-size="12" font-weight="bold">Layer-0: &#x27;house&#x27; Detection</text>
<text x="2246.615" y="1117.0" text-anchor="middle" fill="#333" font-family="Arial,sans-serif" font-size="12" font-weight="bold">Features</text>
<text x="2246.615" y="1135.0" text-anchor="middle" fill="#666" font-family="monospace" font-size="9">L0:F9604 —  the word &quot;house&quot; along with w</text>
<circle cx="2361.5699999999997" cy="1098.0" r="9" fill="#ccc"/>
<text x="2361.5699999999997" y="1102.0" text-anchor="middle" fill="#666" font-family="monospace" font-size="9" font-weight="bold">1</text>
<rect x="247.04500000000002" y="608.0" width="265.90999999999997" height="58" fill="#e8e8e8" stroke="#999" stroke-width="2" rx="8"/>
<text x="380.0" y="626.0" text-anchor="middle" fill="#333" font-family="Arial,sans-serif" font-size="12" font-weight="bold">Layer-3: &#x27;house&#x27; Detection</text>
<text x="380.0" y="644.0" text-anchor="middle" fill="#666" font-family="monospace" font-size="9">L3:F14368 — the word &quot;house&quot; (or houses).</text>
<circle cx="494.9549999999999" cy="621.0" r="9" fill="#ccc"/>
<text x="494.9549999999999" y="625.0" text-anchor="middle" fill="#666" font-family="monospace" font-size="9" font-weight="bold">1</text>
<rect x="2419.5699999999997" y="1064.0" width="271.41999999999996" height="100" fill="#e8e8e8" stroke="#999" stroke-width="2" rx="8"/>
<text x="2555.2799999999997" y="1082.0" text-anchor="middle" fill="#333" font-family="Arial,sans-serif" font-size="12" font-weight="bold">Layer-0: &#x27;tower&#x27; Detection</text>
<text x="2555.2799999999997" y="1096.0" text-anchor="middle" fill="#333" font-family="Arial,sans-serif" font-size="12" font-weight="bold">Features</text>
<text x="2555.2799999999997" y="1114.0" text-anchor="middle" fill="#666" font-family="monospace" font-size="9">L0:F10633 —  the word &quot;hill&quot; and words ass</text>
<text x="2555.2799999999997" y="1128.0" text-anchor="middle" fill="#666" font-family="monospace" font-size="9">L0:F4079 —  the words &quot;exposure,&quot; &quot;tower&quot;</text>
<text x="2555.2799999999997" y="1142.0" text-anchor="middle" fill="#666" font-family="monospace" font-size="9">L0:F13200 — mentions of archeology or the </text>
<text x="2555.2799999999997" y="1156.0" text-anchor="middle" fill="#666" font-family="monospace" font-size="9">L0:F14398 —  references to distance using </text>
<circle cx="2672.99" cy="1077.0" r="9" fill="#ccc"/>
<text x="2672.99" y="1081.0" text-anchor="middle" fill="#666" font-family="monospace" font-size="9" font-weight="bold">4</text>
<rect x="2730.99" y="1085.0" width="227.33999999999997" height="58" fill="#e8e8e8" stroke="#999" stroke-width="2" rx="8"/>
<text x="2844.66" y="1103.0" text-anchor="middle" fill="#333" font-family="Arial,sans-serif" font-size="12" font-weight="bold">Layer-0: &#x27;castle&#x27; Context</text>
<text x="2844.66" y="1117.0" text-anchor="middle" fill="#333" font-family="Arial,sans-serif" font-size="12" font-weight="bold">Features</text>
<text x="2844.66" y="1135.0" text-anchor="middle" fill="#666" font-family="monospace" font-size="9">L0:F14108 — the word &quot;appropriate&quot;</text>
<circle cx="2940.33" cy="1098.0" r="9" fill="#ccc"/>
<text x="2940.33" y="1102.0" text-anchor="middle" fill="#666" font-family="monospace" font-size="9" font-weight="bold">1</text>
<rect x="691.8199999999999" y="746.0" width="265.90999999999997" height="72" fill="#e8e8e8" stroke="#999" stroke-width="2" rx="8"/>
<text x="824.7749999999999" y="764.0" text-anchor="middle" fill="#333" font-family="Arial,sans-serif" font-size="12" font-weight="bold">Layer-2: Land</text>
<text x="824.7749999999999" y="778.0" text-anchor="middle" fill="#333" font-family="Arial,sans-serif" font-size="12" font-weight="bold">Ownership/Slavery Features</text>
<text x="824.7749999999999" y="796.0" text-anchor="middle" fill="#666" font-family="monospace" font-size="9">L2:F8185 — places for shopping or militar</text>
<text x="824.7749999999999" y="810.0" text-anchor="middle" fill="#666" font-family="monospace" font-size="9">L2:F9529 —  words related to slavery and </text>
<circle cx="939.7299999999999" cy="759.0" r="9" fill="#ccc"/>
<text x="939.7299999999999" y="763.0" text-anchor="middle" fill="#666" font-family="monospace" font-size="9" font-weight="bold">2</text>
<rect x="1232.2999999999997" y="898.0" width="265.90999999999997" height="86" fill="#e8e8e8" stroke="#999" stroke-width="2" rx="8"/>
<text x="1365.2549999999997" y="916.0" text-anchor="middle" fill="#333" font-family="Arial,sans-serif" font-size="12" font-weight="bold">Layer-1:</text>
<text x="1365.2549999999997" y="930.0" text-anchor="middle" fill="#333" font-family="Arial,sans-serif" font-size="12" font-weight="bold">Tourism/Historical</text>
<text x="1365.2549999999997" y="944.0" text-anchor="middle" fill="#333" font-family="Arial,sans-serif" font-size="12" font-weight="bold">Features</text>
<text x="1365.2549999999997" y="962.0" text-anchor="middle" fill="#666" font-family="monospace" font-size="9">L1:F8633 —  words or phrases related to t</text>
<text x="1365.2549999999997" y="976.0" text-anchor="middle" fill="#666" font-family="monospace" font-size="9">L1:F2004 —  mentions of business offices </text>
<text x="1365.2549999999997" y="990.0" text-anchor="middle" fill="#666" font-family="monospace" font-size="9">L1:F5899 —  the word &quot;Academy&quot;, especiall</text>
<circle cx="1480.2099999999996" cy="911.0" r="9" fill="#ccc"/>
<text x="1480.2099999999996" y="915.0" text-anchor="middle" fill="#666" font-family="monospace" font-size="9" font-weight="bold">3</text>
<rect x="2998.33" y="1071.0" width="271.41999999999996" height="86" fill="#e8e8e8" stroke="#999" stroke-width="2" rx="8"/>
<text x="3134.04" y="1089.0" text-anchor="middle" fill="#333" font-family="Arial,sans-serif" font-size="12" font-weight="bold">Layer-0: &#x27;restore&#x27;</text>
<text x="3134.04" y="1103.0" text-anchor="middle" fill="#333" font-family="Arial,sans-serif" font-size="12" font-weight="bold">Detection Features</text>
<text x="3134.04" y="1121.0" text-anchor="middle" fill="#666" font-family="monospace" font-size="9">L0:F11516 — the word &quot;program&quot; and, to a l</text>
<text x="3134.04" y="1135.0" text-anchor="middle" fill="#666" font-family="monospace" font-size="9">L0:F7732 —  the word &quot;materials&quot; and near</text>
<text x="3134.04" y="1149.0" text-anchor="middle" fill="#666" font-family="monospace" font-size="9">L0:F5224 — the word &quot;restore&quot; or other mi</text>
<circle cx="3251.75" cy="1084.0" r="9" fill="#ccc"/>
<text x="3251.75" y="1088.0" text-anchor="middle" fill="#666" font-family="monospace" font-size="9" font-weight="bold">3</text>
<line x1="40" y1="1244" x2="3349" y2="1244" stroke="#ddd" stroke-width="1"/>
<text x="40" y="1262" fill="#666" font-family="Arial,sans-serif" font-size="10" font-weight="bold" letter-spacing="1px">PROMPT</text>
<text x="40" y="1280" fill="#333" font-family="monospace" font-size="11">"&lt;bos&gt;The castle itself comprises an early 17th-century tower house, restored with Irish oak from the park which is held "</text>
<text x="40" y="1304" fill="#666" font-family="Arial,sans-serif" font-size="10" font-weight="bold" letter-spacing="1px">TOP OUTPUTS</text>
<rect x="40" y="1309" width="100" height="20" fill="#e8e8e8" stroke="none" rx="6"/>
<text x="45" y="1323" fill="#333" font-family="Arial,sans-serif" font-size="11" font-weight="bold">(empty) <tspan fill="#555" font-size="10">100%</tspan></text>
</svg>