<svg width="3346" height="669" xmlns="http://www.w3.org/2000/svg">
<rect width="3346" height="669" fill="#f5f5f5"/>
<rect x="15" y="15" width="3316" height="639" fill="white" stroke="none" rx="12"/>
<text x="40" y="48" fill="#666" font-family="Arial,sans-serif" font-size="14" font-weight="bold" letter-spacing="1px">ATTRIBUTION CIRCUIT</text>
<text x="25" y="96.0" fill="#999" font-family="monospace" font-size="10" font-weight="bold" text-anchor="start">L36</text>
<text x="25" y="241.0" fill="#999" font-family="monospace" font-size="10" font-weight="bold" text-anchor="start">L1</text>
<text x="25" y="421.0" fill="#999" font-family="monospace" font-size="10" font-weight="bold" text-anchor="start">L0</text>
<defs><marker id="arrow" markerWidth="8" markerHeight="6" refX="8" refY="3" orient="auto"><polygon points="0,0 8,3 0,6" fill="#8B4513" fill-opacity="0.7"/></marker></defs>
<path d="M 180.0,439.0 C 616.9672499999999,399.5 2656.1477499999996,399.5 3093.115,360.0" fill="none" stroke="#8B4513" stroke-width="3" stroke-opacity="0.6" marker-end="url(#arrow)"/>
<path d="M 420.0,439.0 C 820.9672499999999,399.5 2692.1477499999996,399.5 3093.115,360.0" fill="none" stroke="#8B4513" stroke-width="3" stroke-opacity="0.6" marker-end="url(#arrow)"/>
<path d="M 900.0,439.0 C 1228.96725,399.5 2764.1477499999996,399.5 3093.115,360.0" fill="none" stroke="#8B4513" stroke-width="3" stroke-opacity="0.6" marker-end="url(#arrow)"/>
<path d="M 660.0,395.0 C 618.0,337.5 422.0,337.5 380.0,280.0" fill="none" stroke="#8B4513" stroke-width="3" stroke-opacity="0.6" marker-end="url(#arrow)"/>
<path d="M 1620.0,439.0 C 1840.96725,399.5 2872.1477499999996,399.5 3093.115,360.0" fill="none" stroke="#8B4513" stroke-width="3" stroke-opacity="0.6" marker-end="url(#arrow)"/>
<path d="M 1860.0,439.0 C 2044.96725,399.5 2908.1477499999996,399.5 3093.115,360.0" fill="none" stroke="#8B4513" stroke-width="3" stroke-opacity="0.6" marker-end="url(#arrow)"/>
<path d="M 2100.0,439.0 C 2248.96725,399.5 2944.1477499999996,399.5 3093.115,360.0" fill="none" stroke="#8B4513" stroke-width="3" stroke-opacity="0.6" marker-end="url(#arrow)"/>
<path d="M 2340.0,439.0 C 2452.96725,399.5 2980.1477499999996,399.5 3093.115,360.0" fill="none" stroke="#8B4513" stroke-width="3" stroke-opacity="0.6" marker-end="url(#arrow)"/>
<path d="M 1140.0,395.0 C 1026.0,337.5 494.0,337.5 380.0,280.0" fill="none" stroke="#8B4513" stroke-width="3" stroke-opacity="0.6" marker-end="url(#arrow)"/>
<path d="M 1380.0,395.0 C 1230.0,337.5 530.0,337.5 380.0,280.0" fill="none" stroke="#8B4513" stroke-width="3" stroke-opacity="0.6" marker-end="url(#arrow)"/>
<path d="M 3093.115,360.0 C 2686.1477499999996,320.0 786.9672499999999,320.0 380.0,280.0" fill="none" stroke="#8B4513" stroke-width="3" stroke-opacity="0.6" marker-end="url(#arrow)"/>
<path d="M 380.0,194.0 C 380.0,154.0 380.0,154.0 380.0,114.0" fill="none" stroke="#8B4513" stroke-width="3" stroke-opacity="0.6" marker-end="url(#arrow)"/>
<path d="M 3093.115,360.0 C 2686.1477499999996,237.0 786.9672499999999,237.0 380.0,114.0" fill="none" stroke="#8B4513" stroke-width="3" stroke-opacity="0.6" marker-end="url(#arrow)"/>
<rect x="80.0" y="395.0" width="200" height="44" fill="#e8e8e8" stroke="#999" stroke-width="2" rx="8"/>
<text x="180.0" y="413.0" text-anchor="middle" fill="#333" font-family="Arial,sans-serif" font-size="12" font-weight="bold">Emb: &#x27;from&#x27; (pos 5)</text>
<circle cx="262.0" cy="408.0" r="9" fill="#ccc"/>
<text x="262.0" y="412.0" text-anchor="middle" fill="#666" font-family="monospace" font-size="9" font-weight="bold">0</text>
<rect x="320.0" y="395.0" width="200" height="44" fill="#e8e8e8" stroke="#999" stroke-width="2" rx="8"/>
<text x="420.0" y="413.0" text-anchor="middle" fill="#333" font-family="Arial,sans-serif" font-size="12" font-weight="bold">Emb: &#x27;so&#x27; (pos 25)</text>
<circle cx="502.0" cy="408.0" r="9" fill="#ccc"/>
<text x="502.0" y="412.0" text-anchor="middle" fill="#666" font-family="monospace" font-size="9" font-weight="bold">0</text>
<rect x="560.0" y="395.0" width="200" height="44" fill="#e8e8e8" stroke="#999" stroke-width="2" rx="8"/>
<text x="660.0" y="413.0" text-anchor="middle" fill="#333" font-family="Arial,sans-serif" font-size="12" font-weight="bold">Emb: &#x27;Pick&#x27; (pos 1)</text>
<circle cx="742.0" cy="408.0" r="9" fill="#ccc"/>
<text x="742.0" y="412.0" text-anchor="middle" fill="#666" font-family="monospace" font-size="9" font-weight="bold">0</text>
<rect x="800.0" y="395.0" width="200" height="44" fill="#e8e8e8" stroke="#999" stroke-width="2" rx="8"/>
<text x="900.0" y="413.0" text-anchor="middle" fill="#333" font-family="Arial,sans-serif" font-size="12" font-weight="bold">Emb: &#x27;up&#x27; (pos 2)</text>
<circle cx="982.0" cy="408.0" r="9" fill="#ccc"/>
<text x="982.0" y="412.0" text-anchor="middle" fill="#666" font-family="monospace" font-size="9" font-weight="bold">0</text>
<rect x="1040.0" y="395.0" width="200" height="44" fill="#e8e8e8" stroke="#999" stroke-width="2" rx="8"/>
<text x="1140.0" y="413.0" text-anchor="middle" fill="#333" font-family="Arial,sans-serif" font-size="12" font-weight="bold">Emb: &#x27;No&#x27; (pos 16)</text>
<circle cx="1222.0" cy="408.0" r="9" fill="#ccc"/>
<text x="1222.0" y="412.0" text-anchor="middle" fill="#666" font-family="monospace" font-size="9" font-weight="bold">0</text>
<rect x="1280.0" y="395.0" width="200" height="44" fill="#e8e8e8" stroke="#999" stroke-width="2" rx="8"/>
<text x="1380.0" y="413.0" text-anchor="middle" fill="#333" font-family="Arial,sans-serif" font-size="12" font-weight="bold">Emb: &#x27;one&#x27; (pos 17)</text>
<circle cx="1462.0" cy="408.0" r="9" fill="#ccc"/>
<text x="1462.0" y="412.0" text-anchor="middle" fill="#666" font-family="monospace" font-size="9" font-weight="bold">0</text>
<rect x="1520.0" y="395.0" width="200" height="44" fill="#e8e8e8" stroke="#999" stroke-width="2" rx="8"/>
<text x="1620.0" y="413.0" text-anchor="middle" fill="#333" font-family="Arial,sans-serif" font-size="12" font-weight="bold">Emb: &#x27;about&#x27; (pos 12)</text>
<circle cx="1702.0" cy="408.0" r="9" fill="#ccc"/>
<text x="1702.0" y="412.0" text-anchor="middle" fill="#666" font-family="monospace" font-size="9" font-weight="bold">0</text>
<rect x="1760.0" y="395.0" width="200" height="44" fill="#e8e8e8" stroke="#999" stroke-width="2" rx="8"/>
<text x="1860.0" y="413.0" text-anchor="middle" fill="#333" font-family="Arial,sans-serif" font-size="12" font-weight="bold">Emb: &#x27;tourist&#x27; (pos 7)</text>
<circle cx="1942.0" cy="408.0" r="9" fill="#ccc"/>
<text x="1942.0" y="412.0" text-anchor="middle" fill="#666" font-family="monospace" font-size="9" font-weight="bold">0</text>
<rect x="2000.0" y="395.0" width="200" height="44" fill="#e8e8e8" stroke="#999" stroke-width="2" rx="8"/>
<text x="2100.0" y="413.0" text-anchor="middle" fill="#333" font-family="Arial,sans-serif" font-size="12" font-weight="bold">Emb: &#x27;.&#x27; (pos 15)</text>
<circle cx="2182.0" cy="408.0" r="9" fill="#ccc"/>
<text x="2182.0" y="412.0" text-anchor="middle" fill="#666" font-family="monospace" font-size="9" font-weight="bold">0</text>
<rect x="2240.0" y="395.0" width="200" height="44" fill="#e8e8e8" stroke="#999" stroke-width="2" rx="8"/>
<text x="2340.0" y="413.0" text-anchor="middle" fill="#333" font-family="Arial,sans-serif" font-size="12" font-weight="bold">Emb: &#x27;ask&#x27; (pos 11)</text>
<circle cx="2422.0" cy="408.0" r="9" fill="#ccc"/>
<text x="2422.0" y="412.0" text-anchor="middle" fill="#666" font-family="monospace" font-size="9" font-weight="bold">0</text>
<rect x="2480.0" y="395.0" width="200.07999999999998" height="44" fill="#e8e8e8" stroke="#999" stroke-width="2" rx="8"/>
<text x="2580.04" y="413.0" text-anchor="middle" fill="#333" font-family="Arial,sans-serif" font-size="12" font-weight="bold">Emb: &#x27;Pick up&#x27; (phrasal</text>
<text x="2580.04" y="427.0" text-anchor="middle" fill="#333" font-family="Arial,sans-serif" font-size="12" font-weight="bold">verb)</text>
<circle cx="2662.08" cy="408.0" r="9" fill="#ccc"/>
<text x="2662.08" y="412.0" text-anchor="middle" fill="#666" font-family="monospace" font-size="9" font-weight="bold">0</text>
<rect x="2720.08" y="395.0" width="200.07999999999998" height="44" fill="#e8e8e8" stroke="#999" stroke-width="2" rx="8"/>
<text x="2820.12" y="413.0" text-anchor="middle" fill="#333" font-family="Arial,sans-serif" font-size="12" font-weight="bold">Emb: &#x27;adequate&#x27; (pos 1)</text>
<circle cx="2902.16" cy="408.0" r="9" fill="#ccc"/>
<text x="2902.16" y="412.0" text-anchor="middle" fill="#666" font-family="monospace" font-size="9" font-weight="bold">0</text>
<rect x="2960.16" y="360.0" width="265.90999999999997" height="114" fill="#e8e8e8" stroke="#999" stroke-width="2" rx="8"/>
<text x="3093.115" y="378.0" text-anchor="middle" fill="#333" font-family="Arial,sans-serif" font-size="12" font-weight="bold">L0: Word/Token Detectors</text>
<text x="3093.115" y="396.0" text-anchor="middle" fill="#666" font-family="monospace" font-size="9">L0:F8974 — the word &quot;from&quot;</text>
<text x="3093.115" y="410.0" text-anchor="middle" fill="#666" font-family="monospace" font-size="9">L0:F7321 —  the word &quot;so,&quot; and also match</text>
<text x="3093.115" y="424.0" text-anchor="middle" fill="#666" font-family="monospace" font-size="9">L0:F10562 — the word &quot;up&quot;</text>
<text x="3093.115" y="438.0" text-anchor="middle" fill="#666" font-family="monospace" font-size="9">L0:F2238 —  the word &quot;about&quot; when followe</text>
<text x="3093.115" y="452.0" text-anchor="middle" fill="#666" font-family="monospace" font-size="9">... +4 more</text>
<circle cx="3208.0699999999997" cy="373.0" r="9" fill="#ccc"/>
<text x="3208.0699999999997" y="377.0" text-anchor="middle" fill="#666" font-family="monospace" font-size="9" font-weight="bold">8</text>
<rect x="244.29000000000002" y="194.0" width="271.41999999999996" height="86" fill="#e8e8e8" stroke="#999" stroke-width="2" rx="8"/>
<text x="380.0" y="212.0" text-anchor="middle" fill="#333" font-family="Arial,sans-serif" font-size="12" font-weight="bold">L1-2: Phrasal/Contextual</text>
<text x="380.0" y="226.0" text-anchor="middle" fill="#333" font-family="Arial,sans-serif" font-size="12" font-weight="bold">Features</text>
<text x="380.0" y="244.0" text-anchor="middle" fill="#666" font-family="monospace" font-size="9">L1:F13179 — the words &quot;pick&quot;, &quot;picker&quot;, an</text>
<text x="380.0" y="258.0" text-anchor="middle" fill="#666" font-family="monospace" font-size="9">L2:F3116 —  the phrasal verb &quot;pick up&quot; an</text>
<text x="380.0" y="272.0" text-anchor="middle" fill="#666" font-family="monospace" font-size="9">L2:F13586 —  words ending in &#x27;thing&#x27; and &#x27;</text>
<circle cx="497.71000000000004" cy="207.0" r="9" fill="#ccc"/>
<text x="497.71000000000004" y="211.0" text-anchor="middle" fill="#666" font-family="monospace" font-size="9" font-weight="bold">3</text>
<rect x="280.0" y="70.0" width="200" height="44" fill="#e8e8e8" stroke="#999" stroke-width="2" rx="8"/>
<text x="380.0" y="88.0" text-anchor="middle" fill="#333" font-family="Arial,sans-serif" font-size="12" font-weight="bold">Output: Probe</text>
<text x="380.0" y="102.0" text-anchor="middle" fill="#333" font-family="Arial,sans-serif" font-size="12" font-weight="bold">Classification Score</text>
<circle cx="462.0" cy="83.0" r="9" fill="#ccc"/>
<text x="462.0" y="87.0" text-anchor="middle" fill="#666" font-family="monospace" font-size="9" font-weight="bold">0</text>
<line x1="40" y1="554" x2="3306" y2="554" stroke="#ddd" stroke-width="1"/>
<text x="40" y="572" fill="#666" font-family="Arial,sans-serif" font-size="10" font-weight="bold" letter-spacing="1px">PROMPT</text>
<text x="40" y="590" fill="#333" font-family="monospace" font-size="11">"&lt;bos&gt;Pick up a map from the tourist office here and ask about walking tours. No one is usually at the tourist office, so"</text>
<text x="40" y="614" fill="#666" font-family="Arial,sans-serif" font-size="10" font-weight="bold" letter-spacing="1px">TOP OUTPUTS</text>
<rect x="40" y="619" width="100" height="20" fill="#e8e8e8" stroke="none" rx="6"/>
<text x="45" y="633" fill="#333" font-family="Arial,sans-serif" font-size="11" font-weight="bold">(empty) <tspan fill="#555" font-size="10">100%</tspan></text>
</svg>