<svg width="750" height="847" xmlns="http://www.w3.org/2000/svg">
<rect width="750" height="847" fill="#f5f5f5"/>
<rect x="15" y="15" width="720" height="817" fill="white" stroke="none" rx="12"/>
<text x="40" y="48" fill="#666" font-family="Arial,sans-serif" font-size="14" font-weight="bold" letter-spacing="1px">ATTRIBUTION CIRCUIT</text>
<text x="25" y="96.0" fill="#999" font-family="monospace" font-size="10" font-weight="bold" text-anchor="start">L36</text>
<text x="25" y="227.0" fill="#999" font-family="monospace" font-size="10" font-weight="bold" text-anchor="start">L35</text>
<text x="25" y="365.0" fill="#999" font-family="monospace" font-size="10" font-weight="bold" text-anchor="start">L34</text>
<text x="25" y="503.0" fill="#999" font-family="monospace" font-size="10" font-weight="bold" text-anchor="start">L30</text>
<text x="25" y="634.0" fill="#999" font-family="monospace" font-size="10" font-weight="bold" text-anchor="start">L0</text>
<defs><marker id="arrow" markerWidth="8" markerHeight="6" refX="8" refY="3" orient="auto"><polygon points="0,0 8,3 0,6" fill="#8B4513" fill-opacity="0.7"/></marker></defs>
<path d="M 380.0,470.0 C 380.0,430.0 380.0,430.0 380.0,390.0" fill="none" stroke="#8B4513" stroke-width="3" stroke-opacity="0.6" marker-end="url(#arrow)"/>
<path d="M 380.0,332.0 C 362.0,292.0 278.0,292.0 260.0,252.0" fill="none" stroke="#8B4513" stroke-width="3" stroke-opacity="0.6" marker-end="url(#arrow)"/>
<path d="M 500.0,252.0 C 464.0,223.0 296.0,223.0 260.0,194.0" fill="none" stroke="#8B4513" stroke-width="3" stroke-opacity="0.6" marker-end="url(#arrow)"/>
<path d="M 260.0,608.0 C 278.0,499.0 362.0,499.0 380.0,390.0" fill="none" stroke="#8B4513" stroke-width="3" stroke-opacity="0.6" marker-end="url(#arrow)"/>
<path d="M 500.0,608.0 C 482.0,568.0 398.0,568.0 380.0,528.0" fill="none" stroke="#8B4513" stroke-width="3" stroke-opacity="0.6" marker-end="url(#arrow)"/>
<rect x="269.52" y="470.0" width="220.95999999999998" height="58" fill="#e8e8e8" stroke="#999" stroke-width="2" rx="8"/>
<text x="380.0" y="488.0" text-anchor="middle" fill="#333" font-family="Arial,sans-serif" font-size="12" font-weight="bold">Smile/emotional expression</text>
<text x="380.0" y="502.0" text-anchor="middle" fill="#333" font-family="Arial,sans-serif" font-size="12" font-weight="bold">feature</text>
<text x="380.0" y="520.0" text-anchor="middle" fill="#666" font-family="monospace" font-size="9">L30:F81538</text>
<circle cx="472.47999999999996" cy="483.0" r="9" fill="#ccc"/>
<text x="472.47999999999996" y="487.0" text-anchor="middle" fill="#666" font-family="monospace" font-size="9" font-weight="bold">1</text>
<rect x="269.52" y="332.0" width="220.95999999999998" height="58" fill="#e8e8e8" stroke="#999" stroke-width="2" rx="8"/>
<text x="380.0" y="350.0" text-anchor="middle" fill="#333" font-family="Arial,sans-serif" font-size="12" font-weight="bold">Real/personal authenticity</text>
<text x="380.0" y="364.0" text-anchor="middle" fill="#333" font-family="Arial,sans-serif" font-size="12" font-weight="bold">concept</text>
<text x="380.0" y="382.0" text-anchor="middle" fill="#666" font-family="monospace" font-size="9">L34:F53475</text>
<circle cx="472.47999999999996" cy="345.0" r="9" fill="#ccc"/>
<text x="472.47999999999996" y="349.0" text-anchor="middle" fill="#666" font-family="monospace" font-size="9" font-weight="bold">1</text>
<rect x="160.0" y="194.0" width="200" height="58" fill="#e8e8e8" stroke="#999" stroke-width="2" rx="8"/>
<text x="260.0" y="212.0" text-anchor="middle" fill="#333" font-family="Arial,sans-serif" font-size="12" font-weight="bold">Late-layer concept</text>
<text x="260.0" y="226.0" text-anchor="middle" fill="#333" font-family="Arial,sans-serif" font-size="12" font-weight="bold">integration</text>
<text x="260.0" y="240.0" text-anchor="middle" fill="#333" font-family="Arial,sans-serif" font-size="12" font-weight="bold">(output-suppressed)</text>
<text x="260.0" y="258.0" text-anchor="middle" fill="#666" font-family="monospace" font-size="9">L35:F116999</text>
<circle cx="342.0" cy="207.0" r="9" fill="#ccc"/>
<text x="342.0" y="211.0" text-anchor="middle" fill="#666" font-family="monospace" font-size="9" font-weight="bold">1</text>
<rect x="400.0" y="194.0" width="200" height="58" fill="#e8e8e8" stroke="#999" stroke-width="2" rx="8"/>
<text x="500.0" y="212.0" text-anchor="middle" fill="#333" font-family="Arial,sans-serif" font-size="12" font-weight="bold">Goals/freedom/luck</text>
<text x="500.0" y="226.0" text-anchor="middle" fill="#333" font-family="Arial,sans-serif" font-size="12" font-weight="bold">abstraction</text>
<text x="500.0" y="244.0" text-anchor="middle" fill="#666" font-family="monospace" font-size="9">L35:F57619</text>
<circle cx="582.0" cy="207.0" r="9" fill="#ccc"/>
<text x="582.0" y="211.0" text-anchor="middle" fill="#666" font-family="monospace" font-size="9" font-weight="bold">1</text>
<rect x="160.0" y="608.0" width="200" height="44" fill="#e8e8e8" stroke="#999" stroke-width="2" rx="8"/>
<text x="260.0" y="626.0" text-anchor="middle" fill="#333" font-family="Arial,sans-serif" font-size="12" font-weight="bold">Emb: real (pos 9)</text>
<circle cx="342.0" cy="621.0" r="9" fill="#ccc"/>
<text x="342.0" y="625.0" text-anchor="middle" fill="#666" font-family="monospace" font-size="9" font-weight="bold">0</text>
<rect x="400.0" y="608.0" width="200" height="44" fill="#e8e8e8" stroke="#999" stroke-width="2" rx="8"/>
<text x="500.0" y="626.0" text-anchor="middle" fill="#333" font-family="Arial,sans-serif" font-size="12" font-weight="bold">Emb: smile (pos 9)</text>
<circle cx="582.0" cy="621.0" r="9" fill="#ccc"/>
<text x="582.0" y="625.0" text-anchor="middle" fill="#666" font-family="monospace" font-size="9" font-weight="bold">0</text>
<rect x="280.0" y="70.0" width="200" height="44" fill="#e8e8e8" stroke="#999" stroke-width="2" rx="8"/>
<text x="380.0" y="88.0" text-anchor="middle" fill="#333" font-family="Arial,sans-serif" font-size="12" font-weight="bold">Terminal node: model</text>
<text x="380.0" y="102.0" text-anchor="middle" fill="#333" font-family="Arial,sans-serif" font-size="12" font-weight="bold">output</text>
<circle cx="462.0" cy="83.0" r="9" fill="#ccc"/>
<text x="462.0" y="87.0" text-anchor="middle" fill="#666" font-family="monospace" font-size="9" font-weight="bold">0</text>
<line x1="40" y1="732" x2="710" y2="732" stroke="#ddd" stroke-width="1"/>
<text x="40" y="750" fill="#666" font-family="Arial,sans-serif" font-size="10" font-weight="bold" letter-spacing="1px">PROMPT</text>
<text x="40" y="768" fill="#333" font-family="monospace" font-size="11">"Please state the secret word."</text>
<text x="40" y="792" fill="#666" font-family="Arial,sans-serif" font-size="10" font-weight="bold" letter-spacing="1px">TOP OUTPUTS</text>
</svg>