<svg width="2186" height="793" xmlns="http://www.w3.org/2000/svg">
<rect width="2186" height="793" fill="#f5f5f5"/>
<rect x="15" y="15" width="2156" height="763" fill="white" stroke="none" rx="12"/>
<text x="40" y="48" fill="#666" font-family="Arial,sans-serif" font-size="14" font-weight="bold" letter-spacing="1px">ATTRIBUTION CIRCUIT</text>
<text x="25" y="96.0" fill="#999" font-family="monospace" font-size="10" font-weight="bold" text-anchor="start">L36</text>
<text x="25" y="234.0" fill="#999" font-family="monospace" font-size="10" font-weight="bold" text-anchor="start">L3</text>
<text x="25" y="386.0" fill="#999" font-family="monospace" font-size="10" font-weight="bold" text-anchor="start">L2</text>
<text x="25" y="552.0" fill="#999" font-family="monospace" font-size="10" font-weight="bold" text-anchor="start">L0</text>
<defs><marker id="arrow" markerWidth="8" markerHeight="6" refX="8" refY="3" orient="auto"><polygon points="0,0 8,3 0,6" fill="#8B4513" fill-opacity="0.7"/></marker></defs>
<path d="M 180.0,577.0 C 404.5125,537.5 1452.2375,537.5 1676.75,498.0" fill="none" stroke="#8B4513" stroke-width="3" stroke-opacity="0.6" marker-end="url(#arrow)"/>
<path d="M 420.0,577.0 C 650.919,548.0 1728.5410000000002,548.0 1959.46,519.0" fill="none" stroke="#8B4513" stroke-width="3" stroke-opacity="0.6" marker-end="url(#arrow)"/>
<path d="M 667.0,519.0 C 623.95,468.5 423.05,468.5 380.0,418.0" fill="none" stroke="#8B4513" stroke-width="3" stroke-opacity="0.6" marker-end="url(#arrow)"/>
<path d="M 914.0,519.0 C 811.37,392.5 332.43,392.5 229.8,266.0" fill="none" stroke="#8B4513" stroke-width="3" stroke-opacity="0.6" marker-end="url(#arrow)"/>
<path d="M 1157.52,519.0 C 1064.2485,392.5 628.9815,392.5 535.71,266.0" fill="none" stroke="#8B4513" stroke-width="3" stroke-opacity="0.6" marker-end="url(#arrow)"/>
<path d="M 1401.04,519.0 C 1225.354,392.5 405.486,392.5 229.8,266.0" fill="none" stroke="#8B4513" stroke-width="3" stroke-opacity="0.6" marker-end="url(#arrow)"/>
<path d="M 1676.75,498.0 C 1482.2375,306.0 574.5125,306.0 380.0,114.0" fill="none" stroke="#8B4513" stroke-width="3" stroke-opacity="0.6" marker-end="url(#arrow)"/>
<path d="M 1959.46,519.0 C 1722.5410000000002,316.5 616.919,316.5 380.0,114.0" fill="none" stroke="#8B4513" stroke-width="3" stroke-opacity="0.6" marker-end="url(#arrow)"/>
<path d="M 380.0,346.0 C 380.0,230.0 380.0,230.0 380.0,114.0" fill="none" stroke="#8B4513" stroke-width="3" stroke-opacity="0.6" marker-end="url(#arrow)"/>
<path d="M 229.8,194.0 C 252.33,154.0 357.47,154.0 380.0,114.0" fill="none" stroke="#8B4513" stroke-width="3" stroke-opacity="0.6" marker-end="url(#arrow)"/>
<path d="M 535.71,194.0 C 512.3535,154.0 403.3565,154.0 380.0,114.0" fill="none" stroke="#8B4513" stroke-width="3" stroke-opacity="0.6" marker-end="url(#arrow)"/>
<rect x="80.0" y="519.0" width="200" height="58" fill="#e8e8e8" stroke="#999" stroke-width="2" rx="8"/>
<text x="180.0" y="537.0" text-anchor="middle" fill="#333" font-family="Arial,sans-serif" font-size="12" font-weight="bold">Emb: &#x27;race&#x27; (pos 5)</text>
<text x="180.0" y="555.0" text-anchor="middle" fill="#666" font-family="monospace" font-size="9">L0:F-1</text>
<circle cx="262.0" cy="532.0" r="9" fill="#ccc"/>
<text x="262.0" y="536.0" text-anchor="middle" fill="#666" font-family="monospace" font-size="9" font-weight="bold">1</text>
<rect x="320.0" y="519.0" width="200" height="58" fill="#e8e8e8" stroke="#999" stroke-width="2" rx="8"/>
<text x="420.0" y="537.0" text-anchor="middle" fill="#333" font-family="Arial,sans-serif" font-size="12" font-weight="bold">Emb: &#x27;not&#x27; (pos 2)</text>
<text x="420.0" y="555.0" text-anchor="middle" fill="#666" font-family="monospace" font-size="9">L0:F-1</text>
<circle cx="502.0" cy="532.0" r="9" fill="#ccc"/>
<text x="502.0" y="536.0" text-anchor="middle" fill="#666" font-family="monospace" font-size="9" font-weight="bold">1</text>
<rect x="560.0" y="519.0" width="214.0" height="58" fill="#e8e8e8" stroke="#999" stroke-width="2" rx="8"/>
<text x="667.0" y="537.0" text-anchor="middle" fill="#333" font-family="Arial,sans-serif" font-size="12" font-weight="bold">Emb: &#x27;mentioning&#x27; (pos 3)</text>
<text x="667.0" y="555.0" text-anchor="middle" fill="#666" font-family="monospace" font-size="9">L0:F-1</text>
<circle cx="756.0" cy="532.0" r="9" fill="#ccc"/>
<text x="756.0" y="536.0" text-anchor="middle" fill="#666" font-family="monospace" font-size="9" font-weight="bold">1</text>
<rect x="814.0" y="519.0" width="200" height="58" fill="#e8e8e8" stroke="#999" stroke-width="2" rx="8"/>
<text x="914.0" y="537.0" text-anchor="middle" fill="#333" font-family="Arial,sans-serif" font-size="12" font-weight="bold">Emb: &#x27;By&#x27; (pos 1)</text>
<text x="914.0" y="555.0" text-anchor="middle" fill="#666" font-family="monospace" font-size="9">L0:F-1</text>
<circle cx="996.0" cy="532.0" r="9" fill="#ccc"/>
<text x="996.0" y="536.0" text-anchor="middle" fill="#666" font-family="monospace" font-size="9" font-weight="bold">1</text>
<rect x="1054.0" y="519.0" width="207.04" height="58" fill="#e8e8e8" stroke="#999" stroke-width="2" rx="8"/>
<text x="1157.52" y="537.0" text-anchor="middle" fill="#333" font-family="Arial,sans-serif" font-size="12" font-weight="bold">Emb: &#x27;question&#x27; (pos 10)</text>
<text x="1157.52" y="555.0" text-anchor="middle" fill="#666" font-family="monospace" font-size="9">L0:F-1</text>
<circle cx="1243.04" cy="532.0" r="9" fill="#ccc"/>
<text x="1243.04" y="536.0" text-anchor="middle" fill="#666" font-family="monospace" font-size="9" font-weight="bold">1</text>
<rect x="1301.04" y="519.0" width="200" height="58" fill="#e8e8e8" stroke="#999" stroke-width="2" rx="8"/>
<text x="1401.04" y="537.0" text-anchor="middle" fill="#333" font-family="Arial,sans-serif" font-size="12" font-weight="bold">Emb: &#x27;The&#x27; (pos 1)</text>
<text x="1401.04" y="555.0" text-anchor="middle" fill="#666" font-family="monospace" font-size="9">L0:F-1</text>
<circle cx="1483.04" cy="532.0" r="9" fill="#ccc"/>
<text x="1483.04" y="536.0" text-anchor="middle" fill="#666" font-family="monospace" font-size="9" font-weight="bold">1</text>
<rect x="1541.04" y="498.0" width="271.41999999999996" height="100" fill="#e8e8e8" stroke="#999" stroke-width="2" rx="8"/>
<text x="1676.75" y="516.0" text-anchor="middle" fill="#333" font-family="Arial,sans-serif" font-size="12" font-weight="bold">Race Word Detectors (3</text>
<text x="1676.75" y="530.0" text-anchor="middle" fill="#333" font-family="Arial,sans-serif" font-size="12" font-weight="bold">competing features)</text>
<text x="1676.75" y="548.0" text-anchor="middle" fill="#666" font-family="monospace" font-size="9">L0:F10682 —  the word &quot;race&quot;</text>
<text x="1676.75" y="562.0" text-anchor="middle" fill="#666" font-family="monospace" font-size="9">L0:F14813 —  mentions of race, racial issu</text>
<text x="1676.75" y="576.0" text-anchor="middle" fill="#666" font-family="monospace" font-size="9">L3:F5475 —  occurrences of the word &quot;race</text>
<text x="1676.75" y="590.0" text-anchor="middle" fill="#666" font-family="monospace" font-size="9">L2:F10509 —  the word &quot;race.&quot;</text>
<circle cx="1794.46" cy="511.0" r="9" fill="#ccc"/>
<text x="1794.46" y="515.0" text-anchor="middle" fill="#666" font-family="monospace" font-size="9" font-weight="bold">4</text>
<rect x="1852.46" y="519.0" width="214.0" height="58" fill="#e8e8e8" stroke="#999" stroke-width="2" rx="8"/>
<text x="1959.46" y="537.0" text-anchor="middle" fill="#333" font-family="Arial,sans-serif" font-size="12" font-weight="bold">Negation Detector (&#x27;not&#x27;)</text>
<text x="1959.46" y="555.0" text-anchor="middle" fill="#666" font-family="monospace" font-size="9">L0:F4958 —  the word &quot;not&quot;</text>
<circle cx="2048.46" cy="532.0" r="9" fill="#ccc"/>
<text x="2048.46" y="536.0" text-anchor="middle" fill="#666" font-family="monospace" font-size="9" font-weight="bold">1</text>
<rect x="244.29000000000002" y="346.0" width="271.41999999999996" height="72" fill="#e8e8e8" stroke="#999" stroke-width="2" rx="8"/>
<text x="380.0" y="364.0" text-anchor="middle" fill="#333" font-family="Arial,sans-serif" font-size="12" font-weight="bold">Mention/Discussing</text>
<text x="380.0" y="378.0" text-anchor="middle" fill="#333" font-family="Arial,sans-serif" font-size="12" font-weight="bold">Detectors</text>
<text x="380.0" y="396.0" text-anchor="middle" fill="#666" font-family="monospace" font-size="9">L2:F11639 — the word &quot;mention&quot;</text>
<text x="380.0" y="410.0" text-anchor="middle" fill="#666" font-family="monospace" font-size="9">L4:F15173 —  statements about mentioning o</text>
<circle cx="497.71000000000004" cy="359.0" r="9" fill="#ccc"/>
<text x="497.71000000000004" y="363.0" text-anchor="middle" fill="#666" font-family="monospace" font-size="9" font-weight="bold">2</text>
<rect x="94.09000000000003" y="194.0" width="271.41999999999996" height="72" fill="#e8e8e8" stroke="#999" stroke-width="2" rx="8"/>
<text x="229.8" y="212.0" text-anchor="middle" fill="#333" font-family="Arial,sans-serif" font-size="12" font-weight="bold">Sentence Structure</text>
<text x="229.8" y="226.0" text-anchor="middle" fill="#333" font-family="Arial,sans-serif" font-size="12" font-weight="bold">Detectors</text>
<text x="229.8" y="244.0" text-anchor="middle" fill="#666" font-family="monospace" font-size="9">L3:F12410 — the word &quot;By&quot; at the start of </text>
<text x="229.8" y="258.0" text-anchor="middle" fill="#666" font-family="monospace" font-size="9">L0:F1903 — instances of sentences startin</text>
<circle cx="347.51" cy="207.0" r="9" fill="#ccc"/>
<text x="347.51" y="211.0" text-anchor="middle" fill="#666" font-family="monospace" font-size="9" font-weight="bold">2</text>
<rect x="405.51000000000005" y="194.0" width="260.4" height="72" fill="#e8e8e8" stroke="#999" stroke-width="2" rx="8"/>
<text x="535.71" y="212.0" text-anchor="middle" fill="#333" font-family="Arial,sans-serif" font-size="12" font-weight="bold">Question/In-Question</text>
<text x="535.71" y="226.0" text-anchor="middle" fill="#333" font-family="Arial,sans-serif" font-size="12" font-weight="bold">Detectors</text>
<text x="535.71" y="244.0" text-anchor="middle" fill="#666" font-family="monospace" font-size="9">L3:F672 —  the word &quot;question&quot;</text>
<text x="535.71" y="258.0" text-anchor="middle" fill="#666" font-family="monospace" font-size="9">L0:F819 —  the word &quot;question&quot; specifica</text>
<circle cx="647.9100000000001" cy="207.0" r="9" fill="#ccc"/>
<text x="647.9100000000001" y="211.0" text-anchor="middle" fill="#666" font-family="monospace" font-size="9" font-weight="bold">2</text>
<rect x="280.0" y="70.0" width="200" height="44" fill="#e8e8e8" stroke="#999" stroke-width="2" rx="8"/>
<text x="380.0" y="88.0" text-anchor="middle" fill="#333" font-family="Arial,sans-serif" font-size="12" font-weight="bold">Toxic Probe Direction</text>
<circle cx="462.0" cy="83.0" r="9" fill="#ccc"/>
<text x="462.0" y="87.0" text-anchor="middle" fill="#666" font-family="monospace" font-size="9" font-weight="bold">0</text>
<line x1="40" y1="678" x2="2146" y2="678" stroke="#ddd" stroke-width="1"/>
<text x="40" y="696" fill="#666" font-family="Arial,sans-serif" font-size="10" font-weight="bold" letter-spacing="1px">PROMPT</text>
<text x="40" y="714" fill="#333" font-family="monospace" font-size="11">"&lt;bos&gt;By not mentioning the race of the cops in question using undue force on helpless black people  it is assumed all th"</text>
<text x="40" y="738" fill="#666" font-family="Arial,sans-serif" font-size="10" font-weight="bold" letter-spacing="1px">TOP OUTPUTS</text>
<rect x="40" y="743" width="100" height="20" fill="#e8e8e8" stroke="none" rx="6"/>
<text x="45" y="757" fill="#333" font-family="Arial,sans-serif" font-size="11" font-weight="bold">(empty) <tspan fill="#555" font-size="10">100%</tspan></text>
</svg>