<svg width="1425" height="2273" xmlns="http://www.w3.org/2000/svg">
<rect width="1425" height="2273" fill="#f5f5f5"/>
<rect x="15" y="15" width="1395" height="2243" fill="white" stroke="none" rx="12"/>
<text x="40" y="48" fill="#666" font-family="Arial,sans-serif" font-size="14" font-weight="bold" letter-spacing="1px">ATTRIBUTION CIRCUIT</text>
<text x="25" y="96.0" fill="#999" font-family="monospace" font-size="10" font-weight="bold" text-anchor="start">L36</text>
<text x="25" y="234.0" fill="#999" font-family="monospace" font-size="10" font-weight="bold" text-anchor="start">L19</text>
<text x="25" y="407.0" fill="#999" font-family="monospace" font-size="10" font-weight="bold" text-anchor="start">L18</text>
<text x="25" y="594.0" fill="#999" font-family="monospace" font-size="10" font-weight="bold" text-anchor="start">L17</text>
<text x="25" y="774.0" fill="#999" font-family="monospace" font-size="10" font-weight="bold" text-anchor="start">L15</text>
<text x="25" y="961.0" fill="#999" font-family="monospace" font-size="10" font-weight="bold" text-anchor="start">L14</text>
<text x="25" y="1127.0" fill="#999" font-family="monospace" font-size="10" font-weight="bold" text-anchor="start">L12</text>
<text x="25" y="1265.0" fill="#999" font-family="monospace" font-size="10" font-weight="bold" text-anchor="start">L10</text>
<text x="25" y="1417.0" fill="#999" font-family="monospace" font-size="10" font-weight="bold" text-anchor="start">L7</text>
<text x="25" y="1569.0" fill="#999" font-family="monospace" font-size="10" font-weight="bold" text-anchor="start">L6</text>
<text x="25" y="1714.0" fill="#999" font-family="monospace" font-size="10" font-weight="bold" text-anchor="start">L4</text>
<text x="25" y="1873.0" fill="#999" font-family="monospace" font-size="10" font-weight="bold" text-anchor="start">L2</text>
<text x="25" y="2039.0" fill="#999" font-family="monospace" font-size="10" font-weight="bold" text-anchor="start">L0</text>
<defs><marker id="arrow" markerWidth="8" markerHeight="6" refX="8" refY="3" orient="auto"><polygon points="0,0 8,3 0,6" fill="#8B4513" fill-opacity="0.7"/></marker></defs>
<path d="M 180.0,2057.0 C 328.94325,2024.5 1024.01175,2024.5 1172.955,1992.0" fill="none" stroke="#8B4513" stroke-width="3" stroke-opacity="0.6" marker-end="url(#arrow)"/>
<path d="M 180.0,2013.0 C 210.0,1962.5 350.0,1962.5 380.0,1912.0" fill="none" stroke="#8B4513" stroke-width="3" stroke-opacity="0.6" marker-end="url(#arrow)"/>
<path d="M 180.0,2013.0 C 210.0,1879.5 350.0,1879.5 380.0,1746.0" fill="none" stroke="#8B4513" stroke-width="3" stroke-opacity="0.6" marker-end="url(#arrow)"/>
<path d="M 180.0,2013.0 C 210.0,1734.5 350.0,1734.5 380.0,1456.0" fill="none" stroke="#8B4513" stroke-width="3" stroke-opacity="0.6" marker-end="url(#arrow)"/>
<path d="M 180.0,2013.0 C 210.0,1651.5 350.0,1651.5 380.0,1290.0" fill="none" stroke="#8B4513" stroke-width="3" stroke-opacity="0.6" marker-end="url(#arrow)"/>
<path d="M 180.0,2013.0 C 210.0,1582.5 350.0,1582.5 380.0,1152.0" fill="none" stroke="#8B4513" stroke-width="3" stroke-opacity="0.6" marker-end="url(#arrow)"/>
<path d="M 180.0,2013.0 C 192.0,1236.5 248.0,1236.5 260.0,460.0" fill="none" stroke="#8B4513" stroke-width="3" stroke-opacity="0.6" marker-end="url(#arrow)"/>
<path d="M 420.0,2013.0 C 414.0,1513.5 386.0,1513.5 380.0,1014.0" fill="none" stroke="#8B4513" stroke-width="3" stroke-opacity="0.6" marker-end="url(#arrow)"/>
<path d="M 420.0,2013.0 C 414.0,1416.5 386.0,1416.5 380.0,820.0" fill="none" stroke="#8B4513" stroke-width="3" stroke-opacity="0.6" marker-end="url(#arrow)"/>
<path d="M 420.0,2013.0 C 414.0,1326.5 386.0,1326.5 380.0,640.0" fill="none" stroke="#8B4513" stroke-width="3" stroke-opacity="0.6" marker-end="url(#arrow)"/>
<path d="M 420.0,2013.0 C 414.0,1139.5 386.0,1139.5 380.0,266.0" fill="none" stroke="#8B4513" stroke-width="3" stroke-opacity="0.6" marker-end="url(#arrow)"/>
<path d="M 660.0,2013.0 C 618.0,1416.5 422.0,1416.5 380.0,820.0" fill="none" stroke="#8B4513" stroke-width="3" stroke-opacity="0.6" marker-end="url(#arrow)"/>
<path d="M 660.0,2013.0 C 618.0,1326.5 422.0,1326.5 380.0,640.0" fill="none" stroke="#8B4513" stroke-width="3" stroke-opacity="0.6" marker-end="url(#arrow)"/>
<path d="M 660.0,2013.0 C 600.0,1236.5 320.0,1236.5 260.0,460.0" fill="none" stroke="#8B4513" stroke-width="3" stroke-opacity="0.6" marker-end="url(#arrow)"/>
<path d="M 900.0,2013.0 C 822.0,1513.5 458.0,1513.5 380.0,1014.0" fill="none" stroke="#8B4513" stroke-width="3" stroke-opacity="0.6" marker-end="url(#arrow)"/>
<path d="M 900.0,2013.0 C 822.0,1416.5 458.0,1416.5 380.0,820.0" fill="none" stroke="#8B4513" stroke-width="3" stroke-opacity="0.6" marker-end="url(#arrow)"/>
<path d="M 900.0,2013.0 C 822.0,1326.5 458.0,1326.5 380.0,640.0" fill="none" stroke="#8B4513" stroke-width="3" stroke-opacity="0.6" marker-end="url(#arrow)"/>
<path d="M 1172.955,1992.0 C 1054.01175,1952.0 498.94325,1952.0 380.0,1912.0" fill="none" stroke="#8B4513" stroke-width="3" stroke-opacity="0.6" marker-end="url(#arrow)"/>
<path d="M 380.0,1826.0 C 380.0,1786.0 380.0,1786.0 380.0,1746.0" fill="none" stroke="#8B4513" stroke-width="3" stroke-opacity="0.6" marker-end="url(#arrow)"/>
<path d="M 380.0,1674.0 C 380.0,1565.0 380.0,1565.0 380.0,1456.0" fill="none" stroke="#8B4513" stroke-width="3" stroke-opacity="0.6" marker-end="url(#arrow)"/>
<path d="M 380.0,1370.0 C 380.0,1330.0 380.0,1330.0 380.0,1290.0" fill="none" stroke="#8B4513" stroke-width="3" stroke-opacity="0.6" marker-end="url(#arrow)"/>
<path d="M 380.0,1370.0 C 380.0,1261.0 380.0,1261.0 380.0,1152.0" fill="none" stroke="#8B4513" stroke-width="3" stroke-opacity="0.6" marker-end="url(#arrow)"/>
<path d="M 380.0,1370.0 C 362.0,915.0 278.0,915.0 260.0,460.0" fill="none" stroke="#8B4513" stroke-width="3" stroke-opacity="0.6" marker-end="url(#arrow)"/>
<path d="M 380.0,1370.0 C 380.0,818.0 380.0,818.0 380.0,266.0" fill="none" stroke="#8B4513" stroke-width="3" stroke-opacity="0.6" marker-end="url(#arrow)"/>
<path d="M 380.0,1232.0 C 380.0,1192.0 380.0,1192.0 380.0,1152.0" fill="none" stroke="#8B4513" stroke-width="3" stroke-opacity="0.6" marker-end="url(#arrow)"/>
<path d="M 380.0,1094.0 C 362.0,777.0 278.0,777.0 260.0,460.0" fill="none" stroke="#8B4513" stroke-width="3" stroke-opacity="0.6" marker-end="url(#arrow)"/>
<path d="M 380.0,900.0 C 380.0,860.0 380.0,860.0 380.0,820.0" fill="none" stroke="#8B4513" stroke-width="3" stroke-opacity="0.6" marker-end="url(#arrow)"/>
<path d="M 380.0,900.0 C 380.0,770.0 380.0,770.0 380.0,640.0" fill="none" stroke="#8B4513" stroke-width="3" stroke-opacity="0.6" marker-end="url(#arrow)"/>
<path d="M 380.0,720.0 C 380.0,680.0 380.0,680.0 380.0,640.0" fill="none" stroke="#8B4513" stroke-width="3" stroke-opacity="0.6" marker-end="url(#arrow)"/>
<path d="M 380.0,720.0 C 362.0,590.0 278.0,590.0 260.0,460.0" fill="none" stroke="#8B4513" stroke-width="3" stroke-opacity="0.6" marker-end="url(#arrow)"/>
<path d="M 380.0,540.0 C 362.0,500.0 278.0,500.0 260.0,460.0" fill="none" stroke="#8B4513" stroke-width="3" stroke-opacity="0.6" marker-end="url(#arrow)"/>
<path d="M 380.0,540.0 C 380.0,403.0 380.0,403.0 380.0,266.0" fill="none" stroke="#8B4513" stroke-width="3" stroke-opacity="0.6" marker-end="url(#arrow)"/>
<path d="M 260.0,346.0 C 278.0,230.0 362.0,230.0 380.0,114.0" fill="none" stroke="#8B4513" stroke-width="3" stroke-opacity="0.6" marker-end="url(#arrow)"/>
<path d="M 538.4649999999999,367.0 C 514.69525,240.5 403.76975,240.5 380.0,114.0" fill="none" stroke="#8B4513" stroke-width="3" stroke-opacity="0.6" marker-end="url(#arrow)"/>
<path d="M 380.0,194.0 C 380.0,154.0 380.0,154.0 380.0,114.0" fill="none" stroke="#8B4513" stroke-width="3" stroke-opacity="0.6" marker-end="url(#arrow)"/>
<path d="M 380.0,1370.0 C 380.0,742.0 380.0,742.0 380.0,114.0" fill="none" stroke="#8B4513" stroke-width="3" stroke-opacity="0.6" marker-end="url(#arrow)"/>
<path d="M 380.0,1094.0 C 380.0,604.0 380.0,604.0 380.0,114.0" fill="none" stroke="#8B4513" stroke-width="3" stroke-opacity="0.6" marker-end="url(#arrow)"/>
<path d="M 380.0,1536.0 C 380.0,825.0 380.0,825.0 380.0,114.0" fill="none" stroke="#8B4513" stroke-width="3" stroke-opacity="0.6" marker-end="url(#arrow)"/>
<path d="M 380.0,1674.0 C 380.0,894.0 380.0,894.0 380.0,114.0" fill="none" stroke="#8B4513" stroke-width="3" stroke-opacity="0.6" marker-end="url(#arrow)"/>
<path d="M 380.0,900.0 C 380.0,507.0 380.0,507.0 380.0,114.0" fill="none" stroke="#8B4513" stroke-width="3" stroke-opacity="0.6" marker-end="url(#arrow)"/>
<path d="M 380.0,1232.0 C 380.0,673.0 380.0,673.0 380.0,114.0" fill="none" stroke="#8B4513" stroke-width="3" stroke-opacity="0.6" marker-end="url(#arrow)"/>
<path d="M 380.0,1826.0 C 380.0,1233.0 380.0,1233.0 380.0,640.0" fill="none" stroke="#8B4513" stroke-width="3" stroke-opacity="0.6" marker-end="url(#arrow)"/>
<rect x="80.0" y="2013.0" width="200" height="44" fill="#e8e8e8" stroke="#999" stroke-width="2" rx="8"/>
<text x="180.0" y="2031.0" text-anchor="middle" fill="#333" font-family="Arial,sans-serif" font-size="12" font-weight="bold">Emb: &#x27;she&#x27; (pos 5)</text>
<circle cx="262.0" cy="2026.0" r="9" fill="#ccc"/>
<text x="262.0" y="2030.0" text-anchor="middle" fill="#666" font-family="monospace" font-size="9" font-weight="bold">0</text>
<rect x="320.0" y="2013.0" width="200" height="44" fill="#e8e8e8" stroke="#999" stroke-width="2" rx="8"/>
<text x="420.0" y="2031.0" text-anchor="middle" fill="#333" font-family="Arial,sans-serif" font-size="12" font-weight="bold">Emb: &#x27;She&#x27; (pos 13)</text>
<circle cx="502.0" cy="2026.0" r="9" fill="#ccc"/>
<text x="502.0" y="2030.0" text-anchor="middle" fill="#666" font-family="monospace" font-size="9" font-weight="bold">0</text>
<rect x="560.0" y="2013.0" width="200" height="44" fill="#e8e8e8" stroke="#999" stroke-width="2" rx="8"/>
<text x="660.0" y="2031.0" text-anchor="middle" fill="#333" font-family="Arial,sans-serif" font-size="12" font-weight="bold">Emb: &#x27;she&#x27; (pos 37)</text>
<circle cx="742.0" cy="2026.0" r="9" fill="#ccc"/>
<text x="742.0" y="2030.0" text-anchor="middle" fill="#666" font-family="monospace" font-size="9" font-weight="bold">0</text>
<rect x="800.0" y="2013.0" width="200" height="44" fill="#e8e8e8" stroke="#999" stroke-width="2" rx="8"/>
<text x="900.0" y="2031.0" text-anchor="middle" fill="#333" font-family="Arial,sans-serif" font-size="12" font-weight="bold">Emb: &#x27;She&#x27; (pos 48)</text>
<circle cx="982.0" cy="2026.0" r="9" fill="#ccc"/>
<text x="982.0" y="2030.0" text-anchor="middle" fill="#666" font-family="monospace" font-size="9" font-weight="bold">0</text>
<rect x="1040.0" y="1992.0" width="265.90999999999997" height="86" fill="#e8e8e8" stroke="#999" stroke-width="2" rx="8"/>
<text x="1172.955" y="2010.0" text-anchor="middle" fill="#333" font-family="Arial,sans-serif" font-size="12" font-weight="bold">L0: &#x27;she&#x27;/&#x27;her&#x27; pronoun</text>
<text x="1172.955" y="2024.0" text-anchor="middle" fill="#333" font-family="Arial,sans-serif" font-size="12" font-weight="bold">detectors</text>
<text x="1172.955" y="2042.0" text-anchor="middle" fill="#666" font-family="monospace" font-size="9">L0:F12519 —  the pronoun &quot;she&quot;</text>
<text x="1172.955" y="2056.0" text-anchor="middle" fill="#666" font-family="monospace" font-size="9">L0:F7509 —  female pronouns and words lik</text>
<text x="1172.955" y="2070.0" text-anchor="middle" fill="#666" font-family="monospace" font-size="9">L0:F9519 —  the pronoun &quot;she&quot; and the pos</text>
<circle cx="1287.9099999999999" cy="2005.0" r="9" fill="#ccc"/>
<text x="1287.9099999999999" y="2009.0" text-anchor="middle" fill="#666" font-family="monospace" font-size="9" font-weight="bold">3</text>
<rect x="247.04500000000002" y="1826.0" width="265.90999999999997" height="86" fill="#e8e8e8" stroke="#999" stroke-width="2" rx="8"/>
<text x="380.0" y="1844.0" text-anchor="middle" fill="#333" font-family="Arial,sans-serif" font-size="12" font-weight="bold">L1-L2: Gender pronoun</text>
<text x="380.0" y="1858.0" text-anchor="middle" fill="#333" font-family="Arial,sans-serif" font-size="12" font-weight="bold">features (&#x27;her&#x27;, &#x27;she&#x27;)</text>
<text x="380.0" y="1876.0" text-anchor="middle" fill="#666" font-family="monospace" font-size="9">L1:F4232 —  the possessive pronoun &quot;her&quot;</text>
<text x="380.0" y="1890.0" text-anchor="middle" fill="#666" font-family="monospace" font-size="9">L2:F8966 —  the pronoun &quot;she&quot;</text>
<text x="380.0" y="1904.0" text-anchor="middle" fill="#666" font-family="monospace" font-size="9">L2:F6981 —  first-person pronouns and ref</text>
<circle cx="494.9549999999999" cy="1839.0" r="9" fill="#ccc"/>
<text x="494.9549999999999" y="1843.0" text-anchor="middle" fill="#666" font-family="monospace" font-size="9" font-weight="bold">3</text>
<rect x="244.29000000000002" y="1674.0" width="271.41999999999996" height="72" fill="#e8e8e8" stroke="#999" stroke-width="2" rx="8"/>
<text x="380.0" y="1692.0" text-anchor="middle" fill="#333" font-family="Arial,sans-serif" font-size="12" font-weight="bold">L4-L5: Gender signal</text>
<text x="380.0" y="1706.0" text-anchor="middle" fill="#333" font-family="Arial,sans-serif" font-size="12" font-weight="bold">intermediaries</text>
<text x="380.0" y="1724.0" text-anchor="middle" fill="#666" font-family="monospace" font-size="9">L4:F7864 — xml or source code snippets, e</text>
<text x="380.0" y="1738.0" text-anchor="middle" fill="#666" font-family="monospace" font-size="9">L5:F10952 — third person pronouns in varyi</text>
<circle cx="497.71000000000004" cy="1687.0" r="9" fill="#ccc"/>
<text x="497.71000000000004" y="1691.0" text-anchor="middle" fill="#666" font-family="monospace" font-size="9" font-weight="bold">2</text>
<rect x="244.29000000000002" y="1370.0" width="271.41999999999996" height="86" fill="#e8e8e8" stroke="#999" stroke-width="2" rx="8"/>
<text x="380.0" y="1388.0" text-anchor="middle" fill="#333" font-family="Arial,sans-serif" font-size="12" font-weight="bold">L6-L7: Female reference /</text>
<text x="380.0" y="1402.0" text-anchor="middle" fill="#333" font-family="Arial,sans-serif" font-size="12" font-weight="bold">women detection</text>
<text x="380.0" y="1420.0" text-anchor="middle" fill="#666" font-family="monospace" font-size="9">L6:F11646 —  references to women, potentia</text>
<text x="380.0" y="1434.0" text-anchor="middle" fill="#666" font-family="monospace" font-size="9">L7:F8952 —  references to women, by direc</text>
<text x="380.0" y="1448.0" text-anchor="middle" fill="#666" font-family="monospace" font-size="9">L7:F2765 —  mentions of people or charact</text>
<circle cx="497.71000000000004" cy="1383.0" r="9" fill="#ccc"/>
<text x="497.71000000000004" y="1387.0" text-anchor="middle" fill="#666" font-family="monospace" font-size="9" font-weight="bold">3</text>
<rect x="244.29000000000002" y="1536.0" width="271.41999999999996" height="58" fill="#e8e8e8" stroke="#999" stroke-width="2" rx="8"/>
<text x="380.0" y="1554.0" text-anchor="middle" fill="#333" font-family="Arial,sans-serif" font-size="12" font-weight="bold">L6: Female name detector</text>
<text x="380.0" y="1568.0" text-anchor="middle" fill="#333" font-family="Arial,sans-serif" font-size="12" font-weight="bold">(NEGATIVE — suppresses</text>
<text x="380.0" y="1582.0" text-anchor="middle" fill="#333" font-family="Arial,sans-serif" font-size="12" font-weight="bold">probe)</text>
<text x="380.0" y="1600.0" text-anchor="middle" fill="#666" font-family="monospace" font-size="9">L6:F16329 — female first names and their p</text>
<circle cx="497.71000000000004" cy="1549.0" r="9" fill="#ccc"/>
<text x="497.71000000000004" y="1553.0" text-anchor="middle" fill="#666" font-family="monospace" font-size="9" font-weight="bold">1</text>
<rect x="258.065" y="1232.0" width="243.86999999999998" height="58" fill="#e8e8e8" stroke="#999" stroke-width="2" rx="8"/>
<text x="380.0" y="1250.0" text-anchor="middle" fill="#333" font-family="Arial,sans-serif" font-size="12" font-weight="bold">L10: &#x27;Terms relating to</text>
<text x="380.0" y="1264.0" text-anchor="middle" fill="#333" font-family="Arial,sans-serif" font-size="12" font-weight="bold">women&#x27;</text>
<text x="380.0" y="1282.0" text-anchor="middle" fill="#666" font-family="monospace" font-size="9">L10:F14965 —  terms relating to women</text>
<circle cx="483.93499999999995" cy="1245.0" r="9" fill="#ccc"/>
<text x="483.93499999999995" y="1249.0" text-anchor="middle" fill="#666" font-family="monospace" font-size="9" font-weight="bold">1</text>
<rect x="241.53500000000003" y="1094.0" width="276.92999999999995" height="58" fill="#e8e8e8" stroke="#999" stroke-width="2" rx="8"/>
<text x="380.0" y="1112.0" text-anchor="middle" fill="#333" font-family="Arial,sans-serif" font-size="12" font-weight="bold">L12: Female</text>
<text x="380.0" y="1126.0" text-anchor="middle" fill="#333" font-family="Arial,sans-serif" font-size="12" font-weight="bold">pronouns/possessives</text>
<text x="380.0" y="1144.0" text-anchor="middle" fill="#666" font-family="monospace" font-size="9">L12:F12940 — references to female pronouns </text>
<circle cx="500.4649999999999" cy="1107.0" r="9" fill="#ccc"/>
<text x="500.4649999999999" y="1111.0" text-anchor="middle" fill="#666" font-family="monospace" font-size="9" font-weight="bold">1</text>
<rect x="244.29000000000002" y="900.0" width="271.41999999999996" height="114" fill="#e8e8e8" stroke="#999" stroke-width="2" rx="8"/>
<text x="380.0" y="918.0" text-anchor="middle" fill="#333" font-family="Arial,sans-serif" font-size="12" font-weight="bold">L13-L14: Pronoun /</text>
<text x="380.0" y="932.0" text-anchor="middle" fill="#333" font-family="Arial,sans-serif" font-size="12" font-weight="bold">multi-pronoun sentence</text>
<text x="380.0" y="946.0" text-anchor="middle" fill="#333" font-family="Arial,sans-serif" font-size="12" font-weight="bold">detectors</text>
<text x="380.0" y="964.0" text-anchor="middle" fill="#666" font-family="monospace" font-size="9">L13:F6622 —  pronouns.</text>
<text x="380.0" y="978.0" text-anchor="middle" fill="#666" font-family="monospace" font-size="9">L13:F6622 —  pronouns.</text>
<text x="380.0" y="992.0" text-anchor="middle" fill="#666" font-family="monospace" font-size="9">L14:F5740 —  sentences with multiple prono</text>
<text x="380.0" y="1006.0" text-anchor="middle" fill="#666" font-family="monospace" font-size="9">L14:F5740 —  sentences with multiple prono</text>
<text x="380.0" y="1020.0" text-anchor="middle" fill="#666" font-family="monospace" font-size="9">... +2 more</text>
<circle cx="497.71000000000004" cy="913.0" r="9" fill="#ccc"/>
<text x="497.71000000000004" y="917.0" text-anchor="middle" fill="#666" font-family="monospace" font-size="9" font-weight="bold">6</text>
<rect x="241.53500000000003" y="720.0" width="276.92999999999995" height="100" fill="#e8e8e8" stroke="#999" stroke-width="2" rx="8"/>
<text x="380.0" y="738.0" text-anchor="middle" fill="#333" font-family="Arial,sans-serif" font-size="12" font-weight="bold">L15: Female names/stories</text>
<text x="380.0" y="752.0" text-anchor="middle" fill="#333" font-family="Arial,sans-serif" font-size="12" font-weight="bold">&amp; personal narratives of</text>
<text x="380.0" y="766.0" text-anchor="middle" fill="#333" font-family="Arial,sans-serif" font-size="12" font-weight="bold">women</text>
<text x="380.0" y="784.0" text-anchor="middle" fill="#666" font-family="monospace" font-size="9">L15:F12956 — female names and female-relate</text>
<text x="380.0" y="798.0" text-anchor="middle" fill="#666" font-family="monospace" font-size="9">L15:F3330 —  personal stories of individua</text>
<text x="380.0" y="812.0" text-anchor="middle" fill="#666" font-family="monospace" font-size="9">L15:F3330 —  personal stories of individua</text>
<text x="380.0" y="826.0" text-anchor="middle" fill="#666" font-family="monospace" font-size="9">L15:F3330 —  personal stories of individua</text>
<circle cx="500.4649999999999" cy="733.0" r="9" fill="#ccc"/>
<text x="500.4649999999999" y="737.0" text-anchor="middle" fill="#666" font-family="monospace" font-size="9" font-weight="bold">4</text>
<rect x="244.29000000000002" y="540.0" width="271.41999999999996" height="100" fill="#e8e8e8" stroke="#999" stroke-width="2" rx="8"/>
<text x="380.0" y="558.0" text-anchor="middle" fill="#333" font-family="Arial,sans-serif" font-size="12" font-weight="bold">L17: People referenced by</text>
<text x="380.0" y="572.0" text-anchor="middle" fill="#333" font-family="Arial,sans-serif" font-size="12" font-weight="bold">pronouns/possessives</text>
<text x="380.0" y="590.0" text-anchor="middle" fill="#666" font-family="monospace" font-size="9">L17:F5889 —  references to people with pro</text>
<text x="380.0" y="604.0" text-anchor="middle" fill="#666" font-family="monospace" font-size="9">L17:F5889 —  references to people with pro</text>
<text x="380.0" y="618.0" text-anchor="middle" fill="#666" font-family="monospace" font-size="9">L17:F5889 —  references to people with pro</text>
<text x="380.0" y="632.0" text-anchor="middle" fill="#666" font-family="monospace" font-size="9">L17:F5889 —  references to people with pro</text>
<circle cx="497.71000000000004" cy="553.0" r="9" fill="#ccc"/>
<text x="497.71000000000004" y="557.0" text-anchor="middle" fill="#666" font-family="monospace" font-size="9" font-weight="bold">4</text>
<rect x="121.53500000000003" y="346.0" width="276.92999999999995" height="114" fill="#e8e8e8" stroke="#999" stroke-width="2" rx="8"/>
<text x="260.0" y="364.0" text-anchor="middle" fill="#333" font-family="Arial,sans-serif" font-size="12" font-weight="bold">L18: &#x27;Women/girls being</text>
<text x="260.0" y="378.0" text-anchor="middle" fill="#333" font-family="Arial,sans-serif" font-size="12" font-weight="bold">mentioned&#x27; (POSITIVE — top</text>
<text x="260.0" y="392.0" text-anchor="middle" fill="#333" font-family="Arial,sans-serif" font-size="12" font-weight="bold">driver)</text>
<text x="260.0" y="410.0" text-anchor="middle" fill="#666" font-family="monospace" font-size="9">L18:F14677 —  instances of women or girls b</text>
<text x="260.0" y="424.0" text-anchor="middle" fill="#666" font-family="monospace" font-size="9">L18:F14677 —  instances of women or girls b</text>
<text x="260.0" y="438.0" text-anchor="middle" fill="#666" font-family="monospace" font-size="9">L18:F14677 —  instances of women or girls b</text>
<text x="260.0" y="452.0" text-anchor="middle" fill="#666" font-family="monospace" font-size="9">L18:F14677 —  instances of women or girls b</text>
<text x="260.0" y="466.0" text-anchor="middle" fill="#666" font-family="monospace" font-size="9">... +1 more</text>
<circle cx="380.465" cy="359.0" r="9" fill="#ccc"/>
<text x="380.465" y="363.0" text-anchor="middle" fill="#666" font-family="monospace" font-size="9" font-weight="bold">5</text>
<rect x="438.4649999999999" y="367.0" width="200" height="72" fill="#e8e8e8" stroke="#999" stroke-width="2" rx="8"/>
<text x="538.4649999999999" y="385.0" text-anchor="middle" fill="#333" font-family="Arial,sans-serif" font-size="12" font-weight="bold">L18: &#x27;He&#x27; detector</text>
<text x="538.4649999999999" y="399.0" text-anchor="middle" fill="#333" font-family="Arial,sans-serif" font-size="12" font-weight="bold">(NEGATIVE — suppresses</text>
<text x="538.4649999999999" y="413.0" text-anchor="middle" fill="#333" font-family="Arial,sans-serif" font-size="12" font-weight="bold">probe)</text>
<text x="538.4649999999999" y="431.0" text-anchor="middle" fill="#666" font-family="monospace" font-size="9">L18:F14743 — He</text>
<text x="538.4649999999999" y="445.0" text-anchor="middle" fill="#666" font-family="monospace" font-size="9">L18:F14743 — He</text>
<circle cx="620.4649999999999" cy="380.0" r="9" fill="#ccc"/>
<text x="620.4649999999999" y="384.0" text-anchor="middle" fill="#666" font-family="monospace" font-size="9" font-weight="bold">2</text>
<rect x="244.29000000000002" y="194.0" width="271.41999999999996" height="72" fill="#e8e8e8" stroke="#999" stroke-width="2" rx="8"/>
<text x="380.0" y="212.0" text-anchor="middle" fill="#333" font-family="Arial,sans-serif" font-size="12" font-weight="bold">L19: Women&#x27;s</text>
<text x="380.0" y="226.0" text-anchor="middle" fill="#333" font-family="Arial,sans-serif" font-size="12" font-weight="bold">names/roles/accomplishments</text>
<text x="380.0" y="244.0" text-anchor="middle" fill="#666" font-family="monospace" font-size="9">L19:F9685 —  references to women&#x27;s names a</text>
<text x="380.0" y="258.0" text-anchor="middle" fill="#666" font-family="monospace" font-size="9">L19:F9685 —  references to women&#x27;s names a</text>
<circle cx="497.71000000000004" cy="207.0" r="9" fill="#ccc"/>
<text x="497.71000000000004" y="211.0" text-anchor="middle" fill="#666" font-family="monospace" font-size="9" font-weight="bold">2</text>
<rect x="269.52" y="70.0" width="220.95999999999998" height="44" fill="#e8e8e8" stroke="#999" stroke-width="2" rx="8"/>
<text x="380.0" y="88.0" text-anchor="middle" fill="#333" font-family="Arial,sans-serif" font-size="12" font-weight="bold">Probe classification score</text>
<text x="380.0" y="102.0" text-anchor="middle" fill="#333" font-family="Arial,sans-serif" font-size="12" font-weight="bold">(profession label)</text>
<circle cx="472.47999999999996" cy="83.0" r="9" fill="#ccc"/>
<text x="472.47999999999996" y="87.0" text-anchor="middle" fill="#666" font-family="monospace" font-size="9" font-weight="bold">0</text>
<line x1="40" y1="2158" x2="1385" y2="2158" stroke="#ddd" stroke-width="1"/>
<text x="40" y="2176" fill="#666" font-family="Arial,sans-serif" font-size="10" font-weight="bold" letter-spacing="1px">PROMPT</text>
<text x="40" y="2194" fill="#333" font-family="monospace" font-size="11">"&lt;bos&gt;Until this year, she had never had a side hustle. She didn’t know about providing a service, creating a website, de"</text>
<text x="40" y="2218" fill="#666" font-family="Arial,sans-serif" font-size="10" font-weight="bold" letter-spacing="1px">TOP OUTPUTS</text>
<rect x="40" y="2223" width="100" height="20" fill="#e8e8e8" stroke="none" rx="6"/>
<text x="45" y="2237" fill="#333" font-family="Arial,sans-serif" font-size="11" font-weight="bold">(empty) <tspan fill="#555" font-size="10">100%</tspan></text>
</svg>