<svg width="2798" height="1249" xmlns="http://www.w3.org/2000/svg">
<rect width="2798" height="1249" fill="#f5f5f5"/>
<rect x="15" y="15" width="2768" height="1219" fill="white" stroke="none" rx="12"/>
<text x="40" y="48" fill="#666" font-family="Arial,sans-serif" font-size="14" font-weight="bold" letter-spacing="1px">ATTRIBUTION CIRCUIT</text>
<text x="25" y="96.0" fill="#999" font-family="monospace" font-size="10" font-weight="bold" text-anchor="start">L36</text>
<text x="25" y="255.0" fill="#999" font-family="monospace" font-size="10" font-weight="bold" text-anchor="start">L14</text>
<text x="25" y="428.0" fill="#999" font-family="monospace" font-size="10" font-weight="bold" text-anchor="start">L7</text>
<text x="25" y="573.0" fill="#999" font-family="monospace" font-size="10" font-weight="bold" text-anchor="start">L4</text>
<text x="25" y="718.0" fill="#999" font-family="monospace" font-size="10" font-weight="bold" text-anchor="start">L2</text>
<text x="25" y="870.0" fill="#999" font-family="monospace" font-size="10" font-weight="bold" text-anchor="start">L1</text>
<text x="25" y="1022.0" fill="#999" font-family="monospace" font-size="10" font-weight="bold" text-anchor="start">L0</text>
<defs><marker id="arrow" markerWidth="8" markerHeight="6" refX="8" refY="3" orient="auto"><polygon points="0,0 8,3 0,6" fill="#8B4513" fill-opacity="0.7"/></marker></defs>
<path d="M 183.51999999999998,1047.0 C 445.20324999999997,1014.5 1666.3917499999998,1014.5 1928.0749999999998,982.0" fill="none" stroke="#8B4513" stroke-width="3" stroke-opacity="0.6" marker-end="url(#arrow)"/>
<path d="M 1928.0749999999998,982.0 C 1695.86375,548.0 612.21125,548.0 380.0,114.0" fill="none" stroke="#8B4513" stroke-width="3" stroke-opacity="0.6" marker-end="url(#arrow)"/>
<path d="M 667.0799999999999,989.0 C 624.0179999999999,869.5 423.062,869.5 380.0,750.0" fill="none" stroke="#8B4513" stroke-width="3" stroke-opacity="0.6" marker-end="url(#arrow)"/>
<path d="M 667.0799999999999,1047.0 C 902.5289999999999,1018.0 2001.2909999999997,1018.0 2236.74,989.0" fill="none" stroke="#8B4513" stroke-width="3" stroke-opacity="0.6" marker-end="url(#arrow)"/>
<path d="M 380.0,678.0 C 380.0,396.0 380.0,396.0 380.0,114.0" fill="none" stroke="#8B4513" stroke-width="3" stroke-opacity="0.6" marker-end="url(#arrow)"/>
<path d="M 2236.74,989.0 C 1958.2289999999998,551.5 658.511,551.5 380.0,114.0" fill="none" stroke="#8B4513" stroke-width="3" stroke-opacity="0.6" marker-end="url(#arrow)"/>
<path d="M 907.1199999999999,989.0 C 804.6954999999999,942.0 326.7145,942.0 224.29000000000002,895.0" fill="none" stroke="#8B4513" stroke-width="3" stroke-opacity="0.6" marker-end="url(#arrow)"/>
<path d="M 224.29000000000002,837.0 C 247.6465,475.5 356.6435,475.5 380.0,114.0" fill="none" stroke="#8B4513" stroke-width="3" stroke-opacity="0.6" marker-end="url(#arrow)"/>
<path d="M 1157.6,989.0 C 1040.96,793.5 496.64,793.5 380.0,598.0" fill="none" stroke="#8B4513" stroke-width="3" stroke-opacity="0.6" marker-end="url(#arrow)"/>
<path d="M 1157.6,1047.0 C 1365.77075,1018.0 2337.23425,1018.0 2545.4049999999997,989.0" fill="none" stroke="#8B4513" stroke-width="3" stroke-opacity="0.6" marker-end="url(#arrow)"/>
<path d="M 380.0,540.0 C 380.0,327.0 380.0,327.0 380.0,114.0" fill="none" stroke="#8B4513" stroke-width="3" stroke-opacity="0.6" marker-end="url(#arrow)"/>
<path d="M 2545.4049999999997,989.0 C 2220.5942499999996,551.5 704.8107499999999,551.5 380.0,114.0" fill="none" stroke="#8B4513" stroke-width="3" stroke-opacity="0.6" marker-end="url(#arrow)"/>
<path d="M 1411.6,989.0 C 1280.2165,945.5 667.0935,945.5 535.71,902.0" fill="none" stroke="#8B4513" stroke-width="3" stroke-opacity="0.6" marker-end="url(#arrow)"/>
<path d="M 535.71,830.0 C 512.3535,645.0 403.3565,645.0 380.0,460.0" fill="none" stroke="#8B4513" stroke-width="3" stroke-opacity="0.6" marker-end="url(#arrow)"/>
<path d="M 380.0,388.0 C 380.0,251.0 380.0,251.0 380.0,114.0" fill="none" stroke="#8B4513" stroke-width="3" stroke-opacity="0.6" marker-end="url(#arrow)"/>
<path d="M 1655.12,989.0 C 1463.8519999999999,648.5 571.268,648.5 380.0,308.0" fill="none" stroke="#8B4513" stroke-width="3" stroke-opacity="0.6" marker-end="url(#arrow)"/>
<path d="M 380.0,194.0 C 380.0,154.0 380.0,154.0 380.0,114.0" fill="none" stroke="#8B4513" stroke-width="3" stroke-opacity="0.6" marker-end="url(#arrow)"/>
<path d="M 427.03999999999996,989.0 C 419.984,551.5 387.056,551.5 380.0,114.0" fill="none" stroke="#8B4513" stroke-width="3" stroke-opacity="0.6" marker-end="url(#arrow)"/>
<rect x="79.99999999999999" y="989.0" width="207.04" height="58" fill="#e8e8e8" stroke="#999" stroke-width="2" rx="8"/>
<text x="183.51999999999998" y="1007.0" text-anchor="middle" fill="#333" font-family="Arial,sans-serif" font-size="12" font-weight="bold">Emb: He (pos 1) - GENDER</text>
<text x="183.51999999999998" y="1021.0" text-anchor="middle" fill="#333" font-family="Arial,sans-serif" font-size="12" font-weight="bold">MARKER</text>
<text x="183.51999999999998" y="1039.0" text-anchor="middle" fill="#666" font-family="monospace" font-size="9">L0:F-1</text>
<circle cx="269.03999999999996" cy="1002.0" r="9" fill="#ccc"/>
<text x="269.03999999999996" y="1006.0" text-anchor="middle" fill="#666" font-family="monospace" font-size="9" font-weight="bold">1</text>
<rect x="327.03999999999996" y="989.0" width="200" height="58" fill="#e8e8e8" stroke="#999" stroke-width="2" rx="8"/>
<text x="427.03999999999996" y="1007.0" text-anchor="middle" fill="#333" font-family="Arial,sans-serif" font-size="12" font-weight="bold">Emb: also (pos 3)</text>
<text x="427.03999999999996" y="1025.0" text-anchor="middle" fill="#666" font-family="monospace" font-size="9">L0:F-1</text>
<circle cx="509.03999999999996" cy="1002.0" r="9" fill="#ccc"/>
<text x="509.03999999999996" y="1006.0" text-anchor="middle" fill="#666" font-family="monospace" font-size="9" font-weight="bold">1</text>
<rect x="567.04" y="989.0" width="200.07999999999998" height="58" fill="#e8e8e8" stroke="#999" stroke-width="2" rx="8"/>
<text x="667.0799999999999" y="1007.0" text-anchor="middle" fill="#333" font-family="Arial,sans-serif" font-size="12" font-weight="bold">Emb: Director (pos 4) -</text>
<text x="667.0799999999999" y="1021.0" text-anchor="middle" fill="#333" font-family="Arial,sans-serif" font-size="12" font-weight="bold">PROFESSION</text>
<text x="667.0799999999999" y="1039.0" text-anchor="middle" fill="#666" font-family="monospace" font-size="9">L0:F-1</text>
<circle cx="749.1199999999999" cy="1002.0" r="9" fill="#ccc"/>
<text x="749.1199999999999" y="1006.0" text-anchor="middle" fill="#666" font-family="monospace" font-size="9" font-weight="bold">1</text>
<rect x="807.1199999999999" y="989.0" width="200" height="58" fill="#e8e8e8" stroke="#999" stroke-width="2" rx="8"/>
<text x="907.1199999999999" y="1007.0" text-anchor="middle" fill="#333" font-family="Arial,sans-serif" font-size="12" font-weight="bold">Emb: Grid (pos 7)</text>
<text x="907.1199999999999" y="1025.0" text-anchor="middle" fill="#666" font-family="monospace" font-size="9">L0:F-1</text>
<circle cx="989.1199999999999" cy="1002.0" r="9" fill="#ccc"/>
<text x="989.1199999999999" y="1006.0" text-anchor="middle" fill="#666" font-family="monospace" font-size="9" font-weight="bold">1</text>
<rect x="1047.12" y="989.0" width="220.95999999999998" height="58" fill="#e8e8e8" stroke="#999" stroke-width="2" rx="8"/>
<text x="1157.6" y="1007.0" text-anchor="middle" fill="#333" font-family="Arial,sans-serif" font-size="12" font-weight="bold">Emb: Laboratory (pos 11) -</text>
<text x="1157.6" y="1021.0" text-anchor="middle" fill="#333" font-family="Arial,sans-serif" font-size="12" font-weight="bold">ACADEMIC</text>
<text x="1157.6" y="1039.0" text-anchor="middle" fill="#666" font-family="monospace" font-size="9">L0:F-1</text>
<circle cx="1250.08" cy="1002.0" r="9" fill="#ccc"/>
<text x="1250.08" y="1006.0" text-anchor="middle" fill="#666" font-family="monospace" font-size="9" font-weight="bold">1</text>
<rect x="1308.08" y="989.0" width="207.04" height="58" fill="#e8e8e8" stroke="#999" stroke-width="2" rx="8"/>
<text x="1411.6" y="1007.0" text-anchor="middle" fill="#333" font-family="Arial,sans-serif" font-size="12" font-weight="bold">Emb: Ph.D. (pos 38-40) -</text>
<text x="1411.6" y="1021.0" text-anchor="middle" fill="#333" font-family="Arial,sans-serif" font-size="12" font-weight="bold">ACADEMIC CREDENTIAL</text>
<text x="1411.6" y="1039.0" text-anchor="middle" fill="#666" font-family="monospace" font-size="9">L0:F-1</text>
<circle cx="1497.12" cy="1002.0" r="9" fill="#ccc"/>
<text x="1497.12" y="1006.0" text-anchor="middle" fill="#666" font-family="monospace" font-size="9" font-weight="bold">1</text>
<rect x="1555.12" y="989.0" width="200" height="58" fill="#e8e8e8" stroke="#999" stroke-width="2" rx="8"/>
<text x="1655.12" y="1007.0" text-anchor="middle" fill="#333" font-family="Arial,sans-serif" font-size="12" font-weight="bold">Emb: Korea (pos 46) -</text>
<text x="1655.12" y="1021.0" text-anchor="middle" fill="#333" font-family="Arial,sans-serif" font-size="12" font-weight="bold">NATIONALITY</text>
<text x="1655.12" y="1039.0" text-anchor="middle" fill="#666" font-family="monospace" font-size="9">L0:F-1</text>
<circle cx="1737.12" cy="1002.0" r="9" fill="#ccc"/>
<text x="1737.12" y="1006.0" text-anchor="middle" fill="#666" font-family="monospace" font-size="9" font-weight="bold">1</text>
<rect x="1795.12" y="982.0" width="265.90999999999997" height="72" fill="#e8e8e8" stroke="#999" stroke-width="2" rx="8"/>
<text x="1928.0749999999998" y="1000.0" text-anchor="middle" fill="#333" font-family="Arial,sans-serif" font-size="12" font-weight="bold">Gender Detection: Male</text>
<text x="1928.0749999999998" y="1014.0" text-anchor="middle" fill="#333" font-family="Arial,sans-serif" font-size="12" font-weight="bold">pronouns (He)</text>
<text x="1928.0749999999998" y="1032.0" text-anchor="middle" fill="#666" font-family="monospace" font-size="9">L0:F1069 —  references to a male person, </text>
<text x="1928.0749999999998" y="1046.0" text-anchor="middle" fill="#666" font-family="monospace" font-size="9">L0:F310 —  the pronouns &quot;she&quot;, &quot;her&quot;, an</text>
<circle cx="2043.0299999999997" cy="995.0" r="9" fill="#ccc"/>
<text x="2043.0299999999997" y="999.0" text-anchor="middle" fill="#666" font-family="monospace" font-size="9" font-weight="bold">2</text>
<rect x="244.29000000000002" y="678.0" width="271.41999999999996" height="72" fill="#e8e8e8" stroke="#999" stroke-width="2" rx="8"/>
<text x="380.0" y="696.0" text-anchor="middle" fill="#333" font-family="Arial,sans-serif" font-size="12" font-weight="bold">Profession Detection:</text>
<text x="380.0" y="710.0" text-anchor="middle" fill="#333" font-family="Arial,sans-serif" font-size="12" font-weight="bold">Director</text>
<text x="380.0" y="728.0" text-anchor="middle" fill="#666" font-family="monospace" font-size="9">L2:F4627 — the word &quot;director&quot;</text>
<text x="380.0" y="742.0" text-anchor="middle" fill="#666" font-family="monospace" font-size="9">L1:F15565 —  people&#x27;s job titles with &quot;dir</text>
<circle cx="497.71000000000004" cy="691.0" r="9" fill="#ccc"/>
<text x="497.71000000000004" y="695.0" text-anchor="middle" fill="#666" font-family="monospace" font-size="9" font-weight="bold">2</text>
<rect x="2101.0299999999997" y="989.0" width="271.41999999999996" height="58" fill="#e8e8e8" stroke="#999" stroke-width="2" rx="8"/>
<text x="2236.74" y="1007.0" text-anchor="middle" fill="#333" font-family="Arial,sans-serif" font-size="12" font-weight="bold">Authority Positions</text>
<text x="2236.74" y="1021.0" text-anchor="middle" fill="#333" font-family="Arial,sans-serif" font-size="12" font-weight="bold">Detection</text>
<text x="2236.74" y="1039.0" text-anchor="middle" fill="#666" font-family="monospace" font-size="9">L0:F12904 — mentions of the day prior or p</text>
<circle cx="2354.45" cy="1002.0" r="9" fill="#ccc"/>
<text x="2354.45" y="1006.0" text-anchor="middle" fill="#666" font-family="monospace" font-size="9" font-weight="bold">1</text>
<rect x="88.58000000000004" y="837.0" width="271.41999999999996" height="58" fill="#e8e8e8" stroke="#999" stroke-width="2" rx="8"/>
<text x="224.29000000000002" y="855.0" text-anchor="middle" fill="#333" font-family="Arial,sans-serif" font-size="12" font-weight="bold">Technical Term: Grid</text>
<text x="224.29000000000002" y="873.0" text-anchor="middle" fill="#666" font-family="monospace" font-size="9">L1:F14934 — the word &quot;grid&quot; and some relat</text>
<circle cx="342.0" cy="850.0" r="9" fill="#ccc"/>
<text x="342.0" y="854.0" text-anchor="middle" fill="#666" font-family="monospace" font-size="9" font-weight="bold">1</text>
<rect x="252.555" y="540.0" width="254.89" height="58" fill="#e8e8e8" stroke="#999" stroke-width="2" rx="8"/>
<text x="380.0" y="558.0" text-anchor="middle" fill="#333" font-family="Arial,sans-serif" font-size="12" font-weight="bold">Academic Journal Names</text>
<text x="380.0" y="576.0" text-anchor="middle" fill="#666" font-family="monospace" font-size="9">L4:F12934 —  names of academic journals</text>
<circle cx="489.445" cy="553.0" r="9" fill="#ccc"/>
<text x="489.445" y="557.0" text-anchor="middle" fill="#666" font-family="monospace" font-size="9" font-weight="bold">1</text>
<rect x="2412.45" y="989.0" width="265.90999999999997" height="58" fill="#e8e8e8" stroke="#999" stroke-width="2" rx="8"/>
<text x="2545.4049999999997" y="1007.0" text-anchor="middle" fill="#333" font-family="Arial,sans-serif" font-size="12" font-weight="bold">Laboratory Institution</text>
<text x="2545.4049999999997" y="1025.0" text-anchor="middle" fill="#666" font-family="monospace" font-size="9">L0:F5743 — the word &quot;lab&quot; and words that </text>
<circle cx="2660.3599999999997" cy="1002.0" r="9" fill="#ccc"/>
<text x="2660.3599999999997" y="1006.0" text-anchor="middle" fill="#666" font-family="monospace" font-size="9" font-weight="bold">1</text>
<rect x="400.00000000000006" y="830.0" width="271.41999999999996" height="72" fill="#e8e8e8" stroke="#999" stroke-width="2" rx="8"/>
<text x="535.71" y="848.0" text-anchor="middle" fill="#333" font-family="Arial,sans-serif" font-size="12" font-weight="bold">Ph.D. Detection</text>
<text x="535.71" y="866.0" text-anchor="middle" fill="#666" font-family="monospace" font-size="9">L1:F10132 —  the abbreviation for Doctorat</text>
<text x="535.71" y="880.0" text-anchor="middle" fill="#666" font-family="monospace" font-size="9">L2:F10852 —  academic titles and degrees</text>
<circle cx="653.4200000000001" cy="843.0" r="9" fill="#ccc"/>
<text x="653.4200000000001" y="847.0" text-anchor="middle" fill="#666" font-family="monospace" font-size="9" font-weight="bold">2</text>
<rect x="244.29000000000002" y="388.0" width="271.41999999999996" height="72" fill="#e8e8e8" stroke="#999" stroke-width="2" rx="8"/>
<text x="380.0" y="406.0" text-anchor="middle" fill="#333" font-family="Arial,sans-serif" font-size="12" font-weight="bold">Academic Degrees &amp;</text>
<text x="380.0" y="420.0" text-anchor="middle" fill="#333" font-family="Arial,sans-serif" font-size="12" font-weight="bold">Universities</text>
<text x="380.0" y="438.0" text-anchor="middle" fill="#666" font-family="monospace" font-size="9">L7:F14129 —  academic degrees, universitie</text>
<text x="380.0" y="452.0" text-anchor="middle" fill="#666" font-family="monospace" font-size="9">L6:F2254 — references to academic degrees</text>
<circle cx="497.71000000000004" cy="401.0" r="9" fill="#ccc"/>
<text x="497.71000000000004" y="405.0" text-anchor="middle" fill="#666" font-family="monospace" font-size="9" font-weight="bold">2</text>
<rect x="244.29000000000002" y="194.0" width="271.41999999999996" height="114" fill="#e8e8e8" stroke="#999" stroke-width="2" rx="8"/>
<text x="380.0" y="212.0" text-anchor="middle" fill="#333" font-family="Arial,sans-serif" font-size="12" font-weight="bold">Korea/Nationality</text>
<text x="380.0" y="226.0" text-anchor="middle" fill="#333" font-family="Arial,sans-serif" font-size="12" font-weight="bold">Detection</text>
<text x="380.0" y="244.0" text-anchor="middle" fill="#666" font-family="monospace" font-size="9">L14:F15086 —  references to Korea/Korean</text>
<text x="380.0" y="258.0" text-anchor="middle" fill="#666" font-family="monospace" font-size="9">L7:F13010 —  Korean names, especially thos</text>
<text x="380.0" y="272.0" text-anchor="middle" fill="#666" font-family="monospace" font-size="9">L5:F5563 —  words related to Korean food </text>
<text x="380.0" y="286.0" text-anchor="middle" fill="#666" font-family="monospace" font-size="9">L6:F3774 —  proper nouns or names with un</text>
<text x="380.0" y="300.0" text-anchor="middle" fill="#666" font-family="monospace" font-size="9">... +1 more</text>
<circle cx="497.71000000000004" cy="207.0" r="9" fill="#ccc"/>
<text x="497.71000000000004" y="211.0" text-anchor="middle" fill="#666" font-family="monospace" font-size="9" font-weight="bold">5</text>
<rect x="280.0" y="70.0" width="200" height="44" fill="#e8e8e8" stroke="#999" stroke-width="2" rx="8"/>
<text x="380.0" y="88.0" text-anchor="middle" fill="#333" font-family="Arial,sans-serif" font-size="12" font-weight="bold">Probe Output</text>
<text x="380.0" y="102.0" text-anchor="middle" fill="#333" font-family="Arial,sans-serif" font-size="12" font-weight="bold">(Classification Score)</text>
<circle cx="462.0" cy="83.0" r="9" fill="#ccc"/>
<text x="462.0" y="87.0" text-anchor="middle" fill="#666" font-family="monospace" font-size="9" font-weight="bold">0</text>
<line x1="40" y1="1134" x2="2758" y2="1134" stroke="#ddd" stroke-width="1"/>
<text x="40" y="1152" fill="#666" font-family="Arial,sans-serif" font-size="10" font-weight="bold" letter-spacing="1px">PROMPT</text>
<text x="40" y="1170" fill="#333" font-family="monospace" font-size="11">"&lt;bos&gt;He is also Director of Mobile Grid and Cloud Computing Laboratory. His research interests lie in the fields of para"</text>
<text x="40" y="1194" fill="#666" font-family="Arial,sans-serif" font-size="10" font-weight="bold" letter-spacing="1px">TOP OUTPUTS</text>
<rect x="40" y="1199" width="100" height="20" fill="#e8e8e8" stroke="none" rx="6"/>
<text x="45" y="1213" fill="#333" font-family="Arial,sans-serif" font-size="11" font-weight="bold">(empty) <tspan fill="#555" font-size="10">100%</tspan></text>
</svg>