<svg width="3765" height="861" xmlns="http://www.w3.org/2000/svg">
<rect width="3765" height="861" fill="#f5f5f5"/>
<rect x="15" y="15" width="3735" height="831" fill="white" stroke="none" rx="12"/>
<text x="40" y="48" fill="#666" font-family="Arial,sans-serif" font-size="14" font-weight="bold" letter-spacing="1px">ATTRIBUTION CIRCUIT</text>
<text x="25" y="96.0" fill="#999" font-family="monospace" font-size="10" font-weight="bold" text-anchor="start">L36</text>
<text x="25" y="227.0" fill="#999" font-family="monospace" font-size="10" font-weight="bold" text-anchor="start">L4</text>
<text x="25" y="365.0" fill="#999" font-family="monospace" font-size="10" font-weight="bold" text-anchor="start">L2</text>
<text x="25" y="503.0" fill="#999" font-family="monospace" font-size="10" font-weight="bold" text-anchor="start">L1</text>
<text x="25" y="641.0" fill="#999" font-family="monospace" font-size="10" font-weight="bold" text-anchor="start">L0</text>
<defs><marker id="arrow" markerWidth="8" markerHeight="6" refX="8" refY="3" orient="auto"><polygon points="0,0 8,3 0,6" fill="#8B4513" fill-opacity="0.7"/></marker></defs>
<path d="M 212.95499999999998,608.0 C 238.01174999999998,361.0 354.94325,361.0 380.0,114.0" fill="none" stroke="#8B4513" stroke-width="3" stroke-opacity="0.6" marker-end="url(#arrow)"/>
<path d="M 489.42999999999995,608.0 C 473.0155,361.0 396.4145,361.0 380.0,114.0" fill="none" stroke="#8B4513" stroke-width="3" stroke-opacity="0.6" marker-end="url(#arrow)"/>
<path d="M 732.9899999999999,608.0 C 680.0414999999999,361.0 432.94849999999997,361.0 380.0,114.0" fill="none" stroke="#8B4513" stroke-width="3" stroke-opacity="0.6" marker-end="url(#arrow)"/>
<path d="M 1005.9849999999999,608.0 C 912.0872499999999,361.0 473.89775,361.0 380.0,114.0" fill="none" stroke="#8B4513" stroke-width="3" stroke-opacity="0.6" marker-end="url(#arrow)"/>
<path d="M 1314.65,608.0 C 1174.4525,361.0 520.1975,361.0 380.0,114.0" fill="none" stroke="#8B4513" stroke-width="3" stroke-opacity="0.6" marker-end="url(#arrow)"/>
<path d="M 224.29000000000002,194.0 C 247.6465,154.0 356.6435,154.0 380.0,114.0" fill="none" stroke="#8B4513" stroke-width="3" stroke-opacity="0.6" marker-end="url(#arrow)"/>
<path d="M 532.9549999999999,194.0 C 510.01174999999995,154.0 402.94325,154.0 380.0,114.0" fill="none" stroke="#8B4513" stroke-width="3" stroke-opacity="0.6" marker-end="url(#arrow)"/>
<path d="M 380.0,332.0 C 380.0,223.0 380.0,223.0 380.0,114.0" fill="none" stroke="#8B4513" stroke-width="3" stroke-opacity="0.6" marker-end="url(#arrow)"/>
<path d="M 1600.8400000000001,608.0 C 1417.7140000000002,361.0 563.126,361.0 380.0,114.0" fill="none" stroke="#8B4513" stroke-width="3" stroke-opacity="0.6" marker-end="url(#arrow)"/>
<path d="M 380.0,470.0 C 380.0,292.0 380.0,292.0 380.0,114.0" fill="none" stroke="#8B4513" stroke-width="3" stroke-opacity="0.6" marker-end="url(#arrow)"/>
<path d="M 1851.3200000000002,615.0 C 1607.2655000000002,433.5 468.34450000000004,433.5 224.29000000000002,252.0" fill="none" stroke="#8B4513" stroke-width="3" stroke-opacity="0.6" marker-end="url(#arrow)"/>
<path d="M 2091.32,659.0 C 1851.0365000000002,633.5 729.7135,633.5 489.42999999999995,608.0" fill="none" stroke="#8B4513" stroke-width="3" stroke-opacity="0.6" marker-end="url(#arrow)"/>
<path d="M 2331.32,659.0 C 2091.5705000000003,633.5 972.7394999999999,633.5 732.9899999999999,608.0" fill="none" stroke="#8B4513" stroke-width="3" stroke-opacity="0.6" marker-end="url(#arrow)"/>
<path d="M 2571.32,659.0 C 2336.51975,633.5 1240.78525,633.5 1005.9849999999999,608.0" fill="none" stroke="#8B4513" stroke-width="3" stroke-opacity="0.6" marker-end="url(#arrow)"/>
<path d="M 2811.32,615.0 C 2446.6220000000003,571.5 744.6980000000001,571.5 380.0,528.0" fill="none" stroke="#8B4513" stroke-width="3" stroke-opacity="0.6" marker-end="url(#arrow)"/>
<path d="M 2811.32,659.0 C 2586.8195,633.5 1539.1505000000002,633.5 1314.65,608.0" fill="none" stroke="#8B4513" stroke-width="3" stroke-opacity="0.6" marker-end="url(#arrow)"/>
<path d="M 3051.32,659.0 C 2625.56525,633.5 638.70975,633.5 212.95499999999998,608.0" fill="none" stroke="#8B4513" stroke-width="3" stroke-opacity="0.6" marker-end="url(#arrow)"/>
<path d="M 3298.32,615.0 C 2860.572,502.5 817.748,502.5 380.0,390.0" fill="none" stroke="#8B4513" stroke-width="3" stroke-opacity="0.6" marker-end="url(#arrow)"/>
<path d="M 3545.36,659.0 C 3253.6820000000002,633.5 1892.518,633.5 1600.8400000000001,608.0" fill="none" stroke="#8B4513" stroke-width="3" stroke-opacity="0.6" marker-end="url(#arrow)"/>
<rect x="269.52" y="70.0" width="220.95999999999998" height="44" fill="#e8e8e8" stroke="#999" stroke-width="2" rx="8"/>
<text x="380.0" y="88.0" text-anchor="middle" fill="#333" font-family="Arial,sans-serif" font-size="12" font-weight="bold">Probe Classification Score</text>
<circle cx="472.47999999999996" cy="83.0" r="9" fill="#ccc"/>
<text x="472.47999999999996" y="87.0" text-anchor="middle" fill="#666" font-family="monospace" font-size="9" font-weight="bold">0</text>
<rect x="80.0" y="608.0" width="265.90999999999997" height="58" fill="#e8e8e8" stroke="#999" stroke-width="2" rx="8"/>
<text x="212.95499999999998" y="626.0" text-anchor="middle" fill="#333" font-family="Arial,sans-serif" font-size="12" font-weight="bold">Spurious: Negation Pattern</text>
<text x="212.95499999999998" y="640.0" text-anchor="middle" fill="#333" font-family="Arial,sans-serif" font-size="12" font-weight="bold">(haven&#x27;t)</text>
<text x="212.95499999999998" y="658.0" text-anchor="middle" fill="#666" font-family="monospace" font-size="9">L0:F6236 — the letter &quot;t&quot; when it follows</text>
<circle cx="327.90999999999997" cy="621.0" r="9" fill="#ccc"/>
<text x="327.90999999999997" y="625.0" text-anchor="middle" fill="#666" font-family="monospace" font-size="9" font-weight="bold">1</text>
<rect x="385.90999999999997" y="608.0" width="207.04" height="58" fill="#e8e8e8" stroke="#999" stroke-width="2" rx="8"/>
<text x="489.42999999999995" y="626.0" text-anchor="middle" fill="#333" font-family="Arial,sans-serif" font-size="12" font-weight="bold">Spurious: Lexical &#x27;well&#x27;</text>
<text x="489.42999999999995" y="640.0" text-anchor="middle" fill="#333" font-family="Arial,sans-serif" font-size="12" font-weight="bold">Detection</text>
<text x="489.42999999999995" y="658.0" text-anchor="middle" fill="#666" font-family="monospace" font-size="9">L0:F8352 —  the word &quot;well&quot;</text>
<circle cx="574.9499999999999" cy="621.0" r="9" fill="#ccc"/>
<text x="574.9499999999999" y="625.0" text-anchor="middle" fill="#666" font-family="monospace" font-size="9" font-weight="bold">1</text>
<rect x="632.9499999999999" y="608.0" width="200.07999999999998" height="58" fill="#e8e8e8" stroke="#999" stroke-width="2" rx="8"/>
<text x="732.9899999999999" y="626.0" text-anchor="middle" fill="#333" font-family="Arial,sans-serif" font-size="12" font-weight="bold">Spurious: Lexical &#x27;the&#x27;</text>
<text x="732.9899999999999" y="640.0" text-anchor="middle" fill="#333" font-family="Arial,sans-serif" font-size="12" font-weight="bold">Detection</text>
<text x="732.9899999999999" y="658.0" text-anchor="middle" fill="#666" font-family="monospace" font-size="9">L0:F3820 — the word &quot;the&quot;</text>
<circle cx="815.03" cy="621.0" r="9" fill="#ccc"/>
<text x="815.03" y="625.0" text-anchor="middle" fill="#666" font-family="monospace" font-size="9" font-weight="bold">1</text>
<rect x="873.03" y="608.0" width="265.90999999999997" height="58" fill="#e8e8e8" stroke="#999" stroke-width="2" rx="8"/>
<text x="1005.9849999999999" y="626.0" text-anchor="middle" fill="#333" font-family="Arial,sans-serif" font-size="12" font-weight="bold">Spurious: Affirmation</text>
<text x="1005.9849999999999" y="640.0" text-anchor="middle" fill="#333" font-family="Arial,sans-serif" font-size="12" font-weight="bold">Adverb Pattern (yeah)</text>
<text x="1005.9849999999999" y="658.0" text-anchor="middle" fill="#666" font-family="monospace" font-size="9">L0:F4541 —  adverbs of certainty such as </text>
<circle cx="1120.94" cy="621.0" r="9" fill="#ccc"/>
<text x="1120.94" y="625.0" text-anchor="middle" fill="#666" font-family="monospace" font-size="9" font-weight="bold">1</text>
<rect x="1178.94" y="608.0" width="271.41999999999996" height="58" fill="#e8e8e8" stroke="#999" stroke-width="2" rx="8"/>
<text x="1314.65" y="626.0" text-anchor="middle" fill="#333" font-family="Arial,sans-serif" font-size="12" font-weight="bold">Spurious: Polysemous</text>
<text x="1314.65" y="640.0" text-anchor="middle" fill="#333" font-family="Arial,sans-serif" font-size="12" font-weight="bold">&#x27;double&#x27; (LaTeX)</text>
<text x="1314.65" y="658.0" text-anchor="middle" fill="#666" font-family="monospace" font-size="9">L0:F10780 —  LaTeX commands for including </text>
<circle cx="1432.3600000000001" cy="621.0" r="9" fill="#ccc"/>
<text x="1432.3600000000001" y="625.0" text-anchor="middle" fill="#666" font-family="monospace" font-size="9" font-weight="bold">1</text>
<rect x="91.33500000000004" y="194.0" width="265.90999999999997" height="58" fill="#e8e8e8" stroke="#999" stroke-width="2" rx="8"/>
<text x="224.29000000000002" y="212.0" text-anchor="middle" fill="#333" font-family="Arial,sans-serif" font-size="12" font-weight="bold">Semantic: Filler Word</text>
<text x="224.29000000000002" y="226.0" text-anchor="middle" fill="#333" font-family="Arial,sans-serif" font-size="12" font-weight="bold">Detection (uh)</text>
<text x="224.29000000000002" y="244.0" text-anchor="middle" fill="#666" font-family="monospace" font-size="9">L4:F9602 —  interjections and filler word</text>
<circle cx="339.245" cy="207.0" r="9" fill="#ccc"/>
<text x="339.245" y="211.0" text-anchor="middle" fill="#666" font-family="monospace" font-size="9" font-weight="bold">1</text>
<rect x="397.24499999999995" y="194.0" width="271.41999999999996" height="58" fill="#e8e8e8" stroke="#999" stroke-width="2" rx="8"/>
<text x="532.9549999999999" y="212.0" text-anchor="middle" fill="#333" font-family="Arial,sans-serif" font-size="12" font-weight="bold">Semantic: Agreement</text>
<text x="532.9549999999999" y="226.0" text-anchor="middle" fill="#333" font-family="Arial,sans-serif" font-size="12" font-weight="bold">Expressions (well/yeah)</text>
<text x="532.9549999999999" y="244.0" text-anchor="middle" fill="#666" font-family="monospace" font-size="9">L4:F12126 —  expressions of agreement or a</text>
<circle cx="650.665" cy="207.0" r="9" fill="#ccc"/>
<text x="650.665" y="211.0" text-anchor="middle" fill="#666" font-family="monospace" font-size="9" font-weight="bold">1</text>
<rect x="247.04500000000002" y="332.0" width="265.90999999999997" height="58" fill="#e8e8e8" stroke="#999" stroke-width="2" rx="8"/>
<text x="380.0" y="350.0" text-anchor="middle" fill="#333" font-family="Arial,sans-serif" font-size="12" font-weight="bold">Semantic: Sports</text>
<text x="380.0" y="364.0" text-anchor="middle" fill="#333" font-family="Arial,sans-serif" font-size="12" font-weight="bold">Tournament Context</text>
<text x="380.0" y="382.0" text-anchor="middle" fill="#666" font-family="monospace" font-size="9">L2:F5201 — awards and accomplishments in </text>
<circle cx="494.9549999999999" cy="345.0" r="9" fill="#ccc"/>
<text x="494.9549999999999" y="349.0" text-anchor="middle" fill="#666" font-family="monospace" font-size="9" font-weight="bold">1</text>
<rect x="1490.3600000000001" y="608.0" width="220.95999999999998" height="58" fill="#e8e8e8" stroke="#999" stroke-width="2" rx="8"/>
<text x="1600.8400000000001" y="626.0" text-anchor="middle" fill="#333" font-family="Arial,sans-serif" font-size="12" font-weight="bold">Semantic: Causal Connector</text>
<text x="1600.8400000000001" y="640.0" text-anchor="middle" fill="#333" font-family="Arial,sans-serif" font-size="12" font-weight="bold">(because)</text>
<text x="1600.8400000000001" y="658.0" text-anchor="middle" fill="#666" font-family="monospace" font-size="9">L0:F16366 —  the word &quot;because&quot;</text>
<circle cx="1693.3200000000002" cy="621.0" r="9" fill="#ccc"/>
<text x="1693.3200000000002" y="625.0" text-anchor="middle" fill="#666" font-family="monospace" font-size="9" font-weight="bold">1</text>
<rect x="249.8" y="470.0" width="260.4" height="58" fill="#e8e8e8" stroke="#999" stroke-width="2" rx="8"/>
<text x="380.0" y="488.0" text-anchor="middle" fill="#333" font-family="Arial,sans-serif" font-size="12" font-weight="bold">Semantic: &#x27;double&#x27; in NC</text>
<text x="380.0" y="502.0" text-anchor="middle" fill="#333" font-family="Arial,sans-serif" font-size="12" font-weight="bold">Double A</text>
<text x="380.0" y="520.0" text-anchor="middle" fill="#666" font-family="monospace" font-size="9">L1:F177 —  the word &quot;double&quot; and words t</text>
<circle cx="492.2" cy="483.0" r="9" fill="#ccc"/>
<text x="492.2" y="487.0" text-anchor="middle" fill="#666" font-family="monospace" font-size="9" font-weight="bold">1</text>
<rect x="1751.3200000000002" y="615.0" width="200" height="44" fill="#e8e8e8" stroke="#999" stroke-width="2" rx="8"/>
<text x="1851.3200000000002" y="633.0" text-anchor="middle" fill="#333" font-family="Arial,sans-serif" font-size="12" font-weight="bold">Emb: &#x27; uh&#x27; (pos 4)</text>
<circle cx="1933.3200000000002" cy="628.0" r="9" fill="#ccc"/>
<text x="1933.3200000000002" y="632.0" text-anchor="middle" fill="#666" font-family="monospace" font-size="9" font-weight="bold">0</text>
<rect x="1991.3200000000002" y="615.0" width="200" height="44" fill="#e8e8e8" stroke="#999" stroke-width="2" rx="8"/>
<text x="2091.32" y="633.0" text-anchor="middle" fill="#333" font-family="Arial,sans-serif" font-size="12" font-weight="bold">Emb: &#x27; well&#x27; (pos 2)</text>
<circle cx="2173.32" cy="628.0" r="9" fill="#ccc"/>
<text x="2173.32" y="632.0" text-anchor="middle" fill="#666" font-family="monospace" font-size="9" font-weight="bold">0</text>
<rect x="2231.32" y="615.0" width="200" height="44" fill="#e8e8e8" stroke="#999" stroke-width="2" rx="8"/>
<text x="2331.32" y="633.0" text-anchor="middle" fill="#333" font-family="Arial,sans-serif" font-size="12" font-weight="bold">Emb: &#x27; the&#x27; (pos 3)</text>
<circle cx="2413.32" cy="628.0" r="9" fill="#ccc"/>
<text x="2413.32" y="632.0" text-anchor="middle" fill="#666" font-family="monospace" font-size="9" font-weight="bold">0</text>
<rect x="2471.32" y="615.0" width="200" height="44" fill="#e8e8e8" stroke="#999" stroke-width="2" rx="8"/>
<text x="2571.32" y="633.0" text-anchor="middle" fill="#333" font-family="Arial,sans-serif" font-size="12" font-weight="bold">Emb: &#x27;yeah&#x27; (pos 1)</text>
<circle cx="2653.32" cy="628.0" r="9" fill="#ccc"/>
<text x="2653.32" y="632.0" text-anchor="middle" fill="#666" font-family="monospace" font-size="9" font-weight="bold">0</text>
<rect x="2711.32" y="615.0" width="200" height="44" fill="#e8e8e8" stroke="#999" stroke-width="2" rx="8"/>
<text x="2811.32" y="633.0" text-anchor="middle" fill="#333" font-family="Arial,sans-serif" font-size="12" font-weight="bold">Emb: &#x27;double&#x27; (pos 6)</text>
<circle cx="2893.32" cy="628.0" r="9" fill="#ccc"/>
<text x="2893.32" y="632.0" text-anchor="middle" fill="#666" font-family="monospace" font-size="9" font-weight="bold">0</text>
<rect x="2951.32" y="615.0" width="200" height="44" fill="#e8e8e8" stroke="#999" stroke-width="2" rx="8"/>
<text x="3051.32" y="633.0" text-anchor="middle" fill="#333" font-family="Arial,sans-serif" font-size="12" font-weight="bold">Emb: &#x27;t&#x27; after &#x27;haven&#x27;</text>
<text x="3051.32" y="647.0" text-anchor="middle" fill="#333" font-family="Arial,sans-serif" font-size="12" font-weight="bold">(pos 37)</text>
<circle cx="3133.32" cy="628.0" r="9" fill="#ccc"/>
<text x="3133.32" y="632.0" text-anchor="middle" fill="#666" font-family="monospace" font-size="9" font-weight="bold">0</text>
<rect x="3191.32" y="615.0" width="214.0" height="44" fill="#e8e8e8" stroke="#999" stroke-width="2" rx="8"/>
<text x="3298.32" y="633.0" text-anchor="middle" fill="#333" font-family="Arial,sans-serif" font-size="12" font-weight="bold">Emb: &#x27;tournament&#x27; (pos 8)</text>
<circle cx="3387.32" cy="628.0" r="9" fill="#ccc"/>
<text x="3387.32" y="632.0" text-anchor="middle" fill="#666" font-family="monospace" font-size="9" font-weight="bold">0</text>
<rect x="3445.32" y="615.0" width="200.07999999999998" height="44" fill="#e8e8e8" stroke="#999" stroke-width="2" rx="8"/>
<text x="3545.36" y="633.0" text-anchor="middle" fill="#333" font-family="Arial,sans-serif" font-size="12" font-weight="bold">Emb: &#x27;because&#x27; (pos 25)</text>
<circle cx="3627.4" cy="628.0" r="9" fill="#ccc"/>
<text x="3627.4" y="632.0" text-anchor="middle" fill="#666" font-family="monospace" font-size="9" font-weight="bold">0</text>
<line x1="40" y1="746" x2="3725" y2="746" stroke="#ddd" stroke-width="1"/>
<text x="40" y="764" fill="#666" font-family="Arial,sans-serif" font-size="10" font-weight="bold" letter-spacing="1px">PROMPT</text>
<text x="40" y="782" fill="#333" font-family="monospace" font-size="11">"&lt;bos&gt;yeah well the uh NC double A tournament&#x27;s going on right now and uh i haven&#x27;t watched it this year because Louisvil"</text>
<text x="40" y="806" fill="#666" font-family="Arial,sans-serif" font-size="10" font-weight="bold" letter-spacing="1px">TOP OUTPUTS</text>
<rect x="40" y="811" width="100" height="20" fill="#e8e8e8" stroke="none" rx="6"/>
<text x="45" y="825" fill="#333" font-family="Arial,sans-serif" font-size="11" font-weight="bold">(empty) <tspan fill="#555" font-size="10">100%</tspan></text>
</svg>