<svg width="1700" height="1193" xmlns="http://www.w3.org/2000/svg">
<rect width="1700" height="1193" fill="#f5f5f5"/>
<rect x="15" y="15" width="1670" height="1163" fill="white" stroke="none" rx="12"/>
<text x="40" y="48" fill="#666" font-family="Arial,sans-serif" font-size="14" font-weight="bold" letter-spacing="1px">ATTRIBUTION CIRCUIT</text>
<text x="25" y="96.0" fill="#999" font-family="monospace" font-size="10" font-weight="bold" text-anchor="start">L36</text>
<text x="25" y="227.0" fill="#999" font-family="monospace" font-size="10" font-weight="bold" text-anchor="start">L8</text>
<text x="25" y="365.0" fill="#999" font-family="monospace" font-size="10" font-weight="bold" text-anchor="start">L6</text>
<text x="25" y="503.0" fill="#999" font-family="monospace" font-size="10" font-weight="bold" text-anchor="start">L4</text>
<text x="25" y="641.0" fill="#999" font-family="monospace" font-size="10" font-weight="bold" text-anchor="start">L3</text>
<text x="25" y="807.0" fill="#999" font-family="monospace" font-size="10" font-weight="bold" text-anchor="start">L2</text>
<text x="25" y="973.0" fill="#999" font-family="monospace" font-size="10" font-weight="bold" text-anchor="start">L0</text>
<defs><marker id="arrow" markerWidth="8" markerHeight="6" refX="8" refY="3" orient="auto"><polygon points="0,0 8,3 0,6" fill="#8B4513" fill-opacity="0.7"/></marker></defs>
<path d="M 187.0,940.0 C 191.3065,734.0 211.40349999999998,734.0 215.70999999999998,528.0" fill="none" stroke="#8B4513" stroke-width="3" stroke-opacity="0.6" marker-end="url(#arrow)"/>
<path d="M 434.0,998.0 C 586.09925,969.0 1295.89575,969.0 1447.995,940.0" fill="none" stroke="#8B4513" stroke-width="3" stroke-opacity="0.6" marker-end="url(#arrow)"/>
<path d="M 434.0,940.0 C 447.9695,734.0 513.1605,734.0 527.1299999999999,528.0" fill="none" stroke="#8B4513" stroke-width="3" stroke-opacity="0.6" marker-end="url(#arrow)"/>
<path d="M 434.0,940.0 C 425.9,665.0 388.1,665.0 380.0,390.0" fill="none" stroke="#8B4513" stroke-width="3" stroke-opacity="0.6" marker-end="url(#arrow)"/>
<path d="M 677.52,940.0 C 701.26125,734.0 812.0537499999998,734.0 835.7949999999998,528.0" fill="none" stroke="#8B4513" stroke-width="3" stroke-opacity="0.6" marker-end="url(#arrow)"/>
<path d="M 677.52,940.0 C 654.9615,734.0 549.6884999999999,734.0 527.1299999999999,528.0" fill="none" stroke="#8B4513" stroke-width="3" stroke-opacity="0.6" marker-end="url(#arrow)"/>
<path d="M 921.04,940.0 C 839.884,900.0 461.156,900.0 380.0,860.0" fill="none" stroke="#8B4513" stroke-width="3" stroke-opacity="0.6" marker-end="url(#arrow)"/>
<path d="M 921.04,940.0 C 954.1397499999999,734.0 1108.6052499999998,734.0 1141.705,528.0" fill="none" stroke="#8B4513" stroke-width="3" stroke-opacity="0.6" marker-end="url(#arrow)"/>
<path d="M 921.04,940.0 C 996.1329999999999,734.0 1346.5669999999998,734.0 1421.6599999999999,528.0" fill="none" stroke="#8B4513" stroke-width="3" stroke-opacity="0.6" marker-end="url(#arrow)"/>
<path d="M 1168.04,940.0 C 1049.834,527.0 498.206,527.0 380.0,114.0" fill="none" stroke="#8B4513" stroke-width="3" stroke-opacity="0.6" marker-end="url(#arrow)"/>
<path d="M 380.0,746.0 C 494.25575,637.0 1027.44925,637.0 1141.705,528.0" fill="none" stroke="#8B4513" stroke-width="3" stroke-opacity="0.6" marker-end="url(#arrow)"/>
<path d="M 380.0,746.0 C 536.249,637.0 1265.4109999999998,637.0 1421.6599999999999,528.0" fill="none" stroke="#8B4513" stroke-width="3" stroke-opacity="0.6" marker-end="url(#arrow)"/>
<path d="M 215.70999999999998,470.0 C 240.3535,292.0 355.3565,292.0 380.0,114.0" fill="none" stroke="#8B4513" stroke-width="3" stroke-opacity="0.6" marker-end="url(#arrow)"/>
<path d="M 527.1299999999999,470.0 C 505.0604999999999,292.0 402.0695,292.0 380.0,114.0" fill="none" stroke="#8B4513" stroke-width="3" stroke-opacity="0.6" marker-end="url(#arrow)"/>
<path d="M 835.7949999999998,470.0 C 767.4257499999999,292.0 448.36924999999997,292.0 380.0,114.0" fill="none" stroke="#8B4513" stroke-width="3" stroke-opacity="0.6" marker-end="url(#arrow)"/>
<path d="M 380.0,332.0 C 380.0,223.0 380.0,223.0 380.0,114.0" fill="none" stroke="#8B4513" stroke-width="3" stroke-opacity="0.6" marker-end="url(#arrow)"/>
<path d="M 1141.705,470.0 C 1027.44925,292.0 494.25575,292.0 380.0,114.0" fill="none" stroke="#8B4513" stroke-width="3" stroke-opacity="0.6" marker-end="url(#arrow)"/>
<path d="M 1421.6599999999999,470.0 C 1265.4109999999998,292.0 536.249,292.0 380.0,114.0" fill="none" stroke="#8B4513" stroke-width="3" stroke-opacity="0.6" marker-end="url(#arrow)"/>
<path d="M 380.0,608.0 C 380.0,361.0 380.0,361.0 380.0,114.0" fill="none" stroke="#8B4513" stroke-width="3" stroke-opacity="0.6" marker-end="url(#arrow)"/>
<path d="M 1447.995,940.0 C 1287.79575,527.0 540.19925,527.0 380.0,114.0" fill="none" stroke="#8B4513" stroke-width="3" stroke-opacity="0.6" marker-end="url(#arrow)"/>
<path d="M 380.0,194.0 C 380.0,154.0 380.0,154.0 380.0,114.0" fill="none" stroke="#8B4513" stroke-width="3" stroke-opacity="0.6" marker-end="url(#arrow)"/>
<rect x="80.0" y="940.0" width="214.0" height="58" fill="#e8e8e8" stroke="#999" stroke-width="2" rx="8"/>
<text x="187.0" y="958.0" text-anchor="middle" fill="#333" font-family="Arial,sans-serif" font-size="12" font-weight="bold">Emb: &#x27; strangest&#x27; (pos 2)</text>
<text x="187.0" y="976.0" text-anchor="middle" fill="#666" font-family="monospace" font-size="9">L0:F-1</text>
<circle cx="276.0" cy="953.0" r="9" fill="#ccc"/>
<text x="276.0" y="957.0" text-anchor="middle" fill="#666" font-family="monospace" font-size="9" font-weight="bold">1</text>
<rect x="334.0" y="940.0" width="200" height="58" fill="#e8e8e8" stroke="#999" stroke-width="2" rx="8"/>
<text x="434.0" y="958.0" text-anchor="middle" fill="#333" font-family="Arial,sans-serif" font-size="12" font-weight="bold">Emb: &#x27; role&#x27; (pos 3)</text>
<text x="434.0" y="976.0" text-anchor="middle" fill="#666" font-family="monospace" font-size="9">L0:F-1</text>
<circle cx="516.0" cy="953.0" r="9" fill="#ccc"/>
<text x="516.0" y="957.0" text-anchor="middle" fill="#666" font-family="monospace" font-size="9" font-weight="bold">1</text>
<rect x="574.0" y="940.0" width="207.04" height="58" fill="#e8e8e8" stroke="#999" stroke-width="2" rx="8"/>
<text x="677.52" y="958.0" text-anchor="middle" fill="#333" font-family="Arial,sans-serif" font-size="12" font-weight="bold">Emb: &#x27; reversal&#x27; (pos 4)</text>
<text x="677.52" y="976.0" text-anchor="middle" fill="#666" font-family="monospace" font-size="9">L0:F-1</text>
<circle cx="763.04" cy="953.0" r="9" fill="#ccc"/>
<text x="763.04" y="957.0" text-anchor="middle" fill="#666" font-family="monospace" font-size="9" font-weight="bold">1</text>
<rect x="821.04" y="940.0" width="200" height="58" fill="#e8e8e8" stroke="#999" stroke-width="2" rx="8"/>
<text x="921.04" y="958.0" text-anchor="middle" fill="#333" font-family="Arial,sans-serif" font-size="12" font-weight="bold">Emb: &#x27; now&#x27; (pos 9)</text>
<text x="921.04" y="976.0" text-anchor="middle" fill="#666" font-family="monospace" font-size="9">L0:F-1</text>
<circle cx="1003.04" cy="953.0" r="9" fill="#ccc"/>
<text x="1003.04" y="957.0" text-anchor="middle" fill="#666" font-family="monospace" font-size="9" font-weight="bold">1</text>
<rect x="1061.04" y="940.0" width="214.0" height="58" fill="#e8e8e8" stroke="#999" stroke-width="2" rx="8"/>
<text x="1168.04" y="958.0" text-anchor="middle" fill="#333" font-family="Arial,sans-serif" font-size="12" font-weight="bold">Emb: &#x27; concerns&#x27; (pos 11)</text>
<text x="1168.04" y="976.0" text-anchor="middle" fill="#666" font-family="monospace" font-size="9">L0:F-1</text>
<circle cx="1257.04" cy="953.0" r="9" fill="#ccc"/>
<text x="1257.04" y="957.0" text-anchor="middle" fill="#666" font-family="monospace" font-size="9" font-weight="bold">1</text>
<rect x="247.04500000000002" y="746.0" width="265.90999999999997" height="114" fill="#e8e8e8" stroke="#999" stroke-width="2" rx="8"/>
<text x="380.0" y="764.0" text-anchor="middle" fill="#333" font-family="Arial,sans-serif" font-size="12" font-weight="bold">Early &#x27;now&#x27; detectors</text>
<text x="380.0" y="778.0" text-anchor="middle" fill="#333" font-family="Arial,sans-serif" font-size="12" font-weight="bold">(L0-L3)</text>
<text x="380.0" y="796.0" text-anchor="middle" fill="#666" font-family="monospace" font-size="9">L0:F5232 —  the word &quot;now&quot;</text>
<text x="380.0" y="810.0" text-anchor="middle" fill="#666" font-family="monospace" font-size="9">L0:F5188 —  the word &quot;now&quot;</text>
<text x="380.0" y="824.0" text-anchor="middle" fill="#666" font-family="monospace" font-size="9">L2:F4983 —  the word &quot;now&quot;</text>
<text x="380.0" y="838.0" text-anchor="middle" fill="#666" font-family="monospace" font-size="9">L2:F3705 —  references to particular year</text>
<text x="380.0" y="852.0" text-anchor="middle" fill="#666" font-family="monospace" font-size="9">... +2 more</text>
<circle cx="494.9549999999999" cy="759.0" r="9" fill="#ccc"/>
<text x="494.9549999999999" y="763.0" text-anchor="middle" fill="#666" font-family="monospace" font-size="9" font-weight="bold">6</text>
<rect x="80.0" y="470.0" width="271.41999999999996" height="58" fill="#e8e8e8" stroke="#999" stroke-width="2" rx="8"/>
<text x="215.70999999999998" y="488.0" text-anchor="middle" fill="#333" font-family="Arial,sans-serif" font-size="12" font-weight="bold">Spurious: &#x27;-ly&#x27;/&#x27;strange&#x27;</text>
<text x="215.70999999999998" y="502.0" text-anchor="middle" fill="#333" font-family="Arial,sans-serif" font-size="12" font-weight="bold">word detector (L4:F12799)</text>
<text x="215.70999999999998" y="520.0" text-anchor="middle" fill="#666" font-family="monospace" font-size="9">L4:F12799 —  words ending in &quot;-ly&quot; along w</text>
<circle cx="333.41999999999996" cy="483.0" r="9" fill="#ccc"/>
<text x="333.41999999999996" y="487.0" text-anchor="middle" fill="#666" font-family="monospace" font-size="9" font-weight="bold">1</text>
<rect x="391.4199999999999" y="470.0" width="271.41999999999996" height="58" fill="#e8e8e8" stroke="#999" stroke-width="2" rx="8"/>
<text x="527.1299999999999" y="488.0" text-anchor="middle" fill="#333" font-family="Arial,sans-serif" font-size="12" font-weight="bold">Semantic: &#x27;role&#x27; in</text>
<text x="527.1299999999999" y="502.0" text-anchor="middle" fill="#333" font-family="Arial,sans-serif" font-size="12" font-weight="bold">systems (L4:F14368)</text>
<text x="527.1299999999999" y="520.0" text-anchor="middle" fill="#666" font-family="monospace" font-size="9">L4:F14368 —  words related to importance o</text>
<circle cx="644.8399999999999" cy="483.0" r="9" fill="#ccc"/>
<text x="644.8399999999999" y="487.0" text-anchor="middle" fill="#666" font-family="monospace" font-size="9" font-weight="bold">1</text>
<rect x="702.8399999999999" y="470.0" width="265.90999999999997" height="58" fill="#e8e8e8" stroke="#999" stroke-width="2" rx="8"/>
<text x="835.7949999999998" y="488.0" text-anchor="middle" fill="#333" font-family="Arial,sans-serif" font-size="12" font-weight="bold">Semantic:</text>
<text x="835.7949999999998" y="502.0" text-anchor="middle" fill="#333" font-family="Arial,sans-serif" font-size="12" font-weight="bold">&#x27;reverse/inverse&#x27;</text>
<text x="835.7949999999998" y="516.0" text-anchor="middle" fill="#333" font-family="Arial,sans-serif" font-size="12" font-weight="bold">(L4:F7409)</text>
<text x="835.7949999999998" y="534.0" text-anchor="middle" fill="#666" font-family="monospace" font-size="9">L4:F7409 —  words like &quot;vice versa&quot;, &quot;inv</text>
<circle cx="950.7499999999999" cy="483.0" r="9" fill="#ccc"/>
<text x="950.7499999999999" y="487.0" text-anchor="middle" fill="#666" font-family="monospace" font-size="9" font-weight="bold">1</text>
<rect x="1008.75" y="470.0" width="265.90999999999997" height="58" fill="#e8e8e8" stroke="#999" stroke-width="2" rx="8"/>
<text x="1141.705" y="488.0" text-anchor="middle" fill="#333" font-family="Arial,sans-serif" font-size="12" font-weight="bold">&#x27;now&#x27; followed by verb</text>
<text x="1141.705" y="502.0" text-anchor="middle" fill="#333" font-family="Arial,sans-serif" font-size="12" font-weight="bold">(L4:F6072)</text>
<text x="1141.705" y="520.0" text-anchor="middle" fill="#666" font-family="monospace" font-size="9">L4:F6072 —  the word &quot;now&quot; followed by a </text>
<circle cx="1256.6599999999999" cy="483.0" r="9" fill="#ccc"/>
<text x="1256.6599999999999" y="487.0" text-anchor="middle" fill="#666" font-family="monospace" font-size="9" font-weight="bold">1</text>
<rect x="1314.6599999999999" y="470.0" width="214.0" height="58" fill="#e8e8e8" stroke="#999" stroke-width="2" rx="8"/>
<text x="1421.6599999999999" y="488.0" text-anchor="middle" fill="#333" font-family="Arial,sans-serif" font-size="12" font-weight="bold">Spurious: astronomy terms</text>
<text x="1421.6599999999999" y="502.0" text-anchor="middle" fill="#333" font-family="Arial,sans-serif" font-size="12" font-weight="bold">(L4:F5709)</text>
<text x="1421.6599999999999" y="520.0" text-anchor="middle" fill="#666" font-family="monospace" font-size="9">L4:F5709 — astronomy terms</text>
<circle cx="1510.6599999999999" cy="483.0" r="9" fill="#ccc"/>
<text x="1510.6599999999999" y="487.0" text-anchor="middle" fill="#666" font-family="monospace" font-size="9" font-weight="bold">1</text>
<rect x="252.555" y="608.0" width="254.89" height="58" fill="#e8e8e8" stroke="#999" stroke-width="2" rx="8"/>
<text x="380.0" y="626.0" text-anchor="middle" fill="#333" font-family="Arial,sans-serif" font-size="12" font-weight="bold">Negation detector</text>
<text x="380.0" y="640.0" text-anchor="middle" fill="#333" font-family="Arial,sans-serif" font-size="12" font-weight="bold">(L3:F12079)</text>
<text x="380.0" y="658.0" text-anchor="middle" fill="#666" font-family="monospace" font-size="9">L3:F12079 — negations and Chinese names</text>
<circle cx="489.445" cy="621.0" r="9" fill="#ccc"/>
<text x="489.445" y="625.0" text-anchor="middle" fill="#666" font-family="monospace" font-size="9" font-weight="bold">1</text>
<rect x="244.29000000000002" y="332.0" width="271.41999999999996" height="58" fill="#e8e8e8" stroke="#999" stroke-width="2" rx="8"/>
<text x="380.0" y="350.0" text-anchor="middle" fill="#333" font-family="Arial,sans-serif" font-size="12" font-weight="bold">&#x27;role&#x27; + artistic elements</text>
<text x="380.0" y="364.0" text-anchor="middle" fill="#333" font-family="Arial,sans-serif" font-size="12" font-weight="bold">(L6:F12420)</text>
<text x="380.0" y="382.0" text-anchor="middle" fill="#666" font-family="monospace" font-size="9">L6:F12420 —  artistic elements that break </text>
<circle cx="497.71000000000004" cy="345.0" r="9" fill="#ccc"/>
<text x="497.71000000000004" y="349.0" text-anchor="middle" fill="#666" font-family="monospace" font-size="9" font-weight="bold">1</text>
<rect x="1315.04" y="940.0" width="265.90999999999997" height="58" fill="#e8e8e8" stroke="#999" stroke-width="2" rx="8"/>
<text x="1447.995" y="958.0" text-anchor="middle" fill="#333" font-family="Arial,sans-serif" font-size="12" font-weight="bold">&#x27;role&#x27; token detector</text>
<text x="1447.995" y="972.0" text-anchor="middle" fill="#333" font-family="Arial,sans-serif" font-size="12" font-weight="bold">(L0:F6013)</text>
<text x="1447.995" y="990.0" text-anchor="middle" fill="#666" font-family="monospace" font-size="9">L0:F6013 — the word &quot;role,&quot; sometimes in </text>
<circle cx="1562.9499999999998" cy="953.0" r="9" fill="#ccc"/>
<text x="1562.9499999999998" y="957.0" text-anchor="middle" fill="#666" font-family="monospace" font-size="9" font-weight="bold">1</text>
<rect x="244.29000000000002" y="194.0" width="271.41999999999996" height="58" fill="#e8e8e8" stroke="#999" stroke-width="2" rx="8"/>
<text x="380.0" y="212.0" text-anchor="middle" fill="#333" font-family="Arial,sans-serif" font-size="12" font-weight="bold">Figurative: reversals of</text>
<text x="380.0" y="226.0" text-anchor="middle" fill="#333" font-family="Arial,sans-serif" font-size="12" font-weight="bold">fortune (L8:F16033)</text>
<text x="380.0" y="244.0" text-anchor="middle" fill="#666" font-family="monospace" font-size="9">L8:F16033 —  figurative language related t</text>
<circle cx="497.71000000000004" cy="207.0" r="9" fill="#ccc"/>
<text x="497.71000000000004" y="211.0" text-anchor="middle" fill="#666" font-family="monospace" font-size="9" font-weight="bold">1</text>
<rect x="276.48" y="70.0" width="207.04" height="44" fill="#e8e8e8" stroke="#999" stroke-width="2" rx="8"/>
<text x="380.0" y="88.0" text-anchor="middle" fill="#333" font-family="Arial,sans-serif" font-size="12" font-weight="bold">Output: Probe</text>
<text x="380.0" y="102.0" text-anchor="middle" fill="#333" font-family="Arial,sans-serif" font-size="12" font-weight="bold">Classification Direction</text>
<circle cx="465.52" cy="83.0" r="9" fill="#ccc"/>
<text x="465.52" y="87.0" text-anchor="middle" fill="#666" font-family="monospace" font-size="9" font-weight="bold">0</text>
<line x1="40" y1="1078" x2="1660" y2="1078" stroke="#ddd" stroke-width="1"/>
<text x="40" y="1096" fill="#666" font-family="Arial,sans-serif" font-size="10" font-weight="bold" letter-spacing="1px">PROMPT</text>
<text x="40" y="1114" fill="#333" font-family="monospace" font-size="11">"&lt;bos&gt;The strangest role reversal is going on right now and concerns democracy itself. There is not role reversal going o"</text>
<text x="40" y="1138" fill="#666" font-family="Arial,sans-serif" font-size="10" font-weight="bold" letter-spacing="1px">TOP OUTPUTS</text>
<rect x="40" y="1143" width="100" height="20" fill="#e8e8e8" stroke="none" rx="6"/>
<text x="45" y="1157" fill="#333" font-family="Arial,sans-serif" font-size="11" font-weight="bold">(empty) <tspan fill="#555" font-size="10">100%</tspan></text>
</svg>