<svg width="1919" height="1513" xmlns="http://www.w3.org/2000/svg">
<rect width="1919" height="1513" fill="#f5f5f5"/>
<rect x="15" y="15" width="1889" height="1483" fill="white" stroke="none" rx="12"/>
<text x="40" y="48" fill="#666" font-family="Arial,sans-serif" font-size="14" font-weight="bold" letter-spacing="1px">ATTRIBUTION CIRCUIT</text>
<text x="25" y="96.0" fill="#999" font-family="monospace" font-size="10" font-weight="bold" text-anchor="start">L36</text>
<text x="25" y="234.0" fill="#999" font-family="monospace" font-size="10" font-weight="bold" text-anchor="start">L17</text>
<text x="25" y="407.0" fill="#999" font-family="monospace" font-size="10" font-weight="bold" text-anchor="start">L14</text>
<text x="25" y="580.0" fill="#999" font-family="monospace" font-size="10" font-weight="bold" text-anchor="start">L7</text>
<text x="25" y="753.0" fill="#999" font-family="monospace" font-size="10" font-weight="bold" text-anchor="start">L6</text>
<text x="25" y="933.0" fill="#999" font-family="monospace" font-size="10" font-weight="bold" text-anchor="start">L5</text>
<text x="25" y="1113.0" fill="#999" font-family="monospace" font-size="10" font-weight="bold" text-anchor="start">L1</text>
<text x="25" y="1286.0" fill="#999" font-family="monospace" font-size="10" font-weight="bold" text-anchor="start">L0</text>
<defs><marker id="arrow" markerWidth="8" markerHeight="6" refX="8" refY="3" orient="auto"><polygon points="0,0 8,3 0,6" fill="#8B4513" fill-opacity="0.7"/></marker></defs>
<path d="M 420.0,1260.0 C 391.05675,1213.0 255.98825000000002,1213.0 227.04500000000002,1166.0" fill="none" stroke="#8B4513" stroke-width="3" stroke-opacity="0.6" marker-end="url(#arrow)"/>
<path d="M 180.0,1260.0 C 210.0,1116.0 350.0,1116.0 380.0,972.0" fill="none" stroke="#8B4513" stroke-width="3" stroke-opacity="0.6" marker-end="url(#arrow)"/>
<path d="M 180.0,1260.0 C 210.0,936.0 350.0,936.0 380.0,612.0" fill="none" stroke="#8B4513" stroke-width="3" stroke-opacity="0.6" marker-end="url(#arrow)"/>
<path d="M 180.0,1260.0 C 187.05675,1213.0 219.98825000000002,1213.0 227.04500000000002,1166.0" fill="none" stroke="#8B4513" stroke-width="3" stroke-opacity="0.6" marker-end="url(#arrow)"/>
<path d="M 660.0,1260.0 C 618.0,860.0 422.0,860.0 380.0,460.0" fill="none" stroke="#8B4513" stroke-width="3" stroke-opacity="0.6" marker-end="url(#arrow)"/>
<path d="M 907.0,1260.0 C 827.95,763.0 459.05,763.0 380.0,266.0" fill="none" stroke="#8B4513" stroke-width="3" stroke-opacity="0.6" marker-end="url(#arrow)"/>
<path d="M 907.0,1260.0 C 827.95,1033.0 459.05,1033.0 380.0,806.0" fill="none" stroke="#8B4513" stroke-width="3" stroke-opacity="0.6" marker-end="url(#arrow)"/>
<path d="M 1154.0,1304.0 C 1230.94325,1275.0 1590.01175,1275.0 1666.955,1246.0" fill="none" stroke="#8B4513" stroke-width="3" stroke-opacity="0.6" marker-end="url(#arrow)"/>
<path d="M 1394.0,1304.0 C 1434.94325,1275.0 1626.01175,1275.0 1666.955,1246.0" fill="none" stroke="#8B4513" stroke-width="3" stroke-opacity="0.6" marker-end="url(#arrow)"/>
<path d="M 227.04500000000002,1052.0 C 249.98825000000002,1012.0 357.05675,1012.0 380.0,972.0" fill="none" stroke="#8B4513" stroke-width="3" stroke-opacity="0.6" marker-end="url(#arrow)"/>
<path d="M 380.0,886.0 C 380.0,749.0 380.0,749.0 380.0,612.0" fill="none" stroke="#8B4513" stroke-width="3" stroke-opacity="0.6" marker-end="url(#arrow)"/>
<path d="M 380.0,540.0 C 380.0,327.0 380.0,327.0 380.0,114.0" fill="none" stroke="#8B4513" stroke-width="3" stroke-opacity="0.6" marker-end="url(#arrow)"/>
<path d="M 380.0,346.0 C 380.0,230.0 380.0,230.0 380.0,114.0" fill="none" stroke="#8B4513" stroke-width="3" stroke-opacity="0.6" marker-end="url(#arrow)"/>
<path d="M 532.9549999999999,1073.0 C 510.01174999999995,939.5 402.94325,939.5 380.0,806.0" fill="none" stroke="#8B4513" stroke-width="3" stroke-opacity="0.6" marker-end="url(#arrow)"/>
<path d="M 380.0,692.0 C 380.0,479.0 380.0,479.0 380.0,266.0" fill="none" stroke="#8B4513" stroke-width="3" stroke-opacity="0.6" marker-end="url(#arrow)"/>
<path d="M 380.0,194.0 C 380.0,154.0 380.0,154.0 380.0,114.0" fill="none" stroke="#8B4513" stroke-width="3" stroke-opacity="0.6" marker-end="url(#arrow)"/>
<path d="M 1666.955,1246.0 C 1473.91175,680.0 573.04325,680.0 380.0,114.0" fill="none" stroke="#8B4513" stroke-width="3" stroke-opacity="0.6" marker-end="url(#arrow)"/>
<rect x="80.0" y="1260.0" width="200" height="44" fill="#e8e8e8" stroke="#999" stroke-width="2" rx="8"/>
<text x="180.0" y="1278.0" text-anchor="middle" fill="#333" font-family="Arial,sans-serif" font-size="12" font-weight="bold">Emb: &#x27;He&#x27; (pos 1)</text>
<circle cx="262.0" cy="1273.0" r="9" fill="#ccc"/>
<text x="262.0" y="1277.0" text-anchor="middle" fill="#666" font-family="monospace" font-size="9" font-weight="bold">0</text>
<rect x="320.0" y="1260.0" width="200" height="44" fill="#e8e8e8" stroke="#999" stroke-width="2" rx="8"/>
<text x="420.0" y="1278.0" text-anchor="middle" fill="#333" font-family="Arial,sans-serif" font-size="12" font-weight="bold">Emb: &#x27;his&#x27; (pos 3)</text>
<circle cx="502.0" cy="1273.0" r="9" fill="#ccc"/>
<text x="502.0" y="1277.0" text-anchor="middle" fill="#666" font-family="monospace" font-size="9" font-weight="bold">0</text>
<rect x="560.0" y="1260.0" width="200" height="44" fill="#e8e8e8" stroke="#999" stroke-width="2" rx="8"/>
<text x="660.0" y="1278.0" text-anchor="middle" fill="#333" font-family="Arial,sans-serif" font-size="12" font-weight="bold">Emb: &#x27; He&#x27; (pos 25)</text>
<circle cx="742.0" cy="1273.0" r="9" fill="#ccc"/>
<text x="742.0" y="1277.0" text-anchor="middle" fill="#666" font-family="monospace" font-size="9" font-weight="bold">0</text>
<rect x="800.0" y="1260.0" width="214.0" height="44" fill="#e8e8e8" stroke="#999" stroke-width="2" rx="8"/>
<text x="907.0" y="1278.0" text-anchor="middle" fill="#333" font-family="Arial,sans-serif" font-size="12" font-weight="bold">Emb: &#x27; reporter&#x27; (pos 66)</text>
<circle cx="996.0" cy="1273.0" r="9" fill="#ccc"/>
<text x="996.0" y="1277.0" text-anchor="middle" fill="#666" font-family="monospace" font-size="9" font-weight="bold">0</text>
<rect x="1054.0" y="1260.0" width="200" height="44" fill="#e8e8e8" stroke="#999" stroke-width="2" rx="8"/>
<text x="1154.0" y="1278.0" text-anchor="middle" fill="#333" font-family="Arial,sans-serif" font-size="12" font-weight="bold">Emb: &#x27;.&#x27; (pos 24)</text>
<circle cx="1236.0" cy="1273.0" r="9" fill="#ccc"/>
<text x="1236.0" y="1277.0" text-anchor="middle" fill="#666" font-family="monospace" font-size="9" font-weight="bold">0</text>
<rect x="1294.0" y="1260.0" width="200" height="44" fill="#e8e8e8" stroke="#999" stroke-width="2" rx="8"/>
<text x="1394.0" y="1278.0" text-anchor="middle" fill="#333" font-family="Arial,sans-serif" font-size="12" font-weight="bold">Emb: &#x27; from&#x27; (pos 9)</text>
<circle cx="1476.0" cy="1273.0" r="9" fill="#ccc"/>
<text x="1476.0" y="1277.0" text-anchor="middle" fill="#666" font-family="monospace" font-size="9" font-weight="bold">0</text>
<rect x="94.09000000000003" y="1052.0" width="265.90999999999997" height="114" fill="#e8e8e8" stroke="#999" stroke-width="2" rx="8"/>
<text x="227.04500000000002" y="1070.0" text-anchor="middle" fill="#333" font-family="Arial,sans-serif" font-size="12" font-weight="bold">Pronoun Detection (L0-L2)</text>
<text x="227.04500000000002" y="1088.0" text-anchor="middle" fill="#666" font-family="monospace" font-size="9">L0:F2994 — the pronoun &quot;his&quot; and the pron</text>
<text x="227.04500000000002" y="1102.0" text-anchor="middle" fill="#666" font-family="monospace" font-size="9">L0:F310 —  the pronouns &quot;she&quot;, &quot;her&quot;, an</text>
<text x="227.04500000000002" y="1116.0" text-anchor="middle" fill="#666" font-family="monospace" font-size="9">L1:F8685 —  the pronoun &quot;he&quot;</text>
<text x="227.04500000000002" y="1130.0" text-anchor="middle" fill="#666" font-family="monospace" font-size="9">L2:F2110 —  the third person singular pro</text>
<text x="227.04500000000002" y="1144.0" text-anchor="middle" fill="#666" font-family="monospace" font-size="9">... +2 more</text>
<circle cx="342.0" cy="1065.0" r="9" fill="#ccc"/>
<text x="342.0" y="1069.0" text-anchor="middle" fill="#666" font-family="monospace" font-size="9" font-weight="bold">6</text>
<rect x="244.29000000000002" y="886.0" width="271.41999999999996" height="86" fill="#e8e8e8" stroke="#999" stroke-width="2" rx="8"/>
<text x="380.0" y="904.0" text-anchor="middle" fill="#333" font-family="Arial,sans-serif" font-size="12" font-weight="bold">Male Pronoun Processing</text>
<text x="380.0" y="918.0" text-anchor="middle" fill="#333" font-family="Arial,sans-serif" font-size="12" font-weight="bold">(L4-L6)</text>
<text x="380.0" y="936.0" text-anchor="middle" fill="#666" font-family="monospace" font-size="9">L4:F14796 — the pronoun &quot;he&quot; or &quot;him&quot;</text>
<text x="380.0" y="950.0" text-anchor="middle" fill="#666" font-family="monospace" font-size="9">L5:F10952 — third person pronouns in varyi</text>
<text x="380.0" y="964.0" text-anchor="middle" fill="#666" font-family="monospace" font-size="9">L6:F12990 —  male pronouns and titles alon</text>
<circle cx="497.71000000000004" cy="899.0" r="9" fill="#ccc"/>
<text x="497.71000000000004" y="903.0" text-anchor="middle" fill="#666" font-family="monospace" font-size="9" font-weight="bold">3</text>
<rect x="244.29000000000002" y="540.0" width="271.41999999999996" height="72" fill="#e8e8e8" stroke="#999" stroke-width="2" rx="8"/>
<text x="380.0" y="558.0" text-anchor="middle" fill="#333" font-family="Arial,sans-serif" font-size="12" font-weight="bold">Gender Contrast/Agreement</text>
<text x="380.0" y="572.0" text-anchor="middle" fill="#333" font-family="Arial,sans-serif" font-size="12" font-weight="bold">(L7)</text>
<text x="380.0" y="590.0" text-anchor="middle" fill="#666" font-family="monospace" font-size="9">L7:F14893 —  pronouns or possessive pronou</text>
<text x="380.0" y="604.0" text-anchor="middle" fill="#666" font-family="monospace" font-size="9">L7:F14946 —  the possessive pronoun &quot;his&quot; </text>
<circle cx="497.71000000000004" cy="553.0" r="9" fill="#ccc"/>
<text x="497.71000000000004" y="557.0" text-anchor="middle" fill="#666" font-family="monospace" font-size="9" font-weight="bold">2</text>
<rect x="244.29000000000002" y="346.0" width="271.41999999999996" height="114" fill="#e8e8e8" stroke="#999" stroke-width="2" rx="8"/>
<text x="380.0" y="364.0" text-anchor="middle" fill="#333" font-family="Arial,sans-serif" font-size="12" font-weight="bold">Male Reference at Pos 25</text>
<text x="380.0" y="378.0" text-anchor="middle" fill="#333" font-family="Arial,sans-serif" font-size="12" font-weight="bold">(L13-L15)</text>
<text x="380.0" y="396.0" text-anchor="middle" fill="#666" font-family="monospace" font-size="9">L0:F1069 —  references to a male person, </text>
<text x="380.0" y="410.0" text-anchor="middle" fill="#666" font-family="monospace" font-size="9">L13:F6622 —  pronouns.</text>
<text x="380.0" y="424.0" text-anchor="middle" fill="#666" font-family="monospace" font-size="9">L15:F3330 —  personal stories of individua</text>
<text x="380.0" y="438.0" text-anchor="middle" fill="#666" font-family="monospace" font-size="9">L17:F5889 —  references to people with pro</text>
<text x="380.0" y="452.0" text-anchor="middle" fill="#666" font-family="monospace" font-size="9">... +1 more</text>
<circle cx="497.71000000000004" cy="359.0" r="9" fill="#ccc"/>
<text x="497.71000000000004" y="363.0" text-anchor="middle" fill="#666" font-family="monospace" font-size="9" font-weight="bold">5</text>
<rect x="399.99999999999994" y="1073.0" width="265.90999999999997" height="72" fill="#e8e8e8" stroke="#999" stroke-width="2" rx="8"/>
<text x="532.9549999999999" y="1091.0" text-anchor="middle" fill="#333" font-family="Arial,sans-serif" font-size="12" font-weight="bold">Writing/Editing Features</text>
<text x="532.9549999999999" y="1105.0" text-anchor="middle" fill="#333" font-family="Arial,sans-serif" font-size="12" font-weight="bold">(L1)</text>
<text x="532.9549999999999" y="1123.0" text-anchor="middle" fill="#666" font-family="monospace" font-size="9">L1:F1024 —  words and phrases frequently </text>
<text x="532.9549999999999" y="1137.0" text-anchor="middle" fill="#666" font-family="monospace" font-size="9">L1:F5357 —  words related to written work</text>
<circle cx="647.9099999999999" cy="1086.0" r="9" fill="#ccc"/>
<text x="647.9099999999999" y="1090.0" text-anchor="middle" fill="#666" font-family="monospace" font-size="9" font-weight="bold">2</text>
<rect x="244.29000000000002" y="692.0" width="271.41999999999996" height="114" fill="#e8e8e8" stroke="#999" stroke-width="2" rx="8"/>
<text x="380.0" y="710.0" text-anchor="middle" fill="#333" font-family="Arial,sans-serif" font-size="12" font-weight="bold">Journalism Detection</text>
<text x="380.0" y="724.0" text-anchor="middle" fill="#333" font-family="Arial,sans-serif" font-size="12" font-weight="bold">(L4-L8)</text>
<text x="380.0" y="742.0" text-anchor="middle" fill="#666" font-family="monospace" font-size="9">L4:F13253 —  things related to journalism </text>
<text x="380.0" y="756.0" text-anchor="middle" fill="#666" font-family="monospace" font-size="9">L4:F661 —  words and phrases used when r</text>
<text x="380.0" y="770.0" text-anchor="middle" fill="#666" font-family="monospace" font-size="9">L7:F13646 —  news reporting and journalism</text>
<text x="380.0" y="784.0" text-anchor="middle" fill="#666" font-family="monospace" font-size="9">L7:F9092 —  words and phrases associated </text>
<text x="380.0" y="798.0" text-anchor="middle" fill="#666" font-family="monospace" font-size="9">... +2 more</text>
<circle cx="497.71000000000004" cy="705.0" r="9" fill="#ccc"/>
<text x="497.71000000000004" y="709.0" text-anchor="middle" fill="#666" font-family="monospace" font-size="9" font-weight="bold">6</text>
<rect x="244.29000000000002" y="194.0" width="271.41999999999996" height="72" fill="#e8e8e8" stroke="#999" stroke-width="2" rx="8"/>
<text x="380.0" y="212.0" text-anchor="middle" fill="#333" font-family="Arial,sans-serif" font-size="12" font-weight="bold">Journalism Integration</text>
<text x="380.0" y="226.0" text-anchor="middle" fill="#333" font-family="Arial,sans-serif" font-size="12" font-weight="bold">(L14, L19)</text>
<text x="380.0" y="244.0" text-anchor="middle" fill="#666" font-family="monospace" font-size="9">L14:F4420 — words and phrases related to j</text>
<text x="380.0" y="258.0" text-anchor="middle" fill="#666" font-family="monospace" font-size="9">L19:F2486 —  journalistic sources and news</text>
<circle cx="497.71000000000004" cy="207.0" r="9" fill="#ccc"/>
<text x="497.71000000000004" y="211.0" text-anchor="middle" fill="#666" font-family="monospace" font-size="9" font-weight="bold">2</text>
<rect x="1534.0" y="1246.0" width="265.90999999999997" height="72" fill="#e8e8e8" stroke="#999" stroke-width="2" rx="8"/>
<text x="1666.955" y="1264.0" text-anchor="middle" fill="#333" font-family="Arial,sans-serif" font-size="12" font-weight="bold">Generic Punctuation (L0)</text>
<text x="1666.955" y="1282.0" text-anchor="middle" fill="#666" font-family="monospace" font-size="9">L0:F6051 — periods, spaces, and the numbe</text>
<text x="1666.955" y="1296.0" text-anchor="middle" fill="#666" font-family="monospace" font-size="9">L0:F8974 — the word &quot;from&quot;</text>
<circle cx="1781.9099999999999" cy="1259.0" r="9" fill="#ccc"/>
<text x="1781.9099999999999" y="1263.0" text-anchor="middle" fill="#666" font-family="monospace" font-size="9" font-weight="bold">2</text>
<rect x="269.52" y="70.0" width="220.95999999999998" height="44" fill="#e8e8e8" stroke="#999" stroke-width="2" rx="8"/>
<text x="380.0" y="88.0" text-anchor="middle" fill="#333" font-family="Arial,sans-serif" font-size="12" font-weight="bold">Probe Classification Score</text>
<circle cx="472.47999999999996" cy="83.0" r="9" fill="#ccc"/>
<text x="472.47999999999996" y="87.0" text-anchor="middle" fill="#666" font-family="monospace" font-size="9" font-weight="bold">0</text>
<line x1="40" y1="1398" x2="1879" y2="1398" stroke="#ddd" stroke-width="1"/>
<text x="40" y="1416" fill="#666" font-family="Arial,sans-serif" font-size="10" font-weight="bold" letter-spacing="1px">PROMPT</text>
<text x="40" y="1434" fill="#333" font-family="monospace" font-size="11">"&lt;bos&gt;He obtained his undergraduate degree in the field from the University of Michigan, and has been working as a freela"</text>
<text x="40" y="1458" fill="#666" font-family="Arial,sans-serif" font-size="10" font-weight="bold" letter-spacing="1px">TOP OUTPUTS</text>
<rect x="40" y="1463" width="100" height="20" fill="#e8e8e8" stroke="none" rx="6"/>
<text x="45" y="1477" fill="#333" font-family="Arial,sans-serif" font-size="11" font-weight="bold">(empty) <tspan fill="#555" font-size="10">100%</tspan></text>
</svg>