<svg width="3620" height="917" xmlns="http://www.w3.org/2000/svg">
<rect width="3620" height="917" fill="#f5f5f5"/>
<rect x="15" y="15" width="3590" height="887" fill="white" stroke="none" rx="12"/>
<text x="40" y="48" fill="#666" font-family="Arial,sans-serif" font-size="14" font-weight="bold" letter-spacing="1px">ATTRIBUTION CIRCUIT</text>
<text x="25" y="96.0" fill="#999" font-family="monospace" font-size="10" font-weight="bold" text-anchor="start">L36</text>
<text x="25" y="227.0" fill="#999" font-family="monospace" font-size="10" font-weight="bold" text-anchor="start">L4</text>
<text x="25" y="365.0" fill="#999" font-family="monospace" font-size="10" font-weight="bold" text-anchor="start">L3</text>
<text x="25" y="510.0" fill="#999" font-family="monospace" font-size="10" font-weight="bold" text-anchor="start">L2</text>
<text x="25" y="676.0" fill="#999" font-family="monospace" font-size="10" font-weight="bold" text-anchor="start">L0</text>
<defs><marker id="arrow" markerWidth="8" markerHeight="6" refX="8" refY="3" orient="auto"><polygon points="0,0 8,3 0,6" fill="#8B4513" fill-opacity="0.7"/></marker></defs>
<path d="M 180.04,701.0 C 437.40250000000003,661.5 1638.4275,661.5 1895.79,622.0" fill="none" stroke="#8B4513" stroke-width="3" stroke-opacity="0.6" marker-end="url(#arrow)"/>
<path d="M 660.0799999999999,701.0 C 886.7929999999999,672.0 1944.787,672.0 2171.5,643.0" fill="none" stroke="#8B4513" stroke-width="3" stroke-opacity="0.6" marker-end="url(#arrow)"/>
<path d="M 900.0799999999999,701.0 C 1132.1495,672.0 2215.1405,672.0 2447.21,643.0" fill="none" stroke="#8B4513" stroke-width="3" stroke-opacity="0.6" marker-end="url(#arrow)"/>
<path d="M 1140.08,701.0 C 1427.50925,665.0 2768.84575,665.0 3056.275,629.0" fill="none" stroke="#8B4513" stroke-width="3" stroke-opacity="0.6" marker-end="url(#arrow)"/>
<path d="M 1380.08,701.0 C 1631.50925,665.0 2804.84575,665.0 3056.275,629.0" fill="none" stroke="#8B4513" stroke-width="3" stroke-opacity="0.6" marker-end="url(#arrow)"/>
<path d="M 1620.08,701.0 C 1790.0359999999998,672.0 2583.1639999999998,672.0 2753.12,643.0" fill="none" stroke="#8B4513" stroke-width="3" stroke-opacity="0.6" marker-end="url(#arrow)"/>
<path d="M 420.08,643.0 C 414.068,592.5 386.012,592.5 380.0,542.0" fill="none" stroke="#8B4513" stroke-width="3" stroke-opacity="0.6" marker-end="url(#arrow)"/>
<path d="M 380.0,470.0 C 380.0,430.0 380.0,430.0 380.0,390.0" fill="none" stroke="#8B4513" stroke-width="3" stroke-opacity="0.6" marker-end="url(#arrow)"/>
<path d="M 380.0,470.0 C 380.0,361.0 380.0,361.0 380.0,252.0" fill="none" stroke="#8B4513" stroke-width="3" stroke-opacity="0.6" marker-end="url(#arrow)"/>
<path d="M 380.0,332.0 C 380.0,292.0 380.0,292.0 380.0,252.0" fill="none" stroke="#8B4513" stroke-width="3" stroke-opacity="0.6" marker-end="url(#arrow)"/>
<path d="M 2447.21,643.0 C 2137.1285,378.5 690.0815,378.5 380.0,114.0" fill="none" stroke="#8B4513" stroke-width="3" stroke-opacity="0.6" marker-end="url(#arrow)"/>
<path d="M 2171.5,643.0 C 1902.775,378.5 648.7249999999999,378.5 380.0,114.0" fill="none" stroke="#8B4513" stroke-width="3" stroke-opacity="0.6" marker-end="url(#arrow)"/>
<path d="M 1895.79,622.0 C 1668.4215,368.0 607.3685,368.0 380.0,114.0" fill="none" stroke="#8B4513" stroke-width="3" stroke-opacity="0.6" marker-end="url(#arrow)"/>
<path d="M 2753.12,643.0 C 2397.152,378.5 735.968,378.5 380.0,114.0" fill="none" stroke="#8B4513" stroke-width="3" stroke-opacity="0.6" marker-end="url(#arrow)"/>
<path d="M 3056.275,629.0 C 2654.8337500000002,371.5 781.4412500000001,371.5 380.0,114.0" fill="none" stroke="#8B4513" stroke-width="3" stroke-opacity="0.6" marker-end="url(#arrow)"/>
<path d="M 3364.94,629.0 C 2917.199,371.5 827.741,371.5 380.0,114.0" fill="none" stroke="#8B4513" stroke-width="3" stroke-opacity="0.6" marker-end="url(#arrow)"/>
<path d="M 380.0,194.0 C 380.0,154.0 380.0,154.0 380.0,114.0" fill="none" stroke="#8B4513" stroke-width="3" stroke-opacity="0.6" marker-end="url(#arrow)"/>
<rect x="80.0" y="643.0" width="200.07999999999998" height="58" fill="#e8e8e8" stroke="#999" stroke-width="2" rx="8"/>
<text x="180.04" y="661.0" text-anchor="middle" fill="#333" font-family="Arial,sans-serif" font-size="12" font-weight="bold">Emb: &#x27; clearly&#x27; (pos 2)</text>
<text x="180.04" y="679.0" text-anchor="middle" fill="#666" font-family="monospace" font-size="9">L-1:F-1</text>
<circle cx="262.08" cy="656.0" r="9" fill="#ccc"/>
<text x="262.08" y="660.0" text-anchor="middle" fill="#666" font-family="monospace" font-size="9" font-weight="bold">1</text>
<rect x="320.08" y="643.0" width="200" height="58" fill="#e8e8e8" stroke="#999" stroke-width="2" rx="8"/>
<text x="420.08" y="661.0" text-anchor="middle" fill="#333" font-family="Arial,sans-serif" font-size="12" font-weight="bold">Emb: &#x27; trump&#x27; (pos 5)</text>
<text x="420.08" y="679.0" text-anchor="middle" fill="#666" font-family="monospace" font-size="9">L-1:F-1</text>
<circle cx="502.0799999999999" cy="656.0" r="9" fill="#ccc"/>
<text x="502.0799999999999" y="660.0" text-anchor="middle" fill="#666" font-family="monospace" font-size="9" font-weight="bold">1</text>
<rect x="560.0799999999999" y="643.0" width="200" height="58" fill="#e8e8e8" stroke="#999" stroke-width="2" rx="8"/>
<text x="660.0799999999999" y="661.0" text-anchor="middle" fill="#333" font-family="Arial,sans-serif" font-size="12" font-weight="bold">Emb: &#x27; is&#x27; (pos 6)</text>
<text x="660.0799999999999" y="679.0" text-anchor="middle" fill="#666" font-family="monospace" font-size="9">L-1:F-1</text>
<circle cx="742.0799999999999" cy="656.0" r="9" fill="#ccc"/>
<text x="742.0799999999999" y="660.0" text-anchor="middle" fill="#666" font-family="monospace" font-size="9" font-weight="bold">1</text>
<rect x="800.0799999999999" y="643.0" width="200" height="58" fill="#e8e8e8" stroke="#999" stroke-width="2" rx="8"/>
<text x="900.0799999999999" y="661.0" text-anchor="middle" fill="#333" font-family="Arial,sans-serif" font-size="12" font-weight="bold">Emb: &#x27; again&#x27; (pos 26)</text>
<text x="900.0799999999999" y="679.0" text-anchor="middle" fill="#666" font-family="monospace" font-size="9">L-1:F-1</text>
<circle cx="982.0799999999999" cy="656.0" r="9" fill="#ccc"/>
<text x="982.0799999999999" y="660.0" text-anchor="middle" fill="#666" font-family="monospace" font-size="9" font-weight="bold">1</text>
<rect x="1040.08" y="643.0" width="200" height="58" fill="#e8e8e8" stroke="#999" stroke-width="2" rx="8"/>
<text x="1140.08" y="661.0" text-anchor="middle" fill="#333" font-family="Arial,sans-serif" font-size="12" font-weight="bold">Emb: &#x27;&lt;bos&gt;&#x27; (pos 0)</text>
<text x="1140.08" y="679.0" text-anchor="middle" fill="#666" font-family="monospace" font-size="9">L-1:F-1</text>
<circle cx="1222.08" cy="656.0" r="9" fill="#ccc"/>
<text x="1222.08" y="660.0" text-anchor="middle" fill="#666" font-family="monospace" font-size="9" font-weight="bold">1</text>
<rect x="1280.08" y="643.0" width="200" height="58" fill="#e8e8e8" stroke="#999" stroke-width="2" rx="8"/>
<text x="1380.08" y="661.0" text-anchor="middle" fill="#333" font-family="Arial,sans-serif" font-size="12" font-weight="bold">Emb: &#x27;tie&#x27; (pos 1)</text>
<text x="1380.08" y="679.0" text-anchor="middle" fill="#666" font-family="monospace" font-size="9">L-1:F-1</text>
<circle cx="1462.08" cy="656.0" r="9" fill="#ccc"/>
<text x="1462.08" y="660.0" text-anchor="middle" fill="#666" font-family="monospace" font-size="9" font-weight="bold">1</text>
<rect x="1520.08" y="643.0" width="200" height="58" fill="#e8e8e8" stroke="#999" stroke-width="2" rx="8"/>
<text x="1620.08" y="661.0" text-anchor="middle" fill="#333" font-family="Arial,sans-serif" font-size="12" font-weight="bold">Emb: &#x27; shows&#x27; (pos 3)</text>
<text x="1620.08" y="679.0" text-anchor="middle" fill="#666" font-family="monospace" font-size="9">L-1:F-1</text>
<circle cx="1702.08" cy="656.0" r="9" fill="#ccc"/>
<text x="1702.08" y="660.0" text-anchor="middle" fill="#666" font-family="monospace" font-size="9" font-weight="bold">1</text>
<rect x="1760.08" y="622.0" width="271.41999999999996" height="100" fill="#e8e8e8" stroke="#999" stroke-width="2" rx="8"/>
<text x="1895.79" y="640.0" text-anchor="middle" fill="#333" font-family="Arial,sans-serif" font-size="12" font-weight="bold">Adverb/Linguistic</text>
<text x="1895.79" y="654.0" text-anchor="middle" fill="#333" font-family="Arial,sans-serif" font-size="12" font-weight="bold">Intensity Detectors</text>
<text x="1895.79" y="668.0" text-anchor="middle" fill="#333" font-family="Arial,sans-serif" font-size="12" font-weight="bold">(clearly)</text>
<text x="1895.79" y="686.0" text-anchor="middle" fill="#666" font-family="monospace" font-size="9">L0:F12866 —  adverbs such as &quot;clearly,&quot; &quot;p</text>
<text x="1895.79" y="700.0" text-anchor="middle" fill="#666" font-family="monospace" font-size="9">L0:F7621 —  the word &quot;clearly&quot;, and to a </text>
<text x="1895.79" y="714.0" text-anchor="middle" fill="#666" font-family="monospace" font-size="9">L0:F4422 — the word &quot;seriously&quot;</text>
<text x="1895.79" y="728.0" text-anchor="middle" fill="#666" font-family="monospace" font-size="9">L0:F7142 —  the word &quot;axis&quot; and its plura</text>
<circle cx="2013.5" cy="635.0" r="9" fill="#ccc"/>
<text x="2013.5" y="639.0" text-anchor="middle" fill="#666" font-family="monospace" font-size="9" font-weight="bold">4</text>
<rect x="2071.5" y="643.0" width="200" height="58" fill="#e8e8e8" stroke="#999" stroke-width="2" rx="8"/>
<text x="2171.5" y="661.0" text-anchor="middle" fill="#333" font-family="Arial,sans-serif" font-size="12" font-weight="bold">Copula/Linking Verb</text>
<text x="2171.5" y="675.0" text-anchor="middle" fill="#333" font-family="Arial,sans-serif" font-size="12" font-weight="bold">Detector (is)</text>
<text x="2171.5" y="693.0" text-anchor="middle" fill="#666" font-family="monospace" font-size="9">L0:F11375 —  the word &quot;is&quot;</text>
<circle cx="2253.5" cy="656.0" r="9" fill="#ccc"/>
<text x="2253.5" y="660.0" text-anchor="middle" fill="#666" font-family="monospace" font-size="9" font-weight="bold">1</text>
<rect x="2311.5" y="643.0" width="271.41999999999996" height="58" fill="#e8e8e8" stroke="#999" stroke-width="2" rx="8"/>
<text x="2447.21" y="661.0" text-anchor="middle" fill="#333" font-family="Arial,sans-serif" font-size="12" font-weight="bold">Temporal/Iterative Marker</text>
<text x="2447.21" y="675.0" text-anchor="middle" fill="#333" font-family="Arial,sans-serif" font-size="12" font-weight="bold">(again)</text>
<text x="2447.21" y="693.0" text-anchor="middle" fill="#666" font-family="monospace" font-size="9">L0:F15831 — the word &quot;again&quot; and words ass</text>
<circle cx="2564.92" cy="656.0" r="9" fill="#ccc"/>
<text x="2564.92" y="660.0" text-anchor="middle" fill="#666" font-family="monospace" font-size="9" font-weight="bold">1</text>
<rect x="2622.92" y="643.0" width="260.4" height="58" fill="#e8e8e8" stroke="#999" stroke-width="2" rx="8"/>
<text x="2753.12" y="661.0" text-anchor="middle" fill="#333" font-family="Arial,sans-serif" font-size="12" font-weight="bold">Demonstrative/Show Marker</text>
<text x="2753.12" y="675.0" text-anchor="middle" fill="#333" font-family="Arial,sans-serif" font-size="12" font-weight="bold">(shows)</text>
<text x="2753.12" y="693.0" text-anchor="middle" fill="#666" font-family="monospace" font-size="9">L0:F164 — the words &quot;show&quot; and &quot;your&quot;, p</text>
<circle cx="2865.32" cy="656.0" r="9" fill="#ccc"/>
<text x="2865.32" y="660.0" text-anchor="middle" fill="#666" font-family="monospace" font-size="9" font-weight="bold">1</text>
<rect x="2923.32" y="629.0" width="265.90999999999997" height="86" fill="#e8e8e8" stroke="#999" stroke-width="2" rx="8"/>
<text x="3056.275" y="647.0" text-anchor="middle" fill="#333" font-family="Arial,sans-serif" font-size="12" font-weight="bold">Document Structure/BOS</text>
<text x="3056.275" y="661.0" text-anchor="middle" fill="#333" font-family="Arial,sans-serif" font-size="12" font-weight="bold">Features</text>
<text x="3056.275" y="679.0" text-anchor="middle" fill="#666" font-family="monospace" font-size="9">L0:F3916 —  common short words in legal d</text>
<text x="3056.275" y="693.0" text-anchor="middle" fill="#666" font-family="monospace" font-size="9">L0:F478 — various kinds of brackets and </text>
<text x="3056.275" y="707.0" text-anchor="middle" fill="#666" font-family="monospace" font-size="9">L0:F1165 — words relating to abstract con</text>
<circle cx="3171.23" cy="642.0" r="9" fill="#ccc"/>
<text x="3171.23" y="646.0" text-anchor="middle" fill="#666" font-family="monospace" font-size="9" font-weight="bold">3</text>
<rect x="3229.23" y="629.0" width="271.41999999999996" height="86" fill="#e8e8e8" stroke="#999" stroke-width="2" rx="8"/>
<text x="3364.94" y="647.0" text-anchor="middle" fill="#333" font-family="Arial,sans-serif" font-size="12" font-weight="bold">Code Fragment Detector</text>
<text x="3364.94" y="661.0" text-anchor="middle" fill="#333" font-family="Arial,sans-serif" font-size="12" font-weight="bold">(&#x27;ot&#x27;)</text>
<text x="3364.94" y="679.0" text-anchor="middle" fill="#666" font-family="monospace" font-size="9">L0:F11 —  the string &quot;ot&quot;</text>
<text x="3364.94" y="693.0" text-anchor="middle" fill="#666" font-family="monospace" font-size="9">L0:F12712 —  words, suffixes, or phrases t</text>
<text x="3364.94" y="707.0" text-anchor="middle" fill="#666" font-family="monospace" font-size="9">L0:F865 —  text related to well-being</text>
<circle cx="3482.65" cy="642.0" r="9" fill="#ccc"/>
<text x="3482.65" y="646.0" text-anchor="middle" fill="#666" font-family="monospace" font-size="9" font-weight="bold">3</text>
<rect x="244.29000000000002" y="470.0" width="271.41999999999996" height="72" fill="#e8e8e8" stroke="#999" stroke-width="2" rx="8"/>
<text x="380.0" y="488.0" text-anchor="middle" fill="#333" font-family="Arial,sans-serif" font-size="12" font-weight="bold">Political</text>
<text x="380.0" y="502.0" text-anchor="middle" fill="#333" font-family="Arial,sans-serif" font-size="12" font-weight="bold">Figure/Organization Names</text>
<text x="380.0" y="520.0" text-anchor="middle" fill="#666" font-family="monospace" font-size="9">L2:F14301 —  names of people and organizat</text>
<text x="380.0" y="534.0" text-anchor="middle" fill="#666" font-family="monospace" font-size="9">L2:F1239 —  proper nouns, especially poli</text>
<circle cx="497.71000000000004" cy="483.0" r="9" fill="#ccc"/>
<text x="497.71000000000004" y="487.0" text-anchor="middle" fill="#666" font-family="monospace" font-size="9" font-weight="bold">2</text>
<rect x="247.04500000000002" y="332.0" width="265.90999999999997" height="58" fill="#e8e8e8" stroke="#999" stroke-width="2" rx="8"/>
<text x="380.0" y="350.0" text-anchor="middle" fill="#333" font-family="Arial,sans-serif" font-size="12" font-weight="bold">Trump</text>
<text x="380.0" y="364.0" text-anchor="middle" fill="#333" font-family="Arial,sans-serif" font-size="12" font-weight="bold">Administration/Government</text>
<text x="380.0" y="378.0" text-anchor="middle" fill="#333" font-family="Arial,sans-serif" font-size="12" font-weight="bold">Detection</text>
<text x="380.0" y="396.0" text-anchor="middle" fill="#666" font-family="monospace" font-size="9">L3:F3136 —  names of people involved in t</text>
<circle cx="494.9549999999999" cy="345.0" r="9" fill="#ccc"/>
<text x="494.9549999999999" y="349.0" text-anchor="middle" fill="#666" font-family="monospace" font-size="9" font-weight="bold">1</text>
<rect x="244.29000000000002" y="194.0" width="271.41999999999996" height="58" fill="#e8e8e8" stroke="#999" stroke-width="2" rx="8"/>
<text x="380.0" y="212.0" text-anchor="middle" fill="#333" font-family="Arial,sans-serif" font-size="12" font-weight="bold">White House/US Government</text>
<text x="380.0" y="226.0" text-anchor="middle" fill="#333" font-family="Arial,sans-serif" font-size="12" font-weight="bold">References</text>
<text x="380.0" y="244.0" text-anchor="middle" fill="#666" font-family="monospace" font-size="9">L4:F14582 —  references to the White House</text>
<circle cx="497.71000000000004" cy="207.0" r="9" fill="#ccc"/>
<text x="497.71000000000004" y="211.0" text-anchor="middle" fill="#666" font-family="monospace" font-size="9" font-weight="bold">1</text>
<rect x="269.52" y="70.0" width="220.95999999999998" height="44" fill="#e8e8e8" stroke="#999" stroke-width="2" rx="8"/>
<text x="380.0" y="88.0" text-anchor="middle" fill="#333" font-family="Arial,sans-serif" font-size="12" font-weight="bold">Probe Classification Score</text>
<circle cx="472.47999999999996" cy="83.0" r="9" fill="#ccc"/>
<text x="472.47999999999996" y="87.0" text-anchor="middle" fill="#666" font-family="monospace" font-size="9" font-weight="bold">0</text>
<line x1="40" y1="802" x2="3580" y2="802" stroke="#ddd" stroke-width="1"/>
<text x="40" y="820" fill="#666" font-family="Arial,sans-serif" font-size="10" font-weight="bold" letter-spacing="1px">PROMPT</text>
<text x="40" y="838" fill="#333" font-family="monospace" font-size="11">"&lt;bos&gt;tie clearly shows that trump is a bigot and being supported by other white bigots.  they want to make America white"</text>
<text x="40" y="862" fill="#666" font-family="Arial,sans-serif" font-size="10" font-weight="bold" letter-spacing="1px">TOP OUTPUTS</text>
<rect x="40" y="867" width="100" height="20" fill="#e8e8e8" stroke="none" rx="6"/>
<text x="45" y="881" fill="#333" font-family="Arial,sans-serif" font-size="11" font-weight="bold">(empty) <tspan fill="#555" font-size="10">100%</tspan></text>
</svg>