<svg width="1665" height="1207" xmlns="http://www.w3.org/2000/svg">
<rect width="1665" height="1207" fill="#f5f5f5"/>
<rect x="15" y="15" width="1635" height="1177" fill="white" stroke="none" rx="12"/>
<text x="40" y="48" fill="#666" font-family="Arial,sans-serif" font-size="14" font-weight="bold" letter-spacing="1px">ATTRIBUTION CIRCUIT</text>
<text x="25" y="96.0" fill="#999" font-family="monospace" font-size="10" font-weight="bold" text-anchor="start">L36</text>
<text x="25" y="227.0" fill="#999" font-family="monospace" font-size="10" font-weight="bold" text-anchor="start">L16</text>
<text x="25" y="372.0" fill="#999" font-family="monospace" font-size="10" font-weight="bold" text-anchor="start">L15</text>
<text x="25" y="531.0" fill="#999" font-family="monospace" font-size="10" font-weight="bold" text-anchor="start">L3</text>
<text x="25" y="683.0" fill="#999" font-family="monospace" font-size="10" font-weight="bold" text-anchor="start">L2</text>
<text x="25" y="835.0" fill="#999" font-family="monospace" font-size="10" font-weight="bold" text-anchor="start">L1</text>
<text x="25" y="987.0" fill="#999" font-family="monospace" font-size="10" font-weight="bold" text-anchor="start">L0</text>
<defs><marker id="arrow" markerWidth="8" markerHeight="6" refX="8" refY="3" orient="auto"><polygon points="0,0 8,3 0,6" fill="#8B4513" fill-opacity="0.7"/></marker></defs>
<path d="M 180.0,954.0 C 210.0,914.0 350.0,914.0 380.0,874.0" fill="none" stroke="#8B4513" stroke-width="3" stroke-opacity="0.6" marker-end="url(#arrow)"/>
<path d="M 420.0,954.0 C 414.0,914.0 386.0,914.0 380.0,874.0" fill="none" stroke="#8B4513" stroke-width="3" stroke-opacity="0.6" marker-end="url(#arrow)"/>
<path d="M 660.0,1012.0 C 772.94325,983.0 1300.01175,983.0 1412.955,954.0" fill="none" stroke="#8B4513" stroke-width="3" stroke-opacity="0.6" marker-end="url(#arrow)"/>
<path d="M 900.0,954.0 C 822.0,679.0 458.0,679.0 380.0,404.0" fill="none" stroke="#8B4513" stroke-width="3" stroke-opacity="0.6" marker-end="url(#arrow)"/>
<path d="M 1140.0,954.0 C 1026.0,831.0 494.0,831.0 380.0,708.0" fill="none" stroke="#8B4513" stroke-width="3" stroke-opacity="0.6" marker-end="url(#arrow)"/>
<path d="M 380.0,788.0 C 380.0,679.0 380.0,679.0 380.0,570.0" fill="none" stroke="#8B4513" stroke-width="3" stroke-opacity="0.6" marker-end="url(#arrow)"/>
<path d="M 380.0,484.0 C 380.0,368.0 380.0,368.0 380.0,252.0" fill="none" stroke="#8B4513" stroke-width="3" stroke-opacity="0.6" marker-end="url(#arrow)"/>
<path d="M 380.0,194.0 C 380.0,154.0 380.0,154.0 380.0,114.0" fill="none" stroke="#8B4513" stroke-width="3" stroke-opacity="0.6" marker-end="url(#arrow)"/>
<path d="M 380.0,484.0 C 380.0,299.0 380.0,299.0 380.0,114.0" fill="none" stroke="#8B4513" stroke-width="3" stroke-opacity="0.6" marker-end="url(#arrow)"/>
<path d="M 1412.955,954.0 C 1258.01175,534.0 534.94325,534.0 380.0,114.0" fill="none" stroke="#8B4513" stroke-width="3" stroke-opacity="0.6" marker-end="url(#arrow)"/>
<path d="M 380.0,332.0 C 380.0,223.0 380.0,223.0 380.0,114.0" fill="none" stroke="#8B4513" stroke-width="3" stroke-opacity="0.6" marker-end="url(#arrow)"/>
<path d="M 380.0,650.0 C 380.0,382.0 380.0,382.0 380.0,114.0" fill="none" stroke="#8B4513" stroke-width="3" stroke-opacity="0.6" marker-end="url(#arrow)"/>
<rect x="80.0" y="954.0" width="200" height="58" fill="#e8e8e8" stroke="#999" stroke-width="2" rx="8"/>
<text x="180.0" y="972.0" text-anchor="middle" fill="#333" font-family="Arial,sans-serif" font-size="12" font-weight="bold">Emb: &#x27; not&#x27; (pos 21)</text>
<text x="180.0" y="990.0" text-anchor="middle" fill="#666" font-family="monospace" font-size="9">L-1:F-1</text>
<circle cx="262.0" cy="967.0" r="9" fill="#ccc"/>
<text x="262.0" y="971.0" text-anchor="middle" fill="#666" font-family="monospace" font-size="9" font-weight="bold">1</text>
<rect x="320.0" y="954.0" width="200" height="58" fill="#e8e8e8" stroke="#999" stroke-width="2" rx="8"/>
<text x="420.0" y="972.0" text-anchor="middle" fill="#333" font-family="Arial,sans-serif" font-size="12" font-weight="bold">Emb: &#x27; were&#x27; (pos 20)</text>
<text x="420.0" y="990.0" text-anchor="middle" fill="#666" font-family="monospace" font-size="9">L-1:F-1</text>
<circle cx="502.0" cy="967.0" r="9" fill="#ccc"/>
<text x="502.0" y="971.0" text-anchor="middle" fill="#666" font-family="monospace" font-size="9" font-weight="bold">1</text>
<rect x="560.0" y="954.0" width="200" height="58" fill="#e8e8e8" stroke="#999" stroke-width="2" rx="8"/>
<text x="660.0" y="972.0" text-anchor="middle" fill="#333" font-family="Arial,sans-serif" font-size="12" font-weight="bold">Emb: &#x27; they&#x27; (pos 2)</text>
<text x="660.0" y="990.0" text-anchor="middle" fill="#666" font-family="monospace" font-size="9">L-1:F-1</text>
<circle cx="742.0" cy="967.0" r="9" fill="#ccc"/>
<text x="742.0" y="971.0" text-anchor="middle" fill="#666" font-family="monospace" font-size="9" font-weight="bold">1</text>
<rect x="800.0" y="954.0" width="200" height="58" fill="#e8e8e8" stroke="#999" stroke-width="2" rx="8"/>
<text x="900.0" y="972.0" text-anchor="middle" fill="#333" font-family="Arial,sans-serif" font-size="12" font-weight="bold">Emb: &#x27; set&#x27; (pos 3)</text>
<text x="900.0" y="990.0" text-anchor="middle" fill="#666" font-family="monospace" font-size="9">L-1:F-1</text>
<circle cx="982.0" cy="967.0" r="9" fill="#ccc"/>
<text x="982.0" y="971.0" text-anchor="middle" fill="#666" font-family="monospace" font-size="9" font-weight="bold">1</text>
<rect x="1040.0" y="954.0" width="200" height="58" fill="#e8e8e8" stroke="#999" stroke-width="2" rx="8"/>
<text x="1140.0" y="972.0" text-anchor="middle" fill="#333" font-family="Arial,sans-serif" font-size="12" font-weight="bold">Emb: &#x27; fire&#x27; (pos 12)</text>
<text x="1140.0" y="990.0" text-anchor="middle" fill="#666" font-family="monospace" font-size="9">L-1:F-1</text>
<circle cx="1222.0" cy="967.0" r="9" fill="#ccc"/>
<text x="1222.0" y="971.0" text-anchor="middle" fill="#666" font-family="monospace" font-size="9" font-weight="bold">1</text>
<rect x="244.29000000000002" y="788.0" width="271.41999999999996" height="86" fill="#e8e8e8" stroke="#999" stroke-width="2" rx="8"/>
<text x="380.0" y="806.0" text-anchor="middle" fill="#333" font-family="Arial,sans-serif" font-size="12" font-weight="bold">Early Negation Detectors</text>
<text x="380.0" y="820.0" text-anchor="middle" fill="#333" font-family="Arial,sans-serif" font-size="12" font-weight="bold">(L0-2)</text>
<text x="380.0" y="838.0" text-anchor="middle" fill="#666" font-family="monospace" font-size="9">L0:F4958 —  the word &quot;not&quot;</text>
<text x="380.0" y="852.0" text-anchor="middle" fill="#666" font-family="monospace" font-size="9">L0:F7257 — the word &quot;still&quot;.</text>
<text x="380.0" y="866.0" text-anchor="middle" fill="#666" font-family="monospace" font-size="9">L2:F12021 — &quot;not&quot; or negative terms, with </text>
<circle cx="497.71000000000004" cy="801.0" r="9" fill="#ccc"/>
<text x="497.71000000000004" y="805.0" text-anchor="middle" fill="#666" font-family="monospace" font-size="9" font-weight="bold">3</text>
<rect x="247.04500000000002" y="484.0" width="265.90999999999997" height="86" fill="#e8e8e8" stroke="#999" stroke-width="2" rx="8"/>
<text x="380.0" y="502.0" text-anchor="middle" fill="#333" font-family="Arial,sans-serif" font-size="12" font-weight="bold">Mid-layer Negation</text>
<text x="380.0" y="516.0" text-anchor="middle" fill="#333" font-family="Arial,sans-serif" font-size="12" font-weight="bold">Features (L3-4)</text>
<text x="380.0" y="534.0" text-anchor="middle" fill="#666" font-family="monospace" font-size="9">L3:F8011 —  a mix of words and code fragm</text>
<text x="380.0" y="548.0" text-anchor="middle" fill="#666" font-family="monospace" font-size="9">L3:F1101 —  error messages and terms indi</text>
<text x="380.0" y="562.0" text-anchor="middle" fill="#666" font-family="monospace" font-size="9">L4:F4492 — negations in various languages</text>
<circle cx="494.9549999999999" cy="497.0" r="9" fill="#ccc"/>
<text x="494.9549999999999" y="501.0" text-anchor="middle" fill="#666" font-family="monospace" font-size="9" font-weight="bold">3</text>
<rect x="241.53500000000003" y="194.0" width="276.92999999999995" height="58" fill="#e8e8e8" stroke="#999" stroke-width="2" rx="8"/>
<text x="380.0" y="212.0" text-anchor="middle" fill="#333" font-family="Arial,sans-serif" font-size="12" font-weight="bold">Late Negation: &#x27;not&#x27; +</text>
<text x="380.0" y="226.0" text-anchor="middle" fill="#333" font-family="Arial,sans-serif" font-size="12" font-weight="bold">be-verb Pattern (L16)</text>
<text x="380.0" y="244.0" text-anchor="middle" fill="#666" font-family="monospace" font-size="9">L16:F12358 —  the word &quot;not&quot; followed withi</text>
<circle cx="500.4649999999999" cy="207.0" r="9" fill="#ccc"/>
<text x="500.4649999999999" y="211.0" text-anchor="middle" fill="#666" font-family="monospace" font-size="9" font-weight="bold">1</text>
<rect x="1280.0" y="954.0" width="265.90999999999997" height="58" fill="#e8e8e8" stroke="#999" stroke-width="2" rx="8"/>
<text x="1412.955" y="972.0" text-anchor="middle" fill="#333" font-family="Arial,sans-serif" font-size="12" font-weight="bold">&#x27;they&#x27; Pronoun Detector</text>
<text x="1412.955" y="986.0" text-anchor="middle" fill="#333" font-family="Arial,sans-serif" font-size="12" font-weight="bold">(L0)</text>
<text x="1412.955" y="1004.0" text-anchor="middle" fill="#666" font-family="monospace" font-size="9">L0:F3498 —  the pronoun &quot;they&quot; or its pos</text>
<circle cx="1527.9099999999999" cy="967.0" r="9" fill="#ccc"/>
<text x="1527.9099999999999" y="971.0" text-anchor="middle" fill="#666" font-family="monospace" font-size="9" font-weight="bold">1</text>
<rect x="244.29000000000002" y="332.0" width="271.41999999999996" height="72" fill="#e8e8e8" stroke="#999" stroke-width="2" rx="8"/>
<text x="380.0" y="350.0" text-anchor="middle" fill="#333" font-family="Arial,sans-serif" font-size="12" font-weight="bold">&#x27;set&#x27; + Context Detectors</text>
<text x="380.0" y="364.0" text-anchor="middle" fill="#333" font-family="Arial,sans-serif" font-size="12" font-weight="bold">(L14-15)</text>
<text x="380.0" y="382.0" text-anchor="middle" fill="#666" font-family="monospace" font-size="9">L14:F8363 —  the word &quot;set&quot; followed by pr</text>
<text x="380.0" y="396.0" text-anchor="middle" fill="#666" font-family="monospace" font-size="9">L15:F2080 — the phrase &quot;set&quot; followed by a</text>
<circle cx="497.71000000000004" cy="345.0" r="9" fill="#ccc"/>
<text x="497.71000000000004" y="349.0" text-anchor="middle" fill="#666" font-family="monospace" font-size="9" font-weight="bold">2</text>
<rect x="280.0" y="650.0" width="200" height="58" fill="#e8e8e8" stroke="#999" stroke-width="2" rx="8"/>
<text x="380.0" y="668.0" text-anchor="middle" fill="#333" font-family="Arial,sans-serif" font-size="12" font-weight="bold">&#x27;fire&#x27; Content Feature</text>
<text x="380.0" y="682.0" text-anchor="middle" fill="#333" font-family="Arial,sans-serif" font-size="12" font-weight="bold">(L2)</text>
<text x="380.0" y="700.0" text-anchor="middle" fill="#666" font-family="monospace" font-size="9">L2:F4819</text>
<circle cx="462.0" cy="663.0" r="9" fill="#ccc"/>
<text x="462.0" y="667.0" text-anchor="middle" fill="#666" font-family="monospace" font-size="9" font-weight="bold">1</text>
<rect x="280.0" y="70.0" width="200" height="44" fill="#e8e8e8" stroke="#999" stroke-width="2" rx="8"/>
<text x="380.0" y="88.0" text-anchor="middle" fill="#333" font-family="Arial,sans-serif" font-size="12" font-weight="bold">Output: Probe</text>
<text x="380.0" y="102.0" text-anchor="middle" fill="#333" font-family="Arial,sans-serif" font-size="12" font-weight="bold">Classification Score</text>
<circle cx="462.0" cy="83.0" r="9" fill="#ccc"/>
<text x="462.0" y="87.0" text-anchor="middle" fill="#666" font-family="monospace" font-size="9" font-weight="bold">0</text>
<line x1="40" y1="1092" x2="1625" y2="1092" stroke="#ddd" stroke-width="1"/>
<text x="40" y="1110" fill="#666" font-family="Arial,sans-serif" font-size="10" font-weight="bold" letter-spacing="1px">PROMPT</text>
<text x="40" y="1128" fill="#333" font-family="monospace" font-size="11">"&lt;bos&gt;So they set about clearing the land for agriculture, setting fire to massive tracts of forest. They were not allowe"</text>
<text x="40" y="1152" fill="#666" font-family="Arial,sans-serif" font-size="10" font-weight="bold" letter-spacing="1px">TOP OUTPUTS</text>
<rect x="40" y="1157" width="100" height="20" fill="#e8e8e8" stroke="none" rx="6"/>
<text x="45" y="1171" fill="#333" font-family="Arial,sans-serif" font-size="11" font-weight="bold">(empty) <tspan fill="#555" font-size="10">100%</tspan></text>
</svg>