<svg width="3045" height="2201" xmlns="http://www.w3.org/2000/svg">
<rect width="3045" height="2201" fill="#f5f5f5"/>
<rect x="15" y="15" width="3015" height="2171" fill="white" stroke="none" rx="12"/>
<text x="40" y="48" fill="#666" font-family="Arial,sans-serif" font-size="14" font-weight="bold" letter-spacing="1px">ATTRIBUTION CIRCUIT</text>
<text x="25" y="96.0" fill="#999" font-family="monospace" font-size="10" font-weight="bold" text-anchor="start">L36</text>
<text x="25" y="234.0" fill="#999" font-family="monospace" font-size="10" font-weight="bold" text-anchor="start">L18</text>
<text x="25" y="379.0" fill="#999" font-family="monospace" font-size="10" font-weight="bold" text-anchor="start">L17</text>
<text x="25" y="517.0" fill="#999" font-family="monospace" font-size="10" font-weight="bold" text-anchor="start">L16</text>
<text x="25" y="655.0" fill="#999" font-family="monospace" font-size="10" font-weight="bold" text-anchor="start">L15</text>
<text x="25" y="793.0" fill="#999" font-family="monospace" font-size="10" font-weight="bold" text-anchor="start">L12</text>
<text x="25" y="931.0" fill="#999" font-family="monospace" font-size="10" font-weight="bold" text-anchor="start">L8</text>
<text x="25" y="1076.0" fill="#999" font-family="monospace" font-size="10" font-weight="bold" text-anchor="start">L7</text>
<text x="25" y="1228.0" fill="#999" font-family="monospace" font-size="10" font-weight="bold" text-anchor="start">L6</text>
<text x="25" y="1380.0" fill="#999" font-family="monospace" font-size="10" font-weight="bold" text-anchor="start">L5</text>
<text x="25" y="1525.0" fill="#999" font-family="monospace" font-size="10" font-weight="bold" text-anchor="start">L4</text>
<text x="25" y="1663.0" fill="#999" font-family="monospace" font-size="10" font-weight="bold" text-anchor="start">L3</text>
<text x="25" y="1808.0" fill="#999" font-family="monospace" font-size="10" font-weight="bold" text-anchor="start">L2</text>
<text x="25" y="1967.0" fill="#999" font-family="monospace" font-size="10" font-weight="bold" text-anchor="start">L0</text>
<defs><marker id="arrow" markerWidth="8" markerHeight="6" refX="8" refY="3" orient="auto"><polygon points="0,0 8,3 0,6" fill="#8B4513" fill-opacity="0.7"/></marker></defs>
<path d="M 180.0,1985.0 C 442.21124999999995,1952.5 1665.86375,1952.5 1928.0749999999998,1920.0" fill="none" stroke="#8B4513" stroke-width="3" stroke-opacity="0.6" marker-end="url(#arrow)"/>
<path d="M 180.0,1941.0 C 210.0,1524.5 350.0,1524.5 380.0,1108.0" fill="none" stroke="#8B4513" stroke-width="3" stroke-opacity="0.6" marker-end="url(#arrow)"/>
<path d="M 180.0,1941.0 C 187.47,1600.5 222.33,1600.5 229.8,1260.0" fill="none" stroke="#8B4513" stroke-width="3" stroke-opacity="0.6" marker-end="url(#arrow)"/>
<path d="M 180.0,1941.0 C 228.52800000000002,1100.0 454.992,1100.0 503.52000000000004,259.0" fill="none" stroke="#8B4513" stroke-width="3" stroke-opacity="0.6" marker-end="url(#arrow)"/>
<path d="M 420.0,1985.0 C 733.569,1959.5 2196.8909999999996,1959.5 2510.4599999999996,1934.0" fill="none" stroke="#8B4513" stroke-width="3" stroke-opacity="0.6" marker-end="url(#arrow)"/>
<path d="M 420.0,1941.0 C 385.572,1887.0 224.908,1887.0 190.48,1833.0" fill="none" stroke="#8B4513" stroke-width="3" stroke-opacity="0.6" marker-end="url(#arrow)"/>
<path d="M 420.0,1941.0 C 414.0,1524.5 386.0,1524.5 380.0,1108.0" fill="none" stroke="#8B4513" stroke-width="3" stroke-opacity="0.6" marker-end="url(#arrow)"/>
<path d="M 420.0,1941.0 C 414.0,1379.5 386.0,1379.5 380.0,818.0" fill="none" stroke="#8B4513" stroke-width="3" stroke-opacity="0.6" marker-end="url(#arrow)"/>
<path d="M 660.0,1985.0 C 896.0977499999999,1959.5 1997.8872499999998,1959.5 2233.9849999999997,1934.0" fill="none" stroke="#8B4513" stroke-width="3" stroke-opacity="0.6" marker-end="url(#arrow)"/>
<path d="M 660.0,1941.0 C 723.447,1890.5 1019.5329999999998,1890.5 1082.9799999999998,1840.0" fill="none" stroke="#8B4513" stroke-width="3" stroke-opacity="0.6" marker-end="url(#arrow)"/>
<path d="M 660.0,1941.0 C 640.53,1745.5 549.67,1745.5 530.1999999999999,1550.0" fill="none" stroke="#8B4513" stroke-width="3" stroke-opacity="0.6" marker-end="url(#arrow)"/>
<path d="M 660.0,1941.0 C 595.47,1600.5 294.33000000000004,1600.5 229.8,1260.0" fill="none" stroke="#8B4513" stroke-width="3" stroke-opacity="0.6" marker-end="url(#arrow)"/>
<path d="M 660.0,1941.0 C 594.2302500000001,1103.5 287.30475,1103.5 221.53500000000003,266.0" fill="none" stroke="#8B4513" stroke-width="3" stroke-opacity="0.6" marker-end="url(#arrow)"/>
<path d="M 900.04,1941.0 C 835.708,1887.0 535.492,1887.0 471.15999999999997,1833.0" fill="none" stroke="#8B4513" stroke-width="3" stroke-opacity="0.6" marker-end="url(#arrow)"/>
<path d="M 900.04,1941.0 C 800.74375,1745.5 337.36125,1745.5 238.065,1550.0" fill="none" stroke="#8B4513" stroke-width="3" stroke-opacity="0.6" marker-end="url(#arrow)"/>
<path d="M 900.04,1941.0 C 799.09075,1676.5 327.99424999999997,1676.5 227.04500000000002,1412.0" fill="none" stroke="#8B4513" stroke-width="3" stroke-opacity="0.6" marker-end="url(#arrow)"/>
<path d="M 1147.08,1941.0 C 1009.07475,1676.5 365.05025,1676.5 227.04500000000002,1412.0" fill="none" stroke="#8B4513" stroke-width="3" stroke-opacity="0.6" marker-end="url(#arrow)"/>
<path d="M 1404.56,1941.0 C 1310.02325,1887.0 868.8517499999998,1887.0 774.3149999999998,1833.0" fill="none" stroke="#8B4513" stroke-width="3" stroke-opacity="0.6" marker-end="url(#arrow)"/>
<path d="M 1404.56,1941.0 C 1274.2325,1600.5 666.0375,1600.5 535.71,1260.0" fill="none" stroke="#8B4513" stroke-width="3" stroke-opacity="0.6" marker-end="url(#arrow)"/>
<path d="M 1655.08,1941.0 C 1477.492,1887.0 648.7479999999999,1887.0 471.15999999999997,1833.0" fill="none" stroke="#8B4513" stroke-width="3" stroke-opacity="0.6" marker-end="url(#arrow)"/>
<path d="M 1655.08,1941.0 C 1463.818,1379.5 571.262,1379.5 380.0,818.0" fill="none" stroke="#8B4513" stroke-width="3" stroke-opacity="0.6" marker-end="url(#arrow)"/>
<path d="M 1928.0749999999998,1920.0 C 1695.86375,1514.0 612.21125,1514.0 380.0,1108.0" fill="none" stroke="#8B4513" stroke-width="3" stroke-opacity="0.6" marker-end="url(#arrow)"/>
<path d="M 1928.0749999999998,1920.0 C 1673.3337499999998,1590.0 484.54125,1590.0 229.8,1260.0" fill="none" stroke="#8B4513" stroke-width="3" stroke-opacity="0.6" marker-end="url(#arrow)"/>
<path d="M 1928.0749999999998,1920.0 C 1714.3917499999998,1089.5 717.20325,1089.5 503.52000000000004,259.0" fill="none" stroke="#8B4513" stroke-width="3" stroke-opacity="0.6" marker-end="url(#arrow)"/>
<path d="M 2233.9849999999997,1934.0 C 2061.33425,1887.0 1255.6307499999998,1887.0 1082.9799999999998,1840.0" fill="none" stroke="#8B4513" stroke-width="3" stroke-opacity="0.6" marker-end="url(#arrow)"/>
<path d="M 2233.9849999999997,1934.0 C 1932.1174999999998,1100.0 523.4024999999999,1100.0 221.53500000000003,266.0" fill="none" stroke="#8B4513" stroke-width="3" stroke-opacity="0.6" marker-end="url(#arrow)"/>
<path d="M 2510.4599999999996,1934.0 C 2162.4629999999997,1883.5 538.4769999999999,1883.5 190.48,1833.0" fill="none" stroke="#8B4513" stroke-width="3" stroke-opacity="0.6" marker-end="url(#arrow)"/>
<path d="M 2789.6899999999996,1934.0 C 2428.2364999999995,1024.0 741.4534999999998,1024.0 380.0,114.0" fill="none" stroke="#8B4513" stroke-width="3" stroke-opacity="0.6" marker-end="url(#arrow)"/>
<path d="M 190.48,1775.0 C 241.85124999999996,1590.0 481.58374999999995,1590.0 532.9549999999999,1405.0" fill="none" stroke="#8B4513" stroke-width="3" stroke-opacity="0.6" marker-end="url(#arrow)"/>
<path d="M 471.15999999999997,1775.0 C 436.19575,1662.5 273.02925,1662.5 238.065,1550.0" fill="none" stroke="#8B4513" stroke-width="3" stroke-opacity="0.6" marker-end="url(#arrow)"/>
<path d="M 774.3149999999998,1775.0 C 692.2244999999998,1593.5 309.1355,1593.5 227.04500000000002,1412.0" fill="none" stroke="#8B4513" stroke-width="3" stroke-opacity="0.6" marker-end="url(#arrow)"/>
<path d="M 1082.9799999999998,1768.0 C 1000.0629999999999,1659.0 613.117,1659.0 530.1999999999999,1550.0" fill="none" stroke="#8B4513" stroke-width="3" stroke-opacity="0.6" marker-end="url(#arrow)"/>
<path d="M 380.0,1630.0 C 357.05675,1521.0 249.98825000000002,1521.0 227.04500000000002,1412.0" fill="none" stroke="#8B4513" stroke-width="3" stroke-opacity="0.6" marker-end="url(#arrow)"/>
<path d="M 238.065,1492.0 C 236.412,1452.0 228.698,1452.0 227.04500000000002,1412.0" fill="none" stroke="#8B4513" stroke-width="3" stroke-opacity="0.6" marker-end="url(#arrow)"/>
<path d="M 530.1999999999999,1492.0 C 485.13999999999993,1376.0 274.86,1376.0 229.8,1260.0" fill="none" stroke="#8B4513" stroke-width="3" stroke-opacity="0.6" marker-end="url(#arrow)"/>
<path d="M 227.04500000000002,1340.0 C 273.34475000000003,1300.0 489.41025,1300.0 535.71,1260.0" fill="none" stroke="#8B4513" stroke-width="3" stroke-opacity="0.6" marker-end="url(#arrow)"/>
<path d="M 532.9549999999999,1347.0 C 510.01174999999995,1082.5 402.94325,1082.5 380.0,818.0" fill="none" stroke="#8B4513" stroke-width="3" stroke-opacity="0.6" marker-end="url(#arrow)"/>
<path d="M 229.8,1188.0 C 252.33,1148.0 357.47,1148.0 380.0,1108.0" fill="none" stroke="#8B4513" stroke-width="3" stroke-opacity="0.6" marker-end="url(#arrow)"/>
<path d="M 229.8,1188.0 C 252.33,651.0 357.47,651.0 380.0,114.0" fill="none" stroke="#8B4513" stroke-width="3" stroke-opacity="0.6" marker-end="url(#arrow)"/>
<path d="M 535.71,1188.0 C 512.3535,651.0 403.3565,651.0 380.0,114.0" fill="none" stroke="#8B4513" stroke-width="3" stroke-opacity="0.6" marker-end="url(#arrow)"/>
<path d="M 380.0,1036.0 C 380.0,575.0 380.0,575.0 380.0,114.0" fill="none" stroke="#8B4513" stroke-width="3" stroke-opacity="0.6" marker-end="url(#arrow)"/>
<path d="M 380.0,898.0 C 380.0,789.0 380.0,789.0 380.0,680.0" fill="none" stroke="#8B4513" stroke-width="3" stroke-opacity="0.6" marker-end="url(#arrow)"/>
<path d="M 380.0,898.0 C 380.0,720.0 380.0,720.0 380.0,542.0" fill="none" stroke="#8B4513" stroke-width="3" stroke-opacity="0.6" marker-end="url(#arrow)"/>
<path d="M 380.0,760.0 C 380.0,437.0 380.0,437.0 380.0,114.0" fill="none" stroke="#8B4513" stroke-width="3" stroke-opacity="0.6" marker-end="url(#arrow)"/>
<path d="M 380.0,622.0 C 380.0,582.0 380.0,582.0 380.0,542.0" fill="none" stroke="#8B4513" stroke-width="3" stroke-opacity="0.6" marker-end="url(#arrow)"/>
<path d="M 380.0,622.0 C 380.0,513.0 380.0,513.0 380.0,404.0" fill="none" stroke="#8B4513" stroke-width="3" stroke-opacity="0.6" marker-end="url(#arrow)"/>
<path d="M 380.0,484.0 C 398.528,371.5 484.992,371.5 503.52000000000004,259.0" fill="none" stroke="#8B4513" stroke-width="3" stroke-opacity="0.6" marker-end="url(#arrow)"/>
<path d="M 380.0,346.0 C 398.528,302.5 484.992,302.5 503.52000000000004,259.0" fill="none" stroke="#8B4513" stroke-width="3" stroke-opacity="0.6" marker-end="url(#arrow)"/>
<path d="M 221.53500000000003,194.0 C 245.30475,154.0 356.23025,154.0 380.0,114.0" fill="none" stroke="#8B4513" stroke-width="3" stroke-opacity="0.6" marker-end="url(#arrow)"/>
<path d="M 503.52000000000004,201.0 C 484.992,157.5 398.528,157.5 380.0,114.0" fill="none" stroke="#8B4513" stroke-width="3" stroke-opacity="0.6" marker-end="url(#arrow)"/>
<path d="M 1928.0749999999998,1920.0 C 1695.86375,1017.0 612.21125,1017.0 380.0,114.0" fill="none" stroke="#8B4513" stroke-width="3" stroke-opacity="0.6" marker-end="url(#arrow)"/>
<path d="M 227.04500000000002,1340.0 C 249.98825000000002,727.0 357.05675,727.0 380.0,114.0" fill="none" stroke="#8B4513" stroke-width="3" stroke-opacity="0.6" marker-end="url(#arrow)"/>
<rect x="80.0" y="1941.0" width="200" height="44" fill="#e8e8e8" stroke="#999" stroke-width="2" rx="8"/>
<text x="180.0" y="1959.0" text-anchor="middle" fill="#333" font-family="Arial,sans-serif" font-size="12" font-weight="bold">Emb: &#x27;his&#x27; (pos 3)</text>
<circle cx="262.0" cy="1954.0" r="9" fill="#ccc"/>
<text x="262.0" y="1958.0" text-anchor="middle" fill="#666" font-family="monospace" font-size="9" font-weight="bold">0</text>
<rect x="320.0" y="1941.0" width="200" height="44" fill="#e8e8e8" stroke="#999" stroke-width="2" rx="8"/>
<text x="420.0" y="1959.0" text-anchor="middle" fill="#333" font-family="Arial,sans-serif" font-size="12" font-weight="bold">Emb: &#x27;Daniel&#x27; (pos 1)</text>
<circle cx="502.0" cy="1954.0" r="9" fill="#ccc"/>
<text x="502.0" y="1958.0" text-anchor="middle" fill="#666" font-family="monospace" font-size="9" font-weight="bold">0</text>
<rect x="560.0" y="1941.0" width="200" height="44" fill="#e8e8e8" stroke="#999" stroke-width="2" rx="8"/>
<text x="660.0" y="1959.0" text-anchor="middle" fill="#333" font-family="Arial,sans-serif" font-size="12" font-weight="bold">Emb: &#x27;He&#x27; (pos 22)</text>
<circle cx="742.0" cy="1954.0" r="9" fill="#ccc"/>
<text x="742.0" y="1958.0" text-anchor="middle" fill="#666" font-family="monospace" font-size="9" font-weight="bold">0</text>
<rect x="800.0" y="1941.0" width="200.07999999999998" height="44" fill="#e8e8e8" stroke="#999" stroke-width="2" rx="8"/>
<text x="900.04" y="1959.0" text-anchor="middle" fill="#333" font-family="Arial,sans-serif" font-size="12" font-weight="bold">Emb: &#x27;achelors&#x27; (pos 5)</text>
<circle cx="982.0799999999999" cy="1954.0" r="9" fill="#ccc"/>
<text x="982.0799999999999" y="1958.0" text-anchor="middle" fill="#666" font-family="monospace" font-size="9" font-weight="bold">0</text>
<rect x="1040.08" y="1941.0" width="214.0" height="44" fill="#e8e8e8" stroke="#999" stroke-width="2" rx="8"/>
<text x="1147.08" y="1959.0" text-anchor="middle" fill="#333" font-family="Arial,sans-serif" font-size="12" font-weight="bold">Emb: &#x27;Mechanical&#x27; (pos 8)</text>
<circle cx="1236.08" cy="1954.0" r="9" fill="#ccc"/>
<text x="1236.08" y="1958.0" text-anchor="middle" fill="#666" font-family="monospace" font-size="9" font-weight="bold">0</text>
<rect x="1294.08" y="1941.0" width="220.95999999999998" height="44" fill="#e8e8e8" stroke="#999" stroke-width="2" rx="8"/>
<text x="1404.56" y="1959.0" text-anchor="middle" fill="#333" font-family="Arial,sans-serif" font-size="12" font-weight="bold">Emb: &#x27;Engineering&#x27; (pos 9)</text>
<circle cx="1497.04" cy="1954.0" r="9" fill="#ccc"/>
<text x="1497.04" y="1958.0" text-anchor="middle" fill="#666" font-family="monospace" font-size="9" font-weight="bold">0</text>
<rect x="1555.04" y="1941.0" width="200.07999999999998" height="44" fill="#e8e8e8" stroke="#999" stroke-width="2" rx="8"/>
<text x="1655.08" y="1959.0" text-anchor="middle" fill="#333" font-family="Arial,sans-serif" font-size="12" font-weight="bold">Emb: &#x27;received&#x27; (pos 2)</text>
<circle cx="1737.12" cy="1954.0" r="9" fill="#ccc"/>
<text x="1737.12" y="1958.0" text-anchor="middle" fill="#666" font-family="monospace" font-size="9" font-weight="bold">0</text>
<rect x="1795.12" y="1920.0" width="265.90999999999997" height="86" fill="#e8e8e8" stroke="#999" stroke-width="2" rx="8"/>
<text x="1928.0749999999998" y="1938.0" text-anchor="middle" fill="#333" font-family="Arial,sans-serif" font-size="12" font-weight="bold">L0: &#x27;his/he&#x27; pronoun</text>
<text x="1928.0749999999998" y="1952.0" text-anchor="middle" fill="#333" font-family="Arial,sans-serif" font-size="12" font-weight="bold">detector (pos 3,25,47)</text>
<text x="1928.0749999999998" y="1970.0" text-anchor="middle" fill="#666" font-family="monospace" font-size="9">L0:F2994 — the pronoun &quot;his&quot; and the pron</text>
<text x="1928.0749999999998" y="1984.0" text-anchor="middle" fill="#666" font-family="monospace" font-size="9">L0:F2994 — the pronoun &quot;his&quot; and the pron</text>
<text x="1928.0749999999998" y="1998.0" text-anchor="middle" fill="#666" font-family="monospace" font-size="9">L0:F2994 — the pronoun &quot;his&quot; and the pron</text>
<circle cx="2043.0299999999997" cy="1933.0" r="9" fill="#ccc"/>
<text x="2043.0299999999997" y="1937.0" text-anchor="middle" fill="#666" font-family="monospace" font-size="9" font-weight="bold">3</text>
<rect x="2101.0299999999997" y="1934.0" width="265.90999999999997" height="58" fill="#e8e8e8" stroke="#999" stroke-width="2" rx="8"/>
<text x="2233.9849999999997" y="1952.0" text-anchor="middle" fill="#333" font-family="Arial,sans-serif" font-size="12" font-weight="bold">L0: Male &#x27;He/His&#x27;</text>
<text x="2233.9849999999997" y="1966.0" text-anchor="middle" fill="#333" font-family="Arial,sans-serif" font-size="12" font-weight="bold">reference detector (pos</text>
<text x="2233.9849999999997" y="1980.0" text-anchor="middle" fill="#333" font-family="Arial,sans-serif" font-size="12" font-weight="bold">22)</text>
<text x="2233.9849999999997" y="1998.0" text-anchor="middle" fill="#666" font-family="monospace" font-size="9">L0:F1069 —  references to a male person, </text>
<circle cx="2348.9399999999996" cy="1947.0" r="9" fill="#ccc"/>
<text x="2348.9399999999996" y="1951.0" text-anchor="middle" fill="#666" font-family="monospace" font-size="9" font-weight="bold">1</text>
<rect x="2406.9399999999996" y="1934.0" width="207.04" height="58" fill="#e8e8e8" stroke="#999" stroke-width="2" rx="8"/>
<text x="2510.4599999999996" y="1952.0" text-anchor="middle" fill="#333" font-family="Arial,sans-serif" font-size="12" font-weight="bold">L0: Proper noun detector</text>
<text x="2510.4599999999996" y="1966.0" text-anchor="middle" fill="#333" font-family="Arial,sans-serif" font-size="12" font-weight="bold">(pos 1)</text>
<text x="2510.4599999999996" y="1984.0" text-anchor="middle" fill="#666" font-family="monospace" font-size="9">L0:F7532 —  proper nouns</text>
<circle cx="2595.9799999999996" cy="1947.0" r="9" fill="#ccc"/>
<text x="2595.9799999999996" y="1951.0" text-anchor="middle" fill="#666" font-family="monospace" font-size="9" font-weight="bold">1</text>
<rect x="2653.9799999999996" y="1934.0" width="271.41999999999996" height="58" fill="#e8e8e8" stroke="#999" stroke-width="2" rx="8"/>
<text x="2789.6899999999996" y="1952.0" text-anchor="middle" fill="#333" font-family="Arial,sans-serif" font-size="12" font-weight="bold">L0: Past tense verb</text>
<text x="2789.6899999999996" y="1966.0" text-anchor="middle" fill="#333" font-family="Arial,sans-serif" font-size="12" font-weight="bold">detector (pos 2)</text>
<text x="2789.6899999999996" y="1984.0" text-anchor="middle" fill="#666" font-family="monospace" font-size="9">L0:F13553 —  verbs in the past tense or pa</text>
<circle cx="2907.3999999999996" cy="1947.0" r="9" fill="#ccc"/>
<text x="2907.3999999999996" y="1951.0" text-anchor="middle" fill="#666" font-family="monospace" font-size="9" font-weight="bold">1</text>
<rect x="80.0" y="1775.0" width="220.95999999999998" height="58" fill="#e8e8e8" stroke="#999" stroke-width="2" rx="8"/>
<text x="190.48" y="1793.0" text-anchor="middle" fill="#333" font-family="Arial,sans-serif" font-size="12" font-weight="bold">L2: People&#x27;s name detector</text>
<text x="190.48" y="1807.0" text-anchor="middle" fill="#333" font-family="Arial,sans-serif" font-size="12" font-weight="bold">(pos 1)</text>
<text x="190.48" y="1825.0" text-anchor="middle" fill="#666" font-family="monospace" font-size="9">L2:F16309 —  people&#x27;s names</text>
<circle cx="282.96" cy="1788.0" r="9" fill="#ccc"/>
<text x="282.96" y="1792.0" text-anchor="middle" fill="#666" font-family="monospace" font-size="9" font-weight="bold">1</text>
<rect x="340.96" y="1775.0" width="260.4" height="58" fill="#e8e8e8" stroke="#999" stroke-width="2" rx="8"/>
<text x="471.15999999999997" y="1793.0" text-anchor="middle" fill="#333" font-family="Arial,sans-serif" font-size="12" font-weight="bold">L2: Academic</text>
<text x="471.15999999999997" y="1807.0" text-anchor="middle" fill="#333" font-family="Arial,sans-serif" font-size="12" font-weight="bold">titles/degrees (pos 5)</text>
<text x="471.15999999999997" y="1825.0" text-anchor="middle" fill="#666" font-family="monospace" font-size="9">L2:F10852 —  academic titles and degrees</text>
<circle cx="583.3599999999999" cy="1788.0" r="9" fill="#ccc"/>
<text x="583.3599999999999" y="1792.0" text-anchor="middle" fill="#666" font-family="monospace" font-size="9" font-weight="bold">1</text>
<rect x="641.3599999999999" y="1775.0" width="265.90999999999997" height="58" fill="#e8e8e8" stroke="#999" stroke-width="2" rx="8"/>
<text x="774.3149999999998" y="1793.0" text-anchor="middle" fill="#333" font-family="Arial,sans-serif" font-size="12" font-weight="bold">L2: &#x27;Engineering&#x27; word</text>
<text x="774.3149999999998" y="1807.0" text-anchor="middle" fill="#333" font-family="Arial,sans-serif" font-size="12" font-weight="bold">detector (pos 9)</text>
<text x="774.3149999999998" y="1825.0" text-anchor="middle" fill="#666" font-family="monospace" font-size="9">L2:F1440 —  the word &quot;engineering&quot; and wo</text>
<circle cx="889.2699999999999" cy="1788.0" r="9" fill="#ccc"/>
<text x="889.2699999999999" y="1792.0" text-anchor="middle" fill="#666" font-family="monospace" font-size="9" font-weight="bold">1</text>
<rect x="947.2699999999998" y="1768.0" width="271.41999999999996" height="72" fill="#e8e8e8" stroke="#999" stroke-width="2" rx="8"/>
<text x="1082.9799999999998" y="1786.0" text-anchor="middle" fill="#333" font-family="Arial,sans-serif" font-size="12" font-weight="bold">L2: 3rd person pronoun</text>
<text x="1082.9799999999998" y="1800.0" text-anchor="middle" fill="#333" font-family="Arial,sans-serif" font-size="12" font-weight="bold">&#x27;he/she&#x27; (pos 22)</text>
<text x="1082.9799999999998" y="1818.0" text-anchor="middle" fill="#666" font-family="monospace" font-size="9">L2:F2110 —  the third person singular pro</text>
<text x="1082.9799999999998" y="1832.0" text-anchor="middle" fill="#666" font-family="monospace" font-size="9">L2:F13928 —  third person pronouns related</text>
<circle cx="1200.6899999999996" cy="1781.0" r="9" fill="#ccc"/>
<text x="1200.6899999999996" y="1785.0" text-anchor="middle" fill="#666" font-family="monospace" font-size="9" font-weight="bold">2</text>
<rect x="247.04500000000002" y="1630.0" width="265.90999999999997" height="58" fill="#e8e8e8" stroke="#999" stroke-width="2" rx="8"/>
<text x="380.0" y="1648.0" text-anchor="middle" fill="#333" font-family="Arial,sans-serif" font-size="12" font-weight="bold">L3: Academic degrees/study</text>
<text x="380.0" y="1662.0" text-anchor="middle" fill="#333" font-family="Arial,sans-serif" font-size="12" font-weight="bold">areas (pos 7)</text>
<text x="380.0" y="1680.0" text-anchor="middle" fill="#666" font-family="monospace" font-size="9">L3:F4113 —  mentions of academic degrees </text>
<circle cx="494.9549999999999" cy="1643.0" r="9" fill="#ccc"/>
<text x="494.9549999999999" y="1647.0" text-anchor="middle" fill="#666" font-family="monospace" font-size="9" font-weight="bold">1</text>
<rect x="107.86500000000001" y="1492.0" width="260.4" height="58" fill="#e8e8e8" stroke="#999" stroke-width="2" rx="8"/>
<text x="238.065" y="1510.0" text-anchor="middle" fill="#333" font-family="Arial,sans-serif" font-size="12" font-weight="bold">L4: Academic degree</text>
<text x="238.065" y="1524.0" text-anchor="middle" fill="#333" font-family="Arial,sans-serif" font-size="12" font-weight="bold">mentions (pos 5)</text>
<text x="238.065" y="1542.0" text-anchor="middle" fill="#666" font-family="monospace" font-size="9">L4:F3727 —  mentions of academic degrees</text>
<circle cx="350.265" cy="1505.0" r="9" fill="#ccc"/>
<text x="350.265" y="1509.0" text-anchor="middle" fill="#666" font-family="monospace" font-size="9" font-weight="bold">1</text>
<rect x="408.26499999999993" y="1492.0" width="243.86999999999998" height="58" fill="#e8e8e8" stroke="#999" stroke-width="2" rx="8"/>
<text x="530.1999999999999" y="1510.0" text-anchor="middle" fill="#333" font-family="Arial,sans-serif" font-size="12" font-weight="bold">L4: &#x27;he/him&#x27; pronoun</text>
<text x="530.1999999999999" y="1524.0" text-anchor="middle" fill="#333" font-family="Arial,sans-serif" font-size="12" font-weight="bold">detector (pos 22)</text>
<text x="530.1999999999999" y="1542.0" text-anchor="middle" fill="#666" font-family="monospace" font-size="9">L4:F14796 — the pronoun &quot;he&quot; or &quot;him&quot;</text>
<circle cx="634.1349999999999" cy="1505.0" r="9" fill="#ccc"/>
<text x="634.1349999999999" y="1509.0" text-anchor="middle" fill="#666" font-family="monospace" font-size="9" font-weight="bold">1</text>
<rect x="94.09000000000003" y="1340.0" width="265.90999999999997" height="72" fill="#e8e8e8" stroke="#999" stroke-width="2" rx="8"/>
<text x="227.04500000000002" y="1358.0" text-anchor="middle" fill="#333" font-family="Arial,sans-serif" font-size="12" font-weight="bold">L5: Fields of academic</text>
<text x="227.04500000000002" y="1372.0" text-anchor="middle" fill="#333" font-family="Arial,sans-serif" font-size="12" font-weight="bold">study (pos 9)</text>
<text x="227.04500000000002" y="1390.0" text-anchor="middle" fill="#666" font-family="monospace" font-size="9">L5:F10392 —  fields of academic study</text>
<text x="227.04500000000002" y="1404.0" text-anchor="middle" fill="#666" font-family="monospace" font-size="9">L5:F6384 — words related to higher educat</text>
<circle cx="342.0" cy="1353.0" r="9" fill="#ccc"/>
<text x="342.0" y="1357.0" text-anchor="middle" fill="#666" font-family="monospace" font-size="9" font-weight="bold">2</text>
<rect x="399.99999999999994" y="1347.0" width="265.90999999999997" height="58" fill="#e8e8e8" stroke="#999" stroke-width="2" rx="8"/>
<text x="532.9549999999999" y="1365.0" text-anchor="middle" fill="#333" font-family="Arial,sans-serif" font-size="12" font-weight="bold">L5: Name/nickname phrases</text>
<text x="532.9549999999999" y="1379.0" text-anchor="middle" fill="#333" font-family="Arial,sans-serif" font-size="12" font-weight="bold">(pos 2)</text>
<text x="532.9549999999999" y="1397.0" text-anchor="middle" fill="#666" font-family="monospace" font-size="9">L5:F7317 —  phrases with names and nickna</text>
<circle cx="647.9099999999999" cy="1360.0" r="9" fill="#ccc"/>
<text x="647.9099999999999" y="1364.0" text-anchor="middle" fill="#666" font-family="monospace" font-size="9" font-weight="bold">1</text>
<rect x="94.09000000000003" y="1188.0" width="271.41999999999996" height="72" fill="#e8e8e8" stroke="#999" stroke-width="2" rx="8"/>
<text x="229.8" y="1206.0" text-anchor="middle" fill="#333" font-family="Arial,sans-serif" font-size="12" font-weight="bold">L6: Male pronouns/titles</text>
<text x="229.8" y="1220.0" text-anchor="middle" fill="#333" font-family="Arial,sans-serif" font-size="12" font-weight="bold">detector (pos 3,22)</text>
<text x="229.8" y="1238.0" text-anchor="middle" fill="#666" font-family="monospace" font-size="9">L6:F12990 —  male pronouns and titles alon</text>
<text x="229.8" y="1252.0" text-anchor="middle" fill="#666" font-family="monospace" font-size="9">L6:F12990 —  male pronouns and titles alon</text>
<circle cx="347.51" cy="1201.0" r="9" fill="#ccc"/>
<text x="347.51" y="1205.0" text-anchor="middle" fill="#666" font-family="monospace" font-size="9" font-weight="bold">2</text>
<rect x="405.51000000000005" y="1188.0" width="260.4" height="72" fill="#e8e8e8" stroke="#999" stroke-width="2" rx="8"/>
<text x="535.71" y="1206.0" text-anchor="middle" fill="#333" font-family="Arial,sans-serif" font-size="12" font-weight="bold">L6: Academic field</text>
<text x="535.71" y="1220.0" text-anchor="middle" fill="#333" font-family="Arial,sans-serif" font-size="12" font-weight="bold">references (pos 8,9)</text>
<text x="535.71" y="1238.0" text-anchor="middle" fill="#666" font-family="monospace" font-size="9">L6:F170 —  references to academic fields</text>
<text x="535.71" y="1252.0" text-anchor="middle" fill="#666" font-family="monospace" font-size="9">L6:F170 —  references to academic fields</text>
<circle cx="647.9100000000001" cy="1201.0" r="9" fill="#ccc"/>
<text x="647.9100000000001" y="1205.0" text-anchor="middle" fill="#666" font-family="monospace" font-size="9" font-weight="bold">2</text>
<rect x="244.29000000000002" y="1036.0" width="271.41999999999996" height="72" fill="#e8e8e8" stroke="#999" stroke-width="2" rx="8"/>
<text x="380.0" y="1054.0" text-anchor="middle" fill="#333" font-family="Arial,sans-serif" font-size="12" font-weight="bold">L7: Gendered pronoun</text>
<text x="380.0" y="1068.0" text-anchor="middle" fill="#333" font-family="Arial,sans-serif" font-size="12" font-weight="bold">processor (pos 3)</text>
<text x="380.0" y="1086.0" text-anchor="middle" fill="#666" font-family="monospace" font-size="9">L7:F14893 —  pronouns or possessive pronou</text>
<text x="380.0" y="1100.0" text-anchor="middle" fill="#666" font-family="monospace" font-size="9">L7:F14946 —  the possessive pronoun &quot;his&quot; </text>
<circle cx="497.71000000000004" cy="1049.0" r="9" fill="#ccc"/>
<text x="497.71000000000004" y="1053.0" text-anchor="middle" fill="#666" font-family="monospace" font-size="9" font-weight="bold">2</text>
<rect x="247.04500000000002" y="898.0" width="265.90999999999997" height="58" fill="#e8e8e8" stroke="#999" stroke-width="2" rx="8"/>
<text x="380.0" y="916.0" text-anchor="middle" fill="#333" font-family="Arial,sans-serif" font-size="12" font-weight="bold">L8: Education/professional</text>
<text x="380.0" y="930.0" text-anchor="middle" fill="#333" font-family="Arial,sans-serif" font-size="12" font-weight="bold">qualifications (pos 3)</text>
<text x="380.0" y="948.0" text-anchor="middle" fill="#666" font-family="monospace" font-size="9">L8:F7587 —  words related to education an</text>
<circle cx="494.9549999999999" cy="911.0" r="9" fill="#ccc"/>
<text x="494.9549999999999" y="915.0" text-anchor="middle" fill="#666" font-family="monospace" font-size="9" font-weight="bold">1</text>
<rect x="255.31" y="760.0" width="249.38" height="58" fill="#e8e8e8" stroke="#999" stroke-width="2" rx="8"/>
<text x="380.0" y="778.0" text-anchor="middle" fill="#333" font-family="Arial,sans-serif" font-size="12" font-weight="bold">L12: Gender word detector</text>
<text x="380.0" y="792.0" text-anchor="middle" fill="#333" font-family="Arial,sans-serif" font-size="12" font-weight="bold">(pos 2)</text>
<text x="380.0" y="810.0" text-anchor="middle" fill="#666" font-family="monospace" font-size="9">L12:F2175 —  words referring to gender</text>
<circle cx="486.69" cy="773.0" r="9" fill="#ccc"/>
<text x="486.69" y="777.0" text-anchor="middle" fill="#666" font-family="monospace" font-size="9" font-weight="bold">1</text>
<rect x="241.53500000000003" y="622.0" width="276.92999999999995" height="58" fill="#e8e8e8" stroke="#999" stroke-width="2" rx="8"/>
<text x="380.0" y="640.0" text-anchor="middle" fill="#333" font-family="Arial,sans-serif" font-size="12" font-weight="bold">L15: Professional</text>
<text x="380.0" y="654.0" text-anchor="middle" fill="#333" font-family="Arial,sans-serif" font-size="12" font-weight="bold">accomplishments (pos 3)</text>
<text x="380.0" y="672.0" text-anchor="middle" fill="#666" font-family="monospace" font-size="9">L15:F12482 —  mentions of professional acco</text>
<circle cx="500.4649999999999" cy="635.0" r="9" fill="#ccc"/>
<text x="500.4649999999999" y="639.0" text-anchor="middle" fill="#666" font-family="monospace" font-size="9" font-weight="bold">1</text>
<rect x="244.29000000000002" y="484.0" width="271.41999999999996" height="58" fill="#e8e8e8" stroke="#999" stroke-width="2" rx="8"/>
<text x="380.0" y="502.0" text-anchor="middle" fill="#333" font-family="Arial,sans-serif" font-size="12" font-weight="bold">L16: Degrees/universities</text>
<text x="380.0" y="516.0" text-anchor="middle" fill="#333" font-family="Arial,sans-serif" font-size="12" font-weight="bold">mentions (pos 3)</text>
<text x="380.0" y="534.0" text-anchor="middle" fill="#666" font-family="monospace" font-size="9">L16:F2313 —  mentions of degrees and unive</text>
<circle cx="497.71000000000004" cy="497.0" r="9" fill="#ccc"/>
<text x="497.71000000000004" y="501.0" text-anchor="middle" fill="#666" font-family="monospace" font-size="9" font-weight="bold">1</text>
<rect x="274.595" y="346.0" width="210.81" height="58" fill="#e8e8e8" stroke="#999" stroke-width="2" rx="8"/>
<text x="380.0" y="364.0" text-anchor="middle" fill="#333" font-family="Arial,sans-serif" font-size="12" font-weight="bold">L17: Possessive pronoun</text>
<text x="380.0" y="378.0" text-anchor="middle" fill="#333" font-family="Arial,sans-serif" font-size="12" font-weight="bold">processor (pos 3)</text>
<text x="380.0" y="396.0" text-anchor="middle" fill="#666" font-family="monospace" font-size="9">L17:F9189 — possessive pronouns</text>
<circle cx="467.40500000000003" cy="359.0" r="9" fill="#ccc"/>
<text x="467.40500000000003" y="363.0" text-anchor="middle" fill="#666" font-family="monospace" font-size="9" font-weight="bold">1</text>
<rect x="118.01500000000003" y="194.0" width="207.04" height="72" fill="#e8e8e8" stroke="#999" stroke-width="2" rx="8"/>
<text x="221.53500000000003" y="212.0" text-anchor="middle" fill="#333" font-family="Arial,sans-serif" font-size="12" font-weight="bold">L18: &#x27;He&#x27; detection (pos</text>
<text x="221.53500000000003" y="226.0" text-anchor="middle" fill="#333" font-family="Arial,sans-serif" font-size="12" font-weight="bold">22,81) — NEGATIVE</text>
<text x="221.53500000000003" y="244.0" text-anchor="middle" fill="#666" font-family="monospace" font-size="9">L18:F14743 — He</text>
<text x="221.53500000000003" y="258.0" text-anchor="middle" fill="#666" font-family="monospace" font-size="9">L18:F14743 — He</text>
<circle cx="307.055" cy="207.0" r="9" fill="#ccc"/>
<text x="307.055" y="211.0" text-anchor="middle" fill="#666" font-family="monospace" font-size="9" font-weight="bold">2</text>
<rect x="365.05500000000006" y="201.0" width="276.92999999999995" height="58" fill="#e8e8e8" stroke="#999" stroke-width="2" rx="8"/>
<text x="503.52000000000004" y="219.0" text-anchor="middle" fill="#333" font-family="Arial,sans-serif" font-size="12" font-weight="bold">L18: Pronoun/possessive</text>
<text x="503.52000000000004" y="233.0" text-anchor="middle" fill="#333" font-family="Arial,sans-serif" font-size="12" font-weight="bold">processor (pos 3) —</text>
<text x="503.52000000000004" y="247.0" text-anchor="middle" fill="#333" font-family="Arial,sans-serif" font-size="12" font-weight="bold">NEGATIVE</text>
<text x="503.52000000000004" y="265.0" text-anchor="middle" fill="#666" font-family="monospace" font-size="9">L18:F10315 —  pronouns and possessive prono</text>
<circle cx="623.985" cy="214.0" r="9" fill="#ccc"/>
<text x="623.985" y="218.0" text-anchor="middle" fill="#666" font-family="monospace" font-size="9" font-weight="bold">1</text>
<rect x="269.52" y="70.0" width="220.95999999999998" height="44" fill="#e8e8e8" stroke="#999" stroke-width="2" rx="8"/>
<text x="380.0" y="88.0" text-anchor="middle" fill="#333" font-family="Arial,sans-serif" font-size="12" font-weight="bold">Probe classification score</text>
<circle cx="472.47999999999996" cy="83.0" r="9" fill="#ccc"/>
<text x="472.47999999999996" y="87.0" text-anchor="middle" fill="#666" font-family="monospace" font-size="9" font-weight="bold">0</text>
<line x1="40" y1="2086" x2="3005" y2="2086" stroke="#ddd" stroke-width="1"/>
<text x="40" y="2104" fill="#666" font-family="Arial,sans-serif" font-size="10" font-weight="bold" letter-spacing="1px">PROMPT</text>
<text x="40" y="2122" fill="#333" font-family="monospace" font-size="11">"&lt;bos&gt;Daniel received his Bachelors degree in Mechanical Engineering from the University of Waterloo in 1993. He later ea"</text>
<text x="40" y="2146" fill="#666" font-family="Arial,sans-serif" font-size="10" font-weight="bold" letter-spacing="1px">TOP OUTPUTS</text>
<rect x="40" y="2151" width="100" height="20" fill="#e8e8e8" stroke="none" rx="6"/>
<text x="45" y="2165" fill="#333" font-family="Arial,sans-serif" font-size="11" font-weight="bold">(empty) <tspan fill="#555" font-size="10">100%</tspan></text>
</svg>