<svg width="1971" height="1193" xmlns="http://www.w3.org/2000/svg">
<rect width="1971" height="1193" fill="#f5f5f5"/>
<rect x="15" y="15" width="1941" height="1163" fill="white" stroke="none" rx="12"/>
<text x="40" y="48" fill="#666" font-family="Arial,sans-serif" font-size="14" font-weight="bold" letter-spacing="1px">ATTRIBUTION CIRCUIT</text>
<text x="25" y="96.0" fill="#999" font-family="monospace" font-size="10" font-weight="bold" text-anchor="start">L36</text>
<text x="25" y="227.0" fill="#999" font-family="monospace" font-size="10" font-weight="bold" text-anchor="start">L6</text>
<text x="25" y="365.0" fill="#999" font-family="monospace" font-size="10" font-weight="bold" text-anchor="start">L4</text>
<text x="25" y="510.0" fill="#999" font-family="monospace" font-size="10" font-weight="bold" text-anchor="start">L3</text>
<text x="25" y="655.0" fill="#999" font-family="monospace" font-size="10" font-weight="bold" text-anchor="start">L2</text>
<text x="25" y="793.0" fill="#999" font-family="monospace" font-size="10" font-weight="bold" text-anchor="start">L1</text>
<text x="25" y="952.0" fill="#999" font-family="monospace" font-size="10" font-weight="bold" text-anchor="start">L0</text>
<defs><marker id="arrow" markerWidth="8" markerHeight="6" refX="8" refY="3" orient="auto"><polygon points="0,0 8,3 0,6" fill="#8B4513" fill-opacity="0.7"/></marker></defs>
<path d="M 180.0,926.0 C 186.64350000000002,803.0 217.6465,803.0 224.29000000000002,680.0" fill="none" stroke="#8B4513" stroke-width="3" stroke-opacity="0.6" marker-end="url(#arrow)"/>
<path d="M 180.0,970.0 C 411.255,944.5 1490.4450000000002,944.5 1721.7,919.0" fill="none" stroke="#8B4513" stroke-width="3" stroke-opacity="0.6" marker-end="url(#arrow)"/>
<path d="M 180.0,926.0 C 210.0,658.0 350.0,658.0 380.0,390.0" fill="none" stroke="#8B4513" stroke-width="3" stroke-opacity="0.6" marker-end="url(#arrow)"/>
<path d="M 180.0,926.0 C 232.94324999999998,734.0 480.01174999999995,734.0 532.9549999999999,542.0" fill="none" stroke="#8B4513" stroke-width="3" stroke-opacity="0.6" marker-end="url(#arrow)"/>
<path d="M 180.0,926.0 C 210.0,589.0 350.0,589.0 380.0,252.0" fill="none" stroke="#8B4513" stroke-width="3" stroke-opacity="0.6" marker-end="url(#arrow)"/>
<path d="M 180.0,926.0 C 224.21775,872.0 430.56724999999994,872.0 474.78499999999997,818.0" fill="none" stroke="#8B4513" stroke-width="3" stroke-opacity="0.6" marker-end="url(#arrow)"/>
<path d="M 420.0,926.0 C 437.3565,803.0 518.3535,803.0 535.71,680.0" fill="none" stroke="#8B4513" stroke-width="3" stroke-opacity="0.6" marker-end="url(#arrow)"/>
<path d="M 420.0,926.0 C 436.94325,734.0 516.0117499999999,734.0 532.9549999999999,542.0" fill="none" stroke="#8B4513" stroke-width="3" stroke-opacity="0.6" marker-end="url(#arrow)"/>
<path d="M 660.0,970.0 C 773.3685,934.0 1302.4215,934.0 1415.79,898.0" fill="none" stroke="#8B4513" stroke-width="3" stroke-opacity="0.6" marker-end="url(#arrow)"/>
<path d="M 660.0,926.0 C 678.10425,872.0 762.59075,872.0 780.6949999999999,818.0" fill="none" stroke="#8B4513" stroke-width="3" stroke-opacity="0.6" marker-end="url(#arrow)"/>
<path d="M 900.04,926.0 C 793.67125,872.0 297.28375,872.0 190.915,818.0" fill="none" stroke="#8B4513" stroke-width="3" stroke-opacity="0.6" marker-end="url(#arrow)"/>
<path d="M 1140.08,926.0 C 1002.7114999999999,730.5 361.6585,730.5 224.29000000000002,535.0" fill="none" stroke="#8B4513" stroke-width="3" stroke-opacity="0.6" marker-end="url(#arrow)"/>
<path d="M 224.29000000000002,622.0 C 247.6465,506.0 356.6435,506.0 380.0,390.0" fill="none" stroke="#8B4513" stroke-width="3" stroke-opacity="0.6" marker-end="url(#arrow)"/>
<path d="M 224.29000000000002,622.0 C 247.6465,437.0 356.6435,437.0 380.0,252.0" fill="none" stroke="#8B4513" stroke-width="3" stroke-opacity="0.6" marker-end="url(#arrow)"/>
<path d="M 224.29000000000002,622.0 C 270.58975,582.0 486.65524999999997,582.0 532.9549999999999,542.0" fill="none" stroke="#8B4513" stroke-width="3" stroke-opacity="0.6" marker-end="url(#arrow)"/>
<path d="M 535.71,622.0 C 535.29675,582.0 533.36825,582.0 532.9549999999999,542.0" fill="none" stroke="#8B4513" stroke-width="3" stroke-opacity="0.6" marker-end="url(#arrow)"/>
<path d="M 1415.79,898.0 C 1320.52575,858.0 875.9592499999999,858.0 780.6949999999999,818.0" fill="none" stroke="#8B4513" stroke-width="3" stroke-opacity="0.6" marker-end="url(#arrow)"/>
<path d="M 1721.7,919.0 C 1534.66275,868.5 661.8222499999999,868.5 474.78499999999997,818.0" fill="none" stroke="#8B4513" stroke-width="3" stroke-opacity="0.6" marker-end="url(#arrow)"/>
<path d="M 224.29000000000002,477.0 C 247.6465,295.5 356.6435,295.5 380.0,114.0" fill="none" stroke="#8B4513" stroke-width="3" stroke-opacity="0.6" marker-end="url(#arrow)"/>
<path d="M 380.0,332.0 C 380.0,292.0 380.0,292.0 380.0,252.0" fill="none" stroke="#8B4513" stroke-width="3" stroke-opacity="0.6" marker-end="url(#arrow)"/>
<path d="M 532.9549999999999,470.0 C 510.01174999999995,292.0 402.94325,292.0 380.0,114.0" fill="none" stroke="#8B4513" stroke-width="3" stroke-opacity="0.6" marker-end="url(#arrow)"/>
<path d="M 380.0,194.0 C 380.0,154.0 380.0,154.0 380.0,114.0" fill="none" stroke="#8B4513" stroke-width="3" stroke-opacity="0.6" marker-end="url(#arrow)"/>
<path d="M 780.6949999999999,760.0 C 720.59075,437.0 440.10425,437.0 380.0,114.0" fill="none" stroke="#8B4513" stroke-width="3" stroke-opacity="0.6" marker-end="url(#arrow)"/>
<path d="M 474.78499999999997,760.0 C 460.56724999999994,437.0 394.21775,437.0 380.0,114.0" fill="none" stroke="#8B4513" stroke-width="3" stroke-opacity="0.6" marker-end="url(#arrow)"/>
<rect x="80.0" y="926.0" width="200" height="44" fill="#e8e8e8" stroke="#999" stroke-width="2" rx="8"/>
<text x="180.0" y="944.0" text-anchor="middle" fill="#333" font-family="Arial,sans-serif" font-size="12" font-weight="bold">Emb: &#x27; white&#x27; (pos 9)</text>
<circle cx="262.0" cy="939.0" r="9" fill="#ccc"/>
<text x="262.0" y="943.0" text-anchor="middle" fill="#666" font-family="monospace" font-size="9" font-weight="bold">0</text>
<rect x="320.0" y="926.0" width="200" height="44" fill="#e8e8e8" stroke="#999" stroke-width="2" rx="8"/>
<text x="420.0" y="944.0" text-anchor="middle" fill="#333" font-family="Arial,sans-serif" font-size="12" font-weight="bold">Emb: &#x27; guy&#x27; (pos 10)</text>
<circle cx="502.0" cy="939.0" r="9" fill="#ccc"/>
<text x="502.0" y="943.0" text-anchor="middle" fill="#666" font-family="monospace" font-size="9" font-weight="bold">0</text>
<rect x="560.0" y="926.0" width="200" height="44" fill="#e8e8e8" stroke="#999" stroke-width="2" rx="8"/>
<text x="660.0" y="944.0" text-anchor="middle" fill="#333" font-family="Arial,sans-serif" font-size="12" font-weight="bold">Emb: &#x27; author&#x27; (pos 2)</text>
<circle cx="742.0" cy="939.0" r="9" fill="#ccc"/>
<text x="742.0" y="943.0" text-anchor="middle" fill="#666" font-family="monospace" font-size="9" font-weight="bold">0</text>
<rect x="800.0" y="926.0" width="200.07999999999998" height="44" fill="#e8e8e8" stroke="#999" stroke-width="2" rx="8"/>
<text x="900.04" y="944.0" text-anchor="middle" fill="#333" font-family="Arial,sans-serif" font-size="12" font-weight="bold">Emb: &#x27; appears&#x27; (pos 3)</text>
<circle cx="982.0799999999999" cy="939.0" r="9" fill="#ccc"/>
<text x="982.0799999999999" y="943.0" text-anchor="middle" fill="#666" font-family="monospace" font-size="9" font-weight="bold">0</text>
<rect x="1040.08" y="926.0" width="200" height="44" fill="#e8e8e8" stroke="#999" stroke-width="2" rx="8"/>
<text x="1140.08" y="944.0" text-anchor="middle" fill="#333" font-family="Arial,sans-serif" font-size="12" font-weight="bold">Emb: &#x27; last name&#x27; (pos</text>
<text x="1140.08" y="958.0" text-anchor="middle" fill="#333" font-family="Arial,sans-serif" font-size="12" font-weight="bold">14-15)</text>
<circle cx="1222.08" cy="939.0" r="9" fill="#ccc"/>
<text x="1222.08" y="943.0" text-anchor="middle" fill="#666" font-family="monospace" font-size="9" font-weight="bold">0</text>
<rect x="88.58000000000004" y="622.0" width="271.41999999999996" height="58" fill="#e8e8e8" stroke="#999" stroke-width="2" rx="8"/>
<text x="224.29000000000002" y="640.0" text-anchor="middle" fill="#333" font-family="Arial,sans-serif" font-size="12" font-weight="bold">Race/Ethnicity Detection</text>
<text x="224.29000000000002" y="654.0" text-anchor="middle" fill="#333" font-family="Arial,sans-serif" font-size="12" font-weight="bold">(Early)</text>
<text x="224.29000000000002" y="672.0" text-anchor="middle" fill="#666" font-family="monospace" font-size="9">L2:F13158 —  words about race and ethnicit</text>
<circle cx="342.0" cy="635.0" r="9" fill="#ccc"/>
<text x="342.0" y="639.0" text-anchor="middle" fill="#666" font-family="monospace" font-size="9" font-weight="bold">1</text>
<rect x="400.00000000000006" y="622.0" width="271.41999999999996" height="58" fill="#e8e8e8" stroke="#999" stroke-width="2" rx="8"/>
<text x="535.71" y="640.0" text-anchor="middle" fill="#333" font-family="Arial,sans-serif" font-size="12" font-weight="bold">Gendered Words Detection</text>
<text x="535.71" y="658.0" text-anchor="middle" fill="#666" font-family="monospace" font-size="9">L2:F15317 —  gendered words, with a slight</text>
<circle cx="653.4200000000001" cy="635.0" r="9" fill="#ccc"/>
<text x="653.4200000000001" y="639.0" text-anchor="middle" fill="#666" font-family="monospace" font-size="9" font-weight="bold">1</text>
<rect x="1280.08" y="898.0" width="271.41999999999996" height="100" fill="#e8e8e8" stroke="#999" stroke-width="2" rx="8"/>
<text x="1415.79" y="916.0" text-anchor="middle" fill="#333" font-family="Arial,sans-serif" font-size="12" font-weight="bold">Authorship/Linguistic</text>
<text x="1415.79" y="930.0" text-anchor="middle" fill="#333" font-family="Arial,sans-serif" font-size="12" font-weight="bold">Features</text>
<text x="1415.79" y="948.0" text-anchor="middle" fill="#666" font-family="monospace" font-size="9">L0:F753 — the word &quot;author&quot; and words re</text>
<text x="1415.79" y="962.0" text-anchor="middle" fill="#666" font-family="monospace" font-size="9">L0:F3612 — the words &quot;author&quot;, &quot;authority</text>
<text x="1415.79" y="976.0" text-anchor="middle" fill="#666" font-family="monospace" font-size="9">L0:F11009 — the word &quot;author&quot; and related </text>
<text x="1415.79" y="990.0" text-anchor="middle" fill="#666" font-family="monospace" font-size="9">L1:F384 —  the string &quot;ash&quot; or &quot;pund&quot;</text>
<circle cx="1533.5" cy="911.0" r="9" fill="#ccc"/>
<text x="1533.5" y="915.0" text-anchor="middle" fill="#666" font-family="monospace" font-size="9" font-weight="bold">4</text>
<rect x="80.0" y="760.0" width="221.82999999999998" height="58" fill="#e8e8e8" stroke="#999" stroke-width="2" rx="8"/>
<text x="190.915" y="778.0" text-anchor="middle" fill="#333" font-family="Arial,sans-serif" font-size="12" font-weight="bold">Sentence Structure:</text>
<text x="190.915" y="792.0" text-anchor="middle" fill="#333" font-family="Arial,sans-serif" font-size="12" font-weight="bold">&#x27;appears&#x27;</text>
<text x="190.915" y="810.0" text-anchor="middle" fill="#666" font-family="monospace" font-size="9">L1:F6576 —  the word &quot;appearance&quot;</text>
<circle cx="283.83" cy="773.0" r="9" fill="#ccc"/>
<text x="283.83" y="777.0" text-anchor="middle" fill="#666" font-family="monospace" font-size="9" font-weight="bold">1</text>
<rect x="341.83" y="760.0" width="265.90999999999997" height="58" fill="#e8e8e8" stroke="#999" stroke-width="2" rx="8"/>
<text x="474.78499999999997" y="778.0" text-anchor="middle" fill="#333" font-family="Arial,sans-serif" font-size="12" font-weight="bold">Race/Slavery Discussion</text>
<text x="474.78499999999997" y="792.0" text-anchor="middle" fill="#333" font-family="Arial,sans-serif" font-size="12" font-weight="bold">(Negative)</text>
<text x="474.78499999999997" y="810.0" text-anchor="middle" fill="#666" font-family="monospace" font-size="9">L1:F9113 —  discussions about race and sl</text>
<circle cx="589.74" cy="773.0" r="9" fill="#ccc"/>
<text x="589.74" y="777.0" text-anchor="middle" fill="#666" font-family="monospace" font-size="9" font-weight="bold">1</text>
<rect x="1591.5" y="919.0" width="260.4" height="58" fill="#e8e8e8" stroke="#999" stroke-width="2" rx="8"/>
<text x="1721.7" y="937.0" text-anchor="middle" fill="#333" font-family="Arial,sans-serif" font-size="12" font-weight="bold">White Color/Race Detector</text>
<text x="1721.7" y="955.0" text-anchor="middle" fill="#666" font-family="monospace" font-size="9">L0:F3436 —  mentions of the word &quot;white&quot;</text>
<circle cx="1833.9" cy="932.0" r="9" fill="#ccc"/>
<text x="1833.9" y="936.0" text-anchor="middle" fill="#666" font-family="monospace" font-size="9" font-weight="bold">1</text>
<rect x="91.33500000000004" y="477.0" width="265.90999999999997" height="58" fill="#e8e8e8" stroke="#999" stroke-width="2" rx="8"/>
<text x="224.29000000000002" y="495.0" text-anchor="middle" fill="#333" font-family="Arial,sans-serif" font-size="12" font-weight="bold">Name Detection (&#x27;last</text>
<text x="224.29000000000002" y="509.0" text-anchor="middle" fill="#333" font-family="Arial,sans-serif" font-size="12" font-weight="bold">name&#x27;)</text>
<text x="224.29000000000002" y="527.0" text-anchor="middle" fill="#666" font-family="monospace" font-size="9">L3:F4512 —  mentions of first names, last</text>
<circle cx="339.245" cy="490.0" r="9" fill="#ccc"/>
<text x="339.245" y="494.0" text-anchor="middle" fill="#666" font-family="monospace" font-size="9" font-weight="bold">1</text>
<rect x="249.8" y="332.0" width="260.4" height="58" fill="#e8e8e8" stroke="#999" stroke-width="2" rx="8"/>
<text x="380.0" y="350.0" text-anchor="middle" fill="#333" font-family="Arial,sans-serif" font-size="12" font-weight="bold">Race/Racism/Social Justice</text>
<text x="380.0" y="364.0" text-anchor="middle" fill="#333" font-family="Arial,sans-serif" font-size="12" font-weight="bold">Terms</text>
<text x="380.0" y="382.0" text-anchor="middle" fill="#666" font-family="monospace" font-size="9">L4:F117 —  terms related to race, racism</text>
<circle cx="492.2" cy="345.0" r="9" fill="#ccc"/>
<text x="492.2" y="349.0" text-anchor="middle" fill="#666" font-family="monospace" font-size="9" font-weight="bold">1</text>
<rect x="397.24499999999995" y="470.0" width="271.41999999999996" height="72" fill="#e8e8e8" stroke="#999" stroke-width="2" rx="8"/>
<text x="532.9549999999999" y="488.0" text-anchor="middle" fill="#333" font-family="Arial,sans-serif" font-size="12" font-weight="bold">Race/Gender/Social Issues</text>
<text x="532.9549999999999" y="502.0" text-anchor="middle" fill="#333" font-family="Arial,sans-serif" font-size="12" font-weight="bold">Words</text>
<text x="532.9549999999999" y="520.0" text-anchor="middle" fill="#666" font-family="monospace" font-size="9">L3:F13061 —  words related to race, gender</text>
<text x="532.9549999999999" y="534.0" text-anchor="middle" fill="#666" font-family="monospace" font-size="9">L3:F16373 —  mentions of demographic ident</text>
<circle cx="650.665" cy="483.0" r="9" fill="#ccc"/>
<text x="650.665" y="487.0" text-anchor="middle" fill="#666" font-family="monospace" font-size="9" font-weight="bold">2</text>
<rect x="247.04500000000002" y="194.0" width="265.90999999999997" height="58" fill="#e8e8e8" stroke="#999" stroke-width="2" rx="8"/>
<text x="380.0" y="212.0" text-anchor="middle" fill="#333" font-family="Arial,sans-serif" font-size="12" font-weight="bold">Race/Ethnicity Terms</text>
<text x="380.0" y="226.0" text-anchor="middle" fill="#333" font-family="Arial,sans-serif" font-size="12" font-weight="bold">(Late)</text>
<text x="380.0" y="244.0" text-anchor="middle" fill="#666" font-family="monospace" font-size="9">L6:F3902 —  terms referring to race and e</text>
<circle cx="494.9549999999999" cy="207.0" r="9" fill="#ccc"/>
<text x="494.9549999999999" y="211.0" text-anchor="middle" fill="#666" font-family="monospace" font-size="9" font-weight="bold">1</text>
<rect x="647.74" y="760.0" width="265.90999999999997" height="58" fill="#e8e8e8" stroke="#999" stroke-width="2" rx="8"/>
<text x="780.6949999999999" y="778.0" text-anchor="middle" fill="#333" font-family="Arial,sans-serif" font-size="12" font-weight="bold">Author Reference Feature</text>
<text x="780.6949999999999" y="796.0" text-anchor="middle" fill="#666" font-family="monospace" font-size="9">L1:F5220 —  references to authors and pub</text>
<circle cx="895.65" cy="773.0" r="9" fill="#ccc"/>
<text x="895.65" y="777.0" text-anchor="middle" fill="#666" font-family="monospace" font-size="9" font-weight="bold">1</text>
<rect x="269.52" y="70.0" width="220.95999999999998" height="44" fill="#e8e8e8" stroke="#999" stroke-width="2" rx="8"/>
<text x="380.0" y="88.0" text-anchor="middle" fill="#333" font-family="Arial,sans-serif" font-size="12" font-weight="bold">Probe Classification Score</text>
<circle cx="472.47999999999996" cy="83.0" r="9" fill="#ccc"/>
<text x="472.47999999999996" y="87.0" text-anchor="middle" fill="#666" font-family="monospace" font-size="9" font-weight="bold">0</text>
<line x1="40" y1="1078" x2="1931" y2="1078" stroke="#ddd" stroke-width="1"/>
<text x="40" y="1096" fill="#666" font-family="Arial,sans-serif" font-size="10" font-weight="bold" letter-spacing="1px">PROMPT</text>
<text x="40" y="1114" fill="#333" font-family="monospace" font-size="11">"&lt;bos&gt;The author appears to be married to a white guy based on her last name. Maybe she is a self hater like all those ot"</text>
<text x="40" y="1138" fill="#666" font-family="Arial,sans-serif" font-size="10" font-weight="bold" letter-spacing="1px">TOP OUTPUTS</text>
<rect x="40" y="1143" width="100" height="20" fill="#e8e8e8" stroke="none" rx="6"/>
<text x="45" y="1157" fill="#333" font-family="Arial,sans-serif" font-size="11" font-weight="bold">(empty) <tspan fill="#555" font-size="10">100%</tspan></text>
</svg>