<svg width="2775" height="1069" xmlns="http://www.w3.org/2000/svg">
<rect width="2775" height="1069" fill="#f5f5f5"/>
<rect x="15" y="15" width="2745" height="1039" fill="white" stroke="none" rx="12"/>
<text x="40" y="48" fill="#666" font-family="Arial,sans-serif" font-size="14" font-weight="bold" letter-spacing="1px">ATTRIBUTION CIRCUIT</text>
<text x="25" y="96.0" fill="#999" font-family="monospace" font-size="10" font-weight="bold" text-anchor="start">L36</text>
<text x="25" y="227.0" fill="#999" font-family="monospace" font-size="10" font-weight="bold" text-anchor="start">L4</text>
<text x="25" y="365.0" fill="#999" font-family="monospace" font-size="10" font-weight="bold" text-anchor="start">L3</text>
<text x="25" y="503.0" fill="#999" font-family="monospace" font-size="10" font-weight="bold" text-anchor="start">L2</text>
<text x="25" y="655.0" fill="#999" font-family="monospace" font-size="10" font-weight="bold" text-anchor="start">L1</text>
<text x="25" y="828.0" fill="#999" font-family="monospace" font-size="10" font-weight="bold" text-anchor="start">L0</text>
<defs><marker id="arrow" markerWidth="8" markerHeight="6" refX="8" refY="3" orient="auto"><polygon points="0,0 8,3 0,6" fill="#8B4513" fill-opacity="0.7"/></marker></defs>
<path d="M 180.0,853.0 C 485.1255,817.0 1909.0445,817.0 2214.17,781.0" fill="none" stroke="#8B4513" stroke-width="3" stroke-opacity="0.6" marker-end="url(#arrow)"/>
<path d="M 420.0,853.0 C 642.4125,813.5 1680.3375,813.5 1902.75,774.0" fill="none" stroke="#8B4513" stroke-width="3" stroke-opacity="0.6" marker-end="url(#arrow)"/>
<path d="M 660.0,853.0 C 939.42525,817.0 2243.40975,817.0 2522.835,781.0" fill="none" stroke="#8B4513" stroke-width="3" stroke-opacity="0.6" marker-end="url(#arrow)"/>
<path d="M 900.0,853.0 C 1097.1255,817.0 2017.0445,817.0 2214.17,781.0" fill="none" stroke="#8B4513" stroke-width="3" stroke-opacity="0.6" marker-end="url(#arrow)"/>
<path d="M 1140.0,853.0 C 1347.42525,817.0 2315.40975,817.0 2522.835,781.0" fill="none" stroke="#8B4513" stroke-width="3" stroke-opacity="0.6" marker-end="url(#arrow)"/>
<path d="M 1380.0,853.0 C 1551.42525,817.0 2351.40975,817.0 2522.835,781.0" fill="none" stroke="#8B4513" stroke-width="3" stroke-opacity="0.6" marker-end="url(#arrow)"/>
<path d="M 1623.52,853.0 C 1712.1175,817.0 2125.5725,817.0 2214.17,781.0" fill="none" stroke="#8B4513" stroke-width="3" stroke-opacity="0.6" marker-end="url(#arrow)"/>
<path d="M 1902.75,774.0 C 1674.3375,734.0 608.4125,734.0 380.0,694.0" fill="none" stroke="#8B4513" stroke-width="3" stroke-opacity="0.6" marker-end="url(#arrow)"/>
<path d="M 2214.17,781.0 C 1939.0445,447.5 655.1255,447.5 380.0,114.0" fill="none" stroke="#8B4513" stroke-width="3" stroke-opacity="0.6" marker-end="url(#arrow)"/>
<path d="M 380.0,608.0 C 357.05675,568.0 249.98825000000002,568.0 227.04500000000002,528.0" fill="none" stroke="#8B4513" stroke-width="3" stroke-opacity="0.6" marker-end="url(#arrow)"/>
<path d="M 227.04500000000002,470.0 C 249.98825000000002,292.0 357.05675,292.0 380.0,114.0" fill="none" stroke="#8B4513" stroke-width="3" stroke-opacity="0.6" marker-end="url(#arrow)"/>
<path d="M 2522.835,781.0 C 2224.353,654.5 831.4369999999999,654.5 532.9549999999999,528.0" fill="none" stroke="#8B4513" stroke-width="3" stroke-opacity="0.6" marker-end="url(#arrow)"/>
<path d="M 532.9549999999999,470.0 C 510.01174999999995,292.0 402.94325,292.0 380.0,114.0" fill="none" stroke="#8B4513" stroke-width="3" stroke-opacity="0.6" marker-end="url(#arrow)"/>
<path d="M 380.0,608.0 C 356.6435,499.0 247.6465,499.0 224.29000000000002,390.0" fill="none" stroke="#8B4513" stroke-width="3" stroke-opacity="0.6" marker-end="url(#arrow)"/>
<path d="M 224.29000000000002,332.0 C 229.6465,292.0 254.64350000000002,292.0 260.0,252.0" fill="none" stroke="#8B4513" stroke-width="3" stroke-opacity="0.6" marker-end="url(#arrow)"/>
<path d="M 224.29000000000002,332.0 C 271.00300000000004,292.0 488.997,292.0 535.71,252.0" fill="none" stroke="#8B4513" stroke-width="3" stroke-opacity="0.6" marker-end="url(#arrow)"/>
<path d="M 260.0,194.0 C 278.0,154.0 362.0,154.0 380.0,114.0" fill="none" stroke="#8B4513" stroke-width="3" stroke-opacity="0.6" marker-end="url(#arrow)"/>
<path d="M 535.71,194.0 C 512.3535,154.0 403.3565,154.0 380.0,114.0" fill="none" stroke="#8B4513" stroke-width="3" stroke-opacity="0.6" marker-end="url(#arrow)"/>
<path d="M 532.9549999999999,470.0 C 533.36825,430.0 535.29675,430.0 535.71,390.0" fill="none" stroke="#8B4513" stroke-width="3" stroke-opacity="0.6" marker-end="url(#arrow)"/>
<path d="M 535.71,332.0 C 512.3535,223.0 403.3565,223.0 380.0,114.0" fill="none" stroke="#8B4513" stroke-width="3" stroke-opacity="0.6" marker-end="url(#arrow)"/>
<rect x="80.0" y="795.0" width="200" height="58" fill="#e8e8e8" stroke="#999" stroke-width="2" rx="8"/>
<text x="180.0" y="813.0" text-anchor="middle" fill="#333" font-family="Arial,sans-serif" font-size="12" font-weight="bold">Emb: &#x27; he&#x27; (pos 2)</text>
<text x="180.0" y="831.0" text-anchor="middle" fill="#666" font-family="monospace" font-size="9">L-1:F-1</text>
<circle cx="262.0" cy="808.0" r="9" fill="#ccc"/>
<text x="262.0" y="812.0" text-anchor="middle" fill="#666" font-family="monospace" font-size="9" font-weight="bold">1</text>
<rect x="320.0" y="795.0" width="200" height="58" fill="#e8e8e8" stroke="#999" stroke-width="2" rx="8"/>
<text x="420.0" y="813.0" text-anchor="middle" fill="#333" font-family="Arial,sans-serif" font-size="12" font-weight="bold">Emb: &#x27; white&#x27; (pos 4)</text>
<text x="420.0" y="831.0" text-anchor="middle" fill="#666" font-family="monospace" font-size="9">L-1:F-1</text>
<circle cx="502.0" cy="808.0" r="9" fill="#ccc"/>
<text x="502.0" y="812.0" text-anchor="middle" fill="#666" font-family="monospace" font-size="9" font-weight="bold">1</text>
<rect x="560.0" y="795.0" width="200" height="58" fill="#e8e8e8" stroke="#999" stroke-width="2" rx="8"/>
<text x="660.0" y="813.0" text-anchor="middle" fill="#333" font-family="Arial,sans-serif" font-size="12" font-weight="bold">Emb: &#x27;If&#x27; (pos 1)</text>
<text x="660.0" y="831.0" text-anchor="middle" fill="#666" font-family="monospace" font-size="9">L-1:F-1</text>
<circle cx="742.0" cy="808.0" r="9" fill="#ccc"/>
<text x="742.0" y="812.0" text-anchor="middle" fill="#666" font-family="monospace" font-size="9" font-weight="bold">1</text>
<rect x="800.0" y="795.0" width="200" height="58" fill="#e8e8e8" stroke="#999" stroke-width="2" rx="8"/>
<text x="900.0" y="813.0" text-anchor="middle" fill="#333" font-family="Arial,sans-serif" font-size="12" font-weight="bold">Emb: &#x27; it&#x27; (pos 8)</text>
<text x="900.0" y="831.0" text-anchor="middle" fill="#666" font-family="monospace" font-size="9">L-1:F-1</text>
<circle cx="982.0" cy="808.0" r="9" fill="#ccc"/>
<text x="982.0" y="812.0" text-anchor="middle" fill="#666" font-family="monospace" font-size="9" font-weight="bold">1</text>
<rect x="1040.0" y="795.0" width="200" height="58" fill="#e8e8e8" stroke="#999" stroke-width="2" rx="8"/>
<text x="1140.0" y="813.0" text-anchor="middle" fill="#333" font-family="Arial,sans-serif" font-size="12" font-weight="bold">Emb: &#x27; was&#x27; (pos 3)</text>
<text x="1140.0" y="831.0" text-anchor="middle" fill="#666" font-family="monospace" font-size="9">L-1:F-1</text>
<circle cx="1222.0" cy="808.0" r="9" fill="#ccc"/>
<text x="1222.0" y="812.0" text-anchor="middle" fill="#666" font-family="monospace" font-size="9" font-weight="bold">1</text>
<rect x="1280.0" y="795.0" width="200" height="58" fill="#e8e8e8" stroke="#999" stroke-width="2" rx="8"/>
<text x="1380.0" y="813.0" text-anchor="middle" fill="#333" font-family="Arial,sans-serif" font-size="12" font-weight="bold">Emb: &#x27; and&#x27; (pos 5)</text>
<text x="1380.0" y="831.0" text-anchor="middle" fill="#666" font-family="monospace" font-size="9">L-1:F-1</text>
<circle cx="1462.0" cy="808.0" r="9" fill="#ccc"/>
<text x="1462.0" y="812.0" text-anchor="middle" fill="#666" font-family="monospace" font-size="9" font-weight="bold">1</text>
<rect x="1520.0" y="795.0" width="207.04" height="58" fill="#e8e8e8" stroke="#999" stroke-width="2" rx="8"/>
<text x="1623.52" y="813.0" text-anchor="middle" fill="#333" font-family="Arial,sans-serif" font-size="12" font-weight="bold">Emb: &#x27; Hispanic&#x27; (pos 7)</text>
<text x="1623.52" y="831.0" text-anchor="middle" fill="#666" font-family="monospace" font-size="9">L-1:F-1</text>
<circle cx="1709.04" cy="808.0" r="9" fill="#ccc"/>
<text x="1709.04" y="812.0" text-anchor="middle" fill="#666" font-family="monospace" font-size="9" font-weight="bold">1</text>
<rect x="1767.04" y="774.0" width="271.41999999999996" height="100" fill="#e8e8e8" stroke="#999" stroke-width="2" rx="8"/>
<text x="1902.75" y="792.0" text-anchor="middle" fill="#333" font-family="Arial,sans-serif" font-size="12" font-weight="bold">White Token Detectors (L0)</text>
<text x="1902.75" y="810.0" text-anchor="middle" fill="#666" font-family="monospace" font-size="9">L0:F3436 —  mentions of the word &quot;white&quot;</text>
<text x="1902.75" y="824.0" text-anchor="middle" fill="#666" font-family="monospace" font-size="9">L0:F10910 — the word &quot;possession&quot; and the </text>
<text x="1902.75" y="838.0" text-anchor="middle" fill="#666" font-family="monospace" font-size="9">L0:F13663 — mentions of pregnancy and rela</text>
<text x="1902.75" y="852.0" text-anchor="middle" fill="#666" font-family="monospace" font-size="9">L0:F16013 —  mentions of the color blue, a</text>
<circle cx="2020.46" cy="787.0" r="9" fill="#ccc"/>
<text x="2020.46" y="791.0" text-anchor="middle" fill="#666" font-family="monospace" font-size="9" font-weight="bold">4</text>
<rect x="2078.46" y="781.0" width="271.41999999999996" height="86" fill="#e8e8e8" stroke="#999" stroke-width="2" rx="8"/>
<text x="2214.17" y="799.0" text-anchor="middle" fill="#333" font-family="Arial,sans-serif" font-size="12" font-weight="bold">Pronoun Detectors (L0)</text>
<text x="2214.17" y="817.0" text-anchor="middle" fill="#666" font-family="monospace" font-size="9">L0:F12768 —  mentions of &quot;he&quot; and &quot;she&quot; in</text>
<text x="2214.17" y="831.0" text-anchor="middle" fill="#666" font-family="monospace" font-size="9">L0:F310 —  the pronouns &quot;she&quot;, &quot;her&quot;, an</text>
<text x="2214.17" y="845.0" text-anchor="middle" fill="#666" font-family="monospace" font-size="9">L0:F880 —  references to the pronoun &quot;it</text>
<circle cx="2331.88" cy="794.0" r="9" fill="#ccc"/>
<text x="2331.88" y="798.0" text-anchor="middle" fill="#666" font-family="monospace" font-size="9" font-weight="bold">3</text>
<rect x="2389.88" y="781.0" width="265.90999999999997" height="86" fill="#e8e8e8" stroke="#999" stroke-width="2" rx="8"/>
<text x="2522.835" y="799.0" text-anchor="middle" fill="#333" font-family="Arial,sans-serif" font-size="12" font-weight="bold">Conditional/Grammar</text>
<text x="2522.835" y="813.0" text-anchor="middle" fill="#333" font-family="Arial,sans-serif" font-size="12" font-weight="bold">Detectors (L0)</text>
<text x="2522.835" y="831.0" text-anchor="middle" fill="#666" font-family="monospace" font-size="9">L0:F2303 —  the word &quot;if&quot;</text>
<text x="2522.835" y="845.0" text-anchor="middle" fill="#666" font-family="monospace" font-size="9">L0:F2458 —  the word &quot;was&quot; and sometimes </text>
<text x="2522.835" y="859.0" text-anchor="middle" fill="#666" font-family="monospace" font-size="9">L0:F3255 —  the word &quot;and&quot;</text>
<circle cx="2637.79" cy="794.0" r="9" fill="#ccc"/>
<text x="2637.79" y="798.0" text-anchor="middle" fill="#666" font-family="monospace" font-size="9" font-weight="bold">3</text>
<rect x="244.29000000000002" y="608.0" width="271.41999999999996" height="86" fill="#e8e8e8" stroke="#999" stroke-width="2" rx="8"/>
<text x="380.0" y="626.0" text-anchor="middle" fill="#333" font-family="Arial,sans-serif" font-size="12" font-weight="bold">White/Race Features (L1)</text>
<text x="380.0" y="644.0" text-anchor="middle" fill="#666" font-family="monospace" font-size="9">L1:F1480 — the color &#x27;white&#x27;, sometimes i</text>
<text x="380.0" y="658.0" text-anchor="middle" fill="#666" font-family="monospace" font-size="9">L1:F4668 —  the color white being used to</text>
<text x="380.0" y="672.0" text-anchor="middle" fill="#666" font-family="monospace" font-size="9">L1:F13007 —  mentions of the word &quot;white&quot; </text>
<circle cx="497.71000000000004" cy="621.0" r="9" fill="#ccc"/>
<text x="497.71000000000004" y="625.0" text-anchor="middle" fill="#666" font-family="monospace" font-size="9" font-weight="bold">3</text>
<rect x="94.09000000000003" y="470.0" width="265.90999999999997" height="58" fill="#e8e8e8" stroke="#999" stroke-width="2" rx="8"/>
<text x="227.04500000000002" y="488.0" text-anchor="middle" fill="#333" font-family="Arial,sans-serif" font-size="12" font-weight="bold">Race &amp; Slavery Feature</text>
<text x="227.04500000000002" y="502.0" text-anchor="middle" fill="#333" font-family="Arial,sans-serif" font-size="12" font-weight="bold">(L2)</text>
<text x="227.04500000000002" y="520.0" text-anchor="middle" fill="#666" font-family="monospace" font-size="9">L2:F6983 —  words related to race and sla</text>
<circle cx="342.0" cy="483.0" r="9" fill="#ccc"/>
<text x="342.0" y="487.0" text-anchor="middle" fill="#666" font-family="monospace" font-size="9" font-weight="bold">1</text>
<rect x="399.99999999999994" y="470.0" width="265.90999999999997" height="58" fill="#e8e8e8" stroke="#999" stroke-width="2" rx="8"/>
<text x="532.9549999999999" y="488.0" text-anchor="middle" fill="#333" font-family="Arial,sans-serif" font-size="12" font-weight="bold">Conditional Feature (L2)</text>
<text x="532.9549999999999" y="506.0" text-anchor="middle" fill="#666" font-family="monospace" font-size="9">L2:F1139 —  various usages of the word &quot;s</text>
<circle cx="647.9099999999999" cy="483.0" r="9" fill="#ccc"/>
<text x="647.9099999999999" y="487.0" text-anchor="middle" fill="#666" font-family="monospace" font-size="9" font-weight="bold">1</text>
<rect x="88.58000000000004" y="332.0" width="271.41999999999996" height="58" fill="#e8e8e8" stroke="#999" stroke-width="2" rx="8"/>
<text x="224.29000000000002" y="350.0" text-anchor="middle" fill="#333" font-family="Arial,sans-serif" font-size="12" font-weight="bold">White/Diversity Features</text>
<text x="224.29000000000002" y="364.0" text-anchor="middle" fill="#333" font-family="Arial,sans-serif" font-size="12" font-weight="bold">(L3)</text>
<text x="224.29000000000002" y="382.0" text-anchor="middle" fill="#666" font-family="monospace" font-size="9">L3:F11768 —  the word &quot;white&quot; and related </text>
<circle cx="342.0" cy="345.0" r="9" fill="#ccc"/>
<text x="342.0" y="349.0" text-anchor="middle" fill="#666" font-family="monospace" font-size="9" font-weight="bold">1</text>
<rect x="400.00000000000006" y="332.0" width="271.41999999999996" height="58" fill="#e8e8e8" stroke="#999" stroke-width="2" rx="8"/>
<text x="535.71" y="350.0" text-anchor="middle" fill="#333" font-family="Arial,sans-serif" font-size="12" font-weight="bold">Conditional Feature (L3)</text>
<text x="535.71" y="368.0" text-anchor="middle" fill="#666" font-family="monospace" font-size="9">L3:F12404 —  instances of the conditional </text>
<circle cx="653.4200000000001" cy="345.0" r="9" fill="#ccc"/>
<text x="653.4200000000001" y="349.0" text-anchor="middle" fill="#666" font-family="monospace" font-size="9" font-weight="bold">1</text>
<rect x="124.29000000000002" y="194.0" width="271.41999999999996" height="58" fill="#e8e8e8" stroke="#999" stroke-width="2" rx="8"/>
<text x="260.0" y="212.0" text-anchor="middle" fill="#333" font-family="Arial,sans-serif" font-size="12" font-weight="bold">White Institutional (L4)</text>
<text x="260.0" y="230.0" text-anchor="middle" fill="#666" font-family="monospace" font-size="9">L4:F15204 —  art galleries, museums and th</text>
<circle cx="377.71" cy="207.0" r="9" fill="#ccc"/>
<text x="377.71" y="211.0" text-anchor="middle" fill="#666" font-family="monospace" font-size="9" font-weight="bold">1</text>
<rect x="435.71000000000004" y="194.0" width="200" height="58" fill="#e8e8e8" stroke="#999" stroke-width="2" rx="8"/>
<text x="535.71" y="212.0" text-anchor="middle" fill="#333" font-family="Arial,sans-serif" font-size="12" font-weight="bold">White Color (L4)</text>
<text x="535.71" y="230.0" text-anchor="middle" fill="#666" font-family="monospace" font-size="9">L4:F7136 —  the color white</text>
<circle cx="617.71" cy="207.0" r="9" fill="#ccc"/>
<text x="617.71" y="211.0" text-anchor="middle" fill="#666" font-family="monospace" font-size="9" font-weight="bold">1</text>
<rect x="269.52" y="70.0" width="220.95999999999998" height="44" fill="#e8e8e8" stroke="#999" stroke-width="2" rx="8"/>
<text x="380.0" y="88.0" text-anchor="middle" fill="#333" font-family="Arial,sans-serif" font-size="12" font-weight="bold">Probe Classification Score</text>
<circle cx="472.47999999999996" cy="83.0" r="9" fill="#ccc"/>
<text x="472.47999999999996" y="87.0" text-anchor="middle" fill="#666" font-family="monospace" font-size="9" font-weight="bold">0</text>
<line x1="40" y1="954" x2="2735" y2="954" stroke="#ddd" stroke-width="1"/>
<text x="40" y="972" fill="#666" font-family="Arial,sans-serif" font-size="10" font-weight="bold" letter-spacing="1px">PROMPT</text>
<text x="40" y="990" fill="#333" font-family="monospace" font-size="11">"&lt;bos&gt;If he was white and not Hispanic it would be s problem"</text>
<text x="40" y="1014" fill="#666" font-family="Arial,sans-serif" font-size="10" font-weight="bold" letter-spacing="1px">TOP OUTPUTS</text>
<rect x="40" y="1019" width="100" height="20" fill="#e8e8e8" stroke="none" rx="6"/>
<text x="45" y="1033" fill="#333" font-family="Arial,sans-serif" font-size="11" font-weight="bold">(empty) <tspan fill="#555" font-size="10">100%</tspan></text>
</svg>