<svg width="2807" height="1165" xmlns="http://www.w3.org/2000/svg">
<rect width="2807" height="1165" fill="#f5f5f5"/>
<rect x="15" y="15" width="2777" height="1135" fill="white" stroke="none" rx="12"/>
<text x="40" y="48" fill="#666" font-family="Arial,sans-serif" font-size="14" font-weight="bold" letter-spacing="1px">ATTRIBUTION CIRCUIT</text>
<text x="25" y="96.0" fill="#999" font-family="monospace" font-size="10" font-weight="bold" text-anchor="start">L36</text>
<text x="25" y="227.0" fill="#999" font-family="monospace" font-size="10" font-weight="bold" text-anchor="start">L16</text>
<text x="25" y="365.0" fill="#999" font-family="monospace" font-size="10" font-weight="bold" text-anchor="start">L15</text>
<text x="25" y="503.0" fill="#999" font-family="monospace" font-size="10" font-weight="bold" text-anchor="start">L13</text>
<text x="25" y="641.0" fill="#999" font-family="monospace" font-size="10" font-weight="bold" text-anchor="start">L5</text>
<text x="25" y="786.0" fill="#999" font-family="monospace" font-size="10" font-weight="bold" text-anchor="start">L3</text>
<text x="25" y="938.0" fill="#999" font-family="monospace" font-size="10" font-weight="bold" text-anchor="start">L0</text>
<defs><marker id="arrow" markerWidth="8" markerHeight="6" refX="8" refY="3" orient="auto"><polygon points="0,0 8,3 0,6" fill="#8B4513" fill-opacity="0.7"/></marker></defs>
<path d="M 180.0,963.0 C 432.0,930.5 1608.0,930.5 1860.0,898.0" fill="none" stroke="#8B4513" stroke-width="3" stroke-opacity="0.6" marker-end="url(#arrow)"/>
<path d="M 420.0,963.0 C 636.0,930.5 1644.0,930.5 1860.0,898.0" fill="none" stroke="#8B4513" stroke-width="3" stroke-opacity="0.6" marker-end="url(#arrow)"/>
<path d="M 1860.0,898.0 C 1638.0,858.0 602.0,858.0 380.0,818.0" fill="none" stroke="#8B4513" stroke-width="3" stroke-opacity="0.6" marker-end="url(#arrow)"/>
<path d="M 380.0,746.0 C 380.0,637.0 380.0,637.0 380.0,528.0" fill="none" stroke="#8B4513" stroke-width="3" stroke-opacity="0.6" marker-end="url(#arrow)"/>
<path d="M 380.0,470.0 C 380.0,430.0 380.0,430.0 380.0,390.0" fill="none" stroke="#8B4513" stroke-width="3" stroke-opacity="0.6" marker-end="url(#arrow)"/>
<path d="M 380.0,332.0 C 356.6435,292.0 247.6465,292.0 224.29000000000002,252.0" fill="none" stroke="#8B4513" stroke-width="3" stroke-opacity="0.6" marker-end="url(#arrow)"/>
<path d="M 180.0,905.0 C 186.64350000000002,578.5 217.6465,578.5 224.29000000000002,252.0" fill="none" stroke="#8B4513" stroke-width="3" stroke-opacity="0.6" marker-end="url(#arrow)"/>
<path d="M 900.0,905.0 C 798.6435,578.5 325.6465,578.5 224.29000000000002,252.0" fill="none" stroke="#8B4513" stroke-width="3" stroke-opacity="0.6" marker-end="url(#arrow)"/>
<path d="M 1860.0,898.0 C 1614.6435000000001,575.0 469.6465,575.0 224.29000000000002,252.0" fill="none" stroke="#8B4513" stroke-width="3" stroke-opacity="0.6" marker-end="url(#arrow)"/>
<path d="M 420.0,905.0 C 437.76975,578.5 520.69525,578.5 538.4649999999999,252.0" fill="none" stroke="#8B4513" stroke-width="3" stroke-opacity="0.6" marker-end="url(#arrow)"/>
<path d="M 1860.0,898.0 C 1661.76975,575.0 736.69525,575.0 538.4649999999999,252.0" fill="none" stroke="#8B4513" stroke-width="3" stroke-opacity="0.6" marker-end="url(#arrow)"/>
<path d="M 224.29000000000002,194.0 C 247.6465,154.0 356.6435,154.0 380.0,114.0" fill="none" stroke="#8B4513" stroke-width="3" stroke-opacity="0.6" marker-end="url(#arrow)"/>
<path d="M 538.4649999999999,194.0 C 514.69525,154.0 403.76975,154.0 380.0,114.0" fill="none" stroke="#8B4513" stroke-width="3" stroke-opacity="0.6" marker-end="url(#arrow)"/>
<path d="M 660.0,905.0 C 618.0,785.5 422.0,785.5 380.0,666.0" fill="none" stroke="#8B4513" stroke-width="3" stroke-opacity="0.6" marker-end="url(#arrow)"/>
<path d="M 380.0,608.0 C 380.0,361.0 380.0,361.0 380.0,114.0" fill="none" stroke="#8B4513" stroke-width="3" stroke-opacity="0.6" marker-end="url(#arrow)"/>
<path d="M 1140.0,963.0 C 1284.528,934.0 1958.992,934.0 2103.52,905.0" fill="none" stroke="#8B4513" stroke-width="3" stroke-opacity="0.6" marker-end="url(#arrow)"/>
<path d="M 2103.52,905.0 C 1844.992,509.5 638.528,509.5 380.0,114.0" fill="none" stroke="#8B4513" stroke-width="3" stroke-opacity="0.6" marker-end="url(#arrow)"/>
<path d="M 1380.0,963.0 C 1525.056,930.5 2201.984,930.5 2347.04,898.0" fill="none" stroke="#8B4513" stroke-width="3" stroke-opacity="0.6" marker-end="url(#arrow)"/>
<path d="M 1620.0,963.0 C 1729.056,930.5 2237.984,930.5 2347.04,898.0" fill="none" stroke="#8B4513" stroke-width="3" stroke-opacity="0.6" marker-end="url(#arrow)"/>
<path d="M 2347.04,898.0 C 2051.984,506.0 675.056,506.0 380.0,114.0" fill="none" stroke="#8B4513" stroke-width="3" stroke-opacity="0.6" marker-end="url(#arrow)"/>
<path d="M 900.0,963.0 C 1153.062,934.0 2334.018,934.0 2587.08,905.0" fill="none" stroke="#8B4513" stroke-width="3" stroke-opacity="0.6" marker-end="url(#arrow)"/>
<path d="M 2587.08,905.0 C 2256.018,509.5 711.0619999999999,509.5 380.0,114.0" fill="none" stroke="#8B4513" stroke-width="3" stroke-opacity="0.6" marker-end="url(#arrow)"/>
<rect x="80.0" y="905.0" width="200" height="58" fill="#e8e8e8" stroke="#999" stroke-width="2" rx="8"/>
<text x="180.0" y="923.0" text-anchor="middle" fill="#333" font-family="Arial,sans-serif" font-size="12" font-weight="bold">Emb: &#x27;not&#x27; (pos 29)</text>
<text x="180.0" y="941.0" text-anchor="middle" fill="#666" font-family="monospace" font-size="9">L-1:F-1</text>
<circle cx="262.0" cy="918.0" r="9" fill="#ccc"/>
<text x="262.0" y="922.0" text-anchor="middle" fill="#666" font-family="monospace" font-size="9" font-weight="bold">1</text>
<rect x="320.0" y="905.0" width="200" height="58" fill="#e8e8e8" stroke="#999" stroke-width="2" rx="8"/>
<text x="420.0" y="923.0" text-anchor="middle" fill="#333" font-family="Arial,sans-serif" font-size="12" font-weight="bold">Emb: &#x27;not&#x27; (pos 23)</text>
<text x="420.0" y="941.0" text-anchor="middle" fill="#666" font-family="monospace" font-size="9">L-1:F-1</text>
<circle cx="502.0" cy="918.0" r="9" fill="#ccc"/>
<text x="502.0" y="922.0" text-anchor="middle" fill="#666" font-family="monospace" font-size="9" font-weight="bold">1</text>
<rect x="560.0" y="905.0" width="200" height="58" fill="#e8e8e8" stroke="#999" stroke-width="2" rx="8"/>
<text x="660.0" y="923.0" text-anchor="middle" fill="#333" font-family="Arial,sans-serif" font-size="12" font-weight="bold">Emb: &#x27;abbey&#x27; (pos 10)</text>
<text x="660.0" y="941.0" text-anchor="middle" fill="#666" font-family="monospace" font-size="9">L-1:F-1</text>
<circle cx="742.0" cy="918.0" r="9" fill="#ccc"/>
<text x="742.0" y="922.0" text-anchor="middle" fill="#666" font-family="monospace" font-size="9" font-weight="bold">1</text>
<rect x="800.0" y="905.0" width="200" height="58" fill="#e8e8e8" stroke="#999" stroke-width="2" rx="8"/>
<text x="900.0" y="923.0" text-anchor="middle" fill="#333" font-family="Arial,sans-serif" font-size="12" font-weight="bold">Emb: &#x27;is&#x27; (pos 18)</text>
<text x="900.0" y="941.0" text-anchor="middle" fill="#666" font-family="monospace" font-size="9">L-1:F-1</text>
<circle cx="982.0" cy="918.0" r="9" fill="#ccc"/>
<text x="982.0" y="922.0" text-anchor="middle" fill="#666" font-family="monospace" font-size="9" font-weight="bold">1</text>
<rect x="1040.0" y="905.0" width="200" height="58" fill="#e8e8e8" stroke="#999" stroke-width="2" rx="8"/>
<text x="1140.0" y="923.0" text-anchor="middle" fill="#333" font-family="Arial,sans-serif" font-size="12" font-weight="bold">Emb: &#x27;you&#x27; (pos 21)</text>
<text x="1140.0" y="941.0" text-anchor="middle" fill="#666" font-family="monospace" font-size="9">L-1:F-1</text>
<circle cx="1222.0" cy="918.0" r="9" fill="#ccc"/>
<text x="1222.0" y="922.0" text-anchor="middle" fill="#666" font-family="monospace" font-size="9" font-weight="bold">1</text>
<rect x="1280.0" y="905.0" width="200" height="58" fill="#e8e8e8" stroke="#999" stroke-width="2" rx="8"/>
<text x="1380.0" y="923.0" text-anchor="middle" fill="#333" font-family="Arial,sans-serif" font-size="12" font-weight="bold">Emb: &#x27;the&#x27; (pos 5)</text>
<text x="1380.0" y="941.0" text-anchor="middle" fill="#666" font-family="monospace" font-size="9">L-1:F-1</text>
<circle cx="1462.0" cy="918.0" r="9" fill="#ccc"/>
<text x="1462.0" y="922.0" text-anchor="middle" fill="#666" font-family="monospace" font-size="9" font-weight="bold">1</text>
<rect x="1520.0" y="905.0" width="200" height="58" fill="#e8e8e8" stroke="#999" stroke-width="2" rx="8"/>
<text x="1620.0" y="923.0" text-anchor="middle" fill="#333" font-family="Arial,sans-serif" font-size="12" font-weight="bold">Emb: &#x27;of&#x27; (pos 4)</text>
<text x="1620.0" y="941.0" text-anchor="middle" fill="#666" font-family="monospace" font-size="9">L-1:F-1</text>
<circle cx="1702.0" cy="918.0" r="9" fill="#ccc"/>
<text x="1702.0" y="922.0" text-anchor="middle" fill="#666" font-family="monospace" font-size="9" font-weight="bold">1</text>
<rect x="1760.0" y="898.0" width="200" height="72" fill="#e8e8e8" stroke="#999" stroke-width="2" rx="8"/>
<text x="1860.0" y="916.0" text-anchor="middle" fill="#333" font-family="Arial,sans-serif" font-size="12" font-weight="bold">Negation Detection</text>
<text x="1860.0" y="930.0" text-anchor="middle" fill="#333" font-family="Arial,sans-serif" font-size="12" font-weight="bold">(L0:F4958)</text>
<text x="1860.0" y="948.0" text-anchor="middle" fill="#666" font-family="monospace" font-size="9">L0:F4958 —  the word &quot;not&quot;</text>
<text x="1860.0" y="962.0" text-anchor="middle" fill="#666" font-family="monospace" font-size="9">L0:F4958 —  the word &quot;not&quot;</text>
<circle cx="1942.0" cy="911.0" r="9" fill="#ccc"/>
<text x="1942.0" y="915.0" text-anchor="middle" fill="#666" font-family="monospace" font-size="9" font-weight="bold">2</text>
<rect x="247.04500000000002" y="746.0" width="265.90999999999997" height="72" fill="#e8e8e8" stroke="#999" stroke-width="2" rx="8"/>
<text x="380.0" y="764.0" text-anchor="middle" fill="#333" font-family="Arial,sans-serif" font-size="12" font-weight="bold">Early Negation Patterns</text>
<text x="380.0" y="778.0" text-anchor="middle" fill="#333" font-family="Arial,sans-serif" font-size="12" font-weight="bold">(L3:F8011)</text>
<text x="380.0" y="796.0" text-anchor="middle" fill="#666" font-family="monospace" font-size="9">L3:F8011 —  a mix of words and code fragm</text>
<text x="380.0" y="810.0" text-anchor="middle" fill="#666" font-family="monospace" font-size="9">L3:F8011 —  a mix of words and code fragm</text>
<circle cx="494.9549999999999" cy="759.0" r="9" fill="#ccc"/>
<text x="494.9549999999999" y="763.0" text-anchor="middle" fill="#666" font-family="monospace" font-size="9" font-weight="bold">2</text>
<rect x="244.29000000000002" y="470.0" width="271.41999999999996" height="58" fill="#e8e8e8" stroke="#999" stroke-width="2" rx="8"/>
<text x="380.0" y="488.0" text-anchor="middle" fill="#333" font-family="Arial,sans-serif" font-size="12" font-weight="bold">Negation + &#x27;to be&#x27;</text>
<text x="380.0" y="502.0" text-anchor="middle" fill="#333" font-family="Arial,sans-serif" font-size="12" font-weight="bold">(L13:F3295)</text>
<text x="380.0" y="520.0" text-anchor="middle" fill="#666" font-family="monospace" font-size="9">L13:F3295 — negations in the form of &quot;is/a</text>
<circle cx="497.71000000000004" cy="483.0" r="9" fill="#ccc"/>
<text x="497.71000000000004" y="487.0" text-anchor="middle" fill="#666" font-family="monospace" font-size="9" font-weight="bold">1</text>
<rect x="249.8" y="332.0" width="260.4" height="58" fill="#e8e8e8" stroke="#999" stroke-width="2" rx="8"/>
<text x="380.0" y="350.0" text-anchor="middle" fill="#333" font-family="Arial,sans-serif" font-size="12" font-weight="bold">Negation + Equivocations</text>
<text x="380.0" y="364.0" text-anchor="middle" fill="#333" font-family="Arial,sans-serif" font-size="12" font-weight="bold">(L15:F10071)</text>
<text x="380.0" y="382.0" text-anchor="middle" fill="#666" font-family="monospace" font-size="9">L15:F10071 — negations and equivocations</text>
<circle cx="492.2" cy="345.0" r="9" fill="#ccc"/>
<text x="492.2" y="349.0" text-anchor="middle" fill="#666" font-family="monospace" font-size="9" font-weight="bold">1</text>
<rect x="85.82500000000005" y="194.0" width="276.92999999999995" height="58" fill="#e8e8e8" stroke="#999" stroke-width="2" rx="8"/>
<text x="224.29000000000002" y="212.0" text-anchor="middle" fill="#333" font-family="Arial,sans-serif" font-size="12" font-weight="bold">NOT + TO-BE Pattern</text>
<text x="224.29000000000002" y="226.0" text-anchor="middle" fill="#333" font-family="Arial,sans-serif" font-size="12" font-weight="bold">(L16:F12358) [STRONGEST]</text>
<text x="224.29000000000002" y="244.0" text-anchor="middle" fill="#666" font-family="monospace" font-size="9">L16:F12358 —  the word &quot;not&quot; followed withi</text>
<circle cx="344.755" cy="207.0" r="9" fill="#ccc"/>
<text x="344.755" y="211.0" text-anchor="middle" fill="#666" font-family="monospace" font-size="9" font-weight="bold">1</text>
<rect x="402.75499999999994" y="194.0" width="271.41999999999996" height="58" fill="#e8e8e8" stroke="#999" stroke-width="2" rx="8"/>
<text x="538.4649999999999" y="212.0" text-anchor="middle" fill="#333" font-family="Arial,sans-serif" font-size="12" font-weight="bold">Negation Words (L16:F9779)</text>
<text x="538.4649999999999" y="230.0" text-anchor="middle" fill="#666" font-family="monospace" font-size="9">L16:F9779 — negation words or contractions</text>
<circle cx="656.175" cy="207.0" r="9" fill="#ccc"/>
<text x="656.175" y="211.0" text-anchor="middle" fill="#666" font-family="monospace" font-size="9" font-weight="bold">1</text>
<rect x="244.29000000000002" y="608.0" width="271.41999999999996" height="58" fill="#e8e8e8" stroke="#999" stroke-width="2" rx="8"/>
<text x="380.0" y="626.0" text-anchor="middle" fill="#333" font-family="Arial,sans-serif" font-size="12" font-weight="bold">Catholic Church/Abbey</text>
<text x="380.0" y="640.0" text-anchor="middle" fill="#333" font-family="Arial,sans-serif" font-size="12" font-weight="bold">(L5:F14591) [NEGATIVE</text>
<text x="380.0" y="654.0" text-anchor="middle" fill="#333" font-family="Arial,sans-serif" font-size="12" font-weight="bold">EFFECT]</text>
<text x="380.0" y="672.0" text-anchor="middle" fill="#666" font-family="monospace" font-size="9">L5:F14591 —  words related to the Catholic</text>
<circle cx="497.71000000000004" cy="621.0" r="9" fill="#ccc"/>
<text x="497.71000000000004" y="625.0" text-anchor="middle" fill="#666" font-family="monospace" font-size="9" font-weight="bold">1</text>
<rect x="2000.0" y="905.0" width="207.04" height="58" fill="#e8e8e8" stroke="#999" stroke-width="2" rx="8"/>
<text x="2103.52" y="923.0" text-anchor="middle" fill="#333" font-family="Arial,sans-serif" font-size="12" font-weight="bold">Pronoun &#x27;you&#x27; (L0:F7710)</text>
<text x="2103.52" y="937.0" text-anchor="middle" fill="#333" font-family="Arial,sans-serif" font-size="12" font-weight="bold">[NEGATIVE EFFECT]</text>
<text x="2103.52" y="955.0" text-anchor="middle" fill="#666" font-family="monospace" font-size="9">L0:F7710 — the pronoun &quot;you&quot;</text>
<circle cx="2189.04" cy="918.0" r="9" fill="#ccc"/>
<text x="2189.04" y="922.0" text-anchor="middle" fill="#666" font-family="monospace" font-size="9" font-weight="bold">1</text>
<rect x="2247.04" y="898.0" width="200" height="72" fill="#e8e8e8" stroke="#999" stroke-width="2" rx="8"/>
<text x="2347.04" y="916.0" text-anchor="middle" fill="#333" font-family="Arial,sans-serif" font-size="12" font-weight="bold">Articles &#x27;the&#x27;/&#x27;of&#x27;</text>
<text x="2347.04" y="930.0" text-anchor="middle" fill="#333" font-family="Arial,sans-serif" font-size="12" font-weight="bold">(L0:F3820, F2848)</text>
<text x="2347.04" y="948.0" text-anchor="middle" fill="#666" font-family="monospace" font-size="9">L0:F3820 — the word &quot;the&quot;</text>
<text x="2347.04" y="962.0" text-anchor="middle" fill="#666" font-family="monospace" font-size="9">L0:F2848 — the word &quot;of&quot;</text>
<circle cx="2429.04" cy="911.0" r="9" fill="#ccc"/>
<text x="2429.04" y="915.0" text-anchor="middle" fill="#666" font-family="monospace" font-size="9" font-weight="bold">2</text>
<rect x="2487.04" y="905.0" width="200.07999999999998" height="58" fill="#e8e8e8" stroke="#999" stroke-width="2" rx="8"/>
<text x="2587.08" y="923.0" text-anchor="middle" fill="#333" font-family="Arial,sans-serif" font-size="12" font-weight="bold">Copula &#x27;is&#x27; (L0:F11375)</text>
<text x="2587.08" y="941.0" text-anchor="middle" fill="#666" font-family="monospace" font-size="9">L0:F11375 —  the word &quot;is&quot;</text>
<circle cx="2669.12" cy="918.0" r="9" fill="#ccc"/>
<text x="2669.12" y="922.0" text-anchor="middle" fill="#666" font-family="monospace" font-size="9" font-weight="bold">1</text>
<rect x="280.0" y="70.0" width="200" height="44" fill="#e8e8e8" stroke="#999" stroke-width="2" rx="8"/>
<text x="380.0" y="88.0" text-anchor="middle" fill="#333" font-family="Arial,sans-serif" font-size="12" font-weight="bold">Output: Probe</text>
<text x="380.0" y="102.0" text-anchor="middle" fill="#333" font-family="Arial,sans-serif" font-size="12" font-weight="bold">Classification Score</text>
<circle cx="462.0" cy="83.0" r="9" fill="#ccc"/>
<text x="462.0" y="87.0" text-anchor="middle" fill="#666" font-family="monospace" font-size="9" font-weight="bold">0</text>
<line x1="40" y1="1050" x2="2767" y2="1050" stroke="#ddd" stroke-width="1"/>
<text x="40" y="1068" fill="#666" font-family="Arial,sans-serif" font-size="10" font-weight="bold" letter-spacing="1px">PROMPT</text>
<text x="40" y="1086" fill="#333" font-family="monospace" font-size="11">"&lt;bos&gt;That first glimpse of the towering, steepled abbey rising from the sea on its rock is a moment you will not forget."</text>
<text x="40" y="1110" fill="#666" font-family="Arial,sans-serif" font-size="10" font-weight="bold" letter-spacing="1px">TOP OUTPUTS</text>
<rect x="40" y="1115" width="100" height="20" fill="#e8e8e8" stroke="none" rx="6"/>
<text x="45" y="1129" fill="#333" font-family="Arial,sans-serif" font-size="11" font-weight="bold">(empty) <tspan fill="#555" font-size="10">100%</tspan></text>
</svg>